  0
SECTION
  2
HEADER
  9
$ACADVER
  1
AC1009
  0
ENDSEC
  0
SECTION
  2
TABLES
  0
TABLE
  2
LAYER
  70
1
  0
LAYER
  2
Layer_0
  70
0
  62
7
  6
CONTINUOUS
  0
ENDTAB
  0
ENDSEC
  0
SECTION
  2
ENTITIES
  0
POLYLINE
  5
90
  8
Layer_0
  62
7
  70
1
  66
1
  10
0
  20
0
  30
0
  0
VERTEX
  5
90
  8
Layer_0
  10
-562.75
  20
4706
  0
VERTEX
  5
91
  8
Layer_0
  10
-602.75
  20
4706
  0
VERTEX
  5
92
  8
Layer_0
  10
-602.75
  20
4701
  0
VERTEX
  5
93
  8
Layer_0
  10
-632.75
  20
4716
  0
VERTEX
  5
94
  8
Layer_0
  10
-602.75
  20
4731
  0
VERTEX
  5
95
  8
Layer_0
  10
-602.75
  20
4726
  0
VERTEX
  5
96
  8
Layer_0
  10
-562.75
  20
4726
  0
VERTEX
  5
97
  8
Layer_0
  10
-562.75
  20
4766
  0
VERTEX
  5
98
  8
Layer_0
  10
-462.75
  20
4766
  0
VERTEX
  5
99
  8
Layer_0
  10
-462.75
  20
3546
  0
VERTEX
  5
9a
  8
Layer_0
  10
-562.75
  20
3546
  0
VERTEX
  5
9b
  8
Layer_0
  10
-562.75
  20
3614
  0
VERTEX
  5
9c
  8
Layer_0
  10
-602.75
  20
3614
  0
VERTEX
  5
9d
  8
Layer_0
  10
-602.75
  20
3609
  0
VERTEX
  5
9e
  8
Layer_0
  10
-632.75
  20
3624
  0
VERTEX
  5
9f
  8
Layer_0
  10
-602.75
  20
3639
  0
VERTEX
  5
a0
  8
Layer_0
  10
-602.75
  20
3634
  0
VERTEX
  5
a1
  8
Layer_0
  10
-562.75
  20
3634
  0
VERTEX
  5
a2
  8
Layer_0
  10
-562.75
  20
3796
  0
VERTEX
  5
a3
  8
Layer_0
  10
-602.75
  20
3796
  0
VERTEX
  5
a4
  8
Layer_0
  10
-602.75
  20
3791
  0
VERTEX
  5
a5
  8
Layer_0
  10
-632.75
  20
3806
  0
VERTEX
  5
a6
  8
Layer_0
  10
-602.75
  20
3821
  0
VERTEX
  5
a7
  8
Layer_0
  10
-602.75
  20
3816
  0
VERTEX
  5
a8
  8
Layer_0
  10
-562.75
  20
3816
  0
VERTEX
  5
a9
  8
Layer_0
  10
-562.75
  20
3978
  0
VERTEX
  5
aa
  8
Layer_0
  10
-602.75
  20
3978
  0
VERTEX
  5
ab
  8
Layer_0
  10
-602.75
  20
3973
  0
VERTEX
  5
ac
  8
Layer_0
  10
-632.75
  20
3988
  0
VERTEX
  5
ad
  8
Layer_0
  10
-602.75
  20
4003
  0
VERTEX
  5
ae
  8
Layer_0
  10
-602.75
  20
3998
  0
VERTEX
  5
af
  8
Layer_0
  10
-562.75
  20
3998
  0
VERTEX
  5
b0
  8
Layer_0
  10
-562.75
  20
4160
  0
VERTEX
  5
b1
  8
Layer_0
  10
-602.75
  20
4160
  0
VERTEX
  5
b2
  8
Layer_0
  10
-602.75
  20
4155
  0
VERTEX
  5
b3
  8
Layer_0
  10
-632.75
  20
4170
  0
VERTEX
  5
b4
  8
Layer_0
  10
-602.75
  20
4185
  0
VERTEX
  5
b5
  8
Layer_0
  10
-602.75
  20
4180
  0
VERTEX
  5
b6
  8
Layer_0
  10
-562.75
  20
4180
  0
VERTEX
  5
b7
  8
Layer_0
  10
-562.75
  20
4342
  0
VERTEX
  5
b8
  8
Layer_0
  10
-602.75
  20
4342
  0
VERTEX
  5
b9
  8
Layer_0
  10
-602.75
  20
4337
  0
VERTEX
  5
ba
  8
Layer_0
  10
-632.75
  20
4352
  0
VERTEX
  5
bb
  8
Layer_0
  10
-602.75
  20
4367
  0
VERTEX
  5
bc
  8
Layer_0
  10
-602.75
  20
4362
  0
VERTEX
  5
bd
  8
Layer_0
  10
-562.75
  20
4362
  0
VERTEX
  5
be
  8
Layer_0
  10
-562.75
  20
4524
  0
VERTEX
  5
bf
  8
Layer_0
  10
-602.75
  20
4524
  0
VERTEX
  5
c0
  8
Layer_0
  10
-602.75
  20
4519
  0
VERTEX
  5
c1
  8
Layer_0
  10
-632.75
  20
4534
  0
VERTEX
  5
c2
  8
Layer_0
  10
-602.75
  20
4549
  0
VERTEX
  5
c3
  8
Layer_0
  10
-602.75
  20
4544
  0
VERTEX
  5
c4
  8
Layer_0
  10
-562.75
  20
4544
  0
SEQEND
  0
POLYLINE
  5
c6
  8
Layer_0
  62
7
  70
1
  66
1
  10
0
  20
0
  30
0
  0
VERTEX
  5
c6
  8
Layer_0
  10
-869.25
  20
3604
  0
VERTEX
  5
c7
  8
Layer_0
  10
-829.25
  20
3604
  0
VERTEX
  5
c8
  8
Layer_0
  10
-829.25
  20
3609
  0
VERTEX
  5
c9
  8
Layer_0
  10
-799.25
  20
3594
  0
VERTEX
  5
ca
  8
Layer_0
  10
-829.25
  20
3579
  0
VERTEX
  5
cb
  8
Layer_0
  10
-829.25
  20
3584
  0
VERTEX
  5
cc
  8
Layer_0
  10
-869.25
  20
3584
  0
VERTEX
  5
cd
  8
Layer_0
  10
-869.25
  20
3544
  0
VERTEX
  5
ce
  8
Layer_0
  10
-969.25
  20
3544
  0
VERTEX
  5
cf
  8
Layer_0
  10
-969.25
  20
4764
  0
VERTEX
  5
d0
  8
Layer_0
  10
-869.25
  20
4764
  0
VERTEX
  5
d1
  8
Layer_0
  10
-869.25
  20
4696
  0
VERTEX
  5
d2
  8
Layer_0
  10
-829.25
  20
4696
  0
VERTEX
  5
d3
  8
Layer_0
  10
-829.25
  20
4701
  0
VERTEX
  5
d4
  8
Layer_0
  10
-799.25
  20
4686
  0
VERTEX
  5
d5
  8
Layer_0
  10
-829.25
  20
4671
  0
VERTEX
  5
d6
  8
Layer_0
  10
-829.25
  20
4676
  0
VERTEX
  5
d7
  8
Layer_0
  10
-869.25
  20
4676
  0
VERTEX
  5
d8
  8
Layer_0
  10
-869.25
  20
4514
  0
VERTEX
  5
d9
  8
Layer_0
  10
-829.25
  20
4514
  0
VERTEX
  5
da
  8
Layer_0
  10
-829.25
  20
4519
  0
VERTEX
  5
db
  8
Layer_0
  10
-799.25
  20
4504
  0
VERTEX
  5
dc
  8
Layer_0
  10
-829.25
  20
4489
  0
VERTEX
  5
dd
  8
Layer_0
  10
-829.25
  20
4494
  0
VERTEX
  5
de
  8
Layer_0
  10
-869.25
  20
4494
  0
VERTEX
  5
df
  8
Layer_0
  10
-869.25
  20
4332
  0
VERTEX
  5
e0
  8
Layer_0
  10
-829.25
  20
4332
  0
VERTEX
  5
e1
  8
Layer_0
  10
-829.25
  20
4337
  0
VERTEX
  5
e2
  8
Layer_0
  10
-799.25
  20
4322
  0
VERTEX
  5
e3
  8
Layer_0
  10
-829.25
  20
4307
  0
VERTEX
  5
e4
  8
Layer_0
  10
-829.25
  20
4312
  0
VERTEX
  5
e5
  8
Layer_0
  10
-869.25
  20
4312
  0
VERTEX
  5
e6
  8
Layer_0
  10
-869.25
  20
4150
  0
VERTEX
  5
e7
  8
Layer_0
  10
-829.25
  20
4150
  0
VERTEX
  5
e8
  8
Layer_0
  10
-829.25
  20
4155
  0
VERTEX
  5
e9
  8
Layer_0
  10
-799.25
  20
4140
  0
VERTEX
  5
ea
  8
Layer_0
  10
-829.25
  20
4125
  0
VERTEX
  5
eb
  8
Layer_0
  10
-829.25
  20
4130
  0
VERTEX
  5
ec
  8
Layer_0
  10
-869.25
  20
4130
  0
VERTEX
  5
ed
  8
Layer_0
  10
-869.25
  20
3968
  0
VERTEX
  5
ee
  8
Layer_0
  10
-829.25
  20
3968
  0
VERTEX
  5
ef
  8
Layer_0
  10
-829.25
  20
3973
  0
VERTEX
  5
f0
  8
Layer_0
  10
-799.25
  20
3958
  0
VERTEX
  5
f1
  8
Layer_0
  10
-829.25
  20
3943
  0
VERTEX
  5
f2
  8
Layer_0
  10
-829.25
  20
3948
  0
VERTEX
  5
f3
  8
Layer_0
  10
-869.25
  20
3948
  0
VERTEX
  5
f4
  8
Layer_0
  10
-869.25
  20
3786
  0
VERTEX
  5
f5
  8
Layer_0
  10
-829.25
  20
3786
  0
VERTEX
  5
f6
  8
Layer_0
  10
-829.25
  20
3791
  0
VERTEX
  5
f7
  8
Layer_0
  10
-799.25
  20
3776
  0
VERTEX
  5
f8
  8
Layer_0
  10
-829.25
  20
3761
  0
VERTEX
  5
f9
  8
Layer_0
  10
-829.25
  20
3766
  0
VERTEX
  5
fa
  8
Layer_0
  10
-869.25
  20
3766
  0
SEQEND
  0
POLYLINE
  5
fc
  8
Layer_0
  62
7
  70
1
  66
1
  10
0
  20
0
  30
0
  0
VERTEX
  5
fc
  8
Layer_0
  10
-796.25
  20
4704
  0
VERTEX
  5
fd
  8
Layer_0
  10
-836.25
  20
4704
  0
VERTEX
  5
fe
  8
Layer_0
  10
-836.25
  20
4699
  0
VERTEX
  5
ff
  8
Layer_0
  10
-866.25
  20
4714
  0
VERTEX
  5
100
  8
Layer_0
  10
-836.25
  20
4729
  0
VERTEX
  5
101
  8
Layer_0
  10
-836.25
  20
4724
  0
VERTEX
  5
102
  8
Layer_0
  10
-796.25
  20
4724
  0
VERTEX
  5
103
  8
Layer_0
  10
-796.25
  20
4764
  0
VERTEX
  5
104
  8
Layer_0
  10
-696.25
  20
4764
  0
VERTEX
  5
105
  8
Layer_0
  10
-696.25
  20
3544
  0
VERTEX
  5
106
  8
Layer_0
  10
-796.25
  20
3544
  0
VERTEX
  5
107
  8
Layer_0
  10
-796.25
  20
3612
  0
VERTEX
  5
108
  8
Layer_0
  10
-836.25
  20
3612
  0
VERTEX
  5
109
  8
Layer_0
  10
-836.25
  20
3607
  0
VERTEX
  5
10a
  8
Layer_0
  10
-866.25
  20
3622
  0
VERTEX
  5
10b
  8
Layer_0
  10
-836.25
  20
3637
  0
VERTEX
  5
10c
  8
Layer_0
  10
-836.25
  20
3632
  0
VERTEX
  5
10d
  8
Layer_0
  10
-796.25
  20
3632
  0
VERTEX
  5
10e
  8
Layer_0
  10
-796.25
  20
3794
  0
VERTEX
  5
10f
  8
Layer_0
  10
-836.25
  20
3794
  0
VERTEX
  5
110
  8
Layer_0
  10
-836.25
  20
3789
  0
VERTEX
  5
111
  8
Layer_0
  10
-866.25
  20
3804
  0
VERTEX
  5
112
  8
Layer_0
  10
-836.25
  20
3819
  0
VERTEX
  5
113
  8
Layer_0
  10
-836.25
  20
3814
  0
VERTEX
  5
114
  8
Layer_0
  10
-796.25
  20
3814
  0
VERTEX
  5
115
  8
Layer_0
  10
-796.25
  20
3976
  0
VERTEX
  5
116
  8
Layer_0
  10
-836.25
  20
3976
  0
VERTEX
  5
117
  8
Layer_0
  10
-836.25
  20
3971
  0
VERTEX
  5
118
  8
Layer_0
  10
-866.25
  20
3986
  0
VERTEX
  5
119
  8
Layer_0
  10
-836.25
  20
4001
  0
VERTEX
  5
11a
  8
Layer_0
  10
-836.25
  20
3996
  0
VERTEX
  5
11b
  8
Layer_0
  10
-796.25
  20
3996
  0
VERTEX
  5
11c
  8
Layer_0
  10
-796.25
  20
4158
  0
VERTEX
  5
11d
  8
Layer_0
  10
-836.25
  20
4158
  0
VERTEX
  5
11e
  8
Layer_0
  10
-836.25
  20
4153
  0
VERTEX
  5
11f
  8
Layer_0
  10
-866.25
  20
4168
  0
VERTEX
  5
120
  8
Layer_0
  10
-836.25
  20
4183
  0
VERTEX
  5
121
  8
Layer_0
  10
-836.25
  20
4178
  0
VERTEX
  5
122
  8
Layer_0
  10
-796.25
  20
4178
  0
VERTEX
  5
123
  8
Layer_0
  10
-796.25
  20
4340
  0
VERTEX
  5
124
  8
Layer_0
  10
-836.25
  20
4340
  0
VERTEX
  5
125
  8
Layer_0
  10
-836.25
  20
4335
  0
VERTEX
  5
126
  8
Layer_0
  10
-866.25
  20
4350
  0
VERTEX
  5
127
  8
Layer_0
  10
-836.25
  20
4365
  0
VERTEX
  5
128
  8
Layer_0
  10
-836.25
  20
4360
  0
VERTEX
  5
129
  8
Layer_0
  10
-796.25
  20
4360
  0
VERTEX
  5
12a
  8
Layer_0
  10
-796.25
  20
4522
  0
VERTEX
  5
12b
  8
Layer_0
  10
-836.25
  20
4522
  0
VERTEX
  5
12c
  8
Layer_0
  10
-836.25
  20
4517
  0
VERTEX
  5
12d
  8
Layer_0
  10
-866.25
  20
4532
  0
VERTEX
  5
12e
  8
Layer_0
  10
-836.25
  20
4547
  0
VERTEX
  5
12f
  8
Layer_0
  10
-836.25
  20
4542
  0
VERTEX
  5
130
  8
Layer_0
  10
-796.25
  20
4542
  0
SEQEND
  0
ENDSEC
  0
EOF
