  0
SECTION
  2
HEADER
  9
$ACADVER
  1
AC1009
  0
ENDSEC
  0
SECTION
  2
TABLES
  0
TABLE
  2
LAYER
  70
1
  0
LAYER
  2
Layer_0
  70
0
  62
7
  6
CONTINUOUS
  0
ENDTAB
  0
ENDSEC
  0
SECTION
  2
ENTITIES
  0
POLYLINE
  5
90
  8
Layer_0
  62
7
  70
1
  66
1
  10
0
  20
0
  30
0
  0
VERTEX
  5
90
  8
Layer_0
  10
219.12122
  20
283.27563
  42
0.10828922
  0
VERTEX
  5
91
  8
Layer_0
  10
217.487
  20
283.31238
  0
VERTEX
  5
92
  8
Layer_0
  10
217.26489
  20
283.2594
  0
VERTEX
  5
93
  8
Layer_0
  10
217.01208
  20
283.18335
  0
VERTEX
  5
94
  8
Layer_0
  10
216.73328
  20
283.0863
  0
VERTEX
  5
95
  8
Layer_0
  10
216.43347
  20
282.97021
  0
VERTEX
  5
96
  8
Layer_0
  10
215.78992
  20
282.68823
  0
VERTEX
  5
97
  8
Layer_0
  10
215.11975
  20
282.35352
  42
0.024196113
  0
VERTEX
  5
98
  8
Layer_0
  10
214.29816
  20
281.84534
  0
VERTEX
  5
99
  8
Layer_0
  10
213.46954
  20
281.23975
  0
VERTEX
  5
9a
  8
Layer_0
  10
212.66919
  20
280.5498
  0
VERTEX
  5
9b
  8
Layer_0
  10
212.29559
  20
280.18823
  0
VERTEX
  5
9c
  8
Layer_0
  10
211.94836
  20
279.82349
  0
VERTEX
  5
9d
  8
Layer_0
  10
211.63391
  20
279.46167
  0
VERTEX
  5
9e
  8
Layer_0
  10
211.35864
  20
279.10864
  0
VERTEX
  5
9f
  8
Layer_0
  10
211.02777
  20
278.62439
  0
VERTEX
  5
a0
  8
Layer_0
  10
210.73877
  20
278.13318
  0
VERTEX
  5
a1
  8
Layer_0
  10
210.49121
  20
277.63391
  0
VERTEX
  5
a2
  8
Layer_0
  10
210.28461
  20
277.12524
  0
VERTEX
  5
a3
  8
Layer_0
  10
210.11853
  20
276.60608
  0
VERTEX
  5
a4
  8
Layer_0
  10
209.99255
  20
276.07495
  0
VERTEX
  5
a5
  8
Layer_0
  10
209.90625
  20
275.53088
  0
VERTEX
  5
a6
  8
Layer_0
  10
209.85913
  20
274.97241
  0
VERTEX
  5
a7
  8
Layer_0
  10
209.85034
  20
274.69946
  0
VERTEX
  5
a8
  8
Layer_0
  10
209.84631
  20
274.38977
  0
VERTEX
  5
a9
  8
Layer_0
  10
209.84619
  20
274.24731
  0
VERTEX
  5
aa
  8
Layer_0
  10
209.84747
  20
274.12732
  0
VERTEX
  5
ab
  8
Layer_0
  10
209.8501
  20
274.04016
  0
VERTEX
  5
ac
  8
Layer_0
  10
209.85425
  20
273.99634
  0
VERTEX
  5
ad
  8
Layer_0
  10
209.85919
  20
273.96033
  0
VERTEX
  5
ae
  8
Layer_0
  10
209.86652
  20
273.88525
  0
VERTEX
  5
af
  8
Layer_0
  10
209.87524
  20
273.78235
  0
VERTEX
  5
b0
  8
Layer_0
  10
209.8844
  20
273.66235
  0
VERTEX
  5
b1
  8
Layer_0
  10
209.95422
  20
273.07861
  0
VERTEX
  5
b2
  8
Layer_0
  10
210.07654
  20
272.50195
  0
VERTEX
  5
b3
  8
Layer_0
  10
210.24792
  20
271.94055
  0
VERTEX
  5
b4
  8
Layer_0
  10
210.46484
  20
271.40186
  0
VERTEX
  5
b5
  8
Layer_0
  10
210.72375
  20
270.8938
  0
VERTEX
  5
b6
  8
Layer_0
  10
211.02112
  20
270.42407
  0
VERTEX
  5
b7
  8
Layer_0
  10
211.35339
  20
270.00024
  0
VERTEX
  5
b8
  8
Layer_0
  10
211.71716
  20
269.63025
  42
0.057845622
  0
VERTEX
  5
b9
  8
Layer_0
  10
212.50684
  20
269.05859
  42
0.089904736
  0
VERTEX
  5
ba
  8
Layer_0
  10
213.89783
  20
268.58459
  0
VERTEX
  5
bb
  8
Layer_0
  10
214.23572
  20
268.5498
  0
VERTEX
  5
bc
  8
Layer_0
  10
214.57446
  20
268.54187
  0
VERTEX
  5
bd
  8
Layer_0
  10
214.91315
  20
268.56067
  0
VERTEX
  5
be
  8
Layer_0
  10
215.25098
  20
268.60547
  0
VERTEX
  5
bf
  8
Layer_0
  10
215.58691
  20
268.67615
  0
VERTEX
  5
c0
  8
Layer_0
  10
215.92004
  20
268.77197
  0
VERTEX
  5
c1
  8
Layer_0
  10
216.24951
  20
268.89258
  0
VERTEX
  5
c2
  8
Layer_0
  10
216.57434
  20
269.0376
  0
VERTEX
  5
c3
  8
Layer_0
  10
217.20648
  20
269.39868
  0
VERTEX
  5
c4
  8
Layer_0
  10
217.80896
  20
269.85193
  0
VERTEX
  5
c5
  8
Layer_0
  10
218.37439
  20
270.39343
  0
VERTEX
  5
c6
  8
Layer_0
  10
218.89551
  20
271.01965
  42
0.030644459
  0
VERTEX
  5
c7
  8
Layer_0
  10
219.3573
  20
271.69727
  42
-0.013998008
  0
VERTEX
  5
c8
  8
Layer_0
  10
219.45471
  20
271.86121
  0
VERTEX
  5
c9
  8
Layer_0
  10
219.54492
  20
272.01514
  0
VERTEX
  5
ca
  8
Layer_0
  10
219.64832
  20
272.21472
  0
VERTEX
  5
cb
  8
Layer_0
  10
219.75983
  20
272.44824
  0
VERTEX
  5
cc
  8
Layer_0
  10
219.87439
  20
272.70422
  0
VERTEX
  5
cd
  8
Layer_0
  10
220.09247
  20
273.23682
  0
VERTEX
  5
ce
  8
Layer_0
  10
220.26227
  20
273.71936
  0
VERTEX
  5
cf
  8
Layer_0
  10
220.32043
  20
273.92261
  0
VERTEX
  5
d0
  8
Layer_0
  10
220.38898
  20
274.18848
  0
VERTEX
  5
d1
  8
Layer_0
  10
220.46594
  20
274.50916
  0
VERTEX
  5
d2
  8
Layer_0
  10
220.5498
  20
274.87646
  0
VERTEX
  5
d3
  8
Layer_0
  10
220.73059
  20
275.71997
  0
VERTEX
  5
d4
  8
Layer_0
  10
220.91724
  20
276.65576
  0
VERTEX
  5
d5
  8
Layer_0
  10
221.02197
  20
277.28369
  0
VERTEX
  5
d6
  8
Layer_0
  10
221.11438
  20
277.98425
  0
VERTEX
  5
d7
  8
Layer_0
  10
221.15149
  20
278.32288
  0
VERTEX
  5
d8
  8
Layer_0
  10
221.18018
  20
278.63306
  0
VERTEX
  5
d9
  8
Layer_0
  10
221.19836
  20
278.89941
  0
VERTEX
  5
da
  8
Layer_0
  10
221.20453
  20
279.1062
  42
-0.0060066783
  0
VERTEX
  5
db
  8
Layer_0
  10
221.21094
  20
279.49475
  42
0.053197134
  0
VERTEX
  5
dc
  8
Layer_0
  10
221.09338
  20
281.03247
  0
VERTEX
  5
dd
  8
Layer_0
  10
221.02649
  20
281.32813
  0
VERTEX
  5
de
  8
Layer_0
  10
220.94397
  20
281.60352
  0
VERTEX
  5
df
  8
Layer_0
  10
220.84595
  20
281.85828
  0
VERTEX
  5
e0
  8
Layer_0
  10
220.73267
  20
282.09229
  0
VERTEX
  5
e1
  8
Layer_0
  10
220.60413
  20
282.30518
  0
VERTEX
  5
e2
  8
Layer_0
  10
220.46069
  20
282.49658
  0
VERTEX
  5
e3
  8
Layer_0
  10
220.30231
  20
282.66626
  0
VERTEX
  5
e4
  8
Layer_0
  10
220.12933
  20
282.81384
  42
0.10343469
  0
SEQEND
  0
POLYLINE
  5
e6
  8
Layer_0
  62
7
  70
1
  66
1
  10
0
  20
0
  30
0
  0
VERTEX
  5
e6
  8
Layer_0
  10
228.71814
  20
279.21509
  0
VERTEX
  5
e7
  8
Layer_0
  10
228.40686
  20
279.2406
  0
VERTEX
  5
e8
  8
Layer_0
  10
228.10352
  20
279.22021
  0
VERTEX
  5
e9
  8
Layer_0
  10
227.79272
  20
279.15137
  0
VERTEX
  5
ea
  8
Layer_0
  10
227.45886
  20
279.03198
  0
VERTEX
  5
eb
  8
Layer_0
  10
227.23279
  20
278.92664
  0
VERTEX
  5
ec
  8
Layer_0
  10
226.98047
  20
278.7937
  0
VERTEX
  5
ed
  8
Layer_0
  10
226.86646
  20
278.729
  0
VERTEX
  5
ee
  8
Layer_0
  10
226.77209
  20
278.672
  0
VERTEX
  5
ef
  8
Layer_0
  10
226.70618
  20
278.62744
  0
VERTEX
  5
f0
  8
Layer_0
  10
226.67755
  20
278.6001
  0
VERTEX
  5
f1
  8
Layer_0
  10
226.63239
  20
278.56262
  0
VERTEX
  5
f2
  8
Layer_0
  10
226.53113
  20
278.48999
  0
VERTEX
  5
f3
  8
Layer_0
  10
226.45667
  20
278.43445
  0
VERTEX
  5
f4
  8
Layer_0
  10
226.35742
  20
278.35449
  0
VERTEX
  5
f5
  8
Layer_0
  10
226.23987
  20
278.25574
  0
VERTEX
  5
f6
  8
Layer_0
  10
226.11011
  20
278.14355
  0
VERTEX
  5
f7
  8
Layer_0
  10
225.83948
  20
277.90137
  0
VERTEX
  5
f8
  8
Layer_0
  10
225.59619
  20
277.67188
  0
VERTEX
  5
f9
  8
Layer_0
  10
225.31494
  20
277.38574
  0
VERTEX
  5
fa
  8
Layer_0
  10
225.02954
  20
277.07349
  0
VERTEX
  5
fb
  8
Layer_0
  10
224.73865
  20
276.7334
  0
VERTEX
  5
fc
  8
Layer_0
  10
224.44092
  20
276.36389
  0
VERTEX
  5
fd
  8
Layer_0
  10
224.13513
  20
275.96326
  0
VERTEX
  5
fe
  8
Layer_0
  10
223.82007
  20
275.52991
  0
VERTEX
  5
ff
  8
Layer_0
  10
223.49426
  20
275.06201
  0
VERTEX
  5
100
  8
Layer_0
  10
223.15649
  20
274.55811
  0
VERTEX
  5
101
  8
Layer_0
  10
222.85114
  20
274.09216
  0
VERTEX
  5
102
  8
Layer_0
  10
222.60199
  20
273.7052
  0
VERTEX
  5
103
  8
Layer_0
  10
222.39941
  20
273.38049
  0
VERTEX
  5
104
  8
Layer_0
  10
222.23389
  20
273.10132
  0
VERTEX
  5
105
  8
Layer_0
  10
221.97534
  20
272.6123
  0
VERTEX
  5
106
  8
Layer_0
  10
221.74957
  20
272.10461
  0
VERTEX
  5
107
  8
Layer_0
  10
221.57324
  20
271.65186
  0
VERTEX
  5
108
  8
Layer_0
  10
221.42444
  20
271.20215
  0
VERTEX
  5
109
  8
Layer_0
  10
221.3031
  20
270.75488
  0
VERTEX
  5
10a
  8
Layer_0
  10
221.20911
  20
270.30933
  0
VERTEX
  5
10b
  8
Layer_0
  10
221.14221
  20
269.86475
  0
VERTEX
  5
10c
  8
Layer_0
  10
221.10242
  20
269.42041
  0
VERTEX
  5
10d
  8
Layer_0
  10
221.08954
  20
268.97583
  0
VERTEX
  5
10e
  8
Layer_0
  10
221.10345
  20
268.53003
  42
0.083309846
  0
VERTEX
  5
10f
  8
Layer_0
  10
221.51233
  20
266.68994
  42
0.14206017
  0
VERTEX
  5
110
  8
Layer_0
  10
223.08728
  20
264.69031
  0
VERTEX
  5
111
  8
Layer_0
  10
223.22363
  20
264.59937
  0
VERTEX
  5
112
  8
Layer_0
  10
223.36395
  20
264.52124
  0
VERTEX
  5
113
  8
Layer_0
  10
223.55334
  20
264.43347
  0
VERTEX
  5
114
  8
Layer_0
  10
223.83691
  20
264.31335
  0
VERTEX
  5
115
  8
Layer_0
  10
223.99841
  20
264.24658
  0
VERTEX
  5
116
  8
Layer_0
  10
224.12891
  20
264.19385
  0
VERTEX
  5
117
  8
Layer_0
  10
224.2356
  20
264.15283
  0
VERTEX
  5
118
  8
Layer_0
  10
224.32574
  20
264.12134
  0
VERTEX
  5
119
  8
Layer_0
  10
224.48486
  20
264.07715
  0
VERTEX
  5
11a
  8
Layer_0
  10
224.6637
  20
264.04236
  0
VERTEX
  5
11b
  8
Layer_0
  10
225.04828
  20
263.99084
  0
VERTEX
  5
11c
  8
Layer_0
  10
225.43384
  20
263.9707
  0
VERTEX
  5
11d
  8
Layer_0
  10
225.82141
  20
263.98206
  0
VERTEX
  5
11e
  8
Layer_0
  10
226.21204
  20
264.02515
  0
VERTEX
  5
11f
  8
Layer_0
  10
226.60663
  20
264.1001
  0
VERTEX
  5
120
  8
Layer_0
  10
227.00629
  20
264.20715
  0
VERTEX
  5
121
  8
Layer_0
  10
227.41199
  20
264.34631
  0
VERTEX
  5
122
  8
Layer_0
  10
227.82483
  20
264.51782
  0
VERTEX
  5
123
  8
Layer_0
  10
228.28052
  20
264.74634
  0
VERTEX
  5
124
  8
Layer_0
  10
228.72919
  20
265.01709
  0
VERTEX
  5
125
  8
Layer_0
  10
229.16785
  20
265.32776
  0
VERTEX
  5
126
  8
Layer_0
  10
229.59344
  20
265.67554
  0
VERTEX
  5
127
  8
Layer_0
  10
230.00305
  20
266.05786
  0
VERTEX
  5
128
  8
Layer_0
  10
230.39368
  20
266.47217
  0
VERTEX
  5
129
  8
Layer_0
  10
230.76233
  20
266.91577
  0
VERTEX
  5
12a
  8
Layer_0
  10
231.10602
  20
267.38599
  42
0.042781849
  0
VERTEX
  5
12b
  8
Layer_0
  10
231.63202
  20
268.36731
  0
VERTEX
  5
12c
  8
Layer_0
  10
231.92902
  20
269.12646
  0
VERTEX
  5
12d
  8
Layer_0
  10
232.14252
  20
269.92871
  0
VERTEX
  5
12e
  8
Layer_0
  10
232.21936
  20
270.35266
  0
VERTEX
  5
12f
  8
Layer_0
  10
232.27692
  20
270.79517
  0
VERTEX
  5
130
  8
Layer_0
  10
232.3158
  20
271.25903
  0
VERTEX
  5
131
  8
Layer_0
  10
232.33655
  20
271.74683
  0
VERTEX
  5
132
  8
Layer_0
  10
232.3374
  20
271.88672
  0
VERTEX
  5
133
  8
Layer_0
  10
232.33514
  20
272.07434
  0
VERTEX
  5
134
  8
Layer_0
  10
232.33032
  20
272.29053
  0
VERTEX
  5
135
  8
Layer_0
  10
232.32373
  20
272.51587
  0
VERTEX
  5
136
  8
Layer_0
  10
232.31592
  20
272.73096
  0
VERTEX
  5
137
  8
Layer_0
  10
232.30756
  20
272.91638
  0
VERTEX
  5
138
  8
Layer_0
  10
232.29919
  20
273.05273
  0
VERTEX
  5
139
  8
Layer_0
  10
232.29156
  20
273.12085
  42
-0.04421023
  0
VERTEX
  5
13a
  8
Layer_0
  10
232.26489
  20
273.39746
  42
0.028334029
  0
VERTEX
  5
13b
  8
Layer_0
  10
232.23181
  20
273.71875
  42
-0.015069745
  0
VERTEX
  5
13c
  8
Layer_0
  10
232.18872
  20
274.01624
  42
0.014919785
  0
VERTEX
  5
13d
  8
Layer_0
  10
232.09082
  20
274.60217
  0
VERTEX
  5
13e
  8
Layer_0
  10
231.93195
  20
275.31494
  0
VERTEX
  5
13f
  8
Layer_0
  10
231.73706
  20
275.97131
  0
VERTEX
  5
140
  8
Layer_0
  10
231.50598
  20
276.57178
  0
VERTEX
  5
141
  8
Layer_0
  10
231.23853
  20
277.1167
  0
VERTEX
  5
142
  8
Layer_0
  10
230.93433
  20
277.60645
  0
VERTEX
  5
143
  8
Layer_0
  10
230.59332
  20
278.0415
  0
VERTEX
  5
144
  8
Layer_0
  10
230.21521
  20
278.42224
  0
VERTEX
  5
145
  8
Layer_0
  10
229.79974
  20
278.74902
  42
0.045931508
  0
VERTEX
  5
146
  8
Layer_0
  10
229.27338
  20
279.02686
  42
0.068105773
  0
SEQEND
  0
POLYLINE
  5
148
  8
Layer_0
  62
7
  70
1
  66
1
  10
0
  20
0
  30
0
  0
VERTEX
  5
148
  8
Layer_0
  10
205.71155
  20
277.95081
  42
0.09118769
  0
VERTEX
  5
149
  8
Layer_0
  10
204.92938
  20
278.00671
  0
VERTEX
  5
14a
  8
Layer_0
  10
204.64447
  20
277.96655
  0
VERTEX
  5
14b
  8
Layer_0
  10
204.35144
  20
277.89355
  0
VERTEX
  5
14c
  8
Layer_0
  10
204.05078
  20
277.7876
  0
VERTEX
  5
14d
  8
Layer_0
  10
203.74292
  20
277.64917
  0
VERTEX
  5
14e
  8
Layer_0
  10
203.42816
  20
277.47827
  0
VERTEX
  5
14f
  8
Layer_0
  10
203.10706
  20
277.27527
  0
VERTEX
  5
150
  8
Layer_0
  10
202.77991
  20
277.04028
  0
VERTEX
  5
151
  8
Layer_0
  10
202.44714
  20
276.77344
  42
0.025877412
  0
VERTEX
  5
152
  8
Layer_0
  10
201.80261
  20
276.16736
  0
VERTEX
  5
153
  8
Layer_0
  10
201.49329
  20
275.82751
  0
VERTEX
  5
154
  8
Layer_0
  10
201.19617
  20
275.46265
  0
VERTEX
  5
155
  8
Layer_0
  10
200.91302
  20
275.07544
  0
VERTEX
  5
156
  8
Layer_0
  10
200.64551
  20
274.6687
  0
VERTEX
  5
157
  8
Layer_0
  10
200.16388
  20
273.80713
  0
VERTEX
  5
158
  8
Layer_0
  10
199.76477
  20
272.89929
  0
VERTEX
  5
159
  8
Layer_0
  10
199.54126
  20
272.25049
  0
VERTEX
  5
15a
  8
Layer_0
  10
199.37549
  20
271.62024
  0
VERTEX
  5
15b
  8
Layer_0
  10
199.26721
  20
271.00427
  0
VERTEX
  5
15c
  8
Layer_0
  10
199.21631
  20
270.39844
  0
VERTEX
  5
15d
  8
Layer_0
  10
199.2226
  20
269.79822
  0
VERTEX
  5
15e
  8
Layer_0
  10
199.28589
  20
269.19958
  0
VERTEX
  5
15f
  8
Layer_0
  10
199.40613
  20
268.59814
  0
VERTEX
  5
160
  8
Layer_0
  10
199.58307
  20
267.98962
  42
0.076221115
  0
VERTEX
  5
161
  8
Layer_0
  10
200.46472
  20
266.27686
  0
VERTEX
  5
162
  8
Layer_0
  10
200.69885
  20
265.96387
  0
VERTEX
  5
163
  8
Layer_0
  10
200.92047
  20
265.68933
  0
VERTEX
  5
164
  8
Layer_0
  10
201.13434
  20
265.44885
  0
VERTEX
  5
165
  8
Layer_0
  10
201.34534
  20
265.23792
  0
VERTEX
  5
166
  8
Layer_0
  10
201.7782
  20
264.88623
  0
VERTEX
  5
167
  8
Layer_0
  10
202.25793
  20
264.5979
  0
VERTEX
  5
168
  8
Layer_0
  10
202.74695
  20
264.39172
  0
VERTEX
  5
169
  8
Layer_0
  10
203.27576
  20
264.25403
  0
VERTEX
  5
16a
  8
Layer_0
  10
203.80914
  20
264.19141
  0
VERTEX
  5
16b
  8
Layer_0
  10
204.3114
  20
264.21045
  0
VERTEX
  5
16c
  8
Layer_0
  10
204.41467
  20
264.22229
  0
VERTEX
  5
16d
  8
Layer_0
  10
204.46393
  20
264.22449
  0
VERTEX
  5
16e
  8
Layer_0
  10
204.52087
  20
264.23193
  0
VERTEX
  5
16f
  8
Layer_0
  10
204.64307
  20
264.25757
  0
VERTEX
  5
170
  8
Layer_0
  10
204.79199
  20
264.29297
  0
VERTEX
  5
171
  8
Layer_0
  10
204.92859
  20
264.3291
  0
VERTEX
  5
172
  8
Layer_0
  10
205.02716
  20
264.35352
  0
VERTEX
  5
173
  8
Layer_0
  10
205.08105
  20
264.3595
  0
VERTEX
  5
174
  8
Layer_0
  10
205.11774
  20
264.36975
  0
VERTEX
  5
175
  8
Layer_0
  10
205.20129
  20
264.40283
  0
VERTEX
  5
176
  8
Layer_0
  10
205.31921
  20
264.45337
  0
VERTEX
  5
177
  8
Layer_0
  10
205.45917
  20
264.5166
  42
0.10947537
  0
VERTEX
  5
178
  8
Layer_0
  10
207.06909
  20
265.73206
  0
VERTEX
  5
179
  8
Layer_0
  10
207.30786
  20
266.0343
  0
VERTEX
  5
17a
  8
Layer_0
  10
207.52979
  20
266.36145
  0
VERTEX
  5
17b
  8
Layer_0
  10
207.74792
  20
266.73389
  0
VERTEX
  5
17c
  8
Layer_0
  10
207.97498
  20
267.17188
  42
0.045298405
  0
VERTEX
  5
17d
  8
Layer_0
  10
208.29987
  20
268.01379
  42
0.049107618
  0
VERTEX
  5
17e
  8
Layer_0
  10
208.59503
  20
269.63379
  0
VERTEX
  5
17f
  8
Layer_0
  10
208.63159
  20
270.2467
  0
VERTEX
  5
180
  8
Layer_0
  10
208.64087
  20
270.85547
  0
VERTEX
  5
181
  8
Layer_0
  10
208.62244
  20
271.46362
  0
VERTEX
  5
182
  8
Layer_0
  10
208.57593
  20
272.07397
  0
VERTEX
  5
183
  8
Layer_0
  10
208.50116
  20
272.68994
  0
VERTEX
  5
184
  8
Layer_0
  10
208.39777
  20
273.31482
  0
VERTEX
  5
185
  8
Layer_0
  10
208.26538
  20
273.95166
  0
VERTEX
  5
186
  8
Layer_0
  10
208.10376
  20
274.60388
  0
VERTEX
  5
187
  8
Layer_0
  10
207.86121
  20
275.38354
  0
VERTEX
  5
188
  8
Layer_0
  10
207.57361
  20
276.08264
  0
VERTEX
  5
189
  8
Layer_0
  10
207.41541
  20
276.39661
  0
VERTEX
  5
18a
  8
Layer_0
  10
207.24896
  20
276.68396
  0
VERTEX
  5
18b
  8
Layer_0
  10
207.07532
  20
276.94263
  0
VERTEX
  5
18c
  8
Layer_0
  10
206.89539
  20
277.17041
  42
0.14553626
  0
SEQEND
  0
POLYLINE
  5
18e
  8
Layer_0
  62
7
  70
1
  66
1
  10
0
  20
0
  30
0
  0
VERTEX
  5
18e
  8
Layer_0
  10
234.75928
  20
265.77246
  0
VERTEX
  5
18f
  8
Layer_0
  10
234.3363
  20
265.83252
  0
VERTEX
  5
190
  8
Layer_0
  10
233.86914
  20
265.81934
  0
VERTEX
  5
191
  8
Layer_0
  10
233.35974
  20
265.73376
  0
VERTEX
  5
192
  8
Layer_0
  10
232.80994
  20
265.57642
  0
VERTEX
  5
193
  8
Layer_0
  10
232.22144
  20
265.34766
  0
VERTEX
  5
194
  8
Layer_0
  10
231.59631
  20
265.04834
  0
VERTEX
  5
195
  8
Layer_0
  10
230.93628
  20
264.67908
  0
VERTEX
  5
196
  8
Layer_0
  10
230.24329
  20
264.24048
  42
0.066865149
  0
VERTEX
  5
197
  8
Layer_0
  10
227.47327
  20
261.82397
  42
0.048452497
  0
VERTEX
  5
198
  8
Layer_0
  10
226.50079
  20
260.46973
  42
0.046845379
  0
VERTEX
  5
199
  8
Layer_0
  10
226.08899
  20
259.58325
  42
0.04330469
  0
VERTEX
  5
19a
  8
Layer_0
  10
225.75012
  20
258.30591
  0
VERTEX
  5
19b
  8
Layer_0
  10
225.68829
  20
257.68188
  0
VERTEX
  5
19c
  8
Layer_0
  10
225.70544
  20
257.06787
  0
VERTEX
  5
19d
  8
Layer_0
  10
225.80066
  20
256.47437
  0
VERTEX
  5
19e
  8
Layer_0
  10
225.97296
  20
255.9115
  0
VERTEX
  5
19f
  8
Layer_0
  10
226.02209
  20
255.78088
  0
VERTEX
  5
1a0
  8
Layer_0
  10
226.06018
  20
255.6731
  0
VERTEX
  5
1a1
  8
Layer_0
  10
226.08331
  20
255.59924
  0
VERTEX
  5
1a2
  8
Layer_0
  10
226.08777
  20
255.57043
  42
-0.19529755
  0
VERTEX
  5
1a3
  8
Layer_0
  10
226.10217
  20
255.55212
  0
VERTEX
  5
1a4
  8
Layer_0
  10
226.16016
  20
255.47864
  0
VERTEX
  5
1a5
  8
Layer_0
  10
226.25879
  20
255.31909
  42
0.16405001
  0
VERTEX
  5
1a6
  8
Layer_0
  10
227.99664
  20
253.80713
  0
VERTEX
  5
1a7
  8
Layer_0
  10
228.55231
  20
253.62085
  0
VERTEX
  5
1a8
  8
Layer_0
  10
229.13562
  20
253.51929
  0
VERTEX
  5
1a9
  8
Layer_0
  10
229.75891
  20
253.5011
  0
VERTEX
  5
1aa
  8
Layer_0
  10
230.43445
  20
253.56494
  0
VERTEX
  5
1ab
  8
Layer_0
  10
230.55353
  20
253.58203
  0
VERTEX
  5
1ac
  8
Layer_0
  10
230.65283
  20
253.59534
  0
VERTEX
  5
1ad
  8
Layer_0
  10
230.72205
  20
253.60339
  0
VERTEX
  5
1ae
  8
Layer_0
  10
230.75061
  20
253.6051
  0
VERTEX
  5
1af
  8
Layer_0
  10
230.79272
  20
253.61023
  0
VERTEX
  5
1b0
  8
Layer_0
  10
230.88977
  20
253.63184
  0
VERTEX
  5
1b1
  8
Layer_0
  10
231.02777
  20
253.66602
  0
VERTEX
  5
1b2
  8
Layer_0
  10
231.19287
  20
253.70923
  0
VERTEX
  5
1b3
  8
Layer_0
  10
231.54871
  20
253.80762
  0
VERTEX
  5
1b4
  8
Layer_0
  10
231.84619
  20
253.89734
  0
VERTEX
  5
1b5
  8
Layer_0
  10
232.39691
  20
254.10559
  0
VERTEX
  5
1b6
  8
Layer_0
  10
232.92212
  20
254.36206
  0
VERTEX
  5
1b7
  8
Layer_0
  10
233.42041
  20
254.66577
  0
VERTEX
  5
1b8
  8
Layer_0
  10
233.89075
  20
255.0155
  0
VERTEX
  5
1b9
  8
Layer_0
  10
234.33167
  20
255.4104
  0
VERTEX
  5
1ba
  8
Layer_0
  10
234.74194
  20
255.84937
  0
VERTEX
  5
1bb
  8
Layer_0
  10
235.12036
  20
256.33154
  0
VERTEX
  5
1bc
  8
Layer_0
  10
235.4657
  20
256.85547
  42
0.040083117
  0
VERTEX
  5
1bd
  8
Layer_0
  10
236.09631
  20
258.15625
  0
VERTEX
  5
1be
  8
Layer_0
  10
236.27502
  20
258.62793
  0
VERTEX
  5
1bf
  8
Layer_0
  10
236.42773
  20
259.09033
  0
VERTEX
  5
1c0
  8
Layer_0
  10
236.55518
  20
259.54639
  0
VERTEX
  5
1c1
  8
Layer_0
  10
236.65784
  20
259.9989
  0
VERTEX
  5
1c2
  8
Layer_0
  10
236.79102
  20
260.90454
  0
VERTEX
  5
1c3
  8
Layer_0
  10
236.83197
  20
261.83008
  0
VERTEX
  5
1c4
  8
Layer_0
  10
236.80396
  20
262.49194
  0
VERTEX
  5
1c5
  8
Layer_0
  10
236.72662
  20
263.10632
  0
VERTEX
  5
1c6
  8
Layer_0
  10
236.60156
  20
263.66882
  0
VERTEX
  5
1c7
  8
Layer_0
  10
236.43066
  20
264.17493
  0
VERTEX
  5
1c8
  8
Layer_0
  10
236.2157
  20
264.62048
  0
VERTEX
  5
1c9
  8
Layer_0
  10
235.95837
  20
265.00098
  0
VERTEX
  5
1ca
  8
Layer_0
  10
235.6604
  20
265.31226
  0
VERTEX
  5
1cb
  8
Layer_0
  10
235.32361
  20
265.5498
  42
0.068318762
  0
SEQEND
  0
POLYLINE
  5
1cd
  8
Layer_0
  62
7
  70
1
  66
1
  10
0
  20
0
  30
0
  0
VERTEX
  5
1cd
  8
Layer_0
  10
217.80627
  20
266.5271
  42
0.052799566
  0
VERTEX
  5
1ce
  8
Layer_0
  10
216.55072
  20
266.79858
  0
VERTEX
  5
1cf
  8
Layer_0
  10
215.94861
  20
266.83838
  0
VERTEX
  5
1d0
  8
Layer_0
  10
215.34674
  20
266.82312
  0
VERTEX
  5
1d1
  8
Layer_0
  10
214.74774
  20
266.75366
  0
VERTEX
  5
1d2
  8
Layer_0
  10
214.15417
  20
266.63062
  0
VERTEX
  5
1d3
  8
Layer_0
  10
213.56848
  20
266.45459
  0
VERTEX
  5
1d4
  8
Layer_0
  10
212.99347
  20
266.22607
  0
VERTEX
  5
1d5
  8
Layer_0
  10
212.43152
  20
265.94604
  0
VERTEX
  5
1d6
  8
Layer_0
  10
211.88525
  20
265.61487
  42
0.019365629
  0
VERTEX
  5
1d7
  8
Layer_0
  10
210.99182
  20
264.9552
  42
-0.02681601
  0
VERTEX
  5
1d8
  8
Layer_0
  10
209.34503
  20
263.82861
  0
VERTEX
  5
1d9
  8
Layer_0
  10
209.09863
  20
263.67908
  0
VERTEX
  5
1da
  8
Layer_0
  10
208.81409
  20
263.51099
  0
VERTEX
  5
1db
  8
Layer_0
  10
208.68274
  20
263.43469
  0
VERTEX
  5
1dc
  8
Layer_0
  10
208.5722
  20
263.37146
  0
VERTEX
  5
1dd
  8
Layer_0
  10
208.49255
  20
263.32715
  0
VERTEX
  5
1de
  8
Layer_0
  10
208.4538
  20
263.30774
  42
0.043927359
  0
VERTEX
  5
1df
  8
Layer_0
  10
208.29126
  20
263.22217
  42
-0.011556598
  0
VERTEX
  5
1e0
  8
Layer_0
  10
208.07068
  20
263.10498
  42
-0.039788943
  0
VERTEX
  5
1e1
  8
Layer_0
  10
204.75049
  20
261.77478
  0
VERTEX
  5
1e2
  8
Layer_0
  10
204.26868
  20
261.61877
  0
VERTEX
  5
1e3
  8
Layer_0
  10
203.84802
  20
261.4668
  0
VERTEX
  5
1e4
  8
Layer_0
  10
203.48242
  20
261.31628
  0
VERTEX
  5
1e5
  8
Layer_0
  10
203.16577
  20
261.16504
  0
VERTEX
  5
1e6
  8
Layer_0
  10
202.71863
  20
260.91479
  0
VERTEX
  5
1e7
  8
Layer_0
  10
202.29846
  20
260.6405
  0
VERTEX
  5
1e8
  8
Layer_0
  10
201.90356
  20
260.34058
  0
VERTEX
  5
1e9
  8
Layer_0
  10
201.53229
  20
260.01355
  0
VERTEX
  5
1ea
  8
Layer_0
  10
201.18274
  20
259.65747
  0
VERTEX
  5
1eb
  8
Layer_0
  10
200.85327
  20
259.271
  0
VERTEX
  5
1ec
  8
Layer_0
  10
200.54211
  20
258.85217
  0
VERTEX
  5
1ed
  8
Layer_0
  10
200.24744
  20
258.39941
  42
0.063942093
  0
VERTEX
  5
1ee
  8
Layer_0
  10
199.51727
  20
256.79285
  42
0.2184477
  0
VERTEX
  5
1ef
  8
Layer_0
  10
200.23828
  20
251.73743
  42
0.17042585
  0
VERTEX
  5
1f0
  8
Layer_0
  10
203.58374
  20
249.10596
  0
VERTEX
  5
1f1
  8
Layer_0
  10
204.05139
  20
248.96301
  0
VERTEX
  5
1f2
  8
Layer_0
  10
204.57703
  20
248.83899
  0
VERTEX
  5
1f3
  8
Layer_0
  10
204.88281
  20
248.77966
  0
VERTEX
  5
1f4
  8
Layer_0
  10
205.22858
  20
248.71985
  0
VERTEX
  5
1f5
  8
Layer_0
  10
205.62286
  20
248.65771
  0
VERTEX
  5
1f6
  8
Layer_0
  10
206.07416
  20
248.59155
  42
-0.036164524
  0
VERTEX
  5
1f7
  8
Layer_0
  10
209.07385
  20
247.96021
  42
-0.035402337
  0
VERTEX
  5
1f8
  8
Layer_0
  10
210.38495
  20
247.47534
  0
VERTEX
  5
1f9
  8
Layer_0
  10
210.67212
  20
247.34253
  0
VERTEX
  5
1fa
  8
Layer_0
  10
210.93927
  20
247.21594
  0
VERTEX
  5
1fb
  8
Layer_0
  10
211.05225
  20
247.16138
  0
VERTEX
  5
1fc
  8
Layer_0
  10
211.14447
  20
247.11572
  0
VERTEX
  5
1fd
  8
Layer_0
  10
211.21069
  20
247.08179
  0
VERTEX
  5
1fe
  8
Layer_0
  10
211.24573
  20
247.06201
  42
0.024387534
  0
VERTEX
  5
1ff
  8
Layer_0
  10
211.42627
  20
246.95935
  42
-0.036365303
  0
VERTEX
  5
200
  8
Layer_0
  10
212.53192
  20
246.22998
  42
0.039312909
  0
VERTEX
  5
201
  8
Layer_0
  10
214.44885
  20
245.02417
  0
VERTEX
  5
202
  8
Layer_0
  10
214.96985
  20
244.76184
  0
VERTEX
  5
203
  8
Layer_0
  10
215.43835
  20
244.54541
  0
VERTEX
  5
204
  8
Layer_0
  10
215.85394
  20
244.37524
  0
VERTEX
  5
205
  8
Layer_0
  10
216.21606
  20
244.25146
  0
VERTEX
  5
206
  8
Layer_0
  10
216.76331
  20
244.08936
  0
VERTEX
  5
207
  8
Layer_0
  10
217.22766
  20
243.95715
  0
VERTEX
  5
208
  8
Layer_0
  10
217.62415
  20
243.85144
  0
VERTEX
  5
209
  8
Layer_0
  10
217.9679
  20
243.7688
  0
VERTEX
  5
20a
  8
Layer_0
  10
218.55719
  20
243.65967
  0
VERTEX
  5
20b
  8
Layer_0
  10
219.11597
  20
243.60278
  42
0.061167775
  0
VERTEX
  5
20c
  8
Layer_0
  10
220.3493
  20
243.66895
  0
VERTEX
  5
20d
  8
Layer_0
  10
220.90997
  20
243.80444
  0
VERTEX
  5
20e
  8
Layer_0
  10
221.44495
  20
244.0061
  0
VERTEX
  5
20f
  8
Layer_0
  10
221.95325
  20
244.27344
  0
VERTEX
  5
210
  8
Layer_0
  10
222.43414
  20
244.60559
  0
VERTEX
  5
211
  8
Layer_0
  10
222.8866
  20
245.00195
  0
VERTEX
  5
212
  8
Layer_0
  10
223.30988
  20
245.46191
  0
VERTEX
  5
213
  8
Layer_0
  10
223.70294
  20
245.98462
  0
VERTEX
  5
214
  8
Layer_0
  10
224.06494
  20
246.56934
  42
-0.010405038
  0
VERTEX
  5
215
  8
Layer_0
  10
224.19763
  20
246.79321
  0
VERTEX
  5
216
  8
Layer_0
  10
224.53052
  20
247.55322
  0
VERTEX
  5
217
  8
Layer_0
  10
224.82288
  20
248.37646
  42
0.085320149
  0
VERTEX
  5
218
  8
Layer_0
  10
224.99042
  20
250.67651
  42
0.022987795
  0
VERTEX
  5
219
  8
Layer_0
  10
224.8858
  20
251.36536
  0
VERTEX
  5
21a
  8
Layer_0
  10
224.82813
  20
251.63049
  0
VERTEX
  5
21b
  8
Layer_0
  10
224.75842
  20
251.90234
  0
VERTEX
  5
21c
  8
Layer_0
  10
224.67102
  20
252.19739
  0
VERTEX
  5
21d
  8
Layer_0
  10
224.56018
  20
252.53247
  0
VERTEX
  5
21e
  8
Layer_0
  10
224.42017
  20
252.92383
  0
VERTEX
  5
21f
  8
Layer_0
  10
224.2453
  20
253.38818
  0
VERTEX
  5
220
  8
Layer_0
  10
224.14301
  20
253.65295
  0
VERTEX
  5
221
  8
Layer_0
  10
224.02985
  20
253.94214
  0
VERTEX
  5
222
  8
Layer_0
  10
223.90509
  20
254.25793
  0
VERTEX
  5
223
  8
Layer_0
  10
223.76807
  20
254.60229
  0
VERTEX
  5
224
  8
Layer_0
  10
223.49255
  20
255.29578
  0
VERTEX
  5
225
  8
Layer_0
  10
223.23975
  20
255.93884
  0
VERTEX
  5
226
  8
Layer_0
  10
223.0083
  20
256.53589
  0
VERTEX
  5
227
  8
Layer_0
  10
222.79675
  20
257.09155
  0
VERTEX
  5
228
  8
Layer_0
  10
222.60352
  20
257.61011
  0
VERTEX
  5
229
  8
Layer_0
  10
222.42712
  20
258.09607
  0
VERTEX
  5
22a
  8
Layer_0
  10
222.26624
  20
258.55396
  0
VERTEX
  5
22b
  8
Layer_0
  10
222.11914
  20
258.98816
  0
VERTEX
  5
22c
  8
Layer_0
  10
221.86096
  20
259.80359
  0
VERTEX
  5
22d
  8
Layer_0
  10
221.64063
  20
260.57788
  0
VERTEX
  5
22e
  8
Layer_0
  10
221.44635
  20
261.34705
  0
VERTEX
  5
22f
  8
Layer_0
  10
221.2663
  20
262.14648
  0
VERTEX
  5
230
  8
Layer_0
  10
221.18677
  20
262.51123
  0
VERTEX
  5
231
  8
Layer_0
  10
221.1167
  20
262.81348
  0
VERTEX
  5
232
  8
Layer_0
  10
221.05237
  20
263.06519
  0
VERTEX
  5
233
  8
Layer_0
  10
220.98987
  20
263.27832
  0
VERTEX
  5
234
  8
Layer_0
  10
220.85535
  20
263.63745
  0
VERTEX
  5
235
  8
Layer_0
  10
220.68243
  20
263.98718
  42
0.029204102
  0
VERTEX
  5
236
  8
Layer_0
  10
220.31866
  20
264.58887
  42
0.1045351
  0
VERTEX
  5
237
  8
Layer_0
  10
218.75012
  20
266.07861
  42
0.055863703
  0
SEQEND
  0
POLYLINE
  5
239
  8
Layer_0
  62
7
  70
1
  66
1
  10
0
  20
0
  30
0
  0
VERTEX
  5
239
  8
Layer_0
  10
17.636169
  20
221.29492
  42
0.10834785
  0
VERTEX
  5
23a
  8
Layer_0
  10
16.7547
  20
220.10486
  0
VERTEX
  5
23b
  8
Layer_0
  10
16.677795
  20
219.91284
  0
VERTEX
  5
23c
  8
Layer_0
  10
16.601868
  20
219.68604
  0
VERTEX
  5
23d
  8
Layer_0
  10
16.527954
  20
219.42896
  0
VERTEX
  5
23e
  8
Layer_0
  10
16.457153
  20
219.14636
  0
VERTEX
  5
23f
  8
Layer_0
  10
16.329224
  20
218.52283
  0
VERTEX
  5
240
  8
Layer_0
  10
16.226685
  20
217.85193
  42
0.024313147
  0
VERTEX
  5
241
  8
Layer_0
  10
16.173157
  20
216.97827
  0
VERTEX
  5
242
  8
Layer_0
  10
16.18811
  20
216.04858
  0
VERTEX
  5
243
  8
Layer_0
  10
16.280151
  20
215.0957
  0
VERTEX
  5
244
  8
Layer_0
  10
16.352478
  20
214.63013
  0
VERTEX
  5
245
  8
Layer_0
  10
16.440796
  20
214.18262
  0
VERTEX
  5
246
  8
Layer_0
  10
16.544189
  20
213.76074
  0
VERTEX
  5
247
  8
Layer_0
  10
16.661499
  20
213.37256
  0
VERTEX
  5
248
  8
Layer_0
  10
16.846863
  20
212.87451
  0
VERTEX
  5
249
  8
Layer_0
  10
17.059204
  20
212.40393
  0
VERTEX
  5
24a
  8
Layer_0
  10
17.299194
  20
211.95972
  0
VERTEX
  5
24b
  8
Layer_0
  10
17.567566
  20
211.54089
  0
VERTEX
  5
24c
  8
Layer_0
  10
17.86499
  20
211.14661
  0
VERTEX
  5
24d
  8
Layer_0
  10
18.192078
  20
210.77576
  0
VERTEX
  5
24e
  8
Layer_0
  10
18.549622
  20
210.42749
  0
VERTEX
  5
24f
  8
Layer_0
  10
18.938232
  20
210.10059
  0
VERTEX
  5
250
  8
Layer_0
  10
19.135498
  20
209.95142
  0
VERTEX
  5
251
  8
Layer_0
  10
19.36261
  20
209.7865
  0
VERTEX
  5
252
  8
Layer_0
  10
19.467957
  20
209.71204
  0
VERTEX
  5
253
  8
Layer_0
  10
19.557434
  20
209.65015
  0
VERTEX
  5
254
  8
Layer_0
  10
19.623352
  20
209.60657
  0
VERTEX
  5
255
  8
Layer_0
  10
19.657898
  20
209.58679
  42
-0.045978666
  0
VERTEX
  5
256
  8
Layer_0
  10
19.920776
  20
209.43445
  0
VERTEX
  5
257
  8
Layer_0
  10
20.389282
  20
209.18091
  0
VERTEX
  5
258
  8
Layer_0
  10
20.879822
  20
208.96997
  0
VERTEX
  5
259
  8
Layer_0
  10
21.384888
  20
208.80334
  0
VERTEX
  5
25a
  8
Layer_0
  10
21.896851
  20
208.68225
  0
VERTEX
  5
25b
  8
Layer_0
  10
22.408142
  20
208.60815
  0
VERTEX
  5
25c
  8
Layer_0
  10
22.911255
  20
208.58264
  0
VERTEX
  5
25d
  8
Layer_0
  10
23.39856
  20
208.60693
  0
VERTEX
  5
25e
  8
Layer_0
  10
23.862549
  20
208.68274
  42
0.058056363
  0
VERTEX
  5
25f
  8
Layer_0
  10
24.698364
  20
208.96826
  42
0.089858843
  0
VERTEX
  5
260
  8
Layer_0
  10
25.776245
  20
209.74976
  0
VERTEX
  5
261
  8
Layer_0
  10
26.16156
  20
210.22803
  0
VERTEX
  5
262
  8
Layer_0
  10
26.46814
  20
210.76184
  0
VERTEX
  5
263
  8
Layer_0
  10
26.694763
  20
211.34399
  0
VERTEX
  5
264
  8
Layer_0
  10
26.840332
  20
211.96704
  0
VERTEX
  5
265
  8
Layer_0
  10
26.903503
  20
212.62354
  0
VERTEX
  5
266
  8
Layer_0
  10
26.883179
  20
213.30627
  0
VERTEX
  5
267
  8
Layer_0
  10
26.778076
  20
214.00781
  0
VERTEX
  5
268
  8
Layer_0
  10
26.587097
  20
214.7207
  42
0.030484716
  0
VERTEX
  5
269
  8
Layer_0
  10
26.327087
  20
215.41675
  42
-0.013753624
  0
VERTEX
  5
26a
  8
Layer_0
  10
26.256714
  20
215.57446
  0
VERTEX
  5
26b
  8
Layer_0
  10
26.189941
  20
215.72168
  0
VERTEX
  5
26c
  8
Layer_0
  10
26.096313
  20
215.90259
  0
VERTEX
  5
26d
  8
Layer_0
  10
25.981812
  20
216.10718
  0
VERTEX
  5
26e
  8
Layer_0
  10
25.852295
  20
216.32568
  0
VERTEX
  5
26f
  8
Layer_0
  10
25.572266
  20
216.7655
  0
VERTEX
  5
270
  8
Layer_0
  10
25.303955
  20
217.14331
  0
VERTEX
  5
271
  8
Layer_0
  10
25.18396
  20
217.29272
  0
VERTEX
  5
272
  8
Layer_0
  10
25.02301
  20
217.48242
  0
VERTEX
  5
273
  8
Layer_0
  10
24.82605
  20
217.70703
  0
VERTEX
  5
274
  8
Layer_0
  10
24.598022
  20
217.96106
  0
VERTEX
  5
275
  8
Layer_0
  10
24.06842
  20
218.53577
  0
VERTEX
  5
276
  8
Layer_0
  10
23.473572
  20
219.16309
  0
VERTEX
  5
277
  8
Layer_0
  10
23.063599
  20
219.56885
  0
VERTEX
  5
278
  8
Layer_0
  10
22.593628
  20
220.00354
  0
VERTEX
  5
279
  8
Layer_0
  10
22.362427
  20
220.20801
  0
VERTEX
  5
27a
  8
Layer_0
  10
22.147827
  20
220.39136
  0
VERTEX
  5
27b
  8
Layer_0
  10
21.960327
  20
220.54407
  0
VERTEX
  5
27c
  8
Layer_0
  10
21.810486
  20
220.65674
  42
-0.0060615402
  0
VERTEX
  5
27d
  8
Layer_0
  10
21.526367
  20
220.86462
  42
0.053277713
  0
VERTEX
  5
27e
  8
Layer_0
  10
20.327148
  20
221.58154
  0
VERTEX
  5
27f
  8
Layer_0
  10
19.826477
  20
221.76953
  0
VERTEX
  5
280
  8
Layer_0
  10
19.354248
  20
221.86865
  0
VERTEX
  5
281
  8
Layer_0
  10
18.912903
  20
221.87866
  0
VERTEX
  5
282
  8
Layer_0
  10
18.504944
  20
221.79944
  42
0.1035999
  0
SEQEND
  0
POLYLINE
  5
284
  8
Layer_0
  62
7
  70
1
  66
1
  10
0
  20
0
  30
0
  0
VERTEX
  5
284
  8
Layer_0
  10
25.657898
  20
226.27344
  0
VERTEX
  5
285
  8
Layer_0
  10
25.476257
  20
226.0564
  0
VERTEX
  5
286
  8
Layer_0
  10
25.332825
  20
225.82129
  0
VERTEX
  5
287
  8
Layer_0
  10
25.221252
  20
225.5553
  0
VERTEX
  5
288
  8
Layer_0
  10
25.135071
  20
225.24585
  0
VERTEX
  5
289
  8
Layer_0
  10
25.094849
  20
225.02344
  0
VERTEX
  5
28a
  8
Layer_0
  10
25.061279
  20
224.76733
  0
VERTEX
  5
28b
  8
Layer_0
  10
25.0495
  20
224.64917
  0
VERTEX
  5
28c
  8
Layer_0
  10
25.042419
  20
224.54944
  0
VERTEX
  5
28d
  8
Layer_0
  10
25.040955
  20
224.47742
  0
VERTEX
  5
28e
  8
Layer_0
  10
25.046143
  20
224.44189
  0
VERTEX
  5
28f
  8
Layer_0
  10
25.050293
  20
224.38892
  0
VERTEX
  5
290
  8
Layer_0
  10
25.051086
  20
224.27612
  0
VERTEX
  5
291
  8
Layer_0
  10
25.060547
  20
224.07678
  0
VERTEX
  5
292
  8
Layer_0
  10
25.087341
  20
223.78345
  0
VERTEX
  5
293
  8
Layer_0
  10
25.125122
  20
223.45654
  0
VERTEX
  5
294
  8
Layer_0
  10
25.167725
  20
223.15649
  0
VERTEX
  5
295
  8
Layer_0
  10
25.232422
  20
222.79883
  0
VERTEX
  5
296
  8
Layer_0
  10
25.314209
  20
222.42444
  0
VERTEX
  5
297
  8
Layer_0
  10
25.413818
  20
222.03137
  0
VERTEX
  5
298
  8
Layer_0
  10
25.531616
  20
221.61792
  0
VERTEX
  5
299
  8
Layer_0
  10
25.668213
  20
221.18225
  0
VERTEX
  5
29a
  8
Layer_0
  10
25.824158
  20
220.72241
  0
VERTEX
  5
29b
  8
Layer_0
  10
26
  20
220.23682
  0
VERTEX
  5
29c
  8
Layer_0
  10
26.196289
  20
219.72339
  0
VERTEX
  5
29d
  8
Layer_0
  10
26.38147
  20
219.25391
  0
VERTEX
  5
29e
  8
Layer_0
  10
26.537537
  20
218.86731
  0
VERTEX
  5
29f
  8
Layer_0
  10
26.671936
  20
218.54761
  0
VERTEX
  5
2a0
  8
Layer_0
  10
26.791992
  20
218.27917
  0
VERTEX
  5
2a1
  8
Layer_0
  10
27.018616
  20
217.83228
  0
VERTEX
  5
2a2
  8
Layer_0
  10
27.276245
  20
217.39978
  0
VERTEX
  5
2a3
  8
Layer_0
  10
27.77417
  20
216.68738
  0
VERTEX
  5
2a4
  8
Layer_0
  10
28.322266
  20
216.06128
  0
VERTEX
  5
2a5
  8
Layer_0
  10
28.924194
  20
215.5177
  0
VERTEX
  5
2a6
  8
Layer_0
  10
29.583618
  20
215.05298
  42
0.083346253
  0
VERTEX
  5
2a7
  8
Layer_0
  10
31.158936
  20
214.39355
  42
0.14208088
  0
VERTEX
  5
2a8
  8
Layer_0
  10
33.461914
  20
214.51367
  0
VERTEX
  5
2a9
  8
Layer_0
  10
33.600525
  20
214.56689
  0
VERTEX
  5
2aa
  8
Layer_0
  10
33.731628
  20
214.62988
  0
VERTEX
  5
2ab
  8
Layer_0
  10
33.895569
  20
214.72424
  0
VERTEX
  5
2ac
  8
Layer_0
  10
34.13269
  20
214.87122
  0
VERTEX
  5
2ad
  8
Layer_0
  10
34.373779
  20
215.02478
  0
VERTEX
  5
2ae
  8
Layer_0
  10
34.530273
  20
215.13257
  0
VERTEX
  5
2af
  8
Layer_0
  10
34.64624
  20
215.22717
  0
VERTEX
  5
2b0
  8
Layer_0
  10
34.765381
  20
215.34131
  0
VERTEX
  5
2b1
  8
Layer_0
  10
35.004639
  20
215.599
  0
VERTEX
  5
2b2
  8
Layer_0
  10
35.22113
  20
215.87378
  0
VERTEX
  5
2b3
  8
Layer_0
  10
35.415283
  20
216.1665
  0
VERTEX
  5
2b4
  8
Layer_0
  10
35.587585
  20
216.47803
  0
VERTEX
  5
2b5
  8
Layer_0
  10
35.738403
  20
216.8092
  0
VERTEX
  5
2b6
  8
Layer_0
  10
35.868164
  20
217.16089
  0
VERTEX
  5
2b7
  8
Layer_0
  10
35.977295
  20
217.53394
  0
VERTEX
  5
2b8
  8
Layer_0
  10
36.066223
  20
217.92896
  0
VERTEX
  5
2b9
  8
Layer_0
  10
36.135376
  20
218.38562
  0
VERTEX
  5
2ba
  8
Layer_0
  10
36.169495
  20
218.85913
  0
VERTEX
  5
2bb
  8
Layer_0
  10
36.168945
  20
219.34619
  0
VERTEX
  5
2bc
  8
Layer_0
  10
36.134155
  20
219.8429
  0
VERTEX
  5
2bd
  8
Layer_0
  10
36.065369
  20
220.34595
  0
VERTEX
  5
2be
  8
Layer_0
  10
35.963013
  20
220.85156
  0
VERTEX
  5
2bf
  8
Layer_0
  10
35.827515
  20
221.3562
  0
VERTEX
  5
2c0
  8
Layer_0
  10
35.65918
  20
221.85645
  42
0.042831877
  0
VERTEX
  5
2c1
  8
Layer_0
  10
35.208069
  20
222.75854
  0
VERTEX
  5
2c2
  8
Layer_0
  10
34.801575
  20
223.37524
  0
VERTEX
  5
2c3
  8
Layer_0
  10
34.319519
  20
223.95264
  0
VERTEX
  5
2c4
  8
Layer_0
  10
34.046021
  20
224.23108
  0
VERTEX
  5
2c5
  8
Layer_0
  10
33.748657
  20
224.505
  0
VERTEX
  5
2c6
  8
Layer_0
  10
33.425781
  20
224.77625
  0
VERTEX
  5
2c7
  8
Layer_0
  10
33.075745
  20
225.04663
  0
VERTEX
  5
2c8
  8
Layer_0
  10
32.972656
  20
225.12036
  0
VERTEX
  5
2c9
  8
Layer_0
  10
32.832581
  20
225.2168
  0
VERTEX
  5
2ca
  8
Layer_0
  10
32.670105
  20
225.32629
  0
VERTEX
  5
2cb
  8
Layer_0
  10
32.499939
  20
225.43921
  0
VERTEX
  5
2cc
  8
Layer_0
  10
32.336731
  20
225.5459
  0
VERTEX
  5
2cd
  8
Layer_0
  10
32.195129
  20
225.6366
  0
VERTEX
  5
2ce
  8
Layer_0
  10
32.089783
  20
225.70178
  0
VERTEX
  5
2cf
  8
Layer_0
  10
32.0354
  20
225.73169
  42
-0.043960777
  0
VERTEX
  5
2d0
  8
Layer_0
  10
31.816772
  20
225.85657
  42
0.02767318
  0
VERTEX
  5
2d1
  8
Layer_0
  10
31.561768
  20
226
  42
-0.015485263
  0
VERTEX
  5
2d2
  8
Layer_0
  10
31.319092
  20
226.12366
  42
0.014950175
  0
VERTEX
  5
2d3
  8
Layer_0
  10
30.834412
  20
226.35754
  0
VERTEX
  5
2d4
  8
Layer_0
  10
30.223938
  20
226.61255
  0
VERTEX
  5
2d5
  8
Layer_0
  10
29.636353
  20
226.81152
  0
VERTEX
  5
2d6
  8
Layer_0
  10
29.071289
  20
226.95447
  0
VERTEX
  5
2d7
  8
Layer_0
  10
28.528198
  20
227.04138
  0
VERTEX
  5
2d8
  8
Layer_0
  10
28.006775
  20
227.07239
  0
VERTEX
  5
2d9
  8
Layer_0
  10
27.506592
  20
227.04749
  0
VERTEX
  5
2da
  8
Layer_0
  10
27.027222
  20
226.96667
  0
VERTEX
  5
2db
  8
Layer_0
  10
26.568176
  20
226.83008
  42
0.046127938
  0
VERTEX
  5
2dc
  8
Layer_0
  10
26.087463
  20
226.58582
  42
0.068357931
  0
SEQEND
  0
POLYLINE
  5
2de
  8
Layer_0
  62
7
  70
1
  66
1
  10
0
  20
0
  30
0
  0
VERTEX
  5
2de
  8
Layer_0
  10
14.56604
  20
208.58862
  42
0.091171039
  0
VERTEX
  5
2df
  8
Layer_0
  10
14.115784
  20
208.03906
  0
VERTEX
  5
2e0
  8
Layer_0
  10
13.996521
  20
207.80737
  0
VERTEX
  5
2e1
  8
Layer_0
  10
13.8974
  20
207.55225
  0
VERTEX
  5
2e2
  8
Layer_0
  10
13.818604
  20
207.27441
  0
VERTEX
  5
2e3
  8
Layer_0
  10
13.760132
  20
206.97424
  0
VERTEX
  5
2e4
  8
Layer_0
  10
13.721985
  20
206.65198
  0
VERTEX
  5
2e5
  8
Layer_0
  10
13.704346
  20
206.30823
  0
VERTEX
  5
2e6
  8
Layer_0
  10
13.707275
  20
205.94324
  0
VERTEX
  5
2e7
  8
Layer_0
  10
13.730713
  20
205.55762
  42
0.025788868
  0
VERTEX
  5
2e8
  8
Layer_0
  10
13.842163
  20
204.76392
  0
VERTEX
  5
2e9
  8
Layer_0
  10
14.046692
  20
203.94666
  0
VERTEX
  5
2ea
  8
Layer_0
  10
14.346252
  20
203.12415
  0
VERTEX
  5
2eb
  8
Layer_0
  10
14.731995
  20
202.31738
  0
VERTEX
  5
2ec
  8
Layer_0
  10
15.195068
  20
201.54736
  0
VERTEX
  5
2ed
  8
Layer_0
  10
15.55835
  20
201.04297
  0
VERTEX
  5
2ee
  8
Layer_0
  10
15.938049
  20
200.5907
  0
VERTEX
  5
2ef
  8
Layer_0
  10
16.337219
  20
200.1886
  0
VERTEX
  5
2f0
  8
Layer_0
  10
16.758911
  20
199.83423
  0
VERTEX
  5
2f1
  8
Layer_0
  10
17.206299
  20
199.52515
  0
VERTEX
  5
2f2
  8
Layer_0
  10
17.682373
  20
199.25903
  0
VERTEX
  5
2f3
  8
Layer_0
  10
18.190247
  20
199.03357
  0
VERTEX
  5
2f4
  8
Layer_0
  10
18.733032
  20
198.84631
  42
0.076180731
  0
VERTEX
  5
2f5
  8
Layer_0
  10
20.461304
  20
198.60327
  0
VERTEX
  5
2f6
  8
Layer_0
  10
20.815369
  20
198.61292
  0
VERTEX
  5
2f7
  8
Layer_0
  10
21.134338
  20
198.63342
  0
VERTEX
  5
2f8
  8
Layer_0
  10
21.424072
  20
198.66602
  0
VERTEX
  5
2f9
  8
Layer_0
  10
21.690491
  20
198.71179
  0
VERTEX
  5
2fa
  8
Layer_0
  10
22.177002
  20
198.84827
  0
VERTEX
  5
2fb
  8
Layer_0
  10
22.641113
  20
199.05249
  42
0.1538211
  0
VERTEX
  5
2fc
  8
Layer_0
  10
24.001343
  20
200.36938
  0
VERTEX
  5
2fd
  8
Layer_0
  10
24.046631
  20
200.45203
  0
VERTEX
  5
2fe
  8
Layer_0
  10
24.070679
  20
200.48962
  0
VERTEX
  5
2ff
  8
Layer_0
  10
24.094971
  20
200.53564
  0
VERTEX
  5
300
  8
Layer_0
  10
24.139893
  20
200.63953
  0
VERTEX
  5
301
  8
Layer_0
  10
24.191528
  20
200.76807
  0
VERTEX
  5
302
  8
Layer_0
  10
24.236206
  20
200.88818
  0
VERTEX
  5
303
  8
Layer_0
  10
24.269714
  20
200.97388
  0
VERTEX
  5
304
  8
Layer_0
  10
24.293396
  20
201.01685
  0
VERTEX
  5
305
  8
Layer_0
  10
24.304993
  20
201.04932
  0
VERTEX
  5
306
  8
Layer_0
  10
24.324219
  20
201.12842
  0
VERTEX
  5
307
  8
Layer_0
  10
24.348389
  20
201.24219
  0
VERTEX
  5
308
  8
Layer_0
  10
24.374878
  20
201.37878
  42
0.10945673
  0
VERTEX
  5
309
  8
Layer_0
  10
24.317139
  20
203.20544
  0
VERTEX
  5
30a
  8
Layer_0
  10
24.218201
  20
203.54016
  0
VERTEX
  5
30b
  8
Layer_0
  10
24.092224
  20
203.87549
  0
VERTEX
  5
30c
  8
Layer_0
  10
23.930664
  20
204.23145
  0
VERTEX
  5
30d
  8
Layer_0
  10
23.725281
  20
204.62842
  42
0.045372238
  0
VERTEX
  5
30e
  8
Layer_0
  10
23.272156
  20
205.30896
  42
0.049124581
  0
VERTEX
  5
30f
  8
Layer_0
  10
22.227722
  20
206.37427
  0
VERTEX
  5
310
  8
Layer_0
  10
21.793335
  20
206.7218
  0
VERTEX
  5
311
  8
Layer_0
  10
21.347595
  20
207.04688
  0
VERTEX
  5
312
  8
Layer_0
  10
20.888062
  20
207.35107
  0
VERTEX
  5
313
  8
Layer_0
  10
20.412109
  20
207.63586
  0
VERTEX
  5
314
  8
Layer_0
  10
19.917175
  20
207.90259
  0
VERTEX
  5
315
  8
Layer_0
  10
19.400818
  20
208.15271
  0
VERTEX
  5
316
  8
Layer_0
  10
18.860352
  20
208.3877
  0
VERTEX
  5
317
  8
Layer_0
  10
18.293213
  20
208.60901
  0
VERTEX
  5
318
  8
Layer_0
  10
17.589478
  20
208.83716
  0
VERTEX
  5
319
  8
Layer_0
  10
16.921814
  20
208.98975
  0
VERTEX
  5
31a
  8
Layer_0
  10
16.606812
  20
209.03687
  0
VERTEX
  5
31b
  8
Layer_0
  10
16.30719
  20
209.06396
  0
VERTEX
  5
31c
  8
Layer_0
  10
16.025024
  20
209.07068
  0
VERTEX
  5
31d
  8
Layer_0
  10
15.762451
  20
209.05664
  42
0.14562954
  0
SEQEND
  0
POLYLINE
  5
31f
  8
Layer_0
  62
7
  70
1
  66
1
  10
0
  20
0
  30
0
  0
VERTEX
  5
31f
  8
Layer_0
  10
38.763
  20
223.71606
  0
VERTEX
  5
320
  8
Layer_0
  10
38.497498
  20
223.43445
  0
VERTEX
  5
321
  8
Layer_0
  10
38.262939
  20
223.08203
  0
VERTEX
  5
322
  8
Layer_0
  10
38.059998
  20
222.66028
  0
VERTEX
  5
323
  8
Layer_0
  10
37.889038
  20
222.17114
  0
VERTEX
  5
324
  8
Layer_0
  10
37.75061
  20
221.61609
  0
VERTEX
  5
325
  8
Layer_0
  10
37.645264
  20
220.99707
  0
VERTEX
  5
326
  8
Layer_0
  10
37.573425
  20
220.31567
  0
VERTEX
  5
327
  8
Layer_0
  10
37.535706
  20
219.57361
  42
0.066876184
  0
VERTEX
  5
328
  8
Layer_0
  10
37.875671
  20
216.26062
  42
0.048412742
  0
VERTEX
  5
329
  8
Layer_0
  10
38.369446
  20
214.83301
  42
0.047000602
  0
VERTEX
  5
32a
  8
Layer_0
  10
38.81012
  20
214.06494
  42
0.043261963
  0
VERTEX
  5
32b
  8
Layer_0
  10
39.578186
  20
213.14636
  0
VERTEX
  5
32c
  8
Layer_0
  10
40.007568
  20
212.77441
  0
VERTEX
  5
32d
  8
Layer_0
  10
40.470886
  20
212.46606
  0
VERTEX
  5
32e
  8
Layer_0
  10
40.959839
  20
212.22632
  0
VERTEX
  5
32f
  8
Layer_0
  10
41.466431
  20
212.05945
  0
VERTEX
  5
330
  8
Layer_0
  10
41.588745
  20
212.02759
  0
VERTEX
  5
331
  8
Layer_0
  10
41.688354
  20
211.99939
  0
VERTEX
  5
332
  8
Layer_0
  10
41.755127
  20
211.97791
  0
VERTEX
  5
333
  8
Layer_0
  10
41.778809
  20
211.96619
  42
-0.20466127
  0
VERTEX
  5
334
  8
Layer_0
  10
41.799805
  20
211.96729
  0
VERTEX
  5
335
  8
Layer_0
  10
41.884521
  20
211.97168
  0
VERTEX
  5
336
  8
Layer_0
  10
42.054199
  20
211.9613
  42
0.16407545
  0
VERTEX
  5
337
  8
Layer_0
  10
44.081482
  20
212.45679
  0
VERTEX
  5
338
  8
Layer_0
  10
44.509766
  20
212.77063
  0
VERTEX
  5
339
  8
Layer_0
  10
44.889832
  20
213.14917
  0
VERTEX
  5
33a
  8
Layer_0
  10
45.229187
  20
213.60083
  0
VERTEX
  5
33b
  8
Layer_0
  10
45.535034
  20
214.13403
  0
VERTEX
  5
33c
  8
Layer_0
  10
45.584717
  20
214.2312
  0
VERTEX
  5
33d
  8
Layer_0
  10
45.62677
  20
214.31152
  0
VERTEX
  5
33e
  8
Layer_0
  10
45.656982
  20
214.36694
  0
VERTEX
  5
33f
  8
Layer_0
  10
45.670715
  20
214.38904
  0
VERTEX
  5
340
  8
Layer_0
  10
45.688904
  20
214.42285
  0
VERTEX
  5
341
  8
Layer_0
  10
45.723633
  20
214.50598
  0
VERTEX
  5
342
  8
Layer_0
  10
45.770447
  20
214.62598
  0
VERTEX
  5
343
  8
Layer_0
  10
45.824768
  20
214.77075
  0
VERTEX
  5
344
  8
Layer_0
  10
45.937988
  20
215.08545
  0
VERTEX
  5
345
  8
Layer_0
  10
46.027161
  20
215.35254
  0
VERTEX
  5
346
  8
Layer_0
  10
46.16095
  20
215.8689
  0
VERTEX
  5
347
  8
Layer_0
  10
46.245728
  20
216.3916
  0
VERTEX
  5
348
  8
Layer_0
  10
46.281555
  20
216.91907
  0
VERTEX
  5
349
  8
Layer_0
  10
46.268555
  20
217.44995
  0
VERTEX
  5
34a
  8
Layer_0
  10
46.206909
  20
217.98267
  0
VERTEX
  5
34b
  8
Layer_0
  10
46.096558
  20
218.51575
  0
VERTEX
  5
34c
  8
Layer_0
  10
45.937683
  20
219.04773
  0
VERTEX
  5
34d
  8
Layer_0
  10
45.730469
  20
219.57715
  42
0.040106386
  0
VERTEX
  5
34e
  8
Layer_0
  10
45.097656
  20
220.72388
  0
VERTEX
  5
34f
  8
Layer_0
  10
44.579773
  20
221.4574
  0
VERTEX
  5
350
  8
Layer_0
  10
44.02771
  20
222.10266
  0
VERTEX
  5
351
  8
Layer_0
  10
43.427185
  20
222.67468
  0
VERTEX
  5
352
  8
Layer_0
  10
42.763794
  20
223.18872
  0
VERTEX
  5
353
  8
Layer_0
  10
42.259338
  20
223.51416
  0
VERTEX
  5
354
  8
Layer_0
  10
41.764282
  20
223.77808
  0
VERTEX
  5
355
  8
Layer_0
  10
41.282715
  20
223.97949
  0
VERTEX
  5
356
  8
Layer_0
  10
40.818848
  20
224.11768
  0
VERTEX
  5
357
  8
Layer_0
  10
40.376831
  20
224.19153
  0
VERTEX
  5
358
  8
Layer_0
  10
39.960693
  20
224.19995
  0
VERTEX
  5
359
  8
Layer_0
  10
39.574646
  20
224.14221
  0
VERTEX
  5
35a
  8
Layer_0
  10
39.222839
  20
224.01721
  42
0.068647406
  0
SEQEND
  0
POLYLINE
  5
35c
  8
Layer_0
  62
7
  70
1
  66
1
  10
0
  20
0
  30
0
  0
VERTEX
  5
35c
  8
Layer_0
  10
29.341919
  20
211.56616
  42
0.05286409
  0
VERTEX
  5
35d
  8
Layer_0
  10
28.484741
  20
210.77893
  0
VERTEX
  5
35e
  8
Layer_0
  10
28.140503
  20
210.35425
  0
VERTEX
  5
35f
  8
Layer_0
  10
27.837097
  20
209.90088
  0
VERTEX
  5
360
  8
Layer_0
  10
27.575317
  20
209.42139
  0
VERTEX
  5
361
  8
Layer_0
  10
27.356079
  20
208.91785
  0
VERTEX
  5
362
  8
Layer_0
  10
27.180237
  20
208.39246
  0
VERTEX
  5
363
  8
Layer_0
  10
27.048645
  20
207.84753
  0
VERTEX
  5
364
  8
Layer_0
  10
26.962158
  20
207.28528
  0
VERTEX
  5
365
  8
Layer_0
  10
26.92157
  20
206.70801
  42
0.019245765
  0
VERTEX
  5
366
  8
Layer_0
  10
26.942627
  20
205.7019
  42
-0.02677017
  0
VERTEX
  5
367
  8
Layer_0
  10
26.915344
  20
203.89453
  0
VERTEX
  5
368
  8
Layer_0
  10
26.897156
  20
203.63403
  0
VERTEX
  5
369
  8
Layer_0
  10
26.872803
  20
203.33557
  0
VERTEX
  5
36a
  8
Layer_0
  10
26.860596
  20
203.19849
  0
VERTEX
  5
36b
  8
Layer_0
  10
26.849609
  20
203.08362
  0
VERTEX
  5
36c
  8
Layer_0
  10
26.840698
  20
203.00146
  0
VERTEX
  5
36d
  8
Layer_0
  10
26.834839
  20
202.96265
  42
0.044441789
  0
VERTEX
  5
36e
  8
Layer_0
  10
26.813232
  20
202.79773
  42
-0.011640129
  0
VERTEX
  5
36f
  8
Layer_0
  10
26.784607
  20
202.57324
  42
-0.039854491
  0
VERTEX
  5
370
  8
Layer_0
  10
26.033203
  20
199.42102
  0
VERTEX
  5
371
  8
Layer_0
  10
25.896729
  20
198.98291
  0
VERTEX
  5
372
  8
Layer_0
  10
25.789307
  20
198.59216
  0
VERTEX
  5
373
  8
Layer_0
  10
25.709534
  20
198.24304
  0
VERTEX
  5
374
  8
Layer_0
  10
25.655884
  20
197.92969
  0
VERTEX
  5
375
  8
Layer_0
  10
25.607361
  20
197.4679
  0
VERTEX
  5
376
  8
Layer_0
  10
25.590637
  20
197.01367
  0
VERTEX
  5
377
  8
Layer_0
  10
25.606079
  20
196.5647
  0
VERTEX
  5
378
  8
Layer_0
  10
25.654053
  20
196.1189
  0
VERTEX
  5
379
  8
Layer_0
  10
25.734741
  20
195.67419
  0
VERTEX
  5
37a
  8
Layer_0
  10
25.848511
  20
195.22827
  0
VERTEX
  5
37b
  8
Layer_0
  10
25.995728
  20
194.77905
  0
VERTEX
  5
37c
  8
Layer_0
  10
26.176636
  20
194.32446
  42
0.063896776
  0
VERTEX
  5
37d
  8
Layer_0
  10
26.983765
  20
192.94421
  42
0.21847335
  0
VERTEX
  5
37e
  8
Layer_0
  10
31.101501
  20
190.83484
  42
0.17038859
  0
VERTEX
  5
37f
  8
Layer_0
  10
34.797668
  20
191.93469
  0
VERTEX
  5
380
  8
Layer_0
  10
35.147888
  20
192.20605
  0
VERTEX
  5
381
  8
Layer_0
  10
35.514404
  20
192.53003
  0
VERTEX
  5
382
  8
Layer_0
  10
35.71814
  20
192.72534
  0
VERTEX
  5
383
  8
Layer_0
  10
35.943176
  20
192.94995
  0
VERTEX
  5
384
  8
Layer_0
  10
36.195251
  20
193.20923
  0
VERTEX
  5
385
  8
Layer_0
  10
36.480164
  20
193.50854
  42
-0.036118391
  0
VERTEX
  5
386
  8
Layer_0
  10
38.515503
  20
195.39819
  42
-0.035434054
  0
VERTEX
  5
387
  8
Layer_0
  10
39.559692
  20
196.11475
  0
VERTEX
  5
388
  8
Layer_0
  10
39.808105
  20
196.25781
  0
VERTEX
  5
389
  8
Layer_0
  10
40.041382
  20
196.3894
  0
VERTEX
  5
38a
  8
Layer_0
  10
40.140869
  20
196.44446
  0
VERTEX
  5
38b
  8
Layer_0
  10
40.222778
  20
196.48889
  0
VERTEX
  5
38c
  8
Layer_0
  10
40.282532
  20
196.52014
  0
VERTEX
  5
38d
  8
Layer_0
  10
40.315491
  20
196.53577
  42
0.024169437
  0
VERTEX
  5
38e
  8
Layer_0
  10
40.485901
  20
196.6156
  42
-0.036299063
  0
VERTEX
  5
38f
  8
Layer_0
  10
41.603577
  20
197.05249
  42
0.039294403
  0
VERTEX
  5
390
  8
Layer_0
  10
43.498047
  20
197.84045
  0
VERTEX
  5
391
  8
Layer_0
  10
43.964478
  20
198.08887
  0
VERTEX
  5
392
  8
Layer_0
  10
44.369507
  20
198.32251
  0
VERTEX
  5
393
  8
Layer_0
  10
44.712708
  20
198.54102
  0
VERTEX
  5
394
  8
Layer_0
  10
44.993652
  20
198.74414
  0
VERTEX
  5
395
  8
Layer_0
  10
45.399658
  20
199.06433
  0
VERTEX
  5
396
  8
Layer_0
  10
45.740234
  20
199.33887
  0
VERTEX
  5
397
  8
Layer_0
  10
46.025757
  20
199.57703
  0
VERTEX
  5
398
  8
Layer_0
  10
46.266541
  20
199.78821
  0
VERTEX
  5
399
  8
Layer_0
  10
46.655334
  20
200.16724
  0
VERTEX
  5
39a
  8
Layer_0
  10
46.989624
  20
200.5509
  42
0.061107838
  0
VERTEX
  5
39b
  8
Layer_0
  10
47.585327
  20
201.49817
  0
VERTEX
  5
39c
  8
Layer_0
  10
47.778259
  20
201.98376
  0
VERTEX
  5
39d
  8
Layer_0
  10
47.908691
  20
202.48511
  0
VERTEX
  5
39e
  8
Layer_0
  10
47.976685
  20
203.00098
  0
VERTEX
  5
39f
  8
Layer_0
  10
47.982239
  20
203.53052
  0
VERTEX
  5
3a0
  8
Layer_0
  10
47.925476
  20
204.07251
  0
VERTEX
  5
3a1
  8
Layer_0
  10
47.806458
  20
204.6261
  0
VERTEX
  5
3a2
  8
Layer_0
  10
47.625183
  20
205.19019
  0
VERTEX
  5
3a3
  8
Layer_0
  10
47.381714
  20
205.76379
  42
-0.010785665
  0
VERTEX
  5
3a4
  8
Layer_0
  10
47.285461
  20
205.979
  0
VERTEX
  5
3a5
  8
Layer_0
  10
46.897095
  20
206.62268
  0
VERTEX
  5
3a6
  8
Layer_0
  10
46.440796
  20
207.26929
  42
0.085349185
  0
VERTEX
  5
3a7
  8
Layer_0
  10
44.826416
  20
208.5957
  42
0.022865753
  0
VERTEX
  5
3a8
  8
Layer_0
  10
44.262024
  20
208.87842
  0
VERTEX
  5
3a9
  8
Layer_0
  10
44.035645
  20
208.97437
  0
VERTEX
  5
3aa
  8
Layer_0
  10
43.798096
  20
209.06494
  0
VERTEX
  5
3ab
  8
Layer_0
  10
43.533997
  20
209.15454
  0
VERTEX
  5
3ac
  8
Layer_0
  10
43.228149
  20
209.24756
  0
VERTEX
  5
3ad
  8
Layer_0
  10
42.865356
  20
209.34863
  0
VERTEX
  5
3ae
  8
Layer_0
  10
42.430298
  20
209.46204
  0
VERTEX
  5
3af
  8
Layer_0
  10
42.180908
  20
209.52466
  0
VERTEX
  5
3b0
  8
Layer_0
  10
41.907776
  20
209.59216
  0
VERTEX
  5
3b1
  8
Layer_0
  10
41.608887
  20
209.66492
  0
VERTEX
  5
3b2
  8
Layer_0
  10
41.282471
  20
209.74353
  0
VERTEX
  5
3b3
  8
Layer_0
  10
40.625244
  20
209.90222
  0
VERTEX
  5
3b4
  8
Layer_0
  10
40.017273
  20
210.05139
  0
VERTEX
  5
3b5
  8
Layer_0
  10
39.454468
  20
210.19226
  0
VERTEX
  5
3b6
  8
Layer_0
  10
38.932739
  20
210.32617
  0
VERTEX
  5
3b7
  8
Layer_0
  10
38.447998
  20
210.45422
  0
VERTEX
  5
3b8
  8
Layer_0
  10
37.996216
  20
210.57788
  0
VERTEX
  5
3b9
  8
Layer_0
  10
37.573303
  20
210.698
  0
VERTEX
  5
3ba
  8
Layer_0
  10
37.17511
  20
210.81628
  0
VERTEX
  5
3bb
  8
Layer_0
  10
35.748535
  20
211.29321
  0
VERTEX
  5
3bc
  8
Layer_0
  10
34.392212
  20
211.8363
  0
VERTEX
  5
3bd
  8
Layer_0
  10
34.080688
  20
211.96814
  0
VERTEX
  5
3be
  8
Layer_0
  10
33.820496
  20
212.07422
  0
VERTEX
  5
3bf
  8
Layer_0
  10
33.600586
  20
212.1582
  0
VERTEX
  5
3c0
  8
Layer_0
  10
33.410217
  20
212.22351
  0
VERTEX
  5
3c1
  8
Layer_0
  10
33.074097
  20
212.31165
  0
VERTEX
  5
3c2
  8
Layer_0
  10
32.724915
  20
212.36658
  42
0.029111821
  0
VERTEX
  5
3c3
  8
Layer_0
  10
32.0896
  20
212.41187
  42
0.10449278
  0
VERTEX
  5
3c4
  8
Layer_0
  10
30.167236
  20
212.03003
  42
0.055788565
  0
SEQEND
  0
POLYLINE
  5
3c6
  8
Layer_0
  62
7
  70
1
  66
1
  10
0
  20
0
  30
0
  0
VERTEX
  5
3c6
  8
Layer_0
  10
79.225586
  20
233.28784
  42
-0.12776446
  0
VERTEX
  5
3c7
  8
Layer_0
  10
77.962891
  20
233.92554
  42
-0.13747998
  0
VERTEX
  5
3c8
  8
Layer_0
  10
77.391113
  20
234.98413
  42
-0.062623326
  0
VERTEX
  5
3c9
  8
Layer_0
  10
77.185547
  20
236.9519
  0
VERTEX
  5
3ca
  8
Layer_0
  10
77.185547
  20
256.56372
  42
-0.12205459
  0
VERTEX
  5
3cb
  8
Layer_0
  10
77.538086
  20
258.38013
  42
-0.15893363
  0
VERTEX
  5
3cc
  8
Layer_0
  10
78.70752
  20
259.42017
  42
-0.028982268
  0
VERTEX
  5
3cd
  8
Layer_0
  10
79.225586
  20
259.63501
  0
VERTEX
  5
3ce
  8
Layer_0
  10
79.225586
  20
262.00464
  42
0.19232077
  0
VERTEX
  5
3cf
  8
Layer_0
  10
71.262207
  20
258.53833
  42
0.11398516
  0
VERTEX
  5
3d0
  8
Layer_0
  10
67.916504
  20
253.3064
  42
0.078296327
  0
VERTEX
  5
3d1
  8
Layer_0
  10
66.804688
  20
247.34985
  42
0.071005124
  0
VERTEX
  5
3d2
  8
Layer_0
  10
67.388672
  20
241.16968
  42
0.10833845
  0
VERTEX
  5
3d3
  8
Layer_0
  10
70.062012
  20
235.65503
  42
0.20152879
  0
VERTEX
  5
3d4
  8
Layer_0
  10
78.623047
  20
230.9353
  0
VERTEX
  5
3d5
  8
Layer_0
  10
79.225586
  20
230.87476
  0
SEQEND
  0
POLYLINE
  5
3d7
  8
Layer_0
  62
7
  70
1
  66
1
  10
0
  20
0
  30
0
  0
VERTEX
  5
3d7
  8
Layer_0
  10
81.629883
  20
230.93286
  42
0.11282945
  0
VERTEX
  5
3d8
  8
Layer_0
  10
86.994141
  20
232.76685
  42
0.16792708
  0
VERTEX
  5
3d9
  8
Layer_0
  10
92.415527
  20
239.63354
  42
0.07717933
  0
VERTEX
  5
3da
  8
Layer_0
  10
93.468262
  20
245.46851
  42
0.072234686
  0
VERTEX
  5
3db
  8
Layer_0
  10
92.855957
  20
251.75317
  42
0.10945906
  0
VERTEX
  5
3dc
  8
Layer_0
  10
90.058594
  20
257.3938
  42
0.10621615
  0
VERTEX
  5
3dd
  8
Layer_0
  10
85.84375
  20
260.81323
  42
0.10425624
  0
VERTEX
  5
3de
  8
Layer_0
  10
81.024414
  20
262.00464
  0
VERTEX
  5
3df
  8
Layer_0
  10
81.024414
  20
259.63501
  0
VERTEX
  5
3e0
  8
Layer_0
  10
81.344727
  20
259.51343
  42
-0.15767569
  0
VERTEX
  5
3e1
  8
Layer_0
  10
82.553711
  20
258.62476
  42
-0.14752289
  0
VERTEX
  5
3e2
  8
Layer_0
  10
83.080566
  20
256.84692
  0
VERTEX
  5
3e3
  8
Layer_0
  10
83.086426
  20
256.56372
  0
VERTEX
  5
3e4
  8
Layer_0
  10
83.086426
  20
236.9519
  42
-0.091846814
  0
VERTEX
  5
3e5
  8
Layer_0
  10
82.753418
  20
234.73853
  42
-0.18757235
  0
VERTEX
  5
3e6
  8
Layer_0
  10
81.738281
  20
233.52856
  42
-0.055283328
  0
VERTEX
  5
3e7
  8
Layer_0
  10
81.024414
  20
233.28784
  0
VERTEX
  5
3e8
  8
Layer_0
  10
81.024414
  20
230.87476
  0
SEQEND
  0
POLYLINE
  5
3ea
  8
Layer_0
  62
7
  70
1
  66
1
  10
0
  20
0
  30
0
  0
VERTEX
  5
3ea
  8
Layer_0
  10
142.73145
  20
233.28784
  42
-0.12776446
  0
VERTEX
  5
3eb
  8
Layer_0
  10
141.46875
  20
233.92554
  42
-0.13745262
  0
VERTEX
  5
3ec
  8
Layer_0
  10
140.89697
  20
234.98413
  42
-0.062645858
  0
VERTEX
  5
3ed
  8
Layer_0
  10
140.69141
  20
236.9519
  0
VERTEX
  5
3ee
  8
Layer_0
  10
140.69141
  20
256.56372
  42
-0.1224773
  0
VERTEX
  5
3ef
  8
Layer_0
  10
141.04395
  20
258.38013
  42
-0.1588659
  0
VERTEX
  5
3f0
  8
Layer_0
  10
142.21289
  20
259.42017
  42
-0.02841203
  0
VERTEX
  5
3f1
  8
Layer_0
  10
142.73145
  20
259.63501
  0
VERTEX
  5
3f2
  8
Layer_0
  10
142.73145
  20
262.00464
  42
0.19233872
  0
VERTEX
  5
3f3
  8
Layer_0
  10
134.76807
  20
258.53833
  42
0.11400937
  0
VERTEX
  5
3f4
  8
Layer_0
  10
131.42236
  20
253.3064
  42
0.078296327
  0
VERTEX
  5
3f5
  8
Layer_0
  10
130.31055
  20
247.34985
  42
0.071016604
  0
VERTEX
  5
3f6
  8
Layer_0
  10
130.89404
  20
241.16968
  42
0.10826901
  0
VERTEX
  5
3f7
  8
Layer_0
  10
133.56787
  20
235.65503
  42
0.20152879
  0
VERTEX
  5
3f8
  8
Layer_0
  10
142.12891
  20
230.9353
  0
VERTEX
  5
3f9
  8
Layer_0
  10
142.73145
  20
230.87476
  0
SEQEND
  0
POLYLINE
  5
3fb
  8
Layer_0
  62
7
  70
1
  66
1
  10
0
  20
0
  30
0
  0
VERTEX
  5
3fb
  8
Layer_0
  10
145.13574
  20
230.93286
  42
0.20339963
  0
VERTEX
  5
3fc
  8
Layer_0
  10
153.71582
  20
235.65503
  42
0.10833845
  0
VERTEX
  5
3fd
  8
Layer_0
  10
156.38916
  20
241.16968
  42
0.070021755
  0
VERTEX
  5
3fe
  8
Layer_0
  10
156.97314
  20
247.3645
  42
0.07986072
  0
VERTEX
  5
3ff
  8
Layer_0
  10
155.87207
  20
253.32251
  42
0.16695934
  0
VERTEX
  5
400
  8
Layer_0
  10
150.29688
  20
260.28638
  42
0.1300572
  0
VERTEX
  5
401
  8
Layer_0
  10
144.53027
  20
262.00464
  0
VERTEX
  5
402
  8
Layer_0
  10
144.53027
  20
259.63501
  0
VERTEX
  5
403
  8
Layer_0
  10
144.85059
  20
259.51343
  42
-0.15767569
  0
VERTEX
  5
404
  8
Layer_0
  10
146.05957
  20
258.62476
  42
-0.1475025
  0
VERTEX
  5
405
  8
Layer_0
  10
146.58643
  20
256.84692
  0
VERTEX
  5
406
  8
Layer_0
  10
146.59229
  20
256.56372
  0
VERTEX
  5
407
  8
Layer_0
  10
146.59229
  20
236.9519
  42
-0.09176727
  0
VERTEX
  5
408
  8
Layer_0
  10
146.25928
  20
234.73853
  42
-0.18751233
  0
VERTEX
  5
409
  8
Layer_0
  10
145.24414
  20
233.52856
  42
-0.055283328
  0
VERTEX
  5
40a
  8
Layer_0
  10
144.53027
  20
233.28784
  0
VERTEX
  5
40b
  8
Layer_0
  10
144.53027
  20
230.87476
  0
SEQEND
  0
POLYLINE
  5
40d
  8
Layer_0
  62
7
  70
1
  66
1
  10
0
  20
0
  30
0
  0
VERTEX
  5
40d
  8
Layer_0
  10
172.81885
  20
230.90015
  42
0.11609565
  0
VERTEX
  5
40e
  8
Layer_0
  10
178.53711
  20
232.73901
  42
0.27268849
  0
VERTEX
  5
40f
  8
Layer_0
  10
183.19434
  20
241.71655
  42
0.18658345
  0
VERTEX
  5
410
  8
Layer_0
  10
180.61572
  20
247.7229
  42
0.093899193
  0
VERTEX
  5
411
  8
Layer_0
  10
177.25684
  20
250.17749
  42
0.0057848482
  0
VERTEX
  5
412
  8
Layer_0
  10
173.1084
  20
252.06323
  0
VERTEX
  5
413
  8
Layer_0
  10
172.5874
  20
252.30444
  42
-0.052043798
  0
VERTEX
  5
414
  8
Layer_0
  10
170.4375
  20
253.49243
  42
-0.12282769
  0
VERTEX
  5
415
  8
Layer_0
  10
169.14648
  20
254.91919
  42
-0.24651668
  0
VERTEX
  5
416
  8
Layer_0
  10
169.21436
  20
257.91772
  42
-0.16299866
  0
VERTEX
  5
417
  8
Layer_0
  10
170.95996
  20
259.26978
  42
-0.02747872
  0
VERTEX
  5
418
  8
Layer_0
  10
171.59961
  20
259.48169
  0
VERTEX
  5
419
  8
Layer_0
  10
171.59961
  20
262.00464
  42
0.10088828
  0
VERTEX
  5
41a
  8
Layer_0
  10
166.59766
  20
260.80737
  42
0.20451392
  0
VERTEX
  5
41b
  8
Layer_0
  10
161.9126
  20
255.5144
  42
0.16835429
  0
VERTEX
  5
41c
  8
Layer_0
  10
161.9126
  20
248.58423
  42
0.13865954
  0
VERTEX
  5
41d
  8
Layer_0
  10
164.95752
  20
244.52222
  42
0.065335743
  0
VERTEX
  5
41e
  8
Layer_0
  10
168.7998
  20
242.28784
  42
0.0022036453
  0
VERTEX
  5
41f
  8
Layer_0
  10
171.6626
  20
241.01001
  0
VERTEX
  5
420
  8
Layer_0
  10
172.20264
  20
240.75806
  42
-0.055575836
  0
VERTEX
  5
421
  8
Layer_0
  10
174.40771
  20
239.47437
  42
-0.16183239
  0
VERTEX
  5
422
  8
Layer_0
  10
175.6416
  20
237.59888
  42
-0.19519781
  0
VERTEX
  5
423
  8
Layer_0
  10
175.24854
  20
235.10669
  42
-0.14215161
  0
VERTEX
  5
424
  8
Layer_0
  10
173.76855
  20
233.927
  42
-0.049326926
  0
VERTEX
  5
425
  8
Layer_0
  10
172.12598
  20
233.37573
  0
VERTEX
  5
426
  8
Layer_0
  10
172.12598
  20
230.87476
  0
SEQEND
  0
POLYLINE
  5
428
  8
Layer_0
  62
7
  70
1
  66
1
  10
0
  20
0
  30
0
  0
VERTEX
  5
428
  8
Layer_0
  10
181.15137
  20
251.34644
  42
0.26656696
  0
VERTEX
  5
429
  8
Layer_0
  10
182.08301
  20
252.19019
  42
0.084343289
  0
VERTEX
  5
42a
  8
Layer_0
  10
182.17334
  20
252.7688
  0
VERTEX
  5
42b
  8
Layer_0
  10
182.17334
  20
260.00806
  42
0.11224393
  0
VERTEX
  5
42c
  8
Layer_0
  10
181.96338
  20
261.24292
  42
0.39208081
  0
VERTEX
  5
42d
  8
Layer_0
  10
180.67578
  20
261.71704
  42
0.13961656
  0
VERTEX
  5
42e
  8
Layer_0
  10
180.17725
  20
261.30249
  0
VERTEX
  5
42f
  8
Layer_0
  10
179.69434
  20
260.66626
  42
-0.28369179
  0
VERTEX
  5
430
  8
Layer_0
  10
178.92822
  20
260.39185
  42
-0.069890439
  0
VERTEX
  5
431
  8
Layer_0
  10
177.9248
  20
260.7356
  0
VERTEX
  5
432
  8
Layer_0
  10
177.51855
  20
260.89868
  42
0.089276737
  0
VERTEX
  5
433
  8
Layer_0
  10
173.33252
  20
261.89478
  0
VERTEX
  5
434
  8
Layer_0
  10
173.33252
  20
259.48169
  0
VERTEX
  5
435
  8
Layer_0
  10
173.91748
  20
259.32007
  42
-0.15778703
  0
VERTEX
  5
436
  8
Layer_0
  10
177.68604
  20
256.66968
  42
-0.11878543
  0
VERTEX
  5
437
  8
Layer_0
  10
179.63135
  20
252.37134
  0
VERTEX
  5
438
  8
Layer_0
  10
179.68945
  20
252.1814
  42
0.39208869
  0
SEQEND
  0
POLYLINE
  5
43a
  8
Layer_0
  62
7
  70
1
  66
1
  10
0
  20
0
  30
0
  0
VERTEX
  5
43a
  8
Layer_0
  10
110.95898
  20
231.47144
  42
0.1289492
  0
VERTEX
  5
43b
  8
Layer_0
  10
112.1084
  20
231.73071
  42
0.38053998
  0
VERTEX
  5
43c
  8
Layer_0
  10
112.61279
  20
233.08911
  42
0.2361688
  0
VERTEX
  5
43d
  8
Layer_0
  10
111.87256
  20
233.78687
  42
0.0034547886
  0
VERTEX
  5
43e
  8
Layer_0
  10
110.9458
  20
234.03687
  0
VERTEX
  5
43f
  8
Layer_0
  10
110.7373
  20
234.09497
  42
-0.24255909
  0
VERTEX
  5
440
  8
Layer_0
  10
110.08691
  20
234.75464
  42
-0.085579514
  0
VERTEX
  5
441
  8
Layer_0
  10
109.9585
  20
235.6355
  0
VERTEX
  5
442
  8
Layer_0
  10
109.9585
  20
261.41235
  0
VERTEX
  5
443
  8
Layer_0
  10
99.625488
  20
261.41235
  42
0.15056761
  0
VERTEX
  5
444
  8
Layer_0
  10
98.408203
  20
261.11597
  42
0.26074232
  0
VERTEX
  5
445
  8
Layer_0
  10
97.980469
  20
260.27124
  42
0.35962735
  0
VERTEX
  5
446
  8
Layer_0
  10
98.85791
  20
259.08667
  0
VERTEX
  5
447
  8
Layer_0
  10
99.182129
  20
258.97778
  42
-0.05261415
  0
VERTEX
  5
448
  8
Layer_0
  10
99.763672
  20
258.75415
  42
-0.16084858
  0
VERTEX
  5
449
  8
Layer_0
  10
100.15234
  20
258.08325
  42
-0.056901638
  0
VERTEX
  5
44a
  8
Layer_0
  10
100.21826
  20
257.41968
  0
VERTEX
  5
44b
  8
Layer_0
  10
100.21826
  20
235.45972
  42
-0.10559763
  0
VERTEX
  5
44c
  8
Layer_0
  10
100.06982
  20
234.54272
  42
-0.16735534
  0
VERTEX
  5
44d
  8
Layer_0
  10
99.702637
  20
234.08862
  0
VERTEX
  5
44e
  8
Layer_0
  10
99.17749
  20
233.90033
  0
VERTEX
  5
44f
  8
Layer_0
  10
98.652344
  20
233.71167
  0
VERTEX
  5
450
  8
Layer_0
  10
98.474121
  20
233.61157
  42
0.26517389
  0
VERTEX
  5
451
  8
Layer_0
  10
97.980469
  20
232.60815
  42
0.3224468
  0
VERTEX
  5
452
  8
Layer_0
  10
98.644531
  20
231.63403
  42
0.096778019
  0
VERTEX
  5
453
  8
Layer_0
  10
99.625488
  20
231.46704
  0
VERTEX
  5
454
  8
Layer_0
  10
110.72607
  20
231.46704
  0
SEQEND
  0
POLYLINE
  5
456
  8
Layer_0
  62
7
  70
1
  66
1
  10
0
  20
0
  30
0
  0
VERTEX
  5
456
  8
Layer_0
  10
121.00244
  20
230.89478
  42
0.083723946
  0
VERTEX
  5
457
  8
Layer_0
  10
123.30859
  20
231.37769
  42
0.17215452
  0
VERTEX
  5
458
  8
Layer_0
  10
126.75098
  20
234.66968
  42
0.15478803
  0
VERTEX
  5
459
  8
Layer_0
  10
126.98047
  20
235.83276
  42
0.23463391
  0
VERTEX
  5
45a
  8
Layer_0
  10
126.07178
  20
236.79517
  42
0.24482462
  0
VERTEX
  5
45b
  8
Layer_0
  10
125.18066
  20
236.52856
  42
0.049792896
  0
VERTEX
  5
45c
  8
Layer_0
  10
124.57178
  20
235.83569
  0
VERTEX
  5
45d
  8
Layer_0
  10
124.49268
  20
235.75122
  42
-0.39704276
  0
VERTEX
  5
45e
  8
Layer_0
  10
123.84961
  20
235.69019
  42
-0.19586198
  0
VERTEX
  5
45f
  8
Layer_0
  10
123.66943
  20
236.2937
  0
VERTEX
  5
460
  8
Layer_0
  10
123.66943
  20
240.83472
  42
0.24162243
  0
VERTEX
  5
461
  8
Layer_0
  10
121.76074
  20
244.45435
  42
0.10605132
  0
VERTEX
  5
462
  8
Layer_0
  10
118.47852
  20
245.82007
  42
0.015899945
  0
VERTEX
  5
463
  8
Layer_0
  10
116.69336
  20
246.1438
  0
VERTEX
  5
464
  8
Layer_0
  10
117.22949
  20
246.30591
  42
0.036486874
  0
VERTEX
  5
465
  8
Layer_0
  10
119.99463
  20
247.32837
  42
0.27299599
  0
VERTEX
  5
466
  8
Layer_0
  10
123.79297
  20
253.00024
  42
0.11886517
  0
VERTEX
  5
467
  8
Layer_0
  10
123.27295
  20
256.72583
  42
0.14256679
  0
VERTEX
  5
468
  8
Layer_0
  10
120.94922
  20
259.56958
  42
0.13423361
  0
VERTEX
  5
469
  8
Layer_0
  10
116.4082
  20
261.23657
  42
0.025873448
  0
VERTEX
  5
46a
  8
Layer_0
  10
111.69141
  20
261.41235
  0
VERTEX
  5
46b
  8
Layer_0
  10
111.69141
  20
258.97729
  0
VERTEX
  5
46c
  8
Layer_0
  10
112.02881
  20
258.87378
  42
-0.11449109
  0
VERTEX
  5
46d
  8
Layer_0
  10
113.48486
  20
258.06763
  42
-0.1568754
  0
VERTEX
  5
46e
  8
Layer_0
  10
114.09473
  20
256.77808
  42
-0.04358855
  0
VERTEX
  5
46f
  8
Layer_0
  10
114.17041
  20
255.84009
  0
VERTEX
  5
470
  8
Layer_0
  10
114.17041
  20
250.02661
  42
-0.07380177
  0
VERTEX
  5
471
  8
Layer_0
  10
114.00586
  20
248.53491
  42
-0.26166385
  0
VERTEX
  5
472
  8
Layer_0
  10
112.50635
  20
247.1897
  42
-0.034056423
  0
VERTEX
  5
473
  8
Layer_0
  10
111.71338
  20
247.02124
  0
VERTEX
  5
474
  8
Layer_0
  10
111.71338
  20
244.67358
  0
VERTEX
  5
475
  8
Layer_0
  10
112.00098
  20
244.6311
  42
-0.27055378
  0
VERTEX
  5
476
  8
Layer_0
  10
113.93994
  20
243.07788
  42
-0.10694404
  0
VERTEX
  5
477
  8
Layer_0
  10
114.16748
  20
241.61108
  42
-0.0024445201
  0
VERTEX
  5
478
  8
Layer_0
  10
114.17041
  20
237.14917
  0
VERTEX
  5
479
  8
Layer_0
  10
114.17676
  20
236.78394
  42
0.13119269
  0
VERTEX
  5
47a
  8
Layer_0
  10
115.0835
  20
233.44116
  42
0.21191708
  0
VERTEX
  5
47b
  8
Layer_0
  10
118.62744
  20
231.03687
  42
0.066648081
  0
SEQEND
  0
POLYLINE
  5
47d
  8
Layer_0
  62
7
  70
1
  66
1
  10
0
  20
0
  30
0
  0
VERTEX
  5
47d
  8
Layer_0
  10
170.4585
  20
233.37573
  42
-0.069486235
  0
VERTEX
  5
47e
  8
Layer_0
  10
168.86816
  20
233.9187
  42
-0.094708405
  0
VERTEX
  5
47f
  8
Layer_0
  10
166.56543
  20
235.81616
  42
-0.11140952
  0
VERTEX
  5
480
  8
Layer_0
  10
163.78955
  20
241.20776
  0
VERTEX
  5
481
  8
Layer_0
  10
163.68604
  20
241.55249
  42
0.10689818
  0
VERTEX
  5
482
  8
Layer_0
  10
163.31787
  20
242.24976
  42
0.22971187
  0
VERTEX
  5
483
  8
Layer_0
  10
162.56104
  20
242.52368
  42
0.26816747
  0
VERTEX
  5
484
  8
Layer_0
  10
161.53027
  20
241.84839
  42
0.12716776
  0
VERTEX
  5
485
  8
Layer_0
  10
161.33252
  20
241.03198
  0
VERTEX
  5
486
  8
Layer_0
  10
161.33252
  20
233.04663
  42
0.13978502
  0
VERTEX
  5
487
  8
Layer_0
  10
161.63965
  20
231.63159
  42
0.38874477
  0
VERTEX
  5
488
  8
Layer_0
  10
163.00537
  20
231.28101
  42
0.075575076
  0
VERTEX
  5
489
  8
Layer_0
  10
163.5332
  20
231.77856
  0
VERTEX
  5
48a
  8
Layer_0
  10
163.6416
  20
231.90112
  42
-0.10833264
  0
VERTEX
  5
48b
  8
Layer_0
  10
164.24219
  20
232.41821
  42
-0.19544823
  0
VERTEX
  5
48c
  8
Layer_0
  10
165.67041
  20
232.26929
  42
-0.0082466554
  0
VERTEX
  5
48d
  8
Layer_0
  10
167.0249
  20
231.66431
  0
VERTEX
  5
48e
  8
Layer_0
  10
167.55078
  20
231.45483
  42
0.089202769
  0
VERTEX
  5
48f
  8
Layer_0
  10
170.4585
  20
230.87476
  0
SEQEND
  0
POLYLINE
  5
491
  8
Layer_0
  62
7
  70
1
  66
1
  10
0
  20
0
  30
0
  0
VERTEX
  5
491
  8
Layer_0
  10
144.44092
  20
43.165527
  0
VERTEX
  5
492
  8
Layer_0
  10
144.65552
  20
43.165527
  0
VERTEX
  5
493
  8
Layer_0
  10
144.65552
  20
201.4325
  0
VERTEX
  5
494
  8
Layer_0
  10
180.57275
  20
201.86096
  0
VERTEX
  5
495
  8
Layer_0
  10
182.89917
  20
197.32568
  42
0.047310208
  0
VERTEX
  5
496
  8
Layer_0
  10
186.61395
  20
191.42029
  42
0.061989995
  0
VERTEX
  5
497
  8
Layer_0
  10
192.13837
  20
185.91821
  42
0.049836113
  0
VERTEX
  5
498
  8
Layer_0
  10
198.51636
  20
181.85852
  42
0.31233938
  0
VERTEX
  5
499
  8
Layer_0
  10
238.7373
  20
187.68286
  42
0.076917186
  0
VERTEX
  5
49a
  8
Layer_0
  10
245.9635
  20
196.93359
  42
0.1040317
  0
VERTEX
  5
49b
  8
Layer_0
  10
249.84186
  20
209.7395
  42
0.080965227
  0
VERTEX
  5
49c
  8
Layer_0
  10
248.79865
  20
223.51563
  42
0.094105205
  0
VERTEX
  5
49d
  8
Layer_0
  10
244.01868
  20
233.97583
  0
VERTEX
  5
49e
  8
Layer_0
  10
243.83398
  20
234.25452
  42
-0.053971649
  0
VERTEX
  5
49f
  8
Layer_0
  10
242.84497
  20
236.03308
  42
-0.20286913
  0
VERTEX
  5
4a0
  8
Layer_0
  10
242.89526
  20
237.99622
  42
-0.042485341
  0
VERTEX
  5
4a1
  8
Layer_0
  10
243.94806
  20
239.88989
  0
VERTEX
  5
4a2
  8
Layer_0
  10
244.34393
  20
240.50806
  42
0.088969569
  0
VERTEX
  5
4a3
  8
Layer_0
  10
248.47729
  20
250.46155
  42
0.081078872
  0
VERTEX
  5
4a4
  8
Layer_0
  10
249.19141
  20
264.25842
  42
0.13907746
  0
VERTEX
  5
4a5
  8
Layer_0
  10
242.45062
  20
280.76746
  42
0.063039336
  0
VERTEX
  5
4a6
  8
Layer_0
  10
235.74207
  20
287.56323
  42
0.32490211
  0
VERTEX
  5
4a7
  8
Layer_0
  10
193.80591
  20
288.84338
  42
0.04749037
  0
VERTEX
  5
4a8
  8
Layer_0
  10
188.42511
  20
284.41626
  42
0.061965978
  0
VERTEX
  5
4a9
  8
Layer_0
  10
183.66626
  20
278.23608
  42
0.021567392
  0
VERTEX
  5
4aa
  8
Layer_0
  10
181.97186
  20
275.0719
  0
VERTEX
  5
4ab
  8
Layer_0
  10
179.75415
  20
270.48193
  0
VERTEX
  5
4ac
  8
Layer_0
  10
69.410034
  20
269.16541
  0
VERTEX
  5
4ad
  8
Layer_0
  10
67.305969
  20
273.32947
  42
0.21768999
  0
VERTEX
  5
4ae
  8
Layer_0
  10
44.332092
  20
291.83435
  42
0.15508741
  0
VERTEX
  5
4af
  8
Layer_0
  10
22.788086
  20
290.51819
  42
0.08995882
  0
VERTEX
  5
4b0
  8
Layer_0
  10
11.984985
  20
284.08728
  42
0.082692148
  0
VERTEX
  5
4b1
  8
Layer_0
  10
4.5998535
  20
274.97852
  42
0.04116761
  0
VERTEX
  5
4b2
  8
Layer_0
  10
1.2355957
  20
267.71936
  42
0.062221971
  0
VERTEX
  5
4b3
  8
Layer_0
  10
0.24383545
  20
262.81274
  42
0.027541965
  0
VERTEX
  5
4b4
  8
Layer_0
  10
0.026123047
  20
255.01453
  42
0.065986423
  0
VERTEX
  5
4b5
  8
Layer_0
  10
1.4644775
  20
246.22375
  42
0.074932932
  0
VERTEX
  5
4b6
  8
Layer_0
  10
5.5270996
  20
237.92102
  0
VERTEX
  5
4b7
  8
Layer_0
  10
8.1104126
  20
234.11902
  0
VERTEX
  5
4b8
  8
Layer_0
  10
5.6188965
  20
230.25598
  42
0.086545605
  0
VERTEX
  5
4b9
  8
Layer_0
  10
1.4233398
  20
220.58789
  42
0.058661819
  0
VERTEX
  5
4ba
  8
Layer_0
  10
0.52069092
  20
212.29199
  42
0.031523369
  0
VERTEX
  5
4bb
  8
Layer_0
  10
1.0858765
  20
204.07141
  42
0.072449581
  0
VERTEX
  5
4bc
  8
Layer_0
  10
2.7653198
  20
198.60999
  42
0.042423069
  0
VERTEX
  5
4bd
  8
Layer_0
  10
6.5983887
  20
191.58655
  42
0.10549167
  0
VERTEX
  5
4be
  8
Layer_0
  10
16.825928
  20
181.60596
  42
0.12872652
  0
VERTEX
  5
4bf
  8
Layer_0
  10
34.838257
  20
176.02698
  42
0.27687337
  0
VERTEX
  5
4c0
  8
Layer_0
  10
66.653992
  20
193.38159
  42
0.022694481
  0
VERTEX
  5
4c1
  8
Layer_0
  10
68.224365
  20
196.33191
  0
VERTEX
  5
4c2
  8
Layer_0
  10
70.228638
  20
200.54443
  0
VERTEX
  5
4c3
  8
Layer_0
  10
105.33801
  20
200.96326
  0
VERTEX
  5
4c4
  8
Layer_0
  10
105.33801
  20
43.165527
  0
VERTEX
  5
4c5
  8
Layer_0
  10
105.55261
  20
43.165527
  0
VERTEX
  5
4c6
  8
Layer_0
  10
124.99677
  20
0
  0
SEQEND
  0
POLYLINE
  5
4c8
  8
Layer_0
  62
7
  70
1
  66
1
  10
0
  20
0
  30
0
  0
VERTEX
  5
4c8
  8
Layer_0
  10
81.783752
  20
212.86743
  42
-0.060581697
  0
VERTEX
  5
4c9
  8
Layer_0
  10
82.640686
  20
213.13257
  0
VERTEX
  5
4ca
  8
Layer_0
  10
82.941467
  20
213.15259
  0
VERTEX
  5
4cb
  8
Layer_0
  10
83.171448
  20
213.28296
  42
-0.044097204
  0
VERTEX
  5
4cc
  8
Layer_0
  10
85.409729
  20
214.29468
  0
VERTEX
  5
4cd
  8
Layer_0
  10
85.681213
  20
214.41333
  42
0.18520408
  0
VERTEX
  5
4ce
  8
Layer_0
  10
87.509338
  20
216.1814
  42
0.27627569
  0
VERTEX
  5
4cf
  8
Layer_0
  10
87.125061
  20
219.17261
  42
0.15408997
  0
VERTEX
  5
4d0
  8
Layer_0
  10
85.360901
  20
220.22388
  42
0.072138578
  0
VERTEX
  5
4d1
  8
Layer_0
  10
83.999084
  20
220.3728
  0
VERTEX
  5
4d2
  8
Layer_0
  10
83.999084
  20
219.53735
  0
VERTEX
  5
4d3
  8
Layer_0
  10
84.149475
  20
219.44556
  42
-0.20468389
  0
VERTEX
  5
4d4
  8
Layer_0
  10
84.574768
  20
218.65894
  42
-0.082640888
  0
VERTEX
  5
4d5
  8
Layer_0
  10
84.531799
  20
216.06323
  42
-0.17060429
  0
VERTEX
  5
4d6
  8
Layer_0
  10
83.642639
  20
214.6814
  42
-0.0041172145
  0
VERTEX
  5
4d7
  8
Layer_0
  10
82.436584
  20
213.70825
  0
VERTEX
  5
4d8
  8
Layer_0
  10
82.244202
  20
213.54272
  42
0.052508551
  0
VERTEX
  5
4d9
  8
Layer_0
  10
81.531311
  20
212.76147
  0
SEQEND
  0
POLYLINE
  5
4db
  8
Layer_0
  62
7
  70
1
  66
1
  10
0
  20
0
  30
0
  0
VERTEX
  5
4db
  8
Layer_0
  10
114.08942
  20
209.71558
  42
0.10556726
  0
VERTEX
  5
4dc
  8
Layer_0
  10
115.43463
  20
210.30396
  42
0.16007623
  0
VERTEX
  5
4dd
  8
Layer_0
  10
117.18561
  20
212.86157
  42
0.16440057
  0
VERTEX
  5
4de
  8
Layer_0
  10
117.01471
  20
217.63989
  42
0.16359981
  0
VERTEX
  5
4df
  8
Layer_0
  10
115.1275
  20
219.91675
  42
0.099678127
  0
VERTEX
  5
4e0
  8
Layer_0
  10
113.6983
  20
220.3728
  0
VERTEX
  5
4e1
  8
Layer_0
  10
113.6983
  20
219.57544
  0
VERTEX
  5
4e2
  8
Layer_0
  10
113.79742
  20
219.54224
  42
-0.29134722
  0
VERTEX
  5
4e3
  8
Layer_0
  10
114.32477
  20
218.96069
  42
-0.064859879
  0
VERTEX
  5
4e4
  8
Layer_0
  10
114.38043
  20
218.48706
  0
VERTEX
  5
4e5
  8
Layer_0
  10
114.38043
  20
211.5354
  42
-0.16621019
  0
VERTEX
  5
4e6
  8
Layer_0
  10
114.15826
  20
210.71509
  42
-0.16820485
  0
VERTEX
  5
4e7
  8
Layer_0
  10
113.6983
  20
210.44702
  0
VERTEX
  5
4e8
  8
Layer_0
  10
113.6983
  20
209.64966
  0
SEQEND
  0
POLYLINE
  5
4ea
  8
Layer_0
  62
7
  70
1
  66
1
  10
0
  20
0
  30
0
  0
VERTEX
  5
4ea
  8
Layer_0
  10
146.05573
  20
210.44702
  42
-0.016121776
  0
VERTEX
  5
4eb
  8
Layer_0
  10
145.8736
  20
210.51099
  42
-0.21016437
  0
VERTEX
  5
4ec
  8
Layer_0
  10
145.4986
  20
210.8728
  42
-0.1078894
  0
VERTEX
  5
4ed
  8
Layer_0
  10
145.3736
  20
211.5354
  0
VERTEX
  5
4ee
  8
Layer_0
  10
145.3736
  20
218.48706
  42
-0.1674666
  0
VERTEX
  5
4ef
  8
Layer_0
  10
145.59576
  20
219.30737
  42
-0.16960806
  0
VERTEX
  5
4f0
  8
Layer_0
  10
146.05573
  20
219.57544
  0
VERTEX
  5
4f1
  8
Layer_0
  10
146.05573
  20
220.3728
  42
0.21010532
  0
VERTEX
  5
4f2
  8
Layer_0
  10
143.4649
  20
218.88599
  42
0.13448458
  0
VERTEX
  5
4f3
  8
Layer_0
  10
142.33795
  20
216.13013
  42
0.12996518
  0
VERTEX
  5
4f4
  8
Layer_0
  10
142.73932
  20
212.38257
  42
0.16331554
  0
VERTEX
  5
4f5
  8
Layer_0
  10
144.62604
  20
210.10571
  42
0.099511568
  0
VERTEX
  5
4f6
  8
Layer_0
  10
146.05573
  20
209.64966
  0
SEQEND
  0
POLYLINE
  5
4f8
  8
Layer_0
  62
7
  70
1
  66
1
  10
0
  20
0
  30
0
  0
VERTEX
  5
4f8
  8
Layer_0
  10
165.11481
  20
217.69214
  42
0.063089198
  0
VERTEX
  5
4f9
  8
Layer_0
  10
166.5733
  20
217.89575
  42
0.25333267
  0
VERTEX
  5
4fa
  8
Layer_0
  10
168.94879
  20
220.3728
  42
-0.10645143
  0
VERTEX
  5
4fb
  8
Layer_0
  10
166.711
  20
220.01245
  42
-0.034196114
  0
VERTEX
  5
4fc
  8
Layer_0
  10
164.7486
  20
220.12769
  0
VERTEX
  5
4fd
  8
Layer_0
  10
163.01471
  20
220.35913
  0
VERTEX
  5
4fe
  8
Layer_0
  10
162.90143
  20
220.3728
  0
VERTEX
  5
4ff
  8
Layer_0
  10
162.68658
  20
217.83569
  42
0.050068813
  0
SEQEND
  0
POLYLINE
  5
501
  8
Layer_0
  62
7
  70
1
  66
1
  10
0
  20
0
  30
0
  0
VERTEX
  5
501
  8
Layer_0
  10
93.816956
  20
210.44702
  42
-0.30860491
  0
VERTEX
  5
502
  8
Layer_0
  10
93.190491
  20
211.06226
  42
-0.064911608
  0
VERTEX
  5
503
  8
Layer_0
  10
93.134827
  20
211.5354
  0
VERTEX
  5
504
  8
Layer_0
  10
93.134827
  20
218.48706
  42
-0.16703869
  0
VERTEX
  5
505
  8
Layer_0
  10
93.357483
  20
219.30737
  42
-0.17011758
  0
VERTEX
  5
506
  8
Layer_0
  10
93.816956
  20
219.57544
  0
VERTEX
  5
507
  8
Layer_0
  10
93.816956
  20
220.3728
  42
0.21008874
  0
VERTEX
  5
508
  8
Layer_0
  10
91.226624
  20
218.88599
  42
0.13470573
  0
VERTEX
  5
509
  8
Layer_0
  10
90.09967
  20
216.13013
  42
0.12986175
  0
VERTEX
  5
50a
  8
Layer_0
  10
90.500549
  20
212.38257
  42
0.16335673
  0
VERTEX
  5
50b
  8
Layer_0
  10
92.387756
  20
210.10571
  42
0.099663296
  0
VERTEX
  5
50c
  8
Layer_0
  10
93.816956
  20
209.64966
  0
SEQEND
  0
POLYLINE
  5
50e
  8
Layer_0
  62
7
  70
1
  66
1
  10
0
  20
0
  30
0
  0
VERTEX
  5
50e
  8
Layer_0
  10
94.798401
  20
209.71558
  0
VERTEX
  5
50f
  8
Layer_0
  10
95.167053
  20
209.81372
  42
0.15436321
  0
VERTEX
  5
510
  8
Layer_0
  10
96.998108
  20
211.13696
  42
0.13482285
  0
VERTEX
  5
511
  8
Layer_0
  10
98.124573
  20
213.89429
  42
0.13001425
  0
VERTEX
  5
512
  8
Layer_0
  10
97.723694
  20
217.63989
  42
0.16344711
  0
VERTEX
  5
513
  8
Layer_0
  10
95.836975
  20
219.91675
  42
0.099397596
  0
VERTEX
  5
514
  8
Layer_0
  10
94.407288
  20
220.3728
  0
VERTEX
  5
515
  8
Layer_0
  10
94.407288
  20
219.57544
  0
VERTEX
  5
516
  8
Layer_0
  10
94.506409
  20
219.54224
  42
-0.29134722
  0
VERTEX
  5
517
  8
Layer_0
  10
95.033752
  20
218.96069
  42
-0.066797277
  0
VERTEX
  5
518
  8
Layer_0
  10
95.089417
  20
218.48706
  0
VERTEX
  5
519
  8
Layer_0
  10
95.089417
  20
211.5354
  42
-0.16630857
  0
VERTEX
  5
51a
  8
Layer_0
  10
94.867249
  20
210.71509
  42
-0.16839018
  0
VERTEX
  5
51b
  8
Layer_0
  10
94.407288
  20
210.44702
  0
VERTEX
  5
51c
  8
Layer_0
  10
94.407288
  20
209.64966
  0
SEQEND
  0
POLYLINE
  5
51e
  8
Layer_0
  62
7
  70
1
  66
1
  10
0
  20
0
  30
0
  0
VERTEX
  5
51e
  8
Layer_0
  10
134.02203
  20
212.86743
  0
VERTEX
  5
51f
  8
Layer_0
  10
134.24274
  20
212.95435
  42
-0.095845481
  0
VERTEX
  5
520
  8
Layer_0
  10
135.17975
  20
213.15259
  42
-0.047630147
  0
VERTEX
  5
521
  8
Layer_0
  10
137.64801
  20
214.29468
  0
VERTEX
  5
522
  8
Layer_0
  10
137.91998
  20
214.41333
  42
0.18529382
  0
VERTEX
  5
523
  8
Layer_0
  10
139.74762
  20
216.1814
  42
0.27645369
  0
VERTEX
  5
524
  8
Layer_0
  10
139.36383
  20
219.17261
  42
0.15394396
  0
VERTEX
  5
525
  8
Layer_0
  10
137.59918
  20
220.22388
  42
0.072158828
  0
VERTEX
  5
526
  8
Layer_0
  10
136.23785
  20
220.3728
  0
VERTEX
  5
527
  8
Layer_0
  10
136.23785
  20
219.53735
  0
VERTEX
  5
528
  8
Layer_0
  10
136.38824
  20
219.44556
  42
-0.20438402
  0
VERTEX
  5
529
  8
Layer_0
  10
136.81305
  20
218.65894
  42
-0.082919136
  0
VERTEX
  5
52a
  8
Layer_0
  10
136.77008
  20
216.06323
  42
-0.17093616
  0
VERTEX
  5
52b
  8
Layer_0
  10
135.88092
  20
214.6814
  42
-0.0044723699
  0
VERTEX
  5
52c
  8
Layer_0
  10
134.67487
  20
213.70825
  0
VERTEX
  5
52d
  8
Layer_0
  10
134.48248
  20
213.54272
  42
0.052508551
  0
VERTEX
  5
52e
  8
Layer_0
  10
133.76959
  20
212.76147
  0
SEQEND
  0
POLYLINE
  5
530
  8
Layer_0
  62
7
  70
1
  66
1
  10
0
  20
0
  30
0
  0
VERTEX
  5
530
  8
Layer_0
  10
101.07477
  20
212.86743
  42
-0.028569178
  0
VERTEX
  5
531
  8
Layer_0
  10
101.64215
  20
213.07202
  42
-0.070087658
  0
VERTEX
  5
532
  8
Layer_0
  10
102.23248
  20
213.15259
  42
-0.047601297
  0
VERTEX
  5
533
  8
Layer_0
  10
104.70026
  20
214.29468
  0
VERTEX
  5
534
  8
Layer_0
  10
104.97223
  20
214.41333
  42
0.18515464
  0
VERTEX
  5
535
  8
Layer_0
  10
106.80035
  20
216.1814
  42
0.27627569
  0
VERTEX
  5
536
  8
Layer_0
  10
106.41608
  20
219.17261
  42
0.15408997
  0
VERTEX
  5
537
  8
Layer_0
  10
104.65192
  20
220.22388
  42
0.072138578
  0
VERTEX
  5
538
  8
Layer_0
  10
103.2901
  20
220.3728
  0
VERTEX
  5
539
  8
Layer_0
  10
103.2901
  20
219.53735
  0
VERTEX
  5
53a
  8
Layer_0
  10
103.44049
  20
219.44556
  42
-0.20532514
  0
VERTEX
  5
53b
  8
Layer_0
  10
103.8653
  20
218.65894
  42
-0.082832424
  0
VERTEX
  5
53c
  8
Layer_0
  10
103.82281
  20
216.06323
  42
-0.17047191
  0
VERTEX
  5
53d
  8
Layer_0
  10
102.93365
  20
214.6814
  42
-0.0040330566
  0
VERTEX
  5
53e
  8
Layer_0
  10
101.7276
  20
213.70825
  0
VERTEX
  5
53f
  8
Layer_0
  10
101.53522
  20
213.54272
  42
0.052479809
  0
VERTEX
  5
540
  8
Layer_0
  10
100.82233
  20
212.76147
  0
SEQEND
  0
POLYLINE
  5
542
  8
Layer_0
  62
7
  70
1
  66
1
  10
0
  20
0
  30
0
  0
VERTEX
  5
542
  8
Layer_0
  10
153.31305
  20
212.86743
  0
VERTEX
  5
543
  8
Layer_0
  10
153.53375
  20
212.95435
  42
-0.096231324
  0
VERTEX
  5
544
  8
Layer_0
  10
154.47076
  20
213.15259
  42
-0.047661903
  0
VERTEX
  5
545
  8
Layer_0
  10
156.93903
  20
214.29468
  0
VERTEX
  5
546
  8
Layer_0
  10
157.21051
  20
214.41333
  42
0.18520408
  0
VERTEX
  5
547
  8
Layer_0
  10
159.03864
  20
216.1814
  42
0.27627569
  0
VERTEX
  5
548
  8
Layer_0
  10
158.65436
  20
219.17261
  42
0.15413848
  0
VERTEX
  5
549
  8
Layer_0
  10
156.8902
  20
220.22388
  42
0.072138578
  0
VERTEX
  5
54a
  8
Layer_0
  10
155.52838
  20
220.3728
  0
VERTEX
  5
54b
  8
Layer_0
  10
155.52838
  20
219.53735
  0
VERTEX
  5
54c
  8
Layer_0
  10
155.67877
  20
219.44556
  42
-0.20476405
  0
VERTEX
  5
54d
  8
Layer_0
  10
156.10406
  20
218.65894
  42
-0.082640888
  0
VERTEX
  5
54e
  8
Layer_0
  10
156.0611
  20
216.06323
  42
-0.17060429
  0
VERTEX
  5
54f
  8
Layer_0
  10
155.17194
  20
214.6814
  42
-0.0044930195
  0
VERTEX
  5
550
  8
Layer_0
  10
153.96588
  20
213.70825
  0
VERTEX
  5
551
  8
Layer_0
  10
153.7735
  20
213.54272
  42
0.052508551
  0
VERTEX
  5
552
  8
Layer_0
  10
153.06061
  20
212.76147
  0
SEQEND
  0
POLYLINE
  5
554
  8
Layer_0
  62
7
  70
1
  66
1
  10
0
  20
0
  30
0
  0
VERTEX
  5
554
  8
Layer_0
  10
147.03668
  20
209.71558
  42
0.18188373
  0
VERTEX
  5
555
  8
Layer_0
  10
149.23639
  20
211.13696
  42
0.13470038
  0
VERTEX
  5
556
  8
Layer_0
  10
150.36334
  20
213.89429
  42
0.13010571
  0
VERTEX
  5
557
  8
Layer_0
  10
149.96198
  20
217.63989
  42
0.16350716
  0
VERTEX
  5
558
  8
Layer_0
  10
148.07526
  20
219.91675
  42
0.099397596
  0
VERTEX
  5
559
  8
Layer_0
  10
146.64557
  20
220.3728
  0
VERTEX
  5
55a
  8
Layer_0
  10
146.64557
  20
219.57544
  0
VERTEX
  5
55b
  8
Layer_0
  10
146.74469
  20
219.54224
  42
-0.29088999
  0
VERTEX
  5
55c
  8
Layer_0
  10
147.27252
  20
218.96069
  42
-0.06571774
  0
VERTEX
  5
55d
  8
Layer_0
  10
147.3277
  20
218.48706
  0
VERTEX
  5
55e
  8
Layer_0
  10
147.3277
  20
211.5354
  42
-0.16711118
  0
VERTEX
  5
55f
  8
Layer_0
  10
147.10553
  20
210.71509
  42
-0.16899517
  0
VERTEX
  5
560
  8
Layer_0
  10
146.64557
  20
210.44702
  0
VERTEX
  5
561
  8
Layer_0
  10
146.64557
  20
209.64966
  0
SEQEND
  0
POLYLINE
  5
563
  8
Layer_0
  62
7
  70
1
  66
1
  10
0
  20
0
  30
0
  0
VERTEX
  5
563
  8
Layer_0
  10
113.10797
  20
210.44702
  42
-0.30866526
  0
VERTEX
  5
564
  8
Layer_0
  10
112.48151
  20
211.06226
  42
-0.064911608
  0
VERTEX
  5
565
  8
Layer_0
  10
112.42584
  20
211.5354
  0
VERTEX
  5
566
  8
Layer_0
  10
112.42584
  20
218.48706
  42
-0.16646069
  0
VERTEX
  5
567
  8
Layer_0
  10
112.64801
  20
219.30737
  42
-0.16959168
  0
VERTEX
  5
568
  8
Layer_0
  10
113.10797
  20
219.57544
  0
VERTEX
  5
569
  8
Layer_0
  10
113.10797
  20
220.3728
  42
0.21004268
  0
VERTEX
  5
56a
  8
Layer_0
  10
110.51715
  20
218.88599
  42
0.13459491
  0
VERTEX
  5
56b
  8
Layer_0
  10
109.39069
  20
216.13013
  42
0.12986175
  0
VERTEX
  5
56c
  8
Layer_0
  10
109.79156
  20
212.38257
  42
0.16343122
  0
VERTEX
  5
56d
  8
Layer_0
  10
111.67877
  20
210.10571
  42
0.099678127
  0
VERTEX
  5
56e
  8
Layer_0
  10
113.10797
  20
209.64966
  0
SEQEND
  0
POLYLINE
  5
570
  8
Layer_0
  62
7
  70
1
  66
1
  10
0
  20
0
  30
0
  0
VERTEX
  5
570
  8
Layer_0
  10
82.517639
  20
216.42896
  0
VERTEX
  5
571
  8
Layer_0
  10
82.78717
  20
216.50806
  42
0.24624912
  0
VERTEX
  5
572
  8
Layer_0
  10
83.680237
  20
217.54712
  42
0.33862209
  0
VERTEX
  5
573
  8
Layer_0
  10
82.971741
  20
219.0686
  0
VERTEX
  5
574
  8
Layer_0
  10
82.908752
  20
219.1272
  42
-0.19799266
  0
VERTEX
  5
575
  8
Layer_0
  10
82.852295
  20
219.21838
  42
-0.19824092
  0
VERTEX
  5
576
  8
Layer_0
  10
82.877502
  20
219.32251
  42
-0.1735588
  0
VERTEX
  5
577
  8
Layer_0
  10
83.324768
  20
219.53735
  0
VERTEX
  5
578
  8
Layer_0
  10
83.324768
  20
220.34985
  42
0.10028367
  0
VERTEX
  5
579
  8
Layer_0
  10
81.804749
  20
219.82593
  42
0.21334264
  0
VERTEX
  5
57a
  8
Layer_0
  10
80.727112
  20
218.27515
  42
0.18620722
  0
VERTEX
  5
57b
  8
Layer_0
  10
80.94928
  20
217.08862
  42
0.31020516
  0
SEQEND
  0
POLYLINE
  5
57d
  8
Layer_0
  62
7
  70
1
  66
1
  10
0
  20
0
  30
0
  0
VERTEX
  5
57d
  8
Layer_0
  10
154.04694
  20
216.42896
  42
0.29307512
  0
VERTEX
  5
57e
  8
Layer_0
  10
155.20953
  20
217.54712
  42
0.33862209
  0
VERTEX
  5
57f
  8
Layer_0
  10
154.50104
  20
219.0686
  0
VERTEX
  5
580
  8
Layer_0
  10
154.43805
  20
219.1272
  42
-0.19799266
  0
VERTEX
  5
581
  8
Layer_0
  10
154.38159
  20
219.21838
  42
-0.19824092
  0
VERTEX
  5
582
  8
Layer_0
  10
154.4068
  20
219.32251
  42
-0.1735588
  0
VERTEX
  5
583
  8
Layer_0
  10
154.85406
  20
219.53735
  0
VERTEX
  5
584
  8
Layer_0
  10
154.85406
  20
220.34985
  42
0.10034011
  0
VERTEX
  5
585
  8
Layer_0
  10
153.33405
  20
219.82593
  42
0.21334264
  0
VERTEX
  5
586
  8
Layer_0
  10
152.25641
  20
218.27515
  42
0.18617495
  0
VERTEX
  5
587
  8
Layer_0
  10
152.47858
  20
217.08862
  42
0.31020516
  0
SEQEND
  0
POLYLINE
  5
589
  8
Layer_0
  62
7
  70
1
  66
1
  10
0
  20
0
  30
0
  0
VERTEX
  5
589
  8
Layer_0
  10
101.80865
  20
216.42896
  0
VERTEX
  5
58a
  8
Layer_0
  10
102.07819
  20
216.50806
  42
0.24624912
  0
VERTEX
  5
58b
  8
Layer_0
  10
102.97125
  20
217.54712
  42
0.33866136
  0
VERTEX
  5
58c
  8
Layer_0
  10
102.26276
  20
219.0686
  0
VERTEX
  5
58d
  8
Layer_0
  10
102.19977
  20
219.1272
  42
-0.19876344
  0
VERTEX
  5
58e
  8
Layer_0
  10
102.14307
  20
219.21826
  42
-0.19860732
  0
VERTEX
  5
58f
  8
Layer_0
  10
102.16803
  20
219.32251
  42
-0.17383489
  0
VERTEX
  5
590
  8
Layer_0
  10
102.61578
  20
219.53735
  0
VERTEX
  5
591
  8
Layer_0
  10
102.61578
  20
220.34985
  42
0.10058378
  0
VERTEX
  5
592
  8
Layer_0
  10
101.09576
  20
219.82593
  42
0.21342434
  0
VERTEX
  5
593
  8
Layer_0
  10
100.01813
  20
218.27515
  42
0.18574154
  0
VERTEX
  5
594
  8
Layer_0
  10
100.23981
  20
217.08862
  42
0.30999936
  0
SEQEND
  0
POLYLINE
  5
596
  8
Layer_0
  62
7
  70
1
  66
1
  10
0
  20
0
  30
0
  0
VERTEX
  5
596
  8
Layer_0
  10
134.75641
  20
216.42896
  42
0.29288984
  0
VERTEX
  5
597
  8
Layer_0
  10
135.91901
  20
217.54712
  42
0.33850157
  0
VERTEX
  5
598
  8
Layer_0
  10
135.21002
  20
219.0686
  0
VERTEX
  5
599
  8
Layer_0
  10
135.14752
  20
219.1272
  42
-0.19915156
  0
VERTEX
  5
59a
  8
Layer_0
  10
135.09064
  20
219.21826
  42
-0.19929807
  0
VERTEX
  5
59b
  8
Layer_0
  10
135.11578
  20
219.32251
  42
-0.17394714
  0
VERTEX
  5
59c
  8
Layer_0
  10
135.56305
  20
219.53735
  0
VERTEX
  5
59d
  8
Layer_0
  10
135.56305
  20
220.34985
  42
0.10043949
  0
VERTEX
  5
59e
  8
Layer_0
  10
134.04352
  20
219.82593
  42
0.21320361
  0
VERTEX
  5
59f
  8
Layer_0
  10
132.96539
  20
218.27515
  42
0.1853624
  0
VERTEX
  5
5a0
  8
Layer_0
  10
133.18756
  20
217.08862
  42
0.31022536
  0
SEQEND
  0
POLYLINE
  5
5a2
  8
Layer_0
  62
7
  70
1
  66
1
  10
0
  20
0
  30
0
  0
VERTEX
  5
5a2
  8
Layer_0
  10
162.97516
  20
214.62329
  42
0.049130477
  0
VERTEX
  5
5a3
  8
Layer_0
  10
163.711
  20
214.99829
  0
VERTEX
  5
5a4
  8
Layer_0
  10
164.03961
  20
215.13989
  42
-0.033829689
  0
VERTEX
  5
5a5
  8
Layer_0
  10
164.79449
  20
215.36792
  0
VERTEX
  5
5a6
  8
Layer_0
  10
164.79449
  20
216.44849
  42
0.12340369
  0
VERTEX
  5
5a7
  8
Layer_0
  10
163.20807
  20
215.58228
  0
VERTEX
  5
5a8
  8
Layer_0
  10
163.33844
  20
217.17651
  0
VERTEX
  5
5a9
  8
Layer_0
  10
162.63336
  20
217.25317
  0
VERTEX
  5
5aa
  8
Layer_0
  10
162.44147
  20
215.23755
  42
0.17955348
  0
VERTEX
  5
5ab
  8
Layer_0
  10
162.50055
  20
214.78052
  42
0.30630522
  0
SEQEND
  0
POLYLINE
  5
5ad
  8
Layer_0
  62
7
  70
1
  66
1
  10
0
  20
0
  30
0
  0
VERTEX
  5
5ad
  8
Layer_0
  10
166.00201
  20
209.66089
  42
0.15794693
  0
VERTEX
  5
5ae
  8
Layer_0
  10
168.28278
  20
210.55981
  42
0.1869746
  0
VERTEX
  5
5af
  8
Layer_0
  10
169.31012
  20
212.69263
  42
0.1141505
  0
VERTEX
  5
5b0
  8
Layer_0
  10
169.1153
  20
214.42261
  42
0.1745227
  0
VERTEX
  5
5b1
  8
Layer_0
  10
167.79156
  20
215.94263
  42
0.13171504
  0
VERTEX
  5
5b2
  8
Layer_0
  10
165.81744
  20
216.47144
  0
VERTEX
  5
5b3
  8
Layer_0
  10
165.43854
  20
216.47925
  0
VERTEX
  5
5b4
  8
Layer_0
  10
165.43854
  20
215.36792
  0
VERTEX
  5
5b5
  8
Layer_0
  10
165.64948
  20
215.27563
  42
-0.27075165
  0
VERTEX
  5
5b6
  8
Layer_0
  10
166.18024
  20
214.51392
  42
-0.039323497
  0
VERTEX
  5
5b7
  8
Layer_0
  10
166.22028
  20
213.93433
  0
VERTEX
  5
5b8
  8
Layer_0
  10
166.22028
  20
211.97241
  42
-0.096278982
  0
VERTEX
  5
5b9
  8
Layer_0
  10
166.07477
  20
211.04468
  42
-0.24619126
  0
VERTEX
  5
5ba
  8
Layer_0
  10
165.46149
  20
210.51587
  0
VERTEX
  5
5bb
  8
Layer_0
  10
165.46149
  20
209.64966
  42
0.018630175
  0
SEQEND
  0
POLYLINE
  5
5bd
  8
Layer_0
  62
7
  70
1
  66
1
  10
0
  20
0
  30
0
  0
VERTEX
  5
5bd
  8
Layer_0
  10
126.77789
  20
214.17603
  42
0.2229593
  0
VERTEX
  5
5be
  8
Layer_0
  10
126.96625
  20
214.27209
  42
0.22298985
  0
VERTEX
  5
5bf
  8
Layer_0
  10
127.0108
  20
214.47876
  0
VERTEX
  5
5c0
  8
Layer_0
  10
127.0108
  20
215.51343
  42
0.22396614
  0
VERTEX
  5
5c1
  8
Layer_0
  10
126.96741
  20
215.72083
  42
0.22394279
  0
VERTEX
  5
5c2
  8
Layer_0
  10
126.77789
  20
215.81567
  0
VERTEX
  5
5c3
  8
Layer_0
  10
126.69635
  20
215.82007
  0
VERTEX
  5
5c4
  8
Layer_0
  10
123.40045
  20
215.82007
  42
0.21944881
  0
VERTEX
  5
5c5
  8
Layer_0
  10
123.19177
  20
215.78113
  42
0.21919706
  0
VERTEX
  5
5c6
  8
Layer_0
  10
123.09039
  20
215.59448
  42
0.025694687
  0
VERTEX
  5
5c7
  8
Layer_0
  10
123.09039
  20
214.39722
  42
0.36445461
  0
VERTEX
  5
5c8
  8
Layer_0
  10
123.25104
  20
214.18823
  42
0.064956807
  0
VERTEX
  5
5c9
  8
Layer_0
  10
123.40045
  20
214.17212
  0
VERTEX
  5
5ca
  8
Layer_0
  10
126.69635
  20
214.17212
  0
SEQEND
  0
POLYLINE
  5
5cc
  8
Layer_0
  62
7
  70
1
  66
1
  10
0
  20
0
  30
0
  0
VERTEX
  5
5cc
  8
Layer_0
  10
164.79449
  20
210.51587
  0
VERTEX
  5
5cd
  8
Layer_0
  10
164.63873
  20
210.53833
  42
-0.16311276
  0
VERTEX
  5
5ce
  8
Layer_0
  10
164.14313
  20
210.74585
  42
-0.30997237
  0
VERTEX
  5
5cf
  8
Layer_0
  10
164.10797
  20
210.90601
  42
-0.010673975
  0
VERTEX
  5
5d0
  8
Layer_0
  10
164.47858
  20
211.28149
  0
VERTEX
  5
5d1
  8
Layer_0
  10
164.56793
  20
211.41235
  42
0.20027936
  0
VERTEX
  5
5d2
  8
Layer_0
  10
164.77441
  20
212.43738
  42
0.20020741
  0
VERTEX
  5
5d3
  8
Layer_0
  10
164.18951
  20
213.30396
  42
0.35852092
  0
VERTEX
  5
5d4
  8
Layer_0
  10
162.37653
  20
213.08374
  42
0.3574355
  0
VERTEX
  5
5d5
  8
Layer_0
  10
162.29987
  20
210.91089
  42
0.13955587
  0
VERTEX
  5
5d6
  8
Layer_0
  10
163.65192
  20
209.92554
  42
0.076762255
  0
VERTEX
  5
5d7
  8
Layer_0
  10
164.79449
  20
209.67261
  0
SEQEND
  0
POLYLINE
  5
5d9
  8
Layer_0
  62
7
  70
1
  66
1
  10
0
  20
0
  30
0
  0
VERTEX
  5
5d9
  8
Layer_0
  10
85.573792
  20
209.66333
  0
VERTEX
  5
5da
  8
Layer_0
  10
85.806213
  20
209.70337
  42
0.23140017
  0
VERTEX
  5
5db
  8
Layer_0
  10
87.650452
  20
211.16626
  42
0.11881035
  0
VERTEX
  5
5dc
  8
Layer_0
  10
88.076721
  20
212.66187
  42
0.36131299
  0
VERTEX
  5
5dd
  8
Layer_0
  10
87.766663
  20
213.17749
  42
0.3629595
  0
VERTEX
  5
5de
  8
Layer_0
  10
87.37262
  20
212.95776
  42
0.036484551
  0
VERTEX
  5
5df
  8
Layer_0
  10
87.269104
  20
212.5979
  0
VERTEX
  5
5e0
  8
Layer_0
  10
87.248596
  20
212.5271
  42
-0.32570653
  0
VERTEX
  5
5e1
  8
Layer_0
  10
86.76178
  20
212.14478
  42
-0.057674512
  0
VERTEX
  5
5e2
  8
Layer_0
  10
85.414124
  20
212.27954
  42
-0.0034759089
  0
VERTEX
  5
5e3
  8
Layer_0
  10
84.780823
  20
212.3938
  0
VERTEX
  5
5e4
  8
Layer_0
  10
84.330139
  20
212.47095
  42
0.1034336
  0
VERTEX
  5
5e5
  8
Layer_0
  10
82.439514
  20
212.47437
  42
0.35142887
  0
VERTEX
  5
5e6
  8
Layer_0
  10
80.663635
  20
210.19263
  42
0.35147251
  0
VERTEX
  5
5e7
  8
Layer_0
  10
80.942444
  20
209.8562
  42
0.23109048
  0
VERTEX
  5
5e8
  8
Layer_0
  10
81.385803
  20
210.04858
  0
VERTEX
  5
5e9
  8
Layer_0
  10
81.570862
  20
210.18921
  42
-0.23488116
  0
VERTEX
  5
5ea
  8
Layer_0
  10
82.500549
  20
210.30884
  42
-0.014307413
  0
VERTEX
  5
5eb
  8
Layer_0
  10
84.50885
  20
209.74878
  0
VERTEX
  5
5ec
  8
Layer_0
  10
84.796448
  20
209.69409
  42
0.06890153
  0
SEQEND
  0
POLYLINE
  5
5ee
  8
Layer_0
  62
7
  70
1
  66
1
  10
0
  20
0
  30
0
  0
VERTEX
  5
5ee
  8
Layer_0
  10
157.10309
  20
209.66333
  42
0.25410406
  0
VERTEX
  5
5ef
  8
Layer_0
  10
159.17975
  20
211.16626
  42
0.11883598
  0
VERTEX
  5
5f0
  8
Layer_0
  10
159.60602
  20
212.66187
  42
0.36148847
  0
VERTEX
  5
5f1
  8
Layer_0
  10
159.29596
  20
213.17749
  42
0.3629595
  0
VERTEX
  5
5f2
  8
Layer_0
  10
158.90192
  20
212.95776
  42
0.036484551
  0
VERTEX
  5
5f3
  8
Layer_0
  10
158.7984
  20
212.5979
  0
VERTEX
  5
5f4
  8
Layer_0
  10
158.77789
  20
212.5271
  42
-0.32581788
  0
VERTEX
  5
5f5
  8
Layer_0
  10
158.29108
  20
212.14478
  42
-0.057697191
  0
VERTEX
  5
5f6
  8
Layer_0
  10
156.94391
  20
212.27954
  42
-0.003909545
  0
VERTEX
  5
5f7
  8
Layer_0
  10
156.31061
  20
212.3938
  0
VERTEX
  5
5f8
  8
Layer_0
  10
155.85944
  20
212.47095
  42
0.10338618
  0
VERTEX
  5
5f9
  8
Layer_0
  10
153.96881
  20
212.47437
  42
0.35140983
  0
VERTEX
  5
5fa
  8
Layer_0
  10
152.19293
  20
210.19263
  42
0.350471
  0
VERTEX
  5
5fb
  8
Layer_0
  10
152.47174
  20
209.8562
  42
0.2310227
  0
VERTEX
  5
5fc
  8
Layer_0
  10
152.9151
  20
210.04858
  0
VERTEX
  5
5fd
  8
Layer_0
  10
153.10016
  20
210.18921
  42
-0.23475183
  0
VERTEX
  5
5fe
  8
Layer_0
  10
154.03033
  20
210.30884
  42
-0.014135387
  0
VERTEX
  5
5ff
  8
Layer_0
  10
156.03815
  20
209.74878
  0
VERTEX
  5
600
  8
Layer_0
  10
156.32574
  20
209.69409
  42
0.069134491
  0
SEQEND
  0
POLYLINE
  5
602
  8
Layer_0
  62
7
  70
1
  66
1
  10
0
  20
0
  30
0
  0
VERTEX
  5
602
  8
Layer_0
  10
104.86481
  20
209.66333
  42
0.070837496
  0
VERTEX
  5
603
  8
Layer_0
  10
105.58209
  20
209.8645
  42
0.18452882
  0
VERTEX
  5
604
  8
Layer_0
  10
106.94098
  20
211.16626
  42
0.11899547
  0
VERTEX
  5
605
  8
Layer_0
  10
107.36774
  20
212.66187
  42
0.36116934
  0
VERTEX
  5
606
  8
Layer_0
  10
107.05768
  20
213.17749
  42
0.3629595
  0
VERTEX
  5
607
  8
Layer_0
  10
106.66364
  20
212.95776
  42
0.036484551
  0
VERTEX
  5
608
  8
Layer_0
  10
106.56012
  20
212.5979
  0
VERTEX
  5
609
  8
Layer_0
  10
106.53912
  20
212.5271
  42
-0.325986
  0
VERTEX
  5
60a
  8
Layer_0
  10
106.0528
  20
212.14478
  42
-0.057674512
  0
VERTEX
  5
60b
  8
Layer_0
  10
104.70514
  20
212.27954
  42
-0.0034647167
  0
VERTEX
  5
60c
  8
Layer_0
  10
104.07184
  20
212.3938
  0
VERTEX
  5
60d
  8
Layer_0
  10
103.62115
  20
212.47095
  42
0.1034336
  0
VERTEX
  5
60e
  8
Layer_0
  10
101.73053
  20
212.47437
  42
0.35126777
  0
VERTEX
  5
60f
  8
Layer_0
  10
99.954163
  20
210.19263
  42
0.35005631
  0
VERTEX
  5
610
  8
Layer_0
  10
100.23297
  20
209.8562
  42
0.23173604
  0
VERTEX
  5
611
  8
Layer_0
  10
100.67633
  20
210.04858
  0
VERTEX
  5
612
  8
Layer_0
  10
100.86188
  20
210.18921
  42
-0.23488116
  0
VERTEX
  5
613
  8
Layer_0
  10
101.79156
  20
210.30884
  42
-0.014224056
  0
VERTEX
  5
614
  8
Layer_0
  10
103.79987
  20
209.74878
  0
VERTEX
  5
615
  8
Layer_0
  10
104.08746
  20
209.69409
  42
0.06890153
  0
SEQEND
  0
POLYLINE
  5
617
  8
Layer_0
  62
7
  70
1
  66
1
  10
0
  20
0
  30
0
  0
VERTEX
  5
617
  8
Layer_0
  10
137.81207
  20
209.66333
  42
0.25412246
  0
VERTEX
  5
618
  8
Layer_0
  10
139.88873
  20
211.16626
  42
0.11843986
  0
VERTEX
  5
619
  8
Layer_0
  10
140.31549
  20
212.66187
  42
0.36069298
  0
VERTEX
  5
61a
  8
Layer_0
  10
140.00494
  20
213.17749
  42
0.3629595
  0
VERTEX
  5
61b
  8
Layer_0
  10
139.6109
  20
212.95776
  42
0.035072786
  0
VERTEX
  5
61c
  8
Layer_0
  10
139.50787
  20
212.5979
  0
VERTEX
  5
61d
  8
Layer_0
  10
139.48688
  20
212.5271
  42
-0.32557615
  0
VERTEX
  5
61e
  8
Layer_0
  10
139.00055
  20
212.14478
  42
-0.057674512
  0
VERTEX
  5
61f
  8
Layer_0
  10
137.65289
  20
212.27954
  42
-0.0037550259
  0
VERTEX
  5
620
  8
Layer_0
  10
137.01959
  20
212.3938
  0
VERTEX
  5
621
  8
Layer_0
  10
136.56891
  20
212.47095
  42
0.1034336
  0
VERTEX
  5
622
  8
Layer_0
  10
134.67828
  20
212.47437
  42
0.35148517
  0
VERTEX
  5
623
  8
Layer_0
  10
132.90192
  20
210.19263
  42
0.35016107
  0
VERTEX
  5
624
  8
Layer_0
  10
133.18073
  20
209.8562
  42
0.23109048
  0
VERTEX
  5
625
  8
Layer_0
  10
133.62408
  20
210.04858
  0
VERTEX
  5
626
  8
Layer_0
  10
133.80914
  20
210.18921
  42
-0.23472472
  0
VERTEX
  5
627
  8
Layer_0
  10
134.73932
  20
210.30884
  42
-0.014316335
  0
VERTEX
  5
628
  8
Layer_0
  10
136.74713
  20
209.74878
  0
VERTEX
  5
629
  8
Layer_0
  10
137.03473
  20
209.69409
  42
0.06890153
  0
SEQEND
  0
ENDSEC
  0
EOF
