  0
SECTION
  2
HEADER
  9
$ACADVER
  1
AC1009
  0
ENDSEC
  0
SECTION
  2
TABLES
  0
TABLE
  2
LAYER
  70
2
  0
LAYER
  2
Layer_0
  70
0
  62
7
  6
CONTINUOUS
  0
LAYER
  2
Layer_1
  70
0
  62
5
  6
CONTINUOUS
  0
ENDTAB
  0
ENDSEC
  0
SECTION
  2
ENTITIES
  0
POLYLINE
  5
90
  8
Layer_1
  62
5
  70
1
  66
1
  10
0
  20
0
  30
0
  0
VERTEX
  5
90
  8
Layer_1
  10
83.392334
  20
1168
  0
VERTEX
  5
91
  8
Layer_1
  10
69.392334
  20
1168
  0
VERTEX
  5
92
  8
Layer_1
  10
69.392334
  20
1182
  0
VERTEX
  5
93
  8
Layer_1
  10
83.392334
  20
1182
  0
SEQEND
  0
POLYLINE
  5
95
  8
Layer_1
  62
5
  70
1
  66
1
  10
0
  20
0
  30
0
  0
VERTEX
  5
95
  8
Layer_1
  10
308.89233
  20
1168
  0
VERTEX
  5
96
  8
Layer_1
  10
294.89233
  20
1168
  0
VERTEX
  5
97
  8
Layer_1
  10
294.89233
  20
1182
  0
VERTEX
  5
98
  8
Layer_1
  10
308.89233
  20
1182
  0
SEQEND
  0
POLYLINE
  5
9a
  8
Layer_1
  62
5
  70
1
  66
1
  10
0
  20
0
  30
0
  0
VERTEX
  5
9a
  8
Layer_1
  10
534.39233
  20
1168
  0
VERTEX
  5
9b
  8
Layer_1
  10
520.39233
  20
1168
  0
VERTEX
  5
9c
  8
Layer_1
  10
520.39233
  20
1182
  0
VERTEX
  5
9d
  8
Layer_1
  10
534.39233
  20
1182
  0
SEQEND
  0
POLYLINE
  5
9f
  8
Layer_1
  62
5
  70
1
  66
1
  10
0
  20
0
  30
0
  0
VERTEX
  5
9f
  8
Layer_1
  10
759.89233
  20
1168
  0
VERTEX
  5
a0
  8
Layer_1
  10
745.89233
  20
1168
  0
VERTEX
  5
a1
  8
Layer_1
  10
745.89233
  20
1182
  0
VERTEX
  5
a2
  8
Layer_1
  10
759.89233
  20
1182
  0
SEQEND
  0
POLYLINE
  5
a4
  8
Layer_1
  62
5
  70
1
  66
1
  10
0
  20
0
  30
0
  0
VERTEX
  5
a4
  8
Layer_1
  10
985.39233
  20
1168
  0
VERTEX
  5
a5
  8
Layer_1
  10
971.39233
  20
1168
  0
VERTEX
  5
a6
  8
Layer_1
  10
971.39233
  20
1182
  0
VERTEX
  5
a7
  8
Layer_1
  10
985.39233
  20
1182
  0
SEQEND
  0
POLYLINE
  5
a9
  8
Layer_1
  62
5
  70
1
  66
1
  10
0
  20
0
  30
0
  0
VERTEX
  5
a9
  8
Layer_1
  10
1210.8923
  20
1168
  0
VERTEX
  5
aa
  8
Layer_1
  10
1196.8923
  20
1168
  0
VERTEX
  5
ab
  8
Layer_1
  10
1196.8923
  20
1182
  0
VERTEX
  5
ac
  8
Layer_1
  10
1210.8923
  20
1182
  0
SEQEND
  0
POLYLINE
  5
ae
  8
Layer_1
  62
5
  70
1
  66
1
  10
0
  20
0
  30
0
  0
VERTEX
  5
ae
  8
Layer_1
  10
1210.8923
  20
939.42847
  0
VERTEX
  5
af
  8
Layer_1
  10
1196.8923
  20
939.42847
  0
VERTEX
  5
b0
  8
Layer_1
  10
1196.8923
  20
953.42847
  0
VERTEX
  5
b1
  8
Layer_1
  10
1210.8923
  20
953.42847
  0
SEQEND
  0
POLYLINE
  5
b3
  8
Layer_1
  62
5
  70
1
  66
1
  10
0
  20
0
  30
0
  0
VERTEX
  5
b3
  8
Layer_1
  10
1210.8923
  20
710.85864
  0
VERTEX
  5
b4
  8
Layer_1
  10
1196.8923
  20
710.85864
  0
VERTEX
  5
b5
  8
Layer_1
  10
1196.8923
  20
724.85864
  0
VERTEX
  5
b6
  8
Layer_1
  10
1210.8923
  20
724.85864
  0
SEQEND
  0
POLYLINE
  5
b8
  8
Layer_1
  62
5
  70
1
  66
1
  10
0
  20
0
  30
0
  0
VERTEX
  5
b8
  8
Layer_1
  10
1210.8923
  20
482.28857
  0
VERTEX
  5
b9
  8
Layer_1
  10
1196.8923
  20
482.28857
  0
VERTEX
  5
ba
  8
Layer_1
  10
1196.8923
  20
496.28857
  0
VERTEX
  5
bb
  8
Layer_1
  10
1210.8923
  20
496.28857
  0
SEQEND
  0
POLYLINE
  5
bd
  8
Layer_1
  62
5
  70
1
  66
1
  10
0
  20
0
  30
0
  0
VERTEX
  5
bd
  8
Layer_1
  10
1210.8923
  20
253.72571
  0
VERTEX
  5
be
  8
Layer_1
  10
1196.8923
  20
253.72571
  0
VERTEX
  5
bf
  8
Layer_1
  10
1196.8923
  20
267.72571
  0
VERTEX
  5
c0
  8
Layer_1
  10
1210.8923
  20
267.72571
  0
SEQEND
  0
POLYLINE
  5
c2
  8
Layer_1
  62
5
  70
1
  66
1
  10
0
  20
0
  30
0
  0
VERTEX
  5
c2
  8
Layer_1
  10
1210.8923
  20
25.14856
  0
VERTEX
  5
c3
  8
Layer_1
  10
1196.8923
  20
25.14856
  0
VERTEX
  5
c4
  8
Layer_1
  10
1196.8923
  20
39.14856
  0
VERTEX
  5
c5
  8
Layer_1
  10
1210.8923
  20
39.14856
  0
SEQEND
  0
POLYLINE
  5
c7
  8
Layer_1
  62
5
  70
1
  66
1
  10
0
  20
0
  30
0
  0
VERTEX
  5
c7
  8
Layer_1
  10
83.392334
  20
25.14856
  0
VERTEX
  5
c8
  8
Layer_1
  10
69.392334
  20
25.14856
  0
VERTEX
  5
c9
  8
Layer_1
  10
69.392334
  20
39.14856
  0
VERTEX
  5
ca
  8
Layer_1
  10
83.392334
  20
39.14856
  0
SEQEND
  0
POLYLINE
  5
cc
  8
Layer_1
  62
5
  70
1
  66
1
  10
0
  20
0
  30
0
  0
VERTEX
  5
cc
  8
Layer_1
  10
83.392334
  20
253.72571
  0
VERTEX
  5
cd
  8
Layer_1
  10
69.392334
  20
253.72571
  0
VERTEX
  5
ce
  8
Layer_1
  10
69.392334
  20
267.72571
  0
VERTEX
  5
cf
  8
Layer_1
  10
83.392334
  20
267.72571
  0
SEQEND
  0
POLYLINE
  5
d1
  8
Layer_1
  62
5
  70
1
  66
1
  10
0
  20
0
  30
0
  0
VERTEX
  5
d1
  8
Layer_1
  10
83.392334
  20
482.28857
  0
VERTEX
  5
d2
  8
Layer_1
  10
69.392334
  20
482.28857
  0
VERTEX
  5
d3
  8
Layer_1
  10
69.392334
  20
496.28857
  0
VERTEX
  5
d4
  8
Layer_1
  10
83.392334
  20
496.28857
  0
SEQEND
  0
POLYLINE
  5
d6
  8
Layer_1
  62
5
  70
1
  66
1
  10
0
  20
0
  30
0
  0
VERTEX
  5
d6
  8
Layer_1
  10
83.392334
  20
710.85864
  0
VERTEX
  5
d7
  8
Layer_1
  10
69.392334
  20
710.85864
  0
VERTEX
  5
d8
  8
Layer_1
  10
69.392334
  20
724.85864
  0
VERTEX
  5
d9
  8
Layer_1
  10
83.392334
  20
724.85864
  0
SEQEND
  0
POLYLINE
  5
db
  8
Layer_1
  62
5
  70
1
  66
1
  10
0
  20
0
  30
0
  0
VERTEX
  5
db
  8
Layer_1
  10
83.392334
  20
939.43579
  0
VERTEX
  5
dc
  8
Layer_1
  10
69.392334
  20
939.43579
  0
VERTEX
  5
dd
  8
Layer_1
  10
69.392334
  20
953.43579
  0
VERTEX
  5
de
  8
Layer_1
  10
83.392334
  20
953.43579
  0
SEQEND
  0
POLYLINE
  5
e0
  8
Layer_0
  62
7
  70
1
  66
1
  10
0
  20
0
  30
0
  0
VERTEX
  5
e0
  8
Layer_0
  10
35.5
  20
1200.0001
  0
VERTEX
  5
e1
  8
Layer_0
  10
35.5
  20
1200
  0
VERTEX
  5
e2
  8
Layer_0
  10
35.5
  20
1200
  42
-0.41421356
  0
VERTEX
  5
e3
  8
Layer_0
  10
34
  20
1198.5
  42
-0.41421356
  0
VERTEX
  5
e4
  8
Layer_0
  10
32.5
  20
1200
  0
VERTEX
  5
e5
  8
Layer_0
  10
0
  20
1200
  0
VERTEX
  5
e6
  8
Layer_0
  10
0
  20
0
  0
VERTEX
  5
e7
  8
Layer_0
  10
32.5
  20
0
  42
-0.41421356
  0
VERTEX
  5
e8
  8
Layer_0
  10
34
  20
1.5
  42
-0.41421356
  0
VERTEX
  5
e9
  8
Layer_0
  10
35.5
  20
0
  0
VERTEX
  5
ea
  8
Layer_0
  10
1231.3923
  20
0
  0
VERTEX
  5
eb
  8
Layer_0
  10
1231.3923
  20
1200
  0
SEQEND
  0
POLYLINE
  5
ed
  8
Layer_1
  62
5
  70
1
  66
1
  10
0
  20
0
  30
0
  0
VERTEX
  5
ed
  8
Layer_1
  10
2058.4302
  20
1269.1208
  0
VERTEX
  5
ee
  8
Layer_1
  10
2044.4302
  20
1269.1208
  0
VERTEX
  5
ef
  8
Layer_1
  10
2044.4302
  20
1283.1208
  0
VERTEX
  5
f0
  8
Layer_1
  10
2058.4302
  20
1283.1208
  0
SEQEND
  0
POLYLINE
  5
f2
  8
Layer_1
  62
5
  70
1
  66
1
  10
0
  20
0
  30
0
  0
VERTEX
  5
f2
  8
Layer_1
  10
2283.9302
  20
1269.1208
  0
VERTEX
  5
f3
  8
Layer_1
  10
2269.9302
  20
1269.1208
  0
VERTEX
  5
f4
  8
Layer_1
  10
2269.9302
  20
1283.1208
  0
VERTEX
  5
f5
  8
Layer_1
  10
2283.9302
  20
1283.1208
  0
SEQEND
  0
POLYLINE
  5
f7
  8
Layer_1
  62
5
  70
1
  66
1
  10
0
  20
0
  30
0
  0
VERTEX
  5
f7
  8
Layer_1
  10
2509.4302
  20
1269.1208
  0
VERTEX
  5
f8
  8
Layer_1
  10
2495.4302
  20
1269.1208
  0
VERTEX
  5
f9
  8
Layer_1
  10
2495.4302
  20
1283.1208
  0
VERTEX
  5
fa
  8
Layer_1
  10
2509.4302
  20
1283.1208
  0
SEQEND
  0
POLYLINE
  5
fc
  8
Layer_1
  62
5
  70
1
  66
1
  10
0
  20
0
  30
0
  0
VERTEX
  5
fc
  8
Layer_1
  10
2734.9302
  20
1269.1208
  0
VERTEX
  5
fd
  8
Layer_1
  10
2720.9302
  20
1269.1208
  0
VERTEX
  5
fe
  8
Layer_1
  10
2720.9302
  20
1283.1208
  0
VERTEX
  5
ff
  8
Layer_1
  10
2734.9302
  20
1283.1208
  0
SEQEND
  0
POLYLINE
  5
101
  8
Layer_1
  62
5
  70
1
  66
1
  10
0
  20
0
  30
0
  0
VERTEX
  5
101
  8
Layer_1
  10
2960.4302
  20
1269.1208
  0
VERTEX
  5
102
  8
Layer_1
  10
2946.4302
  20
1269.1208
  0
VERTEX
  5
103
  8
Layer_1
  10
2946.4302
  20
1283.1208
  0
VERTEX
  5
104
  8
Layer_1
  10
2960.4302
  20
1283.1208
  0
SEQEND
  0
POLYLINE
  5
106
  8
Layer_1
  62
5
  70
1
  66
1
  10
0
  20
0
  30
0
  0
VERTEX
  5
106
  8
Layer_1
  10
3185.9302
  20
1269.1208
  0
VERTEX
  5
107
  8
Layer_1
  10
3171.9302
  20
1269.1208
  0
VERTEX
  5
108
  8
Layer_1
  10
3171.9302
  20
1283.1208
  0
VERTEX
  5
109
  8
Layer_1
  10
3185.9302
  20
1283.1208
  0
SEQEND
  0
POLYLINE
  5
10b
  8
Layer_1
  62
5
  70
1
  66
1
  10
0
  20
0
  30
0
  0
VERTEX
  5
10b
  8
Layer_1
  10
3185.9302
  20
1040.5493
  0
VERTEX
  5
10c
  8
Layer_1
  10
3171.9302
  20
1040.5493
  0
VERTEX
  5
10d
  8
Layer_1
  10
3171.9302
  20
1054.5493
  0
VERTEX
  5
10e
  8
Layer_1
  10
3185.9302
  20
1054.5493
  0
SEQEND
  0
POLYLINE
  5
110
  8
Layer_1
  62
5
  70
1
  66
1
  10
0
  20
0
  30
0
  0
VERTEX
  5
110
  8
Layer_1
  10
3185.9302
  20
811.97949
  0
VERTEX
  5
111
  8
Layer_1
  10
3171.9302
  20
811.97949
  0
VERTEX
  5
112
  8
Layer_1
  10
3171.9302
  20
825.97949
  0
VERTEX
  5
113
  8
Layer_1
  10
3185.9302
  20
825.97949
  0
SEQEND
  0
POLYLINE
  5
115
  8
Layer_1
  62
5
  70
1
  66
1
  10
0
  20
0
  30
0
  0
VERTEX
  5
115
  8
Layer_1
  10
3185.9302
  20
583.40942
  0
VERTEX
  5
116
  8
Layer_1
  10
3171.9302
  20
583.40942
  0
VERTEX
  5
117
  8
Layer_1
  10
3171.9302
  20
597.40942
  0
VERTEX
  5
118
  8
Layer_1
  10
3185.9302
  20
597.40942
  0
SEQEND
  0
POLYLINE
  5
11a
  8
Layer_1
  62
5
  70
1
  66
1
  10
0
  20
0
  30
0
  0
VERTEX
  5
11a
  8
Layer_1
  10
3185.9302
  20
354.84656
  0
VERTEX
  5
11b
  8
Layer_1
  10
3171.9302
  20
354.84656
  0
VERTEX
  5
11c
  8
Layer_1
  10
3171.9302
  20
368.84656
  0
VERTEX
  5
11d
  8
Layer_1
  10
3185.9302
  20
368.84656
  0
SEQEND
  0
POLYLINE
  5
11f
  8
Layer_1
  62
5
  70
1
  66
1
  10
0
  20
0
  30
0
  0
VERTEX
  5
11f
  8
Layer_1
  10
3185.9302
  20
126.26941
  0
VERTEX
  5
120
  8
Layer_1
  10
3171.9302
  20
126.26941
  0
VERTEX
  5
121
  8
Layer_1
  10
3171.9302
  20
140.26941
  0
VERTEX
  5
122
  8
Layer_1
  10
3185.9302
  20
140.26941
  0
SEQEND
  0
POLYLINE
  5
124
  8
Layer_1
  62
5
  70
1
  66
1
  10
0
  20
0
  30
0
  0
VERTEX
  5
124
  8
Layer_1
  10
2058.4302
  20
126.26941
  0
VERTEX
  5
125
  8
Layer_1
  10
2044.4302
  20
126.26941
  0
VERTEX
  5
126
  8
Layer_1
  10
2044.4302
  20
140.26941
  0
VERTEX
  5
127
  8
Layer_1
  10
2058.4302
  20
140.26941
  0
SEQEND
  0
POLYLINE
  5
129
  8
Layer_1
  62
5
  70
1
  66
1
  10
0
  20
0
  30
0
  0
VERTEX
  5
129
  8
Layer_1
  10
2058.4302
  20
354.84656
  0
VERTEX
  5
12a
  8
Layer_1
  10
2044.4302
  20
354.84656
  0
VERTEX
  5
12b
  8
Layer_1
  10
2044.4302
  20
368.84656
  0
VERTEX
  5
12c
  8
Layer_1
  10
2058.4302
  20
368.84656
  0
SEQEND
  0
POLYLINE
  5
12e
  8
Layer_1
  62
5
  70
1
  66
1
  10
0
  20
0
  30
0
  0
VERTEX
  5
12e
  8
Layer_1
  10
2058.4302
  20
583.40942
  0
VERTEX
  5
12f
  8
Layer_1
  10
2044.4302
  20
583.40942
  0
VERTEX
  5
130
  8
Layer_1
  10
2044.4302
  20
597.40942
  0
VERTEX
  5
131
  8
Layer_1
  10
2058.4302
  20
597.40942
  0
SEQEND
  0
POLYLINE
  5
133
  8
Layer_1
  62
5
  70
1
  66
1
  10
0
  20
0
  30
0
  0
VERTEX
  5
133
  8
Layer_1
  10
2058.4302
  20
811.97949
  0
VERTEX
  5
134
  8
Layer_1
  10
2044.4302
  20
811.97949
  0
VERTEX
  5
135
  8
Layer_1
  10
2044.4302
  20
825.97949
  0
VERTEX
  5
136
  8
Layer_1
  10
2058.4302
  20
825.97949
  0
SEQEND
  0
POLYLINE
  5
138
  8
Layer_1
  62
5
  70
1
  66
1
  10
0
  20
0
  30
0
  0
VERTEX
  5
138
  8
Layer_1
  10
2058.4302
  20
1040.5566
  0
VERTEX
  5
139
  8
Layer_1
  10
2044.4302
  20
1040.5566
  0
VERTEX
  5
13a
  8
Layer_1
  10
2044.4302
  20
1054.5566
  0
VERTEX
  5
13b
  8
Layer_1
  10
2058.4302
  20
1054.5566
  0
SEQEND
  0
POLYLINE
  5
13d
  8
Layer_0
  62
7
  70
1
  66
1
  10
0
  20
0
  30
0
  0
VERTEX
  5
13d
  8
Layer_0
  10
81.992332
  20
1169.4
  0
VERTEX
  5
13e
  8
Layer_0
  10
70.792336
  20
1169.4
  0
VERTEX
  5
13f
  8
Layer_0
  10
70.792336
  20
1180.6
  0
VERTEX
  5
140
  8
Layer_0
  10
81.992332
  20
1180.6
  0
SEQEND
  0
POLYLINE
  5
142
  8
Layer_0
  62
7
  70
1
  66
1
  10
0
  20
0
  30
0
  0
VERTEX
  5
142
  8
Layer_0
  10
307.49234
  20
1169.4
  0
VERTEX
  5
143
  8
Layer_0
  10
296.29233
  20
1169.4
  0
VERTEX
  5
144
  8
Layer_0
  10
296.29233
  20
1180.6
  0
VERTEX
  5
145
  8
Layer_0
  10
307.49234
  20
1180.6
  0
SEQEND
  0
POLYLINE
  5
147
  8
Layer_0
  62
7
  70
1
  66
1
  10
0
  20
0
  30
0
  0
VERTEX
  5
147
  8
Layer_0
  10
532.99231
  20
1169.4
  0
VERTEX
  5
148
  8
Layer_0
  10
521.79236
  20
1169.4
  0
VERTEX
  5
149
  8
Layer_0
  10
521.79236
  20
1180.6
  0
VERTEX
  5
14a
  8
Layer_0
  10
532.99231
  20
1180.6
  0
SEQEND
  0
POLYLINE
  5
14c
  8
Layer_0
  62
7
  70
1
  66
1
  10
0
  20
0
  30
0
  0
VERTEX
  5
14c
  8
Layer_0
  10
758.49231
  20
1169.4
  0
VERTEX
  5
14d
  8
Layer_0
  10
747.29236
  20
1169.4
  0
VERTEX
  5
14e
  8
Layer_0
  10
747.29236
  20
1180.6
  0
VERTEX
  5
14f
  8
Layer_0
  10
758.49231
  20
1180.6
  0
SEQEND
  0
POLYLINE
  5
151
  8
Layer_0
  62
7
  70
1
  66
1
  10
0
  20
0
  30
0
  0
VERTEX
  5
151
  8
Layer_0
  10
983.99231
  20
1169.4
  0
VERTEX
  5
152
  8
Layer_0
  10
972.79236
  20
1169.4
  0
VERTEX
  5
153
  8
Layer_0
  10
972.79236
  20
1180.6
  0
VERTEX
  5
154
  8
Layer_0
  10
983.99231
  20
1180.6
  0
SEQEND
  0
POLYLINE
  5
156
  8
Layer_0
  62
7
  70
1
  66
1
  10
0
  20
0
  30
0
  0
VERTEX
  5
156
  8
Layer_0
  10
1209.4923
  20
1169.4
  0
VERTEX
  5
157
  8
Layer_0
  10
1198.2924
  20
1169.4
  0
VERTEX
  5
158
  8
Layer_0
  10
1198.2924
  20
1180.6
  0
VERTEX
  5
159
  8
Layer_0
  10
1209.4923
  20
1180.6
  0
SEQEND
  0
POLYLINE
  5
15b
  8
Layer_0
  62
7
  70
1
  66
1
  10
0
  20
0
  30
0
  0
VERTEX
  5
15b
  8
Layer_0
  10
1209.4923
  20
940.82849
  0
VERTEX
  5
15c
  8
Layer_0
  10
1198.2924
  20
940.82849
  0
VERTEX
  5
15d
  8
Layer_0
  10
1198.2924
  20
952.02844
  0
VERTEX
  5
15e
  8
Layer_0
  10
1209.4923
  20
952.02844
  0
SEQEND
  0
POLYLINE
  5
160
  8
Layer_0
  62
7
  70
1
  66
1
  10
0
  20
0
  30
0
  0
VERTEX
  5
160
  8
Layer_0
  10
1209.4923
  20
712.25867
  0
VERTEX
  5
161
  8
Layer_0
  10
1198.2924
  20
712.25867
  0
VERTEX
  5
162
  8
Layer_0
  10
1198.2924
  20
723.45862
  0
VERTEX
  5
163
  8
Layer_0
  10
1209.4923
  20
723.45862
  0
SEQEND
  0
POLYLINE
  5
165
  8
Layer_0
  62
7
  70
1
  66
1
  10
0
  20
0
  30
0
  0
VERTEX
  5
165
  8
Layer_0
  10
1209.4923
  20
483.68857
  0
VERTEX
  5
166
  8
Layer_0
  10
1198.2924
  20
483.68857
  0
VERTEX
  5
167
  8
Layer_0
  10
1198.2924
  20
494.88858
  0
VERTEX
  5
168
  8
Layer_0
  10
1209.4923
  20
494.88858
  0
SEQEND
  0
POLYLINE
  5
16a
  8
Layer_0
  62
7
  70
1
  66
1
  10
0
  20
0
  30
0
  0
VERTEX
  5
16a
  8
Layer_0
  10
1209.4923
  20
255.1257
  0
VERTEX
  5
16b
  8
Layer_0
  10
1198.2924
  20
255.1257
  0
VERTEX
  5
16c
  8
Layer_0
  10
1198.2924
  20
266.32571
  0
VERTEX
  5
16d
  8
Layer_0
  10
1209.4923
  20
266.32571
  0
SEQEND
  0
POLYLINE
  5
16f
  8
Layer_0
  62
7
  70
1
  66
1
  10
0
  20
0
  30
0
  0
VERTEX
  5
16f
  8
Layer_0
  10
1209.4923
  20
26.548559
  0
VERTEX
  5
170
  8
Layer_0
  10
1198.2924
  20
26.548559
  0
VERTEX
  5
171
  8
Layer_0
  10
1198.2924
  20
37.748558
  0
VERTEX
  5
172
  8
Layer_0
  10
1209.4923
  20
37.748558
  0
SEQEND
  0
POLYLINE
  5
174
  8
Layer_0
  62
7
  70
1
  66
1
  10
0
  20
0
  30
0
  0
VERTEX
  5
174
  8
Layer_0
  10
81.992332
  20
26.548559
  0
VERTEX
  5
175
  8
Layer_0
  10
70.792336
  20
26.548559
  0
VERTEX
  5
176
  8
Layer_0
  10
70.792336
  20
37.748558
  0
VERTEX
  5
177
  8
Layer_0
  10
81.992332
  20
37.748558
  0
SEQEND
  0
POLYLINE
  5
179
  8
Layer_0
  62
7
  70
1
  66
1
  10
0
  20
0
  30
0
  0
VERTEX
  5
179
  8
Layer_0
  10
81.992332
  20
255.1257
  0
VERTEX
  5
17a
  8
Layer_0
  10
70.792336
  20
255.1257
  0
VERTEX
  5
17b
  8
Layer_0
  10
70.792336
  20
266.32571
  0
VERTEX
  5
17c
  8
Layer_0
  10
81.992332
  20
266.32571
  0
SEQEND
  0
POLYLINE
  5
17e
  8
Layer_0
  62
7
  70
1
  66
1
  10
0
  20
0
  30
0
  0
VERTEX
  5
17e
  8
Layer_0
  10
81.992332
  20
483.68857
  0
VERTEX
  5
17f
  8
Layer_0
  10
70.792336
  20
483.68857
  0
VERTEX
  5
180
  8
Layer_0
  10
70.792336
  20
494.88858
  0
VERTEX
  5
181
  8
Layer_0
  10
81.992332
  20
494.88858
  0
SEQEND
  0
POLYLINE
  5
183
  8
Layer_0
  62
7
  70
1
  66
1
  10
0
  20
0
  30
0
  0
VERTEX
  5
183
  8
Layer_0
  10
81.992332
  20
712.25867
  0
VERTEX
  5
184
  8
Layer_0
  10
70.792336
  20
712.25867
  0
VERTEX
  5
185
  8
Layer_0
  10
70.792336
  20
723.45862
  0
VERTEX
  5
186
  8
Layer_0
  10
81.992332
  20
723.45862
  0
SEQEND
  0
POLYLINE
  5
188
  8
Layer_0
  62
7
  70
1
  66
1
  10
0
  20
0
  30
0
  0
VERTEX
  5
188
  8
Layer_0
  10
81.992332
  20
940.82849
  0
VERTEX
  5
189
  8
Layer_0
  10
70.792336
  20
940.82849
  0
VERTEX
  5
18a
  8
Layer_0
  10
70.792336
  20
952.02844
  0
VERTEX
  5
18b
  8
Layer_0
  10
81.992332
  20
952.02844
  0
SEQEND
  0
ENDSEC
  0
EOF
