  0
SECTION
  2
HEADER
  9
$ACADVER
  1
AC1009
  0
ENDSEC
  0
SECTION
  2
TABLES
  0
TABLE
  2
LAYER
  70
1
  0
LAYER
  2
Layer_0
  70
0
  62
7
  6
CONTINUOUS
  0
ENDTAB
  0
ENDSEC
  0
SECTION
  2
ENTITIES
  0
POLYLINE
  5
90
  8
Layer_0
  62
7
  70
1
  66
1
  10
0
  20
0
  30
0
  0
VERTEX
  5
90
  8
Layer_0
  10
67
  20
1121
  0
VERTEX
  5
91
  8
Layer_0
  10
53
  20
1121
  0
VERTEX
  5
92
  8
Layer_0
  10
53
  20
1135
  0
VERTEX
  5
93
  8
Layer_0
  10
67
  20
1135
  0
SEQEND
  0
POLYLINE
  5
95
  8
Layer_0
  62
7
  70
1
  66
1
  10
0
  20
0
  30
0
  0
VERTEX
  5
95
  8
Layer_0
  10
467
  20
1121
  0
VERTEX
  5
96
  8
Layer_0
  10
453
  20
1121
  0
VERTEX
  5
97
  8
Layer_0
  10
453
  20
1135
  0
VERTEX
  5
98
  8
Layer_0
  10
467
  20
1135
  0
SEQEND
  0
POLYLINE
  5
9a
  8
Layer_0
  62
7
  70
1
  66
1
  10
0
  20
0
  30
0
  0
VERTEX
  5
9a
  8
Layer_0
  10
867
  20
1121
  0
VERTEX
  5
9b
  8
Layer_0
  10
853
  20
1121
  0
VERTEX
  5
9c
  8
Layer_0
  10
853
  20
1135
  0
VERTEX
  5
9d
  8
Layer_0
  10
867
  20
1135
  0
SEQEND
  0
POLYLINE
  5
9f
  8
Layer_0
  62
7
  70
1
  66
1
  10
0
  20
0
  30
0
  0
VERTEX
  5
9f
  8
Layer_0
  10
1267
  20
1121
  0
VERTEX
  5
a0
  8
Layer_0
  10
1253
  20
1121
  0
VERTEX
  5
a1
  8
Layer_0
  10
1253
  20
1135
  0
VERTEX
  5
a2
  8
Layer_0
  10
1267
  20
1135
  0
SEQEND
  0
POLYLINE
  5
a4
  8
Layer_0
  62
7
  70
1
  66
1
  10
0
  20
0
  30
0
  0
VERTEX
  5
a4
  8
Layer_0
  10
1667
  20
1121
  0
VERTEX
  5
a5
  8
Layer_0
  10
1653
  20
1121
  0
VERTEX
  5
a6
  8
Layer_0
  10
1653
  20
1135
  0
VERTEX
  5
a7
  8
Layer_0
  10
1667
  20
1135
  0
SEQEND
  0
POLYLINE
  5
a9
  8
Layer_0
  62
7
  70
1
  66
1
  10
0
  20
0
  30
0
  0
VERTEX
  5
a9
  8
Layer_0
  10
671.97803
  20
956.95178
  0
VERTEX
  5
aa
  8
Layer_0
  10
657.97803
  20
956.95178
  0
VERTEX
  5
ab
  8
Layer_0
  10
657.97803
  20
970.95178
  0
VERTEX
  5
ac
  8
Layer_0
  10
671.97803
  20
970.95178
  0
SEQEND
  0
POLYLINE
  5
ae
  8
Layer_0
  62
7
  70
1
  66
1
  10
0
  20
0
  30
0
  0
VERTEX
  5
ae
  8
Layer_0
  10
1187
  20
956.95178
  0
VERTEX
  5
af
  8
Layer_0
  10
1173
  20
956.95178
  0
VERTEX
  5
b0
  8
Layer_0
  10
1173
  20
970.95178
  0
VERTEX
  5
b1
  8
Layer_0
  10
1187
  20
970.95178
  0
SEQEND
  0
POLYLINE
  5
b3
  8
Layer_0
  62
7
  70
1
  66
1
  10
0
  20
0
  30
0
  0
VERTEX
  5
b3
  8
Layer_0
  10
1692
  20
956.95178
  0
VERTEX
  5
b4
  8
Layer_0
  10
1678
  20
956.95178
  0
VERTEX
  5
b5
  8
Layer_0
  10
1678
  20
970.95178
  0
VERTEX
  5
b6
  8
Layer_0
  10
1692
  20
970.95178
  0
SEQEND
  0
POLYLINE
  5
b8
  8
Layer_0
  62
7
  70
1
  66
1
  10
0
  20
0
  30
0
  0
VERTEX
  5
b8
  8
Layer_0
  10
1692
  20
757
  0
VERTEX
  5
b9
  8
Layer_0
  10
1678
  20
757
  0
VERTEX
  5
ba
  8
Layer_0
  10
1678
  20
771
  0
VERTEX
  5
bb
  8
Layer_0
  10
1692
  20
771
  0
SEQEND
  0
POLYLINE
  5
bd
  8
Layer_0
  62
7
  70
1
  66
1
  10
0
  20
0
  30
0
  0
VERTEX
  5
bd
  8
Layer_0
  10
1187
  20
757
  0
VERTEX
  5
be
  8
Layer_0
  10
1173
  20
757
  0
VERTEX
  5
bf
  8
Layer_0
  10
1173
  20
771
  0
VERTEX
  5
c0
  8
Layer_0
  10
1187
  20
771
  0
SEQEND
  0
POLYLINE
  5
c2
  8
Layer_0
  62
7
  70
1
  66
1
  10
0
  20
0
  30
0
  0
VERTEX
  5
c2
  8
Layer_0
  10
672
  20
757
  0
VERTEX
  5
c3
  8
Layer_0
  10
658
  20
757
  0
VERTEX
  5
c4
  8
Layer_0
  10
658
  20
771
  0
VERTEX
  5
c5
  8
Layer_0
  10
672
  20
771
  0
SEQEND
  0
POLYLINE
  5
c7
  8
Layer_0
  62
7
  70
1
  66
1
  10
0
  20
0
  30
0
  0
VERTEX
  5
c7
  8
Layer_0
  10
671.97803
  20
557
  0
VERTEX
  5
c8
  8
Layer_0
  10
657.97803
  20
557
  0
VERTEX
  5
c9
  8
Layer_0
  10
657.97803
  20
571
  0
VERTEX
  5
ca
  8
Layer_0
  10
671.97803
  20
571
  0
SEQEND
  0
POLYLINE
  5
cc
  8
Layer_0
  62
7
  70
1
  66
1
  10
0
  20
0
  30
0
  0
VERTEX
  5
cc
  8
Layer_0
  10
1187
  20
557
  0
VERTEX
  5
cd
  8
Layer_0
  10
1173
  20
557
  0
VERTEX
  5
ce
  8
Layer_0
  10
1173
  20
571
  0
VERTEX
  5
cf
  8
Layer_0
  10
1187
  20
571
  0
SEQEND
  0
POLYLINE
  5
d1
  8
Layer_0
  62
7
  70
1
  66
1
  10
0
  20
0
  30
0
  0
VERTEX
  5
d1
  8
Layer_0
  10
1692
  20
557
  0
VERTEX
  5
d2
  8
Layer_0
  10
1678
  20
557
  0
VERTEX
  5
d3
  8
Layer_0
  10
1678
  20
571
  0
VERTEX
  5
d4
  8
Layer_0
  10
1692
  20
571
  0
SEQEND
  0
POLYLINE
  5
d6
  8
Layer_0
  62
7
  70
1
  66
1
  10
0
  20
0
  30
0
  0
VERTEX
  5
d6
  8
Layer_0
  10
1692
  20
357
  0
VERTEX
  5
d7
  8
Layer_0
  10
1678
  20
357
  0
VERTEX
  5
d8
  8
Layer_0
  10
1678
  20
371
  0
VERTEX
  5
d9
  8
Layer_0
  10
1692
  20
371
  0
SEQEND
  0
POLYLINE
  5
db
  8
Layer_0
  62
7
  70
1
  66
1
  10
0
  20
0
  30
0
  0
VERTEX
  5
db
  8
Layer_0
  10
1187
  20
357
  0
VERTEX
  5
dc
  8
Layer_0
  10
1173
  20
357
  0
VERTEX
  5
dd
  8
Layer_0
  10
1173
  20
371
  0
VERTEX
  5
de
  8
Layer_0
  10
1187
  20
371
  0
SEQEND
  0
POLYLINE
  5
e0
  8
Layer_0
  62
7
  70
1
  66
1
  10
0
  20
0
  30
0
  0
VERTEX
  5
e0
  8
Layer_0
  10
672
  20
357
  0
VERTEX
  5
e1
  8
Layer_0
  10
658
  20
357
  0
VERTEX
  5
e2
  8
Layer_0
  10
658
  20
371
  0
VERTEX
  5
e3
  8
Layer_0
  10
672
  20
371
  0
SEQEND
  0
POLYLINE
  5
e5
  8
Layer_0
  62
7
  70
1
  66
1
  10
0
  20
0
  30
0
  0
VERTEX
  5
e5
  8
Layer_0
  10
672
  20
157
  0
VERTEX
  5
e6
  8
Layer_0
  10
658
  20
157
  0
VERTEX
  5
e7
  8
Layer_0
  10
658
  20
171
  0
VERTEX
  5
e8
  8
Layer_0
  10
672
  20
171
  0
SEQEND
  0
POLYLINE
  5
ea
  8
Layer_0
  62
7
  70
1
  66
1
  10
0
  20
0
  30
0
  0
VERTEX
  5
ea
  8
Layer_0
  10
1187
  20
157
  0
VERTEX
  5
eb
  8
Layer_0
  10
1173
  20
157
  0
VERTEX
  5
ec
  8
Layer_0
  10
1173
  20
171
  0
VERTEX
  5
ed
  8
Layer_0
  10
1187
  20
171
  0
SEQEND
  0
POLYLINE
  5
ef
  8
Layer_0
  62
7
  70
1
  66
1
  10
0
  20
0
  30
0
  0
VERTEX
  5
ef
  8
Layer_0
  10
1692
  20
157
  0
VERTEX
  5
f0
  8
Layer_0
  10
1678
  20
157
  0
VERTEX
  5
f1
  8
Layer_0
  10
1678
  20
171
  0
VERTEX
  5
f2
  8
Layer_0
  10
1692
  20
171
  0
SEQEND
  0
POLYLINE
  5
f4
  8
Layer_0
  62
7
  70
1
  66
1
  10
0
  20
0
  30
0
  0
VERTEX
  5
f4
  8
Layer_0
  10
1746.25
  20
1092
  42
0.41421356
  0
VERTEX
  5
f5
  8
Layer_0
  10
1747.75
  20
1090.5
  42
0.41421356
  0
VERTEX
  5
f6
  8
Layer_0
  10
1749.25
  20
1092
  0
VERTEX
  5
f7
  8
Layer_0
  10
1795.5
  20
1092
  0
VERTEX
  5
f8
  8
Layer_0
  10
1795.5
  20
36
  0
VERTEX
  5
f9
  8
Layer_0
  10
1749.25
  20
36
  42
0.41421356
  0
VERTEX
  5
fa
  8
Layer_0
  10
1747.75
  20
37.5
  42
0.41421356
  0
VERTEX
  5
fb
  8
Layer_0
  10
1746.25
  20
36
  0
VERTEX
  5
fc
  8
Layer_0
  10
1739
  20
36
  0
VERTEX
  5
fd
  8
Layer_0
  10
1739
  20
0
  0
VERTEX
  5
fe
  8
Layer_0
  10
0
  20
0
  0
VERTEX
  5
ff
  8
Layer_0
  10
0
  20
1163
  0
VERTEX
  5
100
  8
Layer_0
  10
170
  20
1163
  0
VERTEX
  5
101
  8
Layer_0
  10
170
  20
1093
  0
VERTEX
  5
102
  8
Layer_0
  10
330
  20
1093
  0
VERTEX
  5
103
  8
Layer_0
  10
330
  20
1163
  0
VERTEX
  5
104
  8
Layer_0
  10
1470
  20
1163
  0
VERTEX
  5
105
  8
Layer_0
  10
1470
  20
1093
  0
VERTEX
  5
106
  8
Layer_0
  10
1630
  20
1093
  0
VERTEX
  5
107
  8
Layer_0
  10
1630
  20
1163
  0
VERTEX
  5
108
  8
Layer_0
  10
1739
  20
1163
  0
VERTEX
  5
109
  8
Layer_0
  10
1739
  20
1092
  0
SEQEND
  0
ENDSEC
  0
EOF
