  0
SECTION
  2
HEADER
  9
$ACADVER
  1
AC1009
  0
ENDSEC
  0
SECTION
  2
TABLES
  0
TABLE
  2
LAYER
  70
1
  0
LAYER
  2
Layer_0
  70
0
  62
7
  6
CONTINUOUS
  0
ENDTAB
  0
ENDSEC
  0
SECTION
  2
ENTITIES
  0
POLYLINE
  5
90
  8
Layer_0
  62
7
  70
1
  66
1
  10
0
  20
0
  30
0
  0
VERTEX
  5
90
  8
Layer_0
  10
2200
  20
0
  0
VERTEX
  5
91
  8
Layer_0
  10
2200
  20
169
  0
VERTEX
  5
92
  8
Layer_0
  10
2130
  20
169
  0
VERTEX
  5
93
  8
Layer_0
  10
2130
  20
329
  0
VERTEX
  5
94
  8
Layer_0
  10
2200
  20
329
  0
VERTEX
  5
95
  8
Layer_0
  10
2200
  20
674
  0
VERTEX
  5
96
  8
Layer_0
  10
0
  20
674
  0
VERTEX
  5
97
  8
Layer_0
  10
0
  20
29
  0
VERTEX
  5
98
  8
Layer_0
  10
470
  20
29
  0
VERTEX
  5
99
  8
Layer_0
  10
470
  20
0
  0
SEQEND
  0
POLYLINE
  5
9b
  8
Layer_0
  62
7
  70
1
  66
1
  10
0
  20
0
  30
0
  0
VERTEX
  5
9b
  8
Layer_0
  10
42
  20
586.25
  0
VERTEX
  5
9c
  8
Layer_0
  10
28
  20
586.25
  0
VERTEX
  5
9d
  8
Layer_0
  10
28
  20
600.25
  0
VERTEX
  5
9e
  8
Layer_0
  10
42
  20
600.25
  0
SEQEND
  0
POLYLINE
  5
a0
  8
Layer_0
  62
7
  70
1
  66
1
  10
0
  20
0
  30
0
  0
VERTEX
  5
a0
  8
Layer_0
  10
42
  20
336.25
  0
VERTEX
  5
a1
  8
Layer_0
  10
28
  20
336.25
  0
VERTEX
  5
a2
  8
Layer_0
  10
28
  20
350.25
  0
VERTEX
  5
a3
  8
Layer_0
  10
42
  20
350.25
  0
SEQEND
  0
POLYLINE
  5
a5
  8
Layer_0
  62
7
  70
1
  66
1
  10
0
  20
0
  30
0
  0
VERTEX
  5
a5
  8
Layer_0
  10
42
  20
86.25
  0
VERTEX
  5
a6
  8
Layer_0
  10
28
  20
86.25
  0
VERTEX
  5
a7
  8
Layer_0
  10
28
  20
100.25
  0
VERTEX
  5
a8
  8
Layer_0
  10
42
  20
100.25
  0
SEQEND
  0
POLYLINE
  5
aa
  8
Layer_0
  62
7
  70
1
  66
1
  10
0
  20
0
  30
0
  0
VERTEX
  5
aa
  8
Layer_0
  10
627
  20
131
  0
VERTEX
  5
ab
  8
Layer_0
  10
613
  20
131
  0
VERTEX
  5
ac
  8
Layer_0
  10
613
  20
145
  0
VERTEX
  5
ad
  8
Layer_0
  10
627
  20
145
  0
SEQEND
  0
POLYLINE
  5
af
  8
Layer_0
  62
7
  70
1
  66
1
  10
0
  20
0
  30
0
  0
VERTEX
  5
af
  8
Layer_0
  10
627
  20
331
  0
VERTEX
  5
b0
  8
Layer_0
  10
613
  20
331
  0
VERTEX
  5
b1
  8
Layer_0
  10
613
  20
345
  0
VERTEX
  5
b2
  8
Layer_0
  10
627
  20
345
  0
SEQEND
  0
POLYLINE
  5
b4
  8
Layer_0
  62
7
  70
1
  66
1
  10
0
  20
0
  30
0
  0
VERTEX
  5
b4
  8
Layer_0
  10
627
  20
531
  0
VERTEX
  5
b5
  8
Layer_0
  10
613
  20
531
  0
VERTEX
  5
b6
  8
Layer_0
  10
613
  20
545
  0
VERTEX
  5
b7
  8
Layer_0
  10
627
  20
545
  0
SEQEND
  0
POLYLINE
  5
b9
  8
Layer_0
  62
7
  70
1
  66
1
  10
0
  20
0
  30
0
  0
VERTEX
  5
b9
  8
Layer_0
  10
1142
  20
531
  0
VERTEX
  5
ba
  8
Layer_0
  10
1128
  20
531
  0
VERTEX
  5
bb
  8
Layer_0
  10
1128
  20
545
  0
VERTEX
  5
bc
  8
Layer_0
  10
1142
  20
545
  0
SEQEND
  0
POLYLINE
  5
be
  8
Layer_0
  62
7
  70
1
  66
1
  10
0
  20
0
  30
0
  0
VERTEX
  5
be
  8
Layer_0
  10
1142
  20
331
  0
VERTEX
  5
bf
  8
Layer_0
  10
1128
  20
331
  0
VERTEX
  5
c0
  8
Layer_0
  10
1128
  20
345
  0
VERTEX
  5
c1
  8
Layer_0
  10
1142
  20
345
  0
SEQEND
  0
POLYLINE
  5
c3
  8
Layer_0
  62
7
  70
1
  66
1
  10
0
  20
0
  30
0
  0
VERTEX
  5
c3
  8
Layer_0
  10
1142
  20
131
  0
VERTEX
  5
c4
  8
Layer_0
  10
1128
  20
131
  0
VERTEX
  5
c5
  8
Layer_0
  10
1128
  20
145
  0
VERTEX
  5
c6
  8
Layer_0
  10
1142
  20
145
  0
SEQEND
  0
POLYLINE
  5
c8
  8
Layer_0
  62
7
  70
1
  66
1
  10
0
  20
0
  30
0
  0
VERTEX
  5
c8
  8
Layer_0
  10
1657
  20
131
  0
VERTEX
  5
c9
  8
Layer_0
  10
1643
  20
131
  0
VERTEX
  5
ca
  8
Layer_0
  10
1643
  20
145
  0
VERTEX
  5
cb
  8
Layer_0
  10
1657
  20
145
  0
SEQEND
  0
POLYLINE
  5
cd
  8
Layer_0
  62
7
  70
1
  66
1
  10
0
  20
0
  30
0
  0
VERTEX
  5
cd
  8
Layer_0
  10
1657
  20
331
  0
VERTEX
  5
ce
  8
Layer_0
  10
1643
  20
331
  0
VERTEX
  5
cf
  8
Layer_0
  10
1643
  20
345
  0
VERTEX
  5
d0
  8
Layer_0
  10
1657
  20
345
  0
SEQEND
  0
POLYLINE
  5
d2
  8
Layer_0
  62
7
  70
1
  66
1
  10
0
  20
0
  30
0
  0
VERTEX
  5
d2
  8
Layer_0
  10
1657
  20
531
  0
VERTEX
  5
d3
  8
Layer_0
  10
1643
  20
531
  0
VERTEX
  5
d4
  8
Layer_0
  10
1643
  20
545
  0
VERTEX
  5
d5
  8
Layer_0
  10
1657
  20
545
  0
SEQEND
  0
POLYLINE
  5
d7
  8
Layer_0
  62
7
  70
1
  66
1
  10
0
  20
0
  30
0
  0
VERTEX
  5
d7
  8
Layer_0
  10
2172
  20
596.25
  0
VERTEX
  5
d8
  8
Layer_0
  10
2158
  20
596.25
  0
VERTEX
  5
d9
  8
Layer_0
  10
2158
  20
610.25
  0
VERTEX
  5
da
  8
Layer_0
  10
2172
  20
610.25
  0
SEQEND
  0
POLYLINE
  5
dc
  8
Layer_0
  62
7
  70
1
  66
1
  10
0
  20
0
  30
0
  0
VERTEX
  5
dc
  8
Layer_0
  10
2172
  20
346.25
  0
VERTEX
  5
dd
  8
Layer_0
  10
2158
  20
346.25
  0
VERTEX
  5
de
  8
Layer_0
  10
2158
  20
360.25
  0
VERTEX
  5
df
  8
Layer_0
  10
2172
  20
360.25
  0
SEQEND
  0
POLYLINE
  5
e1
  8
Layer_0
  62
7
  70
1
  66
1
  10
0
  20
0
  30
0
  0
VERTEX
  5
e1
  8
Layer_0
  10
2172
  20
96.25
  0
VERTEX
  5
e2
  8
Layer_0
  10
2158
  20
96.25
  0
VERTEX
  5
e3
  8
Layer_0
  10
2158
  20
110.25
  0
VERTEX
  5
e4
  8
Layer_0
  10
2172
  20
110.25
  0
SEQEND
  0
ENDSEC
  0
EOF
