  0
SECTION
  2
HEADER
  9
$ACADVER
  1
AC1009
  0
ENDSEC
  0
SECTION
  2
TABLES
  0
TABLE
  2
LAYER
  70
1
  0
LAYER
  2
Layer_0
  70
0
  62
7
  6
CONTINUOUS
  0
ENDTAB
  0
ENDSEC
  0
SECTION
  2
ENTITIES
  0
POLYLINE
  5
90
  8
Layer_0
  62
7
  66
1
  10
0
  20
0
  30
0
  0
VERTEX
  5
90
  8
Layer_0
  10
556.61371
  20
1983.8176
  0
VERTEX
  5
91
  8
Layer_0
  10
556.61383
  20
1983.8177
  0
SEQEND
  0
POLYLINE
  5
93
  8
Layer_0
  62
7
  66
1
  10
0
  20
0
  30
0
  0
VERTEX
  5
93
  8
Layer_0
  10
550.5116
  20
1978.3508
  0
VERTEX
  5
94
  8
Layer_0
  10
551.37738
  20
1979.1433
  0
VERTEX
  5
95
  8
Layer_0
  10
554.97955
  20
1982.3589
  0
SEQEND
  0
POLYLINE
  5
97
  8
Layer_0
  62
7
  66
1
  10
0
  20
0
  30
0
  0
VERTEX
  5
97
  8
Layer_0
  10
544.48834
  20
1972.7979
  0
VERTEX
  5
98
  8
Layer_0
  10
546.2002
  20
1974.4044
  0
VERTEX
  5
99
  8
Layer_0
  10
548.89679
  20
1976.8727
  0
SEQEND
  0
POLYLINE
  5
9b
  8
Layer_0
  62
7
  66
1
  10
0
  20
0
  30
0
  0
VERTEX
  5
9b
  8
Layer_0
  10
538.54498
  20
1967.16
  0
VERTEX
  5
9c
  8
Layer_0
  10
541.08289
  20
1969.6019
  0
VERTEX
  5
9d
  8
Layer_0
  10
542.89258
  20
1971.3003
  0
SEQEND
  0
POLYLINE
  5
9f
  8
Layer_0
  62
7
  66
1
  10
0
  20
0
  30
0
  0
VERTEX
  5
9f
  8
Layer_0
  10
532.68286
  20
1961.4385
  0
VERTEX
  5
a0
  8
Layer_0
  10
536.02606
  20
1964.7363
  0
VERTEX
  5
a1
  8
Layer_0
  10
536.96808
  20
1965.6427
  0
SEQEND
  0
POLYLINE
  5
a3
  8
Layer_0
  62
7
  66
1
  10
0
  20
0
  30
0
  0
VERTEX
  5
a3
  8
Layer_0
  10
526.90295
  20
1955.6342
  0
VERTEX
  5
a4
  8
Layer_0
  10
531.0304
  20
1959.8083
  0
VERTEX
  5
a5
  8
Layer_0
  10
531.12445
  20
1959.9011
  0
SEQEND
  0
POLYLINE
  5
a7
  8
Layer_0
  62
7
  66
1
  10
0
  20
0
  30
0
  0
VERTEX
  5
a7
  8
Layer_0
  10
521.20667
  20
1949.748
  0
VERTEX
  5
a8
  8
Layer_0
  10
521.22491
  20
1949.7675
  0
VERTEX
  5
a9
  8
Layer_0
  10
525.37317
  20
1954.0686
  0
SEQEND
  0
POLYLINE
  5
ab
  8
Layer_0
  62
7
  66
1
  10
0
  20
0
  30
0
  0
VERTEX
  5
ab
  8
Layer_0
  10
515.60443
  20
1943.7708
  0
VERTEX
  5
ac
  8
Layer_0
  10
516.41644
  20
1944.6559
  0
VERTEX
  5
ad
  8
Layer_0
  10
519.7066
  20
1948.1534
  0
SEQEND
  0
POLYLINE
  5
af
  8
Layer_0
  62
7
  66
1
  10
0
  20
0
  30
0
  0
VERTEX
  5
af
  8
Layer_0
  10
510.08807
  20
1937.7146
  0
VERTEX
  5
b0
  8
Layer_0
  10
511.67157
  20
1939.4843
  0
VERTEX
  5
b1
  8
Layer_0
  10
514.12457
  20
1942.1578
  0
SEQEND
  0
POLYLINE
  5
b3
  8
Layer_0
  62
7
  66
1
  10
0
  20
0
  30
0
  0
VERTEX
  5
b3
  8
Layer_0
  10
504.65875
  20
1931.5808
  0
VERTEX
  5
b4
  8
Layer_0
  10
506.99091
  20
1934.2534
  0
VERTEX
  5
b5
  8
Layer_0
  10
508.6283
  20
1936.0833
  0
SEQEND
  0
POLYLINE
  5
b7
  8
Layer_0
  62
7
  66
1
  10
0
  20
0
  30
0
  0
VERTEX
  5
b7
  8
Layer_0
  10
499.31763
  20
1925.3704
  0
VERTEX
  5
b8
  8
Layer_0
  10
502.37524
  20
1928.9639
  0
VERTEX
  5
b9
  8
Layer_0
  10
503.21881
  20
1929.9307
  0
SEQEND
  0
POLYLINE
  5
bb
  8
Layer_0
  62
7
  66
1
  10
0
  20
0
  30
0
  0
VERTEX
  5
bb
  8
Layer_0
  10
481.46506
  20
1886.4489
  0
VERTEX
  5
bc
  8
Layer_0
  10
481.42822
  20
1886.3984
  0
SEQEND
  0
POLYLINE
  5
be
  8
Layer_0
  62
7
  66
1
  10
0
  20
0
  30
0
  0
VERTEX
  5
be
  8
Layer_0
  10
696.74414
  20
2063.1968
  0
VERTEX
  5
bf
  8
Layer_0
  10
696.74414
  20
2063.1968
  0
SEQEND
  0
POLYLINE
  5
c1
  8
Layer_0
  62
7
  66
1
  10
0
  20
0
  30
0
  0
VERTEX
  5
c1
  8
Layer_0
  10
682.18701
  20
2056.2339
  0
VERTEX
  5
c2
  8
Layer_0
  10
682.18701
  20
2056.2339
  0
SEQEND
  0
POLYLINE
  5
c4
  8
Layer_0
  62
7
  66
1
  10
0
  20
0
  30
0
  0
VERTEX
  5
c4
  8
Layer_0
  10
675.00696
  20
2052.603
  0
VERTEX
  5
c5
  8
Layer_0
  10
675.00696
  20
2052.603
  0
SEQEND
  0
POLYLINE
  5
c7
  8
Layer_0
  62
7
  66
1
  10
0
  20
0
  30
0
  0
VERTEX
  5
c7
  8
Layer_0
  10
756.65094
  20
2086.6382
  0
VERTEX
  5
c8
  8
Layer_0
  10
756.65094
  20
2086.6382
  0
SEQEND
  0
POLYLINE
  5
ca
  8
Layer_0
  62
7
  66
1
  10
0
  20
0
  30
0
  0
VERTEX
  5
ca
  8
Layer_0
  10
764.32013
  20
2089.0708
  0
VERTEX
  5
cb
  8
Layer_0
  10
764.32013
  20
2089.0708
  0
SEQEND
  0
POLYLINE
  5
cd
  8
Layer_0
  62
7
  66
1
  10
0
  20
0
  30
0
  0
VERTEX
  5
cd
  8
Layer_0
  10
772.02411
  20
2091.3911
  0
VERTEX
  5
ce
  8
Layer_0
  10
772.02411
  20
2091.3911
  0
SEQEND
  0
POLYLINE
  5
d0
  8
Layer_0
  62
7
  66
1
  10
0
  20
0
  30
0
  0
VERTEX
  5
d0
  8
Layer_0
  10
795.328
  20
2097.6719
  0
VERTEX
  5
d1
  8
Layer_0
  10
795.328
  20
2097.6719
  0
SEQEND
  0
POLYLINE
  5
d3
  8
Layer_0
  62
7
  66
1
  10
0
  20
0
  30
0
  0
VERTEX
  5
d3
  8
Layer_0
  10
803.15448
  20
2099.5376
  0
VERTEX
  5
d4
  8
Layer_0
  10
803.15448
  20
2099.5376
  0
SEQEND
  0
POLYLINE
  5
d6
  8
Layer_0
  62
7
  66
1
  10
0
  20
0
  30
0
  0
VERTEX
  5
d6
  8
Layer_0
  10
811.00739
  20
2101.2886
  0
VERTEX
  5
d7
  8
Layer_0
  10
811.00739
  20
2101.2886
  0
SEQEND
  0
POLYLINE
  5
d9
  8
Layer_0
  62
7
  66
1
  10
0
  20
0
  30
0
  0
VERTEX
  5
d9
  8
Layer_0
  10
850.60974
  20
2108.311
  0
VERTEX
  5
da
  8
Layer_0
  10
850.60974
  20
2108.311
  0
SEQEND
  0
POLYLINE
  5
dc
  8
Layer_0
  62
7
  66
1
  10
0
  20
0
  30
0
  0
VERTEX
  5
dc
  8
Layer_0
  10
929.77649
  20
2123.5959
  0
VERTEX
  5
dd
  8
Layer_0
  10
930.76984
  20
2113.6626
  0
SEQEND
  0
POLYLINE
  5
df
  8
Layer_0
  62
7
  66
1
  10
0
  20
0
  30
0
  0
VERTEX
  5
df
  8
Layer_0
  10
926.9198
  20
1883.5959
  0
VERTEX
  5
e0
  8
Layer_0
  10
926.77661
  20
1883.5959
  0
VERTEX
  5
e1
  8
Layer_0
  10
923.05457
  20
1883.5747
  0
VERTEX
  5
e2
  8
Layer_0
  10
919.34265
  20
1883.5112
  0
VERTEX
  5
e3
  8
Layer_0
  10
915.64124
  20
1883.4058
  0
VERTEX
  5
e4
  8
Layer_0
  10
911.95032
  20
1883.2585
  0
VERTEX
  5
e5
  8
Layer_0
  10
908.27014
  20
1883.0697
  0
VERTEX
  5
e6
  8
Layer_0
  10
904.60126
  20
1882.8396
  0
VERTEX
  5
e7
  8
Layer_0
  10
900.94354
  20
1882.5684
  0
VERTEX
  5
e8
  8
Layer_0
  10
897.29736
  20
1882.2562
  0
VERTEX
  5
e9
  8
Layer_0
  10
893.66284
  20
1881.9034
  0
VERTEX
  5
ea
  8
Layer_0
  10
890.04047
  20
1881.5103
  0
VERTEX
  5
eb
  8
Layer_0
  10
886.43024
  20
1881.0768
  0
VERTEX
  5
ec
  8
Layer_0
  10
882.83246
  20
1880.6035
  0
VERTEX
  5
ed
  8
Layer_0
  10
879.24731
  20
1880.0903
  0
VERTEX
  5
ee
  8
Layer_0
  10
875.67511
  20
1879.5378
  0
VERTEX
  5
ef
  8
Layer_0
  10
872.11597
  20
1878.9459
  0
VERTEX
  5
f0
  8
Layer_0
  10
868.57025
  20
1878.3151
  0
VERTEX
  5
f1
  8
Layer_0
  10
865.03809
  20
1877.6453
  0
VERTEX
  5
f2
  8
Layer_0
  10
861.51971
  20
1876.937
  0
VERTEX
  5
f3
  8
Layer_0
  10
858.01538
  20
1876.1903
  0
VERTEX
  5
f4
  8
Layer_0
  10
854.52533
  20
1875.4055
  0
VERTEX
  5
f5
  8
Layer_0
  10
851.0498
  20
1874.5829
  0
VERTEX
  5
f6
  8
Layer_0
  10
847.58899
  20
1873.7225
  0
VERTEX
  5
f7
  8
Layer_0
  10
844.14307
  20
1872.8247
  0
VERTEX
  5
f8
  8
Layer_0
  10
840.7124
  20
1871.8896
  0
VERTEX
  5
f9
  8
Layer_0
  10
837.29712
  20
1870.9177
  0
VERTEX
  5
fa
  8
Layer_0
  10
833.89752
  20
1869.9089
  0
VERTEX
  5
fb
  8
Layer_0
  10
830.51373
  20
1868.8635
  0
VERTEX
  5
fc
  8
Layer_0
  10
827.14612
  20
1867.782
  0
VERTEX
  5
fd
  8
Layer_0
  10
823.7948
  20
1866.6643
  0
VERTEX
  5
fe
  8
Layer_0
  10
820.46002
  20
1865.5109
  0
VERTEX
  5
ff
  8
Layer_0
  10
817.14203
  20
1864.3218
  0
VERTEX
  5
100
  8
Layer_0
  10
813.84106
  20
1863.0972
  0
VERTEX
  5
101
  8
Layer_0
  10
810.55737
  20
1861.8376
  0
VERTEX
  5
102
  8
Layer_0
  10
807.29108
  20
1860.543
  0
VERTEX
  5
103
  8
Layer_0
  10
804.04254
  20
1859.2137
  0
VERTEX
  5
104
  8
Layer_0
  10
800.81195
  20
1857.85
  0
VERTEX
  5
105
  8
Layer_0
  10
797.59949
  20
1856.452
  0
VERTEX
  5
106
  8
Layer_0
  10
794.40546
  20
1855.02
  0
VERTEX
  5
107
  8
Layer_0
  10
791.22998
  20
1853.5542
  0
VERTEX
  5
108
  8
Layer_0
  10
788.07336
  20
1852.0549
  0
VERTEX
  5
109
  8
Layer_0
  10
784.93585
  20
1850.5223
  0
VERTEX
  5
10a
  8
Layer_0
  10
781.81763
  20
1848.9565
  0
VERTEX
  5
10b
  8
Layer_0
  10
778.71893
  20
1847.3579
  0
VERTEX
  5
10c
  8
Layer_0
  10
775.64001
  20
1845.7267
  0
VERTEX
  5
10d
  8
Layer_0
  10
772.58112
  20
1844.063
  0
VERTEX
  5
10e
  8
Layer_0
  10
769.54242
  20
1842.3672
  0
VERTEX
  5
10f
  8
Layer_0
  10
766.52411
  20
1840.6394
  0
VERTEX
  5
110
  8
Layer_0
  10
763.52655
  20
1838.8799
  0
VERTEX
  5
111
  8
Layer_0
  10
760.54987
  20
1837.089
  0
VERTEX
  5
112
  8
Layer_0
  10
757.5943
  20
1835.2667
  0
VERTEX
  5
113
  8
Layer_0
  10
754.66016
  20
1833.4135
  0
VERTEX
  5
114
  8
Layer_0
  10
751.74756
  20
1831.5293
  0
VERTEX
  5
115
  8
Layer_0
  10
748.85675
  20
1829.6146
  0
VERTEX
  5
116
  8
Layer_0
  10
745.9881
  20
1827.6697
  0
VERTEX
  5
117
  8
Layer_0
  10
743.1416
  20
1825.6945
  0
VERTEX
  5
118
  8
Layer_0
  10
740.31769
  20
1823.6895
  0
VERTEX
  5
119
  8
Layer_0
  10
737.51654
  20
1821.6548
  0
VERTEX
  5
11a
  8
Layer_0
  10
734.73828
  20
1819.5906
  0
VERTEX
  5
11b
  8
Layer_0
  10
731.98328
  20
1817.4973
  0
VERTEX
  5
11c
  8
Layer_0
  10
729.25165
  20
1815.375
  0
VERTEX
  5
11d
  8
Layer_0
  10
726.5437
  20
1813.2239
  0
VERTEX
  5
11e
  8
Layer_0
  10
723.85962
  20
1811.0443
  0
VERTEX
  5
11f
  8
Layer_0
  10
721.19971
  20
1808.8364
  0
VERTEX
  5
120
  8
Layer_0
  10
718.56409
  20
1806.6006
  0
VERTEX
  5
121
  8
Layer_0
  10
715.953
  20
1804.3368
  0
VERTEX
  5
122
  8
Layer_0
  10
713.36676
  20
1802.0454
  0
VERTEX
  5
123
  8
Layer_0
  10
710.80554
  20
1799.7268
  0
VERTEX
  5
124
  8
Layer_0
  10
708.26953
  20
1797.3809
  0
VERTEX
  5
125
  8
Layer_0
  10
705.75903
  20
1795.0081
  0
VERTEX
  5
126
  8
Layer_0
  10
703.27429
  20
1792.6086
  0
VERTEX
  5
127
  8
Layer_0
  10
700.81543
  20
1790.1827
  0
VERTEX
  5
128
  8
Layer_0
  10
698.38275
  20
1787.7306
  0
VERTEX
  5
129
  8
Layer_0
  10
695.9765
  20
1785.2524
  0
VERTEX
  5
12a
  8
Layer_0
  10
693.59686
  20
1782.7485
  0
VERTEX
  5
12b
  8
Layer_0
  10
691.24408
  20
1780.219
  0
VERTEX
  5
12c
  8
Layer_0
  10
688.9184
  20
1777.6642
  0
VERTEX
  5
12d
  8
Layer_0
  10
686.62
  20
1775.0844
  0
VERTEX
  5
12e
  8
Layer_0
  10
684.34912
  20
1772.4796
  0
VERTEX
  5
12f
  8
Layer_0
  10
682.10608
  20
1769.8502
  0
VERTEX
  5
130
  8
Layer_0
  10
679.89099
  20
1767.1965
  0
VERTEX
  5
131
  8
Layer_0
  10
677.70416
  20
1764.5186
  0
VERTEX
  5
132
  8
Layer_0
  10
675.54578
  20
1761.8168
  0
VERTEX
  5
133
  8
Layer_0
  10
673.41614
  20
1759.0912
  0
VERTEX
  5
134
  8
Layer_0
  10
671.31531
  20
1756.3422
  0
VERTEX
  5
135
  8
Layer_0
  10
669.24371
  20
1753.5698
  0
VERTEX
  5
136
  8
Layer_0
  10
667.20148
  20
1750.7745
  0
VERTEX
  5
137
  8
Layer_0
  10
665.18878
  20
1747.9564
  0
VERTEX
  5
138
  8
Layer_0
  10
663.20599
  20
1745.1157
  0
VERTEX
  5
139
  8
Layer_0
  10
661.25323
  20
1742.2527
  0
VERTEX
  5
13a
  8
Layer_0
  10
659.33075
  20
1739.3676
  0
VERTEX
  5
13b
  8
Layer_0
  10
657.43878
  20
1736.4604
  0
VERTEX
  5
13c
  8
Layer_0
  10
655.57758
  20
1733.5319
  0
VERTEX
  5
13d
  8
Layer_0
  10
653.74738
  20
1730.5818
  0
VERTEX
  5
13e
  8
Layer_0
  10
651.94836
  20
1727.6105
  0
VERTEX
  5
13f
  8
Layer_0
  10
650.18073
  20
1724.6182
  0
VERTEX
  5
140
  8
Layer_0
  10
648.44482
  20
1721.6052
  0
VERTEX
  5
141
  8
Layer_0
  10
646.74078
  20
1718.5717
  0
VERTEX
  5
142
  8
Layer_0
  10
645.06885
  20
1715.5179
  0
VERTEX
  5
143
  8
Layer_0
  10
643.42932
  20
1712.4441
  0
VERTEX
  5
144
  8
Layer_0
  10
641.82233
  20
1709.3505
  0
VERTEX
  5
145
  8
Layer_0
  10
640.24817
  20
1706.2372
  0
VERTEX
  5
146
  8
Layer_0
  10
638.70697
  20
1703.1046
  0
VERTEX
  5
147
  8
Layer_0
  10
637.1991
  20
1699.9529
  0
VERTEX
  5
148
  8
Layer_0
  10
635.72473
  20
1696.7822
  0
VERTEX
  5
149
  8
Layer_0
  10
634.28406
  20
1693.5929
  0
VERTEX
  5
14a
  8
Layer_0
  10
632.87738
  20
1690.3851
  0
VERTEX
  5
14b
  8
Layer_0
  10
631.50482
  20
1687.1592
  0
VERTEX
  5
14c
  8
Layer_0
  10
630.16669
  20
1683.9152
  0
VERTEX
  5
14d
  8
Layer_0
  10
628.86322
  20
1680.6534
  0
VERTEX
  5
14e
  8
Layer_0
  10
627.5946
  20
1677.3741
  0
VERTEX
  5
14f
  8
Layer_0
  10
626.36108
  20
1674.0776
  0
VERTEX
  5
150
  8
Layer_0
  10
625.1629
  20
1670.7639
  0
VERTEX
  5
151
  8
Layer_0
  10
624.00024
  20
1667.4335
  0
VERTEX
  5
152
  8
Layer_0
  10
622.87335
  20
1664.0864
  0
VERTEX
  5
153
  8
Layer_0
  10
621.78253
  20
1660.7229
  0
VERTEX
  5
154
  8
Layer_0
  10
620.72791
  20
1657.3433
  0
VERTEX
  5
155
  8
Layer_0
  10
619.70978
  20
1653.9476
  0
VERTEX
  5
156
  8
Layer_0
  10
618.72833
  20
1650.5364
  0
VERTEX
  5
157
  8
Layer_0
  10
617.78381
  20
1647.1096
  0
VERTEX
  5
158
  8
Layer_0
  10
616.87646
  20
1643.6676
  0
VERTEX
  5
159
  8
Layer_0
  10
616.00647
  20
1640.2106
  0
VERTEX
  5
15a
  8
Layer_0
  10
615.17407
  20
1636.7388
  0
VERTEX
  5
15b
  8
Layer_0
  10
614.37958
  20
1633.2524
  0
VERTEX
  5
15c
  8
Layer_0
  10
613.62311
  20
1629.7517
  0
VERTEX
  5
15d
  8
Layer_0
  10
612.90497
  20
1626.2369
  0
VERTEX
  5
15e
  8
Layer_0
  10
612.22534
  20
1622.7083
  0
VERTEX
  5
15f
  8
Layer_0
  10
611.58447
  20
1619.166
  0
VERTEX
  5
160
  8
Layer_0
  10
610.9826
  20
1615.6104
  0
VERTEX
  5
161
  8
Layer_0
  10
546.31042
  20
876.40405
  0
VERTEX
  5
162
  8
Layer_0
  10
318.67999
  20
896.31915
  42
0.021550389
  0
VERTEX
  5
163
  8
Layer_0
  10
318.68561
  20
896.44989
  42
0.41421356
  0
VERTEX
  5
164
  8
Layer_0
  10
317.18561
  20
897.94989
  42
0.38922493
  0
VERTEX
  5
165
  8
Layer_0
  10
315.69122
  20
896.58057
  0
VERTEX
  5
166
  8
Layer_0
  10
307.22348
  20
897.32135
  0
VERTEX
  5
167
  8
Layer_0
  10
367.04413
  20
1581.0745
  0
VERTEX
  5
168
  8
Layer_0
  10
367.17166
  20
1584.8292
  0
VERTEX
  5
169
  8
Layer_0
  10
367.32382
  20
1588.5778
  0
VERTEX
  5
16a
  8
Layer_0
  10
367.50049
  20
1592.3198
  0
VERTEX
  5
16b
  8
Layer_0
  10
367.7016
  20
1596.0555
  0
VERTEX
  5
16c
  8
Layer_0
  10
367.92709
  20
1599.7848
  0
VERTEX
  5
16d
  8
Layer_0
  10
368.17688
  20
1603.5073
  0
VERTEX
  5
16e
  8
Layer_0
  10
368.45087
  20
1607.2231
  0
VERTEX
  5
16f
  8
Layer_0
  10
368.74899
  20
1610.9324
  0
VERTEX
  5
170
  8
Layer_0
  10
369.41733
  20
1618.33
  0
VERTEX
  5
171
  8
Layer_0
  10
370.18124
  20
1625.6997
  0
VERTEX
  5
172
  8
Layer_0
  10
371.04016
  20
1633.0408
  0
VERTEX
  5
173
  8
Layer_0
  10
371.99341
  20
1640.3525
  0
VERTEX
  5
174
  8
Layer_0
  10
373.04037
  20
1647.6345
  0
VERTEX
  5
175
  8
Layer_0
  10
373.61139
  20
1651.2665
  0
VERTEX
  5
176
  8
Layer_0
  10
383.64755
  20
1650.7468
  0
VERTEX
  5
177
  8
Layer_0
  10
383.65704
  20
1650.8051
  0
VERTEX
  5
178
  8
Layer_0
  10
374.02124
  20
1653.4319
  0
VERTEX
  5
179
  8
Layer_0
  10
375.01547
  20
1659.3489
  0
VERTEX
  5
17a
  8
Layer_0
  10
384.97495
  20
1658.6825
  0
VERTEX
  5
17b
  8
Layer_0
  10
384.98538
  20
1658.7421
  0
VERTEX
  5
17c
  8
Layer_0
  10
375.3945
  20
1661.5079
  0
VERTEX
  5
17d
  8
Layer_0
  10
376.47519
  20
1667.4098
  0
VERTEX
  5
17e
  8
Layer_0
  10
386.41299
  20
1666.5988
  0
VERTEX
  5
17f
  8
Layer_0
  10
386.4245
  20
1666.6603
  0
VERTEX
  5
180
  8
Layer_0
  10
376.88574
  20
1669.5629
  0
VERTEX
  5
181
  8
Layer_0
  10
378.05261
  20
1675.4484
  0
VERTEX
  5
182
  8
Layer_0
  10
387.96182
  20
1674.4934
  0
VERTEX
  5
183
  8
Layer_0
  10
387.97543
  20
1674.5581
  0
VERTEX
  5
184
  8
Layer_0
  10
378.49469
  20
1677.5953
  0
VERTEX
  5
185
  8
Layer_0
  10
379.74753
  20
1683.463
  0
VERTEX
  5
186
  8
Layer_0
  10
389.64081
  20
1682.3635
  0
VERTEX
  5
187
  8
Layer_0
  10
389.65518
  20
1682.4281
  0
VERTEX
  5
188
  8
Layer_0
  10
380.22092
  20
1685.6033
  0
VERTEX
  5
189
  8
Layer_0
  10
381.55948
  20
1691.452
  0
VERTEX
  5
18a
  8
Layer_0
  10
391.42947
  20
1690.2086
  0
VERTEX
  5
18b
  8
Layer_0
  10
391.44492
  20
1690.2745
  0
VERTEX
  5
18c
  8
Layer_0
  10
382.06412
  20
1693.5852
  0
VERTEX
  5
18d
  8
Layer_0
  10
383.4881
  20
1699.4138
  0
VERTEX
  5
18e
  8
Layer_0
  10
393.32742
  20
1698.0278
  0
VERTEX
  5
18f
  8
Layer_0
  10
393.34418
  20
1698.0957
  0
VERTEX
  5
190
  8
Layer_0
  10
384.02386
  20
1701.5393
  0
VERTEX
  5
191
  8
Layer_0
  10
385.53293
  20
1707.3464
  0
VERTEX
  5
192
  8
Layer_0
  10
395.3472
  20
1705.8171
  0
VERTEX
  5
193
  8
Layer_0
  10
395.36569
  20
1705.8854
  0
VERTEX
  5
194
  8
Layer_0
  10
386.09973
  20
1709.4639
  0
VERTEX
  5
195
  8
Layer_0
  10
387.6936
  20
1715.2483
  0
VERTEX
  5
196
  8
Layer_0
  10
397.48325
  20
1713.5758
  0
VERTEX
  5
197
  8
Layer_0
  10
397.50256
  20
1713.6442
  0
VERTEX
  5
198
  8
Layer_0
  10
388.29126
  20
1717.3572
  0
VERTEX
  5
199
  8
Layer_0
  10
389.96957
  20
1723.1177
  0
VERTEX
  5
19a
  8
Layer_0
  10
399.72711
  20
1721.3033
  0
VERTEX
  5
19b
  8
Layer_0
  10
399.74768
  20
1721.373
  0
VERTEX
  5
19c
  8
Layer_0
  10
390.59808
  20
1725.2175
  0
VERTEX
  5
19d
  8
Layer_0
  10
392.36047
  20
1730.9529
  0
VERTEX
  5
19e
  8
Layer_0
  10
402.08521
  20
1728.9973
  0
VERTEX
  5
19f
  8
Layer_0
  10
402.1076
  20
1729.0673
  0
VERTEX
  5
1a0
  8
Layer_0
  10
393.01965
  20
1733.0435
  0
VERTEX
  5
1a1
  8
Layer_0
  10
394.86575
  20
1738.7523
  0
VERTEX
  5
1a2
  8
Layer_0
  10
404.56421
  20
1736.6539
  0
VERTEX
  5
1a3
  8
Layer_0
  10
404.58716
  20
1736.723
  0
VERTEX
  5
1a4
  8
Layer_0
  10
395.55542
  20
1740.833
  0
VERTEX
  5
1a5
  8
Layer_0
  10
397.4848
  20
1746.5144
  0
VERTEX
  5
1a6
  8
Layer_0
  10
407.14948
  20
1744.2748
  0
VERTEX
  5
1a7
  8
Layer_0
  10
407.1734
  20
1744.344
  0
VERTEX
  5
1a8
  8
Layer_0
  10
398.20486
  20
1748.5846
  0
VERTEX
  5
1a9
  8
Layer_0
  10
400.21716
  20
1754.2372
  0
VERTEX
  5
1aa
  8
Layer_0
  10
409.84235
  20
1751.8578
  0
VERTEX
  5
1ab
  8
Layer_0
  10
409.86823
  20
1751.9277
  0
VERTEX
  5
1ac
  8
Layer_0
  10
400.96741
  20
1756.2968
  0
VERTEX
  5
1ad
  8
Layer_0
  10
403.06213
  20
1761.9192
  0
VERTEX
  5
1ae
  8
Layer_0
  10
412.65918
  20
1759.3973
  0
VERTEX
  5
1af
  8
Layer_0
  10
412.68518
  20
1759.4653
  0
VERTEX
  5
1b0
  8
Layer_0
  10
403.84241
  20
1763.9677
  0
VERTEX
  5
1b1
  8
Layer_0
  10
406.01917
  20
1769.5588
  0
VERTEX
  5
1b2
  8
Layer_0
  10
415.58014
  20
1766.8962
  0
VERTEX
  5
1b3
  8
Layer_0
  10
415.60681
  20
1766.9636
  0
VERTEX
  5
1b4
  8
Layer_0
  10
406.82935
  20
1771.5956
  0
VERTEX
  5
1b5
  8
Layer_0
  10
409.08765
  20
1777.1543
  0
VERTEX
  5
1b6
  8
Layer_0
  10
418.60468
  20
1774.3534
  0
VERTEX
  5
1b7
  8
Layer_0
  10
418.63245
  20
1774.4213
  0
VERTEX
  5
1b8
  8
Layer_0
  10
409.92761
  20
1779.179
  0
VERTEX
  5
1b9
  8
Layer_0
  10
412.26697
  20
1784.7041
  0
VERTEX
  5
1ba
  8
Layer_0
  10
421.75159
  20
1781.7614
  0
VERTEX
  5
1bb
  8
Layer_0
  10
421.77997
  20
1781.8265
  0
VERTEX
  5
1bc
  8
Layer_0
  10
413.13641
  20
1786.7163
  0
VERTEX
  5
1bd
  8
Layer_0
  10
415.5564
  20
1792.2067
  0
VERTEX
  5
1be
  8
Layer_0
  10
425.00189
  20
1789.1238
  0
VERTEX
  5
1bf
  8
Layer_0
  10
425.03058
  20
1789.1877
  0
VERTEX
  5
1c0
  8
Layer_0
  10
416.45514
  20
1794.2059
  0
VERTEX
  5
1c1
  8
Layer_0
  10
418.9552
  20
1799.6603
  0
VERTEX
  5
1c2
  8
Layer_0
  10
428.35345
  20
1796.4399
  0
VERTEX
  5
1c3
  8
Layer_0
  10
428.38293
  20
1796.5038
  0
VERTEX
  5
1c4
  8
Layer_0
  10
419.88306
  20
1801.6461
  0
VERTEX
  5
1c5
  8
Layer_0
  10
422.46265
  20
1807.0632
  0
VERTEX
  5
1c6
  8
Layer_0
  10
431.82251
  20
1803.7023
  0
VERTEX
  5
1c7
  8
Layer_0
  10
431.85248
  20
1803.7635
  0
VERTEX
  5
1c8
  8
Layer_0
  10
423.41943
  20
1809.0354
  0
VERTEX
  5
1c9
  8
Layer_0
  10
426.078
  20
1814.4143
  0
VERTEX
  5
1ca
  8
Layer_0
  10
435.3949
  20
1810.9141
  0
VERTEX
  5
1cb
  8
Layer_0
  10
435.4248
  20
1810.9734
  0
VERTEX
  5
1cc
  8
Layer_0
  10
427.06348
  20
1816.3722
  0
VERTEX
  5
1cd
  8
Layer_0
  10
429.80042
  20
1821.7117
  0
VERTEX
  5
1ce
  8
Layer_0
  10
439.06616
  20
1818.0752
  0
VERTEX
  5
1cf
  8
Layer_0
  10
439.09662
  20
1818.134
  0
VERTEX
  5
1d0
  8
Layer_0
  10
430.81458
  20
1823.6549
  0
VERTEX
  5
1d1
  8
Layer_0
  10
433.62939
  20
1828.9537
  0
VERTEX
  5
1d2
  8
Layer_0
  10
442.85077
  20
1825.178
  0
VERTEX
  5
1d3
  8
Layer_0
  10
442.88135
  20
1825.2341
  0
VERTEX
  5
1d4
  8
Layer_0
  10
434.67175
  20
1830.882
  0
VERTEX
  5
1d5
  8
Layer_0
  10
437.56372
  20
1836.1389
  0
VERTEX
  5
1d6
  8
Layer_0
  10
446.73743
  20
1832.2252
  0
VERTEX
  5
1d7
  8
Layer_0
  10
446.7677
  20
1832.2793
  0
VERTEX
  5
1d8
  8
Layer_0
  10
438.63422
  20
1838.0518
  0
VERTEX
  5
1d9
  8
Layer_0
  10
441.60278
  20
1843.266
  0
VERTEX
  5
1da
  8
Layer_0
  10
450.72021
  20
1839.2175
  0
VERTEX
  5
1db
  8
Layer_0
  10
450.75085
  20
1839.2709
  0
VERTEX
  5
1dc
  8
Layer_0
  10
442.70117
  20
1845.163
  0
VERTEX
  5
1dd
  8
Layer_0
  10
445.74561
  20
1850.3331
  0
VERTEX
  5
1de
  8
Layer_0
  10
454.81268
  20
1846.1472
  0
VERTEX
  5
1df
  8
Layer_0
  10
454.84332
  20
1846.1979
  0
VERTEX
  5
1e0
  8
Layer_0
  10
446.8717
  20
1852.2137
  0
VERTEX
  5
1e1
  8
Layer_0
  10
449.99152
  20
1857.3389
  0
VERTEX
  5
1e2
  8
Layer_0
  10
459.00519
  20
1853.0165
  0
VERTEX
  5
1e3
  8
Layer_0
  10
459.03528
  20
1853.0651
  0
VERTEX
  5
1e4
  8
Layer_0
  10
451.14484
  20
1859.2029
  0
VERTEX
  5
1e5
  8
Layer_0
  10
454.33923
  20
1864.2817
  0
VERTEX
  5
1e6
  8
Layer_0
  10
463.29095
  20
1859.8269
  0
VERTEX
  5
1e7
  8
Layer_0
  10
463.32129
  20
1859.8748
  0
VERTEX
  5
1e8
  8
Layer_0
  10
455.51984
  20
1866.1287
  0
VERTEX
  5
1e9
  8
Layer_0
  10
458.78821
  20
1871.1604
  0
VERTEX
  5
1ea
  8
Layer_0
  10
467.68323
  20
1866.5701
  0
VERTEX
  5
1eb
  8
Layer_0
  10
467.71332
  20
1866.6154
  0
VERTEX
  5
1ec
  8
Layer_0
  10
459.99567
  20
1872.9897
  0
VERTEX
  5
1ed
  8
Layer_0
  10
463.33728
  20
1877.9731
  0
VERTEX
  5
1ee
  8
Layer_0
  10
472.17261
  20
1873.2488
  0
VERTEX
  5
1ef
  8
Layer_0
  10
472.20209
  20
1873.292
  0
VERTEX
  5
1f0
  8
Layer_0
  10
464.57141
  20
1879.7847
  0
VERTEX
  5
1f1
  8
Layer_0
  10
467.98553
  20
1884.7186
  0
VERTEX
  5
1f2
  8
Layer_0
  10
476.7525
  20
1879.8647
  0
VERTEX
  5
1f3
  8
Layer_0
  10
476.78217
  20
1879.9073
  0
VERTEX
  5
1f4
  8
Layer_0
  10
469.24597
  20
1886.512
  0
VERTEX
  5
1f5
  8
Layer_0
  10
472.73193
  20
1891.3954
  0
VERTEX
  5
1f6
  8
Layer_0
  10
481.42822
  20
1886.3984
  0
VERTEX
  5
1f7
  8
Layer_0
  10
481.43274
  20
1886.4049
  0
VERTEX
  5
1f8
  8
Layer_0
  10
481.46509
  20
1886.4489
  0
VERTEX
  5
1f9
  8
Layer_0
  10
474.01855
  20
1893.1702
  0
VERTEX
  5
1fa
  8
Layer_0
  10
477.57556
  20
1898.0021
  0
VERTEX
  5
1fb
  8
Layer_0
  10
486.24139
  20
1892.9227
  0
VERTEX
  5
1fc
  8
Layer_0
  10
478.88788
  20
1899.7577
  0
VERTEX
  5
1fd
  8
Layer_0
  10
482.51526
  20
1904.5371
  0
VERTEX
  5
1fe
  8
Layer_0
  10
491.0769
  20
1899.2932
  0
VERTEX
  5
1ff
  8
Layer_0
  10
491.10608
  20
1899.3314
  0
VERTEX
  5
200
  8
Layer_0
  10
483.85321
  20
1906.2734
  0
VERTEX
  5
201
  8
Layer_0
  10
487.55005
  20
1910.9991
  0
VERTEX
  5
202
  8
Layer_0
  10
496.04254
  20
1905.6254
  0
VERTEX
  5
203
  8
Layer_0
  10
496.07098
  20
1905.6613
  0
VERTEX
  5
204
  8
Layer_0
  10
488.91321
  20
1912.7158
  0
VERTEX
  5
205
  8
Layer_0
  10
492.67883
  20
1917.387
  0
VERTEX
  5
206
  8
Layer_0
  10
501.0918
  20
1911.8895
  0
VERTEX
  5
207
  8
Layer_0
  10
501.12073
  20
1911.9249
  0
VERTEX
  5
208
  8
Layer_0
  10
494.06696
  20
1919.0835
  0
VERTEX
  5
209
  8
Layer_0
  10
497.90045
  20
1923.6991
  0
VERTEX
  5
20a
  8
Layer_0
  10
506.23212
  20
1918.0791
  0
VERTEX
  5
20b
  8
Layer_0
  10
506.2616
  20
1918.114
  0
VERTEX
  5
20c
  8
Layer_0
  10
499.31323
  20
1925.375
  0
VERTEX
  5
20d
  8
Layer_0
  10
503.21387
  20
1929.9341
  0
VERTEX
  5
20e
  8
Layer_0
  10
511.4624
  20
1924.1929
  0
VERTEX
  5
20f
  8
Layer_0
  10
511.49237
  20
1924.2274
  0
VERTEX
  5
210
  8
Layer_0
  10
504.651
  20
1931.5891
  0
VERTEX
  5
211
  8
Layer_0
  10
508.61792
  20
1936.0907
  0
VERTEX
  5
212
  8
Layer_0
  10
516.78156
  20
1930.2295
  0
VERTEX
  5
213
  8
Layer_0
  10
516.81207
  20
1930.2635
  0
VERTEX
  5
214
  8
Layer_0
  10
510.0791
  20
1937.7246
  0
VERTEX
  5
215
  8
Layer_0
  10
514.11145
  20
1942.1676
  0
VERTEX
  5
216
  8
Layer_0
  10
522.18848
  20
1936.1875
  0
VERTEX
  5
217
  8
Layer_0
  10
522.21954
  20
1936.2212
  0
VERTEX
  5
218
  8
Layer_0
  10
515.59644
  20
1943.7799
  0
VERTEX
  5
219
  8
Layer_0
  10
519.6933
  20
1948.1636
  0
VERTEX
  5
21a
  8
Layer_0
  10
527.68207
  20
1942.0659
  0
VERTEX
  5
21b
  8
Layer_0
  10
527.7135
  20
1942.0991
  0
VERTEX
  5
21c
  8
Layer_0
  10
521.20166
  20
1949.7539
  0
VERTEX
  5
21d
  8
Layer_0
  10
525.36224
  20
1954.0771
  0
VERTEX
  5
21e
  8
Layer_0
  10
533.26093
  20
1947.8634
  0
VERTEX
  5
21f
  8
Layer_0
  10
533.29291
  20
1947.896
  0
VERTEX
  5
220
  8
Layer_0
  10
526.89374
  20
1955.6453
  0
VERTEX
  5
221
  8
Layer_0
  10
531.11713
  20
1959.9071
  0
VERTEX
  5
222
  8
Layer_0
  10
538.92407
  20
1953.5785
  0
VERTEX
  5
223
  8
Layer_0
  10
538.95648
  20
1953.6108
  0
VERTEX
  5
224
  8
Layer_0
  10
532.67139
  20
1961.4528
  0
VERTEX
  5
225
  8
Layer_0
  10
536.9566
  20
1965.6523
  0
VERTEX
  5
226
  8
Layer_0
  10
544.67017
  20
1959.2102
  0
VERTEX
  5
227
  8
Layer_0
  10
544.703
  20
1959.2419
  0
VERTEX
  5
228
  8
Layer_0
  10
538.53326
  20
1967.175
  0
VERTEX
  5
229
  8
Layer_0
  10
542.87952
  20
1971.3115
  0
VERTEX
  5
22a
  8
Layer_0
  10
550.49799
  20
1964.7573
  0
VERTEX
  5
22b
  8
Layer_0
  10
550.53137
  20
1964.7886
  0
VERTEX
  5
22c
  8
Layer_0
  10
544.47833
  20
1972.8112
  0
VERTEX
  5
22d
  8
Layer_0
  10
548.88458
  20
1976.8835
  0
VERTEX
  5
22e
  8
Layer_0
  10
556.40637
  20
1970.2185
  0
VERTEX
  5
22f
  8
Layer_0
  10
556.44019
  20
1970.2494
  0
VERTEX
  5
230
  8
Layer_0
  10
550.50513
  20
1978.3596
  0
VERTEX
  5
231
  8
Layer_0
  10
554.97052
  20
1982.3671
  0
VERTEX
  5
232
  8
Layer_0
  10
562.39398
  20
1975.5928
  0
VERTEX
  5
233
  8
Layer_0
  10
562.42828
  20
1975.623
  0
VERTEX
  5
234
  8
Layer_0
  10
556.61255
  20
1983.8192
  0
VERTEX
  5
235
  8
Layer_0
  10
561.13605
  20
1987.761
  0
VERTEX
  5
236
  8
Layer_0
  10
568.45966
  20
1980.8788
  0
VERTEX
  5
237
  8
Layer_0
  10
568.49438
  20
1980.9087
  0
VERTEX
  5
238
  8
Layer_0
  10
562.79913
  20
1989.189
  0
VERTEX
  5
239
  8
Layer_0
  10
567.37982
  20
1993.0642
  0
VERTEX
  5
23a
  8
Layer_0
  10
574.60199
  20
1986.0756
  0
VERTEX
  5
23b
  8
Layer_0
  10
574.61737
  20
1986.0873
  0
VERTEX
  5
23c
  8
Layer_0
  10
574.63708
  20
1986.1049
  0
VERTEX
  5
23d
  8
Layer_0
  10
569.0636
  20
1994.4677
  0
VERTEX
  5
23e
  8
Layer_0
  10
573.70044
  20
1998.2754
  0
VERTEX
  5
23f
  8
Layer_0
  10
580.81958
  20
1991.1819
  0
VERTEX
  5
240
  8
Layer_0
  10
580.85516
  20
1991.2107
  0
VERTEX
  5
241
  8
Layer_0
  10
575.4046
  20
1999.6541
  0
VERTEX
  5
242
  8
Layer_0
  10
580.09668
  20
2003.3937
  0
VERTEX
  5
243
  8
Layer_0
  10
587.11127
  20
1996.1968
  0
VERTEX
  5
244
  8
Layer_0
  10
587.14728
  20
1996.2251
  0
VERTEX
  5
245
  8
Layer_0
  10
581.8208
  20
2004.7473
  0
VERTEX
  5
246
  8
Layer_0
  10
586.56708
  20
2008.4177
  0
VERTEX
  5
247
  8
Layer_0
  10
593.47565
  20
2001.1191
  0
VERTEX
  5
248
  8
Layer_0
  10
593.51202
  20
2001.1467
  0
VERTEX
  5
249
  8
Layer_0
  10
588.31079
  20
2009.746
  0
VERTEX
  5
24a
  8
Layer_0
  10
593.11023
  20
2013.3467
  0
VERTEX
  5
24b
  8
Layer_0
  10
599.91132
  20
2005.9478
  0
VERTEX
  5
24c
  8
Layer_0
  10
599.94812
  20
2005.975
  0
VERTEX
  5
24d
  8
Layer_0
  10
594.87323
  20
2014.6493
  0
VERTEX
  5
24e
  8
Layer_0
  10
599.72485
  20
2018.1794
  0
VERTEX
  5
24f
  8
Layer_0
  10
606.39807
  20
2010.693
  0
VERTEX
  5
250
  8
Layer_0
  10
606.44409
  20
2010.7262
  0
VERTEX
  5
251
  8
Layer_0
  10
601.50665
  20
2019.4561
  0
VERTEX
  5
252
  8
Layer_0
  10
606.40942
  20
2022.9148
  0
VERTEX
  5
253
  8
Layer_0
  10
612.96899
  20
2015.3456
  0
VERTEX
  5
254
  8
Layer_0
  10
613.01263
  20
2015.3756
  0
VERTEX
  5
255
  8
Layer_0
  10
608.20972
  20
2024.1653
  0
VERTEX
  5
256
  8
Layer_0
  10
613.16248
  20
2027.552
  0
VERTEX
  5
257
  8
Layer_0
  10
619.6106
  20
2019.8878
  0
VERTEX
  5
258
  8
Layer_0
  10
619.65454
  20
2019.9174
  0
VERTEX
  5
259
  8
Layer_0
  10
614.98096
  20
2028.776
  0
VERTEX
  5
25a
  8
Layer_0
  10
619.98279
  20
2032.0898
  0
VERTEX
  5
25b
  8
Layer_0
  10
626.31299
  20
2024.3383
  0
VERTEX
  5
25c
  8
Layer_0
  10
626.35876
  20
2024.3683
  0
VERTEX
  5
25d
  8
Layer_0
  10
621.81891
  20
2033.2871
  0
VERTEX
  5
25e
  8
Layer_0
  10
626.86865
  20
2036.5276
  0
VERTEX
  5
25f
  8
Layer_0
  10
633.07617
  20
2028.6952
  0
VERTEX
  5
260
  8
Layer_0
  10
633.125
  20
2028.7257
  0
VERTEX
  5
261
  8
Layer_0
  10
628.72211
  20
2037.6978
  0
VERTEX
  5
262
  8
Layer_0
  10
633.81873
  20
2040.8639
  0
VERTEX
  5
263
  8
Layer_0
  10
639.9104
  20
2032.9421
  0
VERTEX
  5
264
  8
Layer_0
  10
639.9599
  20
2032.9723
  0
VERTEX
  5
265
  8
Layer_0
  10
635.68909
  20
2042.007
  0
VERTEX
  5
266
  8
Layer_0
  10
640.83148
  20
2045.0981
  0
VERTEX
  5
267
  8
Layer_0
  10
646.80182
  20
2037.0947
  0
VERTEX
  5
268
  8
Layer_0
  10
646.85309
  20
2037.1252
  0
VERTEX
  5
269
  8
Layer_0
  10
642.71838
  20
2046.2137
  0
VERTEX
  5
26a
  8
Layer_0
  10
647.9054
  20
2049.2295
  0
VERTEX
  5
26b
  8
Layer_0
  10
653.74963
  20
2041.1511
  0
VERTEX
  5
26c
  8
Layer_0
  10
653.80414
  20
2041.182
  0
VERTEX
  5
26d
  8
Layer_0
  10
649.80841
  20
2050.3174
  0
VERTEX
  5
26e
  8
Layer_0
  10
655.03906
  20
2053.2568
  0
VERTEX
  5
26f
  8
Layer_0
  10
660.7644
  20
2045.0941
  0
VERTEX
  5
270
  8
Layer_0
  10
660.81921
  20
2045.1243
  0
VERTEX
  5
271
  8
Layer_0
  10
656.9577
  20
2054.3164
  0
VERTEX
  5
272
  8
Layer_0
  10
662.23077
  20
2057.1792
  0
VERTEX
  5
273
  8
Layer_0
  10
667.83191
  20
2048.9397
  0
VERTEX
  5
274
  8
Layer_0
  10
667.88867
  20
2048.9702
  0
VERTEX
  5
275
  8
Layer_0
  10
664.16486
  20
2058.2109
  0
VERTEX
  5
276
  8
Layer_0
  10
669.47919
  20
2060.9961
  0
VERTEX
  5
277
  8
Layer_0
  10
674.95135
  20
2052.6875
  0
VERTEX
  5
278
  8
Layer_0
  10
675.01129
  20
2052.718
  0
VERTEX
  5
279
  8
Layer_0
  10
671.42804
  20
2061.9995
  0
VERTEX
  5
27a
  8
Layer_0
  10
676.78259
  20
2064.7068
  0
VERTEX
  5
27b
  8
Layer_0
  10
682.13324
  20
2056.3181
  0
VERTEX
  5
27c
  8
Layer_0
  10
682.1933
  20
2056.3479
  0
VERTEX
  5
27d
  8
Layer_0
  10
678.74591
  20
2065.6814
  0
VERTEX
  5
27e
  8
Layer_0
  10
684.13953
  20
2068.3101
  0
VERTEX
  5
27f
  8
Layer_0
  10
689.36377
  20
2059.8489
  0
VERTEX
  5
280
  8
Layer_0
  10
689.42542
  20
2059.8787
  0
VERTEX
  5
281
  8
Layer_0
  10
686.11694
  20
2069.2559
  0
VERTEX
  5
282
  8
Layer_0
  10
691.5484
  20
2071.8052
  0
VERTEX
  5
283
  8
Layer_0
  10
696.64203
  20
2063.2791
  0
VERTEX
  5
284
  8
Layer_0
  10
696.7063
  20
2063.3091
  0
VERTEX
  5
285
  8
Layer_0
  10
693.53937
  20
2072.7222
  0
VERTEX
  5
286
  8
Layer_0
  10
699.00751
  20
2075.1919
  0
VERTEX
  5
287
  8
Layer_0
  10
703.97668
  20
2066.5908
  0
VERTEX
  5
288
  8
Layer_0
  10
704.04132
  20
2066.6194
  0
VERTEX
  5
289
  8
Layer_0
  10
701.01178
  20
2076.0793
  0
VERTEX
  5
28a
  8
Layer_0
  10
706.51544
  20
2078.4688
  0
VERTEX
  5
28b
  8
Layer_0
  10
711.35675
  20
2069.7988
  0
VERTEX
  5
28c
  8
Layer_0
  10
711.4223
  20
2069.8269
  0
VERTEX
  5
28d
  8
Layer_0
  10
708.53247
  20
2079.3269
  0
VERTEX
  5
28e
  8
Layer_0
  10
714.0705
  20
2081.6357
  0
VERTEX
  5
28f
  8
Layer_0
  10
718.78003
  20
2072.9038
  0
VERTEX
  5
290
  8
Layer_0
  10
718.84778
  20
2072.9319
  0
VERTEX
  5
291
  8
Layer_0
  10
716.09979
  20
2082.4644
  0
VERTEX
  5
292
  8
Layer_0
  10
721.67102
  20
2084.6917
  0
VERTEX
  5
293
  8
Layer_0
  10
726.25317
  20
2075.8901
  0
VERTEX
  5
294
  8
Layer_0
  10
726.32123
  20
2075.9165
  0
VERTEX
  5
295
  8
Layer_0
  10
723.71228
  20
2085.4905
  0
VERTEX
  5
296
  8
Layer_0
  10
729.31555
  20
2087.6362
  0
VERTEX
  5
297
  8
Layer_0
  10
733.76855
  20
2078.7686
  0
VERTEX
  5
298
  8
Layer_0
  10
733.83673
  20
2078.7942
  0
VERTEX
  5
299
  8
Layer_0
  10
731.36823
  20
2088.405
  0
VERTEX
  5
29a
  8
Layer_0
  10
737.00226
  20
2090.4685
  0
VERTEX
  5
29b
  8
Layer_0
  10
741.32257
  20
2081.5417
  0
VERTEX
  5
29c
  8
Layer_0
  10
741.39227
  20
2081.5671
  0
VERTEX
  5
29d
  8
Layer_0
  10
739.06598
  20
2091.2073
  0
VERTEX
  5
29e
  8
Layer_0
  10
744.72955
  20
2093.188
  0
VERTEX
  5
29f
  8
Layer_0
  10
748.9198
  20
2084.1973
  0
VERTEX
  5
2a0
  8
Layer_0
  10
748.9895
  20
2084.2207
  0
VERTEX
  5
2a1
  8
Layer_0
  10
746.80389
  20
2093.8965
  0
VERTEX
  5
2a2
  8
Layer_0
  10
752.49585
  20
2095.7944
  0
VERTEX
  5
2a3
  8
Layer_0
  10
756.55585
  20
2086.739
  0
VERTEX
  5
2a4
  8
Layer_0
  10
756.625
  20
2086.7615
  0
VERTEX
  5
2a5
  8
Layer_0
  10
754.58026
  20
2096.4727
  0
VERTEX
  5
2a6
  8
Layer_0
  10
760.29938
  20
2098.2869
  0
VERTEX
  5
2a7
  8
Layer_0
  10
764.22607
  20
2089.1743
  0
VERTEX
  5
2a8
  8
Layer_0
  10
764.29565
  20
2089.196
  0
VERTEX
  5
2a9
  8
Layer_0
  10
762.39349
  20
2098.9343
  0
VERTEX
  5
2aa
  8
Layer_0
  10
768.13855
  20
2100.6648
  0
VERTEX
  5
2ab
  8
Layer_0
  10
771.93207
  20
2091.4944
  0
VERTEX
  5
2ac
  8
Layer_0
  10
772.00189
  20
2091.5144
  0
VERTEX
  5
2ad
  8
Layer_0
  10
770.242
  20
2101.2815
  0
VERTEX
  5
2ae
  8
Layer_0
  10
776.01172
  20
2102.9277
  0
VERTEX
  5
2af
  8
Layer_0
  10
779.67395
  20
2093.6948
  0
VERTEX
  5
2b0
  8
Layer_0
  10
779.74213
  20
2093.7136
  0
VERTEX
  5
2b1
  8
Layer_0
  10
778.1239
  20
2103.5139
  0
VERTEX
  5
2b2
  8
Layer_0
  10
783.91711
  20
2105.0757
  0
VERTEX
  5
2b3
  8
Layer_0
  10
787.44519
  20
2095.7866
  0
VERTEX
  5
2b4
  8
Layer_0
  10
787.51282
  20
2095.8044
  0
VERTEX
  5
2b5
  8
Layer_0
  10
786.03766
  20
2105.6306
  0
VERTEX
  5
2b6
  8
Layer_0
  10
791.85303
  20
2107.1074
  0
VERTEX
  5
2b7
  8
Layer_0
  10
795.24469
  20
2097.7681
  0
VERTEX
  5
2b8
  8
Layer_0
  10
795.31281
  20
2097.7844
  0
VERTEX
  5
2b9
  8
Layer_0
  10
793.98151
  20
2107.6313
  0
VERTEX
  5
2ba
  8
Layer_0
  10
799.81793
  20
2109.0227
  0
VERTEX
  5
2bb
  8
Layer_0
  10
803.07703
  20
2099.6221
  0
VERTEX
  5
2bc
  8
Layer_0
  10
803.14252
  20
2099.637
  0
VERTEX
  5
2bd
  8
Layer_0
  10
801.9538
  20
2109.5156
  0
VERTEX
  5
2be
  8
Layer_0
  10
807.80994
  20
2110.8215
  0
VERTEX
  5
2bf
  8
Layer_0
  10
810.9339
  20
2101.3662
  0
VERTEX
  5
2c0
  8
Layer_0
  10
810.99774
  20
2101.3799
  0
VERTEX
  5
2c1
  8
Layer_0
  10
809.95282
  20
2111.2832
  0
VERTEX
  5
2c2
  8
Layer_0
  10
815.82739
  20
2112.5034
  0
VERTEX
  5
2c3
  8
Layer_0
  10
818.81366
  20
2103
  0
VERTEX
  5
2c4
  8
Layer_0
  10
818.87701
  20
2103.0129
  0
VERTEX
  5
2c5
  8
Layer_0
  10
817.97675
  20
2112.9333
  0
VERTEX
  5
2c6
  8
Layer_0
  10
823.86859
  20
2114.0674
  0
VERTEX
  5
2c7
  8
Layer_0
  10
826.71863
  20
2104.511
  0
VERTEX
  5
2c8
  8
Layer_0
  10
826.77997
  20
2104.522
  0
VERTEX
  5
2c9
  8
Layer_0
  10
826.02405
  20
2114.4661
  0
VERTEX
  5
2ca
  8
Layer_0
  10
831.93182
  20
2115.5139
  0
VERTEX
  5
2cb
  8
Layer_0
  10
834.64539
  20
2105.9043
  0
VERTEX
  5
2cc
  8
Layer_0
  10
834.70404
  20
2105.9141
  0
VERTEX
  5
2cd
  8
Layer_0
  10
834.0929
  20
2115.8809
  0
VERTEX
  5
2ce
  8
Layer_0
  10
840.01538
  20
2116.8423
  0
VERTEX
  5
2cf
  8
Layer_0
  10
842.59003
  20
2107.1865
  0
VERTEX
  5
2d0
  8
Layer_0
  10
842.64722
  20
2107.1956
  0
VERTEX
  5
2d1
  8
Layer_0
  10
842.18152
  20
2117.1777
  0
VERTEX
  5
2d2
  8
Layer_0
  10
848.11743
  20
2118.0522
  0
VERTEX
  5
2d3
  8
Layer_0
  10
850.55164
  20
2108.3555
  0
VERTEX
  5
2d4
  8
Layer_0
  10
850.60809
  20
2108.363
  0
VERTEX
  5
2d5
  8
Layer_0
  10
850.28833
  20
2118.356
  0
VERTEX
  5
2d6
  8
Layer_0
  10
856.23639
  20
2119.1436
  0
VERTEX
  5
2d7
  8
Layer_0
  10
858.53241
  20
2109.3958
  0
VERTEX
  5
2d8
  8
Layer_0
  10
858.58527
  20
2109.4021
  0
VERTEX
  5
2d9
  8
Layer_0
  10
858.41144
  20
2119.4153
  0
VERTEX
  5
2da
  8
Layer_0
  10
864.37042
  20
2120.1157
  0
VERTEX
  5
2db
  8
Layer_0
  10
866.52594
  20
2110.3247
  0
VERTEX
  5
2dc
  8
Layer_0
  10
866.5766
  20
2110.3303
  0
VERTEX
  5
2dd
  8
Layer_0
  10
866.54926
  20
2120.356
  0
VERTEX
  5
2de
  8
Layer_0
  10
872.51782
  20
2120.9692
  0
VERTEX
  5
2df
  8
Layer_0
  10
874.53473
  20
2111.1238
  0
VERTEX
  5
2e0
  8
Layer_0
  10
874.58026
  20
2111.1282
  0
VERTEX
  5
2e1
  8
Layer_0
  10
874.69983
  20
2121.1772
  0
VERTEX
  5
2e2
  8
Layer_0
  10
880.67676
  20
2121.7034
  0
VERTEX
  5
2e3
  8
Layer_0
  10
882.54944
  20
2111.8296
  0
VERTEX
  5
2e4
  8
Layer_0
  10
882.59509
  20
2111.833
  0
VERTEX
  5
2e5
  8
Layer_0
  10
882.86163
  20
2121.8794
  0
VERTEX
  5
2e6
  8
Layer_0
  10
888.84558
  20
2122.3179
  0
VERTEX
  5
2e7
  8
Layer_0
  10
890.57379
  20
2112.4177
  0
VERTEX
  5
2e8
  8
Layer_0
  10
890.61938
  20
2112.4209
  0
VERTEX
  5
2e9
  8
Layer_0
  10
891.03284
  20
2122.4622
  0
VERTEX
  5
2ea
  8
Layer_0
  10
897.02258
  20
2122.813
  0
VERTEX
  5
2eb
  8
Layer_0
  10
898.60565
  20
2112.8887
  0
VERTEX
  5
2ec
  8
Layer_0
  10
898.65137
  20
2112.8909
  0
VERTEX
  5
2ed
  8
Layer_0
  10
899.21167
  20
2122.9253
  0
VERTEX
  5
2ee
  8
Layer_0
  10
905.20599
  20
2123.1885
  0
VERTEX
  5
2ef
  8
Layer_0
  10
906.64368
  20
2113.2419
  0
VERTEX
  5
2f0
  8
Layer_0
  10
906.68939
  20
2113.2437
  0
VERTEX
  5
2f1
  8
Layer_0
  10
907.39648
  20
2123.2686
  0
VERTEX
  5
2f2
  8
Layer_0
  10
913.39392
  20
2123.4441
  0
VERTEX
  5
2f3
  8
Layer_0
  10
914.68591
  20
2113.4775
  0
VERTEX
  5
2f4
  8
Layer_0
  10
914.73157
  20
2113.4785
  0
VERTEX
  5
2f5
  8
Layer_0
  10
915.58533
  20
2123.4922
  0
VERTEX
  5
2f6
  8
Layer_0
  10
921.58459
  20
2123.5798
  0
VERTEX
  5
2f7
  8
Layer_0
  10
922.73083
  20
2113.5957
  0
VERTEX
  5
2f8
  8
Layer_0
  10
922.77649
  20
2113.5959
  0
VERTEX
  5
2f9
  8
Layer_0
  10
923.77649
  20
2123.5959
  0
VERTEX
  5
2fa
  8
Layer_0
  10
926.77661
  20
2123.5959
  0
VERTEX
  5
2fb
  8
Layer_0
  10
1192.7766
  20
2123.5959
  0
VERTEX
  5
2fc
  8
Layer_0
  10
1192.7766
  20
2115.0959
  42
0.41421356
  0
VERTEX
  5
2fd
  8
Layer_0
  10
1191.2766
  20
2113.5959
  42
0.41421356
  0
VERTEX
  5
2fe
  8
Layer_0
  10
1192.7766
  20
2112.0959
  0
VERTEX
  5
2ff
  8
Layer_0
  10
1192.7766
  20
1883.5959
  0
VERTEX
  5
300
  8
Layer_0
  10
926.77661
  20
1883.5959
  0
SEQEND
  0
POLYLINE
  5
302
  8
Layer_0
  62
7
  66
1
  10
0
  20
0
  30
0
  0
VERTEX
  5
302
  8
Layer_0
  10
372.70877
  20
1645.3278
  0
VERTEX
  5
303
  8
Layer_0
  10
382.49103
  20
1642.8506
  0
SEQEND
  0
ENDSEC
  0
EOF
