  0
SECTION
  2
HEADER
  9
$ACADVER
  1
AC1009
  0
ENDSEC
  0
SECTION
  2
TABLES
  0
TABLE
  2
LAYER
  70
1
  0
LAYER
  2
Layer_0
  70
0
  62
7
  6
CONTINUOUS
  0
ENDTAB
  0
ENDSEC
  0
SECTION
  2
ENTITIES
  0
POLYLINE
  5
90
  8
Layer_0
  62
7
  66
1
  10
0
  20
0
  30
0
  0
VERTEX
  5
90
  8
Layer_0
  10
47.798157
  20
826.73834
  0
VERTEX
  5
91
  8
Layer_0
  10
47.798157
  20
826.7382
  0
VERTEX
  5
92
  8
Layer_0
  10
47.798157
  20
826.73807
  0
SEQEND
  0
POLYLINE
  5
94
  8
Layer_0
  62
7
  66
1
  10
0
  20
0
  30
0
  0
VERTEX
  5
94
  8
Layer_0
  10
603.22784
  20
1074.8571
  0
VERTEX
  5
95
  8
Layer_0
  10
869.22778
  20
1074.8571
  0
VERTEX
  5
96
  8
Layer_0
  10
869.22778
  20
1303.3571
  42
-0.41421356
  0
VERTEX
  5
97
  8
Layer_0
  10
867.72778
  20
1304.8571
  42
-0.41421356
  0
VERTEX
  5
98
  8
Layer_0
  10
869.22778
  20
1306.3571
  0
VERTEX
  5
99
  8
Layer_0
  10
869.22778
  20
1319.8571
  0
VERTEX
  5
9a
  8
Layer_0
  10
869.2197
  20
1319.857
  0
VERTEX
  5
9b
  8
Layer_0
  10
869.16335
  20
1319.8569
  0
VERTEX
  5
9c
  8
Layer_0
  10
869.10203
  20
1319.8568
  0
VERTEX
  5
9d
  8
Layer_0
  10
869.01058
  20
1319.8567
  0
VERTEX
  5
9e
  8
Layer_0
  10
868.883
  20
1319.8565
  0
VERTEX
  5
9f
  8
Layer_0
  10
868.71327
  20
1319.8564
  0
VERTEX
  5
a0
  8
Layer_0
  10
868.49535
  20
1319.8562
  0
VERTEX
  5
a1
  8
Layer_0
  10
868.22324
  20
1319.856
  0
VERTEX
  5
a2
  8
Layer_0
  10
867.89092
  20
1319.8558
  0
VERTEX
  5
a3
  8
Layer_0
  10
867.49237
  20
1319.8556
  0
VERTEX
  5
a4
  8
Layer_0
  10
867.02157
  20
1319.8554
  0
VERTEX
  5
a5
  8
Layer_0
  10
866.47251
  20
1319.8552
  0
VERTEX
  5
a6
  8
Layer_0
  10
865.83916
  20
1319.855
  0
VERTEX
  5
a7
  8
Layer_0
  10
865.11551
  20
1319.8547
  0
VERTEX
  5
a8
  8
Layer_0
  10
864.71794
  20
1319.8546
  0
VERTEX
  5
a9
  8
Layer_0
  10
864.29553
  20
1319.8545
  0
VERTEX
  5
aa
  8
Layer_0
  10
863.84755
  20
1319.8544
  0
VERTEX
  5
ab
  8
Layer_0
  10
863.37322
  20
1319.8542
  0
VERTEX
  5
ac
  8
Layer_0
  10
862.87181
  20
1319.8541
  0
VERTEX
  5
ad
  8
Layer_0
  10
862.34255
  20
1319.854
  0
VERTEX
  5
ae
  8
Layer_0
  10
861.7847
  20
1319.8539
  0
VERTEX
  5
af
  8
Layer_0
  10
861.1975
  20
1319.8537
  0
VERTEX
  5
b0
  8
Layer_0
  10
860.58021
  20
1319.8536
  0
VERTEX
  5
b1
  8
Layer_0
  10
859.93207
  20
1319.8535
  0
VERTEX
  5
b2
  8
Layer_0
  10
859.25232
  20
1319.8533
  0
VERTEX
  5
b3
  8
Layer_0
  10
858.54021
  20
1319.8532
  0
VERTEX
  5
b4
  8
Layer_0
  10
857.795
  20
1319.8531
  0
VERTEX
  5
b5
  8
Layer_0
  10
857.01593
  20
1319.853
  0
VERTEX
  5
b6
  8
Layer_0
  10
856.20225
  20
1319.8528
  0
VERTEX
  5
b7
  8
Layer_0
  10
855.3532
  20
1319.8527
  0
VERTEX
  5
b8
  8
Layer_0
  10
854.46804
  20
1319.8526
  0
VERTEX
  5
b9
  8
Layer_0
  10
853.54601
  20
1319.8524
  0
VERTEX
  5
ba
  8
Layer_0
  10
852.58635
  20
1319.8523
  0
VERTEX
  5
bb
  8
Layer_0
  10
851.58833
  20
1319.8522
  0
VERTEX
  5
bc
  8
Layer_0
  10
850.55117
  20
1319.8521
  0
VERTEX
  5
bd
  8
Layer_0
  10
849.47414
  20
1319.8519
  0
VERTEX
  5
be
  8
Layer_0
  10
848.35648
  20
1319.8518
  0
VERTEX
  5
bf
  8
Layer_0
  10
847.19744
  20
1319.8517
  0
VERTEX
  5
c0
  8
Layer_0
  10
845.99626
  20
1319.8516
  0
VERTEX
  5
c1
  8
Layer_0
  10
844.75219
  20
1319.8515
  0
VERTEX
  5
c2
  8
Layer_0
  10
843.46449
  20
1319.8514
  0
VERTEX
  5
c3
  8
Layer_0
  10
842.13239
  20
1319.8513
  0
VERTEX
  5
c4
  8
Layer_0
  10
840.75515
  20
1319.8512
  0
VERTEX
  5
c5
  8
Layer_0
  10
839.33202
  20
1319.8511
  0
VERTEX
  5
c6
  8
Layer_0
  10
837.86223
  20
1319.851
  0
VERTEX
  5
c7
  8
Layer_0
  10
836.34505
  20
1319.8509
  0
VERTEX
  5
c8
  8
Layer_0
  10
834.77971
  20
1319.8508
  0
VERTEX
  5
c9
  8
Layer_0
  10
833.16547
  20
1319.8507
  0
VERTEX
  5
ca
  8
Layer_0
  10
831.50156
  20
1319.8506
  0
VERTEX
  5
cb
  8
Layer_0
  10
829.78725
  20
1319.8505
  0
VERTEX
  5
cc
  8
Layer_0
  10
828.02178
  20
1319.8504
  0
VERTEX
  5
cd
  8
Layer_0
  10
826.20439
  20
1319.8503
  0
VERTEX
  5
ce
  8
Layer_0
  10
824.33434
  20
1319.8503
  0
VERTEX
  5
cf
  8
Layer_0
  10
822.41087
  20
1319.8502
  0
VERTEX
  5
d0
  8
Layer_0
  10
820.43322
  20
1319.8501
  0
VERTEX
  5
d1
  8
Layer_0
  10
818.40066
  20
1319.8501
  0
VERTEX
  5
d2
  8
Layer_0
  10
816.31241
  20
1319.85
  0
VERTEX
  5
d3
  8
Layer_0
  10
814.16774
  20
1319.8499
  0
VERTEX
  5
d4
  8
Layer_0
  10
811.96589
  20
1319.8499
  0
VERTEX
  5
d5
  8
Layer_0
  10
809.70611
  20
1319.8499
  0
VERTEX
  5
d6
  8
Layer_0
  10
807.38764
  20
1319.8498
  0
VERTEX
  5
d7
  8
Layer_0
  10
805.00973
  20
1319.8498
  0
VERTEX
  5
d8
  8
Layer_0
  10
802.57164
  20
1319.8498
  0
VERTEX
  5
d9
  8
Layer_0
  10
800.0726
  20
1319.8497
  0
VERTEX
  5
da
  8
Layer_0
  10
797.51187
  20
1319.8497
  0
VERTEX
  5
db
  8
Layer_0
  10
794.8887
  20
1319.8497
  0
VERTEX
  5
dc
  8
Layer_0
  10
792.20232
  20
1319.8497
  0
VERTEX
  5
dd
  8
Layer_0
  10
789.452
  20
1319.8497
  0
VERTEX
  5
de
  8
Layer_0
  10
786.63697
  20
1319.8497
  0
VERTEX
  5
df
  8
Layer_0
  10
783.75648
  20
1319.8497
  0
VERTEX
  5
e0
  8
Layer_0
  10
780.80979
  20
1319.8497
  0
VERTEX
  5
e1
  8
Layer_0
  10
777.79614
  20
1319.8498
  0
VERTEX
  5
e2
  8
Layer_0
  10
774.71478
  20
1319.8498
  0
VERTEX
  5
e3
  8
Layer_0
  10
771.56495
  20
1319.8498
  0
VERTEX
  5
e4
  8
Layer_0
  10
768.34591
  20
1319.8499
  0
VERTEX
  5
e5
  8
Layer_0
  10
765.0569
  20
1319.8499
  0
VERTEX
  5
e6
  8
Layer_0
  10
761.69716
  20
1319.85
  0
VERTEX
  5
e7
  8
Layer_0
  10
758.26595
  20
1319.8501
  0
VERTEX
  5
e8
  8
Layer_0
  10
754.76252
  20
1319.8502
  0
VERTEX
  5
e9
  8
Layer_0
  10
751.18611
  20
1319.8502
  0
VERTEX
  5
ea
  8
Layer_0
  10
747.53597
  20
1319.8503
  0
VERTEX
  5
eb
  8
Layer_0
  10
743.81135
  20
1319.8504
  0
VERTEX
  5
ec
  8
Layer_0
  10
740.01149
  20
1319.8505
  0
VERTEX
  5
ed
  8
Layer_0
  10
736.13564
  20
1319.8507
  0
VERTEX
  5
ee
  8
Layer_0
  10
732.18306
  20
1319.8508
  0
VERTEX
  5
ef
  8
Layer_0
  10
728.15298
  20
1319.8509
  0
VERTEX
  5
f0
  8
Layer_0
  10
724.04466
  20
1319.8511
  0
VERTEX
  5
f1
  8
Layer_0
  10
719.85735
  20
1319.8512
  0
VERTEX
  5
f2
  8
Layer_0
  10
715.59028
  20
1319.8514
  0
VERTEX
  5
f3
  8
Layer_0
  10
711.24272
  20
1319.8515
  0
VERTEX
  5
f4
  8
Layer_0
  10
706.8139
  20
1319.8517
  0
VERTEX
  5
f5
  8
Layer_0
  10
702.30308
  20
1319.8519
  0
VERTEX
  5
f6
  8
Layer_0
  10
697.7095
  20
1319.8521
  0
VERTEX
  5
f7
  8
Layer_0
  10
693.03241
  20
1319.8523
  0
VERTEX
  5
f8
  8
Layer_0
  10
688.27105
  20
1319.8525
  0
VERTEX
  5
f9
  8
Layer_0
  10
683.42469
  20
1319.8528
  0
VERTEX
  5
fa
  8
Layer_0
  10
678.49255
  20
1319.853
  0
VERTEX
  5
fb
  8
Layer_0
  10
673.4739
  20
1319.8532
  0
VERTEX
  5
fc
  8
Layer_0
  10
668.36798
  20
1319.8535
  0
VERTEX
  5
fd
  8
Layer_0
  10
663.17403
  20
1319.8538
  0
VERTEX
  5
fe
  8
Layer_0
  10
657.89131
  20
1319.854
  0
VERTEX
  5
ff
  8
Layer_0
  10
652.51906
  20
1319.8543
  0
VERTEX
  5
100
  8
Layer_0
  10
647.05653
  20
1319.8546
  0
VERTEX
  5
101
  8
Layer_0
  10
641.50297
  20
1319.8549
  0
VERTEX
  5
102
  8
Layer_0
  10
635.85762
  20
1319.8553
  0
VERTEX
  5
103
  8
Layer_0
  10
630.11974
  20
1319.8556
  0
VERTEX
  5
104
  8
Layer_0
  10
624.28856
  20
1319.8559
  0
VERTEX
  5
105
  8
Layer_0
  10
618.36335
  20
1319.8563
  0
VERTEX
  5
106
  8
Layer_0
  10
612.34334
  20
1319.8567
  0
VERTEX
  5
107
  8
Layer_0
  10
606.22778
  20
1319.8571
  0
SEQEND
  0
POLYLINE
  5
109
  8
Layer_0
  62
7
  66
1
  10
0
  20
0
  30
0
  0
VERTEX
  5
109
  8
Layer_0
  10
167.55554
  20
1090.5939
  0
VERTEX
  5
10a
  8
Layer_0
  10
167.52597
  20
1090.5555
  0
VERTEX
  5
10b
  8
Layer_0
  10
167.52597
  20
1090.5555
  0
VERTEX
  5
10c
  8
Layer_0
  10
167.52597
  20
1090.5555
  0
SEQEND
  0
POLYLINE
  5
10e
  8
Layer_0
  62
7
  66
1
  10
0
  20
0
  30
0
  0
VERTEX
  5
10e
  8
Layer_0
  10
162.68665
  20
1084.1891
  0
VERTEX
  5
10f
  8
Layer_0
  10
162.65686
  20
1084.1493
  0
VERTEX
  5
110
  8
Layer_0
  10
162.65686
  20
1084.1493
  0
VERTEX
  5
111
  8
Layer_0
  10
162.65686
  20
1084.1493
  0
SEQEND
  0
POLYLINE
  5
113
  8
Layer_0
  62
7
  66
1
  10
0
  20
0
  30
0
  0
VERTEX
  5
113
  8
Layer_0
  10
157.91174
  20
1077.7143
  0
VERTEX
  5
114
  8
Layer_0
  10
157.91151
  20
1077.714
  0
VERTEX
  5
115
  8
Layer_0
  10
157.91129
  20
1077.7137
  0
SEQEND
  0
POLYLINE
  5
117
  8
Layer_0
  62
7
  66
1
  10
0
  20
0
  30
0
  0
VERTEX
  5
117
  8
Layer_0
  10
603.37097
  20
1074.8571
  0
VERTEX
  5
118
  8
Layer_0
  10
603.22784
  20
1074.8571
  0
VERTEX
  5
119
  8
Layer_0
  10
599.50581
  20
1074.8359
  0
VERTEX
  5
11a
  8
Layer_0
  10
595.79393
  20
1074.7724
  0
VERTEX
  5
11b
  8
Layer_0
  10
592.09242
  20
1074.6669
  0
VERTEX
  5
11c
  8
Layer_0
  10
588.40152
  20
1074.5197
  0
VERTEX
  5
11d
  8
Layer_0
  10
584.72146
  20
1074.3309
  0
VERTEX
  5
11e
  8
Layer_0
  10
581.05247
  20
1074.1007
  0
VERTEX
  5
11f
  8
Layer_0
  10
577.39476
  20
1073.8294
  0
VERTEX
  5
120
  8
Layer_0
  10
573.74859
  20
1073.5173
  0
VERTEX
  5
121
  8
Layer_0
  10
570.11416
  20
1073.1645
  0
VERTEX
  5
122
  8
Layer_0
  10
566.49172
  20
1072.7713
  0
VERTEX
  5
123
  8
Layer_0
  10
562.88148
  20
1072.3379
  0
VERTEX
  5
124
  8
Layer_0
  10
559.28368
  20
1071.8646
  0
VERTEX
  5
125
  8
Layer_0
  10
555.69855
  20
1071.3515
  0
VERTEX
  5
126
  8
Layer_0
  10
552.12632
  20
1070.7989
  0
VERTEX
  5
127
  8
Layer_0
  10
548.56721
  20
1070.207
  0
VERTEX
  5
128
  8
Layer_0
  10
545.02146
  20
1069.5761
  0
VERTEX
  5
129
  8
Layer_0
  10
541.48929
  20
1068.9064
  0
VERTEX
  5
12a
  8
Layer_0
  10
537.97093
  20
1068.1981
  0
VERTEX
  5
12b
  8
Layer_0
  10
534.46661
  20
1067.4515
  0
VERTEX
  5
12c
  8
Layer_0
  10
530.97656
  20
1066.6667
  0
VERTEX
  5
12d
  8
Layer_0
  10
527.50101
  20
1065.844
  0
VERTEX
  5
12e
  8
Layer_0
  10
524.04019
  20
1064.9836
  0
VERTEX
  5
12f
  8
Layer_0
  10
520.59432
  20
1064.0858
  0
VERTEX
  5
130
  8
Layer_0
  10
517.16364
  20
1063.1508
  0
VERTEX
  5
131
  8
Layer_0
  10
513.74837
  20
1062.1788
  0
VERTEX
  5
132
  8
Layer_0
  10
510.34875
  20
1061.17
  0
VERTEX
  5
133
  8
Layer_0
  10
506.96499
  20
1060.1247
  0
VERTEX
  5
134
  8
Layer_0
  10
503.59734
  20
1059.0431
  0
VERTEX
  5
135
  8
Layer_0
  10
500.24602
  20
1057.9255
  0
VERTEX
  5
136
  8
Layer_0
  10
496.91125
  20
1056.772
  0
VERTEX
  5
137
  8
Layer_0
  10
493.59327
  20
1055.5828
  0
VERTEX
  5
138
  8
Layer_0
  10
490.29231
  20
1054.3583
  0
VERTEX
  5
139
  8
Layer_0
  10
487.00859
  20
1053.0987
  0
VERTEX
  5
13a
  8
Layer_0
  10
483.74234
  20
1051.8041
  0
VERTEX
  5
13b
  8
Layer_0
  10
480.4938
  20
1050.4748
  0
VERTEX
  5
13c
  8
Layer_0
  10
477.26319
  20
1049.1111
  0
VERTEX
  5
13d
  8
Layer_0
  10
474.05073
  20
1047.7131
  0
VERTEX
  5
13e
  8
Layer_0
  10
470.85667
  20
1046.2811
  0
VERTEX
  5
13f
  8
Layer_0
  10
467.68123
  20
1044.8154
  0
VERTEX
  5
140
  8
Layer_0
  10
464.52463
  20
1043.316
  0
VERTEX
  5
141
  8
Layer_0
  10
461.3871
  20
1041.7834
  0
VERTEX
  5
142
  8
Layer_0
  10
458.26889
  20
1040.2177
  0
VERTEX
  5
143
  8
Layer_0
  10
455.1702
  20
1038.6191
  0
VERTEX
  5
144
  8
Layer_0
  10
452.09128
  20
1036.9878
  0
VERTEX
  5
145
  8
Layer_0
  10
449.03235
  20
1035.3242
  0
VERTEX
  5
146
  8
Layer_0
  10
445.99363
  20
1033.6283
  0
VERTEX
  5
147
  8
Layer_0
  10
442.97537
  20
1031.9006
  0
VERTEX
  5
148
  8
Layer_0
  10
439.97778
  20
1030.1411
  0
VERTEX
  5
149
  8
Layer_0
  10
437.0011
  20
1028.3501
  0
VERTEX
  5
14a
  8
Layer_0
  10
434.04556
  20
1026.5278
  0
VERTEX
  5
14b
  8
Layer_0
  10
431.11138
  20
1024.6745
  0
VERTEX
  5
14c
  8
Layer_0
  10
428.19879
  20
1022.7904
  0
VERTEX
  5
14d
  8
Layer_0
  10
425.30803
  20
1020.8757
  0
VERTEX
  5
14e
  8
Layer_0
  10
422.43931
  20
1018.9307
  0
VERTEX
  5
14f
  8
Layer_0
  10
419.59288
  20
1016.9556
  0
VERTEX
  5
150
  8
Layer_0
  10
416.76895
  20
1014.9505
  0
VERTEX
  5
151
  8
Layer_0
  10
413.96776
  20
1012.9159
  0
VERTEX
  5
152
  8
Layer_0
  10
411.18954
  20
1010.8517
  0
VERTEX
  5
153
  8
Layer_0
  10
408.43451
  20
1008.7584
  0
VERTEX
  5
154
  8
Layer_0
  10
405.7029
  20
1006.6361
  0
VERTEX
  5
155
  8
Layer_0
  10
402.99495
  20
1004.485
  0
VERTEX
  5
156
  8
Layer_0
  10
400.31088
  20
1002.3055
  0
VERTEX
  5
157
  8
Layer_0
  10
397.65092
  20
1000.0976
  0
VERTEX
  5
158
  8
Layer_0
  10
395.0153
  20
997.86169
  0
VERTEX
  5
159
  8
Layer_0
  10
392.40425
  20
995.59794
  0
VERTEX
  5
15a
  8
Layer_0
  10
389.81799
  20
993.30659
  0
VERTEX
  5
15b
  8
Layer_0
  10
387.25676
  20
990.98786
  0
VERTEX
  5
15c
  8
Layer_0
  10
384.72079
  20
988.642
  0
VERTEX
  5
15d
  8
Layer_0
  10
382.2103
  20
986.26921
  0
VERTEX
  5
15e
  8
Layer_0
  10
379.72552
  20
983.86974
  0
VERTEX
  5
15f
  8
Layer_0
  10
377.26668
  20
981.44381
  0
VERTEX
  5
160
  8
Layer_0
  10
374.83401
  20
978.99166
  0
VERTEX
  5
161
  8
Layer_0
  10
372.42774
  20
976.5135
  0
VERTEX
  5
162
  8
Layer_0
  10
370.0481
  20
974.00957
  0
VERTEX
  5
163
  8
Layer_0
  10
367.69532
  20
971.4801
  0
VERTEX
  5
164
  8
Layer_0
  10
365.36962
  20
968.92532
  0
VERTEX
  5
165
  8
Layer_0
  10
363.07124
  20
966.34545
  0
VERTEX
  5
166
  8
Layer_0
  10
360.8004
  20
963.74073
  0
VERTEX
  5
167
  8
Layer_0
  10
358.55733
  20
961.11138
  0
VERTEX
  5
168
  8
Layer_0
  10
356.34226
  20
958.45763
  0
VERTEX
  5
169
  8
Layer_0
  10
354.15542
  20
955.77972
  0
VERTEX
  5
16a
  8
Layer_0
  10
351.99704
  20
953.07786
  0
VERTEX
  5
16b
  8
Layer_0
  10
349.86735
  20
950.35229
  0
VERTEX
  5
16c
  8
Layer_0
  10
347.76658
  20
947.60324
  0
VERTEX
  5
16d
  8
Layer_0
  10
345.69495
  20
944.83094
  0
VERTEX
  5
16e
  8
Layer_0
  10
343.65269
  20
942.03561
  0
VERTEX
  5
16f
  8
Layer_0
  10
341.64004
  20
939.21748
  0
VERTEX
  5
170
  8
Layer_0
  10
339.65722
  20
936.37679
  0
VERTEX
  5
171
  8
Layer_0
  10
337.70446
  20
933.51376
  0
VERTEX
  5
172
  8
Layer_0
  10
335.78199
  20
930.62862
  0
VERTEX
  5
173
  8
Layer_0
  10
333.89004
  20
927.7216
  0
VERTEX
  5
174
  8
Layer_0
  10
332.02883
  20
924.79293
  0
VERTEX
  5
175
  8
Layer_0
  10
330.19861
  20
921.84283
  0
VERTEX
  5
176
  8
Layer_0
  10
328.39958
  20
918.87154
  0
VERTEX
  5
177
  8
Layer_0
  10
326.63199
  20
915.87929
  0
VERTEX
  5
178
  8
Layer_0
  10
324.89607
  20
912.8663
  0
VERTEX
  5
179
  8
Layer_0
  10
323.19203
  20
909.8328
  0
VERTEX
  5
17a
  8
Layer_0
  10
321.52012
  20
906.77903
  0
VERTEX
  5
17b
  8
Layer_0
  10
319.88055
  20
903.7052
  0
VERTEX
  5
17c
  8
Layer_0
  10
318.27356
  20
900.61156
  0
VERTEX
  5
17d
  8
Layer_0
  10
316.69938
  20
897.49832
  0
VERTEX
  5
17e
  8
Layer_0
  10
315.15824
  20
894.36572
  0
VERTEX
  5
17f
  8
Layer_0
  10
313.65036
  20
891.21398
  0
VERTEX
  5
180
  8
Layer_0
  10
312.17598
  20
888.04334
  0
VERTEX
  5
181
  8
Layer_0
  10
310.73531
  20
884.85402
  0
VERTEX
  5
182
  8
Layer_0
  10
309.3286
  20
881.64626
  0
VERTEX
  5
183
  8
Layer_0
  10
307.95607
  20
878.42028
  0
VERTEX
  5
184
  8
Layer_0
  10
306.61795
  20
875.1763
  0
VERTEX
  5
185
  8
Layer_0
  10
305.31446
  20
871.91457
  0
VERTEX
  5
186
  8
Layer_0
  10
304.04584
  20
868.6353
  0
VERTEX
  5
187
  8
Layer_0
  10
302.81232
  20
865.33873
  0
VERTEX
  5
188
  8
Layer_0
  10
301.61412
  20
862.02509
  0
VERTEX
  5
189
  8
Layer_0
  10
300.45148
  20
858.6946
  0
VERTEX
  5
18a
  8
Layer_0
  10
299.32462
  20
855.34749
  0
VERTEX
  5
18b
  8
Layer_0
  10
298.23377
  20
851.984
  0
VERTEX
  5
18c
  8
Layer_0
  10
297.17915
  20
848.60434
  0
VERTEX
  5
18d
  8
Layer_0
  10
296.16101
  20
845.20876
  0
VERTEX
  5
18e
  8
Layer_0
  10
295.17957
  20
841.79747
  0
VERTEX
  5
18f
  8
Layer_0
  10
294.23505
  20
838.37072
  0
VERTEX
  5
190
  8
Layer_0
  10
293.32769
  20
834.92872
  0
VERTEX
  5
191
  8
Layer_0
  10
292.45771
  20
831.4717
  0
VERTEX
  5
192
  8
Layer_0
  10
291.62534
  20
827.9999
  0
VERTEX
  5
193
  8
Layer_0
  10
290.83082
  20
824.51354
  0
VERTEX
  5
194
  8
Layer_0
  10
290.07436
  20
821.01285
  0
VERTEX
  5
195
  8
Layer_0
  10
289.35621
  20
817.49807
  0
VERTEX
  5
196
  8
Layer_0
  10
288.67659
  20
813.96941
  0
VERTEX
  5
197
  8
Layer_0
  10
288.03572
  20
810.42711
  0
VERTEX
  5
198
  8
Layer_0
  10
287.43384
  20
806.8714
  0
VERTEX
  5
199
  8
Layer_0
  10
286.67731
  20
798.22412
  0
VERTEX
  5
19a
  8
Layer_0
  10
244.57098
  20
0
  0
VERTEX
  5
19b
  8
Layer_0
  10
16.510193
  20
11.874634
  42
0.011295979
  0
VERTEX
  5
19c
  8
Layer_0
  10
16.51178
  20
11.943787
  42
0.41421356
  0
VERTEX
  5
19d
  8
Layer_0
  10
15.01178
  20
13.443787
  42
0.4042272
  0
VERTEX
  5
19e
  8
Layer_0
  10
13.512695
  20
11.996094
  0
VERTEX
  5
19f
  8
Layer_0
  10
0
  20
12.468018
  0
VERTEX
  5
1a0
  8
Layer_0
  10
41.865112
  20
810.96179
  0
VERTEX
  5
1a1
  8
Layer_0
  10
56.369568
  20
810.20166
  0
VERTEX
  5
1a2
  8
Layer_0
  10
56.08783
  20
810.23669
  0
VERTEX
  5
1a3
  8
Layer_0
  10
41.208496
  20
812.86407
  0
VERTEX
  5
1a4
  8
Layer_0
  10
41.859802
  20
818.85925
  0
VERTEX
  5
1a5
  8
Layer_0
  10
56.953186
  20
818.23035
  0
VERTEX
  5
1a6
  8
Layer_0
  10
57.562874
  20
818.17639
  0
SEQEND
  0
POLYLINE
  5
1a8
  8
Layer_0
  62
7
  70
1
  66
1
  10
0
  20
0
  30
0
  0
VERTEX
  5
1a8
  8
Layer_0
  10
57.562874
  20
818.17639
  0
VERTEX
  5
1a9
  8
Layer_0
  10
57.562538
  20
818.17639
  0
SEQEND
  0
POLYLINE
  5
1ab
  8
Layer_0
  62
7
  70
1
  66
1
  10
0
  20
0
  30
0
  0
VERTEX
  5
1ab
  8
Layer_0
  10
263.6109
  20
1187.4719
  0
VERTEX
  5
1ac
  8
Layer_0
  10
263.61163
  20
1187.4725
  0
VERTEX
  5
1ad
  8
Layer_0
  10
263.61011
  20
1187.4713
  42
-0.037771783
  0
SEQEND
  0
POLYLINE
  5
1af
  8
Layer_0
  62
7
  66
1
  10
0
  20
0
  30
0
  0
VERTEX
  5
1af
  8
Layer_0
  10
607.22418
  20
1304.8571
  0
VERTEX
  5
1b0
  8
Layer_0
  10
606.22778
  20
1319.8571
  0
VERTEX
  5
1b1
  8
Layer_0
  10
600.22778
  20
1319.8571
  0
VERTEX
  5
1b2
  8
Layer_0
  10
599.23016
  20
1304.8428
  0
VERTEX
  5
1b3
  8
Layer_0
  10
597.96271
  20
1319.8406
  0
VERTEX
  5
1b4
  8
Layer_0
  10
591.96338
  20
1319.7522
  0
VERTEX
  5
1b5
  8
Layer_0
  10
591.18713
  20
1304.7278
  0
VERTEX
  5
1b6
  8
Layer_0
  10
591.19
  20
1304.7279
  42
0.0015542838
  0
VERTEX
  5
1b7
  8
Layer_0
  10
591.12848
  20
1304.7266
  0
VERTEX
  5
1b8
  8
Layer_0
  10
589.69879
  20
1319.7029
  0
VERTEX
  5
1b9
  8
Layer_0
  10
583.70135
  20
1319.5264
  0
VERTEX
  5
1ba
  8
Layer_0
  10
583.1438
  20
1304.4971
  0
VERTEX
  5
1bb
  8
Layer_0
  10
583.1145
  20
1304.4961
  0
VERTEX
  5
1bc
  8
Layer_0
  10
583.08521
  20
1304.4951
  0
VERTEX
  5
1bd
  8
Layer_0
  10
581.43774
  20
1319.4447
  0
VERTEX
  5
1be
  8
Layer_0
  10
575.44354
  20
1319.1798
  0
VERTEX
  5
1bf
  8
Layer_0
  10
575.10724
  20
1304.1506
  0
VERTEX
  5
1c0
  8
Layer_0
  10
575.10748
  20
1304.1506
  42
-0.0012548164
  0
VERTEX
  5
1c1
  8
Layer_0
  10
575.04028
  20
1304.1472
  0
VERTEX
  5
1c2
  8
Layer_0
  10
575.04059
  20
1304.1472
  0
VERTEX
  5
1c3
  8
Layer_0
  10
573.1814
  20
1319.0656
  0
VERTEX
  5
1c4
  8
Layer_0
  10
567.19165
  20
1318.7119
  0
VERTEX
  5
1c5
  8
Layer_0
  10
567.02368
  20
1303.6844
  0
VERTEX
  5
1c6
  8
Layer_0
  10
567.02393
  20
1303.6844
  0
VERTEX
  5
1c7
  8
Layer_0
  10
564.93146
  20
1318.5657
  0
VERTEX
  5
1c8
  8
Layer_0
  10
558.94751
  20
1318.1272
  0
VERTEX
  5
1c9
  8
Layer_0
  10
558.99677
  20
1303.4208
  0
VERTEX
  5
1ca
  8
Layer_0
  10
556.6897
  20
1317.9451
  0
VERTEX
  5
1cb
  8
Layer_0
  10
550.71277
  20
1317.4192
  0
VERTEX
  5
1cc
  8
Layer_0
  10
551.03076
  20
1302.4125
  0
VERTEX
  5
1cd
  8
Layer_0
  10
551.03149
  20
1302.4126
  0
VERTEX
  5
1ce
  8
Layer_0
  10
548.45789
  20
1317.2041
  0
VERTEX
  5
1cf
  8
Layer_0
  10
542.48932
  20
1316.5908
  0
VERTEX
  5
1d0
  8
Layer_0
  10
543.02643
  20
1301.6001
  0
VERTEX
  5
1d1
  8
Layer_0
  10
543.02753
  20
1301.6002
  42
0.00037832903
  0
VERTEX
  5
1d2
  8
Layer_0
  10
542.97614
  20
1301.5946
  0
VERTEX
  5
1d3
  8
Layer_0
  10
540.23785
  20
1316.3428
  0
VERTEX
  5
1d4
  8
Layer_0
  10
534.27887
  20
1315.6422
  0
VERTEX
  5
1d5
  8
Layer_0
  10
535.03467
  20
1300.671
  0
VERTEX
  5
1d6
  8
Layer_0
  10
535.03607
  20
1300.6711
  42
-0.00010575047
  0
VERTEX
  5
1d7
  8
Layer_0
  10
534.98303
  20
1300.6646
  0
VERTEX
  5
1d8
  8
Layer_0
  10
532.03125
  20
1315.3613
  0
VERTEX
  5
1d9
  8
Layer_0
  10
526.08313
  20
1314.5737
  0
VERTEX
  5
1da
  8
Layer_0
  10
527.05725
  20
1299.6252
  0
VERTEX
  5
1db
  8
Layer_0
  10
527.05896
  20
1299.6255
  42
0.0019509812
  0
VERTEX
  5
1dc
  8
Layer_0
  10
527.00305
  20
1299.6177
  0
VERTEX
  5
1dd
  8
Layer_0
  10
527.0033
  20
1299.6177
  0
VERTEX
  5
1de
  8
Layer_0
  10
523.8399
  20
1314.2599
  0
VERTEX
  5
1df
  8
Layer_0
  10
517.90393
  20
1313.3853
  0
VERTEX
  5
1e0
  8
Layer_0
  10
519.09583
  20
1298.4628
  42
0.00012126196
  0
VERTEX
  5
1e1
  8
Layer_0
  10
519.0401
  20
1298.4542
  0
VERTEX
  5
1e2
  8
Layer_0
  10
519.04028
  20
1298.4542
  0
VERTEX
  5
1e3
  8
Layer_0
  10
515.66553
  20
1313.0388
  0
VERTEX
  5
1e4
  8
Layer_0
  10
509.74301
  20
1312.0774
  0
VERTEX
  5
1e5
  8
Layer_0
  10
511.15424
  20
1297.1841
  0
VERTEX
  5
1e6
  8
Layer_0
  10
511.15448
  20
1297.1841
  42
0.0015577209
  0
VERTEX
  5
1e7
  8
Layer_0
  10
511.09491
  20
1297.1741
  0
VERTEX
  5
1e8
  8
Layer_0
  10
511.09515
  20
1297.1741
  0
VERTEX
  5
1e9
  8
Layer_0
  10
507.50989
  20
1311.6982
  0
VERTEX
  5
1ea
  8
Layer_0
  10
501.60211
  20
1310.6504
  0
VERTEX
  5
1eb
  8
Layer_0
  10
503.23029
  20
1295.7887
  0
VERTEX
  5
1ec
  8
Layer_0
  10
503.23053
  20
1295.7888
  42
0.00064340178
  0
VERTEX
  5
1ed
  8
Layer_0
  10
503.17923
  20
1295.7793
  0
VERTEX
  5
1ee
  8
Layer_0
  10
499.3866
  20
1310.2385
  0
VERTEX
  5
1ef
  8
Layer_0
  10
493.48291
  20
1309.1021
  0
VERTEX
  5
1f0
  8
Layer_0
  10
495.32425
  20
1294.2764
  42
-0.0012324001
  0
VERTEX
  5
1f1
  8
Layer_0
  10
495.24921
  20
1294.2615
  0
VERTEX
  5
1f2
  8
Layer_0
  10
491.26181
  20
1308.6599
  0
VERTEX
  5
1f3
  8
Layer_0
  10
485.38718
  20
1307.4351
  0
VERTEX
  5
1f4
  8
Layer_0
  10
487.43945
  20
1292.6475
  42
0.0016529721
  0
VERTEX
  5
1f5
  8
Layer_0
  10
487.38367
  20
1292.6355
  0
VERTEX
  5
1f6
  8
Layer_0
  10
487.38388
  20
1292.6355
  0
VERTEX
  5
1f7
  8
Layer_0
  10
483.17285
  20
1306.9629
  0
VERTEX
  5
1f8
  8
Layer_0
  10
477.31671
  20
1305.6567
  0
VERTEX
  5
1f9
  8
Layer_0
  10
479.58911
  20
1290.9048
  0
VERTEX
  5
1fa
  8
Layer_0
  10
479.59259
  20
1290.9058
  42
7.796055e-05
  0
VERTEX
  5
1fb
  8
Layer_0
  10
479.52716
  20
1290.8906
  0
VERTEX
  5
1fc
  8
Layer_0
  10
479.52737
  20
1290.8906
  0
VERTEX
  5
1fd
  8
Layer_0
  10
475.10956
  20
1305.1477
  0
VERTEX
  5
1fe
  8
Layer_0
  10
469.27313
  20
1303.7561
  0
VERTEX
  5
1ff
  8
Layer_0
  10
471.76346
  20
1289.0465
  0
VERTEX
  5
200
  8
Layer_0
  10
471.76367
  20
1289.0466
  42
-0.0012189756
  0
VERTEX
  5
201
  8
Layer_0
  10
471.69714
  20
1289.0303
  0
VERTEX
  5
202
  8
Layer_0
  10
471.69739
  20
1289.0303
  0
VERTEX
  5
203
  8
Layer_0
  10
467.0737
  20
1303.2146
  0
VERTEX
  5
204
  8
Layer_0
  10
461.25827
  20
1301.7379
  0
VERTEX
  5
205
  8
Layer_0
  10
463.96259
  20
1287.0721
  0
VERTEX
  5
206
  8
Layer_0
  10
463.96283
  20
1287.0723
  42
-8.2859192e-05
  0
VERTEX
  5
207
  8
Layer_0
  10
463.89539
  20
1287.0547
  0
VERTEX
  5
208
  8
Layer_0
  10
463.89563
  20
1287.0547
  0
VERTEX
  5
209
  8
Layer_0
  10
459.06696
  20
1301.1643
  0
VERTEX
  5
20a
  8
Layer_0
  10
453.27374
  20
1299.6028
  0
VERTEX
  5
20b
  8
Layer_0
  10
456.19153
  20
1284.983
  0
VERTEX
  5
20c
  8
Layer_0
  10
456.19174
  20
1284.9832
  42
-0.0031640331
  0
VERTEX
  5
20d
  8
Layer_0
  10
456.13977
  20
1284.9688
  0
VERTEX
  5
20e
  8
Layer_0
  10
451.11102
  20
1298.9971
  0
VERTEX
  5
20f
  8
Layer_0
  10
445.32135
  20
1297.3452
  0
VERTEX
  5
210
  8
Layer_0
  10
448.45081
  20
1282.7791
  42
-9.0686028e-05
  0
VERTEX
  5
211
  8
Layer_0
  10
448.38354
  20
1282.7595
  0
VERTEX
  5
212
  8
Layer_0
  10
448.38376
  20
1282.7595
  0
VERTEX
  5
213
  8
Layer_0
  10
443.14777
  20
1296.7134
  0
VERTEX
  5
214
  8
Layer_0
  10
437.40271
  20
1294.9829
  0
VERTEX
  5
215
  8
Layer_0
  10
440.74551
  20
1280.462
  0
VERTEX
  5
216
  8
Layer_0
  10
440.74573
  20
1280.4622
  0
VERTEX
  5
217
  8
Layer_0
  10
435.26117
  20
1294.3138
  0
VERTEX
  5
218
  8
Layer_0
  10
429.51959
  20
1292.4924
  0
VERTEX
  5
219
  8
Layer_0
  10
433.06836
  20
1278.0293
  0
VERTEX
  5
21a
  8
Layer_0
  10
433.07468
  20
1278.0313
  42
7.8093047e-05
  0
VERTEX
  5
21b
  8
Layer_0
  10
432.98877
  20
1278.0034
  0
VERTEX
  5
21c
  8
Layer_0
  10
432.98901
  20
1278.0034
  0
VERTEX
  5
21d
  8
Layer_0
  10
427.34753
  20
1291.7988
  0
VERTEX
  5
21e
  8
Layer_0
  10
421.67358
  20
1289.9071
  0
VERTEX
  5
21f
  8
Layer_0
  10
425.43643
  20
1275.4863
  0
VERTEX
  5
220
  8
Layer_0
  10
425.4389
  20
1275.4872
  42
-0.00039533814
  0
VERTEX
  5
221
  8
Layer_0
  10
425.37274
  20
1275.4646
  0
VERTEX
  5
222
  8
Layer_0
  10
419.53009
  20
1289.1689
  0
VERTEX
  5
223
  8
Layer_0
  10
413.86649
  20
1287.188
  0
VERTEX
  5
224
  8
Layer_0
  10
417.83826
  20
1272.8296
  0
VERTEX
  5
225
  8
Layer_0
  10
417.84253
  20
1272.8311
  42
0.0024468647
  0
VERTEX
  5
226
  8
Layer_0
  10
417.77631
  20
1272.8074
  0
VERTEX
  5
227
  8
Layer_0
  10
411.73389
  20
1286.4246
  0
VERTEX
  5
228
  8
Layer_0
  10
406.09988
  20
1284.3611
  0
VERTEX
  5
229
  8
Layer_0
  10
410.28546
  20
1270.0631
  0
VERTEX
  5
22a
  8
Layer_0
  10
410.28571
  20
1270.0632
  42
-0.0018136967
  0
VERTEX
  5
22b
  8
Layer_0
  10
410.22644
  20
1270.041
  0
VERTEX
  5
22c
  8
Layer_0
  10
403.99139
  20
1283.5667
  0
VERTEX
  5
22d
  8
Layer_0
  10
398.37549
  20
1281.4161
  0
VERTEX
  5
22e
  8
Layer_0
  10
402.76889
  20
1267.1836
  42
0.00013983079
  0
VERTEX
  5
22f
  8
Layer_0
  10
402.71307
  20
1267.1616
  0
VERTEX
  5
230
  8
Layer_0
  10
396.27527
  20
1280.5955
  0
VERTEX
  5
231
  8
Layer_0
  10
390.69489
  20
1278.3645
  0
VERTEX
  5
232
  8
Layer_0
  10
395.29712
  20
1264.1942
  0
VERTEX
  5
233
  8
Layer_0
  10
388.62543
  20
1277.5117
  0
VERTEX
  5
234
  8
Layer_0
  10
383.05981
  20
1275.1917
  0
VERTEX
  5
235
  8
Layer_0
  10
387.8674
  20
1261.0939
  42
-0.001255998
  0
VERTEX
  5
236
  8
Layer_0
  10
387.8056
  20
1261.0676
  0
VERTEX
  5
237
  8
Layer_0
  10
387.80579
  20
1261.0676
  0
VERTEX
  5
238
  8
Layer_0
  10
380.97552
  20
1274.3163
  0
VERTEX
  5
239
  8
Layer_0
  10
375.4718
  20
1271.9268
  0
VERTEX
  5
23a
  8
Layer_0
  10
380.48996
  20
1257.8871
  0
VERTEX
  5
23b
  8
Layer_0
  10
380.49014
  20
1257.8872
  0
VERTEX
  5
23c
  8
Layer_0
  10
380.45801
  20
1257.8729
  0
VERTEX
  5
23d
  8
Layer_0
  10
380.42587
  20
1257.8586
  0
VERTEX
  5
23e
  8
Layer_0
  10
380.42606
  20
1257.8588
  0
VERTEX
  5
23f
  8
Layer_0
  10
373.4007
  20
1271.0096
  0
VERTEX
  5
240
  8
Layer_0
  10
367.93256
  20
1268.54
  0
VERTEX
  5
241
  8
Layer_0
  10
373.15369
  20
1254.569
  0
VERTEX
  5
242
  8
Layer_0
  10
373.15723
  20
1254.5707
  0
VERTEX
  5
243
  8
Layer_0
  10
373.12573
  20
1254.5562
  0
VERTEX
  5
244
  8
Layer_0
  10
373.09424
  20
1254.5416
  0
VERTEX
  5
245
  8
Layer_0
  10
373.09442
  20
1254.5416
  0
VERTEX
  5
246
  8
Layer_0
  10
365.87509
  20
1267.5925
  0
VERTEX
  5
247
  8
Layer_0
  10
360.44366
  20
1265.0431
  0
VERTEX
  5
248
  8
Layer_0
  10
365.87054
  20
1251.145
  0
VERTEX
  5
249
  8
Layer_0
  10
365.8739
  20
1251.1466
  42
-0.00014423353
  0
VERTEX
  5
24a
  8
Layer_0
  10
365.81232
  20
1251.1172
  0
VERTEX
  5
24b
  8
Layer_0
  10
365.8125
  20
1251.1172
  0
VERTEX
  5
24c
  8
Layer_0
  10
358.40027
  20
1264.0657
  0
VERTEX
  5
24d
  8
Layer_0
  10
353.00671
  20
1261.4371
  0
VERTEX
  5
24e
  8
Layer_0
  10
358.64154
  20
1247.6158
  0
VERTEX
  5
24f
  8
Layer_0
  10
358.64172
  20
1247.616
  42
0.00015262513
  0
VERTEX
  5
250
  8
Layer_0
  10
358.58167
  20
1247.5861
  0
VERTEX
  5
251
  8
Layer_0
  10
358.58182
  20
1247.5862
  0
VERTEX
  5
252
  8
Layer_0
  10
350.97784
  20
1260.4299
  0
VERTEX
  5
253
  8
Layer_0
  10
345.62332
  20
1257.7227
  0
VERTEX
  5
254
  8
Layer_0
  10
351.45923
  20
1243.978
  0
VERTEX
  5
255
  8
Layer_0
  10
351.46222
  20
1243.9795
  42
0.0013941964
  0
VERTEX
  5
256
  8
Layer_0
  10
351.40369
  20
1243.9492
  0
VERTEX
  5
257
  8
Layer_0
  10
351.40384
  20
1243.9493
  0
VERTEX
  5
258
  8
Layer_0
  10
343.60938
  20
1256.686
  0
VERTEX
  5
259
  8
Layer_0
  10
338.29501
  20
1253.9008
  0
VERTEX
  5
25a
  8
Layer_0
  10
344.33414
  20
1240.2366
  0
VERTEX
  5
25b
  8
Layer_0
  10
344.33691
  20
1240.238
  42
-8.5492003e-05
  0
VERTEX
  5
25c
  8
Layer_0
  10
344.28156
  20
1240.2085
  0
VERTEX
  5
25d
  8
Layer_0
  10
336.29648
  20
1252.8346
  0
VERTEX
  5
25e
  8
Layer_0
  10
331.02341
  20
1249.9719
  0
VERTEX
  5
25f
  8
Layer_0
  10
337.26712
  20
1236.3923
  0
VERTEX
  5
260
  8
Layer_0
  10
337.2673
  20
1236.3925
  42
0.0012690333
  0
VERTEX
  5
261
  8
Layer_0
  10
337.2121
  20
1236.3618
  0
VERTEX
  5
262
  8
Layer_0
  10
337.21228
  20
1236.3621
  0
VERTEX
  5
263
  8
Layer_0
  10
329.04071
  20
1248.8767
  0
VERTEX
  5
264
  8
Layer_0
  10
323.81009
  20
1245.9373
  0
VERTEX
  5
265
  8
Layer_0
  10
330.25476
  20
1232.4436
  0
VERTEX
  5
266
  8
Layer_0
  10
330.25494
  20
1232.4437
  42
-0.001105485
  0
VERTEX
  5
267
  8
Layer_0
  10
330.20142
  20
1232.4131
  0
VERTEX
  5
268
  8
Layer_0
  10
330.2016
  20
1232.4131
  0
VERTEX
  5
269
  8
Layer_0
  10
321.8436
  20
1244.8131
  0
VERTEX
  5
26a
  8
Layer_0
  10
316.65652
  20
1241.7974
  0
VERTEX
  5
26b
  8
Layer_0
  10
323.2991
  20
1228.3915
  0
VERTEX
  5
26c
  8
Layer_0
  10
323.30118
  20
1228.3927
  42
-0.00015126967
  0
VERTEX
  5
26d
  8
Layer_0
  10
323.25064
  20
1228.3628
  0
VERTEX
  5
26e
  8
Layer_0
  10
314.7067
  20
1240.6445
  0
VERTEX
  5
26f
  8
Layer_0
  10
309.5643
  20
1237.5533
  0
VERTEX
  5
270
  8
Layer_0
  10
316.40579
  20
1224.2393
  0
VERTEX
  5
271
  8
Layer_0
  10
316.40762
  20
1224.2404
  0
VERTEX
  5
272
  8
Layer_0
  10
307.67114
  20
1236.3721
  0
VERTEX
  5
273
  8
Layer_0
  10
302.53491
  20
1233.1814
  0
VERTEX
  5
274
  8
Layer_0
  10
309.56421
  20
1219.9805
  0
VERTEX
  5
275
  8
Layer_0
  10
300.61963
  20
1231.9968
  0
VERTEX
  5
276
  8
Layer_0
  10
295.56985
  20
1228.7563
  0
VERTEX
  5
277
  8
Layer_0
  10
302.80527
  20
1215.6348
  0
VERTEX
  5
278
  8
Layer_0
  10
302.80664
  20
1215.6356
  42
-2.8148082e-05
  0
VERTEX
  5
279
  8
Layer_0
  10
302.76086
  20
1215.6057
  0
VERTEX
  5
27a
  8
Layer_0
  10
293.67245
  20
1227.519
  0
VERTEX
  5
27b
  8
Layer_0
  10
288.67065
  20
1224.2052
  0
VERTEX
  5
27c
  8
Layer_0
  10
296.10187
  20
1211.1851
  0
VERTEX
  5
27d
  8
Layer_0
  10
296.10208
  20
1211.1852
  42
-0.00023979957
  0
VERTEX
  5
27e
  8
Layer_0
  10
296.05792
  20
1211.1554
  0
VERTEX
  5
27f
  8
Layer_0
  10
286.79156
  20
1222.9404
  0
VERTEX
  5
280
  8
Layer_0
  10
281.83875
  20
1219.5538
  0
VERTEX
  5
281
  8
Layer_0
  10
289.46313
  20
1206.6372
  0
VERTEX
  5
282
  8
Layer_0
  10
289.46332
  20
1206.6375
  42
-0.0011886521
  0
VERTEX
  5
283
  8
Layer_0
  10
289.42059
  20
1206.6077
  0
VERTEX
  5
284
  8
Layer_0
  10
279.97836
  20
1218.2616
  0
VERTEX
  5
285
  8
Layer_0
  10
275.07559
  20
1214.8029
  0
VERTEX
  5
286
  8
Layer_0
  10
282.89154
  20
1201.9932
  0
VERTEX
  5
287
  8
Layer_0
  10
282.89172
  20
1201.9933
  0
VERTEX
  5
288
  8
Layer_0
  10
273.27856
  20
1213.4835
  0
VERTEX
  5
289
  8
Layer_0
  10
268.4082
  20
1209.9398
  0
VERTEX
  5
28a
  8
Layer_0
  10
276.17682
  20
1197.4987
  0
VERTEX
  5
28b
  8
Layer_0
  10
266.57941
  20
1208.5886
  0
VERTEX
  5
28c
  8
Layer_0
  10
261.76144
  20
1204.974
  0
VERTEX
  5
28d
  8
Layer_0
  10
269.94095
  20
1192.4092
  0
VERTEX
  5
28e
  8
Layer_0
  10
259.95953
  20
1203.6342
  0
VERTEX
  5
28f
  8
Layer_0
  10
255.21326
  20
1199.9636
  0
VERTEX
  5
290
  8
Layer_0
  10
263.55612
  20
1187.4641
  0
VERTEX
  5
291
  8
Layer_0
  10
263.556
  20
1187.464
  0
VERTEX
  5
292
  8
Layer_0
  10
253.44963
  20
1198.5437
  0
VERTEX
  5
293
  8
Layer_0
  10
248.75752
  20
1194.8041
  0
VERTEX
  5
294
  8
Layer_0
  10
257.32208
  20
1182.4535
  0
VERTEX
  5
295
  8
Layer_0
  10
257.32227
  20
1182.4537
  0
VERTEX
  5
296
  8
Layer_0
  10
247.03923
  20
1193.3795
  0
VERTEX
  5
297
  8
Layer_0
  10
242.3597
  20
1189.5366
  0
VERTEX
  5
298
  8
Layer_0
  10
251.07057
  20
1177.3595
  0
VERTEX
  5
299
  8
Layer_0
  10
240.63234
  20
1188.1213
  0
VERTEX
  5
29a
  8
Layer_0
  10
236.03905
  20
1184.2355
  0
VERTEX
  5
29b
  8
Layer_0
  10
244.96156
  20
1172.1404
  0
VERTEX
  5
29c
  8
Layer_0
  10
244.96266
  20
1172.1414
  0
VERTEX
  5
29d
  8
Layer_0
  10
234.3409
  20
1182.7706
  0
VERTEX
  5
29e
  8
Layer_0
  10
229.79701
  20
1178.811
  0
VERTEX
  5
29f
  8
Layer_0
  10
238.8849
  20
1166.8408
  0
VERTEX
  5
2a0
  8
Layer_0
  10
238.88509
  20
1166.8409
  0
VERTEX
  5
2a1
  8
Layer_0
  10
238.87486
  20
1166.8541
  0
VERTEX
  5
2a2
  8
Layer_0
  10
228.13747
  20
1177.3282
  0
VERTEX
  5
2a3
  8
Layer_0
  10
223.63481
  20
1173.2871
  0
VERTEX
  5
2a4
  8
Layer_0
  10
232.89525
  20
1161.4617
  0
VERTEX
  5
2a5
  8
Layer_0
  10
232.89543
  20
1161.4618
  0
VERTEX
  5
2a6
  8
Layer_0
  10
221.98866
  20
1171.7955
  0
VERTEX
  5
2a7
  8
Layer_0
  10
217.55391
  20
1167.6967
  0
VERTEX
  5
2a8
  8
Layer_0
  10
226.99886
  20
1156.0093
  0
VERTEX
  5
2a9
  8
Layer_0
  10
226.99901
  20
1156.0094
  0
VERTEX
  5
2aa
  8
Layer_0
  10
215.91554
  20
1166.1735
  0
VERTEX
  5
2ab
  8
Layer_0
  10
211.5555
  20
1162.0238
  0
VERTEX
  5
2ac
  8
Layer_0
  10
221.17509
  20
1150.4651
  0
VERTEX
  5
2ad
  8
Layer_0
  10
209.93947
  20
1160.4634
  0
VERTEX
  5
2ae
  8
Layer_0
  10
205.64101
  20
1156.2509
  0
VERTEX
  5
2af
  8
Layer_0
  10
215.39758
  20
1144.8688
  0
SEQEND
  0
POLYLINE
  5
2b1
  8
Layer_0
  62
7
  66
1
  10
0
  20
0
  30
0
  0
VERTEX
  5
2b1
  8
Layer_0
  10
187.92398
  20
1115.457
  0
VERTEX
  5
2b2
  8
Layer_0
  10
187.93793
  20
1115.473
  42
-0.00055824252
  0
VERTEX
  5
2b3
  8
Layer_0
  10
187.92398
  20
1115.4569
  0
SEQEND
  0
POLYLINE
  5
2b5
  8
Layer_0
  62
7
  66
1
  10
0
  20
0
  30
0
  0
VERTEX
  5
2b5
  8
Layer_0
  10
193.26099
  20
1121.5088
  0
VERTEX
  5
2b6
  8
Layer_0
  10
193.26035
  20
1121.5081
  0
VERTEX
  5
2b7
  8
Layer_0
  10
193.2597
  20
1121.5074
  0
SEQEND
  0
POLYLINE
  5
2b9
  8
Layer_0
  62
7
  66
1
  10
0
  20
0
  30
0
  0
VERTEX
  5
2b9
  8
Layer_0
  10
198.67044
  20
1127.4654
  0
VERTEX
  5
2ba
  8
Layer_0
  10
198.67035
  20
1127.4653
  0
VERTEX
  5
2bb
  8
Layer_0
  10
198.67026
  20
1127.4652
  0
SEQEND
  0
POLYLINE
  5
2bd
  8
Layer_0
  62
7
  66
1
  10
0
  20
0
  30
0
  0
VERTEX
  5
2bd
  8
Layer_0
  10
204.16525
  20
1133.3421
  0
VERTEX
  5
2be
  8
Layer_0
  10
204.16512
  20
1133.342
  0
VERTEX
  5
2bf
  8
Layer_0
  10
204.16498
  20
1133.3418
  0
SEQEND
  0
POLYLINE
  5
2c1
  8
Layer_0
  62
7
  66
1
  10
0
  20
0
  30
0
  0
VERTEX
  5
2c1
  8
Layer_0
  10
215.39758
  20
1144.8688
  0
VERTEX
  5
2c2
  8
Layer_0
  10
204.0336
  20
1154.6893
  0
VERTEX
  5
2c3
  8
Layer_0
  10
199.79428
  20
1150.4114
  0
VERTEX
  5
2c4
  8
Layer_0
  10
209.6236
  20
1139.246
  0
SEQEND
  0
POLYLINE
  5
2c6
  8
Layer_0
  62
7
  66
1
  10
0
  20
0
  30
0
  0
VERTEX
  5
2c6
  8
Layer_0
  10
182.70712
  20
1109.3652
  42
-0.035489152
  0
VERTEX
  5
2c7
  8
Layer_0
  10
182.70682
  20
1109.3649
  0
SEQEND
  0
POLYLINE
  5
2c9
  8
Layer_0
  62
7
  66
1
  10
0
  20
0
  30
0
  0
VERTEX
  5
2c9
  8
Layer_0
  10
177.47748
  20
1103.1876
  0
VERTEX
  5
2ca
  8
Layer_0
  10
166.67261
  20
1113.5271
  0
VERTEX
  5
2cb
  8
Layer_0
  10
170.5174
  20
1118.1563
  0
VERTEX
  5
2cc
  8
Layer_0
  10
182.70697
  20
1109.365
  0
VERTEX
  5
2cd
  8
Layer_0
  10
171.96606
  20
1119.8702
  0
VERTEX
  5
2ce
  8
Layer_0
  10
175.88211
  20
1124.4473
  0
VERTEX
  5
2cf
  8
Layer_0
  10
187.9379
  20
1115.4731
  0
VERTEX
  5
2d0
  8
Layer_0
  10
187.93668
  20
1115.4717
  0
VERTEX
  5
2d1
  8
Layer_0
  10
177.35181
  20
1126.1292
  0
VERTEX
  5
2d2
  8
Layer_0
  10
181.34372
  20
1130.6591
  0
VERTEX
  5
2d3
  8
Layer_0
  10
193.2608
  20
1121.5087
  0
VERTEX
  5
2d4
  8
Layer_0
  10
193.25977
  20
1121.5073
  0
VERTEX
  5
2d5
  8
Layer_0
  10
182.82867
  20
1132.3224
  0
VERTEX
  5
2d6
  8
Layer_0
  10
186.88379
  20
1136.7905
  0
VERTEX
  5
2d7
  8
Layer_0
  10
198.65567
  20
1127.4766
  0
VERTEX
  5
2d8
  8
Layer_0
  10
198.67026
  20
1127.4653
  0
VERTEX
  5
2d9
  8
Layer_0
  10
198.65567
  20
1127.4766
  0
VERTEX
  5
2da
  8
Layer_0
  10
188.39554
  20
1138.4326
  0
VERTEX
  5
2db
  8
Layer_0
  10
192.51495
  20
1142.8403
  0
VERTEX
  5
2dc
  8
Layer_0
  10
204.16498
  20
1133.3418
  0
VERTEX
  5
2dd
  8
Layer_0
  10
204.16513
  20
1133.342
  0
VERTEX
  5
2de
  8
Layer_0
  10
194.05115
  20
1144.4636
  0
VERTEX
  5
2df
  8
Layer_0
  10
198.23102
  20
1148.8069
  0
VERTEX
  5
2e0
  8
Layer_0
  10
209.6236
  20
1139.246
  0
SEQEND
  0
POLYLINE
  5
2e2
  8
Layer_0
  62
7
  66
1
  10
0
  20
0
  30
0
  0
VERTEX
  5
2e2
  8
Layer_0
  10
56.883255
  20
818.2348
  0
VERTEX
  5
2e3
  8
Layer_0
  10
42.118607
  20
821.06396
  0
VERTEX
  5
2e4
  8
Layer_0
  10
42.853287
  20
827.0188
  0
VERTEX
  5
2e5
  8
Layer_0
  10
57.857315
  20
826.17529
  0
VERTEX
  5
2e6
  8
Layer_0
  10
43.140884
  20
829.21777
  0
VERTEX
  5
2e7
  8
Layer_0
  10
43.962051
  20
835.16132
  0
VERTEX
  5
2e8
  8
Layer_0
  10
58.943924
  20
834.1015
  0
VERTEX
  5
2e9
  8
Layer_0
  10
44.281509
  20
837.35583
  0
VERTEX
  5
2ea
  8
Layer_0
  10
45.189102
  20
843.2868
  0
VERTEX
  5
2eb
  8
Layer_0
  10
60.100723
  20
842.01044
  0
VERTEX
  5
2ec
  8
Layer_0
  10
60.100662
  20
842.01019
  42
-0.00028487288
  0
VERTEX
  5
2ed
  8
Layer_0
  10
60.109756
  20
842.06726
  0
VERTEX
  5
2ee
  8
Layer_0
  10
45.548172
  20
845.52325
  0
VERTEX
  5
2ef
  8
Layer_0
  10
46.542374
  20
851.44031
  0
VERTEX
  5
2f0
  8
Layer_0
  10
61.424271
  20
849.94836
  42
-0.00098175592
  0
VERTEX
  5
2f1
  8
Layer_0
  10
61.434586
  20
850.00769
  0
VERTEX
  5
2f2
  8
Layer_0
  10
61.434586
  20
850.00745
  0
VERTEX
  5
2f3
  8
Layer_0
  10
46.934036
  20
853.67139
  0
VERTEX
  5
2f4
  8
Layer_0
  10
48.014725
  20
859.5733
  0
VERTEX
  5
2f5
  8
Layer_0
  10
62.864029
  20
857.86481
  0
VERTEX
  5
2f6
  8
Layer_0
  10
62.863541
  20
857.8623
  0
VERTEX
  5
2f7
  8
Layer_0
  10
62.869492
  20
857.89389
  0
VERTEX
  5
2f8
  8
Layer_0
  10
62.875443
  20
857.92548
  0
VERTEX
  5
2f9
  8
Layer_0
  10
62.874832
  20
857.92212
  0
VERTEX
  5
2fa
  8
Layer_0
  10
48.438919
  20
861.79822
  0
VERTEX
  5
2fb
  8
Layer_0
  10
49.605789
  20
867.68365
  0
VERTEX
  5
2fc
  8
Layer_0
  10
64.419327
  20
865.75671
  0
VERTEX
  5
2fd
  8
Layer_0
  10
64.419327
  20
865.75647
  42
0.00013906056
  0
VERTEX
  5
2fe
  8
Layer_0
  10
64.43251
  20
865.82098
  0
VERTEX
  5
2ff
  8
Layer_0
  10
64.43251
  20
865.82074
  0
VERTEX
  5
300
  8
Layer_0
  10
50.062637
  20
869.90228
  0
VERTEX
  5
301
  8
Layer_0
  10
51.315506
  20
875.77002
  0
VERTEX
  5
302
  8
Layer_0
  10
66.091812
  20
873.63037
  42
7.113821e-05
  0
VERTEX
  5
303
  8
Layer_0
  10
66.105667
  20
873.69318
  0
VERTEX
  5
304
  8
Layer_0
  10
66.105606
  20
873.69293
  0
VERTEX
  5
305
  8
Layer_0
  10
51.804642
  20
877.98163
  0
VERTEX
  5
306
  8
Layer_0
  10
53.143204
  20
883.83044
  0
VERTEX
  5
307
  8
Layer_0
  10
67.879471
  20
881.47601
  42
0.00083749202
  0
VERTEX
  5
308
  8
Layer_0
  10
67.894547
  20
881.54004
  0
VERTEX
  5
309
  8
Layer_0
  10
67.894485
  20
881.53979
  0
VERTEX
  5
30a
  8
Layer_0
  10
53.664688
  20
886.03485
  0
VERTEX
  5
30b
  8
Layer_0
  10
55.088638
  20
891.8634
  0
VERTEX
  5
30c
  8
Layer_0
  10
69.782547
  20
889.2948
  42
0.00067156482
  0
VERTEX
  5
30d
  8
Layer_0
  10
69.798843
  20
889.35956
  0
VERTEX
  5
30e
  8
Layer_0
  10
69.798782
  20
889.35931
  0
VERTEX
  5
30f
  8
Layer_0
  10
55.642288
  20
894.05975
  0
VERTEX
  5
310
  8
Layer_0
  10
57.151382
  20
899.86688
  0
VERTEX
  5
311
  8
Layer_0
  10
71.800613
  20
897.08459
  42
-0.00065193183
  0
VERTEX
  5
312
  8
Layer_0
  10
71.81813
  20
897.15015
  0
VERTEX
  5
313
  8
Layer_0
  10
71.818069
  20
897.15002
  0
VERTEX
  5
314
  8
Layer_0
  10
57.737076
  20
902.05493
  0
VERTEX
  5
315
  8
Layer_0
  10
59.330948
  20
907.83936
  0
VERTEX
  5
316
  8
Layer_0
  10
73.933365
  20
904.84406
  42
0.00072856949
  0
VERTEX
  5
317
  8
Layer_0
  10
73.952042
  20
904.9101
  0
VERTEX
  5
318
  8
Layer_0
  10
73.952042
  20
904.90991
  0
VERTEX
  5
319
  8
Layer_0
  10
59.948563
  20
910.01855
  0
VERTEX
  5
31a
  8
Layer_0
  10
61.626907
  20
915.77905
  0
VERTEX
  5
31b
  8
Layer_0
  10
76.180313
  20
912.57129
  42
-0.00063222228
  0
VERTEX
  5
31c
  8
Layer_0
  10
76.200211
  20
912.63782
  0
VERTEX
  5
31d
  8
Layer_0
  10
76.19899
  20
912.63367
  0
VERTEX
  5
31e
  8
Layer_0
  10
62.276443
  20
917.94922
  0
VERTEX
  5
31f
  8
Layer_0
  10
64.038834
  20
923.68451
  0
VERTEX
  5
320
  8
Layer_0
  10
78.541092
  20
920.26477
  42
-0.00062497303
  0
VERTEX
  5
321
  8
Layer_0
  10
78.562088
  20
920.33142
  0
VERTEX
  5
322
  8
Layer_0
  10
78.560806
  20
920.32721
  0
VERTEX
  5
323
  8
Layer_0
  10
64.719925
  20
925.84473
  0
VERTEX
  5
324
  8
Layer_0
  10
66.566055
  20
931.55371
  0
VERTEX
  5
325
  8
Layer_0
  10
81.015091
  20
927.92261
  42
-3.4094772e-06
  0
VERTEX
  5
326
  8
Layer_0
  10
81.037186
  20
927.98932
  0
VERTEX
  5
327
  8
Layer_0
  10
81.037125
  20
927.98914
  0
VERTEX
  5
328
  8
Layer_0
  10
67.278702
  20
933.70386
  0
VERTEX
  5
329
  8
Layer_0
  10
69.208084
  20
939.38513
  0
VERTEX
  5
32a
  8
Layer_0
  10
83.601761
  20
935.54327
  0
VERTEX
  5
32b
  8
Layer_0
  10
83.613297
  20
935.57648
  0
VERTEX
  5
32c
  8
Layer_0
  10
83.624832
  20
935.60968
  0
VERTEX
  5
32d
  8
Layer_0
  10
83.623367
  20
935.60541
  0
VERTEX
  5
32e
  8
Layer_0
  10
69.952103
  20
941.52454
  0
VERTEX
  5
32f
  8
Layer_0
  10
71.964432
  20
947.177
  0
VERTEX
  5
330
  8
Layer_0
  10
86.300552
  20
943.125
  42
-0.001226483
  0
VERTEX
  5
331
  8
Layer_0
  10
86.3246
  20
943.19104
  0
VERTEX
  5
332
  8
Layer_0
  10
86.324539
  20
943.19086
  0
VERTEX
  5
333
  8
Layer_0
  10
72.7397
  20
949.30542
  0
VERTEX
  5
334
  8
Layer_0
  10
74.834488
  20
954.92786
  0
VERTEX
  5
335
  8
Layer_0
  10
89.110855
  20
950.6662
  42
0.00084335733
  0
VERTEX
  5
336
  8
Layer_0
  10
89.135818
  20
950.73169
  0
VERTEX
  5
337
  8
Layer_0
  10
89.135757
  20
950.73151
  0
VERTEX
  5
338
  8
Layer_0
  10
75.640884
  20
957.04449
  0
VERTEX
  5
339
  8
Layer_0
  10
77.817642
  20
962.63574
  0
VERTEX
  5
33a
  8
Layer_0
  10
92.031967
  20
958.16516
  42
-0.00024940369
  0
VERTEX
  5
33b
  8
Layer_0
  10
92.057755
  20
958.22992
  0
VERTEX
  5
33c
  8
Layer_0
  10
92.056107
  20
958.22583
  0
VERTEX
  5
33d
  8
Layer_0
  10
78.6548
  20
964.74042
  0
VERTEX
  5
33e
  8
Layer_0
  10
80.913101
  20
970.29919
  0
VERTEX
  5
33f
  8
Layer_0
  10
95.063248
  20
965.6203
  42
-0.00025442695
  0
VERTEX
  5
340
  8
Layer_0
  10
95.089798
  20
965.6842
  0
VERTEX
  5
341
  8
Layer_0
  10
95.089737
  20
965.68408
  0
VERTEX
  5
342
  8
Layer_0
  10
81.781021
  20
972.39148
  0
VERTEX
  5
343
  8
Layer_0
  10
84.120438
  20
977.91663
  0
VERTEX
  5
344
  8
Layer_0
  10
98.204056
  20
973.03003
  42
-0.00087829201
  0
VERTEX
  5
345
  8
Layer_0
  10
98.231277
  20
973.09296
  0
VERTEX
  5
346
  8
Layer_0
  10
98.229599
  20
973.08911
  0
VERTEX
  5
347
  8
Layer_0
  10
85.018875
  20
979.99597
  0
VERTEX
  5
348
  8
Layer_0
  10
87.438858
  20
985.48627
  0
VERTEX
  5
349
  8
Layer_0
  10
101.45186
  20
980.38904
  0
VERTEX
  5
34a
  8
Layer_0
  10
101.4518
  20
980.38885
  42
-0.00047842404
  0
VERTEX
  5
34b
  8
Layer_0
  10
101.48134
  20
980.45447
  0
VERTEX
  5
34c
  8
Layer_0
  10
101.47969
  20
980.45081
  0
VERTEX
  5
34d
  8
Layer_0
  10
88.367569
  20
987.55225
  0
VERTEX
  5
34e
  8
Layer_0
  10
90.86763
  20
993.00659
  0
VERTEX
  5
34f
  8
Layer_0
  10
104.81096
  20
987.70679
  42
-1.9710537e-05
  0
VERTEX
  5
350
  8
Layer_0
  10
104.83931
  20
987.76733
  0
VERTEX
  5
351
  8
Layer_0
  10
104.83925
  20
987.76721
  0
VERTEX
  5
352
  8
Layer_0
  10
91.826492
  20
995.05872
  0
VERTEX
  5
353
  8
Layer_0
  10
94.406052
  20
1000.4759
  0
VERTEX
  5
354
  8
Layer_0
  10
108.27559
  20
994.9707
  42
0.0003542661
  0
VERTEX
  5
355
  8
Layer_0
  10
108.30434
  20
995.02991
  0
VERTEX
  5
356
  8
Layer_0
  10
108.30428
  20
995.02966
  0
VERTEX
  5
357
  8
Layer_0
  10
95.394791
  20
1002.5138
  0
VERTEX
  5
358
  8
Layer_0
  10
98.053299
  20
1007.8927
  0
VERTEX
  5
359
  8
Layer_0
  10
111.84651
  20
1002.1828
  42
0.0010888007
  0
VERTEX
  5
35a
  8
Layer_0
  10
111.8741
  20
1002.2375
  0
VERTEX
  5
35b
  8
Layer_0
  10
99.071793
  20
1009.9159
  0
VERTEX
  5
35c
  8
Layer_0
  10
101.8087
  20
1015.2554
  0
VERTEX
  5
35d
  8
Layer_0
  10
115.52294
  20
1009.3417
  42
0.00055159283
  0
VERTEX
  5
35e
  8
Layer_0
  10
115.55242
  20
1009.398
  0
VERTEX
  5
35f
  8
Layer_0
  10
115.55089
  20
1009.3951
  0
VERTEX
  5
360
  8
Layer_0
  10
102.85668
  20
1017.2634
  0
VERTEX
  5
361
  8
Layer_0
  10
105.6714
  20
1022.5622
  0
VERTEX
  5
362
  8
Layer_0
  10
119.30403
  20
1016.4458
  42
-8.0930228e-05
  0
VERTEX
  5
363
  8
Layer_0
  10
119.3337
  20
1016.5005
  0
VERTEX
  5
364
  8
Layer_0
  10
119.33356
  20
1016.5003
  0
VERTEX
  5
365
  8
Layer_0
  10
106.74861
  20
1024.5548
  0
VERTEX
  5
366
  8
Layer_0
  10
109.64055
  20
1029.8119
  0
VERTEX
  5
367
  8
Layer_0
  10
123.18883
  20
1023.4935
  42
-0.00090126937
  0
VERTEX
  5
368
  8
Layer_0
  10
123.21868
  20
1023.5467
  0
VERTEX
  5
369
  8
Layer_0
  10
110.74681
  20
1031.7885
  0
VERTEX
  5
36a
  8
Layer_0
  10
113.71535
  20
1037.0027
  0
VERTEX
  5
36b
  8
Layer_0
  10
127.17647
  20
1030.4836
  42
0.00062505469
  0
VERTEX
  5
36c
  8
Layer_0
  10
127.20641
  20
1030.5353
  0
VERTEX
  5
36d
  8
Layer_0
  10
127.20513
  20
1030.5331
  0
VERTEX
  5
36e
  8
Layer_0
  10
114.85042
  20
1038.9629
  0
VERTEX
  5
36f
  8
Layer_0
  10
117.89487
  20
1044.1332
  0
VERTEX
  5
370
  8
Layer_0
  10
131.26604
  20
1037.4144
  42
0.00047117628
  0
VERTEX
  5
371
  8
Layer_0
  10
131.29601
  20
1037.4645
  0
VERTEX
  5
372
  8
Layer_0
  10
131.29482
  20
1037.4624
  0
VERTEX
  5
373
  8
Layer_0
  10
119.05849
  20
1046.0765
  0
VERTEX
  5
374
  8
Layer_0
  10
122.1783
  20
1051.2018
  0
VERTEX
  5
375
  8
Layer_0
  10
135.45653
  20
1044.2845
  42
0.0003220443
  0
VERTEX
  5
376
  8
Layer_0
  10
135.48643
  20
1044.3329
  0
VERTEX
  5
377
  8
Layer_0
  10
135.48537
  20
1044.3311
  0
VERTEX
  5
378
  8
Layer_0
  10
123.37012
  20
1053.1278
  0
VERTEX
  5
379
  8
Layer_0
  10
126.56456
  20
1058.2068
  0
VERTEX
  5
37a
  8
Layer_0
  10
139.74693
  20
1051.0925
  42
-0.00034826368
  0
VERTEX
  5
37b
  8
Layer_0
  10
139.77684
  20
1051.1392
  0
VERTEX
  5
37c
  8
Layer_0
  10
139.77675
  20
1051.139
  0
VERTEX
  5
37d
  8
Layer_0
  10
127.78453
  20
1060.1152
  0
VERTEX
  5
37e
  8
Layer_0
  10
131.0529
  20
1065.147
  0
VERTEX
  5
37f
  8
Layer_0
  10
144.13637
  20
1057.837
  42
-0.00012137184
  0
VERTEX
  5
380
  8
Layer_0
  10
144.16621
  20
1057.8821
  0
VERTEX
  5
381
  8
Layer_0
  10
144.16536
  20
1057.8807
  0
VERTEX
  5
382
  8
Layer_0
  10
132.30064
  20
1067.0375
  0
VERTEX
  5
383
  8
Layer_0
  10
135.64229
  20
1072.0208
  0
VERTEX
  5
384
  8
Layer_0
  10
148.62379
  20
1064.5165
  42
-0.00035786652
  0
VERTEX
  5
385
  8
Layer_0
  10
148.65358
  20
1064.5601
  0
VERTEX
  5
386
  8
Layer_0
  10
148.65282
  20
1064.559
  0
VERTEX
  5
387
  8
Layer_0
  10
136.91756
  20
1073.8927
  0
VERTEX
  5
388
  8
Layer_0
  10
140.33171
  20
1078.8267
  0
VERTEX
  5
389
  8
Layer_0
  10
153.20821
  20
1071.1296
  42
-0.0014560263
  0
VERTEX
  5
38a
  8
Layer_0
  10
153.23784
  20
1071.1718
  0
VERTEX
  5
38b
  8
Layer_0
  10
153.23723
  20
1071.1709
  0
VERTEX
  5
38c
  8
Layer_0
  10
141.63417
  20
1080.6798
  0
VERTEX
  5
38d
  8
Layer_0
  10
145.12016
  20
1085.5634
  0
VERTEX
  5
38e
  8
Layer_0
  10
157.91805
  20
1077.7158
  0
VERTEX
  5
38f
  8
Layer_0
  10
157.91792
  20
1077.7157
  0
VERTEX
  5
390
  8
Layer_0
  10
146.44966
  20
1087.3972
  0
VERTEX
  5
391
  8
Layer_0
  10
150.0067
  20
1092.2291
  0
VERTEX
  5
392
  8
Layer_0
  10
162.69313
  20
1084.1909
  0
VERTEX
  5
393
  8
Layer_0
  10
162.69289
  20
1084.1906
  0
VERTEX
  5
394
  8
Layer_0
  10
151.36287
  20
1094.0435
  0
VERTEX
  5
395
  8
Layer_0
  10
154.99022
  20
1098.8229
  0
VERTEX
  5
396
  8
Layer_0
  10
167.56203
  20
1090.5957
  0
VERTEX
  5
397
  8
Layer_0
  10
167.5619
  20
1090.5956
  0
VERTEX
  5
398
  8
Layer_0
  10
156.37276
  20
1100.6171
  0
VERTEX
  5
399
  8
Layer_0
  10
160.06963
  20
1105.3429
  0
VERTEX
  5
39a
  8
Layer_0
  10
172.5237
  20
1096.9288
  0
VERTEX
  5
39b
  8
Layer_0
  10
161.47826
  20
1107.1167
  0
VERTEX
  5
39c
  8
Layer_0
  10
165.24385
  20
1111.788
  0
VERTEX
  5
39d
  8
Layer_0
  10
177.47617
  20
1103.1852
  0
SEQEND
  0
POLYLINE
  5
39f
  8
Layer_0
  62
7
  70
1
  66
1
  10
0
  20
0
  30
0
  0
VERTEX
  5
39f
  8
Layer_0
  10
177.47746
  20
1103.1876
  0
VERTEX
  5
3a0
  8
Layer_0
  10
177.47614
  20
1103.1852
  0
SEQEND
  0
ENDSEC
  0
EOF
