  0
SECTION
  2
HEADER
  9
$ACADVER
  1
AC1009
  0
ENDSEC
  0
SECTION
  2
TABLES
  0
TABLE
  2
LAYER
  70
1
  0
LAYER
  2
Layer_0
  70
0
  62
7
  6
CONTINUOUS
  0
ENDTAB
  0
ENDSEC
  0
SECTION
  2
ENTITIES
  0
POLYLINE
  5
90
  8
Layer_0
  62
7
  66
1
  10
0
  20
0
  30
0
  0
VERTEX
  5
90
  8
Layer_0
  10
47.798157
  20
826.73834
  0
VERTEX
  5
91
  8
Layer_0
  10
47.798157
  20
826.7382
  0
VERTEX
  5
92
  8
Layer_0
  10
47.798157
  20
826.73807
  0
SEQEND
  0
POLYLINE
  5
94
  8
Layer_0
  62
7
  70
1
  66
1
  10
0
  20
0
  30
0
  0
VERTEX
  5
94
  8
Layer_0
  10
495.32401
  20
1294.2764
  0
VERTEX
  5
95
  8
Layer_0
  10
495.32425
  20
1294.2764
  0
SEQEND
  0
POLYLINE
  5
97
  8
Layer_0
  62
7
  66
1
  10
0
  20
0
  30
0
  0
VERTEX
  5
97
  8
Layer_0
  10
603.22784
  20
1074.8571
  0
VERTEX
  5
98
  8
Layer_0
  10
869.22778
  20
1074.8571
  0
VERTEX
  5
99
  8
Layer_0
  10
869.22778
  20
1303.3571
  42
-0.41421356
  0
VERTEX
  5
9a
  8
Layer_0
  10
867.72778
  20
1304.8571
  42
-0.41421356
  0
VERTEX
  5
9b
  8
Layer_0
  10
869.22778
  20
1306.3571
  0
VERTEX
  5
9c
  8
Layer_0
  10
869.22778
  20
1319.8571
  0
VERTEX
  5
9d
  8
Layer_0
  10
869.2197
  20
1319.857
  0
VERTEX
  5
9e
  8
Layer_0
  10
869.16335
  20
1319.8569
  0
VERTEX
  5
9f
  8
Layer_0
  10
869.10203
  20
1319.8568
  0
VERTEX
  5
a0
  8
Layer_0
  10
869.01058
  20
1319.8567
  0
VERTEX
  5
a1
  8
Layer_0
  10
868.883
  20
1319.8565
  0
VERTEX
  5
a2
  8
Layer_0
  10
868.71327
  20
1319.8564
  0
VERTEX
  5
a3
  8
Layer_0
  10
868.49535
  20
1319.8562
  0
VERTEX
  5
a4
  8
Layer_0
  10
868.22324
  20
1319.856
  0
VERTEX
  5
a5
  8
Layer_0
  10
867.89092
  20
1319.8558
  0
VERTEX
  5
a6
  8
Layer_0
  10
867.49237
  20
1319.8556
  0
VERTEX
  5
a7
  8
Layer_0
  10
867.02157
  20
1319.8554
  0
VERTEX
  5
a8
  8
Layer_0
  10
866.47251
  20
1319.8552
  0
VERTEX
  5
a9
  8
Layer_0
  10
865.83916
  20
1319.855
  0
VERTEX
  5
aa
  8
Layer_0
  10
865.11551
  20
1319.8547
  0
VERTEX
  5
ab
  8
Layer_0
  10
864.71794
  20
1319.8546
  0
VERTEX
  5
ac
  8
Layer_0
  10
864.29553
  20
1319.8545
  0
VERTEX
  5
ad
  8
Layer_0
  10
863.84755
  20
1319.8544
  0
VERTEX
  5
ae
  8
Layer_0
  10
863.37322
  20
1319.8542
  0
VERTEX
  5
af
  8
Layer_0
  10
862.87181
  20
1319.8541
  0
VERTEX
  5
b0
  8
Layer_0
  10
862.34255
  20
1319.854
  0
VERTEX
  5
b1
  8
Layer_0
  10
861.7847
  20
1319.8539
  0
VERTEX
  5
b2
  8
Layer_0
  10
861.1975
  20
1319.8537
  0
VERTEX
  5
b3
  8
Layer_0
  10
860.58021
  20
1319.8536
  0
VERTEX
  5
b4
  8
Layer_0
  10
859.93207
  20
1319.8535
  0
VERTEX
  5
b5
  8
Layer_0
  10
859.25232
  20
1319.8533
  0
VERTEX
  5
b6
  8
Layer_0
  10
858.54021
  20
1319.8532
  0
VERTEX
  5
b7
  8
Layer_0
  10
857.795
  20
1319.8531
  0
VERTEX
  5
b8
  8
Layer_0
  10
857.01593
  20
1319.853
  0
VERTEX
  5
b9
  8
Layer_0
  10
856.20225
  20
1319.8528
  0
VERTEX
  5
ba
  8
Layer_0
  10
855.3532
  20
1319.8527
  0
VERTEX
  5
bb
  8
Layer_0
  10
854.46804
  20
1319.8526
  0
VERTEX
  5
bc
  8
Layer_0
  10
853.54601
  20
1319.8524
  0
VERTEX
  5
bd
  8
Layer_0
  10
852.58635
  20
1319.8523
  0
VERTEX
  5
be
  8
Layer_0
  10
851.58833
  20
1319.8522
  0
VERTEX
  5
bf
  8
Layer_0
  10
850.55117
  20
1319.8521
  0
VERTEX
  5
c0
  8
Layer_0
  10
849.47414
  20
1319.8519
  0
VERTEX
  5
c1
  8
Layer_0
  10
848.35648
  20
1319.8518
  0
VERTEX
  5
c2
  8
Layer_0
  10
847.19744
  20
1319.8517
  0
VERTEX
  5
c3
  8
Layer_0
  10
845.99626
  20
1319.8516
  0
VERTEX
  5
c4
  8
Layer_0
  10
844.75219
  20
1319.8515
  0
VERTEX
  5
c5
  8
Layer_0
  10
843.46449
  20
1319.8514
  0
VERTEX
  5
c6
  8
Layer_0
  10
842.13239
  20
1319.8513
  0
VERTEX
  5
c7
  8
Layer_0
  10
840.75515
  20
1319.8512
  0
VERTEX
  5
c8
  8
Layer_0
  10
839.33202
  20
1319.8511
  0
VERTEX
  5
c9
  8
Layer_0
  10
837.86223
  20
1319.851
  0
VERTEX
  5
ca
  8
Layer_0
  10
836.34505
  20
1319.8509
  0
VERTEX
  5
cb
  8
Layer_0
  10
834.77971
  20
1319.8508
  0
VERTEX
  5
cc
  8
Layer_0
  10
833.16547
  20
1319.8507
  0
VERTEX
  5
cd
  8
Layer_0
  10
831.50156
  20
1319.8506
  0
VERTEX
  5
ce
  8
Layer_0
  10
829.78725
  20
1319.8505
  0
VERTEX
  5
cf
  8
Layer_0
  10
828.02178
  20
1319.8504
  0
VERTEX
  5
d0
  8
Layer_0
  10
826.20439
  20
1319.8503
  0
VERTEX
  5
d1
  8
Layer_0
  10
824.33434
  20
1319.8503
  0
VERTEX
  5
d2
  8
Layer_0
  10
822.41087
  20
1319.8502
  0
VERTEX
  5
d3
  8
Layer_0
  10
820.43322
  20
1319.8501
  0
VERTEX
  5
d4
  8
Layer_0
  10
818.40066
  20
1319.8501
  0
VERTEX
  5
d5
  8
Layer_0
  10
816.31241
  20
1319.85
  0
VERTEX
  5
d6
  8
Layer_0
  10
814.16774
  20
1319.8499
  0
VERTEX
  5
d7
  8
Layer_0
  10
811.96589
  20
1319.8499
  0
VERTEX
  5
d8
  8
Layer_0
  10
809.70611
  20
1319.8499
  0
VERTEX
  5
d9
  8
Layer_0
  10
807.38764
  20
1319.8498
  0
VERTEX
  5
da
  8
Layer_0
  10
805.00973
  20
1319.8498
  0
VERTEX
  5
db
  8
Layer_0
  10
802.57164
  20
1319.8498
  0
VERTEX
  5
dc
  8
Layer_0
  10
800.0726
  20
1319.8497
  0
VERTEX
  5
dd
  8
Layer_0
  10
797.51187
  20
1319.8497
  0
VERTEX
  5
de
  8
Layer_0
  10
794.8887
  20
1319.8497
  0
VERTEX
  5
df
  8
Layer_0
  10
792.20232
  20
1319.8497
  0
VERTEX
  5
e0
  8
Layer_0
  10
789.452
  20
1319.8497
  0
VERTEX
  5
e1
  8
Layer_0
  10
786.63697
  20
1319.8497
  0
VERTEX
  5
e2
  8
Layer_0
  10
783.75648
  20
1319.8497
  0
VERTEX
  5
e3
  8
Layer_0
  10
780.80979
  20
1319.8497
  0
VERTEX
  5
e4
  8
Layer_0
  10
777.79614
  20
1319.8498
  0
VERTEX
  5
e5
  8
Layer_0
  10
774.71478
  20
1319.8498
  0
VERTEX
  5
e6
  8
Layer_0
  10
771.56495
  20
1319.8498
  0
VERTEX
  5
e7
  8
Layer_0
  10
768.34591
  20
1319.8499
  0
VERTEX
  5
e8
  8
Layer_0
  10
765.0569
  20
1319.8499
  0
VERTEX
  5
e9
  8
Layer_0
  10
761.69716
  20
1319.85
  0
VERTEX
  5
ea
  8
Layer_0
  10
758.26595
  20
1319.8501
  0
VERTEX
  5
eb
  8
Layer_0
  10
754.76252
  20
1319.8502
  0
VERTEX
  5
ec
  8
Layer_0
  10
751.18611
  20
1319.8502
  0
VERTEX
  5
ed
  8
Layer_0
  10
747.53597
  20
1319.8503
  0
VERTEX
  5
ee
  8
Layer_0
  10
743.81135
  20
1319.8504
  0
VERTEX
  5
ef
  8
Layer_0
  10
740.01149
  20
1319.8505
  0
VERTEX
  5
f0
  8
Layer_0
  10
736.13564
  20
1319.8507
  0
VERTEX
  5
f1
  8
Layer_0
  10
732.18306
  20
1319.8508
  0
VERTEX
  5
f2
  8
Layer_0
  10
728.15298
  20
1319.8509
  0
VERTEX
  5
f3
  8
Layer_0
  10
724.04466
  20
1319.8511
  0
VERTEX
  5
f4
  8
Layer_0
  10
719.85735
  20
1319.8512
  0
VERTEX
  5
f5
  8
Layer_0
  10
715.59028
  20
1319.8514
  0
VERTEX
  5
f6
  8
Layer_0
  10
711.24272
  20
1319.8515
  0
VERTEX
  5
f7
  8
Layer_0
  10
706.8139
  20
1319.8517
  0
VERTEX
  5
f8
  8
Layer_0
  10
702.30308
  20
1319.8519
  0
VERTEX
  5
f9
  8
Layer_0
  10
697.7095
  20
1319.8521
  0
VERTEX
  5
fa
  8
Layer_0
  10
693.03241
  20
1319.8523
  0
VERTEX
  5
fb
  8
Layer_0
  10
688.27105
  20
1319.8525
  0
VERTEX
  5
fc
  8
Layer_0
  10
683.42469
  20
1319.8528
  0
VERTEX
  5
fd
  8
Layer_0
  10
678.49255
  20
1319.853
  0
VERTEX
  5
fe
  8
Layer_0
  10
673.4739
  20
1319.8532
  0
VERTEX
  5
ff
  8
Layer_0
  10
668.36798
  20
1319.8535
  0
VERTEX
  5
100
  8
Layer_0
  10
663.17403
  20
1319.8538
  0
VERTEX
  5
101
  8
Layer_0
  10
657.89131
  20
1319.854
  0
VERTEX
  5
102
  8
Layer_0
  10
652.51906
  20
1319.8543
  0
VERTEX
  5
103
  8
Layer_0
  10
647.05653
  20
1319.8546
  0
VERTEX
  5
104
  8
Layer_0
  10
641.50297
  20
1319.8549
  0
VERTEX
  5
105
  8
Layer_0
  10
635.85762
  20
1319.8553
  0
VERTEX
  5
106
  8
Layer_0
  10
630.11974
  20
1319.8556
  0
VERTEX
  5
107
  8
Layer_0
  10
624.28856
  20
1319.8559
  0
VERTEX
  5
108
  8
Layer_0
  10
618.36335
  20
1319.8563
  0
VERTEX
  5
109
  8
Layer_0
  10
612.34334
  20
1319.8567
  0
VERTEX
  5
10a
  8
Layer_0
  10
606.22778
  20
1319.8571
  0
SEQEND
  0
POLYLINE
  5
10c
  8
Layer_0
  62
7
  66
1
  10
0
  20
0
  30
0
  0
VERTEX
  5
10c
  8
Layer_0
  10
599.23018
  20
1304.8428
  0
VERTEX
  5
10d
  8
Layer_0
  10
599.23002
  20
1304.8428
  0
VERTEX
  5
10e
  8
Layer_0
  10
599.22986
  20
1304.8428
  0
SEQEND
  0
POLYLINE
  5
110
  8
Layer_0
  62
7
  66
1
  10
0
  20
0
  30
0
  0
VERTEX
  5
110
  8
Layer_0
  10
567.02416
  20
1303.6844
  0
VERTEX
  5
111
  8
Layer_0
  10
567.02379
  20
1303.6844
  0
VERTEX
  5
112
  8
Layer_0
  10
567.02341
  20
1303.6844
  0
SEQEND
  0
POLYLINE
  5
114
  8
Layer_0
  62
7
  66
1
  10
0
  20
0
  30
0
  0
VERTEX
  5
114
  8
Layer_0
  10
558.9978
  20
1303.1045
  0
VERTEX
  5
115
  8
Layer_0
  10
559.04639
  20
1303.1083
  0
VERTEX
  5
116
  8
Layer_0
  10
558.9978
  20
1303.1045
  0
VERTEX
  5
117
  8
Layer_0
  10
558.94751
  20
1318.1272
  0
VERTEX
  5
118
  8
Layer_0
  10
564.93146
  20
1318.5657
  0
VERTEX
  5
119
  8
Layer_0
  10
567.02393
  20
1303.6844
  0
VERTEX
  5
11a
  8
Layer_0
  10
567.02368
  20
1303.6844
  0
VERTEX
  5
11b
  8
Layer_0
  10
567.19165
  20
1318.7119
  0
VERTEX
  5
11c
  8
Layer_0
  10
573.1814
  20
1319.0656
  0
VERTEX
  5
11d
  8
Layer_0
  10
575.04059
  20
1304.1472
  0
VERTEX
  5
11e
  8
Layer_0
  10
575.04028
  20
1304.1472
  42
0.00055714751
  0
VERTEX
  5
11f
  8
Layer_0
  10
575.10748
  20
1304.1506
  0
VERTEX
  5
120
  8
Layer_0
  10
575.10724
  20
1304.1506
  0
VERTEX
  5
121
  8
Layer_0
  10
575.44354
  20
1319.1798
  0
VERTEX
  5
122
  8
Layer_0
  10
581.43774
  20
1319.4447
  0
VERTEX
  5
123
  8
Layer_0
  10
583.08521
  20
1304.4951
  42
5.865985e-06
  0
VERTEX
  5
124
  8
Layer_0
  10
583.1438
  20
1304.4971
  0
VERTEX
  5
125
  8
Layer_0
  10
583.70135
  20
1319.5264
  0
VERTEX
  5
126
  8
Layer_0
  10
589.69879
  20
1319.7029
  0
VERTEX
  5
127
  8
Layer_0
  10
591.12848
  20
1304.7266
  42
-0.00081596268
  0
VERTEX
  5
128
  8
Layer_0
  10
591.19
  20
1304.7279
  0
VERTEX
  5
129
  8
Layer_0
  10
591.18713
  20
1304.7278
  0
VERTEX
  5
12a
  8
Layer_0
  10
591.96338
  20
1319.7522
  0
VERTEX
  5
12b
  8
Layer_0
  10
597.96271
  20
1319.8406
  0
VERTEX
  5
12c
  8
Layer_0
  10
599.23016
  20
1304.8428
  0
VERTEX
  5
12d
  8
Layer_0
  10
600.22778
  20
1319.8571
  0
VERTEX
  5
12e
  8
Layer_0
  10
606.22778
  20
1319.8571
  0
VERTEX
  5
12f
  8
Layer_0
  10
607.22418
  20
1304.8571
  0
SEQEND
  0
POLYLINE
  5
131
  8
Layer_0
  62
7
  66
1
  10
0
  20
0
  30
0
  0
VERTEX
  5
131
  8
Layer_0
  10
550.98102
  20
1302.4078
  0
VERTEX
  5
132
  8
Layer_0
  10
550.98077
  20
1302.4077
  42
-0.00089500052
  0
VERTEX
  5
133
  8
Layer_0
  10
551.0318
  20
1302.4126
  0
SEQEND
  0
POLYLINE
  5
135
  8
Layer_0
  62
7
  66
1
  10
0
  20
0
  30
0
  0
VERTEX
  5
135
  8
Layer_0
  10
440.74588
  20
1280.4621
  0
VERTEX
  5
136
  8
Layer_0
  10
440.74558
  20
1280.462
  0
VERTEX
  5
137
  8
Layer_0
  10
440.74529
  20
1280.4619
  0
SEQEND
  0
POLYLINE
  5
139
  8
Layer_0
  62
7
  66
1
  10
0
  20
0
  30
0
  0
VERTEX
  5
139
  8
Layer_0
  10
395.2971
  20
1264.1941
  0
VERTEX
  5
13a
  8
Layer_0
  10
395.29724
  20
1264.1942
  0
VERTEX
  5
13b
  8
Layer_0
  10
395.29738
  20
1264.1942
  0
SEQEND
  0
POLYLINE
  5
13d
  8
Layer_0
  62
7
  66
1
  10
0
  20
0
  30
0
  0
VERTEX
  5
13d
  8
Layer_0
  10
316.40768
  20
1224.2404
  0
VERTEX
  5
13e
  8
Layer_0
  10
316.40668
  20
1224.2397
  0
VERTEX
  5
13f
  8
Layer_0
  10
316.40567
  20
1224.2391
  0
SEQEND
  0
POLYLINE
  5
141
  8
Layer_0
  62
7
  66
1
  10
0
  20
0
  30
0
  0
VERTEX
  5
141
  8
Layer_0
  10
309.56421
  20
1219.9804
  0
VERTEX
  5
142
  8
Layer_0
  10
309.56412
  20
1219.9804
  0
VERTEX
  5
143
  8
Layer_0
  10
309.56403
  20
1219.9803
  0
SEQEND
  0
POLYLINE
  5
145
  8
Layer_0
  62
7
  66
1
  10
0
  20
0
  30
0
  0
VERTEX
  5
145
  8
Layer_0
  10
276.17682
  20
1197.4987
  0
VERTEX
  5
146
  8
Layer_0
  10
268.4082
  20
1209.9398
  0
VERTEX
  5
147
  8
Layer_0
  10
273.27856
  20
1213.4835
  0
VERTEX
  5
148
  8
Layer_0
  10
282.89172
  20
1201.9933
  0
VERTEX
  5
149
  8
Layer_0
  10
282.89154
  20
1201.9932
  0
VERTEX
  5
14a
  8
Layer_0
  10
275.07559
  20
1214.8029
  0
VERTEX
  5
14b
  8
Layer_0
  10
279.97836
  20
1218.2616
  0
VERTEX
  5
14c
  8
Layer_0
  10
289.42059
  20
1206.6077
  42
0.00047195055
  0
VERTEX
  5
14d
  8
Layer_0
  10
289.46332
  20
1206.6375
  0
VERTEX
  5
14e
  8
Layer_0
  10
289.46313
  20
1206.6372
  0
VERTEX
  5
14f
  8
Layer_0
  10
281.83875
  20
1219.5538
  0
VERTEX
  5
150
  8
Layer_0
  10
286.79156
  20
1222.9404
  0
VERTEX
  5
151
  8
Layer_0
  10
296.05792
  20
1211.1554
  42
-0.0001158651
  0
VERTEX
  5
152
  8
Layer_0
  10
296.10208
  20
1211.1852
  0
VERTEX
  5
153
  8
Layer_0
  10
296.10187
  20
1211.1851
  0
VERTEX
  5
154
  8
Layer_0
  10
288.67065
  20
1224.2052
  0
VERTEX
  5
155
  8
Layer_0
  10
293.67245
  20
1227.519
  0
VERTEX
  5
156
  8
Layer_0
  10
302.76086
  20
1215.6057
  42
2.8148082e-05
  0
VERTEX
  5
157
  8
Layer_0
  10
302.80664
  20
1215.6356
  0
VERTEX
  5
158
  8
Layer_0
  10
302.80527
  20
1215.6348
  0
VERTEX
  5
159
  8
Layer_0
  10
295.56985
  20
1228.7563
  0
VERTEX
  5
15a
  8
Layer_0
  10
300.61963
  20
1231.9968
  0
VERTEX
  5
15b
  8
Layer_0
  10
309.56421
  20
1219.9805
  0
VERTEX
  5
15c
  8
Layer_0
  10
302.53491
  20
1233.1814
  0
VERTEX
  5
15d
  8
Layer_0
  10
307.67114
  20
1236.3721
  0
VERTEX
  5
15e
  8
Layer_0
  10
316.40762
  20
1224.2404
  0
VERTEX
  5
15f
  8
Layer_0
  10
316.40579
  20
1224.2393
  0
VERTEX
  5
160
  8
Layer_0
  10
309.5643
  20
1237.5533
  0
VERTEX
  5
161
  8
Layer_0
  10
314.7067
  20
1240.6445
  0
VERTEX
  5
162
  8
Layer_0
  10
323.25064
  20
1228.3628
  42
-0.000186498
  0
VERTEX
  5
163
  8
Layer_0
  10
323.30118
  20
1228.3927
  0
VERTEX
  5
164
  8
Layer_0
  10
323.2991
  20
1228.3915
  0
VERTEX
  5
165
  8
Layer_0
  10
316.65652
  20
1241.7974
  0
VERTEX
  5
166
  8
Layer_0
  10
321.8436
  20
1244.8131
  0
VERTEX
  5
167
  8
Layer_0
  10
330.2016
  20
1232.4131
  0
VERTEX
  5
168
  8
Layer_0
  10
330.20142
  20
1232.4131
  42
0.00013780785
  0
VERTEX
  5
169
  8
Layer_0
  10
330.25494
  20
1232.4437
  0
VERTEX
  5
16a
  8
Layer_0
  10
330.25476
  20
1232.4436
  0
VERTEX
  5
16b
  8
Layer_0
  10
323.81009
  20
1245.9373
  0
VERTEX
  5
16c
  8
Layer_0
  10
329.04071
  20
1248.8767
  0
VERTEX
  5
16d
  8
Layer_0
  10
337.21228
  20
1236.3621
  0
VERTEX
  5
16e
  8
Layer_0
  10
337.2121
  20
1236.3618
  0
VERTEX
  5
16f
  8
Layer_0
  10
337.2397
  20
1236.3772
  0
VERTEX
  5
170
  8
Layer_0
  10
337.2673
  20
1236.3925
  0
VERTEX
  5
171
  8
Layer_0
  10
337.26712
  20
1236.3923
  0
VERTEX
  5
172
  8
Layer_0
  10
331.02341
  20
1249.9719
  0
VERTEX
  5
173
  8
Layer_0
  10
336.29648
  20
1252.8346
  0
VERTEX
  5
174
  8
Layer_0
  10
344.28156
  20
1240.2085
  42
-0.00023867794
  0
VERTEX
  5
175
  8
Layer_0
  10
344.33691
  20
1240.238
  0
VERTEX
  5
176
  8
Layer_0
  10
344.33414
  20
1240.2366
  0
VERTEX
  5
177
  8
Layer_0
  10
338.29501
  20
1253.9008
  0
VERTEX
  5
178
  8
Layer_0
  10
343.60938
  20
1256.686
  0
VERTEX
  5
179
  8
Layer_0
  10
351.40384
  20
1243.9493
  0
VERTEX
  5
17a
  8
Layer_0
  10
351.40369
  20
1243.9492
  42
-7.9703905e-05
  0
VERTEX
  5
17b
  8
Layer_0
  10
351.46222
  20
1243.9795
  0
VERTEX
  5
17c
  8
Layer_0
  10
351.45923
  20
1243.978
  0
VERTEX
  5
17d
  8
Layer_0
  10
345.62332
  20
1257.7227
  0
VERTEX
  5
17e
  8
Layer_0
  10
350.97784
  20
1260.4299
  0
VERTEX
  5
17f
  8
Layer_0
  10
358.58182
  20
1247.5862
  0
VERTEX
  5
180
  8
Layer_0
  10
358.58167
  20
1247.5861
  42
-0.00015187888
  0
VERTEX
  5
181
  8
Layer_0
  10
358.64172
  20
1247.616
  0
VERTEX
  5
182
  8
Layer_0
  10
358.64154
  20
1247.6158
  0
VERTEX
  5
183
  8
Layer_0
  10
353.00671
  20
1261.4371
  0
VERTEX
  5
184
  8
Layer_0
  10
358.40027
  20
1264.0657
  0
VERTEX
  5
185
  8
Layer_0
  10
365.8125
  20
1251.1172
  0
VERTEX
  5
186
  8
Layer_0
  10
365.81232
  20
1251.1172
  42
-0.00022974364
  0
VERTEX
  5
187
  8
Layer_0
  10
365.8739
  20
1251.1466
  0
VERTEX
  5
188
  8
Layer_0
  10
365.87054
  20
1251.145
  0
VERTEX
  5
189
  8
Layer_0
  10
360.44366
  20
1265.0431
  0
VERTEX
  5
18a
  8
Layer_0
  10
365.87509
  20
1267.5925
  0
VERTEX
  5
18b
  8
Layer_0
  10
373.09442
  20
1254.5416
  0
VERTEX
  5
18c
  8
Layer_0
  10
373.09424
  20
1254.5416
  42
-0.00036858497
  0
VERTEX
  5
18d
  8
Layer_0
  10
373.15723
  20
1254.5707
  0
VERTEX
  5
18e
  8
Layer_0
  10
373.15369
  20
1254.569
  0
VERTEX
  5
18f
  8
Layer_0
  10
367.93256
  20
1268.54
  0
VERTEX
  5
190
  8
Layer_0
  10
373.4007
  20
1271.0096
  0
VERTEX
  5
191
  8
Layer_0
  10
380.42606
  20
1257.8588
  0
VERTEX
  5
192
  8
Layer_0
  10
380.42587
  20
1257.8586
  42
-0.0002975402
  0
VERTEX
  5
193
  8
Layer_0
  10
380.49014
  20
1257.8872
  0
VERTEX
  5
194
  8
Layer_0
  10
380.48996
  20
1257.8871
  0
VERTEX
  5
195
  8
Layer_0
  10
375.4718
  20
1271.9268
  0
VERTEX
  5
196
  8
Layer_0
  10
380.97552
  20
1274.3163
  0
VERTEX
  5
197
  8
Layer_0
  10
387.80579
  20
1261.0676
  0
VERTEX
  5
198
  8
Layer_0
  10
387.8056
  20
1261.0676
  42
0.00062733035
  0
VERTEX
  5
199
  8
Layer_0
  10
387.8674
  20
1261.0939
  0
VERTEX
  5
19a
  8
Layer_0
  10
383.05981
  20
1275.1917
  0
VERTEX
  5
19b
  8
Layer_0
  10
388.62543
  20
1277.5117
  0
VERTEX
  5
19c
  8
Layer_0
  10
395.29712
  20
1264.1942
  0
VERTEX
  5
19d
  8
Layer_0
  10
390.69489
  20
1278.3645
  0
VERTEX
  5
19e
  8
Layer_0
  10
396.27527
  20
1280.5955
  0
VERTEX
  5
19f
  8
Layer_0
  10
402.71307
  20
1267.1616
  42
-0.00078045529
  0
VERTEX
  5
1a0
  8
Layer_0
  10
402.76889
  20
1267.1836
  0
VERTEX
  5
1a1
  8
Layer_0
  10
398.37549
  20
1281.4161
  0
VERTEX
  5
1a2
  8
Layer_0
  10
403.99139
  20
1283.5667
  0
VERTEX
  5
1a3
  8
Layer_0
  10
410.22644
  20
1270.041
  42
0.0012145157
  0
VERTEX
  5
1a4
  8
Layer_0
  10
410.28571
  20
1270.0632
  0
VERTEX
  5
1a5
  8
Layer_0
  10
410.28546
  20
1270.0631
  0
VERTEX
  5
1a6
  8
Layer_0
  10
406.09988
  20
1284.3611
  0
VERTEX
  5
1a7
  8
Layer_0
  10
411.73389
  20
1286.4246
  0
VERTEX
  5
1a8
  8
Layer_0
  10
417.77631
  20
1272.8074
  42
-0.00061290913
  0
VERTEX
  5
1a9
  8
Layer_0
  10
417.84253
  20
1272.8311
  0
VERTEX
  5
1aa
  8
Layer_0
  10
417.83826
  20
1272.8296
  0
VERTEX
  5
1ab
  8
Layer_0
  10
413.86649
  20
1287.188
  0
VERTEX
  5
1ac
  8
Layer_0
  10
419.53009
  20
1289.1689
  0
VERTEX
  5
1ad
  8
Layer_0
  10
425.37274
  20
1275.4646
  42
0.00044773543
  0
VERTEX
  5
1ae
  8
Layer_0
  10
425.4389
  20
1275.4872
  0
VERTEX
  5
1af
  8
Layer_0
  10
425.43643
  20
1275.4863
  0
VERTEX
  5
1b0
  8
Layer_0
  10
421.67358
  20
1289.9071
  0
VERTEX
  5
1b1
  8
Layer_0
  10
427.34753
  20
1291.7988
  0
VERTEX
  5
1b2
  8
Layer_0
  10
432.98901
  20
1278.0034
  0
VERTEX
  5
1b3
  8
Layer_0
  10
432.98877
  20
1278.0034
  42
-0.00056045556
  0
VERTEX
  5
1b4
  8
Layer_0
  10
433.07468
  20
1278.0313
  0
VERTEX
  5
1b5
  8
Layer_0
  10
433.06836
  20
1278.0293
  0
VERTEX
  5
1b6
  8
Layer_0
  10
429.51959
  20
1292.4924
  0
VERTEX
  5
1b7
  8
Layer_0
  10
435.26117
  20
1294.3138
  0
VERTEX
  5
1b8
  8
Layer_0
  10
440.74573
  20
1280.4622
  0
VERTEX
  5
1b9
  8
Layer_0
  10
440.74551
  20
1280.462
  0
VERTEX
  5
1ba
  8
Layer_0
  10
437.40271
  20
1294.9829
  0
VERTEX
  5
1bb
  8
Layer_0
  10
443.14777
  20
1296.7134
  0
VERTEX
  5
1bc
  8
Layer_0
  10
448.38376
  20
1282.7595
  0
VERTEX
  5
1bd
  8
Layer_0
  10
448.38354
  20
1282.7595
  0
VERTEX
  5
1be
  8
Layer_0
  10
448.41718
  20
1282.7693
  0
VERTEX
  5
1bf
  8
Layer_0
  10
448.45081
  20
1282.7791
  0
VERTEX
  5
1c0
  8
Layer_0
  10
445.32135
  20
1297.3452
  0
VERTEX
  5
1c1
  8
Layer_0
  10
451.11102
  20
1298.9971
  0
VERTEX
  5
1c2
  8
Layer_0
  10
456.13977
  20
1284.9688
  42
0.00076155151
  0
VERTEX
  5
1c3
  8
Layer_0
  10
456.19174
  20
1284.9832
  0
VERTEX
  5
1c4
  8
Layer_0
  10
456.19153
  20
1284.983
  0
VERTEX
  5
1c5
  8
Layer_0
  10
453.27374
  20
1299.6028
  0
VERTEX
  5
1c6
  8
Layer_0
  10
459.06696
  20
1301.1643
  0
VERTEX
  5
1c7
  8
Layer_0
  10
463.89563
  20
1287.0547
  0
VERTEX
  5
1c8
  8
Layer_0
  10
463.89539
  20
1287.0547
  0
VERTEX
  5
1c9
  8
Layer_0
  10
463.92912
  20
1287.0634
  0
VERTEX
  5
1ca
  8
Layer_0
  10
463.96283
  20
1287.0722
  0
VERTEX
  5
1cb
  8
Layer_0
  10
463.96259
  20
1287.0721
  0
VERTEX
  5
1cc
  8
Layer_0
  10
461.25827
  20
1301.7379
  0
VERTEX
  5
1cd
  8
Layer_0
  10
467.0737
  20
1303.2146
  0
VERTEX
  5
1ce
  8
Layer_0
  10
471.69739
  20
1289.0303
  0
VERTEX
  5
1cf
  8
Layer_0
  10
471.69714
  20
1289.0303
  42
-0.00076901745
  0
VERTEX
  5
1d0
  8
Layer_0
  10
471.76367
  20
1289.0466
  0
VERTEX
  5
1d1
  8
Layer_0
  10
471.76346
  20
1289.0465
  0
VERTEX
  5
1d2
  8
Layer_0
  10
469.27313
  20
1303.7561
  0
VERTEX
  5
1d3
  8
Layer_0
  10
475.10956
  20
1305.1477
  0
VERTEX
  5
1d4
  8
Layer_0
  10
479.52737
  20
1290.8906
  0
VERTEX
  5
1d5
  8
Layer_0
  10
479.52716
  20
1290.8906
  42
-0.00072152247
  0
VERTEX
  5
1d6
  8
Layer_0
  10
479.59259
  20
1290.9058
  0
VERTEX
  5
1d7
  8
Layer_0
  10
479.58911
  20
1290.9048
  0
VERTEX
  5
1d8
  8
Layer_0
  10
477.31671
  20
1305.6567
  0
VERTEX
  5
1d9
  8
Layer_0
  10
483.17285
  20
1306.9629
  0
VERTEX
  5
1da
  8
Layer_0
  10
487.38388
  20
1292.6355
  0
VERTEX
  5
1db
  8
Layer_0
  10
487.38367
  20
1292.6355
  42
-0.00078412162
  0
VERTEX
  5
1dc
  8
Layer_0
  10
487.43945
  20
1292.6475
  0
VERTEX
  5
1dd
  8
Layer_0
  10
485.38718
  20
1307.4351
  0
VERTEX
  5
1de
  8
Layer_0
  10
491.26181
  20
1308.6599
  0
VERTEX
  5
1df
  8
Layer_0
  10
495.24921
  20
1294.2615
  42
0.0012026852
  0
VERTEX
  5
1e0
  8
Layer_0
  10
495.32425
  20
1294.2764
  0
VERTEX
  5
1e1
  8
Layer_0
  10
493.48291
  20
1309.1021
  0
VERTEX
  5
1e2
  8
Layer_0
  10
499.3866
  20
1310.2385
  0
VERTEX
  5
1e3
  8
Layer_0
  10
503.17923
  20
1295.7793
  42
0.0002275027
  0
VERTEX
  5
1e4
  8
Layer_0
  10
503.23053
  20
1295.7888
  0
VERTEX
  5
1e5
  8
Layer_0
  10
503.23029
  20
1295.7887
  0
VERTEX
  5
1e6
  8
Layer_0
  10
501.60211
  20
1310.6504
  0
VERTEX
  5
1e7
  8
Layer_0
  10
507.50989
  20
1311.6982
  0
VERTEX
  5
1e8
  8
Layer_0
  10
511.09515
  20
1297.1741
  0
VERTEX
  5
1e9
  8
Layer_0
  10
511.09491
  20
1297.1741
  42
-3.1591026e-05
  0
VERTEX
  5
1ea
  8
Layer_0
  10
511.15448
  20
1297.1841
  0
VERTEX
  5
1eb
  8
Layer_0
  10
511.15424
  20
1297.1841
  0
VERTEX
  5
1ec
  8
Layer_0
  10
509.74301
  20
1312.0774
  0
VERTEX
  5
1ed
  8
Layer_0
  10
515.66553
  20
1313.0388
  0
VERTEX
  5
1ee
  8
Layer_0
  10
519.04028
  20
1298.4542
  0
VERTEX
  5
1ef
  8
Layer_0
  10
519.0401
  20
1298.4542
  42
0.00077225795
  0
VERTEX
  5
1f0
  8
Layer_0
  10
519.09583
  20
1298.4628
  0
VERTEX
  5
1f1
  8
Layer_0
  10
517.90393
  20
1313.3853
  0
VERTEX
  5
1f2
  8
Layer_0
  10
523.8399
  20
1314.2599
  0
VERTEX
  5
1f3
  8
Layer_0
  10
527.0033
  20
1299.6177
  0
VERTEX
  5
1f4
  8
Layer_0
  10
527.00305
  20
1299.6177
  42
-0.0011825395
  0
VERTEX
  5
1f5
  8
Layer_0
  10
527.05896
  20
1299.6255
  0
VERTEX
  5
1f6
  8
Layer_0
  10
527.05725
  20
1299.6252
  0
VERTEX
  5
1f7
  8
Layer_0
  10
526.08313
  20
1314.5737
  0
VERTEX
  5
1f8
  8
Layer_0
  10
532.03125
  20
1315.3613
  0
VERTEX
  5
1f9
  8
Layer_0
  10
534.98303
  20
1300.6646
  42
2.6370226e-05
  0
VERTEX
  5
1fa
  8
Layer_0
  10
535.03607
  20
1300.6711
  0
VERTEX
  5
1fb
  8
Layer_0
  10
535.03467
  20
1300.671
  0
VERTEX
  5
1fc
  8
Layer_0
  10
534.27887
  20
1315.6422
  0
VERTEX
  5
1fd
  8
Layer_0
  10
540.23785
  20
1316.3428
  0
VERTEX
  5
1fe
  8
Layer_0
  10
542.97614
  20
1301.5946
  42
0.0005039387
  0
VERTEX
  5
1ff
  8
Layer_0
  10
543.02753
  20
1301.6002
  0
VERTEX
  5
200
  8
Layer_0
  10
543.02643
  20
1301.6001
  0
VERTEX
  5
201
  8
Layer_0
  10
542.48932
  20
1316.5908
  0
VERTEX
  5
202
  8
Layer_0
  10
548.45789
  20
1317.2041
  0
VERTEX
  5
203
  8
Layer_0
  10
551.03149
  20
1302.4126
  0
VERTEX
  5
204
  8
Layer_0
  10
551.03076
  20
1302.4125
  0
VERTEX
  5
205
  8
Layer_0
  10
550.71277
  20
1317.4192
  0
VERTEX
  5
206
  8
Layer_0
  10
556.6897
  20
1317.9451
  0
VERTEX
  5
207
  8
Layer_0
  10
558.99677
  20
1303.4208
  0
SEQEND
  0
POLYLINE
  5
209
  8
Layer_0
  62
7
  66
1
  10
0
  20
0
  30
0
  0
VERTEX
  5
209
  8
Layer_0
  10
282.89154
  20
1201.9931
  0
VERTEX
  5
20a
  8
Layer_0
  10
282.89172
  20
1201.9933
  0
VERTEX
  5
20b
  8
Layer_0
  10
282.89191
  20
1201.9934
  0
SEQEND
  0
POLYLINE
  5
20d
  8
Layer_0
  62
7
  66
1
  10
0
  20
0
  30
0
  0
VERTEX
  5
20d
  8
Layer_0
  10
276.38882
  20
1197.254
  0
VERTEX
  5
20e
  8
Layer_0
  10
276.38869
  20
1197.2539
  0
VERTEX
  5
20f
  8
Layer_0
  10
276.38855
  20
1197.2538
  0
VERTEX
  5
210
  8
Layer_0
  10
276.38864
  20
1197.2539
  0
VERTEX
  5
211
  8
Layer_0
  10
266.57941
  20
1208.5886
  0
VERTEX
  5
212
  8
Layer_0
  10
261.76144
  20
1204.974
  0
VERTEX
  5
213
  8
Layer_0
  10
269.94095
  20
1192.4092
  0
VERTEX
  5
214
  8
Layer_0
  10
269.91669
  20
1192.3906
  0
VERTEX
  5
215
  8
Layer_0
  10
269.92882
  20
1192.3999
  0
VERTEX
  5
216
  8
Layer_0
  10
269.94095
  20
1192.4092
  0
VERTEX
  5
217
  8
Layer_0
  10
259.95953
  20
1203.6342
  0
VERTEX
  5
218
  8
Layer_0
  10
255.21326
  20
1199.9636
  0
VERTEX
  5
219
  8
Layer_0
  10
263.55612
  20
1187.4641
  0
VERTEX
  5
21a
  8
Layer_0
  10
263.556
  20
1187.464
  0
SEQEND
  0
POLYLINE
  5
21c
  8
Layer_0
  62
7
  66
1
  10
0
  20
0
  30
0
  0
VERTEX
  5
21c
  8
Layer_0
  10
257.30423
  20
1182.4748
  0
VERTEX
  5
21d
  8
Layer_0
  10
257.30405
  20
1182.4747
  0
VERTEX
  5
21e
  8
Layer_0
  10
257.30386
  20
1182.4745
  0
SEQEND
  0
POLYLINE
  5
220
  8
Layer_0
  62
7
  66
1
  10
0
  20
0
  30
0
  0
VERTEX
  5
220
  8
Layer_0
  10
263.59363
  20
1187.4937
  0
VERTEX
  5
221
  8
Layer_0
  10
263.59285
  20
1187.493
  0
VERTEX
  5
222
  8
Layer_0
  10
263.59207
  20
1187.4924
  0
VERTEX
  5
223
  8
Layer_0
  10
263.59363
  20
1187.4937
  0
VERTEX
  5
224
  8
Layer_0
  10
263.55612
  20
1187.4641
  0
VERTEX
  5
225
  8
Layer_0
  10
253.43161
  20
1198.5648
  0
VERTEX
  5
226
  8
Layer_0
  10
248.7395
  20
1194.8252
  0
VERTEX
  5
227
  8
Layer_0
  10
257.30408
  20
1182.4746
  0
VERTEX
  5
228
  8
Layer_0
  10
257.30423
  20
1182.4749
  0
VERTEX
  5
229
  8
Layer_0
  10
247.02121
  20
1193.4006
  0
VERTEX
  5
22a
  8
Layer_0
  10
242.34167
  20
1189.5577
  0
VERTEX
  5
22b
  8
Layer_0
  10
251.07303
  20
1177.3521
  0
VERTEX
  5
22c
  8
Layer_0
  10
251.07724
  20
1177.3555
  0
VERTEX
  5
22d
  8
Layer_0
  10
251.07706
  20
1177.3553
  0
VERTEX
  5
22e
  8
Layer_0
  10
251.07687
  20
1177.3552
  0
VERTEX
  5
22f
  8
Layer_0
  10
251.07486
  20
1177.3535
  0
VERTEX
  5
230
  8
Layer_0
  10
251.07285
  20
1177.3518
  0
SEQEND
  0
POLYLINE
  5
232
  8
Layer_0
  62
7
  66
1
  10
0
  20
0
  30
0
  0
VERTEX
  5
232
  8
Layer_0
  10
244.94464
  20
1172.1625
  0
VERTEX
  5
233
  8
Layer_0
  10
244.944
  20
1172.1619
  0
VERTEX
  5
234
  8
Layer_0
  10
244.94336
  20
1172.1614
  0
SEQEND
  0
POLYLINE
  5
236
  8
Layer_0
  62
7
  66
1
  10
0
  20
0
  30
0
  0
VERTEX
  5
236
  8
Layer_0
  10
238.86703
  20
1166.8621
  0
VERTEX
  5
237
  8
Layer_0
  10
238.86685
  20
1166.862
  0
VERTEX
  5
238
  8
Layer_0
  10
238.86667
  20
1166.8618
  0
SEQEND
  0
POLYLINE
  5
23a
  8
Layer_0
  62
7
  66
1
  10
0
  20
0
  30
0
  0
VERTEX
  5
23a
  8
Layer_0
  10
232.87735
  20
1161.4829
  0
VERTEX
  5
23b
  8
Layer_0
  10
232.87721
  20
1161.4827
  0
VERTEX
  5
23c
  8
Layer_0
  10
232.87708
  20
1161.4826
  0
SEQEND
  0
POLYLINE
  5
23e
  8
Layer_0
  62
7
  66
1
  10
0
  20
0
  30
0
  0
VERTEX
  5
23e
  8
Layer_0
  10
226.98099
  20
1156.0306
  0
VERTEX
  5
23f
  8
Layer_0
  10
226.98085
  20
1156.0305
  0
VERTEX
  5
240
  8
Layer_0
  10
226.98071
  20
1156.0303
  0
SEQEND
  0
POLYLINE
  5
242
  8
Layer_0
  62
7
  66
1
  10
0
  20
0
  30
0
  0
VERTEX
  5
242
  8
Layer_0
  10
221.15704
  20
1150.4863
  0
VERTEX
  5
243
  8
Layer_0
  10
221.157
  20
1150.4862
  0
VERTEX
  5
244
  8
Layer_0
  10
221.15695
  20
1150.4862
  0
SEQEND
  0
POLYLINE
  5
246
  8
Layer_0
  62
7
  66
1
  10
0
  20
0
  30
0
  0
VERTEX
  5
246
  8
Layer_0
  10
215.39236
  20
1144.8361
  0
VERTEX
  5
247
  8
Layer_0
  10
215.39236
  20
1144.8361
  0
VERTEX
  5
248
  8
Layer_0
  10
215.39236
  20
1144.8361
  0
VERTEX
  5
249
  8
Layer_0
  10
215.4111
  20
1144.8547
  0
VERTEX
  5
24a
  8
Layer_0
  10
205.62299
  20
1156.272
  0
VERTEX
  5
24b
  8
Layer_0
  10
209.92145
  20
1160.4845
  0
VERTEX
  5
24c
  8
Layer_0
  10
221.15707
  20
1150.4862
  0
VERTEX
  5
24d
  8
Layer_0
  10
211.53748
  20
1162.0449
  0
VERTEX
  5
24e
  8
Layer_0
  10
215.89752
  20
1166.1946
  0
VERTEX
  5
24f
  8
Layer_0
  10
226.98099
  20
1156.0305
  0
VERTEX
  5
250
  8
Layer_0
  10
226.98083
  20
1156.0304
  0
VERTEX
  5
251
  8
Layer_0
  10
217.53589
  20
1167.7178
  0
VERTEX
  5
252
  8
Layer_0
  10
221.97064
  20
1171.8167
  0
VERTEX
  5
253
  8
Layer_0
  10
232.87741
  20
1161.4829
  0
VERTEX
  5
254
  8
Layer_0
  10
232.87723
  20
1161.4828
  0
VERTEX
  5
255
  8
Layer_0
  10
223.61679
  20
1173.3082
  0
VERTEX
  5
256
  8
Layer_0
  10
228.11945
  20
1177.3494
  0
VERTEX
  5
257
  8
Layer_0
  10
238.85684
  20
1166.8752
  0
VERTEX
  5
258
  8
Layer_0
  10
238.86707
  20
1166.8621
  0
VERTEX
  5
259
  8
Layer_0
  10
238.86688
  20
1166.8619
  0
VERTEX
  5
25a
  8
Layer_0
  10
229.77899
  20
1178.8322
  0
VERTEX
  5
25b
  8
Layer_0
  10
234.32288
  20
1182.7917
  0
VERTEX
  5
25c
  8
Layer_0
  10
244.94464
  20
1172.1625
  0
VERTEX
  5
25d
  8
Layer_0
  10
244.94354
  20
1172.1615
  0
VERTEX
  5
25e
  8
Layer_0
  10
236.02103
  20
1184.2566
  0
VERTEX
  5
25f
  8
Layer_0
  10
240.61432
  20
1188.1425
  0
VERTEX
  5
260
  8
Layer_0
  10
251.05255
  20
1177.3806
  0
SEQEND
  0
POLYLINE
  5
262
  8
Layer_0
  62
7
  66
1
  10
0
  20
0
  30
0
  0
VERTEX
  5
262
  8
Layer_0
  10
187.92319
  20
1115.4554
  0
VERTEX
  5
263
  8
Layer_0
  10
187.93713
  20
1115.4714
  42
-0.00055824252
  0
VERTEX
  5
264
  8
Layer_0
  10
187.92319
  20
1115.4553
  0
SEQEND
  0
POLYLINE
  5
266
  8
Layer_0
  62
7
  66
1
  10
0
  20
0
  30
0
  0
VERTEX
  5
266
  8
Layer_0
  10
193.26019
  20
1121.5072
  0
VERTEX
  5
267
  8
Layer_0
  10
193.25955
  20
1121.5065
  0
VERTEX
  5
268
  8
Layer_0
  10
193.25891
  20
1121.5058
  0
SEQEND
  0
POLYLINE
  5
26a
  8
Layer_0
  62
7
  66
1
  10
0
  20
0
  30
0
  0
VERTEX
  5
26a
  8
Layer_0
  10
198.66965
  20
1127.4638
  0
VERTEX
  5
26b
  8
Layer_0
  10
198.66956
  20
1127.4637
  0
VERTEX
  5
26c
  8
Layer_0
  10
198.66946
  20
1127.4637
  0
SEQEND
  0
POLYLINE
  5
26e
  8
Layer_0
  62
7
  66
1
  10
0
  20
0
  30
0
  0
VERTEX
  5
26e
  8
Layer_0
  10
204.16446
  20
1133.3405
  0
VERTEX
  5
26f
  8
Layer_0
  10
204.16432
  20
1133.3404
  0
VERTEX
  5
270
  8
Layer_0
  10
204.16418
  20
1133.3402
  0
SEQEND
  0
POLYLINE
  5
272
  8
Layer_0
  62
7
  66
1
  10
0
  20
0
  30
0
  0
VERTEX
  5
272
  8
Layer_0
  10
215.41107
  20
1144.8547
  0
VERTEX
  5
273
  8
Layer_0
  10
204.03281
  20
1154.6877
  0
VERTEX
  5
274
  8
Layer_0
  10
199.79349
  20
1150.4098
  0
VERTEX
  5
275
  8
Layer_0
  10
209.6228
  20
1139.2444
  0
SEQEND
  0
POLYLINE
  5
277
  8
Layer_0
  62
7
  66
1
  10
0
  20
0
  30
0
  0
VERTEX
  5
277
  8
Layer_0
  10
182.70633
  20
1109.3636
  42
-0.035489152
  0
VERTEX
  5
278
  8
Layer_0
  10
182.70602
  20
1109.3633
  0
SEQEND
  0
POLYLINE
  5
27a
  8
Layer_0
  62
7
  66
1
  10
0
  20
0
  30
0
  0
VERTEX
  5
27a
  8
Layer_0
  10
177.54129
  20
1103.1516
  0
VERTEX
  5
27b
  8
Layer_0
  10
166.67181
  20
1113.5255
  0
VERTEX
  5
27c
  8
Layer_0
  10
170.5166
  20
1118.1547
  0
VERTEX
  5
27d
  8
Layer_0
  10
182.70618
  20
1109.3634
  0
VERTEX
  5
27e
  8
Layer_0
  10
171.96527
  20
1119.8687
  0
VERTEX
  5
27f
  8
Layer_0
  10
175.88132
  20
1124.4457
  0
VERTEX
  5
280
  8
Layer_0
  10
187.9371
  20
1115.4714
  0
VERTEX
  5
281
  8
Layer_0
  10
187.93588
  20
1115.4701
  0
VERTEX
  5
282
  8
Layer_0
  10
177.35101
  20
1126.1277
  0
VERTEX
  5
283
  8
Layer_0
  10
181.34293
  20
1130.6575
  0
VERTEX
  5
284
  8
Layer_0
  10
193.26001
  20
1121.5071
  0
VERTEX
  5
285
  8
Layer_0
  10
193.25897
  20
1121.5059
  0
VERTEX
  5
286
  8
Layer_0
  10
182.82788
  20
1132.3208
  0
VERTEX
  5
287
  8
Layer_0
  10
186.883
  20
1136.7889
  0
VERTEX
  5
288
  8
Layer_0
  10
198.65488
  20
1127.475
  0
VERTEX
  5
289
  8
Layer_0
  10
198.66946
  20
1127.4636
  0
VERTEX
  5
28a
  8
Layer_0
  10
198.65488
  20
1127.475
  0
VERTEX
  5
28b
  8
Layer_0
  10
188.39474
  20
1138.431
  0
VERTEX
  5
28c
  8
Layer_0
  10
192.51416
  20
1142.8386
  0
VERTEX
  5
28d
  8
Layer_0
  10
204.16418
  20
1133.3402
  0
VERTEX
  5
28e
  8
Layer_0
  10
204.16434
  20
1133.3403
  0
VERTEX
  5
28f
  8
Layer_0
  10
194.05035
  20
1144.4622
  0
VERTEX
  5
290
  8
Layer_0
  10
198.23022
  20
1148.8054
  0
VERTEX
  5
291
  8
Layer_0
  10
209.6228
  20
1139.2444
  0
SEQEND
  0
POLYLINE
  5
293
  8
Layer_0
  62
7
  66
1
  10
0
  20
0
  30
0
  0
VERTEX
  5
293
  8
Layer_0
  10
172.51721
  20
1096.927
  0
VERTEX
  5
294
  8
Layer_0
  10
172.48782
  20
1096.8901
  0
VERTEX
  5
295
  8
Layer_0
  10
172.48782
  20
1096.8901
  0
VERTEX
  5
296
  8
Layer_0
  10
172.48782
  20
1096.8901
  0
SEQEND
  0
POLYLINE
  5
298
  8
Layer_0
  62
7
  66
1
  10
0
  20
0
  30
0
  0
VERTEX
  5
298
  8
Layer_0
  10
167.55554
  20
1090.5939
  0
VERTEX
  5
299
  8
Layer_0
  10
167.52597
  20
1090.5555
  0
VERTEX
  5
29a
  8
Layer_0
  10
167.52597
  20
1090.5555
  0
VERTEX
  5
29b
  8
Layer_0
  10
167.52597
  20
1090.5555
  0
SEQEND
  0
POLYLINE
  5
29d
  8
Layer_0
  62
7
  66
1
  10
0
  20
0
  30
0
  0
VERTEX
  5
29d
  8
Layer_0
  10
162.68665
  20
1084.1891
  0
VERTEX
  5
29e
  8
Layer_0
  10
162.65686
  20
1084.1493
  0
VERTEX
  5
29f
  8
Layer_0
  10
162.65686
  20
1084.1493
  0
VERTEX
  5
2a0
  8
Layer_0
  10
162.65686
  20
1084.1493
  0
SEQEND
  0
POLYLINE
  5
2a2
  8
Layer_0
  62
7
  66
1
  10
0
  20
0
  30
0
  0
VERTEX
  5
2a2
  8
Layer_0
  10
157.91174
  20
1077.7143
  0
VERTEX
  5
2a3
  8
Layer_0
  10
157.91151
  20
1077.714
  0
VERTEX
  5
2a4
  8
Layer_0
  10
157.91129
  20
1077.7137
  0
SEQEND
  0
POLYLINE
  5
2a6
  8
Layer_0
  62
7
  66
1
  10
0
  20
0
  30
0
  0
VERTEX
  5
2a6
  8
Layer_0
  10
177.54129
  20
1103.1516
  0
VERTEX
  5
2a7
  8
Layer_0
  10
165.23737
  20
1111.7861
  0
VERTEX
  5
2a8
  8
Layer_0
  10
161.47177
  20
1107.1149
  0
VERTEX
  5
2a9
  8
Layer_0
  10
172.51721
  20
1096.927
  0
VERTEX
  5
2aa
  8
Layer_0
  10
160.06314
  20
1105.3411
  0
VERTEX
  5
2ab
  8
Layer_0
  10
156.36627
  20
1100.6152
  0
VERTEX
  5
2ac
  8
Layer_0
  10
167.55542
  20
1090.5938
  0
VERTEX
  5
2ad
  8
Layer_0
  10
167.55554
  20
1090.5939
  0
VERTEX
  5
2ae
  8
Layer_0
  10
154.98373
  20
1098.821
  0
VERTEX
  5
2af
  8
Layer_0
  10
151.35638
  20
1094.0416
  0
VERTEX
  5
2b0
  8
Layer_0
  10
162.6864
  20
1084.1887
  0
VERTEX
  5
2b1
  8
Layer_0
  10
162.68665
  20
1084.1891
  0
VERTEX
  5
2b2
  8
Layer_0
  10
150.00021
  20
1092.2273
  0
VERTEX
  5
2b3
  8
Layer_0
  10
146.44318
  20
1087.3954
  0
VERTEX
  5
2b4
  8
Layer_0
  10
157.91144
  20
1077.7139
  0
VERTEX
  5
2b5
  8
Layer_0
  10
157.91156
  20
1077.714
  0
VERTEX
  5
2b6
  8
Layer_0
  10
145.11368
  20
1085.5615
  0
VERTEX
  5
2b7
  8
Layer_0
  10
141.62769
  20
1080.678
  0
VERTEX
  5
2b8
  8
Layer_0
  10
153.23074
  20
1071.1691
  0
VERTEX
  5
2b9
  8
Layer_0
  10
153.23135
  20
1071.1699
  42
0.00043174289
  0
VERTEX
  5
2ba
  8
Layer_0
  10
153.20172
  20
1071.1278
  0
VERTEX
  5
2bb
  8
Layer_0
  10
140.32523
  20
1078.8248
  0
VERTEX
  5
2bc
  8
Layer_0
  10
136.91107
  20
1073.8909
  0
VERTEX
  5
2bd
  8
Layer_0
  10
148.64633
  20
1064.5571
  0
VERTEX
  5
2be
  8
Layer_0
  10
148.64709
  20
1064.5582
  42
0.00011336268
  0
VERTEX
  5
2bf
  8
Layer_0
  10
148.61731
  20
1064.5146
  0
VERTEX
  5
2c0
  8
Layer_0
  10
135.6358
  20
1072.0189
  0
VERTEX
  5
2c1
  8
Layer_0
  10
132.29416
  20
1067.0356
  0
VERTEX
  5
2c2
  8
Layer_0
  10
144.15887
  20
1057.8789
  0
VERTEX
  5
2c3
  8
Layer_0
  10
144.15973
  20
1057.8802
  42
-0.0001100675
  0
VERTEX
  5
2c4
  8
Layer_0
  10
144.12988
  20
1057.8352
  0
VERTEX
  5
2c5
  8
Layer_0
  10
131.04642
  20
1065.1451
  0
VERTEX
  5
2c6
  8
Layer_0
  10
127.77805
  20
1060.1134
  0
VERTEX
  5
2c7
  8
Layer_0
  10
139.77026
  20
1051.1372
  0
VERTEX
  5
2c8
  8
Layer_0
  10
139.77036
  20
1051.1373
  42
0.00034769356
  0
VERTEX
  5
2c9
  8
Layer_0
  10
139.74045
  20
1051.0907
  0
VERTEX
  5
2ca
  8
Layer_0
  10
126.55807
  20
1058.205
  0
VERTEX
  5
2cb
  8
Layer_0
  10
123.36365
  20
1053.126
  0
VERTEX
  5
2cc
  8
Layer_0
  10
135.47888
  20
1044.3292
  0
VERTEX
  5
2cd
  8
Layer_0
  10
135.47995
  20
1044.3311
  42
9.6621128e-05
  0
VERTEX
  5
2ce
  8
Layer_0
  10
135.45004
  20
1044.2827
  0
VERTEX
  5
2cf
  8
Layer_0
  10
122.17181
  20
1051.2
  0
VERTEX
  5
2d0
  8
Layer_0
  10
119.052
  20
1046.0747
  0
VERTEX
  5
2d1
  8
Layer_0
  10
131.28833
  20
1037.4606
  0
VERTEX
  5
2d2
  8
Layer_0
  10
131.28952
  20
1037.4626
  42
0.00033672756
  0
VERTEX
  5
2d3
  8
Layer_0
  10
131.25955
  20
1037.4126
  0
VERTEX
  5
2d4
  8
Layer_0
  10
117.8884
  20
1044.1313
  0
VERTEX
  5
2d5
  8
Layer_0
  10
114.84393
  20
1038.9611
  0
VERTEX
  5
2d6
  8
Layer_0
  10
127.19864
  20
1030.5313
  0
VERTEX
  5
2d7
  8
Layer_0
  10
127.19992
  20
1030.5334
  42
3.250591e-05
  0
VERTEX
  5
2d8
  8
Layer_0
  10
127.16998
  20
1030.4818
  0
VERTEX
  5
2d9
  8
Layer_0
  10
113.70886
  20
1037.0009
  0
VERTEX
  5
2da
  8
Layer_0
  10
110.74033
  20
1031.7866
  0
VERTEX
  5
2db
  8
Layer_0
  10
123.2121
  20
1023.5448
  0
VERTEX
  5
2dc
  8
Layer_0
  10
123.21219
  20
1023.5449
  42
6.4345414e-05
  0
VERTEX
  5
2dd
  8
Layer_0
  10
123.18234
  20
1023.4917
  0
VERTEX
  5
2de
  8
Layer_0
  10
109.63406
  20
1029.8101
  0
VERTEX
  5
2df
  8
Layer_0
  10
106.74213
  20
1024.553
  0
VERTEX
  5
2e0
  8
Layer_0
  10
119.32709
  20
1016.4985
  0
VERTEX
  5
2e1
  8
Layer_0
  10
119.32721
  20
1016.4987
  42
-0.00017533148
  0
VERTEX
  5
2e2
  8
Layer_0
  10
119.29755
  20
1016.444
  0
VERTEX
  5
2e3
  8
Layer_0
  10
105.66492
  20
1022.5604
  0
VERTEX
  5
2e4
  8
Layer_0
  10
102.85019
  20
1017.2616
  0
VERTEX
  5
2e5
  8
Layer_0
  10
115.5444
  20
1009.3933
  0
VERTEX
  5
2e6
  8
Layer_0
  10
115.54593
  20
1009.3962
  42
-0.00012847118
  0
VERTEX
  5
2e7
  8
Layer_0
  10
115.51645
  20
1009.3398
  0
VERTEX
  5
2e8
  8
Layer_0
  10
101.80222
  20
1015.2535
  0
VERTEX
  5
2e9
  8
Layer_0
  10
99.065308
  20
1009.9141
  0
VERTEX
  5
2ea
  8
Layer_0
  10
111.86761
  20
1002.2357
  42
-0.00033366029
  0
VERTEX
  5
2eb
  8
Layer_0
  10
111.84003
  20
1002.181
  0
VERTEX
  5
2ec
  8
Layer_0
  10
98.046814
  20
1007.8909
  0
VERTEX
  5
2ed
  8
Layer_0
  10
95.388306
  20
1002.512
  0
VERTEX
  5
2ee
  8
Layer_0
  10
108.29779
  20
995.02783
  0
VERTEX
  5
2ef
  8
Layer_0
  10
108.29785
  20
995.02808
  42
0.00010334477
  0
VERTEX
  5
2f0
  8
Layer_0
  10
108.2691
  20
994.96887
  0
VERTEX
  5
2f1
  8
Layer_0
  10
94.399567
  20
1000.4741
  0
VERTEX
  5
2f2
  8
Layer_0
  10
91.820007
  20
995.05688
  0
VERTEX
  5
2f3
  8
Layer_0
  10
104.83276
  20
987.76538
  0
VERTEX
  5
2f4
  8
Layer_0
  10
104.83282
  20
987.7655
  42
0.00023755179
  0
VERTEX
  5
2f5
  8
Layer_0
  10
104.80447
  20
987.70496
  0
VERTEX
  5
2f6
  8
Layer_0
  10
90.861145
  20
993.00476
  0
VERTEX
  5
2f7
  8
Layer_0
  10
88.361084
  20
987.55042
  0
VERTEX
  5
2f8
  8
Layer_0
  10
101.47321
  20
980.44897
  0
VERTEX
  5
2f9
  8
Layer_0
  10
101.47485
  20
980.45264
  42
0.00035511944
  0
VERTEX
  5
2fa
  8
Layer_0
  10
101.44531
  20
980.38702
  0
VERTEX
  5
2fb
  8
Layer_0
  10
101.44537
  20
980.38721
  0
VERTEX
  5
2fc
  8
Layer_0
  10
87.432373
  20
985.48444
  0
VERTEX
  5
2fd
  8
Layer_0
  10
85.01239
  20
979.99414
  0
VERTEX
  5
2fe
  8
Layer_0
  10
98.223114
  20
973.08728
  0
VERTEX
  5
2ff
  8
Layer_0
  10
98.224792
  20
973.09113
  42
0.00061289225
  0
VERTEX
  5
300
  8
Layer_0
  10
98.197571
  20
973.0282
  0
VERTEX
  5
301
  8
Layer_0
  10
84.113953
  20
977.91479
  0
VERTEX
  5
302
  8
Layer_0
  10
81.774536
  20
972.38965
  0
VERTEX
  5
303
  8
Layer_0
  10
95.083252
  20
965.68225
  0
VERTEX
  5
304
  8
Layer_0
  10
95.083313
  20
965.68237
  42
6.3412593e-05
  0
VERTEX
  5
305
  8
Layer_0
  10
95.056763
  20
965.61847
  0
VERTEX
  5
306
  8
Layer_0
  10
80.906616
  20
970.29736
  0
VERTEX
  5
307
  8
Layer_0
  10
78.648315
  20
964.73859
  0
VERTEX
  5
308
  8
Layer_0
  10
92.049622
  20
958.224
  0
VERTEX
  5
309
  8
Layer_0
  10
92.05127
  20
958.22809
  42
0.00031048118
  0
VERTEX
  5
30a
  8
Layer_0
  10
92.025482
  20
958.16333
  0
VERTEX
  5
30b
  8
Layer_0
  10
77.811157
  20
962.63391
  0
VERTEX
  5
30c
  8
Layer_0
  10
75.634399
  20
957.04266
  0
VERTEX
  5
30d
  8
Layer_0
  10
89.129272
  20
950.72968
  0
VERTEX
  5
30e
  8
Layer_0
  10
89.129333
  20
950.72986
  42
-0.00072684059
  0
VERTEX
  5
30f
  8
Layer_0
  10
89.10437
  20
950.66437
  0
VERTEX
  5
310
  8
Layer_0
  10
74.828003
  20
954.92603
  0
VERTEX
  5
311
  8
Layer_0
  10
72.733215
  20
949.30359
  0
VERTEX
  5
312
  8
Layer_0
  10
86.318054
  20
943.18903
  0
VERTEX
  5
313
  8
Layer_0
  10
86.318115
  20
943.18921
  42
0.0012238773
  0
VERTEX
  5
314
  8
Layer_0
  10
86.294067
  20
943.12317
  0
VERTEX
  5
315
  8
Layer_0
  10
71.957947
  20
947.17517
  0
VERTEX
  5
316
  8
Layer_0
  10
69.945618
  20
941.52271
  0
VERTEX
  5
317
  8
Layer_0
  10
83.616882
  20
935.60358
  0
VERTEX
  5
318
  8
Layer_0
  10
83.618347
  20
935.60785
  42
5.3435884e-05
  0
VERTEX
  5
319
  8
Layer_0
  10
83.595276
  20
935.54144
  0
VERTEX
  5
31a
  8
Layer_0
  10
69.201599
  20
939.3833
  0
VERTEX
  5
31b
  8
Layer_0
  10
67.272217
  20
933.70203
  0
VERTEX
  5
31c
  8
Layer_0
  10
81.03064
  20
927.9873
  0
VERTEX
  5
31d
  8
Layer_0
  10
81.030701
  20
927.98749
  42
-0.00015035133
  0
VERTEX
  5
31e
  8
Layer_0
  10
81.008606
  20
927.92078
  0
VERTEX
  5
31f
  8
Layer_0
  10
66.55957
  20
931.55188
  0
VERTEX
  5
320
  8
Layer_0
  10
64.71344
  20
925.8429
  0
VERTEX
  5
321
  8
Layer_0
  10
78.554321
  20
920.32538
  0
VERTEX
  5
322
  8
Layer_0
  10
78.555603
  20
920.32959
  42
0.00052690679
  0
VERTEX
  5
323
  8
Layer_0
  10
78.534607
  20
920.26294
  0
VERTEX
  5
324
  8
Layer_0
  10
64.032349
  20
923.68268
  0
VERTEX
  5
325
  8
Layer_0
  10
62.269958
  20
917.94739
  0
VERTEX
  5
326
  8
Layer_0
  10
76.192505
  20
912.63184
  0
VERTEX
  5
327
  8
Layer_0
  10
76.193726
  20
912.63599
  42
0.00058452391
  0
VERTEX
  5
328
  8
Layer_0
  10
76.173828
  20
912.56946
  0
VERTEX
  5
329
  8
Layer_0
  10
61.620422
  20
915.77722
  0
VERTEX
  5
32a
  8
Layer_0
  10
59.942078
  20
910.01672
  0
VERTEX
  5
32b
  8
Layer_0
  10
73.945557
  20
904.90808
  0
VERTEX
  5
32c
  8
Layer_0
  10
73.945557
  20
904.90826
  42
-0.00072856949
  0
VERTEX
  5
32d
  8
Layer_0
  10
73.92688
  20
904.84222
  0
VERTEX
  5
32e
  8
Layer_0
  10
59.324463
  20
907.83752
  0
VERTEX
  5
32f
  8
Layer_0
  10
57.730591
  20
902.0531
  0
VERTEX
  5
330
  8
Layer_0
  10
71.811584
  20
897.14819
  0
VERTEX
  5
331
  8
Layer_0
  10
71.811646
  20
897.14832
  42
0.00065193183
  0
VERTEX
  5
332
  8
Layer_0
  10
71.794128
  20
897.08276
  0
VERTEX
  5
333
  8
Layer_0
  10
57.144897
  20
899.86505
  0
VERTEX
  5
334
  8
Layer_0
  10
55.635803
  20
894.05792
  0
VERTEX
  5
335
  8
Layer_0
  10
69.792297
  20
889.35748
  0
VERTEX
  5
336
  8
Layer_0
  10
69.792358
  20
889.35773
  42
-0.00067156482
  0
VERTEX
  5
337
  8
Layer_0
  10
69.776062
  20
889.29297
  0
VERTEX
  5
338
  8
Layer_0
  10
55.082153
  20
891.86157
  0
VERTEX
  5
339
  8
Layer_0
  10
53.658203
  20
886.03302
  0
VERTEX
  5
33a
  8
Layer_0
  10
67.888
  20
881.53796
  0
VERTEX
  5
33b
  8
Layer_0
  10
67.888062
  20
881.53821
  42
-0.00075752255
  0
VERTEX
  5
33c
  8
Layer_0
  10
67.872986
  20
881.47418
  0
VERTEX
  5
33d
  8
Layer_0
  10
53.136719
  20
883.82861
  0
VERTEX
  5
33e
  8
Layer_0
  10
51.798157
  20
877.9798
  0
VERTEX
  5
33f
  8
Layer_0
  10
66.099121
  20
873.69116
  0
VERTEX
  5
340
  8
Layer_0
  10
66.099182
  20
873.69135
  42
8.2315565e-05
  0
VERTEX
  5
341
  8
Layer_0
  10
66.085327
  20
873.62854
  0
VERTEX
  5
342
  8
Layer_0
  10
51.309021
  20
875.76819
  0
VERTEX
  5
343
  8
Layer_0
  10
50.056152
  20
869.90045
  0
VERTEX
  5
344
  8
Layer_0
  10
64.426025
  20
865.81891
  0
VERTEX
  5
345
  8
Layer_0
  10
64.426025
  20
865.81915
  0
VERTEX
  5
346
  8
Layer_0
  10
64.419434
  20
865.78688
  0
VERTEX
  5
347
  8
Layer_0
  10
64.412842
  20
865.75461
  0
VERTEX
  5
348
  8
Layer_0
  10
64.412842
  20
865.75488
  0
VERTEX
  5
349
  8
Layer_0
  10
49.599304
  20
867.68182
  0
VERTEX
  5
34a
  8
Layer_0
  10
48.432434
  20
861.79639
  0
VERTEX
  5
34b
  8
Layer_0
  10
62.868347
  20
857.92029
  0
VERTEX
  5
34c
  8
Layer_0
  10
62.868958
  20
857.92365
  42
1.6486499e-05
  0
VERTEX
  5
34d
  8
Layer_0
  10
62.857056
  20
857.86047
  0
VERTEX
  5
34e
  8
Layer_0
  10
62.857544
  20
857.86298
  0
VERTEX
  5
34f
  8
Layer_0
  10
48.00824
  20
859.57147
  0
VERTEX
  5
350
  8
Layer_0
  10
46.927551
  20
853.66956
  0
VERTEX
  5
351
  8
Layer_0
  10
61.428101
  20
850.00562
  0
VERTEX
  5
352
  8
Layer_0
  10
61.428101
  20
850.00586
  42
0.0010299288
  0
VERTEX
  5
353
  8
Layer_0
  10
61.417786
  20
849.94653
  0
VERTEX
  5
354
  8
Layer_0
  10
46.535889
  20
851.43848
  0
VERTEX
  5
355
  8
Layer_0
  10
45.541687
  20
845.52142
  0
VERTEX
  5
356
  8
Layer_0
  10
60.103271
  20
842.06543
  42
0.00030058987
  0
VERTEX
  5
357
  8
Layer_0
  10
60.094177
  20
842.00836
  0
VERTEX
  5
358
  8
Layer_0
  10
60.094238
  20
842.00861
  0
VERTEX
  5
359
  8
Layer_0
  10
45.182617
  20
843.28497
  0
VERTEX
  5
35a
  8
Layer_0
  10
44.275024
  20
837.354
  0
VERTEX
  5
35b
  8
Layer_0
  10
58.937439
  20
834.09967
  0
VERTEX
  5
35c
  8
Layer_0
  10
43.955566
  20
835.15948
  0
VERTEX
  5
35d
  8
Layer_0
  10
43.134399
  20
829.21594
  0
VERTEX
  5
35e
  8
Layer_0
  10
57.85083
  20
826.17346
  0
VERTEX
  5
35f
  8
Layer_0
  10
42.846802
  20
827.01697
  0
VERTEX
  5
360
  8
Layer_0
  10
42.112122
  20
821.06213
  0
VERTEX
  5
361
  8
Layer_0
  10
56.87677
  20
818.23297
  0
SEQEND
  0
POLYLINE
  5
363
  8
Layer_0
  62
7
  66
1
  10
0
  20
0
  30
0
  0
VERTEX
  5
363
  8
Layer_0
  10
603.37097
  20
1074.8571
  0
VERTEX
  5
364
  8
Layer_0
  10
603.22784
  20
1074.8571
  0
VERTEX
  5
365
  8
Layer_0
  10
599.50581
  20
1074.8359
  0
VERTEX
  5
366
  8
Layer_0
  10
595.79393
  20
1074.7724
  0
VERTEX
  5
367
  8
Layer_0
  10
592.09242
  20
1074.6669
  0
VERTEX
  5
368
  8
Layer_0
  10
588.40152
  20
1074.5197
  0
VERTEX
  5
369
  8
Layer_0
  10
584.72146
  20
1074.3309
  0
VERTEX
  5
36a
  8
Layer_0
  10
581.05247
  20
1074.1007
  0
VERTEX
  5
36b
  8
Layer_0
  10
577.39476
  20
1073.8294
  0
VERTEX
  5
36c
  8
Layer_0
  10
573.74859
  20
1073.5173
  0
VERTEX
  5
36d
  8
Layer_0
  10
570.11416
  20
1073.1645
  0
VERTEX
  5
36e
  8
Layer_0
  10
566.49172
  20
1072.7713
  0
VERTEX
  5
36f
  8
Layer_0
  10
562.88148
  20
1072.3379
  0
VERTEX
  5
370
  8
Layer_0
  10
559.28368
  20
1071.8646
  0
VERTEX
  5
371
  8
Layer_0
  10
555.69855
  20
1071.3515
  0
VERTEX
  5
372
  8
Layer_0
  10
552.12632
  20
1070.7989
  0
VERTEX
  5
373
  8
Layer_0
  10
548.56721
  20
1070.207
  0
VERTEX
  5
374
  8
Layer_0
  10
545.02146
  20
1069.5761
  0
VERTEX
  5
375
  8
Layer_0
  10
541.48929
  20
1068.9064
  0
VERTEX
  5
376
  8
Layer_0
  10
537.97093
  20
1068.1981
  0
VERTEX
  5
377
  8
Layer_0
  10
534.46661
  20
1067.4515
  0
VERTEX
  5
378
  8
Layer_0
  10
530.97656
  20
1066.6667
  0
VERTEX
  5
379
  8
Layer_0
  10
527.50101
  20
1065.844
  0
VERTEX
  5
37a
  8
Layer_0
  10
524.04019
  20
1064.9836
  0
VERTEX
  5
37b
  8
Layer_0
  10
520.59432
  20
1064.0858
  0
VERTEX
  5
37c
  8
Layer_0
  10
517.16364
  20
1063.1508
  0
VERTEX
  5
37d
  8
Layer_0
  10
513.74837
  20
1062.1788
  0
VERTEX
  5
37e
  8
Layer_0
  10
510.34875
  20
1061.17
  0
VERTEX
  5
37f
  8
Layer_0
  10
506.96499
  20
1060.1247
  0
VERTEX
  5
380
  8
Layer_0
  10
503.59734
  20
1059.0431
  0
VERTEX
  5
381
  8
Layer_0
  10
500.24602
  20
1057.9255
  0
VERTEX
  5
382
  8
Layer_0
  10
496.91125
  20
1056.772
  0
VERTEX
  5
383
  8
Layer_0
  10
493.59327
  20
1055.5828
  0
VERTEX
  5
384
  8
Layer_0
  10
490.29231
  20
1054.3583
  0
VERTEX
  5
385
  8
Layer_0
  10
487.00859
  20
1053.0987
  0
VERTEX
  5
386
  8
Layer_0
  10
483.74234
  20
1051.8041
  0
VERTEX
  5
387
  8
Layer_0
  10
480.4938
  20
1050.4748
  0
VERTEX
  5
388
  8
Layer_0
  10
477.26319
  20
1049.1111
  0
VERTEX
  5
389
  8
Layer_0
  10
474.05073
  20
1047.7131
  0
VERTEX
  5
38a
  8
Layer_0
  10
470.85667
  20
1046.2811
  0
VERTEX
  5
38b
  8
Layer_0
  10
467.68123
  20
1044.8154
  0
VERTEX
  5
38c
  8
Layer_0
  10
464.52463
  20
1043.316
  0
VERTEX
  5
38d
  8
Layer_0
  10
461.3871
  20
1041.7834
  0
VERTEX
  5
38e
  8
Layer_0
  10
458.26889
  20
1040.2177
  0
VERTEX
  5
38f
  8
Layer_0
  10
455.1702
  20
1038.6191
  0
VERTEX
  5
390
  8
Layer_0
  10
452.09128
  20
1036.9878
  0
VERTEX
  5
391
  8
Layer_0
  10
449.03235
  20
1035.3242
  0
VERTEX
  5
392
  8
Layer_0
  10
445.99363
  20
1033.6283
  0
VERTEX
  5
393
  8
Layer_0
  10
442.97537
  20
1031.9006
  0
VERTEX
  5
394
  8
Layer_0
  10
439.97778
  20
1030.1411
  0
VERTEX
  5
395
  8
Layer_0
  10
437.0011
  20
1028.3501
  0
VERTEX
  5
396
  8
Layer_0
  10
434.04556
  20
1026.5278
  0
VERTEX
  5
397
  8
Layer_0
  10
431.11138
  20
1024.6745
  0
VERTEX
  5
398
  8
Layer_0
  10
428.19879
  20
1022.7904
  0
VERTEX
  5
399
  8
Layer_0
  10
425.30803
  20
1020.8757
  0
VERTEX
  5
39a
  8
Layer_0
  10
422.43931
  20
1018.9307
  0
VERTEX
  5
39b
  8
Layer_0
  10
419.59288
  20
1016.9556
  0
VERTEX
  5
39c
  8
Layer_0
  10
416.76895
  20
1014.9505
  0
VERTEX
  5
39d
  8
Layer_0
  10
413.96776
  20
1012.9159
  0
VERTEX
  5
39e
  8
Layer_0
  10
411.18954
  20
1010.8517
  0
VERTEX
  5
39f
  8
Layer_0
  10
408.43451
  20
1008.7584
  0
VERTEX
  5
3a0
  8
Layer_0
  10
405.7029
  20
1006.6361
  0
VERTEX
  5
3a1
  8
Layer_0
  10
402.99495
  20
1004.485
  0
VERTEX
  5
3a2
  8
Layer_0
  10
400.31088
  20
1002.3055
  0
VERTEX
  5
3a3
  8
Layer_0
  10
397.65092
  20
1000.0976
  0
VERTEX
  5
3a4
  8
Layer_0
  10
395.0153
  20
997.86169
  0
VERTEX
  5
3a5
  8
Layer_0
  10
392.40425
  20
995.59794
  0
VERTEX
  5
3a6
  8
Layer_0
  10
389.81799
  20
993.30659
  0
VERTEX
  5
3a7
  8
Layer_0
  10
387.25676
  20
990.98786
  0
VERTEX
  5
3a8
  8
Layer_0
  10
384.72079
  20
988.642
  0
VERTEX
  5
3a9
  8
Layer_0
  10
382.2103
  20
986.26921
  0
VERTEX
  5
3aa
  8
Layer_0
  10
379.72552
  20
983.86974
  0
VERTEX
  5
3ab
  8
Layer_0
  10
377.26668
  20
981.44381
  0
VERTEX
  5
3ac
  8
Layer_0
  10
374.83401
  20
978.99166
  0
VERTEX
  5
3ad
  8
Layer_0
  10
372.42774
  20
976.5135
  0
VERTEX
  5
3ae
  8
Layer_0
  10
370.0481
  20
974.00957
  0
VERTEX
  5
3af
  8
Layer_0
  10
367.69532
  20
971.4801
  0
VERTEX
  5
3b0
  8
Layer_0
  10
365.36962
  20
968.92532
  0
VERTEX
  5
3b1
  8
Layer_0
  10
363.07124
  20
966.34545
  0
VERTEX
  5
3b2
  8
Layer_0
  10
360.8004
  20
963.74073
  0
VERTEX
  5
3b3
  8
Layer_0
  10
358.55733
  20
961.11138
  0
VERTEX
  5
3b4
  8
Layer_0
  10
356.34226
  20
958.45763
  0
VERTEX
  5
3b5
  8
Layer_0
  10
354.15542
  20
955.77972
  0
VERTEX
  5
3b6
  8
Layer_0
  10
351.99704
  20
953.07786
  0
VERTEX
  5
3b7
  8
Layer_0
  10
349.86735
  20
950.35229
  0
VERTEX
  5
3b8
  8
Layer_0
  10
347.76658
  20
947.60324
  0
VERTEX
  5
3b9
  8
Layer_0
  10
345.69495
  20
944.83094
  0
VERTEX
  5
3ba
  8
Layer_0
  10
343.65269
  20
942.03561
  0
VERTEX
  5
3bb
  8
Layer_0
  10
341.64004
  20
939.21748
  0
VERTEX
  5
3bc
  8
Layer_0
  10
339.65722
  20
936.37679
  0
VERTEX
  5
3bd
  8
Layer_0
  10
337.70446
  20
933.51376
  0
VERTEX
  5
3be
  8
Layer_0
  10
335.78199
  20
930.62862
  0
VERTEX
  5
3bf
  8
Layer_0
  10
333.89004
  20
927.7216
  0
VERTEX
  5
3c0
  8
Layer_0
  10
332.02883
  20
924.79293
  0
VERTEX
  5
3c1
  8
Layer_0
  10
330.19861
  20
921.84283
  0
VERTEX
  5
3c2
  8
Layer_0
  10
328.39958
  20
918.87154
  0
VERTEX
  5
3c3
  8
Layer_0
  10
326.63199
  20
915.87929
  0
VERTEX
  5
3c4
  8
Layer_0
  10
324.89607
  20
912.8663
  0
VERTEX
  5
3c5
  8
Layer_0
  10
323.19203
  20
909.8328
  0
VERTEX
  5
3c6
  8
Layer_0
  10
321.52012
  20
906.77903
  0
VERTEX
  5
3c7
  8
Layer_0
  10
319.88055
  20
903.7052
  0
VERTEX
  5
3c8
  8
Layer_0
  10
318.27356
  20
900.61156
  0
VERTEX
  5
3c9
  8
Layer_0
  10
316.69938
  20
897.49832
  0
VERTEX
  5
3ca
  8
Layer_0
  10
315.15824
  20
894.36572
  0
VERTEX
  5
3cb
  8
Layer_0
  10
313.65036
  20
891.21398
  0
VERTEX
  5
3cc
  8
Layer_0
  10
312.17598
  20
888.04334
  0
VERTEX
  5
3cd
  8
Layer_0
  10
310.73531
  20
884.85402
  0
VERTEX
  5
3ce
  8
Layer_0
  10
309.3286
  20
881.64626
  0
VERTEX
  5
3cf
  8
Layer_0
  10
307.95607
  20
878.42028
  0
VERTEX
  5
3d0
  8
Layer_0
  10
306.61795
  20
875.1763
  0
VERTEX
  5
3d1
  8
Layer_0
  10
305.31446
  20
871.91457
  0
VERTEX
  5
3d2
  8
Layer_0
  10
304.04584
  20
868.6353
  0
VERTEX
  5
3d3
  8
Layer_0
  10
302.81232
  20
865.33873
  0
VERTEX
  5
3d4
  8
Layer_0
  10
301.61412
  20
862.02509
  0
VERTEX
  5
3d5
  8
Layer_0
  10
300.45148
  20
858.6946
  0
VERTEX
  5
3d6
  8
Layer_0
  10
299.32462
  20
855.34749
  0
VERTEX
  5
3d7
  8
Layer_0
  10
298.23377
  20
851.984
  0
VERTEX
  5
3d8
  8
Layer_0
  10
297.17915
  20
848.60434
  0
VERTEX
  5
3d9
  8
Layer_0
  10
296.16101
  20
845.20876
  0
VERTEX
  5
3da
  8
Layer_0
  10
295.17957
  20
841.79747
  0
VERTEX
  5
3db
  8
Layer_0
  10
294.23505
  20
838.37072
  0
VERTEX
  5
3dc
  8
Layer_0
  10
293.32769
  20
834.92872
  0
VERTEX
  5
3dd
  8
Layer_0
  10
292.45771
  20
831.4717
  0
VERTEX
  5
3de
  8
Layer_0
  10
291.62534
  20
827.9999
  0
VERTEX
  5
3df
  8
Layer_0
  10
290.83082
  20
824.51354
  0
VERTEX
  5
3e0
  8
Layer_0
  10
290.07436
  20
821.01285
  0
VERTEX
  5
3e1
  8
Layer_0
  10
289.35621
  20
817.49807
  0
VERTEX
  5
3e2
  8
Layer_0
  10
288.67659
  20
813.96941
  0
VERTEX
  5
3e3
  8
Layer_0
  10
288.03572
  20
810.42711
  0
VERTEX
  5
3e4
  8
Layer_0
  10
287.43384
  20
806.8714
  0
VERTEX
  5
3e5
  8
Layer_0
  10
286.67731
  20
798.22412
  0
VERTEX
  5
3e6
  8
Layer_0
  10
244.57098
  20
0
  0
VERTEX
  5
3e7
  8
Layer_0
  10
16.510193
  20
11.874634
  42
0.011295979
  0
VERTEX
  5
3e8
  8
Layer_0
  10
16.51178
  20
11.943787
  42
0.41421356
  0
VERTEX
  5
3e9
  8
Layer_0
  10
15.01178
  20
13.443787
  42
0.4042272
  0
VERTEX
  5
3ea
  8
Layer_0
  10
13.512695
  20
11.996094
  0
VERTEX
  5
3eb
  8
Layer_0
  10
0
  20
12.468018
  0
VERTEX
  5
3ec
  8
Layer_0
  10
41.865112
  20
810.96179
  0
VERTEX
  5
3ed
  8
Layer_0
  10
56.369568
  20
810.20166
  0
VERTEX
  5
3ee
  8
Layer_0
  10
56.08783
  20
810.23669
  0
VERTEX
  5
3ef
  8
Layer_0
  10
41.208496
  20
812.86407
  0
VERTEX
  5
3f0
  8
Layer_0
  10
41.859802
  20
818.85925
  0
VERTEX
  5
3f1
  8
Layer_0
  10
56.953186
  20
818.23035
  0
VERTEX
  5
3f2
  8
Layer_0
  10
57.562874
  20
818.17639
  0
SEQEND
  0
POLYLINE
  5
3f4
  8
Layer_0
  62
7
  70
1
  66
1
  10
0
  20
0
  30
0
  0
VERTEX
  5
3f4
  8
Layer_0
  10
57.562874
  20
818.17639
  0
VERTEX
  5
3f5
  8
Layer_0
  10
57.562538
  20
818.17639
  0
SEQEND
  0
ENDSEC
  0
EOF
