  0
SECTION
  2
HEADER
  9
$ACADVER
  1
AC1009
  0
ENDSEC
  0
SECTION
  2
TABLES
  0
TABLE
  2
LAYER
  70
1
  0
LAYER
  2
Layer_0
  70
0
  62
7
  6
CONTINUOUS
  0
ENDTAB
  0
ENDSEC
  0
SECTION
  2
ENTITIES
  0
POLYLINE
  5
90
  8
Layer_0
  62
7
  66
1
  10
0
  20
0
  30
0
  0
VERTEX
  5
90
  8
Layer_0
  10
821.42963
  20
826.73834
  0
VERTEX
  5
91
  8
Layer_0
  10
821.42963
  20
826.7382
  0
VERTEX
  5
92
  8
Layer_0
  10
821.42963
  20
826.73807
  0
SEQEND
  0
POLYLINE
  5
94
  8
Layer_0
  62
7
  66
1
  10
0
  20
0
  30
0
  0
VERTEX
  5
94
  8
Layer_0
  10
265.99994
  20
1074.8571
  0
VERTEX
  5
95
  8
Layer_0
  10
0
  20
1074.8571
  0
VERTEX
  5
96
  8
Layer_0
  10
0
  20
1303.3571
  42
0.41421356
  0
VERTEX
  5
97
  8
Layer_0
  10
1.5
  20
1304.8571
  42
0.41421356
  0
VERTEX
  5
98
  8
Layer_0
  10
0
  20
1306.3571
  0
VERTEX
  5
99
  8
Layer_0
  10
0
  20
1319.8571
  0
VERTEX
  5
9a
  8
Layer_0
  10
0.0080846734
  20
1319.857
  0
VERTEX
  5
9b
  8
Layer_0
  10
0.064435631
  20
1319.8569
  0
VERTEX
  5
9c
  8
Layer_0
  10
0.12575641
  20
1319.8568
  0
VERTEX
  5
9d
  8
Layer_0
  10
0.21719828
  20
1319.8567
  0
VERTEX
  5
9e
  8
Layer_0
  10
0.34477943
  20
1319.8565
  0
VERTEX
  5
9f
  8
Layer_0
  10
0.51451802
  20
1319.8564
  0
VERTEX
  5
a0
  8
Layer_0
  10
0.73243224
  20
1319.8562
  0
VERTEX
  5
a1
  8
Layer_0
  10
1.0045403
  20
1319.856
  0
VERTEX
  5
a2
  8
Layer_0
  10
1.3368603
  20
1319.8558
  0
VERTEX
  5
a3
  8
Layer_0
  10
1.7354104
  20
1319.8556
  0
VERTEX
  5
a4
  8
Layer_0
  10
2.2062089
  20
1319.8554
  0
VERTEX
  5
a5
  8
Layer_0
  10
2.7552739
  20
1319.8552
  0
VERTEX
  5
a6
  8
Layer_0
  10
3.3886236
  20
1319.855
  0
VERTEX
  5
a7
  8
Layer_0
  10
4.1122761
  20
1319.8547
  0
VERTEX
  5
a8
  8
Layer_0
  10
4.5098466
  20
1319.8546
  0
VERTEX
  5
a9
  8
Layer_0
  10
4.9322496
  20
1319.8545
  0
VERTEX
  5
aa
  8
Layer_0
  10
5.3802375
  20
1319.8544
  0
VERTEX
  5
ab
  8
Layer_0
  10
5.8545624
  20
1319.8542
  0
VERTEX
  5
ac
  8
Layer_0
  10
6.3559767
  20
1319.8541
  0
VERTEX
  5
ad
  8
Layer_0
  10
6.8852325
  20
1319.854
  0
VERTEX
  5
ae
  8
Layer_0
  10
7.4430823
  20
1319.8539
  0
VERTEX
  5
af
  8
Layer_0
  10
8.0302782
  20
1319.8537
  0
VERTEX
  5
b0
  8
Layer_0
  10
8.6475726
  20
1319.8536
  0
VERTEX
  5
b1
  8
Layer_0
  10
9.2957177
  20
1319.8535
  0
VERTEX
  5
b2
  8
Layer_0
  10
9.9754657
  20
1319.8533
  0
VERTEX
  5
b3
  8
Layer_0
  10
10.687569
  20
1319.8532
  0
VERTEX
  5
b4
  8
Layer_0
  10
11.43278
  20
1319.8531
  0
VERTEX
  5
b5
  8
Layer_0
  10
12.21185
  20
1319.853
  0
VERTEX
  5
b6
  8
Layer_0
  10
13.025533
  20
1319.8528
  0
VERTEX
  5
b7
  8
Layer_0
  10
13.87458
  20
1319.8527
  0
VERTEX
  5
b8
  8
Layer_0
  10
14.759744
  20
1319.8526
  0
VERTEX
  5
b9
  8
Layer_0
  10
15.681776
  20
1319.8524
  0
VERTEX
  5
ba
  8
Layer_0
  10
16.64143
  20
1319.8523
  0
VERTEX
  5
bb
  8
Layer_0
  10
17.639457
  20
1319.8522
  0
VERTEX
  5
bc
  8
Layer_0
  10
18.67661
  20
1319.8521
  0
VERTEX
  5
bd
  8
Layer_0
  10
19.753641
  20
1319.8519
  0
VERTEX
  5
be
  8
Layer_0
  10
20.871302
  20
1319.8518
  0
VERTEX
  5
bf
  8
Layer_0
  10
22.030345
  20
1319.8517
  0
VERTEX
  5
c0
  8
Layer_0
  10
23.231523
  20
1319.8516
  0
VERTEX
  5
c1
  8
Layer_0
  10
24.475589
  20
1319.8515
  0
VERTEX
  5
c2
  8
Layer_0
  10
25.763293
  20
1319.8514
  0
VERTEX
  5
c3
  8
Layer_0
  10
27.09539
  20
1319.8513
  0
VERTEX
  5
c4
  8
Layer_0
  10
28.47263
  20
1319.8512
  0
VERTEX
  5
c5
  8
Layer_0
  10
29.895766
  20
1319.8511
  0
VERTEX
  5
c6
  8
Layer_0
  10
31.365551
  20
1319.851
  0
VERTEX
  5
c7
  8
Layer_0
  10
32.882736
  20
1319.8509
  0
VERTEX
  5
c8
  8
Layer_0
  10
34.448075
  20
1319.8508
  0
VERTEX
  5
c9
  8
Layer_0
  10
36.062318
  20
1319.8507
  0
VERTEX
  5
ca
  8
Layer_0
  10
37.726219
  20
1319.8506
  0
VERTEX
  5
cb
  8
Layer_0
  10
39.44053
  20
1319.8505
  0
VERTEX
  5
cc
  8
Layer_0
  10
41.206003
  20
1319.8504
  0
VERTEX
  5
cd
  8
Layer_0
  10
43.02339
  20
1319.8503
  0
VERTEX
  5
ce
  8
Layer_0
  10
44.893444
  20
1319.8503
  0
VERTEX
  5
cf
  8
Layer_0
  10
46.816917
  20
1319.8502
  0
VERTEX
  5
d0
  8
Layer_0
  10
48.794561
  20
1319.8501
  0
VERTEX
  5
d1
  8
Layer_0
  10
50.827128
  20
1319.8501
  0
VERTEX
  5
d2
  8
Layer_0
  10
52.915371
  20
1319.85
  0
VERTEX
  5
d3
  8
Layer_0
  10
55.060042
  20
1319.8499
  0
VERTEX
  5
d4
  8
Layer_0
  10
57.261893
  20
1319.8499
  0
VERTEX
  5
d5
  8
Layer_0
  10
59.521676
  20
1319.8499
  0
VERTEX
  5
d6
  8
Layer_0
  10
61.840145
  20
1319.8498
  0
VERTEX
  5
d7
  8
Layer_0
  10
64.21805
  20
1319.8498
  0
VERTEX
  5
d8
  8
Layer_0
  10
66.656145
  20
1319.8498
  0
VERTEX
  5
d9
  8
Layer_0
  10
69.155181
  20
1319.8497
  0
VERTEX
  5
da
  8
Layer_0
  10
71.715911
  20
1319.8497
  0
VERTEX
  5
db
  8
Layer_0
  10
74.339088
  20
1319.8497
  0
VERTEX
  5
dc
  8
Layer_0
  10
77.025462
  20
1319.8497
  0
VERTEX
  5
dd
  8
Layer_0
  10
79.775788
  20
1319.8497
  0
VERTEX
  5
de
  8
Layer_0
  10
82.590816
  20
1319.8497
  0
VERTEX
  5
df
  8
Layer_0
  10
85.4713
  20
1319.8497
  0
VERTEX
  5
e0
  8
Layer_0
  10
88.417991
  20
1319.8497
  0
VERTEX
  5
e1
  8
Layer_0
  10
91.431641
  20
1319.8498
  0
VERTEX
  5
e2
  8
Layer_0
  10
94.513004
  20
1319.8498
  0
VERTEX
  5
e3
  8
Layer_0
  10
97.662831
  20
1319.8498
  0
VERTEX
  5
e4
  8
Layer_0
  10
100.88188
  20
1319.8499
  0
VERTEX
  5
e5
  8
Layer_0
  10
104.17089
  20
1319.8499
  0
VERTEX
  5
e6
  8
Layer_0
  10
107.53062
  20
1319.85
  0
VERTEX
  5
e7
  8
Layer_0
  10
110.96183
  20
1319.8501
  0
VERTEX
  5
e8
  8
Layer_0
  10
114.46526
  20
1319.8502
  0
VERTEX
  5
e9
  8
Layer_0
  10
118.04167
  20
1319.8502
  0
VERTEX
  5
ea
  8
Layer_0
  10
121.69181
  20
1319.8503
  0
VERTEX
  5
eb
  8
Layer_0
  10
125.41644
  20
1319.8504
  0
VERTEX
  5
ec
  8
Layer_0
  10
129.21629
  20
1319.8505
  0
VERTEX
  5
ed
  8
Layer_0
  10
133.09214
  20
1319.8507
  0
VERTEX
  5
ee
  8
Layer_0
  10
137.04472
  20
1319.8508
  0
VERTEX
  5
ef
  8
Layer_0
  10
141.0748
  20
1319.8509
  0
VERTEX
  5
f0
  8
Layer_0
  10
145.18312
  20
1319.8511
  0
VERTEX
  5
f1
  8
Layer_0
  10
149.37044
  20
1319.8512
  0
VERTEX
  5
f2
  8
Layer_0
  10
153.6375
  20
1319.8514
  0
VERTEX
  5
f3
  8
Layer_0
  10
157.98506
  20
1319.8515
  0
VERTEX
  5
f4
  8
Layer_0
  10
162.41388
  20
1319.8517
  0
VERTEX
  5
f5
  8
Layer_0
  10
166.92471
  20
1319.8519
  0
VERTEX
  5
f6
  8
Layer_0
  10
171.51829
  20
1319.8521
  0
VERTEX
  5
f7
  8
Layer_0
  10
176.19538
  20
1319.8523
  0
VERTEX
  5
f8
  8
Layer_0
  10
180.95673
  20
1319.8525
  0
VERTEX
  5
f9
  8
Layer_0
  10
185.8031
  20
1319.8528
  0
VERTEX
  5
fa
  8
Layer_0
  10
190.73523
  20
1319.853
  0
VERTEX
  5
fb
  8
Layer_0
  10
195.75388
  20
1319.8532
  0
VERTEX
  5
fc
  8
Layer_0
  10
200.8598
  20
1319.8535
  0
VERTEX
  5
fd
  8
Layer_0
  10
206.05375
  20
1319.8538
  0
VERTEX
  5
fe
  8
Layer_0
  10
211.33647
  20
1319.854
  0
VERTEX
  5
ff
  8
Layer_0
  10
216.70872
  20
1319.8543
  0
VERTEX
  5
100
  8
Layer_0
  10
222.17125
  20
1319.8546
  0
VERTEX
  5
101
  8
Layer_0
  10
227.72481
  20
1319.8549
  0
VERTEX
  5
102
  8
Layer_0
  10
233.37016
  20
1319.8553
  0
VERTEX
  5
103
  8
Layer_0
  10
239.10805
  20
1319.8556
  0
VERTEX
  5
104
  8
Layer_0
  10
244.93922
  20
1319.8559
  0
VERTEX
  5
105
  8
Layer_0
  10
250.86444
  20
1319.8563
  0
VERTEX
  5
106
  8
Layer_0
  10
256.88444
  20
1319.8567
  0
VERTEX
  5
107
  8
Layer_0
  10
263
  20
1319.8571
  0
SEQEND
  0
POLYLINE
  5
109
  8
Layer_0
  62
7
  66
1
  10
0
  20
0
  30
0
  0
VERTEX
  5
109
  8
Layer_0
  10
701.67224
  20
1090.5939
  0
VERTEX
  5
10a
  8
Layer_0
  10
701.70178
  20
1090.5555
  0
VERTEX
  5
10b
  8
Layer_0
  10
701.70181
  20
1090.5555
  0
VERTEX
  5
10c
  8
Layer_0
  10
701.70181
  20
1090.5555
  0
SEQEND
  0
POLYLINE
  5
10e
  8
Layer_0
  62
7
  66
1
  10
0
  20
0
  30
0
  0
VERTEX
  5
10e
  8
Layer_0
  10
706.54114
  20
1084.1891
  0
VERTEX
  5
10f
  8
Layer_0
  10
706.57092
  20
1084.1493
  0
VERTEX
  5
110
  8
Layer_0
  10
706.57092
  20
1084.1493
  0
VERTEX
  5
111
  8
Layer_0
  10
706.57092
  20
1084.1493
  0
SEQEND
  0
POLYLINE
  5
113
  8
Layer_0
  62
7
  66
1
  10
0
  20
0
  30
0
  0
VERTEX
  5
113
  8
Layer_0
  10
711.31604
  20
1077.7143
  0
VERTEX
  5
114
  8
Layer_0
  10
711.31627
  20
1077.714
  0
VERTEX
  5
115
  8
Layer_0
  10
711.3165
  20
1077.7137
  0
SEQEND
  0
POLYLINE
  5
117
  8
Layer_0
  62
7
  66
1
  10
0
  20
0
  30
0
  0
VERTEX
  5
117
  8
Layer_0
  10
265.85681
  20
1074.8571
  0
VERTEX
  5
118
  8
Layer_0
  10
265.99994
  20
1074.8571
  0
VERTEX
  5
119
  8
Layer_0
  10
269.72197
  20
1074.8359
  0
VERTEX
  5
11a
  8
Layer_0
  10
273.43386
  20
1074.7724
  0
VERTEX
  5
11b
  8
Layer_0
  10
277.13536
  20
1074.6669
  0
VERTEX
  5
11c
  8
Layer_0
  10
280.82626
  20
1074.5197
  0
VERTEX
  5
11d
  8
Layer_0
  10
284.50632
  20
1074.3309
  0
VERTEX
  5
11e
  8
Layer_0
  10
288.17532
  20
1074.1007
  0
VERTEX
  5
11f
  8
Layer_0
  10
291.83302
  20
1073.8294
  0
VERTEX
  5
120
  8
Layer_0
  10
295.4792
  20
1073.5173
  0
VERTEX
  5
121
  8
Layer_0
  10
299.11362
  20
1073.1645
  0
VERTEX
  5
122
  8
Layer_0
  10
302.73607
  20
1072.7713
  0
VERTEX
  5
123
  8
Layer_0
  10
306.3463
  20
1072.3379
  0
VERTEX
  5
124
  8
Layer_0
  10
309.9441
  20
1071.8646
  0
VERTEX
  5
125
  8
Layer_0
  10
313.52923
  20
1071.3515
  0
VERTEX
  5
126
  8
Layer_0
  10
317.10146
  20
1070.7989
  0
VERTEX
  5
127
  8
Layer_0
  10
320.66057
  20
1070.207
  0
VERTEX
  5
128
  8
Layer_0
  10
324.20632
  20
1069.5761
  0
VERTEX
  5
129
  8
Layer_0
  10
327.73849
  20
1068.9064
  0
VERTEX
  5
12a
  8
Layer_0
  10
331.25685
  20
1068.1981
  0
VERTEX
  5
12b
  8
Layer_0
  10
334.76117
  20
1067.4515
  0
VERTEX
  5
12c
  8
Layer_0
  10
338.25122
  20
1066.6667
  0
VERTEX
  5
12d
  8
Layer_0
  10
341.72677
  20
1065.844
  0
VERTEX
  5
12e
  8
Layer_0
  10
345.18759
  20
1064.9836
  0
VERTEX
  5
12f
  8
Layer_0
  10
348.63346
  20
1064.0858
  0
VERTEX
  5
130
  8
Layer_0
  10
352.06414
  20
1063.1508
  0
VERTEX
  5
131
  8
Layer_0
  10
355.47941
  20
1062.1788
  0
VERTEX
  5
132
  8
Layer_0
  10
358.87904
  20
1061.17
  0
VERTEX
  5
133
  8
Layer_0
  10
362.26279
  20
1060.1247
  0
VERTEX
  5
134
  8
Layer_0
  10
365.63044
  20
1059.0431
  0
VERTEX
  5
135
  8
Layer_0
  10
368.98177
  20
1057.9255
  0
VERTEX
  5
136
  8
Layer_0
  10
372.31653
  20
1056.772
  0
VERTEX
  5
137
  8
Layer_0
  10
375.63451
  20
1055.5828
  0
VERTEX
  5
138
  8
Layer_0
  10
378.93548
  20
1054.3583
  0
VERTEX
  5
139
  8
Layer_0
  10
382.2192
  20
1053.0987
  0
VERTEX
  5
13a
  8
Layer_0
  10
385.48544
  20
1051.8041
  0
VERTEX
  5
13b
  8
Layer_0
  10
388.73399
  20
1050.4748
  0
VERTEX
  5
13c
  8
Layer_0
  10
391.9646
  20
1049.1111
  0
VERTEX
  5
13d
  8
Layer_0
  10
395.17705
  20
1047.7131
  0
VERTEX
  5
13e
  8
Layer_0
  10
398.37111
  20
1046.2811
  0
VERTEX
  5
13f
  8
Layer_0
  10
401.54656
  20
1044.8154
  0
VERTEX
  5
140
  8
Layer_0
  10
404.70316
  20
1043.316
  0
VERTEX
  5
141
  8
Layer_0
  10
407.84068
  20
1041.7834
  0
VERTEX
  5
142
  8
Layer_0
  10
410.9589
  20
1040.2177
  0
VERTEX
  5
143
  8
Layer_0
  10
414.05758
  20
1038.6191
  0
VERTEX
  5
144
  8
Layer_0
  10
417.1365
  20
1036.9878
  0
VERTEX
  5
145
  8
Layer_0
  10
420.19544
  20
1035.3242
  0
VERTEX
  5
146
  8
Layer_0
  10
423.23415
  20
1033.6283
  0
VERTEX
  5
147
  8
Layer_0
  10
426.25241
  20
1031.9006
  0
VERTEX
  5
148
  8
Layer_0
  10
429.25
  20
1030.1411
  0
VERTEX
  5
149
  8
Layer_0
  10
432.22668
  20
1028.3501
  0
VERTEX
  5
14a
  8
Layer_0
  10
435.18222
  20
1026.5278
  0
VERTEX
  5
14b
  8
Layer_0
  10
438.1164
  20
1024.6745
  0
VERTEX
  5
14c
  8
Layer_0
  10
441.02899
  20
1022.7904
  0
VERTEX
  5
14d
  8
Layer_0
  10
443.91976
  20
1020.8757
  0
VERTEX
  5
14e
  8
Layer_0
  10
446.78847
  20
1018.9307
  0
VERTEX
  5
14f
  8
Layer_0
  10
449.63491
  20
1016.9556
  0
VERTEX
  5
150
  8
Layer_0
  10
452.45883
  20
1014.9505
  0
VERTEX
  5
151
  8
Layer_0
  10
455.26002
  20
1012.9159
  0
VERTEX
  5
152
  8
Layer_0
  10
458.03825
  20
1010.8517
  0
VERTEX
  5
153
  8
Layer_0
  10
460.79327
  20
1008.7584
  0
VERTEX
  5
154
  8
Layer_0
  10
463.52488
  20
1006.6361
  0
VERTEX
  5
155
  8
Layer_0
  10
466.23283
  20
1004.485
  0
VERTEX
  5
156
  8
Layer_0
  10
468.9169
  20
1002.3055
  0
VERTEX
  5
157
  8
Layer_0
  10
471.57686
  20
1000.0976
  0
VERTEX
  5
158
  8
Layer_0
  10
474.21248
  20
997.86169
  0
VERTEX
  5
159
  8
Layer_0
  10
476.82354
  20
995.59794
  0
VERTEX
  5
15a
  8
Layer_0
  10
479.40979
  20
993.30659
  0
VERTEX
  5
15b
  8
Layer_0
  10
481.97102
  20
990.98786
  0
VERTEX
  5
15c
  8
Layer_0
  10
484.507
  20
988.642
  0
VERTEX
  5
15d
  8
Layer_0
  10
487.01749
  20
986.26921
  0
VERTEX
  5
15e
  8
Layer_0
  10
489.50227
  20
983.86974
  0
VERTEX
  5
15f
  8
Layer_0
  10
491.9611
  20
981.44381
  0
VERTEX
  5
160
  8
Layer_0
  10
494.39377
  20
978.99166
  0
VERTEX
  5
161
  8
Layer_0
  10
496.80004
  20
976.5135
  0
VERTEX
  5
162
  8
Layer_0
  10
499.17968
  20
974.00957
  0
VERTEX
  5
163
  8
Layer_0
  10
501.53246
  20
971.4801
  0
VERTEX
  5
164
  8
Layer_0
  10
503.85816
  20
968.92532
  0
VERTEX
  5
165
  8
Layer_0
  10
506.15655
  20
966.34545
  0
VERTEX
  5
166
  8
Layer_0
  10
508.42739
  20
963.74073
  0
VERTEX
  5
167
  8
Layer_0
  10
510.67046
  20
961.11138
  0
VERTEX
  5
168
  8
Layer_0
  10
512.88552
  20
958.45763
  0
VERTEX
  5
169
  8
Layer_0
  10
515.07236
  20
955.77972
  0
VERTEX
  5
16a
  8
Layer_0
  10
517.23074
  20
953.07786
  0
VERTEX
  5
16b
  8
Layer_0
  10
519.36043
  20
950.35229
  0
VERTEX
  5
16c
  8
Layer_0
  10
521.46121
  20
947.60324
  0
VERTEX
  5
16d
  8
Layer_0
  10
523.53284
  20
944.83094
  0
VERTEX
  5
16e
  8
Layer_0
  10
525.57509
  20
942.03561
  0
VERTEX
  5
16f
  8
Layer_0
  10
527.58774
  20
939.21748
  0
VERTEX
  5
170
  8
Layer_0
  10
529.57056
  20
936.37679
  0
VERTEX
  5
171
  8
Layer_0
  10
531.52332
  20
933.51376
  0
VERTEX
  5
172
  8
Layer_0
  10
533.44579
  20
930.62862
  0
VERTEX
  5
173
  8
Layer_0
  10
535.33775
  20
927.7216
  0
VERTEX
  5
174
  8
Layer_0
  10
537.19895
  20
924.79293
  0
VERTEX
  5
175
  8
Layer_0
  10
539.02918
  20
921.84283
  0
VERTEX
  5
176
  8
Layer_0
  10
540.8282
  20
918.87154
  0
VERTEX
  5
177
  8
Layer_0
  10
542.59579
  20
915.87929
  0
VERTEX
  5
178
  8
Layer_0
  10
544.33172
  20
912.8663
  0
VERTEX
  5
179
  8
Layer_0
  10
546.03575
  20
909.8328
  0
VERTEX
  5
17a
  8
Layer_0
  10
547.70767
  20
906.77903
  0
VERTEX
  5
17b
  8
Layer_0
  10
549.34723
  20
903.7052
  0
VERTEX
  5
17c
  8
Layer_0
  10
550.95422
  20
900.61156
  0
VERTEX
  5
17d
  8
Layer_0
  10
552.5284
  20
897.49832
  0
VERTEX
  5
17e
  8
Layer_0
  10
554.06954
  20
894.36572
  0
VERTEX
  5
17f
  8
Layer_0
  10
555.57742
  20
891.21398
  0
VERTEX
  5
180
  8
Layer_0
  10
557.05181
  20
888.04334
  0
VERTEX
  5
181
  8
Layer_0
  10
558.49247
  20
884.85402
  0
VERTEX
  5
182
  8
Layer_0
  10
559.89918
  20
881.64626
  0
VERTEX
  5
183
  8
Layer_0
  10
561.27171
  20
878.42028
  0
VERTEX
  5
184
  8
Layer_0
  10
562.60984
  20
875.1763
  0
VERTEX
  5
185
  8
Layer_0
  10
563.91332
  20
871.91457
  0
VERTEX
  5
186
  8
Layer_0
  10
565.18194
  20
868.6353
  0
VERTEX
  5
187
  8
Layer_0
  10
566.41546
  20
865.33873
  0
VERTEX
  5
188
  8
Layer_0
  10
567.61366
  20
862.02509
  0
VERTEX
  5
189
  8
Layer_0
  10
568.7763
  20
858.6946
  0
VERTEX
  5
18a
  8
Layer_0
  10
569.90317
  20
855.34749
  0
VERTEX
  5
18b
  8
Layer_0
  10
570.99402
  20
851.984
  0
VERTEX
  5
18c
  8
Layer_0
  10
572.04863
  20
848.60434
  0
VERTEX
  5
18d
  8
Layer_0
  10
573.06677
  20
845.20876
  0
VERTEX
  5
18e
  8
Layer_0
  10
574.04822
  20
841.79747
  0
VERTEX
  5
18f
  8
Layer_0
  10
574.99273
  20
838.37072
  0
VERTEX
  5
190
  8
Layer_0
  10
575.9001
  20
834.92872
  0
VERTEX
  5
191
  8
Layer_0
  10
576.77008
  20
831.4717
  0
VERTEX
  5
192
  8
Layer_0
  10
577.60244
  20
827.9999
  0
VERTEX
  5
193
  8
Layer_0
  10
578.39697
  20
824.51354
  0
VERTEX
  5
194
  8
Layer_0
  10
579.15342
  20
821.01285
  0
VERTEX
  5
195
  8
Layer_0
  10
579.87157
  20
817.49807
  0
VERTEX
  5
196
  8
Layer_0
  10
580.5512
  20
813.96941
  0
VERTEX
  5
197
  8
Layer_0
  10
581.19206
  20
810.42711
  0
VERTEX
  5
198
  8
Layer_0
  10
581.79395
  20
806.8714
  0
VERTEX
  5
199
  8
Layer_0
  10
582.55048
  20
798.22412
  0
VERTEX
  5
19a
  8
Layer_0
  10
624.6568
  20
0
  0
VERTEX
  5
19b
  8
Layer_0
  10
852.71759
  20
11.874634
  42
-0.011295979
  0
VERTEX
  5
19c
  8
Layer_0
  10
852.716
  20
11.943787
  42
-0.41421356
  0
VERTEX
  5
19d
  8
Layer_0
  10
854.216
  20
13.443787
  42
-0.4042272
  0
VERTEX
  5
19e
  8
Layer_0
  10
855.71509
  20
11.996094
  0
VERTEX
  5
19f
  8
Layer_0
  10
869.22778
  20
12.468018
  0
VERTEX
  5
1a0
  8
Layer_0
  10
827.36267
  20
810.96179
  0
VERTEX
  5
1a1
  8
Layer_0
  10
812.85822
  20
810.20166
  0
VERTEX
  5
1a2
  8
Layer_0
  10
813.13995
  20
810.23669
  0
VERTEX
  5
1a3
  8
Layer_0
  10
828.01929
  20
812.86407
  0
VERTEX
  5
1a4
  8
Layer_0
  10
827.36798
  20
818.85925
  0
VERTEX
  5
1a5
  8
Layer_0
  10
812.2746
  20
818.23035
  0
VERTEX
  5
1a6
  8
Layer_0
  10
811.66492
  20
818.17639
  0
SEQEND
  0
POLYLINE
  5
1a8
  8
Layer_0
  62
7
  70
1
  66
1
  10
0
  20
0
  30
0
  0
VERTEX
  5
1a8
  8
Layer_0
  10
811.66492
  20
818.17639
  0
VERTEX
  5
1a9
  8
Layer_0
  10
811.66522
  20
818.17639
  0
SEQEND
  0
POLYLINE
  5
1ab
  8
Layer_0
  62
7
  70
1
  66
1
  10
0
  20
0
  30
0
  0
VERTEX
  5
1ab
  8
Layer_0
  10
605.61694
  20
1187.4719
  0
VERTEX
  5
1ac
  8
Layer_0
  10
605.61615
  20
1187.4725
  0
VERTEX
  5
1ad
  8
Layer_0
  10
605.61768
  20
1187.4713
  42
0.037771783
  0
SEQEND
  0
POLYLINE
  5
1af
  8
Layer_0
  62
7
  66
1
  10
0
  20
0
  30
0
  0
VERTEX
  5
1af
  8
Layer_0
  10
262.0036
  20
1304.8571
  0
VERTEX
  5
1b0
  8
Layer_0
  10
263
  20
1319.8571
  0
VERTEX
  5
1b1
  8
Layer_0
  10
269
  20
1319.8571
  0
VERTEX
  5
1b2
  8
Layer_0
  10
269.99762
  20
1304.8428
  0
VERTEX
  5
1b3
  8
Layer_0
  10
271.26508
  20
1319.8406
  0
VERTEX
  5
1b4
  8
Layer_0
  10
277.2644
  20
1319.7522
  0
VERTEX
  5
1b5
  8
Layer_0
  10
278.04065
  20
1304.7278
  0
VERTEX
  5
1b6
  8
Layer_0
  10
278.03778
  20
1304.7279
  42
-0.0015542838
  0
VERTEX
  5
1b7
  8
Layer_0
  10
278.0993
  20
1304.7266
  0
VERTEX
  5
1b8
  8
Layer_0
  10
279.52899
  20
1319.7029
  0
VERTEX
  5
1b9
  8
Layer_0
  10
285.52643
  20
1319.5264
  0
VERTEX
  5
1ba
  8
Layer_0
  10
286.08398
  20
1304.4971
  0
VERTEX
  5
1bb
  8
Layer_0
  10
286.11328
  20
1304.4961
  0
VERTEX
  5
1bc
  8
Layer_0
  10
286.14258
  20
1304.4951
  0
VERTEX
  5
1bd
  8
Layer_0
  10
287.79004
  20
1319.4447
  0
VERTEX
  5
1be
  8
Layer_0
  10
293.78424
  20
1319.1798
  0
VERTEX
  5
1bf
  8
Layer_0
  10
294.12054
  20
1304.1506
  0
VERTEX
  5
1c0
  8
Layer_0
  10
294.1203
  20
1304.1506
  42
0.0012548164
  0
VERTEX
  5
1c1
  8
Layer_0
  10
294.1875
  20
1304.1472
  0
VERTEX
  5
1c2
  8
Layer_0
  10
294.18719
  20
1304.1472
  0
VERTEX
  5
1c3
  8
Layer_0
  10
296.04639
  20
1319.0656
  0
VERTEX
  5
1c4
  8
Layer_0
  10
302.03613
  20
1318.7119
  0
VERTEX
  5
1c5
  8
Layer_0
  10
302.2041
  20
1303.6844
  0
VERTEX
  5
1c6
  8
Layer_0
  10
302.20386
  20
1303.6844
  0
VERTEX
  5
1c7
  8
Layer_0
  10
304.29633
  20
1318.5657
  0
VERTEX
  5
1c8
  8
Layer_0
  10
310.28027
  20
1318.1272
  0
VERTEX
  5
1c9
  8
Layer_0
  10
310.23102
  20
1303.4208
  0
VERTEX
  5
1ca
  8
Layer_0
  10
312.53809
  20
1317.9451
  0
VERTEX
  5
1cb
  8
Layer_0
  10
318.51501
  20
1317.4192
  0
VERTEX
  5
1cc
  8
Layer_0
  10
318.19702
  20
1302.4125
  0
VERTEX
  5
1cd
  8
Layer_0
  10
318.19629
  20
1302.4126
  0
VERTEX
  5
1ce
  8
Layer_0
  10
320.7699
  20
1317.2041
  0
VERTEX
  5
1cf
  8
Layer_0
  10
326.73846
  20
1316.5908
  0
VERTEX
  5
1d0
  8
Layer_0
  10
326.20135
  20
1301.6001
  0
VERTEX
  5
1d1
  8
Layer_0
  10
326.20026
  20
1301.6002
  42
-0.00037832903
  0
VERTEX
  5
1d2
  8
Layer_0
  10
326.25165
  20
1301.5946
  0
VERTEX
  5
1d3
  8
Layer_0
  10
328.98993
  20
1316.3428
  0
VERTEX
  5
1d4
  8
Layer_0
  10
334.94891
  20
1315.6422
  0
VERTEX
  5
1d5
  8
Layer_0
  10
334.19312
  20
1300.671
  0
VERTEX
  5
1d6
  8
Layer_0
  10
334.19171
  20
1300.6711
  42
0.00010575047
  0
VERTEX
  5
1d7
  8
Layer_0
  10
334.24475
  20
1300.6646
  0
VERTEX
  5
1d8
  8
Layer_0
  10
337.19653
  20
1315.3613
  0
VERTEX
  5
1d9
  8
Layer_0
  10
343.14465
  20
1314.5737
  0
VERTEX
  5
1da
  8
Layer_0
  10
342.17053
  20
1299.6252
  0
VERTEX
  5
1db
  8
Layer_0
  10
342.16882
  20
1299.6255
  42
-0.0019509812
  0
VERTEX
  5
1dc
  8
Layer_0
  10
342.22473
  20
1299.6177
  0
VERTEX
  5
1dd
  8
Layer_0
  10
342.22449
  20
1299.6177
  0
VERTEX
  5
1de
  8
Layer_0
  10
345.38788
  20
1314.2599
  0
VERTEX
  5
1df
  8
Layer_0
  10
351.32385
  20
1313.3853
  0
VERTEX
  5
1e0
  8
Layer_0
  10
350.13196
  20
1298.4628
  42
-0.00012126196
  0
VERTEX
  5
1e1
  8
Layer_0
  10
350.18768
  20
1298.4542
  0
VERTEX
  5
1e2
  8
Layer_0
  10
350.1875
  20
1298.4542
  0
VERTEX
  5
1e3
  8
Layer_0
  10
353.56226
  20
1313.0388
  0
VERTEX
  5
1e4
  8
Layer_0
  10
359.48477
  20
1312.0774
  0
VERTEX
  5
1e5
  8
Layer_0
  10
358.07355
  20
1297.1841
  0
VERTEX
  5
1e6
  8
Layer_0
  10
358.0733
  20
1297.1841
  42
-0.0015577209
  0
VERTEX
  5
1e7
  8
Layer_0
  10
358.13287
  20
1297.1741
  0
VERTEX
  5
1e8
  8
Layer_0
  10
358.13263
  20
1297.1741
  0
VERTEX
  5
1e9
  8
Layer_0
  10
361.7179
  20
1311.6982
  0
VERTEX
  5
1ea
  8
Layer_0
  10
367.62567
  20
1310.6504
  0
VERTEX
  5
1eb
  8
Layer_0
  10
365.9975
  20
1295.7887
  0
VERTEX
  5
1ec
  8
Layer_0
  10
365.99725
  20
1295.7888
  42
-0.00064340178
  0
VERTEX
  5
1ed
  8
Layer_0
  10
366.04855
  20
1295.7793
  0
VERTEX
  5
1ee
  8
Layer_0
  10
369.84119
  20
1310.2385
  0
VERTEX
  5
1ef
  8
Layer_0
  10
375.74487
  20
1309.1021
  0
VERTEX
  5
1f0
  8
Layer_0
  10
373.90353
  20
1294.2764
  42
0.0012324001
  0
VERTEX
  5
1f1
  8
Layer_0
  10
373.97858
  20
1294.2615
  0
VERTEX
  5
1f2
  8
Layer_0
  10
377.96597
  20
1308.6599
  0
VERTEX
  5
1f3
  8
Layer_0
  10
383.84061
  20
1307.4351
  0
VERTEX
  5
1f4
  8
Layer_0
  10
381.78833
  20
1292.6475
  42
-0.0016529721
  0
VERTEX
  5
1f5
  8
Layer_0
  10
381.84412
  20
1292.6355
  0
VERTEX
  5
1f6
  8
Layer_0
  10
381.8439
  20
1292.6355
  0
VERTEX
  5
1f7
  8
Layer_0
  10
386.05493
  20
1306.9629
  0
VERTEX
  5
1f8
  8
Layer_0
  10
391.91107
  20
1305.6567
  0
VERTEX
  5
1f9
  8
Layer_0
  10
389.63867
  20
1290.9048
  0
VERTEX
  5
1fa
  8
Layer_0
  10
389.63519
  20
1290.9058
  42
-7.796055e-05
  0
VERTEX
  5
1fb
  8
Layer_0
  10
389.70062
  20
1290.8906
  0
VERTEX
  5
1fc
  8
Layer_0
  10
389.70041
  20
1290.8906
  0
VERTEX
  5
1fd
  8
Layer_0
  10
394.11823
  20
1305.1477
  0
VERTEX
  5
1fe
  8
Layer_0
  10
399.95465
  20
1303.7561
  0
VERTEX
  5
1ff
  8
Layer_0
  10
397.46432
  20
1289.0465
  0
VERTEX
  5
200
  8
Layer_0
  10
397.46411
  20
1289.0466
  42
0.0012189756
  0
VERTEX
  5
201
  8
Layer_0
  10
397.53064
  20
1289.0303
  0
VERTEX
  5
202
  8
Layer_0
  10
397.5304
  20
1289.0303
  0
VERTEX
  5
203
  8
Layer_0
  10
402.15408
  20
1303.2146
  0
VERTEX
  5
204
  8
Layer_0
  10
407.96951
  20
1301.7379
  0
VERTEX
  5
205
  8
Layer_0
  10
405.2652
  20
1287.0721
  0
VERTEX
  5
206
  8
Layer_0
  10
405.26495
  20
1287.0723
  42
8.2859192e-05
  0
VERTEX
  5
207
  8
Layer_0
  10
405.3324
  20
1287.0547
  0
VERTEX
  5
208
  8
Layer_0
  10
405.33215
  20
1287.0547
  0
VERTEX
  5
209
  8
Layer_0
  10
410.16083
  20
1301.1643
  0
VERTEX
  5
20a
  8
Layer_0
  10
415.95404
  20
1299.6028
  0
VERTEX
  5
20b
  8
Layer_0
  10
413.03625
  20
1284.983
  0
VERTEX
  5
20c
  8
Layer_0
  10
413.03604
  20
1284.9832
  42
0.0031640331
  0
VERTEX
  5
20d
  8
Layer_0
  10
413.08801
  20
1284.9688
  0
VERTEX
  5
20e
  8
Layer_0
  10
418.11676
  20
1298.9971
  0
VERTEX
  5
20f
  8
Layer_0
  10
423.90643
  20
1297.3452
  0
VERTEX
  5
210
  8
Layer_0
  10
420.77698
  20
1282.7791
  42
9.0686028e-05
  0
VERTEX
  5
211
  8
Layer_0
  10
420.84424
  20
1282.7595
  0
VERTEX
  5
212
  8
Layer_0
  10
420.84402
  20
1282.7595
  0
VERTEX
  5
213
  8
Layer_0
  10
426.08002
  20
1296.7134
  0
VERTEX
  5
214
  8
Layer_0
  10
431.82507
  20
1294.9829
  0
VERTEX
  5
215
  8
Layer_0
  10
428.48227
  20
1280.462
  0
VERTEX
  5
216
  8
Layer_0
  10
428.48206
  20
1280.4622
  0
VERTEX
  5
217
  8
Layer_0
  10
433.96661
  20
1294.3138
  0
VERTEX
  5
218
  8
Layer_0
  10
439.70819
  20
1292.4924
  0
VERTEX
  5
219
  8
Layer_0
  10
436.15942
  20
1278.0293
  0
VERTEX
  5
21a
  8
Layer_0
  10
436.15311
  20
1278.0313
  42
-7.8093047e-05
  0
VERTEX
  5
21b
  8
Layer_0
  10
436.23901
  20
1278.0034
  0
VERTEX
  5
21c
  8
Layer_0
  10
436.23877
  20
1278.0034
  0
VERTEX
  5
21d
  8
Layer_0
  10
441.88025
  20
1291.7988
  0
VERTEX
  5
21e
  8
Layer_0
  10
447.5542
  20
1289.9071
  0
VERTEX
  5
21f
  8
Layer_0
  10
443.79135
  20
1275.4863
  0
VERTEX
  5
220
  8
Layer_0
  10
443.78888
  20
1275.4872
  42
0.00039533814
  0
VERTEX
  5
221
  8
Layer_0
  10
443.85504
  20
1275.4646
  0
VERTEX
  5
222
  8
Layer_0
  10
449.69769
  20
1289.1689
  0
VERTEX
  5
223
  8
Layer_0
  10
455.3613
  20
1287.188
  0
VERTEX
  5
224
  8
Layer_0
  10
451.38953
  20
1272.8296
  0
VERTEX
  5
225
  8
Layer_0
  10
451.38525
  20
1272.8311
  42
-0.0024468647
  0
VERTEX
  5
226
  8
Layer_0
  10
451.45148
  20
1272.8074
  0
VERTEX
  5
227
  8
Layer_0
  10
457.4939
  20
1286.4246
  0
VERTEX
  5
228
  8
Layer_0
  10
463.1279
  20
1284.3611
  0
VERTEX
  5
229
  8
Layer_0
  10
458.94232
  20
1270.0631
  0
VERTEX
  5
22a
  8
Layer_0
  10
458.94208
  20
1270.0632
  42
0.0018136967
  0
VERTEX
  5
22b
  8
Layer_0
  10
459.00134
  20
1270.041
  0
VERTEX
  5
22c
  8
Layer_0
  10
465.23639
  20
1283.5667
  0
VERTEX
  5
22d
  8
Layer_0
  10
470.85229
  20
1281.4161
  0
VERTEX
  5
22e
  8
Layer_0
  10
466.45889
  20
1267.1836
  42
-0.00013983079
  0
VERTEX
  5
22f
  8
Layer_0
  10
466.51471
  20
1267.1616
  0
VERTEX
  5
230
  8
Layer_0
  10
472.95251
  20
1280.5955
  0
VERTEX
  5
231
  8
Layer_0
  10
478.5329
  20
1278.3645
  0
VERTEX
  5
232
  8
Layer_0
  10
473.93066
  20
1264.1942
  0
VERTEX
  5
233
  8
Layer_0
  10
480.60236
  20
1277.5117
  0
VERTEX
  5
234
  8
Layer_0
  10
486.16797
  20
1275.1917
  0
VERTEX
  5
235
  8
Layer_0
  10
481.36038
  20
1261.0939
  42
0.001255998
  0
VERTEX
  5
236
  8
Layer_0
  10
481.42218
  20
1261.0676
  0
VERTEX
  5
237
  8
Layer_0
  10
481.422
  20
1261.0676
  0
VERTEX
  5
238
  8
Layer_0
  10
488.25226
  20
1274.3163
  0
VERTEX
  5
239
  8
Layer_0
  10
493.75598
  20
1271.9268
  0
VERTEX
  5
23a
  8
Layer_0
  10
488.73782
  20
1257.8871
  0
VERTEX
  5
23b
  8
Layer_0
  10
488.73764
  20
1257.8872
  0
VERTEX
  5
23c
  8
Layer_0
  10
488.76978
  20
1257.8729
  0
VERTEX
  5
23d
  8
Layer_0
  10
488.80191
  20
1257.8586
  0
VERTEX
  5
23e
  8
Layer_0
  10
488.80173
  20
1257.8588
  0
VERTEX
  5
23f
  8
Layer_0
  10
495.82709
  20
1271.0096
  0
VERTEX
  5
240
  8
Layer_0
  10
501.29523
  20
1268.54
  0
VERTEX
  5
241
  8
Layer_0
  10
496.0741
  20
1254.569
  0
VERTEX
  5
242
  8
Layer_0
  10
496.07056
  20
1254.5707
  0
VERTEX
  5
243
  8
Layer_0
  10
496.10205
  20
1254.5562
  0
VERTEX
  5
244
  8
Layer_0
  10
496.13354
  20
1254.5416
  0
VERTEX
  5
245
  8
Layer_0
  10
496.13336
  20
1254.5416
  0
VERTEX
  5
246
  8
Layer_0
  10
503.35269
  20
1267.5925
  0
VERTEX
  5
247
  8
Layer_0
  10
508.78412
  20
1265.0431
  0
VERTEX
  5
248
  8
Layer_0
  10
503.35724
  20
1251.145
  0
VERTEX
  5
249
  8
Layer_0
  10
503.35388
  20
1251.1466
  42
0.00014423353
  0
VERTEX
  5
24a
  8
Layer_0
  10
503.41547
  20
1251.1172
  0
VERTEX
  5
24b
  8
Layer_0
  10
503.41528
  20
1251.1172
  0
VERTEX
  5
24c
  8
Layer_0
  10
510.82751
  20
1264.0657
  0
VERTEX
  5
24d
  8
Layer_0
  10
516.22107
  20
1261.4371
  0
VERTEX
  5
24e
  8
Layer_0
  10
510.58624
  20
1247.6158
  0
VERTEX
  5
24f
  8
Layer_0
  10
510.58606
  20
1247.616
  42
-0.00015262513
  0
VERTEX
  5
250
  8
Layer_0
  10
510.64612
  20
1247.5861
  0
VERTEX
  5
251
  8
Layer_0
  10
510.64597
  20
1247.5862
  0
VERTEX
  5
252
  8
Layer_0
  10
518.24994
  20
1260.4299
  0
VERTEX
  5
253
  8
Layer_0
  10
523.60449
  20
1257.7227
  0
VERTEX
  5
254
  8
Layer_0
  10
517.76855
  20
1243.978
  0
VERTEX
  5
255
  8
Layer_0
  10
517.76556
  20
1243.9795
  42
-0.0013941964
  0
VERTEX
  5
256
  8
Layer_0
  10
517.8241
  20
1243.9492
  0
VERTEX
  5
257
  8
Layer_0
  10
517.82397
  20
1243.9493
  0
VERTEX
  5
258
  8
Layer_0
  10
525.61841
  20
1256.686
  0
VERTEX
  5
259
  8
Layer_0
  10
530.93274
  20
1253.9008
  0
VERTEX
  5
25a
  8
Layer_0
  10
524.89368
  20
1240.2366
  0
VERTEX
  5
25b
  8
Layer_0
  10
524.89087
  20
1240.238
  42
8.5492003e-05
  0
VERTEX
  5
25c
  8
Layer_0
  10
524.94623
  20
1240.2085
  0
VERTEX
  5
25d
  8
Layer_0
  10
532.93127
  20
1252.8346
  0
VERTEX
  5
25e
  8
Layer_0
  10
538.20435
  20
1249.9719
  0
VERTEX
  5
25f
  8
Layer_0
  10
531.96069
  20
1236.3923
  0
VERTEX
  5
260
  8
Layer_0
  10
531.96045
  20
1236.3925
  42
-0.0012690333
  0
VERTEX
  5
261
  8
Layer_0
  10
532.01569
  20
1236.3618
  0
VERTEX
  5
262
  8
Layer_0
  10
532.0155
  20
1236.3621
  0
VERTEX
  5
263
  8
Layer_0
  10
540.18707
  20
1248.8767
  0
VERTEX
  5
264
  8
Layer_0
  10
545.41772
  20
1245.9373
  0
VERTEX
  5
265
  8
Layer_0
  10
538.97302
  20
1232.4436
  0
VERTEX
  5
266
  8
Layer_0
  10
538.97284
  20
1232.4437
  42
0.001105485
  0
VERTEX
  5
267
  8
Layer_0
  10
539.02637
  20
1232.4131
  0
VERTEX
  5
268
  8
Layer_0
  10
539.02618
  20
1232.4131
  0
VERTEX
  5
269
  8
Layer_0
  10
547.38416
  20
1244.8131
  0
VERTEX
  5
26a
  8
Layer_0
  10
552.57129
  20
1241.7974
  0
VERTEX
  5
26b
  8
Layer_0
  10
545.92871
  20
1228.3915
  0
VERTEX
  5
26c
  8
Layer_0
  10
545.92664
  20
1228.3927
  42
0.00015126967
  0
VERTEX
  5
26d
  8
Layer_0
  10
545.97717
  20
1228.3628
  0
VERTEX
  5
26e
  8
Layer_0
  10
554.52112
  20
1240.6445
  0
VERTEX
  5
26f
  8
Layer_0
  10
559.66345
  20
1237.5533
  0
VERTEX
  5
270
  8
Layer_0
  10
552.82202
  20
1224.2393
  0
VERTEX
  5
271
  8
Layer_0
  10
552.82019
  20
1224.2404
  0
VERTEX
  5
272
  8
Layer_0
  10
561.55664
  20
1236.3721
  0
VERTEX
  5
273
  8
Layer_0
  10
566.69287
  20
1233.1814
  0
VERTEX
  5
274
  8
Layer_0
  10
559.66357
  20
1219.9805
  0
VERTEX
  5
275
  8
Layer_0
  10
568.60815
  20
1231.9968
  0
VERTEX
  5
276
  8
Layer_0
  10
573.65796
  20
1228.7563
  0
VERTEX
  5
277
  8
Layer_0
  10
566.42249
  20
1215.6348
  0
VERTEX
  5
278
  8
Layer_0
  10
566.42114
  20
1215.6356
  42
2.8148082e-05
  0
VERTEX
  5
279
  8
Layer_0
  10
566.46692
  20
1215.6057
  0
VERTEX
  5
27a
  8
Layer_0
  10
575.5553
  20
1227.519
  0
VERTEX
  5
27b
  8
Layer_0
  10
580.55713
  20
1224.2052
  0
VERTEX
  5
27c
  8
Layer_0
  10
573.12592
  20
1211.1851
  0
VERTEX
  5
27d
  8
Layer_0
  10
573.12573
  20
1211.1852
  42
0.00023979957
  0
VERTEX
  5
27e
  8
Layer_0
  10
573.16986
  20
1211.1554
  0
VERTEX
  5
27f
  8
Layer_0
  10
582.43622
  20
1222.9404
  0
VERTEX
  5
280
  8
Layer_0
  10
587.38904
  20
1219.5538
  0
VERTEX
  5
281
  8
Layer_0
  10
579.76465
  20
1206.6372
  0
VERTEX
  5
282
  8
Layer_0
  10
579.76447
  20
1206.6375
  42
0.0011886521
  0
VERTEX
  5
283
  8
Layer_0
  10
579.80719
  20
1206.6077
  0
VERTEX
  5
284
  8
Layer_0
  10
589.24939
  20
1218.2616
  0
VERTEX
  5
285
  8
Layer_0
  10
594.15222
  20
1214.8029
  0
VERTEX
  5
286
  8
Layer_0
  10
586.33624
  20
1201.9932
  0
VERTEX
  5
287
  8
Layer_0
  10
586.33606
  20
1201.9933
  0
VERTEX
  5
288
  8
Layer_0
  10
595.94922
  20
1213.4835
  0
VERTEX
  5
289
  8
Layer_0
  10
600.81958
  20
1209.9398
  0
VERTEX
  5
28a
  8
Layer_0
  10
593.05096
  20
1197.4987
  0
VERTEX
  5
28b
  8
Layer_0
  10
602.64838
  20
1208.5886
  0
VERTEX
  5
28c
  8
Layer_0
  10
607.46631
  20
1204.974
  0
VERTEX
  5
28d
  8
Layer_0
  10
599.28687
  20
1192.4092
  0
VERTEX
  5
28e
  8
Layer_0
  10
609.26825
  20
1203.6342
  0
VERTEX
  5
28f
  8
Layer_0
  10
614.01453
  20
1199.9636
  0
VERTEX
  5
290
  8
Layer_0
  10
605.67163
  20
1187.4641
  0
VERTEX
  5
291
  8
Layer_0
  10
605.67175
  20
1187.464
  0
VERTEX
  5
292
  8
Layer_0
  10
615.77814
  20
1198.5437
  0
VERTEX
  5
293
  8
Layer_0
  10
620.47028
  20
1194.8041
  0
VERTEX
  5
294
  8
Layer_0
  10
611.9057
  20
1182.4535
  0
VERTEX
  5
295
  8
Layer_0
  10
611.90552
  20
1182.4537
  0
VERTEX
  5
296
  8
Layer_0
  10
622.18854
  20
1193.3795
  0
VERTEX
  5
297
  8
Layer_0
  10
626.8681
  20
1189.5366
  0
VERTEX
  5
298
  8
Layer_0
  10
618.15723
  20
1177.3595
  0
VERTEX
  5
299
  8
Layer_0
  10
628.59546
  20
1188.1213
  0
VERTEX
  5
29a
  8
Layer_0
  10
633.18872
  20
1184.2355
  0
VERTEX
  5
29b
  8
Layer_0
  10
624.26624
  20
1172.1404
  0
VERTEX
  5
29c
  8
Layer_0
  10
624.26514
  20
1172.1414
  0
VERTEX
  5
29d
  8
Layer_0
  10
634.8869
  20
1182.7706
  0
VERTEX
  5
29e
  8
Layer_0
  10
639.43079
  20
1178.811
  0
VERTEX
  5
29f
  8
Layer_0
  10
630.3429
  20
1166.8408
  0
VERTEX
  5
2a0
  8
Layer_0
  10
630.34271
  20
1166.8409
  0
VERTEX
  5
2a1
  8
Layer_0
  10
630.35291
  20
1166.8541
  0
VERTEX
  5
2a2
  8
Layer_0
  10
641.09033
  20
1177.3282
  0
VERTEX
  5
2a3
  8
Layer_0
  10
645.59296
  20
1173.2871
  0
VERTEX
  5
2a4
  8
Layer_0
  10
636.33252
  20
1161.4617
  0
VERTEX
  5
2a5
  8
Layer_0
  10
636.33234
  20
1161.4618
  0
VERTEX
  5
2a6
  8
Layer_0
  10
647.23914
  20
1171.7955
  0
VERTEX
  5
2a7
  8
Layer_0
  10
651.67389
  20
1167.6967
  0
VERTEX
  5
2a8
  8
Layer_0
  10
642.22894
  20
1156.0093
  0
VERTEX
  5
2a9
  8
Layer_0
  10
642.22876
  20
1156.0094
  0
VERTEX
  5
2aa
  8
Layer_0
  10
653.31226
  20
1166.1735
  0
VERTEX
  5
2ab
  8
Layer_0
  10
657.6723
  20
1162.0238
  0
VERTEX
  5
2ac
  8
Layer_0
  10
648.05267
  20
1150.4651
  0
VERTEX
  5
2ad
  8
Layer_0
  10
659.28833
  20
1160.4634
  0
VERTEX
  5
2ae
  8
Layer_0
  10
663.58679
  20
1156.2509
  0
VERTEX
  5
2af
  8
Layer_0
  10
653.8302
  20
1144.8688
  0
SEQEND
  0
POLYLINE
  5
2b1
  8
Layer_0
  62
7
  66
1
  10
0
  20
0
  30
0
  0
VERTEX
  5
2b1
  8
Layer_0
  10
681.30383
  20
1115.457
  0
VERTEX
  5
2b2
  8
Layer_0
  10
681.28986
  20
1115.473
  42
0.00055824252
  0
VERTEX
  5
2b3
  8
Layer_0
  10
681.30383
  20
1115.4569
  0
SEQEND
  0
POLYLINE
  5
2b5
  8
Layer_0
  62
7
  66
1
  10
0
  20
0
  30
0
  0
VERTEX
  5
2b5
  8
Layer_0
  10
675.9668
  20
1121.5088
  0
VERTEX
  5
2b6
  8
Layer_0
  10
675.96744
  20
1121.5081
  0
VERTEX
  5
2b7
  8
Layer_0
  10
675.96808
  20
1121.5074
  0
SEQEND
  0
POLYLINE
  5
2b9
  8
Layer_0
  62
7
  66
1
  10
0
  20
0
  30
0
  0
VERTEX
  5
2b9
  8
Layer_0
  10
670.55734
  20
1127.4654
  0
VERTEX
  5
2ba
  8
Layer_0
  10
670.55743
  20
1127.4653
  0
VERTEX
  5
2bb
  8
Layer_0
  10
670.55753
  20
1127.4652
  0
SEQEND
  0
POLYLINE
  5
2bd
  8
Layer_0
  62
7
  66
1
  10
0
  20
0
  30
0
  0
VERTEX
  5
2bd
  8
Layer_0
  10
665.06253
  20
1133.3421
  0
VERTEX
  5
2be
  8
Layer_0
  10
665.06267
  20
1133.342
  0
VERTEX
  5
2bf
  8
Layer_0
  10
665.06281
  20
1133.3418
  0
SEQEND
  0
POLYLINE
  5
2c1
  8
Layer_0
  62
7
  66
1
  10
0
  20
0
  30
0
  0
VERTEX
  5
2c1
  8
Layer_0
  10
653.8302
  20
1144.8688
  0
VERTEX
  5
2c2
  8
Layer_0
  10
665.19421
  20
1154.6893
  0
VERTEX
  5
2c3
  8
Layer_0
  10
669.43347
  20
1150.4114
  0
VERTEX
  5
2c4
  8
Layer_0
  10
659.60419
  20
1139.246
  0
SEQEND
  0
POLYLINE
  5
2c6
  8
Layer_0
  62
7
  66
1
  10
0
  20
0
  30
0
  0
VERTEX
  5
2c6
  8
Layer_0
  10
686.52063
  20
1109.3652
  42
0.035489152
  0
VERTEX
  5
2c7
  8
Layer_0
  10
686.521
  20
1109.3649
  0
SEQEND
  0
POLYLINE
  5
2c9
  8
Layer_0
  62
7
  66
1
  10
0
  20
0
  30
0
  0
VERTEX
  5
2c9
  8
Layer_0
  10
691.75031
  20
1103.1876
  0
VERTEX
  5
2ca
  8
Layer_0
  10
702.55518
  20
1113.5271
  0
VERTEX
  5
2cb
  8
Layer_0
  10
698.71039
  20
1118.1563
  0
VERTEX
  5
2cc
  8
Layer_0
  10
686.52081
  20
1109.365
  0
VERTEX
  5
2cd
  8
Layer_0
  10
697.26172
  20
1119.8702
  0
VERTEX
  5
2ce
  8
Layer_0
  10
693.3457
  20
1124.4473
  0
VERTEX
  5
2cf
  8
Layer_0
  10
681.28992
  20
1115.4731
  0
VERTEX
  5
2d0
  8
Layer_0
  10
681.29114
  20
1115.4717
  0
VERTEX
  5
2d1
  8
Layer_0
  10
691.87598
  20
1126.1292
  0
VERTEX
  5
2d2
  8
Layer_0
  10
687.88403
  20
1130.6591
  0
VERTEX
  5
2d3
  8
Layer_0
  10
675.96698
  20
1121.5087
  0
VERTEX
  5
2d4
  8
Layer_0
  10
675.96802
  20
1121.5073
  0
VERTEX
  5
2d5
  8
Layer_0
  10
686.39911
  20
1132.3224
  0
VERTEX
  5
2d6
  8
Layer_0
  10
682.34399
  20
1136.7905
  0
VERTEX
  5
2d7
  8
Layer_0
  10
670.57214
  20
1127.4766
  0
VERTEX
  5
2d8
  8
Layer_0
  10
670.5575
  20
1127.4653
  0
VERTEX
  5
2d9
  8
Layer_0
  10
670.57214
  20
1127.4766
  0
VERTEX
  5
2da
  8
Layer_0
  10
680.83228
  20
1138.4326
  0
VERTEX
  5
2db
  8
Layer_0
  10
676.71283
  20
1142.8403
  0
VERTEX
  5
2dc
  8
Layer_0
  10
665.06281
  20
1133.3418
  0
VERTEX
  5
2dd
  8
Layer_0
  10
665.06262
  20
1133.342
  0
VERTEX
  5
2de
  8
Layer_0
  10
675.17664
  20
1144.4636
  0
VERTEX
  5
2df
  8
Layer_0
  10
670.99677
  20
1148.8069
  0
VERTEX
  5
2e0
  8
Layer_0
  10
659.60419
  20
1139.246
  0
SEQEND
  0
POLYLINE
  5
2e2
  8
Layer_0
  62
7
  66
1
  10
0
  20
0
  30
0
  0
VERTEX
  5
2e2
  8
Layer_0
  10
812.34454
  20
818.2348
  0
VERTEX
  5
2e3
  8
Layer_0
  10
827.10919
  20
821.06396
  0
VERTEX
  5
2e4
  8
Layer_0
  10
826.37451
  20
827.0188
  0
VERTEX
  5
2e5
  8
Layer_0
  10
811.37048
  20
826.17529
  0
VERTEX
  5
2e6
  8
Layer_0
  10
826.08691
  20
829.21777
  0
VERTEX
  5
2e7
  8
Layer_0
  10
825.26575
  20
835.16132
  0
VERTEX
  5
2e8
  8
Layer_0
  10
810.28387
  20
834.1015
  0
VERTEX
  5
2e9
  8
Layer_0
  10
824.94629
  20
837.35583
  0
VERTEX
  5
2ea
  8
Layer_0
  10
824.0387
  20
843.2868
  0
VERTEX
  5
2eb
  8
Layer_0
  10
809.12708
  20
842.01044
  0
VERTEX
  5
2ec
  8
Layer_0
  10
809.12714
  20
842.01019
  42
0.00028487288
  0
VERTEX
  5
2ed
  8
Layer_0
  10
809.11804
  20
842.06726
  0
VERTEX
  5
2ee
  8
Layer_0
  10
823.67963
  20
845.52325
  0
VERTEX
  5
2ef
  8
Layer_0
  10
822.68542
  20
851.44031
  0
VERTEX
  5
2f0
  8
Layer_0
  10
807.80353
  20
849.94836
  42
0.00098175592
  0
VERTEX
  5
2f1
  8
Layer_0
  10
807.79321
  20
850.00769
  0
VERTEX
  5
2f2
  8
Layer_0
  10
807.79321
  20
850.00745
  0
VERTEX
  5
2f3
  8
Layer_0
  10
822.29376
  20
853.67139
  0
VERTEX
  5
2f4
  8
Layer_0
  10
821.21307
  20
859.5733
  0
VERTEX
  5
2f5
  8
Layer_0
  10
806.36377
  20
857.86481
  0
VERTEX
  5
2f6
  8
Layer_0
  10
806.36426
  20
857.8623
  0
VERTEX
  5
2f7
  8
Layer_0
  10
806.35829
  20
857.89389
  0
VERTEX
  5
2f8
  8
Layer_0
  10
806.35234
  20
857.92548
  0
VERTEX
  5
2f9
  8
Layer_0
  10
806.35297
  20
857.92212
  0
VERTEX
  5
2fa
  8
Layer_0
  10
820.78888
  20
861.79822
  0
VERTEX
  5
2fb
  8
Layer_0
  10
819.62201
  20
867.68365
  0
VERTEX
  5
2fc
  8
Layer_0
  10
804.80847
  20
865.75671
  0
VERTEX
  5
2fd
  8
Layer_0
  10
804.80847
  20
865.75647
  42
-0.00013906056
  0
VERTEX
  5
2fe
  8
Layer_0
  10
804.79529
  20
865.82098
  0
VERTEX
  5
2ff
  8
Layer_0
  10
804.79529
  20
865.82074
  0
VERTEX
  5
300
  8
Layer_0
  10
819.16516
  20
869.90228
  0
VERTEX
  5
301
  8
Layer_0
  10
817.91229
  20
875.77002
  0
VERTEX
  5
302
  8
Layer_0
  10
803.13599
  20
873.63037
  42
-7.113821e-05
  0
VERTEX
  5
303
  8
Layer_0
  10
803.12213
  20
873.69318
  0
VERTEX
  5
304
  8
Layer_0
  10
803.12219
  20
873.69293
  0
VERTEX
  5
305
  8
Layer_0
  10
817.42316
  20
877.98163
  0
VERTEX
  5
306
  8
Layer_0
  10
816.08459
  20
883.83044
  0
VERTEX
  5
307
  8
Layer_0
  10
801.34833
  20
881.47601
  42
-0.00083749202
  0
VERTEX
  5
308
  8
Layer_0
  10
801.33325
  20
881.54004
  0
VERTEX
  5
309
  8
Layer_0
  10
801.33331
  20
881.53979
  0
VERTEX
  5
30a
  8
Layer_0
  10
815.56311
  20
886.03485
  0
VERTEX
  5
30b
  8
Layer_0
  10
814.13916
  20
891.8634
  0
VERTEX
  5
30c
  8
Layer_0
  10
799.44525
  20
889.2948
  42
-0.00067156482
  0
VERTEX
  5
30d
  8
Layer_0
  10
799.42896
  20
889.35956
  0
VERTEX
  5
30e
  8
Layer_0
  10
799.42902
  20
889.35931
  0
VERTEX
  5
30f
  8
Layer_0
  10
813.58551
  20
894.05975
  0
VERTEX
  5
310
  8
Layer_0
  10
812.07642
  20
899.86688
  0
VERTEX
  5
311
  8
Layer_0
  10
797.42719
  20
897.08459
  42
0.00065193183
  0
VERTEX
  5
312
  8
Layer_0
  10
797.40967
  20
897.15015
  0
VERTEX
  5
313
  8
Layer_0
  10
797.40973
  20
897.15002
  0
VERTEX
  5
314
  8
Layer_0
  10
811.49072
  20
902.05493
  0
VERTEX
  5
315
  8
Layer_0
  10
809.89685
  20
907.83936
  0
VERTEX
  5
316
  8
Layer_0
  10
795.29443
  20
904.84406
  42
-0.00072856949
  0
VERTEX
  5
317
  8
Layer_0
  10
795.27576
  20
904.9101
  0
VERTEX
  5
318
  8
Layer_0
  10
795.27576
  20
904.90991
  0
VERTEX
  5
319
  8
Layer_0
  10
809.27924
  20
910.01855
  0
VERTEX
  5
31a
  8
Layer_0
  10
807.60089
  20
915.77905
  0
VERTEX
  5
31b
  8
Layer_0
  10
793.04749
  20
912.57129
  42
0.00063222228
  0
VERTEX
  5
31c
  8
Layer_0
  10
793.02759
  20
912.63782
  0
VERTEX
  5
31d
  8
Layer_0
  10
793.02881
  20
912.63367
  0
VERTEX
  5
31e
  8
Layer_0
  10
806.95135
  20
917.94922
  0
VERTEX
  5
31f
  8
Layer_0
  10
805.18896
  20
923.68451
  0
VERTEX
  5
320
  8
Layer_0
  10
790.68671
  20
920.26477
  42
0.00062497303
  0
VERTEX
  5
321
  8
Layer_0
  10
790.66571
  20
920.33142
  0
VERTEX
  5
322
  8
Layer_0
  10
790.66699
  20
920.32721
  0
VERTEX
  5
323
  8
Layer_0
  10
804.50787
  20
925.84473
  0
VERTEX
  5
324
  8
Layer_0
  10
802.66174
  20
931.55371
  0
VERTEX
  5
325
  8
Layer_0
  10
788.21271
  20
927.92261
  42
3.4094772e-06
  0
VERTEX
  5
326
  8
Layer_0
  10
788.19061
  20
927.98932
  0
VERTEX
  5
327
  8
Layer_0
  10
788.19067
  20
927.98914
  0
VERTEX
  5
328
  8
Layer_0
  10
801.9491
  20
933.70386
  0
VERTEX
  5
329
  8
Layer_0
  10
800.01971
  20
939.38513
  0
VERTEX
  5
32a
  8
Layer_0
  10
785.62604
  20
935.54327
  0
VERTEX
  5
32b
  8
Layer_0
  10
785.61449
  20
935.57648
  0
VERTEX
  5
32c
  8
Layer_0
  10
785.60295
  20
935.60968
  0
VERTEX
  5
32d
  8
Layer_0
  10
785.60443
  20
935.60541
  0
VERTEX
  5
32e
  8
Layer_0
  10
799.2757
  20
941.52454
  0
VERTEX
  5
32f
  8
Layer_0
  10
797.26337
  20
947.177
  0
VERTEX
  5
330
  8
Layer_0
  10
782.92725
  20
943.125
  42
0.001226483
  0
VERTEX
  5
331
  8
Layer_0
  10
782.9032
  20
943.19104
  0
VERTEX
  5
332
  8
Layer_0
  10
782.90326
  20
943.19086
  0
VERTEX
  5
333
  8
Layer_0
  10
796.4881
  20
949.30542
  0
VERTEX
  5
334
  8
Layer_0
  10
794.39331
  20
954.92786
  0
VERTEX
  5
335
  8
Layer_0
  10
780.11694
  20
950.6662
  42
-0.00084335733
  0
VERTEX
  5
336
  8
Layer_0
  10
780.09198
  20
950.73169
  0
VERTEX
  5
337
  8
Layer_0
  10
780.09204
  20
950.73151
  0
VERTEX
  5
338
  8
Layer_0
  10
793.58691
  20
957.04449
  0
VERTEX
  5
339
  8
Layer_0
  10
791.41016
  20
962.63574
  0
VERTEX
  5
33a
  8
Layer_0
  10
777.1958
  20
958.16516
  42
0.00024940369
  0
VERTEX
  5
33b
  8
Layer_0
  10
777.17004
  20
958.22992
  0
VERTEX
  5
33c
  8
Layer_0
  10
777.17169
  20
958.22583
  0
VERTEX
  5
33d
  8
Layer_0
  10
790.573
  20
964.74042
  0
VERTEX
  5
33e
  8
Layer_0
  10
788.3147
  20
970.29919
  0
VERTEX
  5
33f
  8
Layer_0
  10
774.16455
  20
965.6203
  42
0.00025442695
  0
VERTEX
  5
340
  8
Layer_0
  10
774.138
  20
965.6842
  0
VERTEX
  5
341
  8
Layer_0
  10
774.13806
  20
965.68408
  0
VERTEX
  5
342
  8
Layer_0
  10
787.44678
  20
972.39148
  0
VERTEX
  5
343
  8
Layer_0
  10
785.10736
  20
977.91663
  0
VERTEX
  5
344
  8
Layer_0
  10
771.02374
  20
973.03003
  42
0.00087829201
  0
VERTEX
  5
345
  8
Layer_0
  10
770.99652
  20
973.09296
  0
VERTEX
  5
346
  8
Layer_0
  10
770.99817
  20
973.08911
  0
VERTEX
  5
347
  8
Layer_0
  10
784.20892
  20
979.99597
  0
VERTEX
  5
348
  8
Layer_0
  10
781.78894
  20
985.48627
  0
VERTEX
  5
349
  8
Layer_0
  10
767.77594
  20
980.38904
  0
VERTEX
  5
34a
  8
Layer_0
  10
767.776
  20
980.38885
  42
0.00047842404
  0
VERTEX
  5
34b
  8
Layer_0
  10
767.74646
  20
980.45447
  0
VERTEX
  5
34c
  8
Layer_0
  10
767.74811
  20
980.45081
  0
VERTEX
  5
34d
  8
Layer_0
  10
780.86023
  20
987.55225
  0
VERTEX
  5
34e
  8
Layer_0
  10
778.36017
  20
993.00659
  0
VERTEX
  5
34f
  8
Layer_0
  10
764.41681
  20
987.70679
  42
1.9710537e-05
  0
VERTEX
  5
350
  8
Layer_0
  10
764.38849
  20
987.76733
  0
VERTEX
  5
351
  8
Layer_0
  10
764.38855
  20
987.76721
  0
VERTEX
  5
352
  8
Layer_0
  10
777.40131
  20
995.05872
  0
VERTEX
  5
353
  8
Layer_0
  10
774.82172
  20
1000.4759
  0
VERTEX
  5
354
  8
Layer_0
  10
760.95221
  20
994.9707
  42
-0.0003542661
  0
VERTEX
  5
355
  8
Layer_0
  10
760.92346
  20
995.02991
  0
VERTEX
  5
356
  8
Layer_0
  10
760.92352
  20
995.02966
  0
VERTEX
  5
357
  8
Layer_0
  10
773.83301
  20
1002.5138
  0
VERTEX
  5
358
  8
Layer_0
  10
771.1745
  20
1007.8927
  0
VERTEX
  5
359
  8
Layer_0
  10
757.38129
  20
1002.1828
  42
-0.0010888007
  0
VERTEX
  5
35a
  8
Layer_0
  10
757.3537
  20
1002.2375
  0
VERTEX
  5
35b
  8
Layer_0
  10
770.15601
  20
1009.9159
  0
VERTEX
  5
35c
  8
Layer_0
  10
767.41907
  20
1015.2554
  0
VERTEX
  5
35d
  8
Layer_0
  10
753.70483
  20
1009.3417
  42
-0.00055159278
  0
VERTEX
  5
35e
  8
Layer_0
  10
753.67535
  20
1009.398
  0
VERTEX
  5
35f
  8
Layer_0
  10
753.67688
  20
1009.3951
  0
VERTEX
  5
360
  8
Layer_0
  10
766.37109
  20
1017.2634
  0
VERTEX
  5
361
  8
Layer_0
  10
763.5564
  20
1022.5622
  0
VERTEX
  5
362
  8
Layer_0
  10
749.92377
  20
1016.4458
  42
8.0930224e-05
  0
VERTEX
  5
363
  8
Layer_0
  10
749.8941
  20
1016.5005
  0
VERTEX
  5
364
  8
Layer_0
  10
749.89423
  20
1016.5003
  0
VERTEX
  5
365
  8
Layer_0
  10
762.47919
  20
1024.5548
  0
VERTEX
  5
366
  8
Layer_0
  10
759.58722
  20
1029.8119
  0
VERTEX
  5
367
  8
Layer_0
  10
746.03894
  20
1023.4935
  42
0.00090126937
  0
VERTEX
  5
368
  8
Layer_0
  10
746.00909
  20
1023.5467
  0
VERTEX
  5
369
  8
Layer_0
  10
758.48096
  20
1031.7885
  0
VERTEX
  5
36a
  8
Layer_0
  10
755.51245
  20
1037.0027
  0
VERTEX
  5
36b
  8
Layer_0
  10
742.05133
  20
1030.4836
  42
-0.00062505469
  0
VERTEX
  5
36c
  8
Layer_0
  10
742.02136
  20
1030.5353
  0
VERTEX
  5
36d
  8
Layer_0
  10
742.02264
  20
1030.5331
  0
VERTEX
  5
36e
  8
Layer_0
  10
754.37738
  20
1038.9629
  0
VERTEX
  5
36f
  8
Layer_0
  10
751.33289
  20
1044.1332
  0
VERTEX
  5
370
  8
Layer_0
  10
737.96173
  20
1037.4144
  42
-0.00047117628
  0
VERTEX
  5
371
  8
Layer_0
  10
737.93176
  20
1037.4645
  0
VERTEX
  5
372
  8
Layer_0
  10
737.93298
  20
1037.4624
  0
VERTEX
  5
373
  8
Layer_0
  10
750.16931
  20
1046.0765
  0
VERTEX
  5
374
  8
Layer_0
  10
747.0495
  20
1051.2018
  0
VERTEX
  5
375
  8
Layer_0
  10
733.77124
  20
1044.2845
  42
-0.0003220443
  0
VERTEX
  5
376
  8
Layer_0
  10
733.74133
  20
1044.3329
  0
VERTEX
  5
377
  8
Layer_0
  10
733.74243
  20
1044.3311
  0
VERTEX
  5
378
  8
Layer_0
  10
745.85767
  20
1053.1278
  0
VERTEX
  5
379
  8
Layer_0
  10
742.66321
  20
1058.2068
  0
VERTEX
  5
37a
  8
Layer_0
  10
729.48083
  20
1051.0925
  42
0.00034826368
  0
VERTEX
  5
37b
  8
Layer_0
  10
729.45093
  20
1051.1392
  0
VERTEX
  5
37c
  8
Layer_0
  10
729.45105
  20
1051.139
  0
VERTEX
  5
37d
  8
Layer_0
  10
741.44324
  20
1060.1152
  0
VERTEX
  5
37e
  8
Layer_0
  10
738.17487
  20
1065.147
  0
VERTEX
  5
37f
  8
Layer_0
  10
725.09143
  20
1057.837
  42
0.00012137184
  0
VERTEX
  5
380
  8
Layer_0
  10
725.06158
  20
1057.8821
  0
VERTEX
  5
381
  8
Layer_0
  10
725.06244
  20
1057.8807
  0
VERTEX
  5
382
  8
Layer_0
  10
736.92712
  20
1067.0375
  0
VERTEX
  5
383
  8
Layer_0
  10
733.58551
  20
1072.0208
  0
VERTEX
  5
384
  8
Layer_0
  10
720.604
  20
1064.5165
  42
0.00035786652
  0
VERTEX
  5
385
  8
Layer_0
  10
720.57422
  20
1064.5601
  0
VERTEX
  5
386
  8
Layer_0
  10
720.57495
  20
1064.559
  0
VERTEX
  5
387
  8
Layer_0
  10
732.31024
  20
1073.8927
  0
VERTEX
  5
388
  8
Layer_0
  10
728.89606
  20
1078.8267
  0
VERTEX
  5
389
  8
Layer_0
  10
716.01959
  20
1071.1296
  42
0.0014560263
  0
VERTEX
  5
38a
  8
Layer_0
  10
715.98993
  20
1071.1718
  0
VERTEX
  5
38b
  8
Layer_0
  10
715.99054
  20
1071.1709
  0
VERTEX
  5
38c
  8
Layer_0
  10
727.59363
  20
1080.6798
  0
VERTEX
  5
38d
  8
Layer_0
  10
724.1076
  20
1085.5634
  0
VERTEX
  5
38e
  8
Layer_0
  10
711.30975
  20
1077.7158
  0
VERTEX
  5
38f
  8
Layer_0
  10
711.30988
  20
1077.7157
  0
VERTEX
  5
390
  8
Layer_0
  10
722.77814
  20
1087.3972
  0
VERTEX
  5
391
  8
Layer_0
  10
719.22107
  20
1092.2291
  0
VERTEX
  5
392
  8
Layer_0
  10
706.53467
  20
1084.1909
  0
VERTEX
  5
393
  8
Layer_0
  10
706.53491
  20
1084.1906
  0
VERTEX
  5
394
  8
Layer_0
  10
717.86493
  20
1094.0435
  0
VERTEX
  5
395
  8
Layer_0
  10
714.23755
  20
1098.8229
  0
VERTEX
  5
396
  8
Layer_0
  10
701.66577
  20
1090.5957
  0
VERTEX
  5
397
  8
Layer_0
  10
701.66589
  20
1090.5956
  0
VERTEX
  5
398
  8
Layer_0
  10
712.85504
  20
1100.6171
  0
VERTEX
  5
399
  8
Layer_0
  10
709.15814
  20
1105.3429
  0
VERTEX
  5
39a
  8
Layer_0
  10
696.7041
  20
1096.9288
  0
VERTEX
  5
39b
  8
Layer_0
  10
707.74951
  20
1107.1167
  0
VERTEX
  5
39c
  8
Layer_0
  10
703.98395
  20
1111.788
  0
VERTEX
  5
39d
  8
Layer_0
  10
691.75159
  20
1103.1852
  0
SEQEND
  0
POLYLINE
  5
39f
  8
Layer_0
  62
7
  70
1
  66
1
  10
0
  20
0
  30
0
  0
VERTEX
  5
39f
  8
Layer_0
  10
691.75031
  20
1103.1876
  0
VERTEX
  5
3a0
  8
Layer_0
  10
691.75165
  20
1103.1852
  0
SEQEND
  0
ENDSEC
  0
EOF
