  0
SECTION
  2
HEADER
  9
$ACADVER
  1
AC1009
  0
ENDSEC
  0
SECTION
  2
TABLES
  0
TABLE
  2
LAYER
  70
1
  0
LAYER
  2
Layer_0
  70
0
  62
7
  6
CONTINUOUS
  0
ENDTAB
  0
ENDSEC
  0
SECTION
  2
ENTITIES
  0
POLYLINE
  5
90
  8
Layer_0
  62
7
  70
1
  66
1
  10
0
  20
0
  30
0
  0
VERTEX
  5
90
  8
Layer_0
  10
278.09076
  20
989.76697
  0
VERTEX
  5
91
  8
Layer_0
  10
278.09076
  20
989.76666
  0
VERTEX
  5
92
  8
Layer_0
  10
278.09076
  20
989.76681
  0
VERTEX
  5
93
  8
Layer_0
  10
278.09076
  20
989.76694
  0
SEQEND
  0
POLYLINE
  5
95
  8
Layer_0
  62
7
  66
1
  10
0
  20
0
  30
0
  0
VERTEX
  5
95
  8
Layer_0
  10
278.14252
  20
990.09512
  0
VERTEX
  5
96
  8
Layer_0
  10
278.14252
  20
990.09526
  0
VERTEX
  5
97
  8
Layer_0
  10
278.14252
  20
990.0954
  0
SEQEND
  0
POLYLINE
  5
99
  8
Layer_0
  62
7
  70
1
  66
1
  10
0
  20
0
  30
0
  0
VERTEX
  5
99
  8
Layer_0
  10
524.1344
  20
1358.4188
  0
VERTEX
  5
9a
  8
Layer_0
  10
524.13507
  20
1358.4192
  0
VERTEX
  5
9b
  8
Layer_0
  10
524.13475
  20
1358.419
  0
VERTEX
  5
9c
  8
Layer_0
  10
524.13443
  20
1358.4188
  0
SEQEND
  0
POLYLINE
  5
9e
  8
Layer_0
  62
7
  66
1
  10
0
  20
0
  30
0
  0
VERTEX
  5
9e
  8
Layer_0
  10
517.49252
  20
1353.8686
  0
VERTEX
  5
9f
  8
Layer_0
  10
517.49243
  20
1353.8685
  0
VERTEX
  5
a0
  8
Layer_0
  10
517.49234
  20
1353.8685
  0
SEQEND
  0
POLYLINE
  5
a2
  8
Layer_0
  62
7
  66
1
  10
0
  20
0
  30
0
  0
VERTEX
  5
a2
  8
Layer_0
  10
504.41736
  20
1344.4843
  0
VERTEX
  5
a3
  8
Layer_0
  10
504.41461
  20
1344.4822
  0
VERTEX
  5
a4
  8
Layer_0
  10
504.41187
  20
1344.4801
  0
SEQEND
  0
POLYLINE
  5
a6
  8
Layer_0
  62
7
  70
1
  66
1
  10
0
  20
0
  30
0
  0
VERTEX
  5
a6
  8
Layer_0
  10
491.62567
  20
1334.7261
  0
VERTEX
  5
a7
  8
Layer_0
  10
491.62585
  20
1334.7263
  0
SEQEND
  0
POLYLINE
  5
a9
  8
Layer_0
  62
7
  66
1
  10
0
  20
0
  30
0
  0
VERTEX
  5
a9
  8
Layer_0
  10
497.96829
  20
1339.6383
  0
VERTEX
  5
aa
  8
Layer_0
  10
497.96811
  20
1339.6381
  0
VERTEX
  5
ab
  8
Layer_0
  10
497.96793
  20
1339.638
  0
SEQEND
  0
POLYLINE
  5
ad
  8
Layer_0
  62
7
  66
1
  10
0
  20
0
  30
0
  0
VERTEX
  5
ad
  8
Layer_0
  10
491.62585
  20
1334.7263
  0
VERTEX
  5
ae
  8
Layer_0
  10
491.62576
  20
1334.7262
  0
VERTEX
  5
af
  8
Layer_0
  10
491.62567
  20
1334.7262
  0
SEQEND
  0
POLYLINE
  5
b1
  8
Layer_0
  62
7
  70
1
  66
1
  10
0
  20
0
  30
0
  0
VERTEX
  5
b1
  8
Layer_0
  10
485.22229
  20
1329.8181
  0
VERTEX
  5
b2
  8
Layer_0
  10
485.22159
  20
1329.8187
  0
SEQEND
  0
POLYLINE
  5
b4
  8
Layer_0
  62
7
  70
1
  66
1
  10
0
  20
0
  30
0
  0
VERTEX
  5
b4
  8
Layer_0
  10
415.98087
  20
1262.7104
  0
VERTEX
  5
b5
  8
Layer_0
  10
415.98074
  20
1262.7103
  0
VERTEX
  5
b6
  8
Layer_0
  10
415.9668
  20
1262.6943
  0
VERTEX
  5
b7
  8
Layer_0
  10
415.96667
  20
1262.6942
  0
SEQEND
  0
POLYLINE
  5
b9
  8
Layer_0
  62
7
  70
1
  66
1
  10
0
  20
0
  30
0
  0
VERTEX
  5
b9
  8
Layer_0
  10
421.28589
  20
1268.726
  0
VERTEX
  5
ba
  8
Layer_0
  10
421.29602
  20
1268.7373
  0
VERTEX
  5
bb
  8
Layer_0
  10
421.2959
  20
1268.7372
  0
SEQEND
  0
POLYLINE
  5
bd
  8
Layer_0
  62
7
  70
1
  66
1
  10
0
  20
0
  30
0
  0
VERTEX
  5
bd
  8
Layer_0
  10
432.20041
  20
1280.5713
  0
VERTEX
  5
be
  8
Layer_0
  10
432.20056
  20
1280.5715
  0
VERTEX
  5
bf
  8
Layer_0
  10
432.21628
  20
1280.5881
  0
VERTEX
  5
c0
  8
Layer_0
  10
432.21613
  20
1280.5879
  0
SEQEND
  0
POLYLINE
  5
c2
  8
Layer_0
  62
7
  70
1
  66
1
  10
0
  20
0
  30
0
  0
VERTEX
  5
c2
  8
Layer_0
  10
443.44495
  20
1292.0842
  0
VERTEX
  5
c3
  8
Layer_0
  10
443.44336
  20
1292.0857
  0
SEQEND
  0
POLYLINE
  5
c5
  8
Layer_0
  62
7
  66
1
  10
0
  20
0
  30
0
  0
VERTEX
  5
c5
  8
Layer_0
  10
460.91971
  20
1308.7217
  0
VERTEX
  5
c6
  8
Layer_0
  10
460.91994
  20
1308.7219
  0
VERTEX
  5
c7
  8
Layer_0
  10
460.92017
  20
1308.722
  0
SEQEND
  0
POLYLINE
  5
c9
  8
Layer_0
  62
7
  66
1
  10
0
  20
0
  30
0
  0
VERTEX
  5
c9
  8
Layer_0
  10
449.18448
  20
1297.7101
  0
VERTEX
  5
ca
  8
Layer_0
  10
449.18466
  20
1297.7103
  0
VERTEX
  5
cb
  8
Layer_0
  10
449.18484
  20
1297.7104
  0
SEQEND
  0
POLYLINE
  5
cd
  8
Layer_0
  62
7
  70
1
  66
1
  10
0
  20
0
  30
0
  0
VERTEX
  5
cd
  8
Layer_0
  10
443.4472
  20
1292.0865
  0
VERTEX
  5
ce
  8
Layer_0
  10
443.44729
  20
1292.0866
  0
VERTEX
  5
cf
  8
Layer_0
  10
443.44907
  20
1292.0883
  0
VERTEX
  5
d0
  8
Layer_0
  10
443.44897
  20
1292.0883
  0
SEQEND
  0
POLYLINE
  5
d2
  8
Layer_0
  62
7
  66
1
  10
0
  20
0
  30
0
  0
VERTEX
  5
d2
  8
Layer_0
  10
437.78207
  20
1286.3699
  0
VERTEX
  5
d3
  8
Layer_0
  10
437.78217
  20
1286.37
  0
VERTEX
  5
d4
  8
Layer_0
  10
437.78226
  20
1286.3701
  0
SEQEND
  0
POLYLINE
  5
d6
  8
Layer_0
  62
7
  66
1
  10
0
  20
0
  30
0
  0
VERTEX
  5
d6
  8
Layer_0
  10
432.20044
  20
1280.5714
  0
VERTEX
  5
d7
  8
Layer_0
  10
432.20831
  20
1280.5797
  0
VERTEX
  5
d8
  8
Layer_0
  10
432.21619
  20
1280.588
  0
SEQEND
  0
POLYLINE
  5
da
  8
Layer_0
  62
7
  70
1
  66
1
  10
0
  20
0
  30
0
  0
VERTEX
  5
da
  8
Layer_0
  10
426.71222
  20
1274.7015
  0
VERTEX
  5
db
  8
Layer_0
  10
426.71234
  20
1274.7017
  42
0.049388989
  0
SEQEND
  0
POLYLINE
  5
dd
  8
Layer_0
  62
7
  66
1
  10
0
  20
0
  30
0
  0
VERTEX
  5
dd
  8
Layer_0
  10
421.29605
  20
1268.7373
  0
VERTEX
  5
de
  8
Layer_0
  10
421.29097
  20
1268.7316
  0
VERTEX
  5
df
  8
Layer_0
  10
421.28589
  20
1268.726
  0
SEQEND
  0
POLYLINE
  5
e1
  8
Layer_0
  62
7
  66
1
  10
0
  20
0
  30
0
  0
VERTEX
  5
e1
  8
Layer_0
  10
415.98093
  20
1262.7105
  0
VERTEX
  5
e2
  8
Layer_0
  10
415.97383
  20
1262.7024
  0
VERTEX
  5
e3
  8
Layer_0
  10
415.96674
  20
1262.6942
  0
SEQEND
  0
POLYLINE
  5
e5
  8
Layer_0
  62
7
  66
1
  10
0
  20
0
  30
0
  0
VERTEX
  5
e5
  8
Layer_0
  10
410.74127
  20
1256.5922
  0
VERTEX
  5
e6
  8
Layer_0
  10
410.74113
  20
1256.592
  0
VERTEX
  5
e7
  8
Layer_0
  10
410.741
  20
1256.5918
  0
SEQEND
  0
POLYLINE
  5
e9
  8
Layer_0
  62
7
  66
1
  10
0
  20
0
  30
0
  0
VERTEX
  5
e9
  8
Layer_0
  10
288.14386
  20
989.30611
  0
VERTEX
  5
ea
  8
Layer_0
  10
288.1391
  20
989.27642
  0
VERTEX
  5
eb
  8
Layer_0
  10
288.13434
  20
989.24673
  0
SEQEND
  0
POLYLINE
  5
ed
  8
Layer_0
  62
7
  66
1
  10
0
  20
0
  30
0
  0
VERTEX
  5
ed
  8
Layer_0
  10
779.07102
  20
1449.6515
  0
VERTEX
  5
ee
  8
Layer_0
  10
779.07089
  20
1449.6515
  0
VERTEX
  5
ef
  8
Layer_0
  10
779.07076
  20
1449.6515
  0
SEQEND
  0
POLYLINE
  5
f1
  8
Layer_0
  62
7
  66
1
  10
0
  20
0
  30
0
  0
VERTEX
  5
f1
  8
Layer_0
  10
787.03854
  20
1450.3435
  0
VERTEX
  5
f2
  8
Layer_0
  10
787.03841
  20
1450.3435
  0
VERTEX
  5
f3
  8
Layer_0
  10
787.03828
  20
1450.3435
  0
SEQEND
  0
POLYLINE
  5
f5
  8
Layer_0
  62
7
  66
1
  10
0
  20
0
  30
0
  0
VERTEX
  5
f5
  8
Layer_0
  10
795.06413
  20
1450.9235
  0
VERTEX
  5
f6
  8
Layer_0
  10
795.064
  20
1450.9235
  0
VERTEX
  5
f7
  8
Layer_0
  10
795.06387
  20
1450.9235
  0
SEQEND
  0
POLYLINE
  5
f9
  8
Layer_0
  62
7
  66
1
  10
0
  20
0
  30
0
  0
VERTEX
  5
f9
  8
Layer_0
  10
287.68427
  20
989.41309
  0
VERTEX
  5
fa
  8
Layer_0
  10
287.68585
  20
989.43121
  0
VERTEX
  5
fb
  8
Layer_0
  10
288.2088
  20
989.28864
  0
VERTEX
  5
fc
  8
Layer_0
  10
273.58197
  20
992.76031
  0
VERTEX
  5
fd
  8
Layer_0
  10
274.57617
  20
998.67737
  0
VERTEX
  5
fe
  8
Layer_0
  10
289.53442
  20
997.17804
  0
VERTEX
  5
ff
  8
Layer_0
  10
289.4577
  20
997.18292
  42
-0.0017103383
  0
VERTEX
  5
100
  8
Layer_0
  10
289.46832
  20
997.24426
  0
VERTEX
  5
101
  8
Layer_0
  10
289.54236
  20
997.22314
  0
VERTEX
  5
102
  8
Layer_0
  10
274.96783
  20
1000.9084
  0
VERTEX
  5
103
  8
Layer_0
  10
276.04852
  20
1006.8104
  0
VERTEX
  5
104
  8
Layer_0
  10
290.98328
  20
1005.0923
  0
VERTEX
  5
105
  8
Layer_0
  10
290.89722
  20
1005.099
  42
0.00070037093
  0
VERTEX
  5
106
  8
Layer_0
  10
290.90918
  20
1005.1621
  0
VERTEX
  5
107
  8
Layer_0
  10
290.99182
  20
1005.1371
  0
VERTEX
  5
108
  8
Layer_0
  10
276.47272
  20
1009.0353
  0
VERTEX
  5
109
  8
Layer_0
  10
277.63959
  20
1014.9207
  0
VERTEX
  5
10a
  8
Layer_0
  10
292.54767
  20
1012.9844
  0
VERTEX
  5
10b
  8
Layer_0
  10
292.45306
  20
1012.9933
  42
-0.00082252964
  0
VERTEX
  5
10c
  8
Layer_0
  10
292.46631
  20
1013.058
  0
VERTEX
  5
10d
  8
Layer_0
  10
292.55695
  20
1013.0293
  0
VERTEX
  5
10e
  8
Layer_0
  10
278.09644
  20
1017.1393
  0
VERTEX
  5
10f
  8
Layer_0
  10
279.3493
  20
1023.0071
  0
VERTEX
  5
110
  8
Layer_0
  10
294.22742
  20
1020.8529
  0
VERTEX
  5
111
  8
Layer_0
  10
294.12488
  20
1020.864
  42
-0.00065986638
  0
VERTEX
  5
112
  8
Layer_0
  10
294.13947
  20
1020.9302
  0
VERTEX
  5
113
  8
Layer_0
  10
294.2373
  20
1020.8976
  0
VERTEX
  5
114
  8
Layer_0
  10
279.83844
  20
1025.2188
  0
VERTEX
  5
115
  8
Layer_0
  10
281.177
  20
1031.0675
  0
VERTEX
  5
116
  8
Layer_0
  10
296.02203
  20
1028.6959
  0
VERTEX
  5
117
  8
Layer_0
  10
295.91248
  20
1028.7096
  42
-5.7494582e-05
  0
VERTEX
  5
118
  8
Layer_0
  10
295.92834
  20
1028.7771
  0
VERTEX
  5
119
  8
Layer_0
  10
296.03259
  20
1028.7406
  0
VERTEX
  5
11a
  8
Layer_0
  10
281.69849
  20
1033.2719
  0
VERTEX
  5
11b
  8
Layer_0
  10
283.12244
  20
1039.1005
  0
VERTEX
  5
11c
  8
Layer_0
  10
297.93121
  20
1036.512
  0
VERTEX
  5
11d
  8
Layer_0
  10
297.81543
  20
1036.5281
  42
3.9481067e-05
  0
VERTEX
  5
11e
  8
Layer_0
  10
297.83264
  20
1036.5967
  0
VERTEX
  5
11f
  8
Layer_0
  10
297.94238
  20
1036.5563
  0
VERTEX
  5
120
  8
Layer_0
  10
283.67609
  20
1041.2969
  0
VERTEX
  5
121
  8
Layer_0
  10
285.18518
  20
1047.104
  0
VERTEX
  5
122
  8
Layer_0
  10
299.95447
  20
1044.2991
  0
VERTEX
  5
123
  8
Layer_0
  10
299.83337
  20
1044.3176
  42
-0.00065734873
  0
VERTEX
  5
124
  8
Layer_0
  10
299.85193
  20
1044.3872
  0
VERTEX
  5
125
  8
Layer_0
  10
299.96631
  20
1044.3433
  0
VERTEX
  5
126
  8
Layer_0
  10
285.77087
  20
1049.292
  0
VERTEX
  5
127
  8
Layer_0
  10
287.36475
  20
1055.0764
  0
VERTEX
  5
128
  8
Layer_0
  10
302.09143
  20
1052.0559
  0
VERTEX
  5
129
  8
Layer_0
  10
301.966
  20
1052.077
  42
0.00060424852
  0
VERTEX
  5
12a
  8
Layer_0
  10
301.98584
  20
1052.1472
  0
VERTEX
  5
12b
  8
Layer_0
  10
302.10388
  20
1052.0999
  0
VERTEX
  5
12c
  8
Layer_0
  10
287.98236
  20
1057.2556
  0
VERTEX
  5
12d
  8
Layer_0
  10
289.66071
  20
1063.0161
  0
VERTEX
  5
12e
  8
Layer_0
  10
304.34161
  20
1059.7805
  0
VERTEX
  5
12f
  8
Layer_0
  10
304.21289
  20
1059.8042
  42
-0.00056917041
  0
VERTEX
  5
130
  8
Layer_0
  10
304.23401
  20
1059.8749
  0
VERTEX
  5
131
  8
Layer_0
  10
304.35474
  20
1059.8245
  0
VERTEX
  5
132
  8
Layer_0
  10
290.31024
  20
1065.1863
  0
VERTEX
  5
133
  8
Layer_0
  10
292.07263
  20
1070.9216
  0
VERTEX
  5
134
  8
Layer_0
  10
306.70459
  20
1067.4716
  0
VERTEX
  5
135
  8
Layer_0
  10
306.57361
  20
1067.4977
  42
9.2727993e-05
  0
VERTEX
  5
136
  8
Layer_0
  10
306.59595
  20
1067.5685
  0
VERTEX
  5
137
  8
Layer_0
  10
306.71838
  20
1067.5151
  0
VERTEX
  5
138
  8
Layer_0
  10
292.75372
  20
1073.0818
  0
VERTEX
  5
139
  8
Layer_0
  10
294.59985
  20
1078.7908
  0
VERTEX
  5
13a
  8
Layer_0
  10
309.17981
  20
1075.1271
  0
VERTEX
  5
13b
  8
Layer_0
  10
309.04749
  20
1075.1554
  42
-0.0004903417
  0
VERTEX
  5
13c
  8
Layer_0
  10
309.07098
  20
1075.2263
  0
VERTEX
  5
13d
  8
Layer_0
  10
309.19421
  20
1075.1705
  0
VERTEX
  5
13e
  8
Layer_0
  10
295.3125
  20
1080.9409
  0
VERTEX
  5
13f
  8
Layer_0
  10
297.24188
  20
1086.6222
  0
VERTEX
  5
140
  8
Layer_0
  10
311.76672
  20
1082.7456
  0
VERTEX
  5
141
  8
Layer_0
  10
311.63416
  20
1082.7761
  42
5.0251218e-05
  0
VERTEX
  5
142
  8
Layer_0
  10
311.65869
  20
1082.8468
  0
VERTEX
  5
143
  8
Layer_0
  10
311.7818
  20
1082.7887
  0
VERTEX
  5
144
  8
Layer_0
  10
297.9859
  20
1088.7616
  0
VERTEX
  5
145
  8
Layer_0
  10
299.99823
  20
1094.4141
  0
VERTEX
  5
146
  8
Layer_0
  10
314.46484
  20
1090.3254
  0
VERTEX
  5
147
  8
Layer_0
  10
314.33276
  20
1090.3578
  42
0.00078794097
  0
VERTEX
  5
148
  8
Layer_0
  10
314.3584
  20
1090.4281
  0
VERTEX
  5
149
  8
Layer_0
  10
314.48047
  20
1090.3684
  0
VERTEX
  5
14a
  8
Layer_0
  10
300.7735
  20
1096.5425
  0
VERTEX
  5
14b
  8
Layer_0
  10
302.86829
  20
1102.1649
  0
VERTEX
  5
14c
  8
Layer_0
  10
317.2735
  20
1097.865
  0
VERTEX
  5
14d
  8
Layer_0
  10
317.14307
  20
1097.8992
  42
-0.00062890536
  0
VERTEX
  5
14e
  8
Layer_0
  10
317.16956
  20
1097.9688
  0
VERTEX
  5
14f
  8
Layer_0
  10
317.28979
  20
1097.9077
  0
VERTEX
  5
150
  8
Layer_0
  10
303.67468
  20
1104.2816
  0
VERTEX
  5
151
  8
Layer_0
  10
305.85144
  20
1109.8728
  0
VERTEX
  5
152
  8
Layer_0
  10
320.19217
  20
1105.3627
  0
VERTEX
  5
153
  8
Layer_0
  10
320.06412
  20
1105.3982
  42
0.00017037224
  0
VERTEX
  5
154
  8
Layer_0
  10
320.09152
  20
1105.4669
  0
VERTEX
  5
155
  8
Layer_0
  10
320.20908
  20
1105.4052
  0
VERTEX
  5
156
  8
Layer_0
  10
306.6886
  20
1111.9775
  0
VERTEX
  5
157
  8
Layer_0
  10
308.9469
  20
1117.5363
  0
VERTEX
  5
158
  8
Layer_0
  10
323.22021
  20
1112.8169
  0
VERTEX
  5
159
  8
Layer_0
  10
323.09546
  20
1112.8534
  42
-0.00057590966
  0
VERTEX
  5
15a
  8
Layer_0
  10
323.1236
  20
1112.9213
  0
VERTEX
  5
15b
  8
Layer_0
  10
323.23773
  20
1112.8591
  0
VERTEX
  5
15c
  8
Layer_0
  10
309.81482
  20
1119.6285
  0
VERTEX
  5
15d
  8
Layer_0
  10
312.15424
  20
1125.1537
  0
VERTEX
  5
15e
  8
Layer_0
  10
326.35696
  20
1120.226
  0
VERTEX
  5
15f
  8
Layer_0
  10
326.23621
  20
1120.2632
  42
-0.00057218412
  0
VERTEX
  5
160
  8
Layer_0
  10
326.26508
  20
1120.3301
  0
VERTEX
  5
161
  8
Layer_0
  10
326.37512
  20
1120.2679
  0
VERTEX
  5
162
  8
Layer_0
  10
313.05267
  20
1127.233
  0
VERTEX
  5
163
  8
Layer_0
  10
315.47266
  20
1132.7234
  0
VERTEX
  5
164
  8
Layer_0
  10
329.60178
  20
1127.5884
  0
VERTEX
  5
165
  8
Layer_0
  10
329.48566
  20
1127.626
  42
-6.5342817e-05
  0
VERTEX
  5
166
  8
Layer_0
  10
329.51514
  20
1127.6915
  0
VERTEX
  5
167
  8
Layer_0
  10
329.62054
  20
1127.6301
  0
VERTEX
  5
168
  8
Layer_0
  10
316.40137
  20
1134.7893
  0
VERTEX
  5
169
  8
Layer_0
  10
318.90143
  20
1140.2437
  0
VERTEX
  5
16a
  8
Layer_0
  10
332.95392
  20
1134.9026
  0
VERTEX
  5
16b
  8
Layer_0
  10
332.84311
  20
1134.9403
  42
0.00030740627
  0
VERTEX
  5
16c
  8
Layer_0
  10
332.87317
  20
1135.0044
  0
VERTEX
  5
16d
  8
Layer_0
  10
332.9733
  20
1134.9441
  0
VERTEX
  5
16e
  8
Layer_0
  10
319.86029
  20
1142.2958
  0
VERTEX
  5
16f
  8
Layer_0
  10
322.43985
  20
1147.713
  0
VERTEX
  5
170
  8
Layer_0
  10
336.41272
  20
1142.167
  0
VERTEX
  5
171
  8
Layer_0
  10
336.30777
  20
1142.2043
  42
-0.00036780854
  0
VERTEX
  5
172
  8
Layer_0
  10
336.33813
  20
1142.267
  0
VERTEX
  5
173
  8
Layer_0
  10
336.43265
  20
1142.2081
  0
VERTEX
  5
174
  8
Layer_0
  10
323.42859
  20
1149.7509
  0
VERTEX
  5
175
  8
Layer_0
  10
326.0871
  20
1155.1298
  0
VERTEX
  5
176
  8
Layer_0
  10
339.97736
  20
1149.3799
  0
VERTEX
  5
177
  8
Layer_0
  10
339.87872
  20
1149.4167
  42
-0.00021660035
  0
VERTEX
  5
178
  8
Layer_0
  10
339.90945
  20
1149.4777
  0
VERTEX
  5
179
  8
Layer_0
  10
339.99789
  20
1149.4208
  0
VERTEX
  5
17a
  8
Layer_0
  10
327.10559
  20
1157.153
  0
VERTEX
  5
17b
  8
Layer_0
  10
329.8425
  20
1162.4924
  0
VERTEX
  5
17c
  8
Layer_0
  10
343.64713
  20
1156.54
  0
VERTEX
  5
17d
  8
Layer_0
  10
343.55527
  20
1156.5759
  42
0.00015877309
  0
VERTEX
  5
17e
  8
Layer_0
  10
343.58621
  20
1156.635
  0
VERTEX
  5
17f
  8
Layer_0
  10
343.66833
  20
1156.5806
  0
VERTEX
  5
180
  8
Layer_0
  10
330.89047
  20
1164.5005
  0
VERTEX
  5
181
  8
Layer_0
  10
333.7052
  20
1169.7993
  0
VERTEX
  5
182
  8
Layer_0
  10
347.42133
  20
1163.6456
  0
VERTEX
  5
183
  8
Layer_0
  10
347.33636
  20
1163.6802
  42
7.8383039e-05
  0
VERTEX
  5
184
  8
Layer_0
  10
347.36749
  20
1163.7375
  0
VERTEX
  5
185
  8
Layer_0
  10
347.44305
  20
1163.6858
  0
VERTEX
  5
186
  8
Layer_0
  10
334.78241
  20
1171.7919
  0
VERTEX
  5
187
  8
Layer_0
  10
337.67435
  20
1177.049
  0
VERTEX
  5
188
  8
Layer_0
  10
351.29898
  20
1170.6953
  0
VERTEX
  5
189
  8
Layer_0
  10
351.22122
  20
1170.7283
  42
0.0011527298
  0
VERTEX
  5
18a
  8
Layer_0
  10
351.2525
  20
1170.7839
  0
VERTEX
  5
18b
  8
Layer_0
  10
351.32132
  20
1170.7352
  0
VERTEX
  5
18c
  8
Layer_0
  10
338.78061
  20
1179.0256
  0
VERTEX
  5
18d
  8
Layer_0
  10
341.74915
  20
1184.2397
  0
VERTEX
  5
18e
  8
Layer_0
  10
355.27936
  20
1177.6875
  0
VERTEX
  5
18f
  8
Layer_0
  10
355.20905
  20
1177.7186
  42
0.00034089447
  0
VERTEX
  5
190
  8
Layer_0
  10
355.24017
  20
1177.7722
  0
VERTEX
  5
191
  8
Layer_0
  10
355.30228
  20
1177.7271
  0
VERTEX
  5
192
  8
Layer_0
  10
342.88422
  20
1186.2
  0
VERTEX
  5
193
  8
Layer_0
  10
345.92868
  20
1191.3701
  0
VERTEX
  5
194
  8
Layer_0
  10
359.3616
  20
1184.6207
  0
VERTEX
  5
195
  8
Layer_0
  10
359.29865
  20
1184.6495
  42
6.5153578e-05
  0
VERTEX
  5
196
  8
Layer_0
  10
359.3298
  20
1184.7014
  0
VERTEX
  5
197
  8
Layer_0
  10
359.38513
  20
1184.6599
  0
VERTEX
  5
198
  8
Layer_0
  10
347.09229
  20
1193.3137
  0
VERTEX
  5
199
  8
Layer_0
  10
350.2121
  20
1198.4387
  0
VERTEX
  5
19a
  8
Layer_0
  10
363.54486
  20
1191.4934
  0
VERTEX
  5
19b
  8
Layer_0
  10
363.48926
  20
1191.5199
  42
-0.00075990584
  0
VERTEX
  5
19c
  8
Layer_0
  10
363.5202
  20
1191.5698
  0
VERTEX
  5
19d
  8
Layer_0
  10
363.56888
  20
1191.5323
  0
VERTEX
  5
19e
  8
Layer_0
  10
351.40393
  20
1200.3649
  0
VERTEX
  5
19f
  8
Layer_0
  10
354.59836
  20
1205.4438
  0
VERTEX
  5
1a0
  8
Layer_0
  10
367.82813
  20
1198.3042
  0
VERTEX
  5
1a1
  8
Layer_0
  10
367.77979
  20
1198.3281
  42
-0.00012134612
  0
VERTEX
  5
1a2
  8
Layer_0
  10
367.81061
  20
1198.3762
  0
VERTEX
  5
1a3
  8
Layer_0
  10
367.85275
  20
1198.3428
  0
VERTEX
  5
1a4
  8
Layer_0
  10
355.81833
  20
1207.3523
  0
VERTEX
  5
1a5
  8
Layer_0
  10
359.0867
  20
1212.384
  0
VERTEX
  5
1a6
  8
Layer_0
  10
372.2106
  20
1205.0516
  0
VERTEX
  5
1a7
  8
Layer_0
  10
372.16931
  20
1205.0728
  42
0.00010614786
  0
VERTEX
  5
1a8
  8
Layer_0
  10
372.19998
  20
1205.1191
  0
VERTEX
  5
1a9
  8
Layer_0
  10
372.23581
  20
1205.0898
  0
VERTEX
  5
1aa
  8
Layer_0
  10
360.33444
  20
1214.2745
  0
VERTEX
  5
1ab
  8
Layer_0
  10
363.67609
  20
1219.2578
  0
VERTEX
  5
1ac
  8
Layer_0
  10
376.69131
  20
1211.7344
  0
VERTEX
  5
1ad
  8
Layer_0
  10
376.65686
  20
1211.7524
  42
-0.00034987074
  0
VERTEX
  5
1ae
  8
Layer_0
  10
376.68732
  20
1211.7971
  0
VERTEX
  5
1af
  8
Layer_0
  10
376.71707
  20
1211.7721
  0
VERTEX
  5
1b0
  8
Layer_0
  10
364.95135
  20
1221.1299
  0
VERTEX
  5
1b1
  8
Layer_0
  10
368.36551
  20
1226.0637
  0
VERTEX
  5
1b2
  8
Layer_0
  10
381.26929
  20
1218.3507
  0
VERTEX
  5
1b3
  8
Layer_0
  10
381.24136
  20
1218.366
  42
0.0014079684
  0
VERTEX
  5
1b4
  8
Layer_0
  10
381.27164
  20
1218.4088
  0
VERTEX
  5
1b5
  8
Layer_0
  10
381.29556
  20
1218.3881
  0
VERTEX
  5
1b6
  8
Layer_0
  10
369.66797
  20
1227.917
  0
VERTEX
  5
1b7
  8
Layer_0
  10
373.15396
  20
1232.8003
  0
VERTEX
  5
1b8
  8
Layer_0
  10
385.94354
  20
1224.8994
  0
VERTEX
  5
1b9
  8
Layer_0
  10
385.92181
  20
1224.9116
  42
0.00036294024
  0
VERTEX
  5
1ba
  8
Layer_0
  10
385.95181
  20
1224.9529
  0
VERTEX
  5
1bb
  8
Layer_0
  10
385.97043
  20
1224.9364
  0
VERTEX
  5
1bc
  8
Layer_0
  10
374.48346
  20
1234.6343
  0
VERTEX
  5
1bd
  8
Layer_0
  10
378.0405
  20
1239.4662
  0
VERTEX
  5
1be
  8
Layer_0
  10
390.71313
  20
1231.3789
  0
VERTEX
  5
1bf
  8
Layer_0
  10
390.69708
  20
1231.3882
  42
0.00027482584
  0
VERTEX
  5
1c0
  8
Layer_0
  10
390.72693
  20
1231.428
  0
VERTEX
  5
1c1
  8
Layer_0
  10
390.74054
  20
1231.4156
  0
VERTEX
  5
1c2
  8
Layer_0
  10
379.39667
  20
1241.2805
  0
VERTEX
  5
1c3
  8
Layer_0
  10
383.02402
  20
1246.0599
  0
VERTEX
  5
1c4
  8
Layer_0
  10
395.577
  20
1237.7881
  0
VERTEX
  5
1c5
  8
Layer_0
  10
395.56628
  20
1237.7944
  42
0.00037491453
  0
VERTEX
  5
1c6
  8
Layer_0
  10
395.59579
  20
1237.8328
  0
VERTEX
  5
1c7
  8
Layer_0
  10
395.60492
  20
1237.8243
  0
VERTEX
  5
1c8
  8
Layer_0
  10
384.40656
  20
1247.8541
  0
VERTEX
  5
1c9
  8
Layer_0
  10
388.10342
  20
1252.58
  0
VERTEX
  5
1ca
  8
Layer_0
  10
400.53406
  20
1244.1255
  0
VERTEX
  5
1cb
  8
Layer_0
  10
400.52808
  20
1244.1289
  42
0.0002957386
  0
VERTEX
  5
1cc
  8
Layer_0
  10
400.5575
  20
1244.166
  0
VERTEX
  5
1cd
  8
Layer_0
  10
400.5625
  20
1244.1613
  0
VERTEX
  5
1ce
  8
Layer_0
  10
389.51205
  20
1254.3538
  0
VERTEX
  5
1cf
  8
Layer_0
  10
393.27765
  20
1259.0249
  0
VERTEX
  5
1d0
  8
Layer_0
  10
405.58328
  20
1250.3895
  0
VERTEX
  5
1d1
  8
Layer_0
  10
405.58151
  20
1250.3904
  0
VERTEX
  5
1d2
  8
Layer_0
  10
394.7121
  20
1260.7346
  0
VERTEX
  5
1d3
  8
Layer_0
  10
398.58163
  20
1265.3936
  0
VERTEX
  5
1d4
  8
Layer_0
  10
410.74118
  20
1256.5922
  0
VERTEX
  5
1d5
  8
Layer_0
  10
410.74103
  20
1256.592
  0
VERTEX
  5
1d6
  8
Layer_0
  10
400.00555
  20
1267.0659
  0
VERTEX
  5
1d7
  8
Layer_0
  10
403.95712
  20
1271.6846
  0
VERTEX
  5
1d8
  8
Layer_0
  10
415.8645
  20
1262.7974
  0
VERTEX
  5
1d9
  8
Layer_0
  10
405.3913
  20
1273.3448
  0
VERTEX
  5
1da
  8
Layer_0
  10
409.40231
  20
1277.8964
  0
VERTEX
  5
1db
  8
Layer_0
  10
421.21414
  20
1268.8004
  0
VERTEX
  5
1dc
  8
Layer_0
  10
410.86816
  20
1279.5292
  0
VERTEX
  5
1dd
  8
Layer_0
  10
414.95099
  20
1284.0278
  0
VERTEX
  5
1de
  8
Layer_0
  10
426.50418
  20
1274.8668
  0
VERTEX
  5
1df
  8
Layer_0
  10
416.43503
  20
1285.6189
  0
VERTEX
  5
1e0
  8
Layer_0
  10
420.60205
  20
1290.0776
  0
VERTEX
  5
1e1
  8
Layer_0
  10
432.11957
  20
1280.6671
  0
VERTEX
  5
1e2
  8
Layer_0
  10
432.11877
  20
1280.6681
  0
VERTEX
  5
1e3
  8
Layer_0
  10
422.09064
  20
1291.6815
  0
VERTEX
  5
1e4
  8
Layer_0
  10
426.28928
  20
1296.0442
  0
VERTEX
  5
1e5
  8
Layer_0
  10
437.78229
  20
1286.3701
  0
VERTEX
  5
1e6
  8
Layer_0
  10
437.78214
  20
1286.37
  0
VERTEX
  5
1e7
  8
Layer_0
  10
427.83377
  20
1297.6189
  0
VERTEX
  5
1e8
  8
Layer_0
  10
432.10263
  20
1301.9266
  0
VERTEX
  5
1e9
  8
Layer_0
  10
443.44925
  20
1292.0885
  0
VERTEX
  5
1ea
  8
Layer_0
  10
433.66327
  20
1303.501
  0
VERTEX
  5
1eb
  8
Layer_0
  10
437.97183
  20
1307.7234
  0
VERTEX
  5
1ec
  8
Layer_0
  10
449.18469
  20
1297.7102
  0
VERTEX
  5
1ed
  8
Layer_0
  10
449.18454
  20
1297.7101
  0
VERTEX
  5
1ee
  8
Layer_0
  10
439.57776
  20
1309.2451
  0
VERTEX
  5
1ef
  8
Layer_0
  10
443.97849
  20
1313.4333
  0
VERTEX
  5
1f0
  8
Layer_0
  10
454.97067
  20
1303.3245
  0
VERTEX
  5
1f1
  8
Layer_0
  10
454.96884
  20
1303.3262
  0
VERTEX
  5
1f2
  8
Layer_0
  10
445.57617
  20
1314.954
  0
VERTEX
  5
1f3
  8
Layer_0
  10
450.01382
  20
1319.0554
  0
VERTEX
  5
1f4
  8
Layer_0
  10
460.91989
  20
1308.7219
  0
VERTEX
  5
1f5
  8
Layer_0
  10
460.91873
  20
1308.7233
  0
VERTEX
  5
1f6
  8
Layer_0
  10
460.91968
  20
1308.7217
  0
VERTEX
  5
1f7
  8
Layer_0
  10
451.65707
  20
1320.538
  0
VERTEX
  5
1f8
  8
Layer_0
  10
456.16998
  20
1324.5881
  0
VERTEX
  5
1f9
  8
Layer_0
  10
466.85187
  20
1314.1633
  0
VERTEX
  5
1fa
  8
Layer_0
  10
457.81927
  20
1326.04
  0
VERTEX
  5
1fb
  8
Layer_0
  10
462.39874
  20
1330.0305
  0
VERTEX
  5
1fc
  8
Layer_0
  10
472.93982
  20
1319.4464
  0
VERTEX
  5
1fd
  8
Layer_0
  10
472.94104
  20
1319.4448
  0
VERTEX
  5
1fe
  8
Layer_0
  10
464.06131
  20
1331.4684
  0
VERTEX
  5
1ff
  8
Layer_0
  10
468.68661
  20
1335.3813
  0
VERTEX
  5
200
  8
Layer_0
  10
479.11887
  20
1324.5951
  0
VERTEX
  5
201
  8
Layer_0
  10
470.38196
  20
1336.7854
  0
VERTEX
  5
202
  8
Layer_0
  10
475.07513
  20
1340.6394
  0
VERTEX
  5
203
  8
Layer_0
  10
485.17441
  20
1329.8871
  0
VERTEX
  5
204
  8
Layer_0
  10
485.26977
  20
1329.7843
  0
VERTEX
  5
205
  8
Layer_0
  10
485.31874
  20
1329.7316
  0
VERTEX
  5
206
  8
Layer_0
  10
485.33678
  20
1329.7123
  0
VERTEX
  5
207
  8
Layer_0
  10
485.33936
  20
1329.7096
  42
0.099019514
  0
VERTEX
  5
208
  8
Layer_0
  10
485.3396
  20
1329.7098
  0
VERTEX
  5
209
  8
Layer_0
  10
485.33936
  20
1329.7096
  0
VERTEX
  5
20a
  8
Layer_0
  10
476.77979
  20
1341.9918
  0
VERTEX
  5
20b
  8
Layer_0
  10
481.56268
  20
1345.8037
  0
VERTEX
  5
20c
  8
Layer_0
  10
491.51248
  20
1334.8953
  0
VERTEX
  5
20d
  8
Layer_0
  10
483.25354
  20
1347.1848
  0
VERTEX
  5
20e
  8
Layer_0
  10
488.02271
  20
1350.873
  0
VERTEX
  5
20f
  8
Layer_0
  10
497.96829
  20
1339.6383
  0
VERTEX
  5
210
  8
Layer_0
  10
497.96814
  20
1339.6382
  0
VERTEX
  5
211
  8
Layer_0
  10
489.80173
  20
1352.2109
  0
VERTEX
  5
212
  8
Layer_0
  10
494.64731
  20
1355.8463
  0
VERTEX
  5
213
  8
Layer_0
  10
504.41733
  20
1344.4843
  0
VERTEX
  5
214
  8
Layer_0
  10
504.41217
  20
1344.4803
  0
VERTEX
  5
215
  8
Layer_0
  10
504.41199
  20
1344.4802
  0
VERTEX
  5
216
  8
Layer_0
  10
496.42297
  20
1357.1754
  0
VERTEX
  5
217
  8
Layer_0
  10
501.29782
  20
1360.7224
  0
VERTEX
  5
218
  8
Layer_0
  10
510.97784
  20
1349.1265
  0
VERTEX
  5
219
  8
Layer_0
  10
510.90219
  20
1349.2109
  42
0.00076487791
  0
VERTEX
  5
21a
  8
Layer_0
  10
510.92496
  20
1349.2272
  0
VERTEX
  5
21b
  8
Layer_0
  10
511.0018
  20
1349.0917
  0
VERTEX
  5
21c
  8
Layer_0
  10
503.11588
  20
1362.017
  0
VERTEX
  5
21d
  8
Layer_0
  10
508.05377
  20
1365.5005
  0
VERTEX
  5
21e
  8
Layer_0
  10
517.49255
  20
1353.8687
  0
VERTEX
  5
21f
  8
Layer_0
  10
509.87903
  20
1366.7684
  0
VERTEX
  5
220
  8
Layer_0
  10
514.86725
  20
1370.1794
  0
VERTEX
  5
221
  8
Layer_0
  10
524.12134
  20
1358.4099
  0
VERTEX
  5
222
  8
Layer_0
  10
524.12988
  20
1358.4156
  0
VERTEX
  5
223
  8
Layer_0
  10
516.71094
  20
1371.4167
  0
VERTEX
  5
224
  8
Layer_0
  10
521.75415
  20
1374.7581
  0
VERTEX
  5
225
  8
Layer_0
  10
530.83948
  20
1362.8696
  0
VERTEX
  5
226
  8
Layer_0
  10
523.61011
  20
1375.98
  0
VERTEX
  5
227
  8
Layer_0
  10
528.68384
  20
1379.2356
  0
VERTEX
  5
228
  8
Layer_0
  10
537.58508
  20
1367.207
  42
-0.0012037208
  0
VERTEX
  5
229
  8
Layer_0
  10
537.61444
  20
1367.2256
  0
VERTEX
  5
22a
  8
Layer_0
  10
530.5752
  20
1380.4448
  0
VERTEX
  5
22b
  8
Layer_0
  10
535.67181
  20
1383.6111
  0
VERTEX
  5
22c
  8
Layer_0
  10
544.39905
  20
1371.4495
  42
0.0007077658
  0
VERTEX
  5
22d
  8
Layer_0
  10
544.44629
  20
1371.4783
  0
VERTEX
  5
22e
  8
Layer_0
  10
537.60461
  20
1384.7922
  0
VERTEX
  5
22f
  8
Layer_0
  10
542.74695
  20
1387.8835
  0
VERTEX
  5
230
  8
Layer_0
  10
551.29114
  20
1375.6018
  42
0.00021879802
  0
VERTEX
  5
231
  8
Layer_0
  10
551.3396
  20
1375.6305
  0
VERTEX
  5
232
  8
Layer_0
  10
544.69678
  20
1389.0363
  0
VERTEX
  5
233
  8
Layer_0
  10
549.88391
  20
1392.052
  0
VERTEX
  5
234
  8
Layer_0
  10
558.24316
  20
1379.6528
  42
-0.00019805798
  0
VERTEX
  5
235
  8
Layer_0
  10
558.29309
  20
1379.6814
  0
VERTEX
  5
236
  8
Layer_0
  10
551.85034
  20
1393.176
  0
VERTEX
  5
237
  8
Layer_0
  10
557.08099
  20
1396.1156
  0
VERTEX
  5
238
  8
Layer_0
  10
565.25403
  20
1383.6017
  42
-7.6081272e-05
  0
VERTEX
  5
239
  8
Layer_0
  10
565.30518
  20
1383.6301
  0
VERTEX
  5
23a
  8
Layer_0
  10
559.06372
  20
1397.2108
  0
VERTEX
  5
23b
  8
Layer_0
  10
564.33679
  20
1400.0735
  0
VERTEX
  5
23c
  8
Layer_0
  10
572.32202
  20
1387.4475
  42
0.00018088656
  0
VERTEX
  5
23d
  8
Layer_0
  10
572.37463
  20
1387.4756
  0
VERTEX
  5
23e
  8
Layer_0
  10
566.33533
  20
1401.1396
  0
VERTEX
  5
23f
  8
Layer_0
  10
571.64966
  20
1403.9248
  0
VERTEX
  5
240
  8
Layer_0
  10
579.4458
  20
1391.1892
  42
-0.00028253215
  0
VERTEX
  5
241
  8
Layer_0
  10
579.49969
  20
1391.217
  0
VERTEX
  5
242
  8
Layer_0
  10
573.66357
  20
1404.9617
  0
VERTEX
  5
243
  8
Layer_0
  10
579.01813
  20
1407.6688
  0
VERTEX
  5
244
  8
Layer_0
  10
586.62384
  20
1394.8259
  42
-0.00033272109
  0
VERTEX
  5
245
  8
Layer_0
  10
586.67902
  20
1394.8534
  0
VERTEX
  5
246
  8
Layer_0
  10
581.047
  20
1408.676
  0
VERTEX
  5
247
  8
Layer_0
  10
586.44055
  20
1411.3047
  0
VERTEX
  5
248
  8
Layer_0
  10
593.85468
  20
1398.3571
  42
0.00035830847
  0
VERTEX
  5
249
  8
Layer_0
  10
593.91095
  20
1398.384
  0
VERTEX
  5
24a
  8
Layer_0
  10
588.48395
  20
1412.282
  0
VERTEX
  5
24b
  8
Layer_0
  10
593.91541
  20
1414.8314
  0
VERTEX
  5
24c
  8
Layer_0
  10
601.13666
  20
1401.7815
  42
-0.00010122844
  0
VERTEX
  5
24d
  8
Layer_0
  10
601.19415
  20
1401.808
  0
VERTEX
  5
24e
  8
Layer_0
  10
595.97284
  20
1415.7788
  0
VERTEX
  5
24f
  8
Layer_0
  10
601.44098
  20
1418.2485
  0
VERTEX
  5
250
  8
Layer_0
  10
608.46838
  20
1405.0986
  42
-0.00054278422
  0
VERTEX
  5
251
  8
Layer_0
  10
608.52686
  20
1405.1245
  0
VERTEX
  5
252
  8
Layer_0
  10
603.51208
  20
1419.1658
  0
VERTEX
  5
253
  8
Layer_0
  10
609.01581
  20
1421.5552
  0
VERTEX
  5
254
  8
Layer_0
  10
615.84814
  20
1408.3075
  42
0.0004645772
  0
VERTEX
  5
255
  8
Layer_0
  10
615.90759
  20
1408.3328
  0
VERTEX
  5
256
  8
Layer_0
  10
611.1001
  20
1422.442
  0
VERTEX
  5
257
  8
Layer_0
  10
616.63812
  20
1424.7507
  0
VERTEX
  5
258
  8
Layer_0
  10
623.27454
  20
1411.4075
  42
0.0003119212
  0
VERTEX
  5
259
  8
Layer_0
  10
623.33478
  20
1411.432
  0
VERTEX
  5
25a
  8
Layer_0
  10
618.73517
  20
1425.6069
  0
VERTEX
  5
25b
  8
Layer_0
  10
624.3064
  20
1427.8344
  0
VERTEX
  5
25c
  8
Layer_0
  10
630.74585
  20
1414.3977
  42
-0.0001271628
  0
VERTEX
  5
25d
  8
Layer_0
  10
630.80676
  20
1414.4216
  0
VERTEX
  5
25e
  8
Layer_0
  10
626.41577
  20
1428.6599
  0
VERTEX
  5
25f
  8
Layer_0
  10
632.01898
  20
1430.8054
  0
VERTEX
  5
260
  8
Layer_0
  10
638.2605
  20
1417.2776
  42
-0.00049051895
  0
VERTEX
  5
261
  8
Layer_0
  10
638.32196
  20
1417.3007
  0
VERTEX
  5
262
  8
Layer_0
  10
634.14014
  20
1431.6
  0
VERTEX
  5
263
  8
Layer_0
  10
639.77417
  20
1433.6635
  0
VERTEX
  5
264
  8
Layer_0
  10
645.81677
  20
1420.0464
  42
5.85611e-05
  0
VERTEX
  5
265
  8
Layer_0
  10
645.87878
  20
1420.0686
  0
VERTEX
  5
266
  8
Layer_0
  10
641.90674
  20
1434.427
  0
VERTEX
  5
267
  8
Layer_0
  10
647.57037
  20
1436.4078
  0
VERTEX
  5
268
  8
Layer_0
  10
653.41321
  20
1422.7036
  42
0.0006992508
  0
VERTEX
  5
269
  8
Layer_0
  10
653.47546
  20
1422.7249
  0
VERTEX
  5
26a
  8
Layer_0
  10
649.71387
  20
1437.1399
  0
VERTEX
  5
26b
  8
Layer_0
  10
655.40588
  20
1439.0377
  0
VERTEX
  5
26c
  8
Layer_0
  10
661.0481
  20
1425.2485
  0
VERTEX
  5
26d
  8
Layer_0
  10
661.07928
  20
1425.2586
  0
VERTEX
  5
26e
  8
Layer_0
  10
661.11046
  20
1425.2688
  0
VERTEX
  5
26f
  8
Layer_0
  10
657.55988
  20
1439.7384
  0
VERTEX
  5
270
  8
Layer_0
  10
663.27899
  20
1441.5527
  0
VERTEX
  5
271
  8
Layer_0
  10
668.71967
  20
1427.6804
  42
-0.001189919
  0
VERTEX
  5
272
  8
Layer_0
  10
668.78204
  20
1427.6997
  0
VERTEX
  5
273
  8
Layer_0
  10
665.44299
  20
1442.2219
  0
VERTEX
  5
274
  8
Layer_0
  10
671.18805
  20
1443.9524
  0
VERTEX
  5
275
  8
Layer_0
  10
676.42651
  20
1429.9993
  42
0.00080862958
  0
VERTEX
  5
276
  8
Layer_0
  10
676.48944
  20
1430.0176
  0
VERTEX
  5
277
  8
Layer_0
  10
676.48962
  20
1430.0177
  0
VERTEX
  5
278
  8
Layer_0
  10
673.36163
  20
1444.5964
  0
VERTEX
  5
279
  8
Layer_0
  10
679.10803
  20
1446.2361
  0
VERTEX
  5
27a
  8
Layer_0
  10
684.14294
  20
1432.1974
  0
VERTEX
  5
27b
  8
Layer_0
  10
684.1427
  20
1432.1973
  42
0.00058889392
  0
VERTEX
  5
27c
  8
Layer_0
  10
684.22797
  20
1432.2209
  0
VERTEX
  5
27d
  8
Layer_0
  10
681.31403
  20
1446.8416
  0
VERTEX
  5
27e
  8
Layer_0
  10
687.10724
  20
1448.4033
  0
VERTEX
  5
27f
  8
Layer_0
  10
691.93787
  20
1434.2942
  42
0.00013743971
  0
VERTEX
  5
280
  8
Layer_0
  10
691.99921
  20
1434.3103
  0
VERTEX
  5
281
  8
Layer_0
  10
689.29858
  20
1448.9768
  0
VERTEX
  5
282
  8
Layer_0
  10
695.11401
  20
1450.4536
  0
VERTEX
  5
283
  8
Layer_0
  10
699.7395
  20
1436.2698
  42
-0.0015318039
  0
VERTEX
  5
284
  8
Layer_0
  10
699.80029
  20
1436.2847
  0
VERTEX
  5
285
  8
Layer_0
  10
697.31342
  20
1450.995
  0
VERTEX
  5
286
  8
Layer_0
  10
703.14984
  20
1452.3865
  0
VERTEX
  5
287
  8
Layer_0
  10
707.56934
  20
1438.1301
  42
0.00068218884
  0
VERTEX
  5
288
  8
Layer_0
  10
707.62939
  20
1438.1438
  0
VERTEX
  5
289
  8
Layer_0
  10
705.35699
  20
1452.8958
  0
VERTEX
  5
28a
  8
Layer_0
  10
711.21313
  20
1454.2017
  0
VERTEX
  5
28b
  8
Layer_0
  10
715.42578
  20
1439.8749
  42
-0.00019017932
  0
VERTEX
  5
28c
  8
Layer_0
  10
715.48492
  20
1439.8875
  0
VERTEX
  5
28d
  8
Layer_0
  10
713.42749
  20
1454.6786
  0
VERTEX
  5
28e
  8
Layer_0
  10
719.30206
  20
1455.8988
  0
VERTEX
  5
28f
  8
Layer_0
  10
723.30695
  20
1441.5039
  42
0.0015525977
  0
VERTEX
  5
290
  8
Layer_0
  10
723.36499
  20
1441.5155
  0
VERTEX
  5
291
  8
Layer_0
  10
721.52319
  20
1456.3433
  0
VERTEX
  5
292
  8
Layer_0
  10
727.41504
  20
1457.4773
  0
VERTEX
  5
293
  8
Layer_0
  10
731.21112
  20
1443.0167
  42
0.0013735384
  0
VERTEX
  5
294
  8
Layer_0
  10
731.26813
  20
1443.0272
  0
VERTEX
  5
295
  8
Layer_0
  10
729.6424
  20
1457.8892
  0
VERTEX
  5
296
  8
Layer_0
  10
735.55017
  20
1458.937
  0
VERTEX
  5
297
  8
Layer_0
  10
739.1366
  20
1444.4133
  42
-1.6713103e-05
  0
VERTEX
  5
298
  8
Layer_0
  10
739.19238
  20
1444.4226
  0
VERTEX
  5
299
  8
Layer_0
  10
737.78333
  20
1459.3164
  0
VERTEX
  5
29a
  8
Layer_0
  10
743.70581
  20
1460.2776
  0
VERTEX
  5
29b
  8
Layer_0
  10
747.0816
  20
1445.6934
  42
-0.0008055889
  0
VERTEX
  5
29c
  8
Layer_0
  10
747.13611
  20
1445.7018
  0
VERTEX
  5
29d
  8
Layer_0
  10
745.94421
  20
1460.6243
  0
VERTEX
  5
29e
  8
Layer_0
  10
751.88019
  20
1461.4988
  0
VERTEX
  5
29f
  8
Layer_0
  10
755.04443
  20
1446.8569
  42
-0.0002779563
  0
VERTEX
  5
2a0
  8
Layer_0
  10
755.09753
  20
1446.8643
  0
VERTEX
  5
2a1
  8
Layer_0
  10
754.12341
  20
1461.8125
  0
VERTEX
  5
2a2
  8
Layer_0
  10
760.07153
  20
1462.6002
  0
VERTEX
  5
2a3
  8
Layer_0
  10
763.02325
  20
1447.9036
  42
-0.0013140645
  0
VERTEX
  5
2a4
  8
Layer_0
  10
763.07495
  20
1447.9099
  0
VERTEX
  5
2a5
  8
Layer_0
  10
762.31915
  20
1462.8811
  0
VERTEX
  5
2a6
  8
Layer_0
  10
768.27814
  20
1463.5817
  0
VERTEX
  5
2a7
  8
Layer_0
  10
771.01636
  20
1448.8336
  42
6.1323359e-06
  0
VERTEX
  5
2a8
  8
Layer_0
  10
771.06671
  20
1448.8391
  0
VERTEX
  5
2a9
  8
Layer_0
  10
770.5296
  20
1463.8297
  0
VERTEX
  5
2aa
  8
Layer_0
  10
776.49817
  20
1464.4431
  0
VERTEX
  5
2ab
  8
Layer_0
  10
779.07104
  20
1449.6515
  0
VERTEX
  5
2ac
  8
Layer_0
  10
778.75305
  20
1464.6581
  0
VERTEX
  5
2ad
  8
Layer_0
  10
784.72998
  20
1465.1841
  0
VERTEX
  5
2ae
  8
Layer_0
  10
787.03857
  20
1450.3435
  0
VERTEX
  5
2af
  8
Layer_0
  10
786.98779
  20
1465.366
  0
VERTEX
  5
2b0
  8
Layer_0
  10
792.97174
  20
1465.8044
  0
VERTEX
  5
2b1
  8
Layer_0
  10
795.06415
  20
1450.9235
  0
VERTEX
  5
2b2
  8
Layer_0
  10
795.23193
  20
1465.9478
  0
VERTEX
  5
2b3
  8
Layer_0
  10
801.22168
  20
1466.3044
  0
VERTEX
  5
2b4
  8
Layer_0
  10
803.06696
  20
1451.3855
  0
VERTEX
  5
2b5
  8
Layer_0
  10
803.06671
  20
1451.3855
  42
-0.00058210909
  0
VERTEX
  5
2b6
  8
Layer_0
  10
803.14575
  20
1451.3895
  0
VERTEX
  5
2b7
  8
Layer_0
  10
803.14841
  20
1451.3896
  0
VERTEX
  5
2b8
  8
Layer_0
  10
803.14879
  20
1451.3896
  0
VERTEX
  5
2b9
  8
Layer_0
  10
803.14575
  20
1451.3894
  0
VERTEX
  5
2ba
  8
Layer_0
  10
803.48383
  20
1466.418
  0
VERTEX
  5
2bb
  8
Layer_0
  10
809.47803
  20
1466.6836
  0
VERTEX
  5
2bc
  8
Layer_0
  10
811.12036
  20
1451.7339
  42
-0.0011401179
  0
VERTEX
  5
2bd
  8
Layer_0
  10
811.19995
  20
1451.7366
  0
VERTEX
  5
2be
  8
Layer_0
  10
811.19965
  20
1451.7366
  0
VERTEX
  5
2bf
  8
Layer_0
  10
811.74164
  20
1466.7631
  0
VERTEX
  5
2c0
  8
Layer_0
  10
817.73907
  20
1466.9419
  0
VERTEX
  5
2c1
  8
Layer_0
  10
819.15173
  20
1451.9651
  42
-0.00052258946
  0
VERTEX
  5
2c2
  8
Layer_0
  10
819.23926
  20
1451.967
  0
VERTEX
  5
2c3
  8
Layer_0
  10
819.24852
  20
1451.9672
  0
VERTEX
  5
2c4
  8
Layer_0
  10
819.24985
  20
1451.9672
  0
VERTEX
  5
2c5
  8
Layer_0
  10
819.23932
  20
1451.967
  0
VERTEX
  5
2c6
  8
Layer_0
  10
820.00366
  20
1466.9897
  0
VERTEX
  5
2c7
  8
Layer_0
  10
826.00299
  20
1467.0793
  0
VERTEX
  5
2c8
  8
Layer_0
  10
827.1864
  20
1452.0811
  0
SEQEND
  0
POLYLINE
  5
2ca
  8
Layer_0
  62
7
  66
1
  10
0
  20
0
  30
0
  0
VERTEX
  5
2ca
  8
Layer_0
  10
287.67334
  20
989.28821
  0
VERTEX
  5
2cb
  8
Layer_0
  10
287.67181
  20
989.27087
  0
VERTEX
  5
2cc
  8
Layer_0
  10
288.20154
  20
989.24347
  0
VERTEX
  5
2cd
  8
Layer_0
  10
273.07819
  20
990.52386
  0
VERTEX
  5
2ce
  8
Layer_0
  10
272.26184
  20
985.23981
  0
VERTEX
  5
2cf
  8
Layer_0
  10
206.73187
  20
236.2287
  0
VERTEX
  5
2d0
  8
Layer_0
  10
206.73233
  20
236.22867
  0
VERTEX
  5
2d1
  8
Layer_0
  10
206.74759
  20
236.22738
  0
VERTEX
  5
2d2
  8
Layer_0
  10
206.7985
  20
236.22305
  0
VERTEX
  5
2d3
  8
Layer_0
  10
206.90587
  20
236.21391
  0
VERTEX
  5
2d4
  8
Layer_0
  10
207.09055
  20
236.19816
  0
VERTEX
  5
2d5
  8
Layer_0
  10
207.37337
  20
236.17403
  0
VERTEX
  5
2d6
  8
Layer_0
  10
207.5581
  20
236.15826
  0
VERTEX
  5
2d7
  8
Layer_0
  10
207.77517
  20
236.13973
  0
VERTEX
  5
2d8
  8
Layer_0
  10
208.02719
  20
236.11821
  0
VERTEX
  5
2d9
  8
Layer_0
  10
208.31676
  20
236.09348
  0
VERTEX
  5
2da
  8
Layer_0
  10
208.6465
  20
236.06531
  0
VERTEX
  5
2db
  8
Layer_0
  10
209.019
  20
236.03349
  0
VERTEX
  5
2dc
  8
Layer_0
  10
209.43687
  20
235.99779
  0
VERTEX
  5
2dd
  8
Layer_0
  10
209.90272
  20
235.95799
  0
VERTEX
  5
2de
  8
Layer_0
  10
210.41914
  20
235.91387
  0
VERTEX
  5
2df
  8
Layer_0
  10
210.98874
  20
235.86519
  0
VERTEX
  5
2e0
  8
Layer_0
  10
211.61412
  20
235.81175
  0
VERTEX
  5
2e1
  8
Layer_0
  10
212.2979
  20
235.75332
  0
VERTEX
  5
2e2
  8
Layer_0
  10
213.04267
  20
235.68967
  0
VERTEX
  5
2e3
  8
Layer_0
  10
213.85103
  20
235.62058
  0
VERTEX
  5
2e4
  8
Layer_0
  10
214.7256
  20
235.54582
  0
VERTEX
  5
2e5
  8
Layer_0
  10
215.66898
  20
235.46519
  0
VERTEX
  5
2e6
  8
Layer_0
  10
216.68376
  20
235.37845
  0
VERTEX
  5
2e7
  8
Layer_0
  10
217.77256
  20
235.28537
  0
VERTEX
  5
2e8
  8
Layer_0
  10
218.93798
  20
235.18575
  0
VERTEX
  5
2e9
  8
Layer_0
  10
220.18262
  20
235.07935
  42
-0.38943763
  0
VERTEX
  5
2ea
  8
Layer_0
  10
221.67712
  20
236.44989
  42
-0.41421356
  0
VERTEX
  5
2eb
  8
Layer_0
  10
223.17712
  20
234.94989
  42
-0.021550389
  0
VERTEX
  5
2ec
  8
Layer_0
  10
223.17151
  20
234.81909
  0
VERTEX
  5
2ed
  8
Layer_0
  10
223.17151
  20
234.81909
  0
VERTEX
  5
2ee
  8
Layer_0
  10
450.80191
  20
214.90405
  0
VERTEX
  5
2ef
  8
Layer_0
  10
515.47412
  20
954.11029
  0
VERTEX
  5
2f0
  8
Layer_0
  10
516.076
  20
957.666
  0
VERTEX
  5
2f1
  8
Layer_0
  10
516.71687
  20
961.2083
  0
VERTEX
  5
2f2
  8
Layer_0
  10
517.39649
  20
964.73696
  0
VERTEX
  5
2f3
  8
Layer_0
  10
518.11465
  20
968.25174
  0
VERTEX
  5
2f4
  8
Layer_0
  10
518.8711
  20
971.75243
  0
VERTEX
  5
2f5
  8
Layer_0
  10
519.66562
  20
975.23879
  0
VERTEX
  5
2f6
  8
Layer_0
  10
520.49799
  20
978.71059
  0
VERTEX
  5
2f7
  8
Layer_0
  10
521.36797
  20
982.16761
  0
VERTEX
  5
2f8
  8
Layer_0
  10
522.27533
  20
985.60961
  0
VERTEX
  5
2f9
  8
Layer_0
  10
523.21985
  20
989.03637
  0
VERTEX
  5
2fa
  8
Layer_0
  10
524.2013
  20
992.44765
  0
VERTEX
  5
2fb
  8
Layer_0
  10
525.21944
  20
995.84323
  0
VERTEX
  5
2fc
  8
Layer_0
  10
526.27405
  20
999.22289
  0
VERTEX
  5
2fd
  8
Layer_0
  10
527.3649
  20
1002.5864
  0
VERTEX
  5
2fe
  8
Layer_0
  10
528.49176
  20
1005.9335
  0
VERTEX
  5
2ff
  8
Layer_0
  10
529.65441
  20
1009.264
  0
VERTEX
  5
300
  8
Layer_0
  10
530.8526
  20
1012.5776
  0
VERTEX
  5
301
  8
Layer_0
  10
532.08613
  20
1015.8742
  0
VERTEX
  5
302
  8
Layer_0
  10
533.35475
  20
1019.1535
  0
VERTEX
  5
303
  8
Layer_0
  10
534.65823
  20
1022.4152
  0
VERTEX
  5
304
  8
Layer_0
  10
535.99635
  20
1025.6592
  0
VERTEX
  5
305
  8
Layer_0
  10
537.36888
  20
1028.8852
  0
VERTEX
  5
306
  8
Layer_0
  10
538.7756
  20
1032.0929
  0
VERTEX
  5
307
  8
Layer_0
  10
540.21626
  20
1035.2822
  0
VERTEX
  5
308
  8
Layer_0
  10
541.69064
  20
1038.4529
  0
VERTEX
  5
309
  8
Layer_0
  10
543.19852
  20
1041.6046
  0
VERTEX
  5
30a
  8
Layer_0
  10
544.73967
  20
1044.7372
  0
VERTEX
  5
30b
  8
Layer_0
  10
546.31385
  20
1047.8504
  0
VERTEX
  5
30c
  8
Layer_0
  10
547.92083
  20
1050.9441
  0
VERTEX
  5
30d
  8
Layer_0
  10
549.5604
  20
1054.0179
  0
VERTEX
  5
30e
  8
Layer_0
  10
551.23231
  20
1057.0717
  0
VERTEX
  5
30f
  8
Layer_0
  10
552.93635
  20
1060.1052
  0
VERTEX
  5
310
  8
Layer_0
  10
554.67228
  20
1063.1182
  0
VERTEX
  5
311
  8
Layer_0
  10
556.43987
  20
1066.1104
  0
VERTEX
  5
312
  8
Layer_0
  10
558.23889
  20
1069.0817
  0
VERTEX
  5
313
  8
Layer_0
  10
560.06912
  20
1072.0318
  0
VERTEX
  5
314
  8
Layer_0
  10
561.93032
  20
1074.9605
  0
VERTEX
  5
315
  8
Layer_0
  10
563.82227
  20
1077.8675
  0
VERTEX
  5
316
  8
Layer_0
  10
565.74474
  20
1080.7527
  0
VERTEX
  5
317
  8
Layer_0
  10
567.6975
  20
1083.6157
  0
VERTEX
  5
318
  8
Layer_0
  10
569.68032
  20
1086.4564
  0
VERTEX
  5
319
  8
Layer_0
  10
571.69298
  20
1089.2745
  0
VERTEX
  5
31a
  8
Layer_0
  10
573.73523
  20
1092.0698
  0
VERTEX
  5
31b
  8
Layer_0
  10
575.80686
  20
1094.8421
  0
VERTEX
  5
31c
  8
Layer_0
  10
577.90764
  20
1097.5912
  0
VERTEX
  5
31d
  8
Layer_0
  10
580.03733
  20
1100.3168
  0
VERTEX
  5
31e
  8
Layer_0
  10
582.19571
  20
1103.0186
  0
VERTEX
  5
31f
  8
Layer_0
  10
584.38254
  20
1105.6965
  0
VERTEX
  5
320
  8
Layer_0
  10
586.59761
  20
1108.3503
  0
VERTEX
  5
321
  8
Layer_0
  10
588.84068
  20
1110.9796
  0
VERTEX
  5
322
  8
Layer_0
  10
591.11152
  20
1113.5843
  0
VERTEX
  5
323
  8
Layer_0
  10
593.4099
  20
1116.1642
  0
VERTEX
  5
324
  8
Layer_0
  10
595.7356
  20
1118.719
  0
VERTEX
  5
325
  8
Layer_0
  10
598.08839
  20
1121.2485
  0
VERTEX
  5
326
  8
Layer_0
  10
600.46803
  20
1123.7524
  0
VERTEX
  5
327
  8
Layer_0
  10
602.8743
  20
1126.2305
  0
VERTEX
  5
328
  8
Layer_0
  10
605.30696
  20
1128.6827
  0
VERTEX
  5
329
  8
Layer_0
  10
607.7658
  20
1131.1086
  0
VERTEX
  5
32a
  8
Layer_0
  10
610.25058
  20
1133.5081
  0
VERTEX
  5
32b
  8
Layer_0
  10
612.76107
  20
1135.8809
  0
VERTEX
  5
32c
  8
Layer_0
  10
615.29705
  20
1138.2268
  0
VERTEX
  5
32d
  8
Layer_0
  10
617.85828
  20
1140.5455
  0
VERTEX
  5
32e
  8
Layer_0
  10
620.44453
  20
1142.8368
  0
VERTEX
  5
32f
  8
Layer_0
  10
623.05558
  20
1145.1006
  0
VERTEX
  5
330
  8
Layer_0
  10
625.6912
  20
1147.3365
  0
VERTEX
  5
331
  8
Layer_0
  10
628.35116
  20
1149.5444
  0
VERTEX
  5
332
  8
Layer_0
  10
631.03523
  20
1151.7239
  0
VERTEX
  5
333
  8
Layer_0
  10
633.74319
  20
1153.875
  0
VERTEX
  5
334
  8
Layer_0
  10
636.47479
  20
1155.9973
  0
VERTEX
  5
335
  8
Layer_0
  10
639.22982
  20
1158.0906
  0
VERTEX
  5
336
  8
Layer_0
  10
642.00804
  20
1160.1547
  0
VERTEX
  5
337
  8
Layer_0
  10
644.80923
  20
1162.1894
  0
VERTEX
  5
338
  8
Layer_0
  10
647.63316
  20
1164.1945
  0
VERTEX
  5
339
  8
Layer_0
  10
650.4796
  20
1166.1696
  0
VERTEX
  5
33a
  8
Layer_0
  10
653.34831
  20
1168.1146
  0
VERTEX
  5
33b
  8
Layer_0
  10
656.23908
  20
1170.0293
  0
VERTEX
  5
33c
  8
Layer_0
  10
659.15166
  20
1171.9134
  0
VERTEX
  5
33d
  8
Layer_0
  10
662.08584
  20
1173.7667
  0
VERTEX
  5
33e
  8
Layer_0
  10
665.04139
  20
1175.589
  0
VERTEX
  5
33f
  8
Layer_0
  10
668.01807
  20
1177.3799
  0
VERTEX
  5
340
  8
Layer_0
  10
671.01565
  20
1179.1394
  0
VERTEX
  5
341
  8
Layer_0
  10
674.03392
  20
1180.8672
  0
VERTEX
  5
342
  8
Layer_0
  10
677.07263
  20
1182.5631
  0
VERTEX
  5
343
  8
Layer_0
  10
680.13156
  20
1184.2267
  0
VERTEX
  5
344
  8
Layer_0
  10
683.21048
  20
1185.858
  0
VERTEX
  5
345
  8
Layer_0
  10
686.30917
  20
1187.4566
  0
VERTEX
  5
346
  8
Layer_0
  10
689.42739
  20
1189.0223
  0
VERTEX
  5
347
  8
Layer_0
  10
692.56491
  20
1190.5549
  0
VERTEX
  5
348
  8
Layer_0
  10
695.72151
  20
1192.0543
  0
VERTEX
  5
349
  8
Layer_0
  10
698.89695
  20
1193.52
  0
VERTEX
  5
34a
  8
Layer_0
  10
702.09102
  20
1194.952
  0
VERTEX
  5
34b
  8
Layer_0
  10
705.30347
  20
1196.35
  0
VERTEX
  5
34c
  8
Layer_0
  10
708.53408
  20
1197.7137
  0
VERTEX
  5
34d
  8
Layer_0
  10
711.78262
  20
1199.043
  0
VERTEX
  5
34e
  8
Layer_0
  10
715.04887
  20
1200.3376
  0
VERTEX
  5
34f
  8
Layer_0
  10
718.33259
  20
1201.5972
  0
VERTEX
  5
350
  8
Layer_0
  10
721.63355
  20
1202.8217
  0
VERTEX
  5
351
  8
Layer_0
  10
724.95153
  20
1204.0108
  0
VERTEX
  5
352
  8
Layer_0
  10
728.2863
  20
1205.1643
  0
VERTEX
  5
353
  8
Layer_0
  10
731.63762
  20
1206.282
  0
VERTEX
  5
354
  8
Layer_0
  10
735.00528
  20
1207.3636
  0
VERTEX
  5
355
  8
Layer_0
  10
738.38903
  20
1208.4089
  0
VERTEX
  5
356
  8
Layer_0
  10
741.78866
  20
1209.4177
  0
VERTEX
  5
357
  8
Layer_0
  10
745.20392
  20
1210.3897
  0
VERTEX
  5
358
  8
Layer_0
  10
748.63461
  20
1211.3247
  0
VERTEX
  5
359
  8
Layer_0
  10
752.08047
  20
1212.2225
  0
VERTEX
  5
35a
  8
Layer_0
  10
755.5413
  20
1213.0829
  0
VERTEX
  5
35b
  8
Layer_0
  10
759.01685
  20
1213.9056
  0
VERTEX
  5
35c
  8
Layer_0
  10
762.5069
  20
1214.6903
  0
VERTEX
  5
35d
  8
Layer_0
  10
766.01121
  20
1215.437
  0
VERTEX
  5
35e
  8
Layer_0
  10
769.52957
  20
1216.1453
  0
VERTEX
  5
35f
  8
Layer_0
  10
773.06174
  20
1216.815
  0
VERTEX
  5
360
  8
Layer_0
  10
776.6075
  20
1217.4459
  0
VERTEX
  5
361
  8
Layer_0
  10
780.1666
  20
1218.0378
  0
VERTEX
  5
362
  8
Layer_0
  10
783.73884
  20
1218.5904
  0
VERTEX
  5
363
  8
Layer_0
  10
787.32397
  20
1219.1035
  0
VERTEX
  5
364
  8
Layer_0
  10
790.92176
  20
1219.5768
  0
VERTEX
  5
365
  8
Layer_0
  10
794.532
  20
1220.0102
  0
VERTEX
  5
366
  8
Layer_0
  10
798.15444
  20
1220.4034
  0
VERTEX
  5
367
  8
Layer_0
  10
801.78887
  20
1220.7562
  0
VERTEX
  5
368
  8
Layer_0
  10
805.43505
  20
1221.0683
  0
VERTEX
  5
369
  8
Layer_0
  10
809.09275
  20
1221.3396
  0
VERTEX
  5
36a
  8
Layer_0
  10
812.76174
  20
1221.5697
  0
VERTEX
  5
36b
  8
Layer_0
  10
816.44181
  20
1221.7586
  0
VERTEX
  5
36c
  8
Layer_0
  10
820.1327
  20
1221.9058
  0
VERTEX
  5
36d
  8
Layer_0
  10
823.83421
  20
1222.0113
  0
VERTEX
  5
36e
  8
Layer_0
  10
827.54609
  20
1222.0747
  0
VERTEX
  5
36f
  8
Layer_0
  10
831.26813
  20
1222.0959
  0
VERTEX
  5
370
  8
Layer_0
  10
831.41125
  20
1222.0959
  0
SEQEND
  0
POLYLINE
  5
372
  8
Layer_0
  62
7
  66
1
  10
0
  20
0
  30
0
  0
VERTEX
  5
372
  8
Layer_0
  10
272.20441
  20
984.58356
  0
VERTEX
  5
373
  8
Layer_0
  10
286.97974
  20
981.33551
  0
VERTEX
  5
374
  8
Layer_0
  10
286.97748
  20
981.33612
  0
VERTEX
  5
375
  8
Layer_0
  10
286.97217
  20
981.27429
  0
VERTEX
  5
376
  8
Layer_0
  10
286.9776
  20
981.33606
  0
SEQEND
  0
POLYLINE
  5
378
  8
Layer_0
  62
7
  66
1
  10
0
  20
0
  30
0
  0
VERTEX
  5
378
  8
Layer_0
  10
831.26813
  20
1222.0959
  0
VERTEX
  5
379
  8
Layer_0
  10
837.45627
  20
1222.096
  0
VERTEX
  5
37a
  8
Layer_0
  10
843.54769
  20
1222.096
  0
VERTEX
  5
37b
  8
Layer_0
  10
849.54315
  20
1222.096
  0
VERTEX
  5
37c
  8
Layer_0
  10
855.44341
  20
1222.096
  0
VERTEX
  5
37d
  8
Layer_0
  10
861.24923
  20
1222.096
  0
VERTEX
  5
37e
  8
Layer_0
  10
866.96137
  20
1222.096
  0
VERTEX
  5
37f
  8
Layer_0
  10
872.58059
  20
1222.096
  0
VERTEX
  5
380
  8
Layer_0
  10
878.10766
  20
1222.0961
  0
VERTEX
  5
381
  8
Layer_0
  10
883.54334
  20
1222.0961
  0
VERTEX
  5
382
  8
Layer_0
  10
888.88839
  20
1222.0961
  0
VERTEX
  5
383
  8
Layer_0
  10
894.14358
  20
1222.0961
  0
VERTEX
  5
384
  8
Layer_0
  10
899.30965
  20
1222.0961
  0
VERTEX
  5
385
  8
Layer_0
  10
904.38739
  20
1222.0961
  0
VERTEX
  5
386
  8
Layer_0
  10
909.37754
  20
1222.0961
  0
VERTEX
  5
387
  8
Layer_0
  10
914.28087
  20
1222.0961
  0
VERTEX
  5
388
  8
Layer_0
  10
919.09814
  20
1222.0961
  0
VERTEX
  5
389
  8
Layer_0
  10
923.83012
  20
1222.0961
  0
VERTEX
  5
38a
  8
Layer_0
  10
928.47756
  20
1222.0961
  0
VERTEX
  5
38b
  8
Layer_0
  10
933.04124
  20
1222.0962
  0
VERTEX
  5
38c
  8
Layer_0
  10
937.5219
  20
1222.0962
  0
VERTEX
  5
38d
  8
Layer_0
  10
941.92031
  20
1222.0962
  0
VERTEX
  5
38e
  8
Layer_0
  10
946.23723
  20
1222.0962
  0
VERTEX
  5
38f
  8
Layer_0
  10
950.47343
  20
1222.0962
  0
VERTEX
  5
390
  8
Layer_0
  10
954.62967
  20
1222.0962
  0
VERTEX
  5
391
  8
Layer_0
  10
958.7067
  20
1222.0962
  0
VERTEX
  5
392
  8
Layer_0
  10
962.7053
  20
1222.0962
  0
VERTEX
  5
393
  8
Layer_0
  10
966.62622
  20
1222.0962
  0
VERTEX
  5
394
  8
Layer_0
  10
970.47023
  20
1222.0962
  0
VERTEX
  5
395
  8
Layer_0
  10
974.23808
  20
1222.0962
  0
VERTEX
  5
396
  8
Layer_0
  10
977.93054
  20
1222.0962
  0
VERTEX
  5
397
  8
Layer_0
  10
981.54837
  20
1222.0962
  0
VERTEX
  5
398
  8
Layer_0
  10
985.09233
  20
1222.0962
  0
VERTEX
  5
399
  8
Layer_0
  10
988.56319
  20
1222.0962
  0
VERTEX
  5
39a
  8
Layer_0
  10
991.9617
  20
1222.0962
  0
VERTEX
  5
39b
  8
Layer_0
  10
995.28863
  20
1222.0962
  0
VERTEX
  5
39c
  8
Layer_0
  10
998.54474
  20
1222.0962
  0
VERTEX
  5
39d
  8
Layer_0
  10
1001.7308
  20
1222.0962
  0
VERTEX
  5
39e
  8
Layer_0
  10
1004.8476
  20
1222.0962
  0
VERTEX
  5
39f
  8
Layer_0
  10
1007.8958
  20
1222.0962
  0
VERTEX
  5
3a0
  8
Layer_0
  10
1010.8762
  20
1222.0962
  0
VERTEX
  5
3a1
  8
Layer_0
  10
1013.7897
  20
1222.0962
  0
VERTEX
  5
3a2
  8
Layer_0
  10
1016.6369
  20
1222.0962
  0
VERTEX
  5
3a3
  8
Layer_0
  10
1019.4186
  20
1222.0962
  0
VERTEX
  5
3a4
  8
Layer_0
  10
1022.1355
  20
1222.0962
  0
VERTEX
  5
3a5
  8
Layer_0
  10
1024.7886
  20
1222.0962
  0
VERTEX
  5
3a6
  8
Layer_0
  10
1027.3784
  20
1222.0962
  0
VERTEX
  5
3a7
  8
Layer_0
  10
1029.9058
  20
1222.0962
  0
VERTEX
  5
3a8
  8
Layer_0
  10
1032.3715
  20
1222.0962
  0
VERTEX
  5
3a9
  8
Layer_0
  10
1034.7762
  20
1222.0962
  0
VERTEX
  5
3aa
  8
Layer_0
  10
1037.1209
  20
1222.0962
  0
VERTEX
  5
3ab
  8
Layer_0
  10
1039.4061
  20
1222.0962
  0
VERTEX
  5
3ac
  8
Layer_0
  10
1041.6327
  20
1222.0962
  0
VERTEX
  5
3ad
  8
Layer_0
  10
1043.8015
  20
1222.0962
  0
VERTEX
  5
3ae
  8
Layer_0
  10
1045.9131
  20
1222.0962
  0
VERTEX
  5
3af
  8
Layer_0
  10
1047.9684
  20
1222.0962
  0
VERTEX
  5
3b0
  8
Layer_0
  10
1049.9681
  20
1222.0962
  0
VERTEX
  5
3b1
  8
Layer_0
  10
1051.913
  20
1222.0962
  0
VERTEX
  5
3b2
  8
Layer_0
  10
1053.8038
  20
1222.0962
  0
VERTEX
  5
3b3
  8
Layer_0
  10
1055.6414
  20
1222.0962
  0
VERTEX
  5
3b4
  8
Layer_0
  10
1057.4264
  20
1222.0962
  0
VERTEX
  5
3b5
  8
Layer_0
  10
1059.1596
  20
1222.0962
  0
VERTEX
  5
3b6
  8
Layer_0
  10
1060.8418
  20
1222.0962
  0
VERTEX
  5
3b7
  8
Layer_0
  10
1062.4738
  20
1222.0962
  0
VERTEX
  5
3b8
  8
Layer_0
  10
1064.0563
  20
1222.0962
  0
VERTEX
  5
3b9
  8
Layer_0
  10
1065.59
  20
1222.0962
  0
VERTEX
  5
3ba
  8
Layer_0
  10
1067.0758
  20
1222.0962
  0
VERTEX
  5
3bb
  8
Layer_0
  10
1068.5144
  20
1222.0962
  0
VERTEX
  5
3bc
  8
Layer_0
  10
1069.9066
  20
1222.0962
  0
VERTEX
  5
3bd
  8
Layer_0
  10
1071.2531
  20
1222.0962
  0
VERTEX
  5
3be
  8
Layer_0
  10
1072.5546
  20
1222.0962
  0
VERTEX
  5
3bf
  8
Layer_0
  10
1073.8121
  20
1222.0962
  0
VERTEX
  5
3c0
  8
Layer_0
  10
1075.0261
  20
1222.0962
  0
VERTEX
  5
3c1
  8
Layer_0
  10
1076.1975
  20
1222.0961
  0
VERTEX
  5
3c2
  8
Layer_0
  10
1077.327
  20
1222.0961
  0
VERTEX
  5
3c3
  8
Layer_0
  10
1078.4154
  20
1222.0961
  0
VERTEX
  5
3c4
  8
Layer_0
  10
1079.4635
  20
1222.0961
  0
VERTEX
  5
3c5
  8
Layer_0
  10
1080.472
  20
1222.0961
  0
VERTEX
  5
3c6
  8
Layer_0
  10
1081.4417
  20
1222.0961
  0
VERTEX
  5
3c7
  8
Layer_0
  10
1082.3733
  20
1222.0961
  0
VERTEX
  5
3c8
  8
Layer_0
  10
1083.2676
  20
1222.0961
  0
VERTEX
  5
3c9
  8
Layer_0
  10
1084.1254
  20
1222.0961
  0
VERTEX
  5
3ca
  8
Layer_0
  10
1084.9474
  20
1222.0961
  0
VERTEX
  5
3cb
  8
Layer_0
  10
1085.7344
  20
1222.0961
  0
VERTEX
  5
3cc
  8
Layer_0
  10
1086.4871
  20
1222.0961
  0
VERTEX
  5
3cd
  8
Layer_0
  10
1087.2064
  20
1222.0961
  0
VERTEX
  5
3ce
  8
Layer_0
  10
1087.893
  20
1222.0961
  0
VERTEX
  5
3cf
  8
Layer_0
  10
1088.5475
  20
1222.0961
  0
VERTEX
  5
3d0
  8
Layer_0
  10
1089.1709
  20
1222.0961
  0
VERTEX
  5
3d1
  8
Layer_0
  10
1089.7639
  20
1222.0961
  0
VERTEX
  5
3d2
  8
Layer_0
  10
1090.3271
  20
1222.0961
  0
VERTEX
  5
3d3
  8
Layer_0
  10
1090.8615
  20
1222.0961
  0
VERTEX
  5
3d4
  8
Layer_0
  10
1091.3677
  20
1222.0961
  0
VERTEX
  5
3d5
  8
Layer_0
  10
1091.8465
  20
1222.0961
  0
VERTEX
  5
3d6
  8
Layer_0
  10
1092.2986
  20
1222.096
  0
VERTEX
  5
3d7
  8
Layer_0
  10
1092.7249
  20
1222.096
  0
VERTEX
  5
3d8
  8
Layer_0
  10
1093.1261
  20
1222.096
  0
VERTEX
  5
3d9
  8
Layer_0
  10
1093.8563
  20
1222.096
  0
VERTEX
  5
3da
  8
Layer_0
  10
1094.4951
  20
1222.096
  0
VERTEX
  5
3db
  8
Layer_0
  10
1095.0488
  20
1222.096
  0
VERTEX
  5
3dc
  8
Layer_0
  10
1095.5234
  20
1222.096
  0
VERTEX
  5
3dd
  8
Layer_0
  10
1095.925
  20
1222.096
  0
VERTEX
  5
3de
  8
Layer_0
  10
1096.2597
  20
1222.096
  0
VERTEX
  5
3df
  8
Layer_0
  10
1096.5335
  20
1222.096
  0
VERTEX
  5
3e0
  8
Layer_0
  10
1096.7527
  20
1222.096
  0
VERTEX
  5
3e1
  8
Layer_0
  10
1096.9233
  20
1222.096
  0
VERTEX
  5
3e2
  8
Layer_0
  10
1097.0513
  20
1222.096
  0
VERTEX
  5
3e3
  8
Layer_0
  10
1097.1429
  20
1222.096
  0
VERTEX
  5
3e4
  8
Layer_0
  10
1097.2042
  20
1222.096
  0
VERTEX
  5
3e5
  8
Layer_0
  10
1097.2602
  20
1222.0959
  0
VERTEX
  5
3e6
  8
Layer_0
  10
1097.2681
  20
1222.0959
  0
VERTEX
  5
3e7
  8
Layer_0
  10
1097.2681
  20
1450.5959
  0
VERTEX
  5
3e8
  8
Layer_0
  10
1097.2681
  20
1450.5959
  42
-0.41421356
  0
VERTEX
  5
3e9
  8
Layer_0
  10
1095.7681
  20
1452.0959
  42
-0.41421356
  0
VERTEX
  5
3ea
  8
Layer_0
  10
1097.2681
  20
1453.5959
  0
VERTEX
  5
3eb
  8
Layer_0
  10
1097.2505
  20
1453.5958
  0
VERTEX
  5
3ec
  8
Layer_0
  10
1097.2681
  20
1453.5959
  0
VERTEX
  5
3ed
  8
Layer_0
  10
1097.2681
  20
1467.0959
  0
VERTEX
  5
3ee
  8
Layer_0
  10
831.26807
  20
1467.0959
  0
SEQEND
  0
POLYLINE
  5
3f0
  8
Layer_0
  62
7
  66
1
  10
0
  20
0
  30
0
  0
VERTEX
  5
3f0
  8
Layer_0
  10
827.1864
  20
1452.0811
  42
6.6093653e-06
  0
VERTEX
  5
3f1
  8
Layer_0
  10
827.28717
  20
1452.0818
  0
VERTEX
  5
3f2
  8
Layer_0
  10
828.26807
  20
1467.0959
  0
VERTEX
  5
3f3
  8
Layer_0
  10
834.26807
  20
1467.0959
  0
VERTEX
  5
3f4
  8
Layer_0
  10
834.34526
  20
1465.917
  0
VERTEX
  5
3f5
  8
Layer_0
  10
834.41829
  20
1464.8015
  0
VERTEX
  5
3f6
  8
Layer_0
  10
834.48727
  20
1463.7477
  0
VERTEX
  5
3f7
  8
Layer_0
  10
834.55232
  20
1462.7538
  0
VERTEX
  5
3f8
  8
Layer_0
  10
834.61355
  20
1461.8182
  0
VERTEX
  5
3f9
  8
Layer_0
  10
834.67108
  20
1460.9389
  0
VERTEX
  5
3fa
  8
Layer_0
  10
834.72502
  20
1460.1144
  0
VERTEX
  5
3fb
  8
Layer_0
  10
834.7755
  20
1459.3427
  0
VERTEX
  5
3fc
  8
Layer_0
  10
834.82262
  20
1458.6222
  0
VERTEX
  5
3fd
  8
Layer_0
  10
834.8665
  20
1457.9512
  0
VERTEX
  5
3fe
  8
Layer_0
  10
834.90727
  20
1457.3277
  0
VERTEX
  5
3ff
  8
Layer_0
  10
834.94503
  20
1456.7502
  0
VERTEX
  5
400
  8
Layer_0
  10
834.9799
  20
1456.2169
  0
VERTEX
  5
401
  8
Layer_0
  10
835.01199
  20
1455.7259
  0
VERTEX
  5
402
  8
Layer_0
  10
835.04143
  20
1455.2755
  0
VERTEX
  5
403
  8
Layer_0
  10
835.06833
  20
1454.8641
  0
VERTEX
  5
404
  8
Layer_0
  10
835.0928
  20
1454.4897
  0
VERTEX
  5
405
  8
Layer_0
  10
835.11497
  20
1454.1508
  0
VERTEX
  5
406
  8
Layer_0
  10
835.13494
  20
1453.8454
  0
VERTEX
  5
407
  8
Layer_0
  10
835.15283
  20
1453.5719
  0
VERTEX
  5
408
  8
Layer_0
  10
835.16876
  20
1453.3285
  0
VERTEX
  5
409
  8
Layer_0
  10
835.18285
  20
1453.1135
  0
VERTEX
  5
40a
  8
Layer_0
  10
835.19521
  20
1452.925
  0
VERTEX
  5
40b
  8
Layer_0
  10
835.20595
  20
1452.7614
  0
VERTEX
  5
40c
  8
Layer_0
  10
835.22306
  20
1452.5017
  0
VERTEX
  5
40d
  8
Layer_0
  10
835.23511
  20
1452.3203
  0
VERTEX
  5
40e
  8
Layer_0
  10
835.24303
  20
1452.2031
  0
VERTEX
  5
40f
  8
Layer_0
  10
835.24774
  20
1452.1361
  0
SEQEND
  0
ENDSEC
  0
EOF
