  0
SECTION
  2
HEADER
  9
$ACADVER
  1
AC1009
  0
ENDSEC
  0
SECTION
  2
TABLES
  0
TABLE
  2
LAYER
  70
1
  0
LAYER
  2
Layer_0
  70
0
  62
7
  6
CONTINUOUS
  0
ENDTAB
  0
ENDSEC
  0
SECTION
  2
ENTITIES
  0
POLYLINE
  5
90
  8
Layer_0
  62
7
  70
1
  66
1
  10
0
  20
0
  30
0
  0
VERTEX
  5
90
  8
Layer_0
  10
1025.9092
  20
989.76697
  0
VERTEX
  5
91
  8
Layer_0
  10
1025.9092
  20
989.76666
  0
VERTEX
  5
92
  8
Layer_0
  10
1025.9092
  20
989.76681
  0
VERTEX
  5
93
  8
Layer_0
  10
1025.9092
  20
989.76694
  0
SEQEND
  0
POLYLINE
  5
95
  8
Layer_0
  62
7
  66
1
  10
0
  20
0
  30
0
  0
VERTEX
  5
95
  8
Layer_0
  10
1025.8575
  20
990.09512
  0
VERTEX
  5
96
  8
Layer_0
  10
1025.8575
  20
990.09526
  0
VERTEX
  5
97
  8
Layer_0
  10
1025.8575
  20
990.0954
  0
SEQEND
  0
POLYLINE
  5
99
  8
Layer_0
  62
7
  70
1
  66
1
  10
0
  20
0
  30
0
  0
VERTEX
  5
99
  8
Layer_0
  10
779.8656
  20
1358.4188
  0
VERTEX
  5
9a
  8
Layer_0
  10
779.86493
  20
1358.4192
  0
VERTEX
  5
9b
  8
Layer_0
  10
779.86525
  20
1358.419
  0
VERTEX
  5
9c
  8
Layer_0
  10
779.86557
  20
1358.4188
  0
SEQEND
  0
POLYLINE
  5
9e
  8
Layer_0
  62
7
  66
1
  10
0
  20
0
  30
0
  0
VERTEX
  5
9e
  8
Layer_0
  10
786.50748
  20
1353.8686
  0
VERTEX
  5
9f
  8
Layer_0
  10
786.50757
  20
1353.8685
  0
VERTEX
  5
a0
  8
Layer_0
  10
786.50766
  20
1353.8685
  0
SEQEND
  0
POLYLINE
  5
a2
  8
Layer_0
  62
7
  66
1
  10
0
  20
0
  30
0
  0
VERTEX
  5
a2
  8
Layer_0
  10
799.58264
  20
1344.4843
  0
VERTEX
  5
a3
  8
Layer_0
  10
799.58539
  20
1344.4822
  0
VERTEX
  5
a4
  8
Layer_0
  10
799.58813
  20
1344.4801
  0
SEQEND
  0
POLYLINE
  5
a6
  8
Layer_0
  62
7
  70
1
  66
1
  10
0
  20
0
  30
0
  0
VERTEX
  5
a6
  8
Layer_0
  10
812.37433
  20
1334.7261
  0
VERTEX
  5
a7
  8
Layer_0
  10
812.37415
  20
1334.7263
  0
SEQEND
  0
POLYLINE
  5
a9
  8
Layer_0
  62
7
  66
1
  10
0
  20
0
  30
0
  0
VERTEX
  5
a9
  8
Layer_0
  10
806.03171
  20
1339.6383
  0
VERTEX
  5
aa
  8
Layer_0
  10
806.03189
  20
1339.6381
  0
VERTEX
  5
ab
  8
Layer_0
  10
806.03207
  20
1339.638
  0
SEQEND
  0
POLYLINE
  5
ad
  8
Layer_0
  62
7
  66
1
  10
0
  20
0
  30
0
  0
VERTEX
  5
ad
  8
Layer_0
  10
812.37415
  20
1334.7263
  0
VERTEX
  5
ae
  8
Layer_0
  10
812.37424
  20
1334.7262
  0
VERTEX
  5
af
  8
Layer_0
  10
812.37433
  20
1334.7262
  0
SEQEND
  0
POLYLINE
  5
b1
  8
Layer_0
  62
7
  70
1
  66
1
  10
0
  20
0
  30
0
  0
VERTEX
  5
b1
  8
Layer_0
  10
818.77771
  20
1329.8181
  0
VERTEX
  5
b2
  8
Layer_0
  10
818.77844
  20
1329.8187
  0
SEQEND
  0
POLYLINE
  5
b4
  8
Layer_0
  62
7
  70
1
  66
1
  10
0
  20
0
  30
0
  0
VERTEX
  5
b4
  8
Layer_0
  10
888.01917
  20
1262.7104
  0
VERTEX
  5
b5
  8
Layer_0
  10
888.01929
  20
1262.7103
  0
VERTEX
  5
b6
  8
Layer_0
  10
888.0332
  20
1262.6943
  0
VERTEX
  5
b7
  8
Layer_0
  10
888.03333
  20
1262.6942
  0
SEQEND
  0
POLYLINE
  5
b9
  8
Layer_0
  62
7
  70
1
  66
1
  10
0
  20
0
  30
0
  0
VERTEX
  5
b9
  8
Layer_0
  10
882.71411
  20
1268.726
  0
VERTEX
  5
ba
  8
Layer_0
  10
882.70398
  20
1268.7373
  0
VERTEX
  5
bb
  8
Layer_0
  10
882.7041
  20
1268.7372
  0
SEQEND
  0
POLYLINE
  5
bd
  8
Layer_0
  62
7
  70
1
  66
1
  10
0
  20
0
  30
0
  0
VERTEX
  5
bd
  8
Layer_0
  10
871.79956
  20
1280.5713
  0
VERTEX
  5
be
  8
Layer_0
  10
871.79944
  20
1280.5715
  0
VERTEX
  5
bf
  8
Layer_0
  10
871.78369
  20
1280.5881
  0
VERTEX
  5
c0
  8
Layer_0
  10
871.78387
  20
1280.5879
  0
SEQEND
  0
POLYLINE
  5
c2
  8
Layer_0
  62
7
  70
1
  66
1
  10
0
  20
0
  30
0
  0
VERTEX
  5
c2
  8
Layer_0
  10
860.55505
  20
1292.0842
  0
VERTEX
  5
c3
  8
Layer_0
  10
860.55664
  20
1292.0857
  0
SEQEND
  0
POLYLINE
  5
c5
  8
Layer_0
  62
7
  66
1
  10
0
  20
0
  30
0
  0
VERTEX
  5
c5
  8
Layer_0
  10
843.08029
  20
1308.7217
  0
VERTEX
  5
c6
  8
Layer_0
  10
843.08006
  20
1308.7219
  0
VERTEX
  5
c7
  8
Layer_0
  10
843.07983
  20
1308.722
  0
SEQEND
  0
POLYLINE
  5
c9
  8
Layer_0
  62
7
  66
1
  10
0
  20
0
  30
0
  0
VERTEX
  5
c9
  8
Layer_0
  10
854.81552
  20
1297.7101
  0
VERTEX
  5
ca
  8
Layer_0
  10
854.81534
  20
1297.7103
  0
VERTEX
  5
cb
  8
Layer_0
  10
854.81516
  20
1297.7104
  0
SEQEND
  0
POLYLINE
  5
cd
  8
Layer_0
  62
7
  70
1
  66
1
  10
0
  20
0
  30
0
  0
VERTEX
  5
cd
  8
Layer_0
  10
860.5528
  20
1292.0865
  0
VERTEX
  5
ce
  8
Layer_0
  10
860.55271
  20
1292.0866
  0
VERTEX
  5
cf
  8
Layer_0
  10
860.55093
  20
1292.0883
  0
VERTEX
  5
d0
  8
Layer_0
  10
860.55103
  20
1292.0883
  0
SEQEND
  0
POLYLINE
  5
d2
  8
Layer_0
  62
7
  66
1
  10
0
  20
0
  30
0
  0
VERTEX
  5
d2
  8
Layer_0
  10
866.21793
  20
1286.3699
  0
VERTEX
  5
d3
  8
Layer_0
  10
866.21783
  20
1286.37
  0
VERTEX
  5
d4
  8
Layer_0
  10
866.21774
  20
1286.3701
  0
SEQEND
  0
POLYLINE
  5
d6
  8
Layer_0
  62
7
  66
1
  10
0
  20
0
  30
0
  0
VERTEX
  5
d6
  8
Layer_0
  10
871.79956
  20
1280.5714
  0
VERTEX
  5
d7
  8
Layer_0
  10
871.79169
  20
1280.5797
  0
VERTEX
  5
d8
  8
Layer_0
  10
871.78381
  20
1280.588
  0
SEQEND
  0
POLYLINE
  5
da
  8
Layer_0
  62
7
  70
1
  66
1
  10
0
  20
0
  30
0
  0
VERTEX
  5
da
  8
Layer_0
  10
877.28778
  20
1274.7015
  0
VERTEX
  5
db
  8
Layer_0
  10
877.28766
  20
1274.7017
  42
-0.049388989
  0
SEQEND
  0
POLYLINE
  5
dd
  8
Layer_0
  62
7
  66
1
  10
0
  20
0
  30
0
  0
VERTEX
  5
dd
  8
Layer_0
  10
882.70395
  20
1268.7373
  0
VERTEX
  5
de
  8
Layer_0
  10
882.70903
  20
1268.7316
  0
VERTEX
  5
df
  8
Layer_0
  10
882.71411
  20
1268.726
  0
SEQEND
  0
POLYLINE
  5
e1
  8
Layer_0
  62
7
  66
1
  10
0
  20
0
  30
0
  0
VERTEX
  5
e1
  8
Layer_0
  10
888.01907
  20
1262.7105
  0
VERTEX
  5
e2
  8
Layer_0
  10
888.02617
  20
1262.7024
  0
VERTEX
  5
e3
  8
Layer_0
  10
888.03326
  20
1262.6942
  0
SEQEND
  0
POLYLINE
  5
e5
  8
Layer_0
  62
7
  66
1
  10
0
  20
0
  30
0
  0
VERTEX
  5
e5
  8
Layer_0
  10
893.25873
  20
1256.5922
  0
VERTEX
  5
e6
  8
Layer_0
  10
893.25887
  20
1256.592
  0
VERTEX
  5
e7
  8
Layer_0
  10
893.259
  20
1256.5918
  0
SEQEND
  0
POLYLINE
  5
e9
  8
Layer_0
  62
7
  66
1
  10
0
  20
0
  30
0
  0
VERTEX
  5
e9
  8
Layer_0
  10
1015.8561
  20
989.30611
  0
VERTEX
  5
ea
  8
Layer_0
  10
1015.8609
  20
989.27642
  0
VERTEX
  5
eb
  8
Layer_0
  10
1015.8657
  20
989.24673
  0
SEQEND
  0
POLYLINE
  5
ed
  8
Layer_0
  62
7
  66
1
  10
0
  20
0
  30
0
  0
VERTEX
  5
ed
  8
Layer_0
  10
524.92898
  20
1449.6515
  0
VERTEX
  5
ee
  8
Layer_0
  10
524.92911
  20
1449.6515
  0
VERTEX
  5
ef
  8
Layer_0
  10
524.92924
  20
1449.6515
  0
SEQEND
  0
POLYLINE
  5
f1
  8
Layer_0
  62
7
  66
1
  10
0
  20
0
  30
0
  0
VERTEX
  5
f1
  8
Layer_0
  10
516.96146
  20
1450.3435
  0
VERTEX
  5
f2
  8
Layer_0
  10
516.96159
  20
1450.3435
  0
VERTEX
  5
f3
  8
Layer_0
  10
516.96172
  20
1450.3435
  0
SEQEND
  0
POLYLINE
  5
f5
  8
Layer_0
  62
7
  66
1
  10
0
  20
0
  30
0
  0
VERTEX
  5
f5
  8
Layer_0
  10
508.93587
  20
1450.9235
  0
VERTEX
  5
f6
  8
Layer_0
  10
508.936
  20
1450.9235
  0
VERTEX
  5
f7
  8
Layer_0
  10
508.93613
  20
1450.9235
  0
SEQEND
  0
POLYLINE
  5
f9
  8
Layer_0
  62
7
  66
1
  10
0
  20
0
  30
0
  0
VERTEX
  5
f9
  8
Layer_0
  10
1016.3157
  20
989.41309
  0
VERTEX
  5
fa
  8
Layer_0
  10
1016.3141
  20
989.43121
  0
VERTEX
  5
fb
  8
Layer_0
  10
1015.7912
  20
989.28864
  0
VERTEX
  5
fc
  8
Layer_0
  10
1030.418
  20
992.76031
  0
VERTEX
  5
fd
  8
Layer_0
  10
1029.4238
  20
998.67737
  0
VERTEX
  5
fe
  8
Layer_0
  10
1014.4656
  20
997.17804
  0
VERTEX
  5
ff
  8
Layer_0
  10
1014.5423
  20
997.18292
  42
0.0017103383
  0
VERTEX
  5
100
  8
Layer_0
  10
1014.5317
  20
997.24426
  0
VERTEX
  5
101
  8
Layer_0
  10
1014.4576
  20
997.22314
  0
VERTEX
  5
102
  8
Layer_0
  10
1029.0322
  20
1000.9084
  0
VERTEX
  5
103
  8
Layer_0
  10
1027.9514
  20
1006.8104
  0
VERTEX
  5
104
  8
Layer_0
  10
1013.0167
  20
1005.0923
  0
VERTEX
  5
105
  8
Layer_0
  10
1013.1028
  20
1005.099
  42
-0.00070037093
  0
VERTEX
  5
106
  8
Layer_0
  10
1013.0908
  20
1005.1621
  0
VERTEX
  5
107
  8
Layer_0
  10
1013.0082
  20
1005.1371
  0
VERTEX
  5
108
  8
Layer_0
  10
1027.5273
  20
1009.0353
  0
VERTEX
  5
109
  8
Layer_0
  10
1026.3604
  20
1014.9207
  0
VERTEX
  5
10a
  8
Layer_0
  10
1011.4523
  20
1012.9844
  0
VERTEX
  5
10b
  8
Layer_0
  10
1011.5469
  20
1012.9933
  42
0.00082252961
  0
VERTEX
  5
10c
  8
Layer_0
  10
1011.5337
  20
1013.058
  0
VERTEX
  5
10d
  8
Layer_0
  10
1011.4431
  20
1013.0293
  0
VERTEX
  5
10e
  8
Layer_0
  10
1025.9036
  20
1017.1393
  0
VERTEX
  5
10f
  8
Layer_0
  10
1024.6506
  20
1023.0071
  0
VERTEX
  5
110
  8
Layer_0
  10
1009.7726
  20
1020.8529
  0
VERTEX
  5
111
  8
Layer_0
  10
1009.8751
  20
1020.864
  42
0.00065986635
  0
VERTEX
  5
112
  8
Layer_0
  10
1009.8605
  20
1020.9302
  0
VERTEX
  5
113
  8
Layer_0
  10
1009.7627
  20
1020.8976
  0
VERTEX
  5
114
  8
Layer_0
  10
1024.1616
  20
1025.2188
  0
VERTEX
  5
115
  8
Layer_0
  10
1022.823
  20
1031.0675
  0
VERTEX
  5
116
  8
Layer_0
  10
1007.978
  20
1028.6959
  0
VERTEX
  5
117
  8
Layer_0
  10
1008.0875
  20
1028.7096
  42
5.749458e-05
  0
VERTEX
  5
118
  8
Layer_0
  10
1008.0717
  20
1028.7771
  0
VERTEX
  5
119
  8
Layer_0
  10
1007.9674
  20
1028.7406
  0
VERTEX
  5
11a
  8
Layer_0
  10
1022.3015
  20
1033.2719
  0
VERTEX
  5
11b
  8
Layer_0
  10
1020.8776
  20
1039.1005
  0
VERTEX
  5
11c
  8
Layer_0
  10
1006.0688
  20
1036.512
  0
VERTEX
  5
11d
  8
Layer_0
  10
1006.1846
  20
1036.5281
  42
-3.9481067e-05
  0
VERTEX
  5
11e
  8
Layer_0
  10
1006.1674
  20
1036.5967
  0
VERTEX
  5
11f
  8
Layer_0
  10
1006.0576
  20
1036.5563
  0
VERTEX
  5
120
  8
Layer_0
  10
1020.3239
  20
1041.2969
  0
VERTEX
  5
121
  8
Layer_0
  10
1018.8148
  20
1047.104
  0
VERTEX
  5
122
  8
Layer_0
  10
1004.0455
  20
1044.2991
  0
VERTEX
  5
123
  8
Layer_0
  10
1004.1666
  20
1044.3176
  42
0.00065734873
  0
VERTEX
  5
124
  8
Layer_0
  10
1004.1481
  20
1044.3872
  0
VERTEX
  5
125
  8
Layer_0
  10
1004.0337
  20
1044.3433
  0
VERTEX
  5
126
  8
Layer_0
  10
1018.2291
  20
1049.292
  0
VERTEX
  5
127
  8
Layer_0
  10
1016.6353
  20
1055.0764
  0
VERTEX
  5
128
  8
Layer_0
  10
1001.9086
  20
1052.0559
  0
VERTEX
  5
129
  8
Layer_0
  10
1002.034
  20
1052.077
  42
-0.00060424852
  0
VERTEX
  5
12a
  8
Layer_0
  10
1002.0142
  20
1052.1472
  0
VERTEX
  5
12b
  8
Layer_0
  10
1001.8961
  20
1052.0999
  0
VERTEX
  5
12c
  8
Layer_0
  10
1016.0176
  20
1057.2556
  0
VERTEX
  5
12d
  8
Layer_0
  10
1014.3393
  20
1063.0161
  0
VERTEX
  5
12e
  8
Layer_0
  10
999.65839
  20
1059.7805
  0
VERTEX
  5
12f
  8
Layer_0
  10
999.78711
  20
1059.8042
  42
0.00056917041
  0
VERTEX
  5
130
  8
Layer_0
  10
999.76599
  20
1059.8749
  0
VERTEX
  5
131
  8
Layer_0
  10
999.64526
  20
1059.8245
  0
VERTEX
  5
132
  8
Layer_0
  10
1013.6898
  20
1065.1863
  0
VERTEX
  5
133
  8
Layer_0
  10
1011.9274
  20
1070.9216
  0
VERTEX
  5
134
  8
Layer_0
  10
997.29541
  20
1067.4716
  0
VERTEX
  5
135
  8
Layer_0
  10
997.42639
  20
1067.4977
  42
-9.2727993e-05
  0
VERTEX
  5
136
  8
Layer_0
  10
997.40405
  20
1067.5685
  0
VERTEX
  5
137
  8
Layer_0
  10
997.28162
  20
1067.5151
  0
VERTEX
  5
138
  8
Layer_0
  10
1011.2463
  20
1073.0818
  0
VERTEX
  5
139
  8
Layer_0
  10
1009.4001
  20
1078.7908
  0
VERTEX
  5
13a
  8
Layer_0
  10
994.82019
  20
1075.1271
  0
VERTEX
  5
13b
  8
Layer_0
  10
994.95251
  20
1075.1554
  42
0.0004903417
  0
VERTEX
  5
13c
  8
Layer_0
  10
994.92902
  20
1075.2263
  0
VERTEX
  5
13d
  8
Layer_0
  10
994.80579
  20
1075.1705
  0
VERTEX
  5
13e
  8
Layer_0
  10
1008.6875
  20
1080.9409
  0
VERTEX
  5
13f
  8
Layer_0
  10
1006.7581
  20
1086.6222
  0
VERTEX
  5
140
  8
Layer_0
  10
992.23328
  20
1082.7456
  0
VERTEX
  5
141
  8
Layer_0
  10
992.36584
  20
1082.7761
  42
-5.0251218e-05
  0
VERTEX
  5
142
  8
Layer_0
  10
992.34131
  20
1082.8468
  0
VERTEX
  5
143
  8
Layer_0
  10
992.2182
  20
1082.7887
  0
VERTEX
  5
144
  8
Layer_0
  10
1006.0141
  20
1088.7616
  0
VERTEX
  5
145
  8
Layer_0
  10
1004.0018
  20
1094.4141
  0
VERTEX
  5
146
  8
Layer_0
  10
989.53516
  20
1090.3254
  0
VERTEX
  5
147
  8
Layer_0
  10
989.66724
  20
1090.3578
  42
-0.00078794097
  0
VERTEX
  5
148
  8
Layer_0
  10
989.6416
  20
1090.4281
  0
VERTEX
  5
149
  8
Layer_0
  10
989.51953
  20
1090.3684
  0
VERTEX
  5
14a
  8
Layer_0
  10
1003.2265
  20
1096.5425
  0
VERTEX
  5
14b
  8
Layer_0
  10
1001.1317
  20
1102.1649
  0
VERTEX
  5
14c
  8
Layer_0
  10
986.7265
  20
1097.865
  0
VERTEX
  5
14d
  8
Layer_0
  10
986.85693
  20
1097.8992
  42
0.00062890536
  0
VERTEX
  5
14e
  8
Layer_0
  10
986.83044
  20
1097.9688
  0
VERTEX
  5
14f
  8
Layer_0
  10
986.71021
  20
1097.9077
  0
VERTEX
  5
150
  8
Layer_0
  10
1000.3253
  20
1104.2816
  0
VERTEX
  5
151
  8
Layer_0
  10
998.14856
  20
1109.8728
  0
VERTEX
  5
152
  8
Layer_0
  10
983.80786
  20
1105.3627
  0
VERTEX
  5
153
  8
Layer_0
  10
983.93591
  20
1105.3982
  42
-0.00017037224
  0
VERTEX
  5
154
  8
Layer_0
  10
983.90845
  20
1105.4669
  0
VERTEX
  5
155
  8
Layer_0
  10
983.79089
  20
1105.4052
  0
VERTEX
  5
156
  8
Layer_0
  10
997.3114
  20
1111.9775
  0
VERTEX
  5
157
  8
Layer_0
  10
995.0531
  20
1117.5363
  0
VERTEX
  5
158
  8
Layer_0
  10
980.77979
  20
1112.8169
  0
VERTEX
  5
159
  8
Layer_0
  10
980.90454
  20
1112.8534
  42
0.00057590966
  0
VERTEX
  5
15a
  8
Layer_0
  10
980.8764
  20
1112.9213
  0
VERTEX
  5
15b
  8
Layer_0
  10
980.76227
  20
1112.8591
  0
VERTEX
  5
15c
  8
Layer_0
  10
994.18518
  20
1119.6285
  0
VERTEX
  5
15d
  8
Layer_0
  10
991.84576
  20
1125.1537
  0
VERTEX
  5
15e
  8
Layer_0
  10
977.64307
  20
1120.226
  0
VERTEX
  5
15f
  8
Layer_0
  10
977.76379
  20
1120.2632
  42
0.00057218412
  0
VERTEX
  5
160
  8
Layer_0
  10
977.73492
  20
1120.3301
  0
VERTEX
  5
161
  8
Layer_0
  10
977.62488
  20
1120.2679
  0
VERTEX
  5
162
  8
Layer_0
  10
990.94733
  20
1127.233
  0
VERTEX
  5
163
  8
Layer_0
  10
988.52734
  20
1132.7234
  0
VERTEX
  5
164
  8
Layer_0
  10
974.39819
  20
1127.5884
  0
VERTEX
  5
165
  8
Layer_0
  10
974.51434
  20
1127.626
  42
6.5342817e-05
  0
VERTEX
  5
166
  8
Layer_0
  10
974.48486
  20
1127.6915
  0
VERTEX
  5
167
  8
Layer_0
  10
974.37946
  20
1127.6301
  0
VERTEX
  5
168
  8
Layer_0
  10
987.59863
  20
1134.7893
  0
VERTEX
  5
169
  8
Layer_0
  10
985.09857
  20
1140.2437
  0
VERTEX
  5
16a
  8
Layer_0
  10
971.04608
  20
1134.9026
  0
VERTEX
  5
16b
  8
Layer_0
  10
971.15686
  20
1134.9403
  42
-0.00030740627
  0
VERTEX
  5
16c
  8
Layer_0
  10
971.12683
  20
1135.0044
  0
VERTEX
  5
16d
  8
Layer_0
  10
971.02673
  20
1134.9441
  0
VERTEX
  5
16e
  8
Layer_0
  10
984.13971
  20
1142.2958
  0
VERTEX
  5
16f
  8
Layer_0
  10
981.56018
  20
1147.713
  0
VERTEX
  5
170
  8
Layer_0
  10
967.58728
  20
1142.167
  0
VERTEX
  5
171
  8
Layer_0
  10
967.69226
  20
1142.2043
  42
0.00036780854
  0
VERTEX
  5
172
  8
Layer_0
  10
967.66187
  20
1142.267
  0
VERTEX
  5
173
  8
Layer_0
  10
967.56738
  20
1142.2081
  0
VERTEX
  5
174
  8
Layer_0
  10
980.57141
  20
1149.7509
  0
VERTEX
  5
175
  8
Layer_0
  10
977.9129
  20
1155.1298
  0
VERTEX
  5
176
  8
Layer_0
  10
964.02264
  20
1149.3799
  0
VERTEX
  5
177
  8
Layer_0
  10
964.12128
  20
1149.4167
  42
0.00021660035
  0
VERTEX
  5
178
  8
Layer_0
  10
964.09058
  20
1149.4777
  0
VERTEX
  5
179
  8
Layer_0
  10
964.00208
  20
1149.4208
  0
VERTEX
  5
17a
  8
Layer_0
  10
976.89441
  20
1157.153
  0
VERTEX
  5
17b
  8
Layer_0
  10
974.15747
  20
1162.4924
  0
VERTEX
  5
17c
  8
Layer_0
  10
960.35291
  20
1156.54
  0
VERTEX
  5
17d
  8
Layer_0
  10
960.4447
  20
1156.5759
  42
-0.00015877309
  0
VERTEX
  5
17e
  8
Layer_0
  10
960.41382
  20
1156.635
  0
VERTEX
  5
17f
  8
Layer_0
  10
960.33167
  20
1156.5806
  0
VERTEX
  5
180
  8
Layer_0
  10
973.1095
  20
1164.5005
  0
VERTEX
  5
181
  8
Layer_0
  10
970.2948
  20
1169.7993
  0
VERTEX
  5
182
  8
Layer_0
  10
956.57867
  20
1163.6456
  0
VERTEX
  5
183
  8
Layer_0
  10
956.66364
  20
1163.6802
  42
-7.8383039e-05
  0
VERTEX
  5
184
  8
Layer_0
  10
956.63251
  20
1163.7375
  0
VERTEX
  5
185
  8
Layer_0
  10
956.55695
  20
1163.6858
  0
VERTEX
  5
186
  8
Layer_0
  10
969.21759
  20
1171.7919
  0
VERTEX
  5
187
  8
Layer_0
  10
966.32568
  20
1177.049
  0
VERTEX
  5
188
  8
Layer_0
  10
952.70105
  20
1170.6953
  0
VERTEX
  5
189
  8
Layer_0
  10
952.77881
  20
1170.7283
  42
-0.0011527298
  0
VERTEX
  5
18a
  8
Layer_0
  10
952.7475
  20
1170.7839
  0
VERTEX
  5
18b
  8
Layer_0
  10
952.67871
  20
1170.7352
  0
VERTEX
  5
18c
  8
Layer_0
  10
965.21936
  20
1179.0256
  0
VERTEX
  5
18d
  8
Layer_0
  10
962.25085
  20
1184.2397
  0
VERTEX
  5
18e
  8
Layer_0
  10
948.72064
  20
1177.6875
  0
VERTEX
  5
18f
  8
Layer_0
  10
948.79095
  20
1177.7186
  42
-0.00034089447
  0
VERTEX
  5
190
  8
Layer_0
  10
948.75983
  20
1177.7722
  0
VERTEX
  5
191
  8
Layer_0
  10
948.69775
  20
1177.7271
  0
VERTEX
  5
192
  8
Layer_0
  10
961.11578
  20
1186.2
  0
VERTEX
  5
193
  8
Layer_0
  10
958.07129
  20
1191.3701
  0
VERTEX
  5
194
  8
Layer_0
  10
944.63843
  20
1184.6207
  0
VERTEX
  5
195
  8
Layer_0
  10
944.70135
  20
1184.6495
  42
-6.5153578e-05
  0
VERTEX
  5
196
  8
Layer_0
  10
944.67017
  20
1184.7014
  0
VERTEX
  5
197
  8
Layer_0
  10
944.61487
  20
1184.6599
  0
VERTEX
  5
198
  8
Layer_0
  10
956.90771
  20
1193.3137
  0
VERTEX
  5
199
  8
Layer_0
  10
953.7879
  20
1198.4387
  0
VERTEX
  5
19a
  8
Layer_0
  10
940.45514
  20
1191.4934
  0
VERTEX
  5
19b
  8
Layer_0
  10
940.51074
  20
1191.5199
  42
0.00075990584
  0
VERTEX
  5
19c
  8
Layer_0
  10
940.4798
  20
1191.5698
  0
VERTEX
  5
19d
  8
Layer_0
  10
940.43115
  20
1191.5323
  0
VERTEX
  5
19e
  8
Layer_0
  10
952.59607
  20
1200.3649
  0
VERTEX
  5
19f
  8
Layer_0
  10
949.40161
  20
1205.4438
  0
VERTEX
  5
1a0
  8
Layer_0
  10
936.17188
  20
1198.3042
  0
VERTEX
  5
1a1
  8
Layer_0
  10
936.22021
  20
1198.3281
  42
0.00012134612
  0
VERTEX
  5
1a2
  8
Layer_0
  10
936.18939
  20
1198.3762
  0
VERTEX
  5
1a3
  8
Layer_0
  10
936.14722
  20
1198.3428
  0
VERTEX
  5
1a4
  8
Layer_0
  10
948.18164
  20
1207.3523
  0
VERTEX
  5
1a5
  8
Layer_0
  10
944.91333
  20
1212.384
  0
VERTEX
  5
1a6
  8
Layer_0
  10
931.78943
  20
1205.0516
  0
VERTEX
  5
1a7
  8
Layer_0
  10
931.83069
  20
1205.0728
  42
-0.00010614786
  0
VERTEX
  5
1a8
  8
Layer_0
  10
931.80005
  20
1205.1191
  0
VERTEX
  5
1a9
  8
Layer_0
  10
931.76416
  20
1205.0898
  0
VERTEX
  5
1aa
  8
Layer_0
  10
943.66553
  20
1214.2745
  0
VERTEX
  5
1ab
  8
Layer_0
  10
940.32391
  20
1219.2578
  0
VERTEX
  5
1ac
  8
Layer_0
  10
927.30872
  20
1211.7344
  0
VERTEX
  5
1ad
  8
Layer_0
  10
927.34314
  20
1211.7524
  42
0.00034987074
  0
VERTEX
  5
1ae
  8
Layer_0
  10
927.31268
  20
1211.7971
  0
VERTEX
  5
1af
  8
Layer_0
  10
927.28296
  20
1211.7721
  0
VERTEX
  5
1b0
  8
Layer_0
  10
939.04865
  20
1221.1299
  0
VERTEX
  5
1b1
  8
Layer_0
  10
935.63452
  20
1226.0637
  0
VERTEX
  5
1b2
  8
Layer_0
  10
922.73071
  20
1218.3507
  0
VERTEX
  5
1b3
  8
Layer_0
  10
922.75867
  20
1218.366
  42
-0.0014079684
  0
VERTEX
  5
1b4
  8
Layer_0
  10
922.72839
  20
1218.4088
  0
VERTEX
  5
1b5
  8
Layer_0
  10
922.70447
  20
1218.3881
  0
VERTEX
  5
1b6
  8
Layer_0
  10
934.33203
  20
1227.917
  0
VERTEX
  5
1b7
  8
Layer_0
  10
930.84607
  20
1232.8003
  0
VERTEX
  5
1b8
  8
Layer_0
  10
918.05646
  20
1224.8994
  0
VERTEX
  5
1b9
  8
Layer_0
  10
918.07819
  20
1224.9116
  42
-0.00036294024
  0
VERTEX
  5
1ba
  8
Layer_0
  10
918.04822
  20
1224.9529
  0
VERTEX
  5
1bb
  8
Layer_0
  10
918.02954
  20
1224.9364
  0
VERTEX
  5
1bc
  8
Layer_0
  10
929.51654
  20
1234.6343
  0
VERTEX
  5
1bd
  8
Layer_0
  10
925.95947
  20
1239.4662
  0
VERTEX
  5
1be
  8
Layer_0
  10
913.28687
  20
1231.3789
  0
VERTEX
  5
1bf
  8
Layer_0
  10
913.30292
  20
1231.3882
  42
-0.00027482584
  0
VERTEX
  5
1c0
  8
Layer_0
  10
913.27307
  20
1231.428
  0
VERTEX
  5
1c1
  8
Layer_0
  10
913.25946
  20
1231.4156
  0
VERTEX
  5
1c2
  8
Layer_0
  10
924.60333
  20
1241.2805
  0
VERTEX
  5
1c3
  8
Layer_0
  10
920.97595
  20
1246.0599
  0
VERTEX
  5
1c4
  8
Layer_0
  10
908.42297
  20
1237.7881
  0
VERTEX
  5
1c5
  8
Layer_0
  10
908.43372
  20
1237.7944
  42
-0.00037491453
  0
VERTEX
  5
1c6
  8
Layer_0
  10
908.40417
  20
1237.8328
  0
VERTEX
  5
1c7
  8
Layer_0
  10
908.39508
  20
1237.8243
  0
VERTEX
  5
1c8
  8
Layer_0
  10
919.59344
  20
1247.8541
  0
VERTEX
  5
1c9
  8
Layer_0
  10
915.89661
  20
1252.58
  0
VERTEX
  5
1ca
  8
Layer_0
  10
903.46594
  20
1244.1255
  0
VERTEX
  5
1cb
  8
Layer_0
  10
903.47192
  20
1244.1289
  42
-0.0002957386
  0
VERTEX
  5
1cc
  8
Layer_0
  10
903.4425
  20
1244.166
  0
VERTEX
  5
1cd
  8
Layer_0
  10
903.4375
  20
1244.1613
  0
VERTEX
  5
1ce
  8
Layer_0
  10
914.48792
  20
1254.3538
  0
VERTEX
  5
1cf
  8
Layer_0
  10
910.72235
  20
1259.0249
  0
VERTEX
  5
1d0
  8
Layer_0
  10
898.41675
  20
1250.3895
  0
VERTEX
  5
1d1
  8
Layer_0
  10
898.41846
  20
1250.3904
  0
VERTEX
  5
1d2
  8
Layer_0
  10
909.2879
  20
1260.7346
  0
VERTEX
  5
1d3
  8
Layer_0
  10
905.41833
  20
1265.3936
  0
VERTEX
  5
1d4
  8
Layer_0
  10
893.25879
  20
1256.5922
  0
VERTEX
  5
1d5
  8
Layer_0
  10
893.25897
  20
1256.592
  0
VERTEX
  5
1d6
  8
Layer_0
  10
903.99445
  20
1267.0659
  0
VERTEX
  5
1d7
  8
Layer_0
  10
900.04285
  20
1271.6846
  0
VERTEX
  5
1d8
  8
Layer_0
  10
888.1355
  20
1262.7974
  0
VERTEX
  5
1d9
  8
Layer_0
  10
898.6087
  20
1273.3448
  0
VERTEX
  5
1da
  8
Layer_0
  10
894.59766
  20
1277.8964
  0
VERTEX
  5
1db
  8
Layer_0
  10
882.78589
  20
1268.8004
  0
VERTEX
  5
1dc
  8
Layer_0
  10
893.13184
  20
1279.5292
  0
VERTEX
  5
1dd
  8
Layer_0
  10
889.04901
  20
1284.0278
  0
VERTEX
  5
1de
  8
Layer_0
  10
877.49585
  20
1274.8668
  0
VERTEX
  5
1df
  8
Layer_0
  10
887.56494
  20
1285.6189
  0
VERTEX
  5
1e0
  8
Layer_0
  10
883.39795
  20
1290.0776
  0
VERTEX
  5
1e1
  8
Layer_0
  10
871.88043
  20
1280.6671
  0
VERTEX
  5
1e2
  8
Layer_0
  10
871.88123
  20
1280.6681
  0
VERTEX
  5
1e3
  8
Layer_0
  10
881.90936
  20
1291.6815
  0
VERTEX
  5
1e4
  8
Layer_0
  10
877.71069
  20
1296.0442
  0
VERTEX
  5
1e5
  8
Layer_0
  10
866.21771
  20
1286.3701
  0
VERTEX
  5
1e6
  8
Layer_0
  10
866.2179
  20
1286.37
  0
VERTEX
  5
1e7
  8
Layer_0
  10
876.16626
  20
1297.6189
  0
VERTEX
  5
1e8
  8
Layer_0
  10
871.89734
  20
1301.9266
  0
VERTEX
  5
1e9
  8
Layer_0
  10
860.55078
  20
1292.0885
  0
VERTEX
  5
1ea
  8
Layer_0
  10
870.33673
  20
1303.501
  0
VERTEX
  5
1eb
  8
Layer_0
  10
866.0282
  20
1307.7234
  0
VERTEX
  5
1ec
  8
Layer_0
  10
854.81531
  20
1297.7102
  0
VERTEX
  5
1ed
  8
Layer_0
  10
854.81543
  20
1297.7101
  0
VERTEX
  5
1ee
  8
Layer_0
  10
864.42224
  20
1309.2451
  0
VERTEX
  5
1ef
  8
Layer_0
  10
860.02148
  20
1313.4333
  0
VERTEX
  5
1f0
  8
Layer_0
  10
849.0293
  20
1303.3245
  0
VERTEX
  5
1f1
  8
Layer_0
  10
849.03113
  20
1303.3262
  0
VERTEX
  5
1f2
  8
Layer_0
  10
858.42383
  20
1314.954
  0
VERTEX
  5
1f3
  8
Layer_0
  10
853.98621
  20
1319.0554
  0
VERTEX
  5
1f4
  8
Layer_0
  10
843.08008
  20
1308.7219
  0
VERTEX
  5
1f5
  8
Layer_0
  10
843.0813
  20
1308.7233
  0
VERTEX
  5
1f6
  8
Layer_0
  10
843.08032
  20
1308.7217
  0
VERTEX
  5
1f7
  8
Layer_0
  10
852.3429
  20
1320.538
  0
VERTEX
  5
1f8
  8
Layer_0
  10
847.83002
  20
1324.5881
  0
VERTEX
  5
1f9
  8
Layer_0
  10
837.14813
  20
1314.1633
  0
VERTEX
  5
1fa
  8
Layer_0
  10
846.18073
  20
1326.04
  0
VERTEX
  5
1fb
  8
Layer_0
  10
841.60126
  20
1330.0305
  0
VERTEX
  5
1fc
  8
Layer_0
  10
831.06018
  20
1319.4464
  0
VERTEX
  5
1fd
  8
Layer_0
  10
831.05896
  20
1319.4448
  0
VERTEX
  5
1fe
  8
Layer_0
  10
839.93872
  20
1331.4684
  0
VERTEX
  5
1ff
  8
Layer_0
  10
835.31335
  20
1335.3813
  0
VERTEX
  5
200
  8
Layer_0
  10
824.8811
  20
1324.5951
  0
VERTEX
  5
201
  8
Layer_0
  10
833.61804
  20
1336.7854
  0
VERTEX
  5
202
  8
Layer_0
  10
828.92487
  20
1340.6394
  0
VERTEX
  5
203
  8
Layer_0
  10
818.82556
  20
1329.8871
  0
VERTEX
  5
204
  8
Layer_0
  10
818.73023
  20
1329.7843
  0
VERTEX
  5
205
  8
Layer_0
  10
818.68126
  20
1329.7316
  0
VERTEX
  5
206
  8
Layer_0
  10
818.66322
  20
1329.7123
  0
VERTEX
  5
207
  8
Layer_0
  10
818.66064
  20
1329.7096
  42
-0.099019514
  0
VERTEX
  5
208
  8
Layer_0
  10
818.6604
  20
1329.7098
  0
VERTEX
  5
209
  8
Layer_0
  10
818.66064
  20
1329.7096
  0
VERTEX
  5
20a
  8
Layer_0
  10
827.22021
  20
1341.9918
  0
VERTEX
  5
20b
  8
Layer_0
  10
822.43732
  20
1345.8037
  0
VERTEX
  5
20c
  8
Layer_0
  10
812.48755
  20
1334.8953
  0
VERTEX
  5
20d
  8
Layer_0
  10
820.74646
  20
1347.1848
  0
VERTEX
  5
20e
  8
Layer_0
  10
815.97729
  20
1350.873
  0
VERTEX
  5
20f
  8
Layer_0
  10
806.03174
  20
1339.6383
  0
VERTEX
  5
210
  8
Layer_0
  10
806.03186
  20
1339.6382
  0
VERTEX
  5
211
  8
Layer_0
  10
814.19824
  20
1352.2109
  0
VERTEX
  5
212
  8
Layer_0
  10
809.35266
  20
1355.8463
  0
VERTEX
  5
213
  8
Layer_0
  10
799.58264
  20
1344.4843
  0
VERTEX
  5
214
  8
Layer_0
  10
799.58783
  20
1344.4803
  0
VERTEX
  5
215
  8
Layer_0
  10
799.58801
  20
1344.4802
  0
VERTEX
  5
216
  8
Layer_0
  10
807.57703
  20
1357.1754
  0
VERTEX
  5
217
  8
Layer_0
  10
802.70215
  20
1360.7224
  0
VERTEX
  5
218
  8
Layer_0
  10
793.02216
  20
1349.1265
  0
VERTEX
  5
219
  8
Layer_0
  10
793.09778
  20
1349.2109
  42
-0.00076487791
  0
VERTEX
  5
21a
  8
Layer_0
  10
793.07507
  20
1349.2272
  0
VERTEX
  5
21b
  8
Layer_0
  10
792.99817
  20
1349.0917
  0
VERTEX
  5
21c
  8
Layer_0
  10
800.88416
  20
1362.017
  0
VERTEX
  5
21d
  8
Layer_0
  10
795.94623
  20
1365.5005
  0
VERTEX
  5
21e
  8
Layer_0
  10
786.50745
  20
1353.8687
  0
VERTEX
  5
21f
  8
Layer_0
  10
794.12097
  20
1366.7684
  0
VERTEX
  5
220
  8
Layer_0
  10
789.13275
  20
1370.1794
  0
VERTEX
  5
221
  8
Layer_0
  10
779.87866
  20
1358.4099
  0
VERTEX
  5
222
  8
Layer_0
  10
779.87012
  20
1358.4156
  0
VERTEX
  5
223
  8
Layer_0
  10
787.28906
  20
1371.4167
  0
VERTEX
  5
224
  8
Layer_0
  10
782.24585
  20
1374.7581
  0
VERTEX
  5
225
  8
Layer_0
  10
773.16052
  20
1362.8696
  0
VERTEX
  5
226
  8
Layer_0
  10
780.38989
  20
1375.98
  0
VERTEX
  5
227
  8
Layer_0
  10
775.31616
  20
1379.2356
  0
VERTEX
  5
228
  8
Layer_0
  10
766.41492
  20
1367.207
  42
0.0012037208
  0
VERTEX
  5
229
  8
Layer_0
  10
766.38556
  20
1367.2256
  0
VERTEX
  5
22a
  8
Layer_0
  10
773.4248
  20
1380.4448
  0
VERTEX
  5
22b
  8
Layer_0
  10
768.32819
  20
1383.6111
  0
VERTEX
  5
22c
  8
Layer_0
  10
759.60095
  20
1371.4495
  42
-0.0007077658
  0
VERTEX
  5
22d
  8
Layer_0
  10
759.55371
  20
1371.4783
  0
VERTEX
  5
22e
  8
Layer_0
  10
766.39539
  20
1384.7922
  0
VERTEX
  5
22f
  8
Layer_0
  10
761.25305
  20
1387.8835
  0
VERTEX
  5
230
  8
Layer_0
  10
752.70886
  20
1375.6018
  42
-0.00021879802
  0
VERTEX
  5
231
  8
Layer_0
  10
752.6604
  20
1375.6305
  0
VERTEX
  5
232
  8
Layer_0
  10
759.30322
  20
1389.0363
  0
VERTEX
  5
233
  8
Layer_0
  10
754.11609
  20
1392.052
  0
VERTEX
  5
234
  8
Layer_0
  10
745.75684
  20
1379.6528
  42
0.00019805798
  0
VERTEX
  5
235
  8
Layer_0
  10
745.70691
  20
1379.6814
  0
VERTEX
  5
236
  8
Layer_0
  10
752.14966
  20
1393.176
  0
VERTEX
  5
237
  8
Layer_0
  10
746.91901
  20
1396.1156
  0
VERTEX
  5
238
  8
Layer_0
  10
738.74597
  20
1383.6017
  42
7.6081272e-05
  0
VERTEX
  5
239
  8
Layer_0
  10
738.69482
  20
1383.6301
  0
VERTEX
  5
23a
  8
Layer_0
  10
744.93628
  20
1397.2108
  0
VERTEX
  5
23b
  8
Layer_0
  10
739.66321
  20
1400.0735
  0
VERTEX
  5
23c
  8
Layer_0
  10
731.67798
  20
1387.4475
  42
-0.00018088656
  0
VERTEX
  5
23d
  8
Layer_0
  10
731.62537
  20
1387.4756
  0
VERTEX
  5
23e
  8
Layer_0
  10
737.66467
  20
1401.1396
  0
VERTEX
  5
23f
  8
Layer_0
  10
732.35034
  20
1403.9248
  0
VERTEX
  5
240
  8
Layer_0
  10
724.5542
  20
1391.1892
  42
0.00028253215
  0
VERTEX
  5
241
  8
Layer_0
  10
724.50031
  20
1391.217
  0
VERTEX
  5
242
  8
Layer_0
  10
730.33643
  20
1404.9617
  0
VERTEX
  5
243
  8
Layer_0
  10
724.98187
  20
1407.6688
  0
VERTEX
  5
244
  8
Layer_0
  10
717.37616
  20
1394.8259
  42
0.00033272109
  0
VERTEX
  5
245
  8
Layer_0
  10
717.32098
  20
1394.8534
  0
VERTEX
  5
246
  8
Layer_0
  10
722.953
  20
1408.676
  0
VERTEX
  5
247
  8
Layer_0
  10
717.55945
  20
1411.3047
  0
VERTEX
  5
248
  8
Layer_0
  10
710.14532
  20
1398.3571
  42
-0.00035830847
  0
VERTEX
  5
249
  8
Layer_0
  10
710.08905
  20
1398.384
  0
VERTEX
  5
24a
  8
Layer_0
  10
715.51605
  20
1412.282
  0
VERTEX
  5
24b
  8
Layer_0
  10
710.08459
  20
1414.8314
  0
VERTEX
  5
24c
  8
Layer_0
  10
702.86334
  20
1401.7815
  42
0.00010122844
  0
VERTEX
  5
24d
  8
Layer_0
  10
702.80585
  20
1401.808
  0
VERTEX
  5
24e
  8
Layer_0
  10
708.02716
  20
1415.7788
  0
VERTEX
  5
24f
  8
Layer_0
  10
702.55902
  20
1418.2485
  0
VERTEX
  5
250
  8
Layer_0
  10
695.53162
  20
1405.0986
  42
0.00054278422
  0
VERTEX
  5
251
  8
Layer_0
  10
695.47314
  20
1405.1245
  0
VERTEX
  5
252
  8
Layer_0
  10
700.48792
  20
1419.1658
  0
VERTEX
  5
253
  8
Layer_0
  10
694.98419
  20
1421.5552
  0
VERTEX
  5
254
  8
Layer_0
  10
688.15186
  20
1408.3075
  42
-0.0004645772
  0
VERTEX
  5
255
  8
Layer_0
  10
688.09241
  20
1408.3328
  0
VERTEX
  5
256
  8
Layer_0
  10
692.8999
  20
1422.442
  0
VERTEX
  5
257
  8
Layer_0
  10
687.36188
  20
1424.7507
  0
VERTEX
  5
258
  8
Layer_0
  10
680.72546
  20
1411.4075
  42
-0.0003119212
  0
VERTEX
  5
259
  8
Layer_0
  10
680.66522
  20
1411.432
  0
VERTEX
  5
25a
  8
Layer_0
  10
685.26483
  20
1425.6069
  0
VERTEX
  5
25b
  8
Layer_0
  10
679.6936
  20
1427.8344
  0
VERTEX
  5
25c
  8
Layer_0
  10
673.25415
  20
1414.3977
  42
0.0001271628
  0
VERTEX
  5
25d
  8
Layer_0
  10
673.19324
  20
1414.4216
  0
VERTEX
  5
25e
  8
Layer_0
  10
677.58423
  20
1428.6599
  0
VERTEX
  5
25f
  8
Layer_0
  10
671.98102
  20
1430.8054
  0
VERTEX
  5
260
  8
Layer_0
  10
665.7395
  20
1417.2776
  42
0.00049051895
  0
VERTEX
  5
261
  8
Layer_0
  10
665.67804
  20
1417.3007
  0
VERTEX
  5
262
  8
Layer_0
  10
669.85986
  20
1431.6
  0
VERTEX
  5
263
  8
Layer_0
  10
664.22583
  20
1433.6635
  0
VERTEX
  5
264
  8
Layer_0
  10
658.18323
  20
1420.0464
  42
-5.85611e-05
  0
VERTEX
  5
265
  8
Layer_0
  10
658.12122
  20
1420.0686
  0
VERTEX
  5
266
  8
Layer_0
  10
662.09326
  20
1434.427
  0
VERTEX
  5
267
  8
Layer_0
  10
656.42963
  20
1436.4078
  0
VERTEX
  5
268
  8
Layer_0
  10
650.58679
  20
1422.7036
  42
-0.0006992508
  0
VERTEX
  5
269
  8
Layer_0
  10
650.52454
  20
1422.7249
  0
VERTEX
  5
26a
  8
Layer_0
  10
654.28613
  20
1437.1399
  0
VERTEX
  5
26b
  8
Layer_0
  10
648.59412
  20
1439.0377
  0
VERTEX
  5
26c
  8
Layer_0
  10
642.9519
  20
1425.2485
  0
VERTEX
  5
26d
  8
Layer_0
  10
642.92072
  20
1425.2586
  0
VERTEX
  5
26e
  8
Layer_0
  10
642.88954
  20
1425.2688
  0
VERTEX
  5
26f
  8
Layer_0
  10
646.44012
  20
1439.7384
  0
VERTEX
  5
270
  8
Layer_0
  10
640.72101
  20
1441.5527
  0
VERTEX
  5
271
  8
Layer_0
  10
635.28033
  20
1427.6804
  42
0.001189919
  0
VERTEX
  5
272
  8
Layer_0
  10
635.21796
  20
1427.6997
  0
VERTEX
  5
273
  8
Layer_0
  10
638.55701
  20
1442.2219
  0
VERTEX
  5
274
  8
Layer_0
  10
632.81195
  20
1443.9524
  0
VERTEX
  5
275
  8
Layer_0
  10
627.57349
  20
1429.9993
  42
-0.00080862958
  0
VERTEX
  5
276
  8
Layer_0
  10
627.51056
  20
1430.0176
  0
VERTEX
  5
277
  8
Layer_0
  10
627.51038
  20
1430.0177
  0
VERTEX
  5
278
  8
Layer_0
  10
630.63837
  20
1444.5964
  0
VERTEX
  5
279
  8
Layer_0
  10
624.89197
  20
1446.2361
  0
VERTEX
  5
27a
  8
Layer_0
  10
619.85706
  20
1432.1974
  0
VERTEX
  5
27b
  8
Layer_0
  10
619.8573
  20
1432.1973
  42
-0.00058889392
  0
VERTEX
  5
27c
  8
Layer_0
  10
619.77203
  20
1432.2209
  0
VERTEX
  5
27d
  8
Layer_0
  10
622.68597
  20
1446.8416
  0
VERTEX
  5
27e
  8
Layer_0
  10
616.89276
  20
1448.4033
  0
VERTEX
  5
27f
  8
Layer_0
  10
612.06213
  20
1434.2942
  42
-0.00013743971
  0
VERTEX
  5
280
  8
Layer_0
  10
612.00079
  20
1434.3103
  0
VERTEX
  5
281
  8
Layer_0
  10
614.70142
  20
1448.9768
  0
VERTEX
  5
282
  8
Layer_0
  10
608.88599
  20
1450.4536
  0
VERTEX
  5
283
  8
Layer_0
  10
604.2605
  20
1436.2698
  42
0.0015318039
  0
VERTEX
  5
284
  8
Layer_0
  10
604.19971
  20
1436.2847
  0
VERTEX
  5
285
  8
Layer_0
  10
606.68658
  20
1450.995
  0
VERTEX
  5
286
  8
Layer_0
  10
600.85016
  20
1452.3865
  0
VERTEX
  5
287
  8
Layer_0
  10
596.43066
  20
1438.1301
  42
-0.00068218884
  0
VERTEX
  5
288
  8
Layer_0
  10
596.37061
  20
1438.1438
  0
VERTEX
  5
289
  8
Layer_0
  10
598.64301
  20
1452.8958
  0
VERTEX
  5
28a
  8
Layer_0
  10
592.78687
  20
1454.2017
  0
VERTEX
  5
28b
  8
Layer_0
  10
588.57422
  20
1439.8749
  42
0.00019017932
  0
VERTEX
  5
28c
  8
Layer_0
  10
588.51508
  20
1439.8875
  0
VERTEX
  5
28d
  8
Layer_0
  10
590.57251
  20
1454.6786
  0
VERTEX
  5
28e
  8
Layer_0
  10
584.69794
  20
1455.8988
  0
VERTEX
  5
28f
  8
Layer_0
  10
580.69305
  20
1441.5039
  42
-0.0015525977
  0
VERTEX
  5
290
  8
Layer_0
  10
580.63501
  20
1441.5155
  0
VERTEX
  5
291
  8
Layer_0
  10
582.47681
  20
1456.3433
  0
VERTEX
  5
292
  8
Layer_0
  10
576.58496
  20
1457.4773
  0
VERTEX
  5
293
  8
Layer_0
  10
572.78888
  20
1443.0167
  42
-0.0013735384
  0
VERTEX
  5
294
  8
Layer_0
  10
572.73187
  20
1443.0272
  0
VERTEX
  5
295
  8
Layer_0
  10
574.3576
  20
1457.8892
  0
VERTEX
  5
296
  8
Layer_0
  10
568.44983
  20
1458.937
  0
VERTEX
  5
297
  8
Layer_0
  10
564.8634
  20
1444.4133
  42
1.6713103e-05
  0
VERTEX
  5
298
  8
Layer_0
  10
564.80762
  20
1444.4226
  0
VERTEX
  5
299
  8
Layer_0
  10
566.21667
  20
1459.3164
  0
VERTEX
  5
29a
  8
Layer_0
  10
560.29419
  20
1460.2776
  0
VERTEX
  5
29b
  8
Layer_0
  10
556.9184
  20
1445.6934
  42
0.0008055889
  0
VERTEX
  5
29c
  8
Layer_0
  10
556.86389
  20
1445.7018
  0
VERTEX
  5
29d
  8
Layer_0
  10
558.05579
  20
1460.6243
  0
VERTEX
  5
29e
  8
Layer_0
  10
552.11981
  20
1461.4988
  0
VERTEX
  5
29f
  8
Layer_0
  10
548.95557
  20
1446.8569
  42
0.00027795637
  0
VERTEX
  5
2a0
  8
Layer_0
  10
548.90247
  20
1446.8643
  0
VERTEX
  5
2a1
  8
Layer_0
  10
549.87659
  20
1461.8125
  0
VERTEX
  5
2a2
  8
Layer_0
  10
543.92847
  20
1462.6002
  0
VERTEX
  5
2a3
  8
Layer_0
  10
540.97675
  20
1447.9036
  42
0.0013140645
  0
VERTEX
  5
2a4
  8
Layer_0
  10
540.92505
  20
1447.9099
  0
VERTEX
  5
2a5
  8
Layer_0
  10
541.68085
  20
1462.8811
  0
VERTEX
  5
2a6
  8
Layer_0
  10
535.72186
  20
1463.5817
  0
VERTEX
  5
2a7
  8
Layer_0
  10
532.98364
  20
1448.8336
  42
-6.1323348e-06
  0
VERTEX
  5
2a8
  8
Layer_0
  10
532.93329
  20
1448.8391
  0
VERTEX
  5
2a9
  8
Layer_0
  10
533.4704
  20
1463.8297
  0
VERTEX
  5
2aa
  8
Layer_0
  10
527.50183
  20
1464.4431
  0
VERTEX
  5
2ab
  8
Layer_0
  10
524.92896
  20
1449.6515
  0
VERTEX
  5
2ac
  8
Layer_0
  10
525.24695
  20
1464.6581
  0
VERTEX
  5
2ad
  8
Layer_0
  10
519.27002
  20
1465.1841
  0
VERTEX
  5
2ae
  8
Layer_0
  10
516.96143
  20
1450.3435
  0
VERTEX
  5
2af
  8
Layer_0
  10
517.01221
  20
1465.366
  0
VERTEX
  5
2b0
  8
Layer_0
  10
511.02829
  20
1465.8044
  0
VERTEX
  5
2b1
  8
Layer_0
  10
508.93585
  20
1450.9235
  0
VERTEX
  5
2b2
  8
Layer_0
  10
508.76807
  20
1465.9478
  0
VERTEX
  5
2b3
  8
Layer_0
  10
502.77832
  20
1466.3044
  0
VERTEX
  5
2b4
  8
Layer_0
  10
500.93307
  20
1451.3855
  0
VERTEX
  5
2b5
  8
Layer_0
  10
500.93332
  20
1451.3855
  42
0.00058210913
  0
VERTEX
  5
2b6
  8
Layer_0
  10
500.85425
  20
1451.3895
  0
VERTEX
  5
2b7
  8
Layer_0
  10
500.85159
  20
1451.3896
  0
VERTEX
  5
2b8
  8
Layer_0
  10
500.85121
  20
1451.3896
  0
VERTEX
  5
2b9
  8
Layer_0
  10
500.85425
  20
1451.3894
  0
VERTEX
  5
2ba
  8
Layer_0
  10
500.51617
  20
1466.418
  0
VERTEX
  5
2bb
  8
Layer_0
  10
494.52197
  20
1466.6836
  0
VERTEX
  5
2bc
  8
Layer_0
  10
492.87961
  20
1451.7339
  42
0.0011401178
  0
VERTEX
  5
2bd
  8
Layer_0
  10
492.80005
  20
1451.7366
  0
VERTEX
  5
2be
  8
Layer_0
  10
492.80032
  20
1451.7366
  0
VERTEX
  5
2bf
  8
Layer_0
  10
492.25836
  20
1466.7631
  0
VERTEX
  5
2c0
  8
Layer_0
  10
486.26093
  20
1466.9419
  0
VERTEX
  5
2c1
  8
Layer_0
  10
484.8483
  20
1451.9651
  42
0.00052258951
  0
VERTEX
  5
2c2
  8
Layer_0
  10
484.76074
  20
1451.967
  0
VERTEX
  5
2c3
  8
Layer_0
  10
484.75148
  20
1451.9672
  0
VERTEX
  5
2c4
  8
Layer_0
  10
484.75015
  20
1451.9672
  0
VERTEX
  5
2c5
  8
Layer_0
  10
484.76068
  20
1451.967
  0
VERTEX
  5
2c6
  8
Layer_0
  10
483.99634
  20
1466.9897
  0
VERTEX
  5
2c7
  8
Layer_0
  10
477.99698
  20
1467.0793
  0
VERTEX
  5
2c8
  8
Layer_0
  10
476.8136
  20
1452.0811
  0
SEQEND
  0
POLYLINE
  5
2ca
  8
Layer_0
  62
7
  66
1
  10
0
  20
0
  30
0
  0
VERTEX
  5
2ca
  8
Layer_0
  10
1016.3267
  20
989.28821
  0
VERTEX
  5
2cb
  8
Layer_0
  10
1016.3282
  20
989.27087
  0
VERTEX
  5
2cc
  8
Layer_0
  10
1015.7985
  20
989.24347
  0
VERTEX
  5
2cd
  8
Layer_0
  10
1030.9219
  20
990.52386
  0
VERTEX
  5
2ce
  8
Layer_0
  10
1031.7382
  20
985.23981
  0
VERTEX
  5
2cf
  8
Layer_0
  10
1097.2681
  20
236.2287
  0
VERTEX
  5
2d0
  8
Layer_0
  10
1097.2677
  20
236.22867
  0
VERTEX
  5
2d1
  8
Layer_0
  10
1097.2524
  20
236.22738
  0
VERTEX
  5
2d2
  8
Layer_0
  10
1097.2015
  20
236.22305
  0
VERTEX
  5
2d3
  8
Layer_0
  10
1097.0941
  20
236.21391
  0
VERTEX
  5
2d4
  8
Layer_0
  10
1096.9094
  20
236.19816
  0
VERTEX
  5
2d5
  8
Layer_0
  10
1096.6266
  20
236.17403
  0
VERTEX
  5
2d6
  8
Layer_0
  10
1096.4419
  20
236.15826
  0
VERTEX
  5
2d7
  8
Layer_0
  10
1096.2248
  20
236.13973
  0
VERTEX
  5
2d8
  8
Layer_0
  10
1095.9728
  20
236.11821
  0
VERTEX
  5
2d9
  8
Layer_0
  10
1095.6832
  20
236.09348
  0
VERTEX
  5
2da
  8
Layer_0
  10
1095.3535
  20
236.06531
  0
VERTEX
  5
2db
  8
Layer_0
  10
1094.981
  20
236.03349
  0
VERTEX
  5
2dc
  8
Layer_0
  10
1094.5631
  20
235.99779
  0
VERTEX
  5
2dd
  8
Layer_0
  10
1094.0973
  20
235.95799
  0
VERTEX
  5
2de
  8
Layer_0
  10
1093.5809
  20
235.91387
  0
VERTEX
  5
2df
  8
Layer_0
  10
1093.0113
  20
235.86519
  0
VERTEX
  5
2e0
  8
Layer_0
  10
1092.3859
  20
235.81175
  0
VERTEX
  5
2e1
  8
Layer_0
  10
1091.7021
  20
235.75332
  0
VERTEX
  5
2e2
  8
Layer_0
  10
1090.9573
  20
235.68967
  0
VERTEX
  5
2e3
  8
Layer_0
  10
1090.149
  20
235.62058
  0
VERTEX
  5
2e4
  8
Layer_0
  10
1089.2744
  20
235.54582
  0
VERTEX
  5
2e5
  8
Layer_0
  10
1088.331
  20
235.46519
  0
VERTEX
  5
2e6
  8
Layer_0
  10
1087.3162
  20
235.37845
  0
VERTEX
  5
2e7
  8
Layer_0
  10
1086.2274
  20
235.28537
  0
VERTEX
  5
2e8
  8
Layer_0
  10
1085.062
  20
235.18575
  0
VERTEX
  5
2e9
  8
Layer_0
  10
1083.8174
  20
235.07935
  42
0.38943763
  0
VERTEX
  5
2ea
  8
Layer_0
  10
1082.3229
  20
236.44989
  42
0.41421356
  0
VERTEX
  5
2eb
  8
Layer_0
  10
1080.8229
  20
234.94989
  42
0.021550389
  0
VERTEX
  5
2ec
  8
Layer_0
  10
1080.8285
  20
234.81909
  0
VERTEX
  5
2ed
  8
Layer_0
  10
1080.8285
  20
234.81909
  0
VERTEX
  5
2ee
  8
Layer_0
  10
853.19812
  20
214.90405
  0
VERTEX
  5
2ef
  8
Layer_0
  10
788.52588
  20
954.11029
  0
VERTEX
  5
2f0
  8
Layer_0
  10
787.924
  20
957.666
  0
VERTEX
  5
2f1
  8
Layer_0
  10
787.28313
  20
961.2083
  0
VERTEX
  5
2f2
  8
Layer_0
  10
786.60351
  20
964.73696
  0
VERTEX
  5
2f3
  8
Layer_0
  10
785.88535
  20
968.25174
  0
VERTEX
  5
2f4
  8
Layer_0
  10
785.1289
  20
971.75243
  0
VERTEX
  5
2f5
  8
Layer_0
  10
784.33438
  20
975.23879
  0
VERTEX
  5
2f6
  8
Layer_0
  10
783.50201
  20
978.71059
  0
VERTEX
  5
2f7
  8
Layer_0
  10
782.63203
  20
982.16761
  0
VERTEX
  5
2f8
  8
Layer_0
  10
781.72467
  20
985.60961
  0
VERTEX
  5
2f9
  8
Layer_0
  10
780.78015
  20
989.03637
  0
VERTEX
  5
2fa
  8
Layer_0
  10
779.7987
  20
992.44765
  0
VERTEX
  5
2fb
  8
Layer_0
  10
778.78056
  20
995.84323
  0
VERTEX
  5
2fc
  8
Layer_0
  10
777.72595
  20
999.22289
  0
VERTEX
  5
2fd
  8
Layer_0
  10
776.6351
  20
1002.5864
  0
VERTEX
  5
2fe
  8
Layer_0
  10
775.50824
  20
1005.9335
  0
VERTEX
  5
2ff
  8
Layer_0
  10
774.34559
  20
1009.264
  0
VERTEX
  5
300
  8
Layer_0
  10
773.1474
  20
1012.5776
  0
VERTEX
  5
301
  8
Layer_0
  10
771.91387
  20
1015.8742
  0
VERTEX
  5
302
  8
Layer_0
  10
770.64525
  20
1019.1535
  0
VERTEX
  5
303
  8
Layer_0
  10
769.34177
  20
1022.4152
  0
VERTEX
  5
304
  8
Layer_0
  10
768.00365
  20
1025.6592
  0
VERTEX
  5
305
  8
Layer_0
  10
766.63112
  20
1028.8852
  0
VERTEX
  5
306
  8
Layer_0
  10
765.2244
  20
1032.0929
  0
VERTEX
  5
307
  8
Layer_0
  10
763.78374
  20
1035.2822
  0
VERTEX
  5
308
  8
Layer_0
  10
762.30936
  20
1038.4529
  0
VERTEX
  5
309
  8
Layer_0
  10
760.80148
  20
1041.6046
  0
VERTEX
  5
30a
  8
Layer_0
  10
759.26033
  20
1044.7372
  0
VERTEX
  5
30b
  8
Layer_0
  10
757.68615
  20
1047.8504
  0
VERTEX
  5
30c
  8
Layer_0
  10
756.07917
  20
1050.9441
  0
VERTEX
  5
30d
  8
Layer_0
  10
754.4396
  20
1054.0179
  0
VERTEX
  5
30e
  8
Layer_0
  10
752.76769
  20
1057.0717
  0
VERTEX
  5
30f
  8
Layer_0
  10
751.06365
  20
1060.1052
  0
VERTEX
  5
310
  8
Layer_0
  10
749.32772
  20
1063.1182
  0
VERTEX
  5
311
  8
Layer_0
  10
747.56013
  20
1066.1104
  0
VERTEX
  5
312
  8
Layer_0
  10
745.76111
  20
1069.0817
  0
VERTEX
  5
313
  8
Layer_0
  10
743.93088
  20
1072.0318
  0
VERTEX
  5
314
  8
Layer_0
  10
742.06968
  20
1074.9605
  0
VERTEX
  5
315
  8
Layer_0
  10
740.17773
  20
1077.8675
  0
VERTEX
  5
316
  8
Layer_0
  10
738.25526
  20
1080.7527
  0
VERTEX
  5
317
  8
Layer_0
  10
736.3025
  20
1083.6157
  0
VERTEX
  5
318
  8
Layer_0
  10
734.31968
  20
1086.4564
  0
VERTEX
  5
319
  8
Layer_0
  10
732.30702
  20
1089.2745
  0
VERTEX
  5
31a
  8
Layer_0
  10
730.26477
  20
1092.0698
  0
VERTEX
  5
31b
  8
Layer_0
  10
728.19314
  20
1094.8421
  0
VERTEX
  5
31c
  8
Layer_0
  10
726.09236
  20
1097.5912
  0
VERTEX
  5
31d
  8
Layer_0
  10
723.96267
  20
1100.3168
  0
VERTEX
  5
31e
  8
Layer_0
  10
721.80429
  20
1103.0186
  0
VERTEX
  5
31f
  8
Layer_0
  10
719.61746
  20
1105.6965
  0
VERTEX
  5
320
  8
Layer_0
  10
717.40239
  20
1108.3503
  0
VERTEX
  5
321
  8
Layer_0
  10
715.15932
  20
1110.9796
  0
VERTEX
  5
322
  8
Layer_0
  10
712.88848
  20
1113.5843
  0
VERTEX
  5
323
  8
Layer_0
  10
710.5901
  20
1116.1642
  0
VERTEX
  5
324
  8
Layer_0
  10
708.2644
  20
1118.719
  0
VERTEX
  5
325
  8
Layer_0
  10
705.91161
  20
1121.2485
  0
VERTEX
  5
326
  8
Layer_0
  10
703.53197
  20
1123.7524
  0
VERTEX
  5
327
  8
Layer_0
  10
701.1257
  20
1126.2305
  0
VERTEX
  5
328
  8
Layer_0
  10
698.69304
  20
1128.6827
  0
VERTEX
  5
329
  8
Layer_0
  10
696.2342
  20
1131.1086
  0
VERTEX
  5
32a
  8
Layer_0
  10
693.74942
  20
1133.5081
  0
VERTEX
  5
32b
  8
Layer_0
  10
691.23893
  20
1135.8809
  0
VERTEX
  5
32c
  8
Layer_0
  10
688.70295
  20
1138.2268
  0
VERTEX
  5
32d
  8
Layer_0
  10
686.14172
  20
1140.5455
  0
VERTEX
  5
32e
  8
Layer_0
  10
683.55547
  20
1142.8368
  0
VERTEX
  5
32f
  8
Layer_0
  10
680.94442
  20
1145.1006
  0
VERTEX
  5
330
  8
Layer_0
  10
678.3088
  20
1147.3365
  0
VERTEX
  5
331
  8
Layer_0
  10
675.64884
  20
1149.5444
  0
VERTEX
  5
332
  8
Layer_0
  10
672.96477
  20
1151.7239
  0
VERTEX
  5
333
  8
Layer_0
  10
670.25681
  20
1153.875
  0
VERTEX
  5
334
  8
Layer_0
  10
667.52521
  20
1155.9973
  0
VERTEX
  5
335
  8
Layer_0
  10
664.77018
  20
1158.0906
  0
VERTEX
  5
336
  8
Layer_0
  10
661.99196
  20
1160.1547
  0
VERTEX
  5
337
  8
Layer_0
  10
659.19077
  20
1162.1894
  0
VERTEX
  5
338
  8
Layer_0
  10
656.36684
  20
1164.1945
  0
VERTEX
  5
339
  8
Layer_0
  10
653.5204
  20
1166.1696
  0
VERTEX
  5
33a
  8
Layer_0
  10
650.65169
  20
1168.1146
  0
VERTEX
  5
33b
  8
Layer_0
  10
647.76092
  20
1170.0293
  0
VERTEX
  5
33c
  8
Layer_0
  10
644.84834
  20
1171.9134
  0
VERTEX
  5
33d
  8
Layer_0
  10
641.91416
  20
1173.7667
  0
VERTEX
  5
33e
  8
Layer_0
  10
638.95861
  20
1175.589
  0
VERTEX
  5
33f
  8
Layer_0
  10
635.98193
  20
1177.3799
  0
VERTEX
  5
340
  8
Layer_0
  10
632.98435
  20
1179.1394
  0
VERTEX
  5
341
  8
Layer_0
  10
629.96608
  20
1180.8672
  0
VERTEX
  5
342
  8
Layer_0
  10
626.92737
  20
1182.5631
  0
VERTEX
  5
343
  8
Layer_0
  10
623.86844
  20
1184.2267
  0
VERTEX
  5
344
  8
Layer_0
  10
620.78952
  20
1185.858
  0
VERTEX
  5
345
  8
Layer_0
  10
617.69083
  20
1187.4566
  0
VERTEX
  5
346
  8
Layer_0
  10
614.57261
  20
1189.0223
  0
VERTEX
  5
347
  8
Layer_0
  10
611.43509
  20
1190.5549
  0
VERTEX
  5
348
  8
Layer_0
  10
608.27849
  20
1192.0543
  0
VERTEX
  5
349
  8
Layer_0
  10
605.10305
  20
1193.52
  0
VERTEX
  5
34a
  8
Layer_0
  10
601.90898
  20
1194.952
  0
VERTEX
  5
34b
  8
Layer_0
  10
598.69653
  20
1196.35
  0
VERTEX
  5
34c
  8
Layer_0
  10
595.46592
  20
1197.7137
  0
VERTEX
  5
34d
  8
Layer_0
  10
592.21738
  20
1199.043
  0
VERTEX
  5
34e
  8
Layer_0
  10
588.95113
  20
1200.3376
  0
VERTEX
  5
34f
  8
Layer_0
  10
585.66741
  20
1201.5972
  0
VERTEX
  5
350
  8
Layer_0
  10
582.36645
  20
1202.8217
  0
VERTEX
  5
351
  8
Layer_0
  10
579.04847
  20
1204.0108
  0
VERTEX
  5
352
  8
Layer_0
  10
575.7137
  20
1205.1643
  0
VERTEX
  5
353
  8
Layer_0
  10
572.36238
  20
1206.282
  0
VERTEX
  5
354
  8
Layer_0
  10
568.99472
  20
1207.3636
  0
VERTEX
  5
355
  8
Layer_0
  10
565.61097
  20
1208.4089
  0
VERTEX
  5
356
  8
Layer_0
  10
562.21134
  20
1209.4177
  0
VERTEX
  5
357
  8
Layer_0
  10
558.79608
  20
1210.3897
  0
VERTEX
  5
358
  8
Layer_0
  10
555.36539
  20
1211.3247
  0
VERTEX
  5
359
  8
Layer_0
  10
551.91953
  20
1212.2225
  0
VERTEX
  5
35a
  8
Layer_0
  10
548.4587
  20
1213.0829
  0
VERTEX
  5
35b
  8
Layer_0
  10
544.98315
  20
1213.9056
  0
VERTEX
  5
35c
  8
Layer_0
  10
541.4931
  20
1214.6903
  0
VERTEX
  5
35d
  8
Layer_0
  10
537.98879
  20
1215.437
  0
VERTEX
  5
35e
  8
Layer_0
  10
534.47043
  20
1216.1453
  0
VERTEX
  5
35f
  8
Layer_0
  10
530.93826
  20
1216.815
  0
VERTEX
  5
360
  8
Layer_0
  10
527.3925
  20
1217.4459
  0
VERTEX
  5
361
  8
Layer_0
  10
523.8334
  20
1218.0378
  0
VERTEX
  5
362
  8
Layer_0
  10
520.26116
  20
1218.5904
  0
VERTEX
  5
363
  8
Layer_0
  10
516.67603
  20
1219.1035
  0
VERTEX
  5
364
  8
Layer_0
  10
513.07824
  20
1219.5768
  0
VERTEX
  5
365
  8
Layer_0
  10
509.468
  20
1220.0102
  0
VERTEX
  5
366
  8
Layer_0
  10
505.84556
  20
1220.4034
  0
VERTEX
  5
367
  8
Layer_0
  10
502.21113
  20
1220.7562
  0
VERTEX
  5
368
  8
Layer_0
  10
498.56495
  20
1221.0683
  0
VERTEX
  5
369
  8
Layer_0
  10
494.90725
  20
1221.3396
  0
VERTEX
  5
36a
  8
Layer_0
  10
491.23826
  20
1221.5697
  0
VERTEX
  5
36b
  8
Layer_0
  10
487.55819
  20
1221.7586
  0
VERTEX
  5
36c
  8
Layer_0
  10
483.8673
  20
1221.9058
  0
VERTEX
  5
36d
  8
Layer_0
  10
480.16579
  20
1222.0113
  0
VERTEX
  5
36e
  8
Layer_0
  10
476.45391
  20
1222.0747
  0
VERTEX
  5
36f
  8
Layer_0
  10
472.73187
  20
1222.0959
  0
VERTEX
  5
370
  8
Layer_0
  10
472.58875
  20
1222.0959
  0
SEQEND
  0
POLYLINE
  5
372
  8
Layer_0
  62
7
  66
1
  10
0
  20
0
  30
0
  0
VERTEX
  5
372
  8
Layer_0
  10
1031.7957
  20
984.58356
  0
VERTEX
  5
373
  8
Layer_0
  10
1017.0203
  20
981.33551
  0
VERTEX
  5
374
  8
Layer_0
  10
1017.0225
  20
981.33612
  0
VERTEX
  5
375
  8
Layer_0
  10
1017.0278
  20
981.27429
  0
VERTEX
  5
376
  8
Layer_0
  10
1017.0224
  20
981.33606
  0
SEQEND
  0
POLYLINE
  5
378
  8
Layer_0
  62
7
  66
1
  10
0
  20
0
  30
0
  0
VERTEX
  5
378
  8
Layer_0
  10
472.73187
  20
1222.0959
  0
VERTEX
  5
379
  8
Layer_0
  10
466.54373
  20
1222.096
  0
VERTEX
  5
37a
  8
Layer_0
  10
460.45231
  20
1222.096
  0
VERTEX
  5
37b
  8
Layer_0
  10
454.45685
  20
1222.096
  0
VERTEX
  5
37c
  8
Layer_0
  10
448.55659
  20
1222.096
  0
VERTEX
  5
37d
  8
Layer_0
  10
442.75077
  20
1222.096
  0
VERTEX
  5
37e
  8
Layer_0
  10
437.03863
  20
1222.096
  0
VERTEX
  5
37f
  8
Layer_0
  10
431.41941
  20
1222.096
  0
VERTEX
  5
380
  8
Layer_0
  10
425.89234
  20
1222.0961
  0
VERTEX
  5
381
  8
Layer_0
  10
420.45666
  20
1222.0961
  0
VERTEX
  5
382
  8
Layer_0
  10
415.11161
  20
1222.0961
  0
VERTEX
  5
383
  8
Layer_0
  10
409.85642
  20
1222.0961
  0
VERTEX
  5
384
  8
Layer_0
  10
404.69035
  20
1222.0961
  0
VERTEX
  5
385
  8
Layer_0
  10
399.61261
  20
1222.0961
  0
VERTEX
  5
386
  8
Layer_0
  10
394.62246
  20
1222.0961
  0
VERTEX
  5
387
  8
Layer_0
  10
389.71913
  20
1222.0961
  0
VERTEX
  5
388
  8
Layer_0
  10
384.90186
  20
1222.0961
  0
VERTEX
  5
389
  8
Layer_0
  10
380.16988
  20
1222.0961
  0
VERTEX
  5
38a
  8
Layer_0
  10
375.52244
  20
1222.0961
  0
VERTEX
  5
38b
  8
Layer_0
  10
370.95876
  20
1222.0962
  0
VERTEX
  5
38c
  8
Layer_0
  10
366.4781
  20
1222.0962
  0
VERTEX
  5
38d
  8
Layer_0
  10
362.07969
  20
1222.0962
  0
VERTEX
  5
38e
  8
Layer_0
  10
357.76277
  20
1222.0962
  0
VERTEX
  5
38f
  8
Layer_0
  10
353.52657
  20
1222.0962
  0
VERTEX
  5
390
  8
Layer_0
  10
349.37033
  20
1222.0962
  0
VERTEX
  5
391
  8
Layer_0
  10
345.2933
  20
1222.0962
  0
VERTEX
  5
392
  8
Layer_0
  10
341.2947
  20
1222.0962
  0
VERTEX
  5
393
  8
Layer_0
  10
337.37378
  20
1222.0962
  0
VERTEX
  5
394
  8
Layer_0
  10
333.52977
  20
1222.0962
  0
VERTEX
  5
395
  8
Layer_0
  10
329.76192
  20
1222.0962
  0
VERTEX
  5
396
  8
Layer_0
  10
326.06946
  20
1222.0962
  0
VERTEX
  5
397
  8
Layer_0
  10
322.45163
  20
1222.0962
  0
VERTEX
  5
398
  8
Layer_0
  10
318.90767
  20
1222.0962
  0
VERTEX
  5
399
  8
Layer_0
  10
315.43681
  20
1222.0962
  0
VERTEX
  5
39a
  8
Layer_0
  10
312.0383
  20
1222.0962
  0
VERTEX
  5
39b
  8
Layer_0
  10
308.71137
  20
1222.0962
  0
VERTEX
  5
39c
  8
Layer_0
  10
305.45526
  20
1222.0962
  0
VERTEX
  5
39d
  8
Layer_0
  10
302.2692
  20
1222.0962
  0
VERTEX
  5
39e
  8
Layer_0
  10
299.15245
  20
1222.0962
  0
VERTEX
  5
39f
  8
Layer_0
  10
296.10422
  20
1222.0962
  0
VERTEX
  5
3a0
  8
Layer_0
  10
293.12377
  20
1222.0962
  0
VERTEX
  5
3a1
  8
Layer_0
  10
290.21033
  20
1222.0962
  0
VERTEX
  5
3a2
  8
Layer_0
  10
287.36314
  20
1222.0962
  0
VERTEX
  5
3a3
  8
Layer_0
  10
284.58144
  20
1222.0962
  0
VERTEX
  5
3a4
  8
Layer_0
  10
281.86446
  20
1222.0962
  0
VERTEX
  5
3a5
  8
Layer_0
  10
279.21144
  20
1222.0962
  0
VERTEX
  5
3a6
  8
Layer_0
  10
276.62162
  20
1222.0962
  0
VERTEX
  5
3a7
  8
Layer_0
  10
274.09425
  20
1222.0962
  0
VERTEX
  5
3a8
  8
Layer_0
  10
271.62855
  20
1222.0962
  0
VERTEX
  5
3a9
  8
Layer_0
  10
269.22376
  20
1222.0962
  0
VERTEX
  5
3aa
  8
Layer_0
  10
266.87913
  20
1222.0962
  0
VERTEX
  5
3ab
  8
Layer_0
  10
264.59389
  20
1222.0962
  0
VERTEX
  5
3ac
  8
Layer_0
  10
262.36728
  20
1222.0962
  0
VERTEX
  5
3ad
  8
Layer_0
  10
260.19853
  20
1222.0962
  0
VERTEX
  5
3ae
  8
Layer_0
  10
258.0869
  20
1222.0962
  0
VERTEX
  5
3af
  8
Layer_0
  10
256.0316
  20
1222.0962
  0
VERTEX
  5
3b0
  8
Layer_0
  10
254.03189
  20
1222.0962
  0
VERTEX
  5
3b1
  8
Layer_0
  10
252.087
  20
1222.0962
  0
VERTEX
  5
3b2
  8
Layer_0
  10
250.19617
  20
1222.0962
  0
VERTEX
  5
3b3
  8
Layer_0
  10
248.35863
  20
1222.0962
  0
VERTEX
  5
3b4
  8
Layer_0
  10
246.57362
  20
1222.0962
  0
VERTEX
  5
3b5
  8
Layer_0
  10
244.84039
  20
1222.0962
  0
VERTEX
  5
3b6
  8
Layer_0
  10
243.15817
  20
1222.0962
  0
VERTEX
  5
3b7
  8
Layer_0
  10
241.5262
  20
1222.0962
  0
VERTEX
  5
3b8
  8
Layer_0
  10
239.94371
  20
1222.0962
  0
VERTEX
  5
3b9
  8
Layer_0
  10
238.40995
  20
1222.0962
  0
VERTEX
  5
3ba
  8
Layer_0
  10
236.92416
  20
1222.0962
  0
VERTEX
  5
3bb
  8
Layer_0
  10
235.48556
  20
1222.0962
  0
VERTEX
  5
3bc
  8
Layer_0
  10
234.0934
  20
1222.0962
  0
VERTEX
  5
3bd
  8
Layer_0
  10
232.74692
  20
1222.0962
  0
VERTEX
  5
3be
  8
Layer_0
  10
231.44535
  20
1222.0962
  0
VERTEX
  5
3bf
  8
Layer_0
  10
230.18794
  20
1222.0962
  0
VERTEX
  5
3c0
  8
Layer_0
  10
228.97392
  20
1222.0962
  0
VERTEX
  5
3c1
  8
Layer_0
  10
227.80253
  20
1222.0961
  0
VERTEX
  5
3c2
  8
Layer_0
  10
226.673
  20
1222.0961
  0
VERTEX
  5
3c3
  8
Layer_0
  10
225.58458
  20
1222.0961
  0
VERTEX
  5
3c4
  8
Layer_0
  10
224.53651
  20
1222.0961
  0
VERTEX
  5
3c5
  8
Layer_0
  10
223.52801
  20
1222.0961
  0
VERTEX
  5
3c6
  8
Layer_0
  10
222.55834
  20
1222.0961
  0
VERTEX
  5
3c7
  8
Layer_0
  10
221.62673
  20
1222.0961
  0
VERTEX
  5
3c8
  8
Layer_0
  10
220.73241
  20
1222.0961
  0
VERTEX
  5
3c9
  8
Layer_0
  10
219.87462
  20
1222.0961
  0
VERTEX
  5
3ca
  8
Layer_0
  10
219.05261
  20
1222.0961
  0
VERTEX
  5
3cb
  8
Layer_0
  10
218.26561
  20
1222.0961
  0
VERTEX
  5
3cc
  8
Layer_0
  10
217.51285
  20
1222.0961
  0
VERTEX
  5
3cd
  8
Layer_0
  10
216.79359
  20
1222.0961
  0
VERTEX
  5
3ce
  8
Layer_0
  10
216.10704
  20
1222.0961
  0
VERTEX
  5
3cf
  8
Layer_0
  10
215.45246
  20
1222.0961
  0
VERTEX
  5
3d0
  8
Layer_0
  10
214.82908
  20
1222.0961
  0
VERTEX
  5
3d1
  8
Layer_0
  10
214.23614
  20
1222.0961
  0
VERTEX
  5
3d2
  8
Layer_0
  10
213.67288
  20
1222.0961
  0
VERTEX
  5
3d3
  8
Layer_0
  10
213.13853
  20
1222.0961
  0
VERTEX
  5
3d4
  8
Layer_0
  10
212.63234
  20
1222.0961
  0
VERTEX
  5
3d5
  8
Layer_0
  10
212.15353
  20
1222.0961
  0
VERTEX
  5
3d6
  8
Layer_0
  10
211.70136
  20
1222.096
  0
VERTEX
  5
3d7
  8
Layer_0
  10
211.27505
  20
1222.096
  0
VERTEX
  5
3d8
  8
Layer_0
  10
210.87385
  20
1222.096
  0
VERTEX
  5
3d9
  8
Layer_0
  10
210.14372
  20
1222.096
  0
VERTEX
  5
3da
  8
Layer_0
  10
209.50487
  20
1222.096
  0
VERTEX
  5
3db
  8
Layer_0
  10
208.9512
  20
1222.096
  0
VERTEX
  5
3dc
  8
Layer_0
  10
208.47662
  20
1222.096
  0
VERTEX
  5
3dd
  8
Layer_0
  10
208.07503
  20
1222.096
  0
VERTEX
  5
3de
  8
Layer_0
  10
207.74035
  20
1222.096
  0
VERTEX
  5
3df
  8
Layer_0
  10
207.46646
  20
1222.096
  0
VERTEX
  5
3e0
  8
Layer_0
  10
207.24729
  20
1222.096
  0
VERTEX
  5
3e1
  8
Layer_0
  10
207.07672
  20
1222.096
  0
VERTEX
  5
3e2
  8
Layer_0
  10
206.94868
  20
1222.096
  0
VERTEX
  5
3e3
  8
Layer_0
  10
206.85705
  20
1222.096
  0
VERTEX
  5
3e4
  8
Layer_0
  10
206.79576
  20
1222.096
  0
VERTEX
  5
3e5
  8
Layer_0
  10
206.73976
  20
1222.0959
  0
VERTEX
  5
3e6
  8
Layer_0
  10
206.73193
  20
1222.0959
  0
VERTEX
  5
3e7
  8
Layer_0
  10
206.73193
  20
1450.5959
  0
VERTEX
  5
3e8
  8
Layer_0
  10
206.73193
  20
1450.5959
  42
0.41421356
  0
VERTEX
  5
3e9
  8
Layer_0
  10
208.23193
  20
1452.0959
  42
0.41421356
  0
VERTEX
  5
3ea
  8
Layer_0
  10
206.73193
  20
1453.5959
  0
VERTEX
  5
3eb
  8
Layer_0
  10
206.74948
  20
1453.5958
  0
VERTEX
  5
3ec
  8
Layer_0
  10
206.73193
  20
1453.5959
  0
VERTEX
  5
3ed
  8
Layer_0
  10
206.73193
  20
1467.0959
  0
VERTEX
  5
3ee
  8
Layer_0
  10
472.73193
  20
1467.0959
  0
SEQEND
  0
POLYLINE
  5
3f0
  8
Layer_0
  62
7
  66
1
  10
0
  20
0
  30
0
  0
VERTEX
  5
3f0
  8
Layer_0
  10
476.8136
  20
1452.0811
  42
-6.6093653e-06
  0
VERTEX
  5
3f1
  8
Layer_0
  10
476.7128
  20
1452.0818
  0
VERTEX
  5
3f2
  8
Layer_0
  10
475.73193
  20
1467.0959
  0
VERTEX
  5
3f3
  8
Layer_0
  10
469.73193
  20
1467.0959
  0
VERTEX
  5
3f4
  8
Layer_0
  10
469.65474
  20
1465.917
  0
VERTEX
  5
3f5
  8
Layer_0
  10
469.58171
  20
1464.8015
  0
VERTEX
  5
3f6
  8
Layer_0
  10
469.51273
  20
1463.7477
  0
VERTEX
  5
3f7
  8
Layer_0
  10
469.44768
  20
1462.7538
  0
VERTEX
  5
3f8
  8
Layer_0
  10
469.38645
  20
1461.8182
  0
VERTEX
  5
3f9
  8
Layer_0
  10
469.32892
  20
1460.9389
  0
VERTEX
  5
3fa
  8
Layer_0
  10
469.27498
  20
1460.1144
  0
VERTEX
  5
3fb
  8
Layer_0
  10
469.2245
  20
1459.3427
  0
VERTEX
  5
3fc
  8
Layer_0
  10
469.17738
  20
1458.6222
  0
VERTEX
  5
3fd
  8
Layer_0
  10
469.1335
  20
1457.9512
  0
VERTEX
  5
3fe
  8
Layer_0
  10
469.09273
  20
1457.3277
  0
VERTEX
  5
3ff
  8
Layer_0
  10
469.05497
  20
1456.7502
  0
VERTEX
  5
400
  8
Layer_0
  10
469.0201
  20
1456.2169
  0
VERTEX
  5
401
  8
Layer_0
  10
468.98801
  20
1455.7259
  0
VERTEX
  5
402
  8
Layer_0
  10
468.95857
  20
1455.2755
  0
VERTEX
  5
403
  8
Layer_0
  10
468.93167
  20
1454.8641
  0
VERTEX
  5
404
  8
Layer_0
  10
468.9072
  20
1454.4897
  0
VERTEX
  5
405
  8
Layer_0
  10
468.88503
  20
1454.1508
  0
VERTEX
  5
406
  8
Layer_0
  10
468.86506
  20
1453.8454
  0
VERTEX
  5
407
  8
Layer_0
  10
468.84717
  20
1453.5719
  0
VERTEX
  5
408
  8
Layer_0
  10
468.83124
  20
1453.3285
  0
VERTEX
  5
409
  8
Layer_0
  10
468.81715
  20
1453.1135
  0
VERTEX
  5
40a
  8
Layer_0
  10
468.80479
  20
1452.925
  0
VERTEX
  5
40b
  8
Layer_0
  10
468.79405
  20
1452.7614
  0
VERTEX
  5
40c
  8
Layer_0
  10
468.77694
  20
1452.5017
  0
VERTEX
  5
40d
  8
Layer_0
  10
468.76489
  20
1452.3203
  0
VERTEX
  5
40e
  8
Layer_0
  10
468.75697
  20
1452.2031
  0
VERTEX
  5
40f
  8
Layer_0
  10
468.75226
  20
1452.1361
  0
SEQEND
  0
ENDSEC
  0
EOF
