  0
SECTION
  2
HEADER
  9
$ACADVER
  1
AC1009
  0
ENDSEC
  0
SECTION
  2
TABLES
  0
TABLE
  2
LAYER
  70
2
  0
LAYER
  2
Layer_0
  70
0
  62
7
  6
CONTINUOUS
  0
LAYER
  2
Layer_11
  70
0
  62
92
  6
CONTINUOUS
  0
ENDTAB
  0
ENDSEC
  0
SECTION
  2
ENTITIES
  0
POLYLINE
  5
90
  8
Layer_0
  62
7
  70
1
  66
1
  10
0
  20
0
  30
0
  0
VERTEX
  5
90
  8
Layer_0
  10
-2131.0322
  20
2785.1138
  0
VERTEX
  5
91
  8
Layer_0
  10
-1137.5356
  20
2785.1138
  0
VERTEX
  5
92
  8
Layer_0
  10
-1137.5356
  20
4087.1138
  0
VERTEX
  5
93
  8
Layer_0
  10
-2131.0322
  20
4087.1138
  0
SEQEND
  0
POLYLINE
  5
95
  8
Layer_11
  62
92
  66
1
  10
0
  20
0
  30
0
  0
VERTEX
  5
95
  8
Layer_11
  10
-1164.5356
  20
4153.1597
  0
VERTEX
  5
96
  8
Layer_11
  10
-1164.5356
  20
4150.1807
  0
SEQEND
  0
POLYLINE
  5
98
  8
Layer_11
  62
92
  66
1
  10
0
  20
0
  30
0
  0
VERTEX
  5
98
  8
Layer_11
  10
-1164.5356
  20
4149.2007
  0
VERTEX
  5
99
  8
Layer_11
  10
-1164.5356
  20
4148.2207
  0
SEQEND
  0
POLYLINE
  5
9b
  8
Layer_11
  62
92
  66
1
  10
0
  20
0
  30
0
  0
VERTEX
  5
9b
  8
Layer_11
  10
-1164.5356
  20
4147.2407
  0
VERTEX
  5
9c
  8
Layer_11
  10
-1164.5356
  20
4144.2617
  0
SEQEND
  0
POLYLINE
  5
9e
  8
Layer_11
  62
92
  66
1
  10
0
  20
0
  30
0
  0
VERTEX
  5
9e
  8
Layer_11
  10
-1164.5356
  20
4143.2822
  0
VERTEX
  5
9f
  8
Layer_11
  10
-1164.5356
  20
4142.3022
  0
SEQEND
  0
POLYLINE
  5
a1
  8
Layer_11
  62
92
  66
1
  10
0
  20
0
  30
0
  0
VERTEX
  5
a1
  8
Layer_11
  10
-1164.5356
  20
4141.3223
  0
VERTEX
  5
a2
  8
Layer_11
  10
-1164.5356
  20
4138.3433
  0
SEQEND
  0
POLYLINE
  5
a4
  8
Layer_11
  62
92
  66
1
  10
0
  20
0
  30
0
  0
VERTEX
  5
a4
  8
Layer_11
  10
-1164.5356
  20
4137.3633
  0
VERTEX
  5
a5
  8
Layer_11
  10
-1164.5356
  20
4136.3833
  0
SEQEND
  0
POLYLINE
  5
a7
  8
Layer_11
  62
92
  66
1
  10
0
  20
0
  30
0
  0
VERTEX
  5
a7
  8
Layer_11
  10
-1164.5356
  20
4135.4033
  0
VERTEX
  5
a8
  8
Layer_11
  10
-1164.5356
  20
4132.4243
  0
SEQEND
  0
POLYLINE
  5
aa
  8
Layer_11
  62
92
  66
1
  10
0
  20
0
  30
0
  0
VERTEX
  5
aa
  8
Layer_11
  10
-1164.5356
  20
4131.4443
  0
VERTEX
  5
ab
  8
Layer_11
  10
-1164.5356
  20
4130.4648
  0
SEQEND
  0
POLYLINE
  5
ad
  8
Layer_11
  62
92
  66
1
  10
0
  20
0
  30
0
  0
VERTEX
  5
ad
  8
Layer_11
  10
-1164.5356
  20
4129.4849
  0
VERTEX
  5
ae
  8
Layer_11
  10
-1164.5356
  20
4126.5059
  0
SEQEND
  0
POLYLINE
  5
b0
  8
Layer_11
  62
92
  66
1
  10
0
  20
0
  30
0
  0
VERTEX
  5
b0
  8
Layer_11
  10
-1164.5356
  20
4125.5259
  0
VERTEX
  5
b1
  8
Layer_11
  10
-1164.5356
  20
4124.5459
  0
SEQEND
  0
POLYLINE
  5
b3
  8
Layer_11
  62
92
  66
1
  10
0
  20
0
  30
0
  0
VERTEX
  5
b3
  8
Layer_11
  10
-1164.5356
  20
4123.5659
  0
VERTEX
  5
b4
  8
Layer_11
  10
-1164.5356
  20
4120.5869
  0
SEQEND
  0
POLYLINE
  5
b6
  8
Layer_11
  62
92
  66
1
  10
0
  20
0
  30
0
  0
VERTEX
  5
b6
  8
Layer_11
  10
-1164.5356
  20
4119.6074
  0
VERTEX
  5
b7
  8
Layer_11
  10
-1164.5356
  20
4118.6274
  0
SEQEND
  0
POLYLINE
  5
b9
  8
Layer_11
  62
92
  66
1
  10
0
  20
0
  30
0
  0
VERTEX
  5
b9
  8
Layer_11
  10
-1164.5356
  20
4117.6475
  0
VERTEX
  5
ba
  8
Layer_11
  10
-1164.5356
  20
4114.6685
  0
SEQEND
  0
POLYLINE
  5
bc
  8
Layer_11
  62
92
  66
1
  10
0
  20
0
  30
0
  0
VERTEX
  5
bc
  8
Layer_11
  10
-1164.5356
  20
4113.6885
  0
VERTEX
  5
bd
  8
Layer_11
  10
-1164.5356
  20
4112.7085
  0
SEQEND
  0
POLYLINE
  5
bf
  8
Layer_11
  62
92
  66
1
  10
0
  20
0
  30
0
  0
VERTEX
  5
bf
  8
Layer_11
  10
-1164.5356
  20
4111.7285
  0
VERTEX
  5
c0
  8
Layer_11
  10
-1164.5356
  20
4108.7495
  0
SEQEND
  0
POLYLINE
  5
c2
  8
Layer_11
  62
92
  66
1
  10
0
  20
0
  30
0
  0
VERTEX
  5
c2
  8
Layer_11
  10
-1164.5356
  20
4107.7695
  0
VERTEX
  5
c3
  8
Layer_11
  10
-1164.5356
  20
4106.79
  0
SEQEND
  0
POLYLINE
  5
c5
  8
Layer_11
  62
92
  66
1
  10
0
  20
0
  30
0
  0
VERTEX
  5
c5
  8
Layer_11
  10
-1164.5356
  20
4105.8101
  0
VERTEX
  5
c6
  8
Layer_11
  10
-1164.5356
  20
4102.8311
  0
SEQEND
  0
POLYLINE
  5
c8
  8
Layer_11
  62
92
  66
1
  10
0
  20
0
  30
0
  0
VERTEX
  5
c8
  8
Layer_11
  10
-1164.5356
  20
4101.8511
  0
VERTEX
  5
c9
  8
Layer_11
  10
-1164.5356
  20
4100.8711
  0
SEQEND
  0
POLYLINE
  5
cb
  8
Layer_11
  62
92
  66
1
  10
0
  20
0
  30
0
  0
VERTEX
  5
cb
  8
Layer_11
  10
-1164.5356
  20
4099.8911
  0
VERTEX
  5
cc
  8
Layer_11
  10
-1164.5356
  20
4096.9121
  0
SEQEND
  0
POLYLINE
  5
ce
  8
Layer_11
  62
92
  66
1
  10
0
  20
0
  30
0
  0
VERTEX
  5
ce
  8
Layer_11
  10
-1164.5356
  20
4095.9324
  0
VERTEX
  5
cf
  8
Layer_11
  10
-1164.5356
  20
4094.9526
  0
SEQEND
  0
POLYLINE
  5
d1
  8
Layer_11
  62
92
  66
1
  10
0
  20
0
  30
0
  0
VERTEX
  5
d1
  8
Layer_11
  10
-1164.5356
  20
4093.9727
  0
VERTEX
  5
d2
  8
Layer_11
  10
-1164.5356
  20
4090.9937
  0
SEQEND
  0
POLYLINE
  5
d4
  8
Layer_11
  62
92
  66
1
  10
0
  20
0
  30
0
  0
VERTEX
  5
d4
  8
Layer_11
  10
-1164.5356
  20
4090.0137
  0
VERTEX
  5
d5
  8
Layer_11
  10
-1164.5356
  20
4089.0337
  0
SEQEND
  0
POLYLINE
  5
d7
  8
Layer_11
  62
92
  66
1
  10
0
  20
0
  30
0
  0
VERTEX
  5
d7
  8
Layer_11
  10
-1164.5356
  20
4088.0537
  0
VERTEX
  5
d8
  8
Layer_11
  10
-1164.5356
  20
4085.075
  0
SEQEND
  0
POLYLINE
  5
da
  8
Layer_11
  62
92
  66
1
  10
0
  20
0
  30
0
  0
VERTEX
  5
da
  8
Layer_11
  10
-1164.5356
  20
4084.095
  0
VERTEX
  5
db
  8
Layer_11
  10
-1164.5356
  20
4083.1152
  0
SEQEND
  0
POLYLINE
  5
dd
  8
Layer_11
  62
92
  66
1
  10
0
  20
0
  30
0
  0
VERTEX
  5
dd
  8
Layer_11
  10
-1164.5356
  20
4082.1353
  0
VERTEX
  5
de
  8
Layer_11
  10
-1164.5356
  20
4079.1563
  0
SEQEND
  0
POLYLINE
  5
e0
  8
Layer_11
  62
92
  66
1
  10
0
  20
0
  30
0
  0
VERTEX
  5
e0
  8
Layer_11
  10
-1164.5356
  20
4078.1763
  0
VERTEX
  5
e1
  8
Layer_11
  10
-1164.5356
  20
4077.1963
  0
SEQEND
  0
POLYLINE
  5
e3
  8
Layer_11
  62
92
  66
1
  10
0
  20
0
  30
0
  0
VERTEX
  5
e3
  8
Layer_11
  10
-1164.5356
  20
4076.2166
  0
VERTEX
  5
e4
  8
Layer_11
  10
-1164.5356
  20
4073.2375
  0
SEQEND
  0
POLYLINE
  5
e6
  8
Layer_11
  62
92
  66
1
  10
0
  20
0
  30
0
  0
VERTEX
  5
e6
  8
Layer_11
  10
-1164.5356
  20
4072.2576
  0
VERTEX
  5
e7
  8
Layer_11
  10
-1164.5356
  20
4071.2778
  0
SEQEND
  0
POLYLINE
  5
e9
  8
Layer_11
  62
92
  66
1
  10
0
  20
0
  30
0
  0
VERTEX
  5
e9
  8
Layer_11
  10
-1164.5356
  20
4070.2979
  0
VERTEX
  5
ea
  8
Layer_11
  10
-1164.5356
  20
4067.3188
  0
SEQEND
  0
POLYLINE
  5
ec
  8
Layer_11
  62
92
  66
1
  10
0
  20
0
  30
0
  0
VERTEX
  5
ec
  8
Layer_11
  10
-1164.5356
  20
4066.3389
  0
VERTEX
  5
ed
  8
Layer_11
  10
-1164.5356
  20
4065.3589
  0
SEQEND
  0
POLYLINE
  5
ef
  8
Layer_11
  62
92
  66
1
  10
0
  20
0
  30
0
  0
VERTEX
  5
ef
  8
Layer_11
  10
-1164.5356
  20
4064.3792
  0
VERTEX
  5
f0
  8
Layer_11
  10
-1164.5356
  20
4061.4001
  0
SEQEND
  0
POLYLINE
  5
f2
  8
Layer_11
  62
92
  66
1
  10
0
  20
0
  30
0
  0
VERTEX
  5
f2
  8
Layer_11
  10
-1164.5356
  20
4060.4202
  0
VERTEX
  5
f3
  8
Layer_11
  10
-1164.5356
  20
4059.4404
  0
SEQEND
  0
POLYLINE
  5
f5
  8
Layer_11
  62
92
  66
1
  10
0
  20
0
  30
0
  0
VERTEX
  5
f5
  8
Layer_11
  10
-1164.5356
  20
4058.4604
  0
VERTEX
  5
f6
  8
Layer_11
  10
-1164.5356
  20
4055.4814
  0
SEQEND
  0
POLYLINE
  5
f8
  8
Layer_11
  62
92
  66
1
  10
0
  20
0
  30
0
  0
VERTEX
  5
f8
  8
Layer_11
  10
-1164.5356
  20
4054.5015
  0
VERTEX
  5
f9
  8
Layer_11
  10
-1164.5356
  20
4053.5215
  0
SEQEND
  0
POLYLINE
  5
fb
  8
Layer_11
  62
92
  66
1
  10
0
  20
0
  30
0
  0
VERTEX
  5
fb
  8
Layer_11
  10
-1164.5356
  20
4052.5417
  0
VERTEX
  5
fc
  8
Layer_11
  10
-1164.5356
  20
4049.5627
  0
SEQEND
  0
POLYLINE
  5
fe
  8
Layer_11
  62
92
  66
1
  10
0
  20
0
  30
0
  0
VERTEX
  5
fe
  8
Layer_11
  10
-1164.5356
  20
4048.5828
  0
VERTEX
  5
ff
  8
Layer_11
  10
-1164.5356
  20
4047.603
  0
SEQEND
  0
POLYLINE
  5
101
  8
Layer_11
  62
92
  66
1
  10
0
  20
0
  30
0
  0
VERTEX
  5
101
  8
Layer_11
  10
-1164.5356
  20
4046.623
  0
VERTEX
  5
102
  8
Layer_11
  10
-1164.5356
  20
4043.644
  0
SEQEND
  0
POLYLINE
  5
104
  8
Layer_11
  62
92
  66
1
  10
0
  20
0
  30
0
  0
VERTEX
  5
104
  8
Layer_11
  10
-1164.5356
  20
4042.6641
  0
VERTEX
  5
105
  8
Layer_11
  10
-1164.5356
  20
4041.6841
  0
SEQEND
  0
POLYLINE
  5
107
  8
Layer_11
  62
92
  66
1
  10
0
  20
0
  30
0
  0
VERTEX
  5
107
  8
Layer_11
  10
-1164.5356
  20
4040.7043
  0
VERTEX
  5
108
  8
Layer_11
  10
-1164.5356
  20
4037.7253
  0
SEQEND
  0
POLYLINE
  5
10a
  8
Layer_11
  62
92
  66
1
  10
0
  20
0
  30
0
  0
VERTEX
  5
10a
  8
Layer_11
  10
-1164.5356
  20
4036.7454
  0
VERTEX
  5
10b
  8
Layer_11
  10
-1164.5356
  20
4035.7656
  0
SEQEND
  0
POLYLINE
  5
10d
  8
Layer_11
  62
92
  66
1
  10
0
  20
0
  30
0
  0
VERTEX
  5
10d
  8
Layer_11
  10
-1164.5356
  20
4034.7856
  0
VERTEX
  5
10e
  8
Layer_11
  10
-1164.5356
  20
4031.8066
  0
SEQEND
  0
POLYLINE
  5
110
  8
Layer_11
  62
92
  66
1
  10
0
  20
0
  30
0
  0
VERTEX
  5
110
  8
Layer_11
  10
-1164.5356
  20
4030.8267
  0
VERTEX
  5
111
  8
Layer_11
  10
-1164.5356
  20
4029.8467
  0
SEQEND
  0
POLYLINE
  5
113
  8
Layer_11
  62
92
  66
1
  10
0
  20
0
  30
0
  0
VERTEX
  5
113
  8
Layer_11
  10
-1164.5356
  20
4028.8669
  0
VERTEX
  5
114
  8
Layer_11
  10
-1164.5356
  20
4025.8879
  0
SEQEND
  0
POLYLINE
  5
116
  8
Layer_11
  62
92
  66
1
  10
0
  20
0
  30
0
  0
VERTEX
  5
116
  8
Layer_11
  10
-1164.5356
  20
4024.908
  0
VERTEX
  5
117
  8
Layer_11
  10
-1164.5356
  20
4023.9282
  0
SEQEND
  0
POLYLINE
  5
119
  8
Layer_11
  62
92
  66
1
  10
0
  20
0
  30
0
  0
VERTEX
  5
119
  8
Layer_11
  10
-1164.5356
  20
4022.9482
  0
VERTEX
  5
11a
  8
Layer_11
  10
-1164.5356
  20
4019.9692
  0
SEQEND
  0
POLYLINE
  5
11c
  8
Layer_11
  62
92
  66
1
  10
0
  20
0
  30
0
  0
VERTEX
  5
11c
  8
Layer_11
  10
-1164.5356
  20
4018.9893
  0
VERTEX
  5
11d
  8
Layer_11
  10
-1164.5356
  20
4018.0093
  0
SEQEND
  0
POLYLINE
  5
11f
  8
Layer_11
  62
92
  66
1
  10
0
  20
0
  30
0
  0
VERTEX
  5
11f
  8
Layer_11
  10
-1164.5356
  20
4017.0295
  0
VERTEX
  5
120
  8
Layer_11
  10
-1164.5356
  20
4014.0505
  0
SEQEND
  0
POLYLINE
  5
122
  8
Layer_11
  62
92
  66
1
  10
0
  20
0
  30
0
  0
VERTEX
  5
122
  8
Layer_11
  10
-1164.5356
  20
4013.0706
  0
VERTEX
  5
123
  8
Layer_11
  10
-1164.5356
  20
4012.0908
  0
SEQEND
  0
POLYLINE
  5
125
  8
Layer_11
  62
92
  66
1
  10
0
  20
0
  30
0
  0
VERTEX
  5
125
  8
Layer_11
  10
-1164.5356
  20
4011.1108
  0
VERTEX
  5
126
  8
Layer_11
  10
-1164.5356
  20
4008.1318
  0
SEQEND
  0
POLYLINE
  5
128
  8
Layer_11
  62
92
  66
1
  10
0
  20
0
  30
0
  0
VERTEX
  5
128
  8
Layer_11
  10
-1164.5356
  20
4007.1519
  0
VERTEX
  5
129
  8
Layer_11
  10
-1164.5356
  20
4006.1719
  0
SEQEND
  0
POLYLINE
  5
12b
  8
Layer_11
  62
92
  66
1
  10
0
  20
0
  30
0
  0
VERTEX
  5
12b
  8
Layer_11
  10
-1164.5356
  20
4005.1921
  0
VERTEX
  5
12c
  8
Layer_11
  10
-1164.5356
  20
4002.2131
  0
SEQEND
  0
POLYLINE
  5
12e
  8
Layer_11
  62
92
  66
1
  10
0
  20
0
  30
0
  0
VERTEX
  5
12e
  8
Layer_11
  10
-1164.5356
  20
4001.2332
  0
VERTEX
  5
12f
  8
Layer_11
  10
-1164.5356
  20
4000.2534
  0
SEQEND
  0
POLYLINE
  5
131
  8
Layer_11
  62
92
  66
1
  10
0
  20
0
  30
0
  0
VERTEX
  5
131
  8
Layer_11
  10
-1164.5356
  20
3999.2734
  0
VERTEX
  5
132
  8
Layer_11
  10
-1164.5356
  20
3996.2944
  0
SEQEND
  0
POLYLINE
  5
134
  8
Layer_11
  62
92
  66
1
  10
0
  20
0
  30
0
  0
VERTEX
  5
134
  8
Layer_11
  10
-1164.5356
  20
3995.3145
  0
VERTEX
  5
135
  8
Layer_11
  10
-1164.5356
  20
3994.3345
  0
SEQEND
  0
POLYLINE
  5
137
  8
Layer_11
  62
92
  66
1
  10
0
  20
0
  30
0
  0
VERTEX
  5
137
  8
Layer_11
  10
-1164.5356
  20
3993.3547
  0
VERTEX
  5
138
  8
Layer_11
  10
-1164.5356
  20
3990.3757
  0
SEQEND
  0
POLYLINE
  5
13a
  8
Layer_11
  62
92
  66
1
  10
0
  20
0
  30
0
  0
VERTEX
  5
13a
  8
Layer_11
  10
-1164.5356
  20
3989.3958
  0
VERTEX
  5
13b
  8
Layer_11
  10
-1164.5356
  20
3988.416
  0
SEQEND
  0
POLYLINE
  5
13d
  8
Layer_11
  62
92
  66
1
  10
0
  20
0
  30
0
  0
VERTEX
  5
13d
  8
Layer_11
  10
-1164.5356
  20
3987.436
  0
VERTEX
  5
13e
  8
Layer_11
  10
-1164.5356
  20
3984.457
  0
SEQEND
  0
POLYLINE
  5
140
  8
Layer_11
  62
92
  66
1
  10
0
  20
0
  30
0
  0
VERTEX
  5
140
  8
Layer_11
  10
-1164.5356
  20
3983.4771
  0
VERTEX
  5
141
  8
Layer_11
  10
-1164.5356
  20
3982.4971
  0
SEQEND
  0
POLYLINE
  5
143
  8
Layer_11
  62
92
  66
1
  10
0
  20
0
  30
0
  0
VERTEX
  5
143
  8
Layer_11
  10
-1164.5356
  20
3981.5173
  0
VERTEX
  5
144
  8
Layer_11
  10
-1164.5356
  20
3978.5383
  0
SEQEND
  0
POLYLINE
  5
146
  8
Layer_11
  62
92
  66
1
  10
0
  20
0
  30
0
  0
VERTEX
  5
146
  8
Layer_11
  10
-1164.5356
  20
3977.5583
  0
VERTEX
  5
147
  8
Layer_11
  10
-1164.5356
  20
3976.5786
  0
SEQEND
  0
POLYLINE
  5
149
  8
Layer_11
  62
92
  66
1
  10
0
  20
0
  30
0
  0
VERTEX
  5
149
  8
Layer_11
  10
-1164.5356
  20
3975.5986
  0
VERTEX
  5
14a
  8
Layer_11
  10
-1164.5356
  20
3972.6196
  0
SEQEND
  0
POLYLINE
  5
14c
  8
Layer_11
  62
92
  66
1
  10
0
  20
0
  30
0
  0
VERTEX
  5
14c
  8
Layer_11
  10
-1164.5356
  20
3971.6396
  0
VERTEX
  5
14d
  8
Layer_11
  10
-1164.5356
  20
3970.6597
  0
SEQEND
  0
POLYLINE
  5
14f
  8
Layer_11
  62
92
  66
1
  10
0
  20
0
  30
0
  0
VERTEX
  5
14f
  8
Layer_11
  10
-1164.5356
  20
3969.6799
  0
VERTEX
  5
150
  8
Layer_11
  10
-1164.5356
  20
3966.7009
  0
SEQEND
  0
POLYLINE
  5
152
  8
Layer_11
  62
92
  66
1
  10
0
  20
0
  30
0
  0
VERTEX
  5
152
  8
Layer_11
  10
-1164.5356
  20
3965.7209
  0
VERTEX
  5
153
  8
Layer_11
  10
-1164.5356
  20
3964.7412
  0
SEQEND
  0
POLYLINE
  5
155
  8
Layer_11
  62
92
  66
1
  10
0
  20
0
  30
0
  0
VERTEX
  5
155
  8
Layer_11
  10
-1164.5356
  20
3963.7612
  0
VERTEX
  5
156
  8
Layer_11
  10
-1164.5356
  20
3960.7822
  0
SEQEND
  0
POLYLINE
  5
158
  8
Layer_11
  62
92
  66
1
  10
0
  20
0
  30
0
  0
VERTEX
  5
158
  8
Layer_11
  10
-1164.5356
  20
3959.8022
  0
VERTEX
  5
159
  8
Layer_11
  10
-1164.5356
  20
3958.8223
  0
SEQEND
  0
POLYLINE
  5
15b
  8
Layer_11
  62
92
  66
1
  10
0
  20
0
  30
0
  0
VERTEX
  5
15b
  8
Layer_11
  10
-1164.5356
  20
3957.8425
  0
VERTEX
  5
15c
  8
Layer_11
  10
-1164.5356
  20
3954.8635
  0
SEQEND
  0
POLYLINE
  5
15e
  8
Layer_11
  62
92
  66
1
  10
0
  20
0
  30
0
  0
VERTEX
  5
15e
  8
Layer_11
  10
-1164.5356
  20
3953.8835
  0
VERTEX
  5
15f
  8
Layer_11
  10
-1164.5356
  20
3952.9038
  0
SEQEND
  0
POLYLINE
  5
161
  8
Layer_11
  62
92
  66
1
  10
0
  20
0
  30
0
  0
VERTEX
  5
161
  8
Layer_11
  10
-1164.5356
  20
3951.9238
  0
VERTEX
  5
162
  8
Layer_11
  10
-1164.5356
  20
3948.9448
  0
SEQEND
  0
POLYLINE
  5
164
  8
Layer_11
  62
92
  66
1
  10
0
  20
0
  30
0
  0
VERTEX
  5
164
  8
Layer_11
  10
-1164.5356
  20
3947.9648
  0
VERTEX
  5
165
  8
Layer_11
  10
-1164.5356
  20
3946.9849
  0
SEQEND
  0
POLYLINE
  5
167
  8
Layer_11
  62
92
  66
1
  10
0
  20
0
  30
0
  0
VERTEX
  5
167
  8
Layer_11
  10
-1164.5356
  20
3946.0051
  0
VERTEX
  5
168
  8
Layer_11
  10
-1164.5356
  20
3943.0261
  0
SEQEND
  0
POLYLINE
  5
16a
  8
Layer_11
  62
92
  66
1
  10
0
  20
0
  30
0
  0
VERTEX
  5
16a
  8
Layer_11
  10
-1164.5356
  20
3942.0461
  0
VERTEX
  5
16b
  8
Layer_11
  10
-1164.5356
  20
3941.0664
  0
SEQEND
  0
POLYLINE
  5
16d
  8
Layer_11
  62
92
  66
1
  10
0
  20
0
  30
0
  0
VERTEX
  5
16d
  8
Layer_11
  10
-1164.5356
  20
3940.0864
  0
VERTEX
  5
16e
  8
Layer_11
  10
-1164.5356
  20
3937.1074
  0
SEQEND
  0
POLYLINE
  5
170
  8
Layer_11
  62
92
  66
1
  10
0
  20
0
  30
0
  0
VERTEX
  5
170
  8
Layer_11
  10
-1164.5356
  20
3936.1274
  0
VERTEX
  5
171
  8
Layer_11
  10
-1164.5356
  20
3935.1475
  0
SEQEND
  0
POLYLINE
  5
173
  8
Layer_11
  62
92
  66
1
  10
0
  20
0
  30
0
  0
VERTEX
  5
173
  8
Layer_11
  10
-1164.5356
  20
3934.1677
  0
VERTEX
  5
174
  8
Layer_11
  10
-1164.5356
  20
3931.1887
  0
SEQEND
  0
POLYLINE
  5
176
  8
Layer_11
  62
92
  66
1
  10
0
  20
0
  30
0
  0
VERTEX
  5
176
  8
Layer_11
  10
-1164.5356
  20
3930.2087
  0
VERTEX
  5
177
  8
Layer_11
  10
-1164.5356
  20
3929.229
  0
SEQEND
  0
POLYLINE
  5
179
  8
Layer_11
  62
92
  66
1
  10
0
  20
0
  30
0
  0
VERTEX
  5
179
  8
Layer_11
  10
-1164.5356
  20
3928.249
  0
VERTEX
  5
17a
  8
Layer_11
  10
-1164.5356
  20
3925.27
  0
SEQEND
  0
POLYLINE
  5
17c
  8
Layer_11
  62
92
  66
1
  10
0
  20
0
  30
0
  0
VERTEX
  5
17c
  8
Layer_11
  10
-1164.5356
  20
3924.29
  0
VERTEX
  5
17d
  8
Layer_11
  10
-1164.5356
  20
3923.3101
  0
SEQEND
  0
POLYLINE
  5
17f
  8
Layer_11
  62
92
  66
1
  10
0
  20
0
  30
0
  0
VERTEX
  5
17f
  8
Layer_11
  10
-1164.5356
  20
3922.3303
  0
VERTEX
  5
180
  8
Layer_11
  10
-1164.5356
  20
3919.3513
  0
SEQEND
  0
POLYLINE
  5
182
  8
Layer_11
  62
92
  66
1
  10
0
  20
0
  30
0
  0
VERTEX
  5
182
  8
Layer_11
  10
-1164.5356
  20
3918.3713
  0
VERTEX
  5
183
  8
Layer_11
  10
-1164.5356
  20
3917.3916
  0
SEQEND
  0
POLYLINE
  5
185
  8
Layer_11
  62
92
  66
1
  10
0
  20
0
  30
0
  0
VERTEX
  5
185
  8
Layer_11
  10
-1164.5356
  20
3916.4116
  0
VERTEX
  5
186
  8
Layer_11
  10
-1164.5356
  20
3913.4326
  0
SEQEND
  0
POLYLINE
  5
188
  8
Layer_11
  62
92
  66
1
  10
0
  20
0
  30
0
  0
VERTEX
  5
188
  8
Layer_11
  10
-1164.5356
  20
3912.4526
  0
VERTEX
  5
189
  8
Layer_11
  10
-1164.5356
  20
3911.4727
  0
SEQEND
  0
POLYLINE
  5
18b
  8
Layer_11
  62
92
  66
1
  10
0
  20
0
  30
0
  0
VERTEX
  5
18b
  8
Layer_11
  10
-1164.5356
  20
3910.4929
  0
VERTEX
  5
18c
  8
Layer_11
  10
-1164.5356
  20
3907.5139
  0
SEQEND
  0
POLYLINE
  5
18e
  8
Layer_11
  62
92
  66
1
  10
0
  20
0
  30
0
  0
VERTEX
  5
18e
  8
Layer_11
  10
-1164.5356
  20
3906.5339
  0
VERTEX
  5
18f
  8
Layer_11
  10
-1164.5356
  20
3905.5542
  0
SEQEND
  0
POLYLINE
  5
191
  8
Layer_11
  62
92
  66
1
  10
0
  20
0
  30
0
  0
VERTEX
  5
191
  8
Layer_11
  10
-1164.5356
  20
3904.5742
  0
VERTEX
  5
192
  8
Layer_11
  10
-1164.5356
  20
3901.5952
  0
SEQEND
  0
POLYLINE
  5
194
  8
Layer_11
  62
92
  66
1
  10
0
  20
0
  30
0
  0
VERTEX
  5
194
  8
Layer_11
  10
-1164.5356
  20
3900.6152
  0
VERTEX
  5
195
  8
Layer_11
  10
-1164.5356
  20
3899.6353
  0
SEQEND
  0
POLYLINE
  5
197
  8
Layer_11
  62
92
  66
1
  10
0
  20
0
  30
0
  0
VERTEX
  5
197
  8
Layer_11
  10
-1164.5356
  20
3898.6555
  0
VERTEX
  5
198
  8
Layer_11
  10
-1164.5356
  20
3895.6765
  0
SEQEND
  0
POLYLINE
  5
19a
  8
Layer_11
  62
92
  66
1
  10
0
  20
0
  30
0
  0
VERTEX
  5
19a
  8
Layer_11
  10
-1164.5356
  20
3894.6965
  0
VERTEX
  5
19b
  8
Layer_11
  10
-1164.5356
  20
3893.7168
  0
SEQEND
  0
POLYLINE
  5
19d
  8
Layer_11
  62
92
  66
1
  10
0
  20
0
  30
0
  0
VERTEX
  5
19d
  8
Layer_11
  10
-1164.5356
  20
3892.7368
  0
VERTEX
  5
19e
  8
Layer_11
  10
-1164.5356
  20
3889.7578
  0
SEQEND
  0
POLYLINE
  5
1a0
  8
Layer_11
  62
92
  66
1
  10
0
  20
0
  30
0
  0
VERTEX
  5
1a0
  8
Layer_11
  10
-1164.5356
  20
3888.7778
  0
VERTEX
  5
1a1
  8
Layer_11
  10
-1164.5356
  20
3887.7979
  0
SEQEND
  0
POLYLINE
  5
1a3
  8
Layer_11
  62
92
  66
1
  10
0
  20
0
  30
0
  0
VERTEX
  5
1a3
  8
Layer_11
  10
-1164.5356
  20
3886.8181
  0
VERTEX
  5
1a4
  8
Layer_11
  10
-1164.5356
  20
3883.8391
  0
SEQEND
  0
POLYLINE
  5
1a6
  8
Layer_11
  62
92
  66
1
  10
0
  20
0
  30
0
  0
VERTEX
  5
1a6
  8
Layer_11
  10
-1164.5356
  20
3882.8591
  0
VERTEX
  5
1a7
  8
Layer_11
  10
-1164.5356
  20
3881.8794
  0
SEQEND
  0
POLYLINE
  5
1a9
  8
Layer_11
  62
92
  66
1
  10
0
  20
0
  30
0
  0
VERTEX
  5
1a9
  8
Layer_11
  10
-1164.5356
  20
3880.8994
  0
VERTEX
  5
1aa
  8
Layer_11
  10
-1164.5356
  20
3877.9204
  0
SEQEND
  0
POLYLINE
  5
1ac
  8
Layer_11
  62
92
  66
1
  10
0
  20
0
  30
0
  0
VERTEX
  5
1ac
  8
Layer_11
  10
-1164.5356
  20
3876.9404
  0
VERTEX
  5
1ad
  8
Layer_11
  10
-1164.5356
  20
3875.9604
  0
SEQEND
  0
POLYLINE
  5
1af
  8
Layer_11
  62
92
  66
1
  10
0
  20
0
  30
0
  0
VERTEX
  5
1af
  8
Layer_11
  10
-1164.5356
  20
3874.9807
  0
VERTEX
  5
1b0
  8
Layer_11
  10
-1164.5356
  20
3872.0017
  0
SEQEND
  0
POLYLINE
  5
1b2
  8
Layer_11
  62
92
  66
1
  10
0
  20
0
  30
0
  0
VERTEX
  5
1b2
  8
Layer_11
  10
-1164.5356
  20
3871.0217
  0
VERTEX
  5
1b3
  8
Layer_11
  10
-1164.5356
  20
3870.042
  0
SEQEND
  0
POLYLINE
  5
1b5
  8
Layer_11
  62
92
  66
1
  10
0
  20
0
  30
0
  0
VERTEX
  5
1b5
  8
Layer_11
  10
-1164.5356
  20
3869.062
  0
VERTEX
  5
1b6
  8
Layer_11
  10
-1164.5356
  20
3866.083
  0
SEQEND
  0
POLYLINE
  5
1b8
  8
Layer_11
  62
92
  66
1
  10
0
  20
0
  30
0
  0
VERTEX
  5
1b8
  8
Layer_11
  10
-1164.5356
  20
3865.103
  0
VERTEX
  5
1b9
  8
Layer_11
  10
-1164.5356
  20
3864.123
  0
SEQEND
  0
POLYLINE
  5
1bb
  8
Layer_11
  62
92
  66
1
  10
0
  20
0
  30
0
  0
VERTEX
  5
1bb
  8
Layer_11
  10
-1164.5356
  20
3863.1433
  0
VERTEX
  5
1bc
  8
Layer_11
  10
-1164.5356
  20
3860.1643
  0
SEQEND
  0
POLYLINE
  5
1be
  8
Layer_11
  62
92
  66
1
  10
0
  20
0
  30
0
  0
VERTEX
  5
1be
  8
Layer_11
  10
-1164.5356
  20
3859.1846
  0
VERTEX
  5
1bf
  8
Layer_11
  10
-1164.5356
  20
3858.2046
  0
SEQEND
  0
POLYLINE
  5
1c1
  8
Layer_11
  62
92
  66
1
  10
0
  20
0
  30
0
  0
VERTEX
  5
1c1
  8
Layer_11
  10
-1164.5356
  20
3857.2246
  0
VERTEX
  5
1c2
  8
Layer_11
  10
-1164.5356
  20
3854.2456
  0
SEQEND
  0
POLYLINE
  5
1c4
  8
Layer_11
  62
92
  66
1
  10
0
  20
0
  30
0
  0
VERTEX
  5
1c4
  8
Layer_11
  10
-1164.5356
  20
3853.2656
  0
VERTEX
  5
1c5
  8
Layer_11
  10
-1164.5356
  20
3852.2856
  0
SEQEND
  0
POLYLINE
  5
1c7
  8
Layer_11
  62
92
  66
1
  10
0
  20
0
  30
0
  0
VERTEX
  5
1c7
  8
Layer_11
  10
-1164.5356
  20
3851.3059
  0
VERTEX
  5
1c8
  8
Layer_11
  10
-1164.5356
  20
3848.3269
  0
SEQEND
  0
POLYLINE
  5
1ca
  8
Layer_11
  62
92
  66
1
  10
0
  20
0
  30
0
  0
VERTEX
  5
1ca
  8
Layer_11
  10
-1164.5356
  20
3847.3472
  0
VERTEX
  5
1cb
  8
Layer_11
  10
-1164.5356
  20
3846.3672
  0
SEQEND
  0
POLYLINE
  5
1cd
  8
Layer_11
  62
92
  66
1
  10
0
  20
0
  30
0
  0
VERTEX
  5
1cd
  8
Layer_11
  10
-1164.5356
  20
3845.3872
  0
VERTEX
  5
1ce
  8
Layer_11
  10
-1164.5356
  20
3842.4082
  0
SEQEND
  0
POLYLINE
  5
1d0
  8
Layer_11
  62
92
  66
1
  10
0
  20
0
  30
0
  0
VERTEX
  5
1d0
  8
Layer_11
  10
-1164.5356
  20
3841.4282
  0
VERTEX
  5
1d1
  8
Layer_11
  10
-1164.5356
  20
3840.4482
  0
SEQEND
  0
POLYLINE
  5
1d3
  8
Layer_11
  62
92
  66
1
  10
0
  20
0
  30
0
  0
VERTEX
  5
1d3
  8
Layer_11
  10
-1164.5356
  20
3839.4685
  0
VERTEX
  5
1d4
  8
Layer_11
  10
-1164.5356
  20
3836.4895
  0
SEQEND
  0
POLYLINE
  5
1d6
  8
Layer_11
  62
92
  66
1
  10
0
  20
0
  30
0
  0
VERTEX
  5
1d6
  8
Layer_11
  10
-1164.5356
  20
3835.5098
  0
VERTEX
  5
1d7
  8
Layer_11
  10
-1164.5356
  20
3834.5298
  0
SEQEND
  0
POLYLINE
  5
1d9
  8
Layer_11
  62
92
  66
1
  10
0
  20
0
  30
0
  0
VERTEX
  5
1d9
  8
Layer_11
  10
-1164.5356
  20
3833.5498
  0
VERTEX
  5
1da
  8
Layer_11
  10
-1164.5356
  20
3830.5708
  0
SEQEND
  0
POLYLINE
  5
1dc
  8
Layer_11
  62
92
  66
1
  10
0
  20
0
  30
0
  0
VERTEX
  5
1dc
  8
Layer_11
  10
-1164.5356
  20
3829.5908
  0
VERTEX
  5
1dd
  8
Layer_11
  10
-1164.5356
  20
3828.6108
  0
SEQEND
  0
POLYLINE
  5
1df
  8
Layer_11
  62
92
  66
1
  10
0
  20
0
  30
0
  0
VERTEX
  5
1df
  8
Layer_11
  10
-1164.5356
  20
3827.6311
  0
VERTEX
  5
1e0
  8
Layer_11
  10
-1164.5356
  20
3824.6521
  0
SEQEND
  0
POLYLINE
  5
1e2
  8
Layer_11
  62
92
  66
1
  10
0
  20
0
  30
0
  0
VERTEX
  5
1e2
  8
Layer_11
  10
-1164.5356
  20
3823.6724
  0
VERTEX
  5
1e3
  8
Layer_11
  10
-1164.5356
  20
3822.6924
  0
SEQEND
  0
POLYLINE
  5
1e5
  8
Layer_11
  62
92
  66
1
  10
0
  20
0
  30
0
  0
VERTEX
  5
1e5
  8
Layer_11
  10
-1164.5356
  20
3821.7124
  0
VERTEX
  5
1e6
  8
Layer_11
  10
-1164.5356
  20
3818.7334
  0
SEQEND
  0
POLYLINE
  5
1e8
  8
Layer_11
  62
92
  66
1
  10
0
  20
0
  30
0
  0
VERTEX
  5
1e8
  8
Layer_11
  10
-1164.5356
  20
3817.7534
  0
VERTEX
  5
1e9
  8
Layer_11
  10
-1164.5356
  20
3816.7734
  0
SEQEND
  0
POLYLINE
  5
1eb
  8
Layer_11
  62
92
  66
1
  10
0
  20
0
  30
0
  0
VERTEX
  5
1eb
  8
Layer_11
  10
-1164.5356
  20
3815.7937
  0
VERTEX
  5
1ec
  8
Layer_11
  10
-1164.5356
  20
3812.8147
  0
SEQEND
  0
POLYLINE
  5
1ee
  8
Layer_11
  62
92
  66
1
  10
0
  20
0
  30
0
  0
VERTEX
  5
1ee
  8
Layer_11
  10
-1164.5356
  20
3811.835
  0
VERTEX
  5
1ef
  8
Layer_11
  10
-1164.5356
  20
3810.855
  0
SEQEND
  0
POLYLINE
  5
1f1
  8
Layer_11
  62
92
  66
1
  10
0
  20
0
  30
0
  0
VERTEX
  5
1f1
  8
Layer_11
  10
-1164.5356
  20
3809.875
  0
VERTEX
  5
1f2
  8
Layer_11
  10
-1164.5356
  20
3806.896
  0
SEQEND
  0
POLYLINE
  5
1f4
  8
Layer_11
  62
92
  66
1
  10
0
  20
0
  30
0
  0
VERTEX
  5
1f4
  8
Layer_11
  10
-1164.5356
  20
3805.916
  0
VERTEX
  5
1f5
  8
Layer_11
  10
-1164.5356
  20
3804.936
  0
SEQEND
  0
POLYLINE
  5
1f7
  8
Layer_11
  62
92
  66
1
  10
0
  20
0
  30
0
  0
VERTEX
  5
1f7
  8
Layer_11
  10
-1164.5356
  20
3803.9563
  0
VERTEX
  5
1f8
  8
Layer_11
  10
-1164.5356
  20
3800.9773
  0
SEQEND
  0
POLYLINE
  5
1fa
  8
Layer_11
  62
92
  66
1
  10
0
  20
0
  30
0
  0
VERTEX
  5
1fa
  8
Layer_11
  10
-1164.5356
  20
3799.9976
  0
VERTEX
  5
1fb
  8
Layer_11
  10
-1164.5356
  20
3799.0176
  0
SEQEND
  0
POLYLINE
  5
1fd
  8
Layer_11
  62
92
  66
1
  10
0
  20
0
  30
0
  0
VERTEX
  5
1fd
  8
Layer_11
  10
-1164.5356
  20
3798.0376
  0
VERTEX
  5
1fe
  8
Layer_11
  10
-1164.5356
  20
3795.0586
  0
SEQEND
  0
POLYLINE
  5
200
  8
Layer_11
  62
92
  66
1
  10
0
  20
0
  30
0
  0
VERTEX
  5
200
  8
Layer_11
  10
-1164.5356
  20
3794.0786
  0
VERTEX
  5
201
  8
Layer_11
  10
-1164.5356
  20
3793.0986
  0
SEQEND
  0
POLYLINE
  5
203
  8
Layer_11
  62
92
  66
1
  10
0
  20
0
  30
0
  0
VERTEX
  5
203
  8
Layer_11
  10
-1164.5356
  20
3792.1189
  0
VERTEX
  5
204
  8
Layer_11
  10
-1164.5356
  20
3789.1399
  0
SEQEND
  0
POLYLINE
  5
206
  8
Layer_11
  62
92
  66
1
  10
0
  20
0
  30
0
  0
VERTEX
  5
206
  8
Layer_11
  10
-1164.5356
  20
3788.1602
  0
VERTEX
  5
207
  8
Layer_11
  10
-1164.5356
  20
3787.1802
  0
SEQEND
  0
POLYLINE
  5
209
  8
Layer_11
  62
92
  66
1
  10
0
  20
0
  30
0
  0
VERTEX
  5
209
  8
Layer_11
  10
-1164.5356
  20
3786.2002
  0
VERTEX
  5
20a
  8
Layer_11
  10
-1164.5356
  20
3783.2212
  0
SEQEND
  0
POLYLINE
  5
20c
  8
Layer_11
  62
92
  66
1
  10
0
  20
0
  30
0
  0
VERTEX
  5
20c
  8
Layer_11
  10
-1164.5356
  20
3782.2412
  0
VERTEX
  5
20d
  8
Layer_11
  10
-1164.5356
  20
3781.2612
  0
SEQEND
  0
POLYLINE
  5
20f
  8
Layer_11
  62
92
  66
1
  10
0
  20
0
  30
0
  0
VERTEX
  5
20f
  8
Layer_11
  10
-1164.5356
  20
3780.2815
  0
VERTEX
  5
210
  8
Layer_11
  10
-1164.5356
  20
3777.3025
  0
SEQEND
  0
POLYLINE
  5
212
  8
Layer_11
  62
92
  66
1
  10
0
  20
0
  30
0
  0
VERTEX
  5
212
  8
Layer_11
  10
-1164.5356
  20
3776.3228
  0
VERTEX
  5
213
  8
Layer_11
  10
-1164.5356
  20
3775.3428
  0
SEQEND
  0
POLYLINE
  5
215
  8
Layer_11
  62
92
  66
1
  10
0
  20
0
  30
0
  0
VERTEX
  5
215
  8
Layer_11
  10
-1164.5356
  20
3774.3628
  0
VERTEX
  5
216
  8
Layer_11
  10
-1164.5356
  20
3771.3838
  0
SEQEND
  0
POLYLINE
  5
218
  8
Layer_11
  62
92
  66
1
  10
0
  20
0
  30
0
  0
VERTEX
  5
218
  8
Layer_11
  10
-1164.5356
  20
3770.4038
  0
VERTEX
  5
219
  8
Layer_11
  10
-1164.5356
  20
3769.4238
  0
SEQEND
  0
POLYLINE
  5
21b
  8
Layer_11
  62
92
  66
1
  10
0
  20
0
  30
0
  0
VERTEX
  5
21b
  8
Layer_11
  10
-1164.5356
  20
3768.4441
  0
VERTEX
  5
21c
  8
Layer_11
  10
-1164.5356
  20
3765.4651
  0
SEQEND
  0
POLYLINE
  5
21e
  8
Layer_11
  62
92
  66
1
  10
0
  20
0
  30
0
  0
VERTEX
  5
21e
  8
Layer_11
  10
-1164.5356
  20
3764.4854
  0
VERTEX
  5
21f
  8
Layer_11
  10
-1164.5356
  20
3763.5054
  0
SEQEND
  0
POLYLINE
  5
221
  8
Layer_11
  62
92
  66
1
  10
0
  20
0
  30
0
  0
VERTEX
  5
221
  8
Layer_11
  10
-1164.5356
  20
3762.5254
  0
VERTEX
  5
222
  8
Layer_11
  10
-1164.5356
  20
3759.5464
  0
SEQEND
  0
POLYLINE
  5
224
  8
Layer_11
  62
92
  66
1
  10
0
  20
0
  30
0
  0
VERTEX
  5
224
  8
Layer_11
  10
-1164.5356
  20
3758.5664
  0
VERTEX
  5
225
  8
Layer_11
  10
-1164.5356
  20
3757.5864
  0
SEQEND
  0
POLYLINE
  5
227
  8
Layer_11
  62
92
  66
1
  10
0
  20
0
  30
0
  0
VERTEX
  5
227
  8
Layer_11
  10
-1164.5356
  20
3756.6067
  0
VERTEX
  5
228
  8
Layer_11
  10
-1164.5356
  20
3753.6277
  0
SEQEND
  0
POLYLINE
  5
22a
  8
Layer_11
  62
92
  66
1
  10
0
  20
0
  30
0
  0
VERTEX
  5
22a
  8
Layer_11
  10
-1164.5356
  20
3752.6479
  0
VERTEX
  5
22b
  8
Layer_11
  10
-1164.5356
  20
3751.668
  0
SEQEND
  0
POLYLINE
  5
22d
  8
Layer_11
  62
92
  66
1
  10
0
  20
0
  30
0
  0
VERTEX
  5
22d
  8
Layer_11
  10
-1164.5356
  20
3750.688
  0
VERTEX
  5
22e
  8
Layer_11
  10
-1164.5356
  20
3747.709
  0
SEQEND
  0
POLYLINE
  5
230
  8
Layer_11
  62
92
  66
1
  10
0
  20
0
  30
0
  0
VERTEX
  5
230
  8
Layer_11
  10
-1164.5356
  20
3746.729
  0
VERTEX
  5
231
  8
Layer_11
  10
-1164.5356
  20
3745.749
  0
SEQEND
  0
POLYLINE
  5
233
  8
Layer_11
  62
92
  66
1
  10
0
  20
0
  30
0
  0
VERTEX
  5
233
  8
Layer_11
  10
-1164.5356
  20
3744.7693
  0
VERTEX
  5
234
  8
Layer_11
  10
-1164.5356
  20
3741.7903
  0
SEQEND
  0
POLYLINE
  5
236
  8
Layer_11
  62
92
  66
1
  10
0
  20
0
  30
0
  0
VERTEX
  5
236
  8
Layer_11
  10
-1164.5356
  20
3740.8105
  0
VERTEX
  5
237
  8
Layer_11
  10
-1164.5356
  20
3739.8306
  0
SEQEND
  0
POLYLINE
  5
239
  8
Layer_11
  62
92
  66
1
  10
0
  20
0
  30
0
  0
VERTEX
  5
239
  8
Layer_11
  10
-1164.5356
  20
3738.8506
  0
VERTEX
  5
23a
  8
Layer_11
  10
-1164.5356
  20
3735.8716
  0
SEQEND
  0
POLYLINE
  5
23c
  8
Layer_11
  62
92
  66
1
  10
0
  20
0
  30
0
  0
VERTEX
  5
23c
  8
Layer_11
  10
-1164.5356
  20
3734.8916
  0
VERTEX
  5
23d
  8
Layer_11
  10
-1164.5356
  20
3733.9116
  0
SEQEND
  0
POLYLINE
  5
23f
  8
Layer_11
  62
92
  66
1
  10
0
  20
0
  30
0
  0
VERTEX
  5
23f
  8
Layer_11
  10
-1164.5356
  20
3732.9319
  0
VERTEX
  5
240
  8
Layer_11
  10
-1164.5356
  20
3729.9529
  0
SEQEND
  0
POLYLINE
  5
242
  8
Layer_11
  62
92
  66
1
  10
0
  20
0
  30
0
  0
VERTEX
  5
242
  8
Layer_11
  10
-1164.5356
  20
3728.9731
  0
VERTEX
  5
243
  8
Layer_11
  10
-1164.5356
  20
3727.9932
  0
SEQEND
  0
POLYLINE
  5
245
  8
Layer_11
  62
92
  66
1
  10
0
  20
0
  30
0
  0
VERTEX
  5
245
  8
Layer_11
  10
-1164.5356
  20
3727.0132
  0
VERTEX
  5
246
  8
Layer_11
  10
-1164.5356
  20
3724.0342
  0
SEQEND
  0
POLYLINE
  5
248
  8
Layer_11
  62
92
  66
1
  10
0
  20
0
  30
0
  0
VERTEX
  5
248
  8
Layer_11
  10
-1164.5356
  20
3723.0542
  0
VERTEX
  5
249
  8
Layer_11
  10
-1164.5356
  20
3722.0742
  0
SEQEND
  0
POLYLINE
  5
24b
  8
Layer_11
  62
92
  66
1
  10
0
  20
0
  30
0
  0
VERTEX
  5
24b
  8
Layer_11
  10
-1164.5356
  20
3721.0945
  0
VERTEX
  5
24c
  8
Layer_11
  10
-1164.5356
  20
3718.1155
  0
SEQEND
  0
POLYLINE
  5
24e
  8
Layer_11
  62
92
  66
1
  10
0
  20
0
  30
0
  0
VERTEX
  5
24e
  8
Layer_11
  10
-1164.5356
  20
3717.1357
  0
VERTEX
  5
24f
  8
Layer_11
  10
-1164.5356
  20
3716.1558
  0
SEQEND
  0
POLYLINE
  5
251
  8
Layer_11
  62
92
  66
1
  10
0
  20
0
  30
0
  0
VERTEX
  5
251
  8
Layer_11
  10
-1164.5356
  20
3715.1758
  0
VERTEX
  5
252
  8
Layer_11
  10
-1164.5356
  20
3712.1968
  0
SEQEND
  0
POLYLINE
  5
254
  8
Layer_11
  62
92
  66
1
  10
0
  20
0
  30
0
  0
VERTEX
  5
254
  8
Layer_11
  10
-1164.5356
  20
3711.2168
  0
VERTEX
  5
255
  8
Layer_11
  10
-1164.5356
  20
3710.2368
  0
SEQEND
  0
POLYLINE
  5
257
  8
Layer_11
  62
92
  66
1
  10
0
  20
0
  30
0
  0
VERTEX
  5
257
  8
Layer_11
  10
-1164.5356
  20
3709.2571
  0
VERTEX
  5
258
  8
Layer_11
  10
-1164.5356
  20
3706.2781
  0
SEQEND
  0
POLYLINE
  5
25a
  8
Layer_11
  62
92
  66
1
  10
0
  20
0
  30
0
  0
VERTEX
  5
25a
  8
Layer_11
  10
-1164.5356
  20
3705.2983
  0
VERTEX
  5
25b
  8
Layer_11
  10
-1164.5356
  20
3704.3184
  0
SEQEND
  0
POLYLINE
  5
25d
  8
Layer_11
  62
92
  66
1
  10
0
  20
0
  30
0
  0
VERTEX
  5
25d
  8
Layer_11
  10
-1164.5356
  20
3703.3384
  0
VERTEX
  5
25e
  8
Layer_11
  10
-1164.5356
  20
3700.3594
  0
SEQEND
  0
POLYLINE
  5
260
  8
Layer_11
  62
92
  66
1
  10
0
  20
0
  30
0
  0
VERTEX
  5
260
  8
Layer_11
  10
-1164.5356
  20
3699.3794
  0
VERTEX
  5
261
  8
Layer_11
  10
-1164.5356
  20
3698.3994
  0
SEQEND
  0
POLYLINE
  5
263
  8
Layer_11
  62
92
  66
1
  10
0
  20
0
  30
0
  0
VERTEX
  5
263
  8
Layer_11
  10
-1164.5356
  20
3697.4197
  0
VERTEX
  5
264
  8
Layer_11
  10
-1164.5356
  20
3694.4407
  0
SEQEND
  0
POLYLINE
  5
266
  8
Layer_11
  62
92
  66
1
  10
0
  20
0
  30
0
  0
VERTEX
  5
266
  8
Layer_11
  10
-1164.5356
  20
3693.4609
  0
VERTEX
  5
267
  8
Layer_11
  10
-1164.5356
  20
3692.481
  0
SEQEND
  0
POLYLINE
  5
269
  8
Layer_11
  62
92
  66
1
  10
0
  20
0
  30
0
  0
VERTEX
  5
269
  8
Layer_11
  10
-1164.5356
  20
3691.501
  0
VERTEX
  5
26a
  8
Layer_11
  10
-1164.5356
  20
3688.522
  0
SEQEND
  0
POLYLINE
  5
26c
  8
Layer_11
  62
92
  66
1
  10
0
  20
0
  30
0
  0
VERTEX
  5
26c
  8
Layer_11
  10
-1164.5356
  20
3687.542
  0
VERTEX
  5
26d
  8
Layer_11
  10
-1164.5356
  20
3686.562
  0
SEQEND
  0
POLYLINE
  5
26f
  8
Layer_11
  62
92
  66
1
  10
0
  20
0
  30
0
  0
VERTEX
  5
26f
  8
Layer_11
  10
-1164.5356
  20
3685.5823
  0
VERTEX
  5
270
  8
Layer_11
  10
-1164.5356
  20
3682.6033
  0
SEQEND
  0
POLYLINE
  5
272
  8
Layer_11
  62
92
  66
1
  10
0
  20
0
  30
0
  0
VERTEX
  5
272
  8
Layer_11
  10
-1164.5356
  20
3681.6235
  0
VERTEX
  5
273
  8
Layer_11
  10
-1164.5356
  20
3680.6436
  0
SEQEND
  0
POLYLINE
  5
275
  8
Layer_11
  62
92
  66
1
  10
0
  20
0
  30
0
  0
VERTEX
  5
275
  8
Layer_11
  10
-1164.5356
  20
3679.6636
  0
VERTEX
  5
276
  8
Layer_11
  10
-1164.5356
  20
3676.6846
  0
SEQEND
  0
POLYLINE
  5
278
  8
Layer_11
  62
92
  66
1
  10
0
  20
0
  30
0
  0
VERTEX
  5
278
  8
Layer_11
  10
-1164.5356
  20
3675.7046
  0
VERTEX
  5
279
  8
Layer_11
  10
-1164.5356
  20
3674.7246
  0
SEQEND
  0
POLYLINE
  5
27b
  8
Layer_11
  62
92
  66
1
  10
0
  20
0
  30
0
  0
VERTEX
  5
27b
  8
Layer_11
  10
-1164.5356
  20
3673.7449
  0
VERTEX
  5
27c
  8
Layer_11
  10
-1164.5356
  20
3670.7659
  0
SEQEND
  0
POLYLINE
  5
27e
  8
Layer_11
  62
92
  66
1
  10
0
  20
0
  30
0
  0
VERTEX
  5
27e
  8
Layer_11
  10
-1164.5356
  20
3669.7861
  0
VERTEX
  5
27f
  8
Layer_11
  10
-1164.5356
  20
3668.8062
  0
SEQEND
  0
POLYLINE
  5
281
  8
Layer_11
  62
92
  66
1
  10
0
  20
0
  30
0
  0
VERTEX
  5
281
  8
Layer_11
  10
-1164.5356
  20
3667.8262
  0
VERTEX
  5
282
  8
Layer_11
  10
-1164.5356
  20
3664.8472
  0
SEQEND
  0
POLYLINE
  5
284
  8
Layer_11
  62
92
  66
1
  10
0
  20
0
  30
0
  0
VERTEX
  5
284
  8
Layer_11
  10
-1164.5356
  20
3663.8672
  0
VERTEX
  5
285
  8
Layer_11
  10
-1164.5356
  20
3662.8875
  0
SEQEND
  0
POLYLINE
  5
287
  8
Layer_11
  62
92
  66
1
  10
0
  20
0
  30
0
  0
VERTEX
  5
287
  8
Layer_11
  10
-1164.5356
  20
3661.9075
  0
VERTEX
  5
288
  8
Layer_11
  10
-1164.5356
  20
3658.9285
  0
SEQEND
  0
POLYLINE
  5
28a
  8
Layer_11
  62
92
  66
1
  10
0
  20
0
  30
0
  0
VERTEX
  5
28a
  8
Layer_11
  10
-1164.5356
  20
3657.9487
  0
VERTEX
  5
28b
  8
Layer_11
  10
-1164.5356
  20
3656.9688
  0
SEQEND
  0
POLYLINE
  5
28d
  8
Layer_11
  62
92
  66
1
  10
0
  20
0
  30
0
  0
VERTEX
  5
28d
  8
Layer_11
  10
-1164.5356
  20
3655.9888
  0
VERTEX
  5
28e
  8
Layer_11
  10
-1164.5356
  20
3653.0098
  0
SEQEND
  0
POLYLINE
  5
290
  8
Layer_11
  62
92
  66
1
  10
0
  20
0
  30
0
  0
VERTEX
  5
290
  8
Layer_11
  10
-1164.5356
  20
3652.0298
  0
VERTEX
  5
291
  8
Layer_11
  10
-1164.5356
  20
3651.05
  0
SEQEND
  0
POLYLINE
  5
293
  8
Layer_11
  62
92
  66
1
  10
0
  20
0
  30
0
  0
VERTEX
  5
293
  8
Layer_11
  10
-1164.5356
  20
3650.0701
  0
VERTEX
  5
294
  8
Layer_11
  10
-1164.5356
  20
3647.0911
  0
SEQEND
  0
POLYLINE
  5
296
  8
Layer_11
  62
92
  66
1
  10
0
  20
0
  30
0
  0
VERTEX
  5
296
  8
Layer_11
  10
-1164.5356
  20
3646.1113
  0
VERTEX
  5
297
  8
Layer_11
  10
-1164.5356
  20
3645.1313
  0
SEQEND
  0
POLYLINE
  5
299
  8
Layer_11
  62
92
  66
1
  10
0
  20
0
  30
0
  0
VERTEX
  5
299
  8
Layer_11
  10
-1164.5356
  20
3644.1514
  0
VERTEX
  5
29a
  8
Layer_11
  10
-1164.5356
  20
3641.1724
  0
SEQEND
  0
POLYLINE
  5
29c
  8
Layer_11
  62
92
  66
1
  10
0
  20
0
  30
0
  0
VERTEX
  5
29c
  8
Layer_11
  10
-1164.5356
  20
3640.1924
  0
VERTEX
  5
29d
  8
Layer_11
  10
-1164.5356
  20
3639.2126
  0
SEQEND
  0
POLYLINE
  5
29f
  8
Layer_11
  62
92
  66
1
  10
0
  20
0
  30
0
  0
VERTEX
  5
29f
  8
Layer_11
  10
-1164.5356
  20
3638.2327
  0
VERTEX
  5
2a0
  8
Layer_11
  10
-1164.5356
  20
3635.2537
  0
SEQEND
  0
POLYLINE
  5
2a2
  8
Layer_11
  62
92
  66
1
  10
0
  20
0
  30
0
  0
VERTEX
  5
2a2
  8
Layer_11
  10
-1164.5356
  20
3634.2739
  0
VERTEX
  5
2a3
  8
Layer_11
  10
-1164.5356
  20
3633.2939
  0
SEQEND
  0
POLYLINE
  5
2a5
  8
Layer_11
  62
92
  66
1
  10
0
  20
0
  30
0
  0
VERTEX
  5
2a5
  8
Layer_11
  10
-1164.5356
  20
3632.314
  0
VERTEX
  5
2a6
  8
Layer_11
  10
-1164.5356
  20
3629.335
  0
SEQEND
  0
POLYLINE
  5
2a8
  8
Layer_11
  62
92
  66
1
  10
0
  20
0
  30
0
  0
VERTEX
  5
2a8
  8
Layer_11
  10
-1164.5356
  20
3628.355
  0
VERTEX
  5
2a9
  8
Layer_11
  10
-1164.5356
  20
3627.3752
  0
SEQEND
  0
POLYLINE
  5
2ab
  8
Layer_11
  62
92
  66
1
  10
0
  20
0
  30
0
  0
VERTEX
  5
2ab
  8
Layer_11
  10
-1164.5356
  20
3626.3953
  0
VERTEX
  5
2ac
  8
Layer_11
  10
-1164.5356
  20
3623.4163
  0
SEQEND
  0
POLYLINE
  5
2ae
  8
Layer_11
  62
92
  66
1
  10
0
  20
0
  30
0
  0
VERTEX
  5
2ae
  8
Layer_11
  10
-1164.5356
  20
3622.4365
  0
VERTEX
  5
2af
  8
Layer_11
  10
-1164.5356
  20
3621.4565
  0
SEQEND
  0
POLYLINE
  5
2b1
  8
Layer_11
  62
92
  66
1
  10
0
  20
0
  30
0
  0
VERTEX
  5
2b1
  8
Layer_11
  10
-1164.5356
  20
3620.4766
  0
VERTEX
  5
2b2
  8
Layer_11
  10
-1164.5356
  20
3617.4976
  0
SEQEND
  0
POLYLINE
  5
2b4
  8
Layer_11
  62
92
  66
1
  10
0
  20
0
  30
0
  0
VERTEX
  5
2b4
  8
Layer_11
  10
-1164.5356
  20
3616.5176
  0
VERTEX
  5
2b5
  8
Layer_11
  10
-1164.5356
  20
3615.5378
  0
SEQEND
  0
POLYLINE
  5
2b7
  8
Layer_11
  62
92
  66
1
  10
0
  20
0
  30
0
  0
VERTEX
  5
2b7
  8
Layer_11
  10
-1164.5356
  20
3614.5579
  0
VERTEX
  5
2b8
  8
Layer_11
  10
-1164.5356
  20
3611.5789
  0
SEQEND
  0
POLYLINE
  5
2ba
  8
Layer_11
  62
92
  66
1
  10
0
  20
0
  30
0
  0
VERTEX
  5
2ba
  8
Layer_11
  10
-1164.5356
  20
3610.5991
  0
VERTEX
  5
2bb
  8
Layer_11
  10
-1164.5356
  20
3609.6191
  0
SEQEND
  0
POLYLINE
  5
2bd
  8
Layer_11
  62
92
  66
1
  10
0
  20
0
  30
0
  0
VERTEX
  5
2bd
  8
Layer_11
  10
-1164.5356
  20
3608.6392
  0
VERTEX
  5
2be
  8
Layer_11
  10
-1164.5356
  20
3605.6602
  0
SEQEND
  0
POLYLINE
  5
2c0
  8
Layer_11
  62
92
  66
1
  10
0
  20
0
  30
0
  0
VERTEX
  5
2c0
  8
Layer_11
  10
-1164.5356
  20
3604.6802
  0
VERTEX
  5
2c1
  8
Layer_11
  10
-1164.5356
  20
3603.7004
  0
SEQEND
  0
POLYLINE
  5
2c3
  8
Layer_11
  62
92
  66
1
  10
0
  20
0
  30
0
  0
VERTEX
  5
2c3
  8
Layer_11
  10
-1164.5356
  20
3602.7205
  0
VERTEX
  5
2c4
  8
Layer_11
  10
-1164.5356
  20
3599.7415
  0
SEQEND
  0
POLYLINE
  5
2c6
  8
Layer_11
  62
92
  66
1
  10
0
  20
0
  30
0
  0
VERTEX
  5
2c6
  8
Layer_11
  10
-1164.5356
  20
3598.7617
  0
VERTEX
  5
2c7
  8
Layer_11
  10
-1164.5356
  20
3597.7817
  0
SEQEND
  0
POLYLINE
  5
2c9
  8
Layer_11
  62
92
  66
1
  10
0
  20
0
  30
0
  0
VERTEX
  5
2c9
  8
Layer_11
  10
-1164.5356
  20
3596.8018
  0
VERTEX
  5
2ca
  8
Layer_11
  10
-1164.5356
  20
3593.8228
  0
SEQEND
  0
POLYLINE
  5
2cc
  8
Layer_11
  62
92
  66
1
  10
0
  20
0
  30
0
  0
VERTEX
  5
2cc
  8
Layer_11
  10
-1164.5356
  20
3592.8428
  0
VERTEX
  5
2cd
  8
Layer_11
  10
-1164.5356
  20
3591.863
  0
SEQEND
  0
POLYLINE
  5
2cf
  8
Layer_11
  62
92
  66
1
  10
0
  20
0
  30
0
  0
VERTEX
  5
2cf
  8
Layer_11
  10
-1164.5356
  20
3590.8831
  0
VERTEX
  5
2d0
  8
Layer_11
  10
-1164.5356
  20
3587.9041
  0
SEQEND
  0
POLYLINE
  5
2d2
  8
Layer_11
  62
92
  66
1
  10
0
  20
0
  30
0
  0
VERTEX
  5
2d2
  8
Layer_11
  10
-1164.5356
  20
3586.9243
  0
VERTEX
  5
2d3
  8
Layer_11
  10
-1164.5356
  20
3585.9443
  0
SEQEND
  0
POLYLINE
  5
2d5
  8
Layer_11
  62
92
  66
1
  10
0
  20
0
  30
0
  0
VERTEX
  5
2d5
  8
Layer_11
  10
-1164.5356
  20
3584.9644
  0
VERTEX
  5
2d6
  8
Layer_11
  10
-1164.5356
  20
3581.9854
  0
SEQEND
  0
POLYLINE
  5
2d8
  8
Layer_11
  62
92
  66
1
  10
0
  20
0
  30
0
  0
VERTEX
  5
2d8
  8
Layer_11
  10
-1164.5356
  20
3581.0054
  0
VERTEX
  5
2d9
  8
Layer_11
  10
-1164.5356
  20
3580.0256
  0
SEQEND
  0
POLYLINE
  5
2db
  8
Layer_11
  62
92
  66
1
  10
0
  20
0
  30
0
  0
VERTEX
  5
2db
  8
Layer_11
  10
-1164.5356
  20
3579.0457
  0
VERTEX
  5
2dc
  8
Layer_11
  10
-1164.5356
  20
3576.0667
  0
SEQEND
  0
POLYLINE
  5
2de
  8
Layer_11
  62
92
  66
1
  10
0
  20
0
  30
0
  0
VERTEX
  5
2de
  8
Layer_11
  10
-1164.5356
  20
3575.0869
  0
VERTEX
  5
2df
  8
Layer_11
  10
-1164.5356
  20
3574.1069
  0
SEQEND
  0
POLYLINE
  5
2e1
  8
Layer_11
  62
92
  66
1
  10
0
  20
0
  30
0
  0
VERTEX
  5
2e1
  8
Layer_11
  10
-1164.5356
  20
3573.127
  0
VERTEX
  5
2e2
  8
Layer_11
  10
-1164.5356
  20
3570.1479
  0
SEQEND
  0
POLYLINE
  5
2e4
  8
Layer_11
  62
92
  66
1
  10
0
  20
0
  30
0
  0
VERTEX
  5
2e4
  8
Layer_11
  10
-1164.5356
  20
3569.168
  0
VERTEX
  5
2e5
  8
Layer_11
  10
-1164.5356
  20
3568.1882
  0
SEQEND
  0
POLYLINE
  5
2e7
  8
Layer_11
  62
92
  66
1
  10
0
  20
0
  30
0
  0
VERTEX
  5
2e7
  8
Layer_11
  10
-1164.5356
  20
3567.2083
  0
VERTEX
  5
2e8
  8
Layer_11
  10
-1164.5356
  20
3564.2292
  0
SEQEND
  0
POLYLINE
  5
2ea
  8
Layer_11
  62
92
  66
1
  10
0
  20
0
  30
0
  0
VERTEX
  5
2ea
  8
Layer_11
  10
-1164.5356
  20
3563.2495
  0
VERTEX
  5
2eb
  8
Layer_11
  10
-1164.5356
  20
3562.2695
  0
SEQEND
  0
POLYLINE
  5
2ed
  8
Layer_11
  62
92
  66
1
  10
0
  20
0
  30
0
  0
VERTEX
  5
2ed
  8
Layer_11
  10
-1164.5356
  20
3561.2896
  0
VERTEX
  5
2ee
  8
Layer_11
  10
-1164.5356
  20
3558.3105
  0
SEQEND
  0
POLYLINE
  5
2f0
  8
Layer_11
  62
92
  66
1
  10
0
  20
0
  30
0
  0
VERTEX
  5
2f0
  8
Layer_11
  10
-1164.5356
  20
3557.3306
  0
VERTEX
  5
2f1
  8
Layer_11
  10
-1164.5356
  20
3556.3508
  0
SEQEND
  0
POLYLINE
  5
2f3
  8
Layer_11
  62
92
  66
1
  10
0
  20
0
  30
0
  0
VERTEX
  5
2f3
  8
Layer_11
  10
-1164.5356
  20
3555.3708
  0
VERTEX
  5
2f4
  8
Layer_11
  10
-1164.5356
  20
3552.3918
  0
SEQEND
  0
POLYLINE
  5
2f6
  8
Layer_11
  62
92
  66
1
  10
0
  20
0
  30
0
  0
VERTEX
  5
2f6
  8
Layer_11
  10
-1164.5356
  20
3551.4121
  0
VERTEX
  5
2f7
  8
Layer_11
  10
-1164.5356
  20
3550.4321
  0
SEQEND
  0
POLYLINE
  5
2f9
  8
Layer_11
  62
92
  66
1
  10
0
  20
0
  30
0
  0
VERTEX
  5
2f9
  8
Layer_11
  10
-1164.5356
  20
3549.4521
  0
VERTEX
  5
2fa
  8
Layer_11
  10
-1164.5356
  20
3546.4731
  0
SEQEND
  0
POLYLINE
  5
2fc
  8
Layer_11
  62
92
  66
1
  10
0
  20
0
  30
0
  0
VERTEX
  5
2fc
  8
Layer_11
  10
-1164.5356
  20
3545.4932
  0
VERTEX
  5
2fd
  8
Layer_11
  10
-1164.5356
  20
3544.5134
  0
SEQEND
  0
POLYLINE
  5
2ff
  8
Layer_11
  62
92
  66
1
  10
0
  20
0
  30
0
  0
VERTEX
  5
2ff
  8
Layer_11
  10
-1164.5356
  20
3543.5334
  0
VERTEX
  5
300
  8
Layer_11
  10
-1164.5356
  20
3540.5544
  0
SEQEND
  0
POLYLINE
  5
302
  8
Layer_11
  62
92
  66
1
  10
0
  20
0
  30
0
  0
VERTEX
  5
302
  8
Layer_11
  10
-1164.5356
  20
3539.5747
  0
VERTEX
  5
303
  8
Layer_11
  10
-1164.5356
  20
3538.5947
  0
SEQEND
  0
POLYLINE
  5
305
  8
Layer_11
  62
92
  66
1
  10
0
  20
0
  30
0
  0
VERTEX
  5
305
  8
Layer_11
  10
-1164.5356
  20
3537.6147
  0
VERTEX
  5
306
  8
Layer_11
  10
-1164.5356
  20
3534.6357
  0
SEQEND
  0
POLYLINE
  5
308
  8
Layer_11
  62
92
  66
1
  10
0
  20
0
  30
0
  0
VERTEX
  5
308
  8
Layer_11
  10
-1164.5356
  20
3533.6558
  0
VERTEX
  5
309
  8
Layer_11
  10
-1164.5356
  20
3532.676
  0
SEQEND
  0
POLYLINE
  5
30b
  8
Layer_11
  62
92
  66
1
  10
0
  20
0
  30
0
  0
VERTEX
  5
30b
  8
Layer_11
  10
-1164.5356
  20
3531.696
  0
VERTEX
  5
30c
  8
Layer_11
  10
-1164.5356
  20
3528.717
  0
SEQEND
  0
POLYLINE
  5
30e
  8
Layer_11
  62
92
  66
1
  10
0
  20
0
  30
0
  0
VERTEX
  5
30e
  8
Layer_11
  10
-1164.5356
  20
3527.7373
  0
VERTEX
  5
30f
  8
Layer_11
  10
-1164.5356
  20
3526.7573
  0
SEQEND
  0
POLYLINE
  5
311
  8
Layer_11
  62
92
  66
1
  10
0
  20
0
  30
0
  0
VERTEX
  5
311
  8
Layer_11
  10
-1164.5356
  20
3525.7773
  0
VERTEX
  5
312
  8
Layer_11
  10
-1164.5356
  20
3522.7983
  0
SEQEND
  0
POLYLINE
  5
314
  8
Layer_11
  62
92
  66
1
  10
0
  20
0
  30
0
  0
VERTEX
  5
314
  8
Layer_11
  10
-1164.5356
  20
3521.8184
  0
VERTEX
  5
315
  8
Layer_11
  10
-1164.5356
  20
3520.8386
  0
SEQEND
  0
POLYLINE
  5
317
  8
Layer_11
  62
92
  66
1
  10
0
  20
0
  30
0
  0
VERTEX
  5
317
  8
Layer_11
  10
-1164.5356
  20
3519.8586
  0
VERTEX
  5
318
  8
Layer_11
  10
-1164.5356
  20
3516.8796
  0
SEQEND
  0
POLYLINE
  5
31a
  8
Layer_11
  62
92
  66
1
  10
0
  20
0
  30
0
  0
VERTEX
  5
31a
  8
Layer_11
  10
-1164.5356
  20
3515.8999
  0
VERTEX
  5
31b
  8
Layer_11
  10
-1164.5356
  20
3514.9199
  0
SEQEND
  0
POLYLINE
  5
31d
  8
Layer_11
  62
92
  66
1
  10
0
  20
0
  30
0
  0
VERTEX
  5
31d
  8
Layer_11
  10
-1164.5356
  20
3513.9399
  0
VERTEX
  5
31e
  8
Layer_11
  10
-1164.5356
  20
3510.9609
  0
SEQEND
  0
POLYLINE
  5
320
  8
Layer_11
  62
92
  66
1
  10
0
  20
0
  30
0
  0
VERTEX
  5
320
  8
Layer_11
  10
-1164.5356
  20
3509.981
  0
VERTEX
  5
321
  8
Layer_11
  10
-1164.5356
  20
3509.0012
  0
SEQEND
  0
POLYLINE
  5
323
  8
Layer_11
  62
92
  66
1
  10
0
  20
0
  30
0
  0
VERTEX
  5
323
  8
Layer_11
  10
-1164.5356
  20
3508.0212
  0
VERTEX
  5
324
  8
Layer_11
  10
-1164.5356
  20
3505.0422
  0
SEQEND
  0
POLYLINE
  5
326
  8
Layer_11
  62
92
  66
1
  10
0
  20
0
  30
0
  0
VERTEX
  5
326
  8
Layer_11
  10
-1164.5356
  20
3504.0625
  0
VERTEX
  5
327
  8
Layer_11
  10
-1164.5356
  20
3503.0825
  0
SEQEND
  0
POLYLINE
  5
329
  8
Layer_11
  62
92
  66
1
  10
0
  20
0
  30
0
  0
VERTEX
  5
329
  8
Layer_11
  10
-1164.5356
  20
3502.1025
  0
VERTEX
  5
32a
  8
Layer_11
  10
-1164.5356
  20
3499.1235
  0
SEQEND
  0
POLYLINE
  5
32c
  8
Layer_11
  62
92
  66
1
  10
0
  20
0
  30
0
  0
VERTEX
  5
32c
  8
Layer_11
  10
-1164.5356
  20
3498.1436
  0
VERTEX
  5
32d
  8
Layer_11
  10
-1164.5356
  20
3497.1638
  0
SEQEND
  0
POLYLINE
  5
32f
  8
Layer_11
  62
92
  66
1
  10
0
  20
0
  30
0
  0
VERTEX
  5
32f
  8
Layer_11
  10
-1164.5356
  20
3496.1838
  0
VERTEX
  5
330
  8
Layer_11
  10
-1164.5356
  20
3493.2048
  0
SEQEND
  0
POLYLINE
  5
332
  8
Layer_11
  62
92
  66
1
  10
0
  20
0
  30
0
  0
VERTEX
  5
332
  8
Layer_11
  10
-1164.5356
  20
3492.2251
  0
VERTEX
  5
333
  8
Layer_11
  10
-1164.5356
  20
3491.2451
  0
SEQEND
  0
POLYLINE
  5
335
  8
Layer_11
  62
92
  66
1
  10
0
  20
0
  30
0
  0
VERTEX
  5
335
  8
Layer_11
  10
-1164.5356
  20
3490.2651
  0
VERTEX
  5
336
  8
Layer_11
  10
-1164.5356
  20
3487.2861
  0
SEQEND
  0
POLYLINE
  5
338
  8
Layer_11
  62
92
  66
1
  10
0
  20
0
  30
0
  0
VERTEX
  5
338
  8
Layer_11
  10
-1164.5356
  20
3486.3062
  0
VERTEX
  5
339
  8
Layer_11
  10
-1164.5356
  20
3485.3264
  0
SEQEND
  0
POLYLINE
  5
33b
  8
Layer_11
  62
92
  66
1
  10
0
  20
0
  30
0
  0
VERTEX
  5
33b
  8
Layer_11
  10
-1164.5356
  20
3484.3464
  0
VERTEX
  5
33c
  8
Layer_11
  10
-1164.5356
  20
3481.3674
  0
SEQEND
  0
POLYLINE
  5
33e
  8
Layer_11
  62
92
  66
1
  10
0
  20
0
  30
0
  0
VERTEX
  5
33e
  8
Layer_11
  10
-1164.5356
  20
3480.3877
  0
VERTEX
  5
33f
  8
Layer_11
  10
-1164.5356
  20
3479.4077
  0
SEQEND
  0
POLYLINE
  5
341
  8
Layer_11
  62
92
  66
1
  10
0
  20
0
  30
0
  0
VERTEX
  5
341
  8
Layer_11
  10
-1164.5356
  20
3478.4277
  0
VERTEX
  5
342
  8
Layer_11
  10
-1164.5356
  20
3475.4487
  0
SEQEND
  0
POLYLINE
  5
344
  8
Layer_11
  62
92
  66
1
  10
0
  20
0
  30
0
  0
VERTEX
  5
344
  8
Layer_11
  10
-1164.5356
  20
3474.4688
  0
VERTEX
  5
345
  8
Layer_11
  10
-1164.5356
  20
3473.489
  0
SEQEND
  0
POLYLINE
  5
347
  8
Layer_11
  62
92
  66
1
  10
0
  20
0
  30
0
  0
VERTEX
  5
347
  8
Layer_11
  10
-1164.5356
  20
3472.509
  0
VERTEX
  5
348
  8
Layer_11
  10
-1164.5356
  20
3469.53
  0
SEQEND
  0
POLYLINE
  5
34a
  8
Layer_11
  62
92
  66
1
  10
0
  20
0
  30
0
  0
VERTEX
  5
34a
  8
Layer_11
  10
-1164.5356
  20
3468.5503
  0
VERTEX
  5
34b
  8
Layer_11
  10
-1164.5356
  20
3467.5703
  0
SEQEND
  0
POLYLINE
  5
34d
  8
Layer_11
  62
92
  66
1
  10
0
  20
0
  30
0
  0
VERTEX
  5
34d
  8
Layer_11
  10
-1164.5356
  20
3466.5903
  0
VERTEX
  5
34e
  8
Layer_11
  10
-1164.5356
  20
3463.6113
  0
SEQEND
  0
POLYLINE
  5
350
  8
Layer_11
  62
92
  66
1
  10
0
  20
0
  30
0
  0
VERTEX
  5
350
  8
Layer_11
  10
-1164.5356
  20
3462.6313
  0
VERTEX
  5
351
  8
Layer_11
  10
-1164.5356
  20
3461.6516
  0
SEQEND
  0
POLYLINE
  5
353
  8
Layer_11
  62
92
  66
1
  10
0
  20
0
  30
0
  0
VERTEX
  5
353
  8
Layer_11
  10
-1164.5356
  20
3460.6716
  0
VERTEX
  5
354
  8
Layer_11
  10
-1164.5356
  20
3457.6926
  0
SEQEND
  0
POLYLINE
  5
356
  8
Layer_11
  62
92
  66
1
  10
0
  20
0
  30
0
  0
VERTEX
  5
356
  8
Layer_11
  10
-1164.5356
  20
3456.7129
  0
VERTEX
  5
357
  8
Layer_11
  10
-1164.5356
  20
3455.7329
  0
SEQEND
  0
POLYLINE
  5
359
  8
Layer_11
  62
92
  66
1
  10
0
  20
0
  30
0
  0
VERTEX
  5
359
  8
Layer_11
  10
-1164.5356
  20
3454.7529
  0
VERTEX
  5
35a
  8
Layer_11
  10
-1164.5356
  20
3451.7739
  0
SEQEND
  0
POLYLINE
  5
35c
  8
Layer_11
  62
92
  66
1
  10
0
  20
0
  30
0
  0
VERTEX
  5
35c
  8
Layer_11
  10
-1164.5356
  20
3450.7939
  0
VERTEX
  5
35d
  8
Layer_11
  10
-1164.5356
  20
3449.8142
  0
SEQEND
  0
POLYLINE
  5
35f
  8
Layer_11
  62
92
  66
1
  10
0
  20
0
  30
0
  0
VERTEX
  5
35f
  8
Layer_11
  10
-1164.5356
  20
3448.8342
  0
VERTEX
  5
360
  8
Layer_11
  10
-1164.5356
  20
3445.8552
  0
SEQEND
  0
POLYLINE
  5
362
  8
Layer_11
  62
92
  66
1
  10
0
  20
0
  30
0
  0
VERTEX
  5
362
  8
Layer_11
  10
-1164.5356
  20
3444.8755
  0
VERTEX
  5
363
  8
Layer_11
  10
-1164.5356
  20
3443.8955
  0
SEQEND
  0
POLYLINE
  5
365
  8
Layer_11
  62
92
  66
1
  10
0
  20
0
  30
0
  0
VERTEX
  5
365
  8
Layer_11
  10
-1164.5356
  20
3442.9155
  0
VERTEX
  5
366
  8
Layer_11
  10
-1164.5356
  20
3439.9365
  0
SEQEND
  0
POLYLINE
  5
368
  8
Layer_11
  62
92
  66
1
  10
0
  20
0
  30
0
  0
VERTEX
  5
368
  8
Layer_11
  10
-1164.5356
  20
3438.9565
  0
VERTEX
  5
369
  8
Layer_11
  10
-1164.5356
  20
3437.9768
  0
SEQEND
  0
POLYLINE
  5
36b
  8
Layer_11
  62
92
  66
1
  10
0
  20
0
  30
0
  0
VERTEX
  5
36b
  8
Layer_11
  10
-1164.5356
  20
3436.9968
  0
VERTEX
  5
36c
  8
Layer_11
  10
-1164.5356
  20
3434.0178
  0
SEQEND
  0
POLYLINE
  5
36e
  8
Layer_11
  62
92
  66
1
  10
0
  20
0
  30
0
  0
VERTEX
  5
36e
  8
Layer_11
  10
-1164.5356
  20
3433.0381
  0
VERTEX
  5
36f
  8
Layer_11
  10
-1164.5356
  20
3432.0581
  0
SEQEND
  0
POLYLINE
  5
371
  8
Layer_11
  62
92
  66
1
  10
0
  20
0
  30
0
  0
VERTEX
  5
371
  8
Layer_11
  10
-1164.5356
  20
3431.0781
  0
VERTEX
  5
372
  8
Layer_11
  10
-1164.5356
  20
3428.0991
  0
SEQEND
  0
POLYLINE
  5
374
  8
Layer_11
  62
92
  66
1
  10
0
  20
0
  30
0
  0
VERTEX
  5
374
  8
Layer_11
  10
-1164.5356
  20
3427.1191
  0
VERTEX
  5
375
  8
Layer_11
  10
-1164.5356
  20
3426.1394
  0
SEQEND
  0
POLYLINE
  5
377
  8
Layer_11
  62
92
  66
1
  10
0
  20
0
  30
0
  0
VERTEX
  5
377
  8
Layer_11
  10
-1164.5356
  20
3425.1594
  0
VERTEX
  5
378
  8
Layer_11
  10
-1164.5356
  20
3422.1804
  0
SEQEND
  0
POLYLINE
  5
37a
  8
Layer_11
  62
92
  66
1
  10
0
  20
0
  30
0
  0
VERTEX
  5
37a
  8
Layer_11
  10
-1164.5356
  20
3421.2007
  0
VERTEX
  5
37b
  8
Layer_11
  10
-1164.5356
  20
3420.2207
  0
SEQEND
  0
POLYLINE
  5
37d
  8
Layer_11
  62
92
  66
1
  10
0
  20
0
  30
0
  0
VERTEX
  5
37d
  8
Layer_11
  10
-1164.5356
  20
3419.2407
  0
VERTEX
  5
37e
  8
Layer_11
  10
-1164.5356
  20
3416.2617
  0
SEQEND
  0
POLYLINE
  5
380
  8
Layer_11
  62
92
  66
1
  10
0
  20
0
  30
0
  0
VERTEX
  5
380
  8
Layer_11
  10
-1164.5356
  20
3415.2817
  0
VERTEX
  5
381
  8
Layer_11
  10
-1164.5356
  20
3414.302
  0
SEQEND
  0
POLYLINE
  5
383
  8
Layer_11
  62
92
  66
1
  10
0
  20
0
  30
0
  0
VERTEX
  5
383
  8
Layer_11
  10
-1164.5356
  20
3413.322
  0
VERTEX
  5
384
  8
Layer_11
  10
-1164.5356
  20
3410.343
  0
SEQEND
  0
POLYLINE
  5
386
  8
Layer_11
  62
92
  66
1
  10
0
  20
0
  30
0
  0
VERTEX
  5
386
  8
Layer_11
  10
-1164.5356
  20
3409.3633
  0
VERTEX
  5
387
  8
Layer_11
  10
-1164.5356
  20
3408.3833
  0
SEQEND
  0
POLYLINE
  5
389
  8
Layer_11
  62
92
  66
1
  10
0
  20
0
  30
0
  0
VERTEX
  5
389
  8
Layer_11
  10
-1164.5356
  20
3407.4033
  0
VERTEX
  5
38a
  8
Layer_11
  10
-1164.5356
  20
3404.4243
  0
SEQEND
  0
POLYLINE
  5
38c
  8
Layer_11
  62
92
  66
1
  10
0
  20
0
  30
0
  0
VERTEX
  5
38c
  8
Layer_11
  10
-1164.5356
  20
3403.4443
  0
VERTEX
  5
38d
  8
Layer_11
  10
-1164.5356
  20
3402.4646
  0
SEQEND
  0
POLYLINE
  5
38f
  8
Layer_11
  62
92
  66
1
  10
0
  20
0
  30
0
  0
VERTEX
  5
38f
  8
Layer_11
  10
-1164.5356
  20
3401.4846
  0
VERTEX
  5
390
  8
Layer_11
  10
-1164.5356
  20
3398.5056
  0
SEQEND
  0
POLYLINE
  5
392
  8
Layer_11
  62
92
  66
1
  10
0
  20
0
  30
0
  0
VERTEX
  5
392
  8
Layer_11
  10
-1164.5356
  20
3397.5259
  0
VERTEX
  5
393
  8
Layer_11
  10
-1164.5356
  20
3396.5459
  0
SEQEND
  0
POLYLINE
  5
395
  8
Layer_11
  62
92
  66
1
  10
0
  20
0
  30
0
  0
VERTEX
  5
395
  8
Layer_11
  10
-1164.5356
  20
3395.5659
  0
VERTEX
  5
396
  8
Layer_11
  10
-1164.5356
  20
3392.5869
  0
SEQEND
  0
POLYLINE
  5
398
  8
Layer_11
  62
92
  66
1
  10
0
  20
0
  30
0
  0
VERTEX
  5
398
  8
Layer_11
  10
-1164.5356
  20
3391.6069
  0
VERTEX
  5
399
  8
Layer_11
  10
-1164.5356
  20
3390.6272
  0
SEQEND
  0
POLYLINE
  5
39b
  8
Layer_11
  62
92
  66
1
  10
0
  20
0
  30
0
  0
VERTEX
  5
39b
  8
Layer_11
  10
-1164.5356
  20
3389.6472
  0
VERTEX
  5
39c
  8
Layer_11
  10
-1164.5356
  20
3386.6682
  0
SEQEND
  0
POLYLINE
  5
39e
  8
Layer_11
  62
92
  66
1
  10
0
  20
0
  30
0
  0
VERTEX
  5
39e
  8
Layer_11
  10
-1164.5356
  20
3385.6885
  0
VERTEX
  5
39f
  8
Layer_11
  10
-1164.5356
  20
3384.7085
  0
SEQEND
  0
POLYLINE
  5
3a1
  8
Layer_11
  62
92
  66
1
  10
0
  20
0
  30
0
  0
VERTEX
  5
3a1
  8
Layer_11
  10
-1164.5356
  20
3383.7285
  0
VERTEX
  5
3a2
  8
Layer_11
  10
-1164.5356
  20
3380.7495
  0
SEQEND
  0
POLYLINE
  5
3a4
  8
Layer_11
  62
92
  66
1
  10
0
  20
0
  30
0
  0
VERTEX
  5
3a4
  8
Layer_11
  10
-1164.5356
  20
3379.7695
  0
VERTEX
  5
3a5
  8
Layer_11
  10
-1164.5356
  20
3378.7898
  0
SEQEND
  0
POLYLINE
  5
3a7
  8
Layer_11
  62
92
  66
1
  10
0
  20
0
  30
0
  0
VERTEX
  5
3a7
  8
Layer_11
  10
-1164.5356
  20
3377.8098
  0
VERTEX
  5
3a8
  8
Layer_11
  10
-1164.5356
  20
3374.8308
  0
SEQEND
  0
POLYLINE
  5
3aa
  8
Layer_11
  62
92
  66
1
  10
0
  20
0
  30
0
  0
VERTEX
  5
3aa
  8
Layer_11
  10
-1164.5356
  20
3373.8511
  0
VERTEX
  5
3ab
  8
Layer_11
  10
-1164.5356
  20
3372.8711
  0
SEQEND
  0
POLYLINE
  5
3ad
  8
Layer_11
  62
92
  66
1
  10
0
  20
0
  30
0
  0
VERTEX
  5
3ad
  8
Layer_11
  10
-1164.5356
  20
3371.8911
  0
VERTEX
  5
3ae
  8
Layer_11
  10
-1164.5356
  20
3368.9121
  0
SEQEND
  0
POLYLINE
  5
3b0
  8
Layer_11
  62
92
  66
1
  10
0
  20
0
  30
0
  0
VERTEX
  5
3b0
  8
Layer_11
  10
-1164.5356
  20
3367.9321
  0
VERTEX
  5
3b1
  8
Layer_11
  10
-1164.5356
  20
3366.9524
  0
SEQEND
  0
POLYLINE
  5
3b3
  8
Layer_11
  62
92
  66
1
  10
0
  20
0
  30
0
  0
VERTEX
  5
3b3
  8
Layer_11
  10
-1164.5356
  20
3365.9724
  0
VERTEX
  5
3b4
  8
Layer_11
  10
-1164.5356
  20
3362.9934
  0
SEQEND
  0
POLYLINE
  5
3b6
  8
Layer_11
  62
92
  66
1
  10
0
  20
0
  30
0
  0
VERTEX
  5
3b6
  8
Layer_11
  10
-1164.5356
  20
3362.0137
  0
VERTEX
  5
3b7
  8
Layer_11
  10
-1164.5356
  20
3361.0337
  0
SEQEND
  0
POLYLINE
  5
3b9
  8
Layer_11
  62
92
  66
1
  10
0
  20
0
  30
0
  0
VERTEX
  5
3b9
  8
Layer_11
  10
-1164.5356
  20
3360.0537
  0
VERTEX
  5
3ba
  8
Layer_11
  10
-1164.5356
  20
3357.0747
  0
SEQEND
  0
POLYLINE
  5
3bc
  8
Layer_11
  62
92
  66
1
  10
0
  20
0
  30
0
  0
VERTEX
  5
3bc
  8
Layer_11
  10
-1164.5356
  20
3356.095
  0
VERTEX
  5
3bd
  8
Layer_11
  10
-1164.5356
  20
3355.115
  0
SEQEND
  0
POLYLINE
  5
3bf
  8
Layer_11
  62
92
  66
1
  10
0
  20
0
  30
0
  0
VERTEX
  5
3bf
  8
Layer_11
  10
-1164.5356
  20
3354.135
  0
VERTEX
  5
3c0
  8
Layer_11
  10
-1164.5356
  20
3351.156
  0
SEQEND
  0
POLYLINE
  5
3c2
  8
Layer_11
  62
92
  66
1
  10
0
  20
0
  30
0
  0
VERTEX
  5
3c2
  8
Layer_11
  10
-1164.5356
  20
3350.1763
  0
VERTEX
  5
3c3
  8
Layer_11
  10
-1164.5356
  20
3349.1963
  0
SEQEND
  0
POLYLINE
  5
3c5
  8
Layer_11
  62
92
  66
1
  10
0
  20
0
  30
0
  0
VERTEX
  5
3c5
  8
Layer_11
  10
-1164.5356
  20
3348.2163
  0
VERTEX
  5
3c6
  8
Layer_11
  10
-1164.5356
  20
3345.2373
  0
SEQEND
  0
POLYLINE
  5
3c8
  8
Layer_11
  62
92
  66
1
  10
0
  20
0
  30
0
  0
VERTEX
  5
3c8
  8
Layer_11
  10
-1164.5356
  20
3344.2576
  0
VERTEX
  5
3c9
  8
Layer_11
  10
-1164.5356
  20
3343.2776
  0
SEQEND
  0
POLYLINE
  5
3cb
  8
Layer_11
  62
92
  66
1
  10
0
  20
0
  30
0
  0
VERTEX
  5
3cb
  8
Layer_11
  10
-1164.5356
  20
3342.2976
  0
VERTEX
  5
3cc
  8
Layer_11
  10
-1164.5356
  20
3339.3186
  0
SEQEND
  0
POLYLINE
  5
3ce
  8
Layer_11
  62
92
  66
1
  10
0
  20
0
  30
0
  0
VERTEX
  5
3ce
  8
Layer_11
  10
-1164.5356
  20
3338.3389
  0
VERTEX
  5
3cf
  8
Layer_11
  10
-1164.5356
  20
3337.3589
  0
SEQEND
  0
POLYLINE
  5
3d1
  8
Layer_11
  62
92
  66
1
  10
0
  20
0
  30
0
  0
VERTEX
  5
3d1
  8
Layer_11
  10
-1164.5356
  20
3336.3789
  0
VERTEX
  5
3d2
  8
Layer_11
  10
-1164.5356
  20
3333.3999
  0
SEQEND
  0
POLYLINE
  5
3d4
  8
Layer_11
  62
92
  66
1
  10
0
  20
0
  30
0
  0
VERTEX
  5
3d4
  8
Layer_11
  10
-1164.5356
  20
3332.4202
  0
VERTEX
  5
3d5
  8
Layer_11
  10
-1164.5356
  20
3331.4402
  0
SEQEND
  0
POLYLINE
  5
3d7
  8
Layer_11
  62
92
  66
1
  10
0
  20
0
  30
0
  0
VERTEX
  5
3d7
  8
Layer_11
  10
-1164.5356
  20
3330.4602
  0
VERTEX
  5
3d8
  8
Layer_11
  10
-1164.5356
  20
3327.4812
  0
SEQEND
  0
POLYLINE
  5
3da
  8
Layer_11
  62
92
  66
1
  10
0
  20
0
  30
0
  0
VERTEX
  5
3da
  8
Layer_11
  10
-1164.5356
  20
3326.5015
  0
VERTEX
  5
3db
  8
Layer_11
  10
-1164.5356
  20
3325.5215
  0
SEQEND
  0
POLYLINE
  5
3dd
  8
Layer_11
  62
92
  66
1
  10
0
  20
0
  30
0
  0
VERTEX
  5
3dd
  8
Layer_11
  10
-1164.5356
  20
3324.5415
  0
VERTEX
  5
3de
  8
Layer_11
  10
-1164.5356
  20
3321.5625
  0
SEQEND
  0
POLYLINE
  5
3e0
  8
Layer_11
  62
92
  66
1
  10
0
  20
0
  30
0
  0
VERTEX
  5
3e0
  8
Layer_11
  10
-1164.5356
  20
3320.5828
  0
VERTEX
  5
3e1
  8
Layer_11
  10
-1164.5356
  20
3319.6028
  0
SEQEND
  0
POLYLINE
  5
3e3
  8
Layer_11
  62
92
  66
1
  10
0
  20
0
  30
0
  0
VERTEX
  5
3e3
  8
Layer_11
  10
-1164.5356
  20
3318.6228
  0
VERTEX
  5
3e4
  8
Layer_11
  10
-1164.5356
  20
3315.6438
  0
SEQEND
  0
POLYLINE
  5
3e6
  8
Layer_11
  62
92
  66
1
  10
0
  20
0
  30
0
  0
VERTEX
  5
3e6
  8
Layer_11
  10
-1164.5356
  20
3314.6641
  0
VERTEX
  5
3e7
  8
Layer_11
  10
-1164.5356
  20
3313.6841
  0
SEQEND
  0
POLYLINE
  5
3e9
  8
Layer_11
  62
92
  66
1
  10
0
  20
0
  30
0
  0
VERTEX
  5
3e9
  8
Layer_11
  10
-1164.5356
  20
3312.7041
  0
VERTEX
  5
3ea
  8
Layer_11
  10
-1164.5356
  20
3309.7251
  0
SEQEND
  0
POLYLINE
  5
3ec
  8
Layer_11
  62
92
  66
1
  10
0
  20
0
  30
0
  0
VERTEX
  5
3ec
  8
Layer_11
  10
-1164.5356
  20
3308.7454
  0
VERTEX
  5
3ed
  8
Layer_11
  10
-1164.5356
  20
3307.7654
  0
SEQEND
  0
POLYLINE
  5
3ef
  8
Layer_11
  62
92
  66
1
  10
0
  20
0
  30
0
  0
VERTEX
  5
3ef
  8
Layer_11
  10
-1164.5356
  20
3306.7854
  0
VERTEX
  5
3f0
  8
Layer_11
  10
-1164.5356
  20
3303.8064
  0
SEQEND
  0
POLYLINE
  5
3f2
  8
Layer_11
  62
92
  66
1
  10
0
  20
0
  30
0
  0
VERTEX
  5
3f2
  8
Layer_11
  10
-1164.5356
  20
3302.8267
  0
VERTEX
  5
3f3
  8
Layer_11
  10
-1164.5356
  20
3301.8467
  0
SEQEND
  0
POLYLINE
  5
3f5
  8
Layer_11
  62
92
  66
1
  10
0
  20
0
  30
0
  0
VERTEX
  5
3f5
  8
Layer_11
  10
-1164.5356
  20
3300.8667
  0
VERTEX
  5
3f6
  8
Layer_11
  10
-1164.5356
  20
3297.8877
  0
SEQEND
  0
POLYLINE
  5
3f8
  8
Layer_11
  62
92
  66
1
  10
0
  20
0
  30
0
  0
VERTEX
  5
3f8
  8
Layer_11
  10
-1164.5356
  20
3296.908
  0
VERTEX
  5
3f9
  8
Layer_11
  10
-1164.5356
  20
3295.928
  0
SEQEND
  0
POLYLINE
  5
3fb
  8
Layer_11
  62
92
  66
1
  10
0
  20
0
  30
0
  0
VERTEX
  5
3fb
  8
Layer_11
  10
-1164.5356
  20
3294.948
  0
VERTEX
  5
3fc
  8
Layer_11
  10
-1164.5356
  20
3291.969
  0
SEQEND
  0
POLYLINE
  5
3fe
  8
Layer_11
  62
92
  66
1
  10
0
  20
0
  30
0
  0
VERTEX
  5
3fe
  8
Layer_11
  10
-1164.5356
  20
3290.9893
  0
VERTEX
  5
3ff
  8
Layer_11
  10
-1164.5356
  20
3290.0093
  0
SEQEND
  0
POLYLINE
  5
401
  8
Layer_11
  62
92
  66
1
  10
0
  20
0
  30
0
  0
VERTEX
  5
401
  8
Layer_11
  10
-1164.5356
  20
3289.0293
  0
VERTEX
  5
402
  8
Layer_11
  10
-1164.5356
  20
3286.0503
  0
SEQEND
  0
POLYLINE
  5
404
  8
Layer_11
  62
92
  66
1
  10
0
  20
0
  30
0
  0
VERTEX
  5
404
  8
Layer_11
  10
-1164.5356
  20
3285.0706
  0
VERTEX
  5
405
  8
Layer_11
  10
-1164.5356
  20
3284.0906
  0
SEQEND
  0
POLYLINE
  5
407
  8
Layer_11
  62
92
  66
1
  10
0
  20
0
  30
0
  0
VERTEX
  5
407
  8
Layer_11
  10
-1164.5356
  20
3283.1106
  0
VERTEX
  5
408
  8
Layer_11
  10
-1164.5356
  20
3280.1316
  0
SEQEND
  0
POLYLINE
  5
40a
  8
Layer_11
  62
92
  66
1
  10
0
  20
0
  30
0
  0
VERTEX
  5
40a
  8
Layer_11
  10
-1164.5356
  20
3279.1519
  0
VERTEX
  5
40b
  8
Layer_11
  10
-1164.5356
  20
3278.1719
  0
SEQEND
  0
POLYLINE
  5
40d
  8
Layer_11
  62
92
  66
1
  10
0
  20
0
  30
0
  0
VERTEX
  5
40d
  8
Layer_11
  10
-1164.5356
  20
3277.1919
  0
VERTEX
  5
40e
  8
Layer_11
  10
-1164.5356
  20
3274.2129
  0
SEQEND
  0
POLYLINE
  5
410
  8
Layer_11
  62
92
  66
1
  10
0
  20
0
  30
0
  0
VERTEX
  5
410
  8
Layer_11
  10
-1164.5356
  20
3273.2332
  0
VERTEX
  5
411
  8
Layer_11
  10
-1164.5356
  20
3272.2532
  0
SEQEND
  0
POLYLINE
  5
413
  8
Layer_11
  62
92
  66
1
  10
0
  20
0
  30
0
  0
VERTEX
  5
413
  8
Layer_11
  10
-1164.5356
  20
3271.2732
  0
VERTEX
  5
414
  8
Layer_11
  10
-1164.5356
  20
3268.2942
  0
SEQEND
  0
POLYLINE
  5
416
  8
Layer_11
  62
92
  66
1
  10
0
  20
0
  30
0
  0
VERTEX
  5
416
  8
Layer_11
  10
-1164.5356
  20
3267.3145
  0
VERTEX
  5
417
  8
Layer_11
  10
-1164.5356
  20
3266.3345
  0
SEQEND
  0
POLYLINE
  5
419
  8
Layer_11
  62
92
  66
1
  10
0
  20
0
  30
0
  0
VERTEX
  5
419
  8
Layer_11
  10
-1164.5356
  20
3265.3545
  0
VERTEX
  5
41a
  8
Layer_11
  10
-1164.5356
  20
3262.3755
  0
SEQEND
  0
POLYLINE
  5
41c
  8
Layer_11
  62
92
  66
1
  10
0
  20
0
  30
0
  0
VERTEX
  5
41c
  8
Layer_11
  10
-1164.5356
  20
3261.3958
  0
VERTEX
  5
41d
  8
Layer_11
  10
-1164.5356
  20
3260.4158
  0
SEQEND
  0
POLYLINE
  5
41f
  8
Layer_11
  62
92
  66
1
  10
0
  20
0
  30
0
  0
VERTEX
  5
41f
  8
Layer_11
  10
-1164.5356
  20
3259.4358
  0
VERTEX
  5
420
  8
Layer_11
  10
-1164.5356
  20
3256.4568
  0
SEQEND
  0
POLYLINE
  5
422
  8
Layer_11
  62
92
  66
1
  10
0
  20
0
  30
0
  0
VERTEX
  5
422
  8
Layer_11
  10
-1164.5356
  20
3255.4771
  0
VERTEX
  5
423
  8
Layer_11
  10
-1164.5356
  20
3254.4971
  0
SEQEND
  0
POLYLINE
  5
425
  8
Layer_11
  62
92
  66
1
  10
0
  20
0
  30
0
  0
VERTEX
  5
425
  8
Layer_11
  10
-1164.5356
  20
3253.5171
  0
VERTEX
  5
426
  8
Layer_11
  10
-1164.5356
  20
3250.5381
  0
SEQEND
  0
POLYLINE
  5
428
  8
Layer_11
  62
92
  66
1
  10
0
  20
0
  30
0
  0
VERTEX
  5
428
  8
Layer_11
  10
-1164.5356
  20
3249.5583
  0
VERTEX
  5
429
  8
Layer_11
  10
-1164.5356
  20
3248.5784
  0
SEQEND
  0
POLYLINE
  5
42b
  8
Layer_11
  62
92
  66
1
  10
0
  20
0
  30
0
  0
VERTEX
  5
42b
  8
Layer_11
  10
-1164.5356
  20
3247.5984
  0
VERTEX
  5
42c
  8
Layer_11
  10
-1164.5356
  20
3244.6196
  0
SEQEND
  0
POLYLINE
  5
42e
  8
Layer_11
  62
92
  66
1
  10
0
  20
0
  30
0
  0
VERTEX
  5
42e
  8
Layer_11
  10
-1164.5356
  20
3243.6396
  0
VERTEX
  5
42f
  8
Layer_11
  10
-1164.5356
  20
3242.6597
  0
SEQEND
  0
POLYLINE
  5
431
  8
Layer_11
  62
92
  66
1
  10
0
  20
0
  30
0
  0
VERTEX
  5
431
  8
Layer_11
  10
-1164.5356
  20
3241.6797
  0
VERTEX
  5
432
  8
Layer_11
  10
-1164.5356
  20
3238.7007
  0
SEQEND
  0
POLYLINE
  5
434
  8
Layer_11
  62
92
  66
1
  10
0
  20
0
  30
0
  0
VERTEX
  5
434
  8
Layer_11
  10
-1164.5356
  20
3237.7209
  0
VERTEX
  5
435
  8
Layer_11
  10
-1164.5356
  20
3236.741
  0
SEQEND
  0
POLYLINE
  5
437
  8
Layer_11
  62
92
  66
1
  10
0
  20
0
  30
0
  0
VERTEX
  5
437
  8
Layer_11
  10
-1164.5356
  20
3235.7612
  0
VERTEX
  5
438
  8
Layer_11
  10
-1164.5356
  20
3232.7822
  0
SEQEND
  0
POLYLINE
  5
43a
  8
Layer_11
  62
92
  66
1
  10
0
  20
0
  30
0
  0
VERTEX
  5
43a
  8
Layer_11
  10
-1164.5356
  20
3231.8022
  0
VERTEX
  5
43b
  8
Layer_11
  10
-1164.5356
  20
3230.8223
  0
SEQEND
  0
POLYLINE
  5
43d
  8
Layer_11
  62
92
  66
1
  10
0
  20
0
  30
0
  0
VERTEX
  5
43d
  8
Layer_11
  10
-1164.5356
  20
3229.8423
  0
VERTEX
  5
43e
  8
Layer_11
  10
-1164.5356
  20
3226.8633
  0
SEQEND
  0
POLYLINE
  5
440
  8
Layer_11
  62
92
  66
1
  10
0
  20
0
  30
0
  0
VERTEX
  5
440
  8
Layer_11
  10
-1164.5356
  20
3225.8835
  0
VERTEX
  5
441
  8
Layer_11
  10
-1164.5356
  20
3224.9036
  0
SEQEND
  0
POLYLINE
  5
443
  8
Layer_11
  62
92
  66
1
  10
0
  20
0
  30
0
  0
VERTEX
  5
443
  8
Layer_11
  10
-1164.5356
  20
3223.9238
  0
VERTEX
  5
444
  8
Layer_11
  10
-1164.5356
  20
3220.9448
  0
SEQEND
  0
POLYLINE
  5
446
  8
Layer_11
  62
92
  66
1
  10
0
  20
0
  30
0
  0
VERTEX
  5
446
  8
Layer_11
  10
-1164.5356
  20
3219.9648
  0
VERTEX
  5
447
  8
Layer_11
  10
-1164.5356
  20
3218.9849
  0
SEQEND
  0
POLYLINE
  5
449
  8
Layer_11
  62
92
  66
1
  10
0
  20
0
  30
0
  0
VERTEX
  5
449
  8
Layer_11
  10
-1164.5356
  20
3218.0049
  0
VERTEX
  5
44a
  8
Layer_11
  10
-1164.5356
  20
3215.0259
  0
SEQEND
  0
POLYLINE
  5
44c
  8
Layer_11
  62
92
  66
1
  10
0
  20
0
  30
0
  0
VERTEX
  5
44c
  8
Layer_11
  10
-1164.5356
  20
3214.0461
  0
VERTEX
  5
44d
  8
Layer_11
  10
-1164.5356
  20
3213.0662
  0
SEQEND
  0
POLYLINE
  5
44f
  8
Layer_11
  62
92
  66
1
  10
0
  20
0
  30
0
  0
VERTEX
  5
44f
  8
Layer_11
  10
-1164.5356
  20
3212.0864
  0
VERTEX
  5
450
  8
Layer_11
  10
-1164.5356
  20
3209.1074
  0
SEQEND
  0
POLYLINE
  5
452
  8
Layer_11
  62
92
  66
1
  10
0
  20
0
  30
0
  0
VERTEX
  5
452
  8
Layer_11
  10
-1164.5356
  20
3208.1274
  0
VERTEX
  5
453
  8
Layer_11
  10
-1164.5356
  20
3207.1475
  0
SEQEND
  0
POLYLINE
  5
455
  8
Layer_11
  62
92
  66
1
  10
0
  20
0
  30
0
  0
VERTEX
  5
455
  8
Layer_11
  10
-1164.5356
  20
3206.1675
  0
VERTEX
  5
456
  8
Layer_11
  10
-1164.5356
  20
3203.1885
  0
SEQEND
  0
POLYLINE
  5
458
  8
Layer_11
  62
92
  66
1
  10
0
  20
0
  30
0
  0
VERTEX
  5
458
  8
Layer_11
  10
-1164.5356
  20
3202.2087
  0
VERTEX
  5
459
  8
Layer_11
  10
-1164.5356
  20
3201.2288
  0
SEQEND
  0
POLYLINE
  5
45b
  8
Layer_11
  62
92
  66
1
  10
0
  20
0
  30
0
  0
VERTEX
  5
45b
  8
Layer_11
  10
-1164.5356
  20
3200.249
  0
VERTEX
  5
45c
  8
Layer_11
  10
-1164.5356
  20
3197.27
  0
SEQEND
  0
POLYLINE
  5
45e
  8
Layer_11
  62
92
  66
1
  10
0
  20
0
  30
0
  0
VERTEX
  5
45e
  8
Layer_11
  10
-1164.5356
  20
3196.29
  0
VERTEX
  5
45f
  8
Layer_11
  10
-1164.5356
  20
3195.3101
  0
SEQEND
  0
POLYLINE
  5
461
  8
Layer_11
  62
92
  66
1
  10
0
  20
0
  30
0
  0
VERTEX
  5
461
  8
Layer_11
  10
-1164.5356
  20
3194.3301
  0
VERTEX
  5
462
  8
Layer_11
  10
-1164.5356
  20
3191.3511
  0
SEQEND
  0
POLYLINE
  5
464
  8
Layer_11
  62
92
  66
1
  10
0
  20
0
  30
0
  0
VERTEX
  5
464
  8
Layer_11
  10
-1164.5356
  20
3190.3713
  0
VERTEX
  5
465
  8
Layer_11
  10
-1164.5356
  20
3189.3914
  0
SEQEND
  0
POLYLINE
  5
467
  8
Layer_11
  62
92
  66
1
  10
0
  20
0
  30
0
  0
VERTEX
  5
467
  8
Layer_11
  10
-1164.5356
  20
3188.4116
  0
VERTEX
  5
468
  8
Layer_11
  10
-1164.5356
  20
3185.4326
  0
SEQEND
  0
POLYLINE
  5
46a
  8
Layer_11
  62
92
  66
1
  10
0
  20
0
  30
0
  0
VERTEX
  5
46a
  8
Layer_11
  10
-1164.5356
  20
3184.4526
  0
VERTEX
  5
46b
  8
Layer_11
  10
-1164.5356
  20
3183.4727
  0
SEQEND
  0
POLYLINE
  5
46d
  8
Layer_11
  62
92
  66
1
  10
0
  20
0
  30
0
  0
VERTEX
  5
46d
  8
Layer_11
  10
-1164.5356
  20
3182.4927
  0
VERTEX
  5
46e
  8
Layer_11
  10
-1164.5356
  20
3179.5137
  0
SEQEND
  0
POLYLINE
  5
470
  8
Layer_11
  62
92
  66
1
  10
0
  20
0
  30
0
  0
VERTEX
  5
470
  8
Layer_11
  10
-1164.5356
  20
3178.5339
  0
VERTEX
  5
471
  8
Layer_11
  10
-1164.5356
  20
3177.554
  0
SEQEND
  0
POLYLINE
  5
473
  8
Layer_11
  62
92
  66
1
  10
0
  20
0
  30
0
  0
VERTEX
  5
473
  8
Layer_11
  10
-1164.5356
  20
3176.5742
  0
VERTEX
  5
474
  8
Layer_11
  10
-1164.5356
  20
3173.5952
  0
SEQEND
  0
POLYLINE
  5
476
  8
Layer_11
  62
92
  66
1
  10
0
  20
0
  30
0
  0
VERTEX
  5
476
  8
Layer_11
  10
-1164.5356
  20
3172.6152
  0
VERTEX
  5
477
  8
Layer_11
  10
-1164.5356
  20
3171.6353
  0
SEQEND
  0
POLYLINE
  5
479
  8
Layer_11
  62
92
  66
1
  10
0
  20
0
  30
0
  0
VERTEX
  5
479
  8
Layer_11
  10
-1164.5356
  20
3170.6553
  0
VERTEX
  5
47a
  8
Layer_11
  10
-1164.5356
  20
3167.6763
  0
SEQEND
  0
POLYLINE
  5
47c
  8
Layer_11
  62
92
  66
1
  10
0
  20
0
  30
0
  0
VERTEX
  5
47c
  8
Layer_11
  10
-1164.5356
  20
3166.6965
  0
VERTEX
  5
47d
  8
Layer_11
  10
-1164.5356
  20
3165.7166
  0
SEQEND
  0
POLYLINE
  5
47f
  8
Layer_11
  62
92
  66
1
  10
0
  20
0
  30
0
  0
VERTEX
  5
47f
  8
Layer_11
  10
-1164.5356
  20
3164.7368
  0
VERTEX
  5
480
  8
Layer_11
  10
-1164.5356
  20
3161.7578
  0
SEQEND
  0
POLYLINE
  5
482
  8
Layer_11
  62
92
  66
1
  10
0
  20
0
  30
0
  0
VERTEX
  5
482
  8
Layer_11
  10
-1164.5356
  20
3160.7778
  0
VERTEX
  5
483
  8
Layer_11
  10
-1164.5356
  20
3159.7979
  0
SEQEND
  0
POLYLINE
  5
485
  8
Layer_11
  62
92
  66
1
  10
0
  20
0
  30
0
  0
VERTEX
  5
485
  8
Layer_11
  10
-1164.5356
  20
3158.8179
  0
VERTEX
  5
486
  8
Layer_11
  10
-1164.5356
  20
3155.8389
  0
SEQEND
  0
POLYLINE
  5
488
  8
Layer_11
  62
92
  66
1
  10
0
  20
0
  30
0
  0
VERTEX
  5
488
  8
Layer_11
  10
-1164.5356
  20
3154.8591
  0
VERTEX
  5
489
  8
Layer_11
  10
-1164.5356
  20
3153.8792
  0
SEQEND
  0
POLYLINE
  5
48b
  8
Layer_11
  62
92
  66
1
  10
0
  20
0
  30
0
  0
VERTEX
  5
48b
  8
Layer_11
  10
-1164.5356
  20
3152.8992
  0
VERTEX
  5
48c
  8
Layer_11
  10
-1164.5356
  20
3149.9204
  0
SEQEND
  0
POLYLINE
  5
48e
  8
Layer_11
  62
92
  66
1
  10
0
  20
0
  30
0
  0
VERTEX
  5
48e
  8
Layer_11
  10
-1164.5356
  20
3148.9404
  0
VERTEX
  5
48f
  8
Layer_11
  10
-1164.5356
  20
3147.9604
  0
SEQEND
  0
POLYLINE
  5
491
  8
Layer_11
  62
92
  66
1
  10
0
  20
0
  30
0
  0
VERTEX
  5
491
  8
Layer_11
  10
-1164.5356
  20
3146.9805
  0
VERTEX
  5
492
  8
Layer_11
  10
-1164.5356
  20
3144.0015
  0
SEQEND
  0
POLYLINE
  5
494
  8
Layer_11
  62
92
  66
1
  10
0
  20
0
  30
0
  0
VERTEX
  5
494
  8
Layer_11
  10
-1164.5356
  20
3143.0217
  0
VERTEX
  5
495
  8
Layer_11
  10
-1164.5356
  20
3142.0417
  0
SEQEND
  0
POLYLINE
  5
497
  8
Layer_11
  62
92
  66
1
  10
0
  20
0
  30
0
  0
VERTEX
  5
497
  8
Layer_11
  10
-1164.5356
  20
3141.062
  0
VERTEX
  5
498
  8
Layer_11
  10
-1164.5356
  20
3138.083
  0
SEQEND
  0
POLYLINE
  5
49a
  8
Layer_11
  62
92
  66
1
  10
0
  20
0
  30
0
  0
VERTEX
  5
49a
  8
Layer_11
  10
-1164.5356
  20
3137.103
  0
VERTEX
  5
49b
  8
Layer_11
  10
-1164.5356
  20
3136.123
  0
SEQEND
  0
POLYLINE
  5
49d
  8
Layer_11
  62
92
  66
1
  10
0
  20
0
  30
0
  0
VERTEX
  5
49d
  8
Layer_11
  10
-1164.5356
  20
3135.1431
  0
VERTEX
  5
49e
  8
Layer_11
  10
-1164.5356
  20
3132.1641
  0
SEQEND
  0
POLYLINE
  5
4a0
  8
Layer_11
  62
92
  66
1
  10
0
  20
0
  30
0
  0
VERTEX
  5
4a0
  8
Layer_11
  10
-1164.5356
  20
3131.1843
  0
VERTEX
  5
4a1
  8
Layer_11
  10
-1164.5356
  20
3130.2043
  0
SEQEND
  0
POLYLINE
  5
4a3
  8
Layer_11
  62
92
  66
1
  10
0
  20
0
  30
0
  0
VERTEX
  5
4a3
  8
Layer_11
  10
-1164.5356
  20
3129.2246
  0
VERTEX
  5
4a4
  8
Layer_11
  10
-1164.5356
  20
3126.2456
  0
SEQEND
  0
POLYLINE
  5
4a6
  8
Layer_11
  62
92
  66
1
  10
0
  20
0
  30
0
  0
VERTEX
  5
4a6
  8
Layer_11
  10
-1164.5356
  20
3125.2656
  0
VERTEX
  5
4a7
  8
Layer_11
  10
-1164.5356
  20
3124.2856
  0
SEQEND
  0
POLYLINE
  5
4a9
  8
Layer_11
  62
92
  66
1
  10
0
  20
0
  30
0
  0
VERTEX
  5
4a9
  8
Layer_11
  10
-1164.5356
  20
3123.3057
  0
VERTEX
  5
4aa
  8
Layer_11
  10
-1164.5356
  20
3120.3267
  0
SEQEND
  0
POLYLINE
  5
4ac
  8
Layer_11
  62
92
  66
1
  10
0
  20
0
  30
0
  0
VERTEX
  5
4ac
  8
Layer_11
  10
-1164.5356
  20
3119.3469
  0
VERTEX
  5
4ad
  8
Layer_11
  10
-1164.5356
  20
3118.3669
  0
SEQEND
  0
POLYLINE
  5
4af
  8
Layer_11
  62
92
  66
1
  10
0
  20
0
  30
0
  0
VERTEX
  5
4af
  8
Layer_11
  10
-1164.5356
  20
3117.3872
  0
VERTEX
  5
4b0
  8
Layer_11
  10
-1164.5356
  20
3114.4082
  0
SEQEND
  0
POLYLINE
  5
4b2
  8
Layer_11
  62
92
  66
1
  10
0
  20
0
  30
0
  0
VERTEX
  5
4b2
  8
Layer_11
  10
-1164.5356
  20
3113.4282
  0
VERTEX
  5
4b3
  8
Layer_11
  10
-1164.5356
  20
3112.4482
  0
SEQEND
  0
POLYLINE
  5
4b5
  8
Layer_11
  62
92
  66
1
  10
0
  20
0
  30
0
  0
VERTEX
  5
4b5
  8
Layer_11
  10
-1164.5356
  20
3111.4683
  0
VERTEX
  5
4b6
  8
Layer_11
  10
-1164.5356
  20
3108.4893
  0
SEQEND
  0
POLYLINE
  5
4b8
  8
Layer_11
  62
92
  66
1
  10
0
  20
0
  30
0
  0
VERTEX
  5
4b8
  8
Layer_11
  10
-1164.5356
  20
3107.5095
  0
VERTEX
  5
4b9
  8
Layer_11
  10
-1164.5356
  20
3106.5295
  0
SEQEND
  0
POLYLINE
  5
4bb
  8
Layer_11
  62
92
  66
1
  10
0
  20
0
  30
0
  0
VERTEX
  5
4bb
  8
Layer_11
  10
-1164.5356
  20
3105.5498
  0
VERTEX
  5
4bc
  8
Layer_11
  10
-1164.5356
  20
3102.5708
  0
SEQEND
  0
POLYLINE
  5
4be
  8
Layer_11
  62
92
  66
1
  10
0
  20
0
  30
0
  0
VERTEX
  5
4be
  8
Layer_11
  10
-1164.5356
  20
3101.5908
  0
VERTEX
  5
4bf
  8
Layer_11
  10
-1164.5356
  20
3100.6108
  0
SEQEND
  0
POLYLINE
  5
4c1
  8
Layer_11
  62
92
  66
1
  10
0
  20
0
  30
0
  0
VERTEX
  5
4c1
  8
Layer_11
  10
-1164.5356
  20
3099.6309
  0
VERTEX
  5
4c2
  8
Layer_11
  10
-1164.5356
  20
3096.6519
  0
SEQEND
  0
POLYLINE
  5
4c4
  8
Layer_11
  62
92
  66
1
  10
0
  20
0
  30
0
  0
VERTEX
  5
4c4
  8
Layer_11
  10
-1164.5356
  20
3095.6721
  0
VERTEX
  5
4c5
  8
Layer_11
  10
-1164.5356
  20
3094.6921
  0
SEQEND
  0
POLYLINE
  5
4c7
  8
Layer_11
  62
92
  66
1
  10
0
  20
0
  30
0
  0
VERTEX
  5
4c7
  8
Layer_11
  10
-1164.5356
  20
3093.7124
  0
VERTEX
  5
4c8
  8
Layer_11
  10
-1164.5356
  20
3090.7334
  0
SEQEND
  0
POLYLINE
  5
4ca
  8
Layer_11
  62
92
  66
1
  10
0
  20
0
  30
0
  0
VERTEX
  5
4ca
  8
Layer_11
  10
-1164.5356
  20
3089.7534
  0
VERTEX
  5
4cb
  8
Layer_11
  10
-1164.5356
  20
3088.7734
  0
SEQEND
  0
POLYLINE
  5
4cd
  8
Layer_11
  62
92
  66
1
  10
0
  20
0
  30
0
  0
VERTEX
  5
4cd
  8
Layer_11
  10
-1164.5356
  20
3087.7935
  0
VERTEX
  5
4ce
  8
Layer_11
  10
-1164.5356
  20
3084.8145
  0
SEQEND
  0
POLYLINE
  5
4d0
  8
Layer_11
  62
92
  66
1
  10
0
  20
0
  30
0
  0
VERTEX
  5
4d0
  8
Layer_11
  10
-1164.5356
  20
3083.8347
  0
VERTEX
  5
4d1
  8
Layer_11
  10
-1164.5356
  20
3082.8547
  0
SEQEND
  0
POLYLINE
  5
4d3
  8
Layer_11
  62
92
  66
1
  10
0
  20
0
  30
0
  0
VERTEX
  5
4d3
  8
Layer_11
  10
-1164.5356
  20
3081.875
  0
VERTEX
  5
4d4
  8
Layer_11
  10
-1164.5356
  20
3078.896
  0
SEQEND
  0
POLYLINE
  5
4d6
  8
Layer_11
  62
92
  66
1
  10
0
  20
0
  30
0
  0
VERTEX
  5
4d6
  8
Layer_11
  10
-1164.5356
  20
3077.916
  0
VERTEX
  5
4d7
  8
Layer_11
  10
-1164.5356
  20
3076.936
  0
SEQEND
  0
POLYLINE
  5
4d9
  8
Layer_11
  62
92
  66
1
  10
0
  20
0
  30
0
  0
VERTEX
  5
4d9
  8
Layer_11
  10
-1164.5356
  20
3075.9561
  0
VERTEX
  5
4da
  8
Layer_11
  10
-1164.5356
  20
3072.9771
  0
SEQEND
  0
POLYLINE
  5
4dc
  8
Layer_11
  62
92
  66
1
  10
0
  20
0
  30
0
  0
VERTEX
  5
4dc
  8
Layer_11
  10
-1164.5356
  20
3071.9973
  0
VERTEX
  5
4dd
  8
Layer_11
  10
-1164.5356
  20
3071.0173
  0
SEQEND
  0
POLYLINE
  5
4df
  8
Layer_11
  62
92
  66
1
  10
0
  20
0
  30
0
  0
VERTEX
  5
4df
  8
Layer_11
  10
-1164.5356
  20
3070.0376
  0
VERTEX
  5
4e0
  8
Layer_11
  10
-1164.5356
  20
3067.0586
  0
SEQEND
  0
POLYLINE
  5
4e2
  8
Layer_11
  62
92
  66
1
  10
0
  20
0
  30
0
  0
VERTEX
  5
4e2
  8
Layer_11
  10
-1164.5356
  20
3066.0786
  0
VERTEX
  5
4e3
  8
Layer_11
  10
-1164.5356
  20
3065.0986
  0
SEQEND
  0
POLYLINE
  5
4e5
  8
Layer_11
  62
92
  66
1
  10
0
  20
0
  30
0
  0
VERTEX
  5
4e5
  8
Layer_11
  10
-1164.5356
  20
3064.1187
  0
VERTEX
  5
4e6
  8
Layer_11
  10
-1164.5356
  20
3061.1396
  0
SEQEND
  0
POLYLINE
  5
4e8
  8
Layer_11
  62
92
  66
1
  10
0
  20
0
  30
0
  0
VERTEX
  5
4e8
  8
Layer_11
  10
-1164.5356
  20
3060.1599
  0
VERTEX
  5
4e9
  8
Layer_11
  10
-1164.5356
  20
3059.1799
  0
SEQEND
  0
POLYLINE
  5
4eb
  8
Layer_11
  62
92
  66
1
  10
0
  20
0
  30
0
  0
VERTEX
  5
4eb
  8
Layer_11
  10
-1164.5356
  20
3058.2002
  0
VERTEX
  5
4ec
  8
Layer_11
  10
-1164.5356
  20
3055.2212
  0
SEQEND
  0
POLYLINE
  5
4ee
  8
Layer_11
  62
92
  66
1
  10
0
  20
0
  30
0
  0
VERTEX
  5
4ee
  8
Layer_11
  10
-1164.5356
  20
3054.2412
  0
VERTEX
  5
4ef
  8
Layer_11
  10
-1164.5356
  20
3053.2612
  0
SEQEND
  0
POLYLINE
  5
4f1
  8
Layer_11
  62
92
  66
1
  10
0
  20
0
  30
0
  0
VERTEX
  5
4f1
  8
Layer_11
  10
-1164.5356
  20
3052.2813
  0
VERTEX
  5
4f2
  8
Layer_11
  10
-1164.5356
  20
3049.3022
  0
SEQEND
  0
POLYLINE
  5
4f4
  8
Layer_11
  62
92
  66
1
  10
0
  20
0
  30
0
  0
VERTEX
  5
4f4
  8
Layer_11
  10
-1164.5356
  20
3048.3225
  0
VERTEX
  5
4f5
  8
Layer_11
  10
-1164.5356
  20
3047.3425
  0
SEQEND
  0
POLYLINE
  5
4f7
  8
Layer_11
  62
92
  66
1
  10
0
  20
0
  30
0
  0
VERTEX
  5
4f7
  8
Layer_11
  10
-1164.5356
  20
3046.3628
  0
VERTEX
  5
4f8
  8
Layer_11
  10
-1164.5356
  20
3043.3838
  0
SEQEND
  0
POLYLINE
  5
4fa
  8
Layer_11
  62
92
  66
1
  10
0
  20
0
  30
0
  0
VERTEX
  5
4fa
  8
Layer_11
  10
-1164.5356
  20
3042.4038
  0
VERTEX
  5
4fb
  8
Layer_11
  10
-1164.5356
  20
3041.4238
  0
SEQEND
  0
POLYLINE
  5
4fd
  8
Layer_11
  62
92
  66
1
  10
0
  20
0
  30
0
  0
VERTEX
  5
4fd
  8
Layer_11
  10
-1164.5356
  20
3040.4438
  0
VERTEX
  5
4fe
  8
Layer_11
  10
-1164.5356
  20
3037.4648
  0
SEQEND
  0
POLYLINE
  5
500
  8
Layer_11
  62
92
  66
1
  10
0
  20
0
  30
0
  0
VERTEX
  5
500
  8
Layer_11
  10
-1164.5356
  20
3036.4851
  0
VERTEX
  5
501
  8
Layer_11
  10
-1164.5356
  20
3035.5051
  0
SEQEND
  0
POLYLINE
  5
503
  8
Layer_11
  62
92
  66
1
  10
0
  20
0
  30
0
  0
VERTEX
  5
503
  8
Layer_11
  10
-1164.5356
  20
3034.5254
  0
VERTEX
  5
504
  8
Layer_11
  10
-1164.5356
  20
3031.5464
  0
SEQEND
  0
POLYLINE
  5
506
  8
Layer_11
  62
92
  66
1
  10
0
  20
0
  30
0
  0
VERTEX
  5
506
  8
Layer_11
  10
-1164.5356
  20
3030.5664
  0
VERTEX
  5
507
  8
Layer_11
  10
-1164.5356
  20
3029.5864
  0
SEQEND
  0
POLYLINE
  5
509
  8
Layer_11
  62
92
  66
1
  10
0
  20
0
  30
0
  0
VERTEX
  5
509
  8
Layer_11
  10
-1164.5356
  20
3028.6064
  0
VERTEX
  5
50a
  8
Layer_11
  10
-1164.5356
  20
3025.6274
  0
SEQEND
  0
POLYLINE
  5
50c
  8
Layer_11
  62
92
  66
1
  10
0
  20
0
  30
0
  0
VERTEX
  5
50c
  8
Layer_11
  10
-1164.5356
  20
3024.6477
  0
VERTEX
  5
50d
  8
Layer_11
  10
-1164.5356
  20
3023.6677
  0
SEQEND
  0
POLYLINE
  5
50f
  8
Layer_11
  62
92
  66
1
  10
0
  20
0
  30
0
  0
VERTEX
  5
50f
  8
Layer_11
  10
-1164.5356
  20
3022.688
  0
VERTEX
  5
510
  8
Layer_11
  10
-1164.5356
  20
3019.709
  0
SEQEND
  0
POLYLINE
  5
512
  8
Layer_11
  62
92
  66
1
  10
0
  20
0
  30
0
  0
VERTEX
  5
512
  8
Layer_11
  10
-1164.5356
  20
3018.729
  0
VERTEX
  5
513
  8
Layer_11
  10
-1164.5356
  20
3017.749
  0
SEQEND
  0
POLYLINE
  5
515
  8
Layer_11
  62
92
  66
1
  10
0
  20
0
  30
0
  0
VERTEX
  5
515
  8
Layer_11
  10
-1164.5356
  20
3016.769
  0
VERTEX
  5
516
  8
Layer_11
  10
-1164.5356
  20
3013.79
  0
SEQEND
  0
POLYLINE
  5
518
  8
Layer_11
  62
92
  66
1
  10
0
  20
0
  30
0
  0
VERTEX
  5
518
  8
Layer_11
  10
-1164.5356
  20
3012.8103
  0
VERTEX
  5
519
  8
Layer_11
  10
-1164.5356
  20
3011.8303
  0
SEQEND
  0
POLYLINE
  5
51b
  8
Layer_11
  62
92
  66
1
  10
0
  20
0
  30
0
  0
VERTEX
  5
51b
  8
Layer_11
  10
-1164.5356
  20
3010.8506
  0
VERTEX
  5
51c
  8
Layer_11
  10
-1164.5356
  20
3007.8716
  0
SEQEND
  0
POLYLINE
  5
51e
  8
Layer_11
  62
92
  66
1
  10
0
  20
0
  30
0
  0
VERTEX
  5
51e
  8
Layer_11
  10
-1164.5356
  20
3006.8916
  0
VERTEX
  5
51f
  8
Layer_11
  10
-1164.5356
  20
3005.9116
  0
SEQEND
  0
POLYLINE
  5
521
  8
Layer_11
  62
92
  66
1
  10
0
  20
0
  30
0
  0
VERTEX
  5
521
  8
Layer_11
  10
-1164.5356
  20
3004.9316
  0
VERTEX
  5
522
  8
Layer_11
  10
-1164.5356
  20
3001.9529
  0
SEQEND
  0
POLYLINE
  5
524
  8
Layer_11
  62
92
  66
1
  10
0
  20
0
  30
0
  0
VERTEX
  5
524
  8
Layer_11
  10
-1164.5356
  20
3000.9729
  0
VERTEX
  5
525
  8
Layer_11
  10
-1164.5356
  20
2999.9929
  0
SEQEND
  0
POLYLINE
  5
527
  8
Layer_11
  62
92
  66
1
  10
0
  20
0
  30
0
  0
VERTEX
  5
527
  8
Layer_11
  10
-1164.5356
  20
2999.0132
  0
VERTEX
  5
528
  8
Layer_11
  10
-1164.5356
  20
2996.0342
  0
SEQEND
  0
POLYLINE
  5
52a
  8
Layer_11
  62
92
  66
1
  10
0
  20
0
  30
0
  0
VERTEX
  5
52a
  8
Layer_11
  10
-1164.5356
  20
2995.0542
  0
VERTEX
  5
52b
  8
Layer_11
  10
-1164.5356
  20
2994.0742
  0
SEQEND
  0
POLYLINE
  5
52d
  8
Layer_11
  62
92
  66
1
  10
0
  20
0
  30
0
  0
VERTEX
  5
52d
  8
Layer_11
  10
-1164.5356
  20
2993.0942
  0
VERTEX
  5
52e
  8
Layer_11
  10
-1164.5356
  20
2990.1155
  0
SEQEND
  0
POLYLINE
  5
530
  8
Layer_11
  62
92
  66
1
  10
0
  20
0
  30
0
  0
VERTEX
  5
530
  8
Layer_11
  10
-1164.5356
  20
2989.1355
  0
VERTEX
  5
531
  8
Layer_11
  10
-1164.5356
  20
2988.1555
  0
SEQEND
  0
POLYLINE
  5
533
  8
Layer_11
  62
92
  66
1
  10
0
  20
0
  30
0
  0
VERTEX
  5
533
  8
Layer_11
  10
-1164.5356
  20
2987.1758
  0
VERTEX
  5
534
  8
Layer_11
  10
-1164.5356
  20
2984.1968
  0
SEQEND
  0
POLYLINE
  5
536
  8
Layer_11
  62
92
  66
1
  10
0
  20
0
  30
0
  0
VERTEX
  5
536
  8
Layer_11
  10
-1164.5356
  20
2983.2168
  0
VERTEX
  5
537
  8
Layer_11
  10
-1164.5356
  20
2982.2368
  0
SEQEND
  0
POLYLINE
  5
539
  8
Layer_11
  62
92
  66
1
  10
0
  20
0
  30
0
  0
VERTEX
  5
539
  8
Layer_11
  10
-1164.5356
  20
2981.2571
  0
VERTEX
  5
53a
  8
Layer_11
  10
-1164.5356
  20
2978.2781
  0
SEQEND
  0
POLYLINE
  5
53c
  8
Layer_11
  62
92
  66
1
  10
0
  20
0
  30
0
  0
VERTEX
  5
53c
  8
Layer_11
  10
-1164.5356
  20
2977.2981
  0
VERTEX
  5
53d
  8
Layer_11
  10
-1164.5356
  20
2976.3181
  0
SEQEND
  0
POLYLINE
  5
53f
  8
Layer_11
  62
92
  66
1
  10
0
  20
0
  30
0
  0
VERTEX
  5
53f
  8
Layer_11
  10
-1164.5356
  20
2975.3384
  0
VERTEX
  5
540
  8
Layer_11
  10
-1164.5356
  20
2972.3594
  0
SEQEND
  0
POLYLINE
  5
542
  8
Layer_11
  62
92
  66
1
  10
0
  20
0
  30
0
  0
VERTEX
  5
542
  8
Layer_11
  10
-1164.5356
  20
2971.3794
  0
VERTEX
  5
543
  8
Layer_11
  10
-1164.5356
  20
2970.3994
  0
SEQEND
  0
POLYLINE
  5
545
  8
Layer_11
  62
92
  66
1
  10
0
  20
0
  30
0
  0
VERTEX
  5
545
  8
Layer_11
  10
-1164.5356
  20
2969.4197
  0
VERTEX
  5
546
  8
Layer_11
  10
-1164.5356
  20
2966.4407
  0
SEQEND
  0
POLYLINE
  5
548
  8
Layer_11
  62
92
  66
1
  10
0
  20
0
  30
0
  0
VERTEX
  5
548
  8
Layer_11
  10
-1164.5356
  20
2965.4607
  0
VERTEX
  5
549
  8
Layer_11
  10
-1164.5356
  20
2964.4807
  0
SEQEND
  0
POLYLINE
  5
54b
  8
Layer_11
  62
92
  66
1
  10
0
  20
0
  30
0
  0
VERTEX
  5
54b
  8
Layer_11
  10
-1164.5356
  20
2963.501
  0
VERTEX
  5
54c
  8
Layer_11
  10
-1164.5356
  20
2960.522
  0
SEQEND
  0
POLYLINE
  5
54e
  8
Layer_11
  62
92
  66
1
  10
0
  20
0
  30
0
  0
VERTEX
  5
54e
  8
Layer_11
  10
-1164.5356
  20
2959.542
  0
VERTEX
  5
54f
  8
Layer_11
  10
-1164.5356
  20
2958.562
  0
SEQEND
  0
POLYLINE
  5
551
  8
Layer_11
  62
92
  66
1
  10
0
  20
0
  30
0
  0
VERTEX
  5
551
  8
Layer_11
  10
-1164.5356
  20
2957.5823
  0
VERTEX
  5
552
  8
Layer_11
  10
-1164.5356
  20
2954.6033
  0
SEQEND
  0
POLYLINE
  5
554
  8
Layer_11
  62
92
  66
1
  10
0
  20
0
  30
0
  0
VERTEX
  5
554
  8
Layer_11
  10
-1164.5356
  20
2953.6233
  0
VERTEX
  5
555
  8
Layer_11
  10
-1164.5356
  20
2952.6433
  0
SEQEND
  0
POLYLINE
  5
557
  8
Layer_11
  62
92
  66
1
  10
0
  20
0
  30
0
  0
VERTEX
  5
557
  8
Layer_11
  10
-1164.5356
  20
2951.6636
  0
VERTEX
  5
558
  8
Layer_11
  10
-1164.5356
  20
2948.6846
  0
SEQEND
  0
POLYLINE
  5
55a
  8
Layer_11
  62
92
  66
1
  10
0
  20
0
  30
0
  0
VERTEX
  5
55a
  8
Layer_11
  10
-1164.5356
  20
2947.7046
  0
VERTEX
  5
55b
  8
Layer_11
  10
-1164.5356
  20
2946.7246
  0
SEQEND
  0
POLYLINE
  5
55d
  8
Layer_11
  62
92
  66
1
  10
0
  20
0
  30
0
  0
VERTEX
  5
55d
  8
Layer_11
  10
-1164.5356
  20
2945.7449
  0
VERTEX
  5
55e
  8
Layer_11
  10
-1164.5356
  20
2942.7659
  0
SEQEND
  0
POLYLINE
  5
560
  8
Layer_11
  62
92
  66
1
  10
0
  20
0
  30
0
  0
VERTEX
  5
560
  8
Layer_11
  10
-1164.5356
  20
2941.7859
  0
VERTEX
  5
561
  8
Layer_11
  10
-1164.5356
  20
2940.8059
  0
SEQEND
  0
POLYLINE
  5
563
  8
Layer_11
  62
92
  66
1
  10
0
  20
0
  30
0
  0
VERTEX
  5
563
  8
Layer_11
  10
-1164.5356
  20
2939.8262
  0
VERTEX
  5
564
  8
Layer_11
  10
-1164.5356
  20
2936.8472
  0
SEQEND
  0
POLYLINE
  5
566
  8
Layer_11
  62
92
  66
1
  10
0
  20
0
  30
0
  0
VERTEX
  5
566
  8
Layer_11
  10
-1164.5356
  20
2935.8672
  0
VERTEX
  5
567
  8
Layer_11
  10
-1164.5356
  20
2934.8872
  0
SEQEND
  0
POLYLINE
  5
569
  8
Layer_11
  62
92
  66
1
  10
0
  20
0
  30
0
  0
VERTEX
  5
569
  8
Layer_11
  10
-1164.5356
  20
2933.9075
  0
VERTEX
  5
56a
  8
Layer_11
  10
-1164.5356
  20
2930.9285
  0
SEQEND
  0
POLYLINE
  5
56c
  8
Layer_11
  62
92
  66
1
  10
0
  20
0
  30
0
  0
VERTEX
  5
56c
  8
Layer_11
  10
-1164.5356
  20
2929.9485
  0
VERTEX
  5
56d
  8
Layer_11
  10
-1164.5356
  20
2928.9685
  0
SEQEND
  0
POLYLINE
  5
56f
  8
Layer_11
  62
92
  66
1
  10
0
  20
0
  30
0
  0
VERTEX
  5
56f
  8
Layer_11
  10
-1164.5356
  20
2927.9888
  0
VERTEX
  5
570
  8
Layer_11
  10
-1164.5356
  20
2925.0098
  0
SEQEND
  0
POLYLINE
  5
572
  8
Layer_11
  62
92
  66
1
  10
0
  20
0
  30
0
  0
VERTEX
  5
572
  8
Layer_11
  10
-1164.5356
  20
2924.0298
  0
VERTEX
  5
573
  8
Layer_11
  10
-1164.5356
  20
2923.0498
  0
SEQEND
  0
POLYLINE
  5
575
  8
Layer_11
  62
92
  66
1
  10
0
  20
0
  30
0
  0
VERTEX
  5
575
  8
Layer_11
  10
-1164.5356
  20
2922.0701
  0
VERTEX
  5
576
  8
Layer_11
  10
-1164.5356
  20
2919.0911
  0
SEQEND
  0
POLYLINE
  5
578
  8
Layer_11
  62
92
  66
1
  10
0
  20
0
  30
0
  0
VERTEX
  5
578
  8
Layer_11
  10
-1164.5356
  20
2918.1111
  0
VERTEX
  5
579
  8
Layer_11
  10
-1164.5356
  20
2917.1311
  0
SEQEND
  0
POLYLINE
  5
57b
  8
Layer_11
  62
92
  66
1
  10
0
  20
0
  30
0
  0
VERTEX
  5
57b
  8
Layer_11
  10
-1164.5356
  20
2916.1514
  0
VERTEX
  5
57c
  8
Layer_11
  10
-1164.5356
  20
2913.1724
  0
SEQEND
  0
POLYLINE
  5
57e
  8
Layer_11
  62
92
  66
1
  10
0
  20
0
  30
0
  0
VERTEX
  5
57e
  8
Layer_11
  10
-1164.5356
  20
2912.1924
  0
VERTEX
  5
57f
  8
Layer_11
  10
-1164.5356
  20
2911.2124
  0
SEQEND
  0
POLYLINE
  5
581
  8
Layer_11
  62
92
  66
1
  10
0
  20
0
  30
0
  0
VERTEX
  5
581
  8
Layer_11
  10
-1164.5356
  20
2910.2327
  0
VERTEX
  5
582
  8
Layer_11
  10
-1164.5356
  20
2907.2537
  0
SEQEND
  0
POLYLINE
  5
584
  8
Layer_11
  62
92
  66
1
  10
0
  20
0
  30
0
  0
VERTEX
  5
584
  8
Layer_11
  10
-1164.5356
  20
2906.2737
  0
VERTEX
  5
585
  8
Layer_11
  10
-1164.5356
  20
2905.2937
  0
SEQEND
  0
POLYLINE
  5
587
  8
Layer_11
  62
92
  66
1
  10
0
  20
0
  30
0
  0
VERTEX
  5
587
  8
Layer_11
  10
-1164.5356
  20
2904.314
  0
VERTEX
  5
588
  8
Layer_11
  10
-1164.5356
  20
2901.335
  0
SEQEND
  0
POLYLINE
  5
58a
  8
Layer_11
  62
92
  66
1
  10
0
  20
0
  30
0
  0
VERTEX
  5
58a
  8
Layer_11
  10
-1164.5356
  20
2900.355
  0
VERTEX
  5
58b
  8
Layer_11
  10
-1164.5356
  20
2899.375
  0
SEQEND
  0
POLYLINE
  5
58d
  8
Layer_11
  62
92
  66
1
  10
0
  20
0
  30
0
  0
VERTEX
  5
58d
  8
Layer_11
  10
-1164.5356
  20
2898.3953
  0
VERTEX
  5
58e
  8
Layer_11
  10
-1164.5356
  20
2895.4163
  0
SEQEND
  0
POLYLINE
  5
590
  8
Layer_11
  62
92
  66
1
  10
0
  20
0
  30
0
  0
VERTEX
  5
590
  8
Layer_11
  10
-1164.5356
  20
2894.4363
  0
VERTEX
  5
591
  8
Layer_11
  10
-1164.5356
  20
2893.4563
  0
SEQEND
  0
POLYLINE
  5
593
  8
Layer_11
  62
92
  66
1
  10
0
  20
0
  30
0
  0
VERTEX
  5
593
  8
Layer_11
  10
-1164.5356
  20
2892.4766
  0
VERTEX
  5
594
  8
Layer_11
  10
-1164.5356
  20
2889.4976
  0
SEQEND
  0
POLYLINE
  5
596
  8
Layer_11
  62
92
  66
1
  10
0
  20
0
  30
0
  0
VERTEX
  5
596
  8
Layer_11
  10
-1164.5356
  20
2888.5176
  0
VERTEX
  5
597
  8
Layer_11
  10
-1164.5356
  20
2887.5376
  0
SEQEND
  0
POLYLINE
  5
599
  8
Layer_11
  62
92
  66
1
  10
0
  20
0
  30
0
  0
VERTEX
  5
599
  8
Layer_11
  10
-1164.5356
  20
2886.5579
  0
VERTEX
  5
59a
  8
Layer_11
  10
-1164.5356
  20
2883.5789
  0
SEQEND
  0
POLYLINE
  5
59c
  8
Layer_11
  62
92
  66
1
  10
0
  20
0
  30
0
  0
VERTEX
  5
59c
  8
Layer_11
  10
-1164.5356
  20
2882.5989
  0
VERTEX
  5
59d
  8
Layer_11
  10
-1164.5356
  20
2881.6189
  0
SEQEND
  0
POLYLINE
  5
59f
  8
Layer_11
  62
92
  66
1
  10
0
  20
0
  30
0
  0
VERTEX
  5
59f
  8
Layer_11
  10
-1164.5356
  20
2880.6392
  0
VERTEX
  5
5a0
  8
Layer_11
  10
-1164.5356
  20
2877.6602
  0
SEQEND
  0
POLYLINE
  5
5a2
  8
Layer_11
  62
92
  66
1
  10
0
  20
0
  30
0
  0
VERTEX
  5
5a2
  8
Layer_11
  10
-1164.5356
  20
2876.6802
  0
VERTEX
  5
5a3
  8
Layer_11
  10
-1164.5356
  20
2875.7002
  0
SEQEND
  0
POLYLINE
  5
5a5
  8
Layer_11
  62
92
  66
1
  10
0
  20
0
  30
0
  0
VERTEX
  5
5a5
  8
Layer_11
  10
-1164.5356
  20
2874.7205
  0
VERTEX
  5
5a6
  8
Layer_11
  10
-1164.5356
  20
2871.7415
  0
SEQEND
  0
POLYLINE
  5
5a8
  8
Layer_11
  62
92
  66
1
  10
0
  20
0
  30
0
  0
VERTEX
  5
5a8
  8
Layer_11
  10
-1164.5356
  20
2870.7615
  0
VERTEX
  5
5a9
  8
Layer_11
  10
-1164.5356
  20
2869.7815
  0
SEQEND
  0
POLYLINE
  5
5ab
  8
Layer_11
  62
92
  66
1
  10
0
  20
0
  30
0
  0
VERTEX
  5
5ab
  8
Layer_11
  10
-1164.5356
  20
2868.8018
  0
VERTEX
  5
5ac
  8
Layer_11
  10
-1164.5356
  20
2865.8228
  0
SEQEND
  0
POLYLINE
  5
5ae
  8
Layer_11
  62
92
  66
1
  10
0
  20
0
  30
0
  0
VERTEX
  5
5ae
  8
Layer_11
  10
-1164.5356
  20
2864.8428
  0
VERTEX
  5
5af
  8
Layer_11
  10
-1164.5356
  20
2863.8628
  0
SEQEND
  0
POLYLINE
  5
5b1
  8
Layer_11
  62
92
  66
1
  10
0
  20
0
  30
0
  0
VERTEX
  5
5b1
  8
Layer_11
  10
-1164.5356
  20
2862.8831
  0
VERTEX
  5
5b2
  8
Layer_11
  10
-1164.5356
  20
2859.9041
  0
SEQEND
  0
POLYLINE
  5
5b4
  8
Layer_11
  62
92
  66
1
  10
0
  20
0
  30
0
  0
VERTEX
  5
5b4
  8
Layer_11
  10
-1164.5356
  20
2858.9241
  0
VERTEX
  5
5b5
  8
Layer_11
  10
-1164.5356
  20
2857.9441
  0
SEQEND
  0
POLYLINE
  5
5b7
  8
Layer_11
  62
92
  66
1
  10
0
  20
0
  30
0
  0
VERTEX
  5
5b7
  8
Layer_11
  10
-1164.5356
  20
2856.9644
  0
VERTEX
  5
5b8
  8
Layer_11
  10
-1164.5356
  20
2853.9854
  0
SEQEND
  0
POLYLINE
  5
5ba
  8
Layer_11
  62
92
  66
1
  10
0
  20
0
  30
0
  0
VERTEX
  5
5ba
  8
Layer_11
  10
-1164.5356
  20
2853.0054
  0
VERTEX
  5
5bb
  8
Layer_11
  10
-1164.5356
  20
2852.0254
  0
SEQEND
  0
POLYLINE
  5
5bd
  8
Layer_11
  62
92
  66
1
  10
0
  20
0
  30
0
  0
VERTEX
  5
5bd
  8
Layer_11
  10
-1164.5356
  20
2851.0457
  0
VERTEX
  5
5be
  8
Layer_11
  10
-1164.5356
  20
2848.0667
  0
SEQEND
  0
POLYLINE
  5
5c0
  8
Layer_11
  62
92
  66
1
  10
0
  20
0
  30
0
  0
VERTEX
  5
5c0
  8
Layer_11
  10
-1164.5356
  20
2847.0867
  0
VERTEX
  5
5c1
  8
Layer_11
  10
-1164.5356
  20
2846.1067
  0
SEQEND
  0
POLYLINE
  5
5c3
  8
Layer_11
  62
92
  66
1
  10
0
  20
0
  30
0
  0
VERTEX
  5
5c3
  8
Layer_11
  10
-1164.5356
  20
2845.127
  0
VERTEX
  5
5c4
  8
Layer_11
  10
-1164.5356
  20
2842.1479
  0
SEQEND
  0
POLYLINE
  5
5c6
  8
Layer_11
  62
92
  66
1
  10
0
  20
0
  30
0
  0
VERTEX
  5
5c6
  8
Layer_11
  10
-1164.5356
  20
2841.168
  0
VERTEX
  5
5c7
  8
Layer_11
  10
-1164.5356
  20
2840.188
  0
SEQEND
  0
POLYLINE
  5
5c9
  8
Layer_11
  62
92
  66
1
  10
0
  20
0
  30
0
  0
VERTEX
  5
5c9
  8
Layer_11
  10
-1164.5356
  20
2839.2083
  0
VERTEX
  5
5ca
  8
Layer_11
  10
-1164.5356
  20
2836.2292
  0
SEQEND
  0
POLYLINE
  5
5cc
  8
Layer_11
  62
92
  66
1
  10
0
  20
0
  30
0
  0
VERTEX
  5
5cc
  8
Layer_11
  10
-1164.5356
  20
2835.2493
  0
VERTEX
  5
5cd
  8
Layer_11
  10
-1164.5356
  20
2834.2693
  0
SEQEND
  0
POLYLINE
  5
5cf
  8
Layer_11
  62
92
  66
1
  10
0
  20
0
  30
0
  0
VERTEX
  5
5cf
  8
Layer_11
  10
-1164.5356
  20
2833.2896
  0
VERTEX
  5
5d0
  8
Layer_11
  10
-1164.5356
  20
2830.3105
  0
SEQEND
  0
POLYLINE
  5
5d2
  8
Layer_11
  62
92
  66
1
  10
0
  20
0
  30
0
  0
VERTEX
  5
5d2
  8
Layer_11
  10
-1164.5356
  20
2829.3306
  0
VERTEX
  5
5d3
  8
Layer_11
  10
-1164.5356
  20
2828.3506
  0
SEQEND
  0
POLYLINE
  5
5d5
  8
Layer_11
  62
92
  66
1
  10
0
  20
0
  30
0
  0
VERTEX
  5
5d5
  8
Layer_11
  10
-1164.5356
  20
2827.3708
  0
VERTEX
  5
5d6
  8
Layer_11
  10
-1164.5356
  20
2824.3918
  0
SEQEND
  0
POLYLINE
  5
5d8
  8
Layer_11
  62
92
  66
1
  10
0
  20
0
  30
0
  0
VERTEX
  5
5d8
  8
Layer_11
  10
-1164.5356
  20
2823.4119
  0
VERTEX
  5
5d9
  8
Layer_11
  10
-1164.5356
  20
2822.4319
  0
SEQEND
  0
POLYLINE
  5
5db
  8
Layer_11
  62
92
  66
1
  10
0
  20
0
  30
0
  0
VERTEX
  5
5db
  8
Layer_11
  10
-1164.5356
  20
2821.4521
  0
VERTEX
  5
5dc
  8
Layer_11
  10
-1164.5356
  20
2818.4731
  0
SEQEND
  0
POLYLINE
  5
5de
  8
Layer_11
  62
92
  66
1
  10
0
  20
0
  30
0
  0
VERTEX
  5
5de
  8
Layer_11
  10
-1164.5356
  20
2817.4932
  0
VERTEX
  5
5df
  8
Layer_11
  10
-1164.5356
  20
2816.5132
  0
SEQEND
  0
POLYLINE
  5
5e1
  8
Layer_11
  62
92
  66
1
  10
0
  20
0
  30
0
  0
VERTEX
  5
5e1
  8
Layer_11
  10
-1164.5356
  20
2815.5334
  0
VERTEX
  5
5e2
  8
Layer_11
  10
-1164.5356
  20
2812.5544
  0
SEQEND
  0
POLYLINE
  5
5e4
  8
Layer_11
  62
92
  66
1
  10
0
  20
0
  30
0
  0
VERTEX
  5
5e4
  8
Layer_11
  10
-1164.5356
  20
2811.5745
  0
VERTEX
  5
5e5
  8
Layer_11
  10
-1164.5356
  20
2810.5945
  0
SEQEND
  0
POLYLINE
  5
5e7
  8
Layer_11
  62
92
  66
1
  10
0
  20
0
  30
0
  0
VERTEX
  5
5e7
  8
Layer_11
  10
-1164.5356
  20
2809.6147
  0
VERTEX
  5
5e8
  8
Layer_11
  10
-1164.5356
  20
2806.6357
  0
SEQEND
  0
POLYLINE
  5
5ea
  8
Layer_11
  62
92
  66
1
  10
0
  20
0
  30
0
  0
VERTEX
  5
5ea
  8
Layer_11
  10
-1164.5356
  20
2805.6558
  0
VERTEX
  5
5eb
  8
Layer_11
  10
-1164.5356
  20
2804.6758
  0
SEQEND
  0
POLYLINE
  5
5ed
  8
Layer_11
  62
92
  66
1
  10
0
  20
0
  30
0
  0
VERTEX
  5
5ed
  8
Layer_11
  10
-1164.5356
  20
2803.696
  0
VERTEX
  5
5ee
  8
Layer_11
  10
-1164.5356
  20
2800.717
  0
SEQEND
  0
POLYLINE
  5
5f0
  8
Layer_11
  62
92
  66
1
  10
0
  20
0
  30
0
  0
VERTEX
  5
5f0
  8
Layer_11
  10
-1164.5356
  20
2799.7371
  0
VERTEX
  5
5f1
  8
Layer_11
  10
-1164.5356
  20
2798.7571
  0
SEQEND
  0
POLYLINE
  5
5f3
  8
Layer_11
  62
92
  66
1
  10
0
  20
0
  30
0
  0
VERTEX
  5
5f3
  8
Layer_11
  10
-1164.5356
  20
2797.7773
  0
VERTEX
  5
5f4
  8
Layer_11
  10
-1164.5356
  20
2794.7983
  0
SEQEND
  0
POLYLINE
  5
5f6
  8
Layer_11
  62
92
  66
1
  10
0
  20
0
  30
0
  0
VERTEX
  5
5f6
  8
Layer_11
  10
-1164.5356
  20
2793.8184
  0
VERTEX
  5
5f7
  8
Layer_11
  10
-1164.5356
  20
2792.8384
  0
SEQEND
  0
POLYLINE
  5
5f9
  8
Layer_11
  62
92
  66
1
  10
0
  20
0
  30
0
  0
VERTEX
  5
5f9
  8
Layer_11
  10
-1164.5356
  20
2791.8586
  0
VERTEX
  5
5fa
  8
Layer_11
  10
-1164.5356
  20
2788.8796
  0
SEQEND
  0
POLYLINE
  5
5fc
  8
Layer_11
  62
92
  66
1
  10
0
  20
0
  30
0
  0
VERTEX
  5
5fc
  8
Layer_11
  10
-1164.5356
  20
2787.8997
  0
VERTEX
  5
5fd
  8
Layer_11
  10
-1164.5356
  20
2786.9197
  0
SEQEND
  0
POLYLINE
  5
5ff
  8
Layer_11
  62
92
  66
1
  10
0
  20
0
  30
0
  0
VERTEX
  5
5ff
  8
Layer_11
  10
-1164.5356
  20
2785.9399
  0
VERTEX
  5
600
  8
Layer_11
  10
-1164.5356
  20
2782.9609
  0
SEQEND
  0
POLYLINE
  5
602
  8
Layer_11
  62
92
  66
1
  10
0
  20
0
  30
0
  0
VERTEX
  5
602
  8
Layer_11
  10
-1164.5356
  20
2781.981
  0
VERTEX
  5
603
  8
Layer_11
  10
-1164.5356
  20
2781.001
  0
SEQEND
  0
POLYLINE
  5
605
  8
Layer_11
  62
92
  66
1
  10
0
  20
0
  30
0
  0
VERTEX
  5
605
  8
Layer_11
  10
-1164.5356
  20
2780.0212
  0
VERTEX
  5
606
  8
Layer_11
  10
-1164.5356
  20
2777.0422
  0
SEQEND
  0
POLYLINE
  5
608
  8
Layer_11
  62
92
  66
1
  10
0
  20
0
  30
0
  0
VERTEX
  5
608
  8
Layer_11
  10
-1164.5356
  20
2776.0623
  0
VERTEX
  5
609
  8
Layer_11
  10
-1164.5356
  20
2775.0823
  0
SEQEND
  0
POLYLINE
  5
60b
  8
Layer_11
  62
92
  66
1
  10
0
  20
0
  30
0
  0
VERTEX
  5
60b
  8
Layer_11
  10
-1164.5356
  20
2774.1025
  0
VERTEX
  5
60c
  8
Layer_11
  10
-1164.5356
  20
2771.1235
  0
SEQEND
  0
POLYLINE
  5
60e
  8
Layer_11
  62
92
  66
1
  10
0
  20
0
  30
0
  0
VERTEX
  5
60e
  8
Layer_11
  10
-1164.5356
  20
2770.1436
  0
VERTEX
  5
60f
  8
Layer_11
  10
-1164.5356
  20
2769.1636
  0
SEQEND
  0
POLYLINE
  5
611
  8
Layer_11
  62
92
  66
1
  10
0
  20
0
  30
0
  0
VERTEX
  5
611
  8
Layer_11
  10
-1164.5356
  20
2768.1838
  0
VERTEX
  5
612
  8
Layer_11
  10
-1164.5356
  20
2765.2048
  0
SEQEND
  0
POLYLINE
  5
614
  8
Layer_11
  62
92
  66
1
  10
0
  20
0
  30
0
  0
VERTEX
  5
614
  8
Layer_11
  10
-1164.5356
  20
2764.2249
  0
VERTEX
  5
615
  8
Layer_11
  10
-1164.5356
  20
2763.2449
  0
SEQEND
  0
POLYLINE
  5
617
  8
Layer_11
  62
92
  66
1
  10
0
  20
0
  30
0
  0
VERTEX
  5
617
  8
Layer_11
  10
-1164.5356
  20
2762.2651
  0
VERTEX
  5
618
  8
Layer_11
  10
-1164.5356
  20
2759.2861
  0
SEQEND
  0
POLYLINE
  5
61a
  8
Layer_11
  62
92
  66
1
  10
0
  20
0
  30
0
  0
VERTEX
  5
61a
  8
Layer_11
  10
-1164.5356
  20
2758.3062
  0
VERTEX
  5
61b
  8
Layer_11
  10
-1164.5356
  20
2757.3262
  0
SEQEND
  0
POLYLINE
  5
61d
  8
Layer_11
  62
92
  66
1
  10
0
  20
0
  30
0
  0
VERTEX
  5
61d
  8
Layer_11
  10
-1164.5356
  20
2756.3464
  0
VERTEX
  5
61e
  8
Layer_11
  10
-1164.5356
  20
2753.3674
  0
SEQEND
  0
POLYLINE
  5
620
  8
Layer_11
  62
92
  66
1
  10
0
  20
0
  30
0
  0
VERTEX
  5
620
  8
Layer_11
  10
-1164.5356
  20
2752.3875
  0
VERTEX
  5
621
  8
Layer_11
  10
-1164.5356
  20
2751.4075
  0
SEQEND
  0
POLYLINE
  5
623
  8
Layer_11
  62
92
  66
1
  10
0
  20
0
  30
0
  0
VERTEX
  5
623
  8
Layer_11
  10
-1164.5356
  20
2750.4277
  0
VERTEX
  5
624
  8
Layer_11
  10
-1164.5356
  20
2747.4487
  0
SEQEND
  0
POLYLINE
  5
626
  8
Layer_11
  62
92
  66
1
  10
0
  20
0
  30
0
  0
VERTEX
  5
626
  8
Layer_11
  10
-1164.5356
  20
2746.4688
  0
VERTEX
  5
627
  8
Layer_11
  10
-1164.5356
  20
2745.4888
  0
SEQEND
  0
POLYLINE
  5
629
  8
Layer_11
  62
92
  66
1
  10
0
  20
0
  30
0
  0
VERTEX
  5
629
  8
Layer_11
  10
-1164.5356
  20
2744.509
  0
VERTEX
  5
62a
  8
Layer_11
  10
-1164.5356
  20
2741.53
  0
SEQEND
  0
POLYLINE
  5
62c
  8
Layer_11
  62
92
  66
1
  10
0
  20
0
  30
0
  0
VERTEX
  5
62c
  8
Layer_11
  10
-1164.5356
  20
2740.55
  0
VERTEX
  5
62d
  8
Layer_11
  10
-1164.5356
  20
2739.5701
  0
SEQEND
  0
POLYLINE
  5
62f
  8
Layer_11
  62
92
  66
1
  10
0
  20
0
  30
0
  0
VERTEX
  5
62f
  8
Layer_11
  10
-1164.5356
  20
2738.5903
  0
VERTEX
  5
630
  8
Layer_11
  10
-1164.5356
  20
2735.6113
  0
SEQEND
  0
POLYLINE
  5
632
  8
Layer_11
  62
92
  66
1
  10
0
  20
0
  30
0
  0
VERTEX
  5
632
  8
Layer_11
  10
-1164.5356
  20
2734.6313
  0
VERTEX
  5
633
  8
Layer_11
  10
-1164.5356
  20
2733.6514
  0
SEQEND
  0
POLYLINE
  5
635
  8
Layer_11
  62
92
  66
1
  10
0
  20
0
  30
0
  0
VERTEX
  5
635
  8
Layer_11
  10
-1164.5356
  20
2732.6716
  0
VERTEX
  5
636
  8
Layer_11
  10
-1164.5356
  20
2729.6926
  0
SEQEND
  0
POLYLINE
  5
638
  8
Layer_11
  62
92
  66
1
  10
0
  20
0
  30
0
  0
VERTEX
  5
638
  8
Layer_11
  10
-1164.5356
  20
2728.7126
  0
VERTEX
  5
639
  8
Layer_11
  10
-1164.5356
  20
2727.7327
  0
SEQEND
  0
POLYLINE
  5
63b
  8
Layer_11
  62
92
  66
1
  10
0
  20
0
  30
0
  0
VERTEX
  5
63b
  8
Layer_11
  10
-1164.5356
  20
2726.7529
  0
VERTEX
  5
63c
  8
Layer_11
  10
-1164.5356
  20
2723.7739
  0
SEQEND
  0
POLYLINE
  5
63e
  8
Layer_11
  62
92
  66
1
  10
0
  20
0
  30
0
  0
VERTEX
  5
63e
  8
Layer_11
  10
-1164.5356
  20
2722.7939
  0
VERTEX
  5
63f
  8
Layer_11
  10
-1164.5356
  20
2721.814
  0
SEQEND
  0
POLYLINE
  5
641
  8
Layer_11
  62
92
  66
1
  10
0
  20
0
  30
0
  0
VERTEX
  5
641
  8
Layer_11
  10
-1164.5356
  20
2720.8342
  0
VERTEX
  5
642
  8
Layer_11
  10
-1164.5356
  20
2717.8552
  0
SEQEND
  0
POLYLINE
  5
644
  8
Layer_11
  62
92
  66
1
  10
0
  20
0
  30
0
  0
VERTEX
  5
644
  8
Layer_11
  10
-1164.5356
  20
2716.8752
  0
VERTEX
  5
645
  8
Layer_11
  10
-1164.5356
  20
2716.5586
  0
SEQEND
  0
POLYLINE
  5
647
  8
Layer_11
  62
92
  66
1
  10
0
  20
0
  30
0
  0
VERTEX
  5
647
  8
Layer_11
  10
-1137.5356
  20
3088.7102
  0
VERTEX
  5
648
  8
Layer_11
  10
-1161.3354
  20
3088.7102
  0
SEQEND
  0
POLYLINE
  5
64a
  8
Layer_11
  62
92
  66
1
  10
0
  20
0
  30
0
  0
VERTEX
  5
64a
  8
Layer_11
  10
-1161.3354
  20
3088.7102
  0
VERTEX
  5
64b
  8
Layer_11
  10
-1161.3354
  20
2785.1138
  0
SEQEND
  0
CIRCLE
  5
64d
  8
Layer_0
  62
7
  10
-1164.5356
  20
4087.1138
  30
0
  40
1.5
  0
CIRCLE
  5
64d
  8
Layer_0
  62
7
  10
-1164.5356
  20
2785.1138
  30
0
  40
1.5
  0
POLYLINE
  5
64d
  8
Layer_0
  62
7
  70
1
  66
1
  10
0
  20
0
  30
0
  0
VERTEX
  5
64d
  8
Layer_0
  10
-1163.0347
  20
3088.7104
  42
0.41421356
  0
VERTEX
  5
64e
  8
Layer_0
  10
-1164.5347
  20
3090.2104
  42
0.41421356
  0
VERTEX
  5
64f
  8
Layer_0
  10
-1166.0347
  20
3088.7104
  0
VERTEX
  5
650
  8
Layer_0
  10
-1173.335
  20
3088.7104
  0
VERTEX
  5
651
  8
Layer_0
  10
-1173.335
  20
3086.7104
  0
VERTEX
  5
652
  8
Layer_0
  10
-1161.335
  20
3086.7104
  0
VERTEX
  5
653
  8
Layer_0
  10
-1161.335
  20
3088.7104
  0
SEQEND
  0
POLYLINE
  5
655
  8
Layer_0
  62
7
  66
1
  10
0
  20
0
  30
0
  0
VERTEX
  5
655
  8
Layer_0
  10
993.49658
  20
303.59656
  0
VERTEX
  5
656
  8
Layer_0
  10
969.62939
  20
303.59656
  0
SEQEND
  0
POLYLINE
  5
658
  8
Layer_0
  62
7
  66
1
  10
0
  20
0
  30
0
  0
VERTEX
  5
658
  8
Layer_0
  10
993.49658
  20
303.59656
  0
VERTEX
  5
659
  8
Layer_0
  10
993.49658
  20
1302
  0
VERTEX
  5
65a
  8
Layer_0
  10
967.99609
  20
1302
  42
-0.41421356
  0
VERTEX
  5
65b
  8
Layer_0
  10
966.49609
  20
1300.5
  42
-0.41421356
  0
VERTEX
  5
65c
  8
Layer_0
  10
964.99609
  20
1302
  0
VERTEX
  5
65d
  8
Layer_0
  10
0
  20
1302
  0
VERTEX
  5
65e
  8
Layer_0
  10
0
  20
0
  0
VERTEX
  5
65f
  8
Layer_0
  10
964.99609
  20
0
  42
-0.41421356
  0
VERTEX
  5
660
  8
Layer_0
  10
966.49609
  20
1.4999084
  42
-0.41421356
  0
VERTEX
  5
661
  8
Layer_0
  10
967.99609
  20
0
  0
VERTEX
  5
662
  8
Layer_0
  10
969.69678
  20
0
  0
VERTEX
  5
663
  8
Layer_0
  10
969.69678
  20
301.59668
  0
VERTEX
  5
664
  8
Layer_0
  10
957.69678
  20
301.59668
  0
VERTEX
  5
665
  8
Layer_0
  10
957.69678
  20
303.59656
  0
VERTEX
  5
666
  8
Layer_0
  10
964.99707
  20
303.59656
  42
-0.41421356
  0
VERTEX
  5
667
  8
Layer_0
  10
966.49707
  20
305.09674
  42
-0.41421356
  0
VERTEX
  5
668
  8
Layer_0
  10
967.99707
  20
303.59656
  0
VERTEX
  5
669
  8
Layer_0
  10
969.69678
  20
303.59656
  0
SEQEND
  0
ENDSEC
  0
EOF
