  0
SECTION
  2
HEADER
  9
$ACADVER
  1
AC1009
  0
ENDSEC
  0
SECTION
  2
TABLES
  0
TABLE
  2
LAYER
  70
1
  0
LAYER
  2
Layer_0
  70
0
  62
7
  6
CONTINUOUS
  0
ENDTAB
  0
ENDSEC
  0
SECTION
  2
ENTITIES
  0
POLYLINE
  5
90
  8
Layer_0
  62
7
  70
1
  66
1
  10
0
  20
0
  30
0
  0
VERTEX
  5
90
  8
Layer_0
  10
133.5
  20
186.5
  42
-0.41421356
  0
VERTEX
  5
91
  8
Layer_0
  10
131.5
  20
188.5
  0
VERTEX
  5
92
  8
Layer_0
  10
131.5
  20
234.5
  42
-0.41421356
  0
VERTEX
  5
93
  8
Layer_0
  10
133.5
  20
236.5
  0
VERTEX
  5
94
  8
Layer_0
  10
840.5
  20
236.5
  42
-0.41421356
  0
VERTEX
  5
95
  8
Layer_0
  10
842.5
  20
234.5
  0
VERTEX
  5
96
  8
Layer_0
  10
842.5
  20
188.5
  42
-0.41421356
  0
VERTEX
  5
97
  8
Layer_0
  10
840.5
  20
186.5
  0
VERTEX
  5
98
  8
Layer_0
  10
825.91156
  20
186.5
  42
0.31737266
  0
VERTEX
  5
99
  8
Layer_0
  10
824.02716
  20
185.17001
  0
VERTEX
  5
9a
  8
Layer_0
  10
808.97284
  20
142.82999
  42
-0.31737266
  0
VERTEX
  5
9b
  8
Layer_0
  10
807.08844
  20
141.5
  0
VERTEX
  5
9c
  8
Layer_0
  10
628.91156
  20
141.5
  42
-0.31737266
  0
VERTEX
  5
9d
  8
Layer_0
  10
627.02716
  20
142.82999
  0
VERTEX
  5
9e
  8
Layer_0
  10
611.9729
  20
185.17001
  42
0.31734237
  0
VERTEX
  5
9f
  8
Layer_0
  10
610.08844
  20
186.5
  0
VERTEX
  5
a0
  8
Layer_0
  10
594.91156
  20
186.5
  42
0.31734567
  0
VERTEX
  5
a1
  8
Layer_0
  10
593.0271
  20
185.17001
  0
VERTEX
  5
a2
  8
Layer_0
  10
577.9729
  20
142.82999
  42
-0.31734237
  0
VERTEX
  5
a3
  8
Layer_0
  10
576.08844
  20
141.5
  0
VERTEX
  5
a4
  8
Layer_0
  10
397.91156
  20
141.5
  42
-0.31734567
  0
VERTEX
  5
a5
  8
Layer_0
  10
396.02713
  20
142.82999
  0
VERTEX
  5
a6
  8
Layer_0
  10
380.97287
  20
185.17001
  42
0.31734237
  0
VERTEX
  5
a7
  8
Layer_0
  10
379.08844
  20
186.5
  0
VERTEX
  5
a8
  8
Layer_0
  10
363.91156
  20
186.5
  42
0.31734567
  0
VERTEX
  5
a9
  8
Layer_0
  10
362.02713
  20
185.17001
  0
VERTEX
  5
aa
  8
Layer_0
  10
346.9729
  20
142.82999
  42
-0.31735201
  0
VERTEX
  5
ab
  8
Layer_0
  10
345.08844
  20
141.5
  0
VERTEX
  5
ac
  8
Layer_0
  10
166.91154
  20
141.5
  42
-0.31734967
  0
VERTEX
  5
ad
  8
Layer_0
  10
165.02711
  20
142.82999
  0
VERTEX
  5
ae
  8
Layer_0
  10
149.97289
  20
185.17001
  42
0.3173485
  0
VERTEX
  5
af
  8
Layer_0
  10
148.08846
  20
186.5
  0
SEQEND
  0
ENDSEC
  0
EOF
