  0
SECTION
  2
HEADER
  9
$ACADVER
  1
AC1009
  0
ENDSEC
  0
SECTION
  2
TABLES
  0
TABLE
  2
LAYER
  70
1
  0
LAYER
  2
Layer_0
  70
0
  62
7
  6
CONTINUOUS
  0
ENDTAB
  0
ENDSEC
  0
SECTION
  2
ENTITIES
  0
POLYLINE
  5
90
  8
Layer_0
  62
7
  66
1
  10
0
  20
0
  30
0
  0
VERTEX
  5
90
  8
Layer_0
  10
1220
  20
70.000122
  0
VERTEX
  5
91
  8
Layer_0
  10
1220
  20
69.999878
  0
VERTEX
  5
92
  8
Layer_0
  10
1152
  20
69.999886
  0
VERTEX
  5
93
  8
Layer_0
  10
1152
  20
29.999878
  0
VERTEX
  5
94
  8
Layer_0
  10
1157
  20
29.999878
  0
VERTEX
  5
95
  8
Layer_0
  10
1142
  20
-0.00010681152
  0
VERTEX
  5
96
  8
Layer_0
  10
1127
  20
29.999893
  0
VERTEX
  5
97
  8
Layer_0
  10
1132
  20
29.999893
  0
VERTEX
  5
98
  8
Layer_0
  10
1132
  20
69.999886
  0
VERTEX
  5
99
  8
Layer_0
  10
970
  20
69.999901
  0
VERTEX
  5
9a
  8
Layer_0
  10
970
  20
29.999908
  0
VERTEX
  5
9b
  8
Layer_0
  10
975
  20
29.999908
  0
VERTEX
  5
9c
  8
Layer_0
  10
960
  20
-9.1552734e-05
  0
VERTEX
  5
9d
  8
Layer_0
  10
945
  20
29.999908
  0
VERTEX
  5
9e
  8
Layer_0
  10
950
  20
29.999908
  0
VERTEX
  5
9f
  8
Layer_0
  10
950
  20
69.999908
  0
VERTEX
  5
a0
  8
Layer_0
  10
788
  20
69.999924
  0
VERTEX
  5
a1
  8
Layer_0
  10
788
  20
29.999924
  0
VERTEX
  5
a2
  8
Layer_0
  10
793
  20
29.999924
  0
VERTEX
  5
a3
  8
Layer_0
  10
778
  20
-7.6293945e-05
  0
VERTEX
  5
a4
  8
Layer_0
  10
763
  20
29.999924
  0
VERTEX
  5
a5
  8
Layer_0
  10
768
  20
29.999924
  0
VERTEX
  5
a6
  8
Layer_0
  10
768
  20
69.999924
  0
VERTEX
  5
a7
  8
Layer_0
  10
606
  20
69.999939
  0
VERTEX
  5
a8
  8
Layer_0
  10
606
  20
29.999939
  0
VERTEX
  5
a9
  8
Layer_0
  10
611
  20
29.999939
  0
VERTEX
  5
aa
  8
Layer_0
  10
596
  20
-6.1035156e-05
  0
VERTEX
  5
ab
  8
Layer_0
  10
581
  20
29.999939
  0
VERTEX
  5
ac
  8
Layer_0
  10
586
  20
29.999939
  0
VERTEX
  5
ad
  8
Layer_0
  10
586
  20
69.999939
  0
VERTEX
  5
ae
  8
Layer_0
  10
424
  20
69.999954
  0
VERTEX
  5
af
  8
Layer_0
  10
424
  20
29.999954
  0
VERTEX
  5
b0
  8
Layer_0
  10
429
  20
29.999954
  0
VERTEX
  5
b1
  8
Layer_0
  10
413.99997
  20
-4.5776367e-05
  0
VERTEX
  5
b2
  8
Layer_0
  10
399
  20
29.999954
  0
VERTEX
  5
b3
  8
Layer_0
  10
404
  20
29.999954
  0
VERTEX
  5
b4
  8
Layer_0
  10
404
  20
69.999962
  0
VERTEX
  5
b5
  8
Layer_0
  10
241.99998
  20
69.999977
  0
VERTEX
  5
b6
  8
Layer_0
  10
241.99998
  20
29.999969
  0
VERTEX
  5
b7
  8
Layer_0
  10
246.99998
  20
29.999969
  0
VERTEX
  5
b8
  8
Layer_0
  10
231.99998
  20
-3.0517578e-05
  0
VERTEX
  5
b9
  8
Layer_0
  10
216.99998
  20
29.999985
  0
VERTEX
  5
ba
  8
Layer_0
  10
221.99998
  20
29.999985
  0
VERTEX
  5
bb
  8
Layer_0
  10
221.99998
  20
69.999977
  0
VERTEX
  5
bc
  8
Layer_0
  10
59.999989
  20
69.999992
  0
VERTEX
  5
bd
  8
Layer_0
  10
59.999985
  20
30
  0
VERTEX
  5
be
  8
Layer_0
  10
64.999985
  20
30
  0
VERTEX
  5
bf
  8
Layer_0
  10
49.999985
  20
0
  0
VERTEX
  5
c0
  8
Layer_0
  10
34.999985
  20
30
  0
VERTEX
  5
c1
  8
Layer_0
  10
39.999985
  20
30
  0
VERTEX
  5
c2
  8
Layer_0
  10
39.999989
  20
69.999992
  0
VERTEX
  5
c3
  8
Layer_0
  10
-9.9347662e-06
  20
70
  0
SEQEND
  0
CIRCLE
  5
c5
  8
Layer_0
  62
7
  10
12
  20
132.5
  30
0
  40
3
  0
CIRCLE
  5
c5
  8
Layer_0
  62
7
  10
12
  20
82.5
  30
0
  40
3
  0
CIRCLE
  5
c5
  8
Layer_0
  62
7
  10
1202
  20
132.5
  30
0
  40
3
  0
CIRCLE
  5
c5
  8
Layer_0
  62
7
  10
1202
  20
82.5
  30
0
  40
3
  0
POLYLINE
  5
c5
  8
Layer_0
  62
7
  66
1
  10
0
  20
0
  30
0
  0
VERTEX
  5
c5
  8
Layer_0
  10
0
  20
70
  0
VERTEX
  5
c6
  8
Layer_0
  10
0
  20
145
  0
VERTEX
  5
c7
  8
Layer_0
  10
1220
  20
145
  0
VERTEX
  5
c8
  8
Layer_0
  10
1220
  20
70
  0
SEQEND
  0
ENDSEC
  0
EOF
