  0
SECTION
  2
HEADER
  9
$ACADVER
  1
AC1009
  0
ENDSEC
  0
SECTION
  2
TABLES
  0
TABLE
  2
LAYER
  70
1
  0
LAYER
  2
Layer_0
  70
0
  62
7
  6
CONTINUOUS
  0
ENDTAB
  0
ENDSEC
  0
SECTION
  2
ENTITIES
  0
POLYLINE
  5
90
  8
Layer_0
  62
7
  70
1
  66
1
  10
0
  20
0
  30
0
  0
VERTEX
  5
90
  8
Layer_0
  10
-446.5
  20
360
  0
VERTEX
  5
91
  8
Layer_0
  10
-446.5
  20
322.5
  0
VERTEX
  5
92
  8
Layer_0
  10
-364
  20
322.5
  0
VERTEX
  5
93
  8
Layer_0
  10
-281.5
  20
322.5
  0
VERTEX
  5
94
  8
Layer_0
  10
-281.5
  20
360
  0
VERTEX
  5
95
  8
Layer_0
  10
-281.5
  20
397.5
  0
VERTEX
  5
96
  8
Layer_0
  10
-364
  20
397.5
  0
VERTEX
  5
97
  8
Layer_0
  10
-446.5
  20
397.5
  0
SEQEND
  0
POLYLINE
  5
99
  8
Layer_0
  62
7
  70
1
  66
1
  10
0
  20
0
  30
0
  0
VERTEX
  5
99
  8
Layer_0
  10
-409.21517
  20
368.24207
  0
VERTEX
  5
9a
  8
Layer_0
  10
-409.27485
  20
367.93361
  0
VERTEX
  5
9b
  8
Layer_0
  10
-409.32371
  20
367.61719
  0
VERTEX
  5
9c
  8
Layer_0
  10
-409.35673
  20
367.32997
  0
VERTEX
  5
9d
  8
Layer_0
  10
-409.36886
  20
367.10914
  0
VERTEX
  5
9e
  8
Layer_0
  10
-409.37425
  20
367.03747
  0
VERTEX
  5
9f
  8
Layer_0
  10
-409.39664
  20
366.97434
  0
VERTEX
  5
a0
  8
Layer_0
  10
-409.44536
  20
366.91919
  0
VERTEX
  5
a1
  8
Layer_0
  10
-409.52974
  20
366.8715
  0
VERTEX
  5
a2
  8
Layer_0
  10
-409.65911
  20
366.83073
  0
VERTEX
  5
a3
  8
Layer_0
  10
-409.84279
  20
366.79633
  0
VERTEX
  5
a4
  8
Layer_0
  10
-410.09013
  20
366.76776
  0
VERTEX
  5
a5
  8
Layer_0
  10
-410.41044
  20
366.74449
  0
VERTEX
  5
a6
  8
Layer_0
  10
-410.81305
  20
366.72598
  0
VERTEX
  5
a7
  8
Layer_0
  10
-411.3073
  20
366.71168
  0
VERTEX
  5
a8
  8
Layer_0
  10
-411.59171
  20
366.70595
  0
VERTEX
  5
a9
  8
Layer_0
  10
-411.90252
  20
366.70107
  0
VERTEX
  5
aa
  8
Layer_0
  10
-412.2409
  20
366.69697
  0
VERTEX
  5
ab
  8
Layer_0
  10
-412.60803
  20
366.69359
  0
VERTEX
  5
ac
  8
Layer_0
  10
-413.00506
  20
366.69086
  0
VERTEX
  5
ad
  8
Layer_0
  10
-413.43316
  20
366.68871
  0
VERTEX
  5
ae
  8
Layer_0
  10
-413.8935
  20
366.68708
  0
VERTEX
  5
af
  8
Layer_0
  10
-414.38725
  20
366.6859
  0
VERTEX
  5
b0
  8
Layer_0
  10
-414.91557
  20
366.68509
  0
VERTEX
  5
b1
  8
Layer_0
  10
-415.47962
  20
366.6846
  0
VERTEX
  5
b2
  8
Layer_0
  10
-416.08058
  20
366.68436
  0
VERTEX
  5
b3
  8
Layer_0
  10
-416.7196
  20
366.68429
  0
VERTEX
  5
b4
  8
Layer_0
  10
-417.45659
  20
366.68451
  0
VERTEX
  5
b5
  8
Layer_0
  10
-418.14482
  20
366.68495
  0
VERTEX
  5
b6
  8
Layer_0
  10
-418.78595
  20
366.68529
  0
VERTEX
  5
b7
  8
Layer_0
  10
-419.38165
  20
366.6852
  0
VERTEX
  5
b8
  8
Layer_0
  10
-419.93359
  20
366.68436
  0
VERTEX
  5
b9
  8
Layer_0
  10
-420.44342
  20
366.68244
  0
VERTEX
  5
ba
  8
Layer_0
  10
-420.91282
  20
366.67913
  0
VERTEX
  5
bb
  8
Layer_0
  10
-421.34343
  20
366.67409
  0
VERTEX
  5
bc
  8
Layer_0
  10
-421.73693
  20
366.667
  0
VERTEX
  5
bd
  8
Layer_0
  10
-422.09497
  20
366.65754
  0
VERTEX
  5
be
  8
Layer_0
  10
-422.41923
  20
366.64539
  0
VERTEX
  5
bf
  8
Layer_0
  10
-422.71137
  20
366.63021
  0
VERTEX
  5
c0
  8
Layer_0
  10
-422.97304
  20
366.61169
  0
VERTEX
  5
c1
  8
Layer_0
  10
-423.20591
  20
366.5895
  0
VERTEX
  5
c2
  8
Layer_0
  10
-423.41164
  20
366.56331
  0
VERTEX
  5
c3
  8
Layer_0
  10
-423.5919
  20
366.53281
  0
VERTEX
  5
c4
  8
Layer_0
  10
-423.88266
  20
366.45755
  0
VERTEX
  5
c5
  8
Layer_0
  10
-424.09148
  20
366.36114
  0
VERTEX
  5
c6
  8
Layer_0
  10
-424.23167
  20
366.24096
  0
VERTEX
  5
c7
  8
Layer_0
  10
-424.31654
  20
366.09444
  0
VERTEX
  5
c8
  8
Layer_0
  10
-424.35939
  20
365.91897
  0
VERTEX
  5
c9
  8
Layer_0
  10
-424.37352
  20
365.71196
  0
VERTEX
  5
ca
  8
Layer_0
  10
-424.37224
  20
365.47082
  0
VERTEX
  5
cb
  8
Layer_0
  10
-424.36886
  20
365.19295
  0
VERTEX
  5
cc
  8
Layer_0
  10
-424.36887
  20
364.41843
  0
VERTEX
  5
cd
  8
Layer_0
  10
-422.03281
  20
364.41843
  0
VERTEX
  5
ce
  8
Layer_0
  10
-419.69672
  20
364.41843
  0
VERTEX
  5
cf
  8
Layer_0
  10
-419.69702
  20
363.79532
  0
VERTEX
  5
d0
  8
Layer_0
  10
-419.69958
  20
363.71365
  0
VERTEX
  5
d1
  8
Layer_0
  10
-419.70707
  20
363.59857
  0
VERTEX
  5
d2
  8
Layer_0
  10
-419.71923
  20
363.4522
  0
VERTEX
  5
d3
  8
Layer_0
  10
-419.7358
  20
363.27665
  0
VERTEX
  5
d4
  8
Layer_0
  10
-419.78118
  20
362.84651
  0
VERTEX
  5
d5
  8
Layer_0
  10
-419.84121
  20
362.32507
  0
VERTEX
  5
d6
  8
Layer_0
  10
-419.91388
  20
361.72929
  0
VERTEX
  5
d7
  8
Layer_0
  10
-419.99716
  20
361.0761
  0
VERTEX
  5
d8
  8
Layer_0
  10
-420.08905
  20
360.38243
  0
VERTEX
  5
d9
  8
Layer_0
  10
-420.18754
  20
359.66524
  0
VERTEX
  5
da
  8
Layer_0
  10
-420.27302
  20
359.05247
  0
VERTEX
  5
db
  8
Layer_0
  10
-420.34712
  20
358.51484
  0
VERTEX
  5
dc
  8
Layer_0
  10
-420.40985
  20
358.04668
  0
VERTEX
  5
dd
  8
Layer_0
  10
-420.46123
  20
357.64238
  0
VERTEX
  5
de
  8
Layer_0
  10
-420.50128
  20
357.29627
  0
VERTEX
  5
df
  8
Layer_0
  10
-420.53
  20
357.00271
  0
VERTEX
  5
e0
  8
Layer_0
  10
-420.54742
  20
356.75606
  0
VERTEX
  5
e1
  8
Layer_0
  10
-420.55354
  20
356.55068
  0
VERTEX
  5
e2
  8
Layer_0
  10
-420.54838
  20
356.38092
  0
VERTEX
  5
e3
  8
Layer_0
  10
-420.53196
  20
356.24114
  0
VERTEX
  5
e4
  8
Layer_0
  10
-420.50429
  20
356.12569
  0
VERTEX
  5
e5
  8
Layer_0
  10
-420.46538
  20
356.02893
  0
VERTEX
  5
e6
  8
Layer_0
  10
-420.35392
  20
355.8689
  0
VERTEX
  5
e7
  8
Layer_0
  10
-420.19768
  20
355.71589
  0
VERTEX
  5
e8
  8
Layer_0
  10
-420.05627
  20
355.59264
  0
VERTEX
  5
e9
  8
Layer_0
  10
-419.9294
  20
355.50023
  0
VERTEX
  5
ea
  8
Layer_0
  10
-419.81048
  20
355.43754
  0
VERTEX
  5
eb
  8
Layer_0
  10
-419.69294
  20
355.40344
  0
VERTEX
  5
ec
  8
Layer_0
  10
-419.57019
  20
355.39683
  0
VERTEX
  5
ed
  8
Layer_0
  10
-419.43564
  20
355.41659
  0
VERTEX
  5
ee
  8
Layer_0
  10
-419.28271
  20
355.4616
  0
VERTEX
  5
ef
  8
Layer_0
  10
-419.10482
  20
355.53075
  0
VERTEX
  5
f0
  8
Layer_0
  10
-418.83861
  20
355.67713
  0
VERTEX
  5
f1
  8
Layer_0
  10
-418.61626
  20
355.89738
  0
VERTEX
  5
f2
  8
Layer_0
  10
-418.51813
  20
356.04744
  0
VERTEX
  5
f3
  8
Layer_0
  10
-418.42688
  20
356.23066
  0
VERTEX
  5
f4
  8
Layer_0
  10
-418.34115
  20
356.45192
  0
VERTEX
  5
f5
  8
Layer_0
  10
-418.25957
  20
356.71612
  0
VERTEX
  5
f6
  8
Layer_0
  10
-418.18079
  20
357.02816
  0
VERTEX
  5
f7
  8
Layer_0
  10
-418.10344
  20
357.39293
  0
VERTEX
  5
f8
  8
Layer_0
  10
-418.02615
  20
357.81532
  0
VERTEX
  5
f9
  8
Layer_0
  10
-417.94758
  20
358.30023
  0
VERTEX
  5
fa
  8
Layer_0
  10
-417.86634
  20
358.85256
  0
VERTEX
  5
fb
  8
Layer_0
  10
-417.78109
  20
359.4772
  0
VERTEX
  5
fc
  8
Layer_0
  10
-417.69047
  20
360.17905
  0
VERTEX
  5
fd
  8
Layer_0
  10
-417.59309
  20
360.96299
  0
VERTEX
  5
fe
  8
Layer_0
  10
-417.17007
  20
364.41843
  0
VERTEX
  5
ff
  8
Layer_0
  10
-413.51538
  20
364.41843
  0
VERTEX
  5
100
  8
Layer_0
  10
-409.86066
  20
364.41843
  0
VERTEX
  5
101
  8
Layer_0
  10
-409.86093
  20
363.79532
  0
VERTEX
  5
102
  8
Layer_0
  10
-409.86355
  20
363.71161
  0
VERTEX
  5
103
  8
Layer_0
  10
-409.87113
  20
363.59556
  0
VERTEX
  5
104
  8
Layer_0
  10
-409.88339
  20
363.44926
  0
VERTEX
  5
105
  8
Layer_0
  10
-409.90005
  20
363.27482
  0
VERTEX
  5
106
  8
Layer_0
  10
-409.94543
  20
362.84988
  0
VERTEX
  5
107
  8
Layer_0
  10
-410.00497
  20
362.33749
  0
VERTEX
  5
108
  8
Layer_0
  10
-410.07641
  20
361.75441
  0
VERTEX
  5
109
  8
Layer_0
  10
-410.15746
  20
361.1174
  0
VERTEX
  5
10a
  8
Layer_0
  10
-410.24583
  20
360.44322
  0
VERTEX
  5
10b
  8
Layer_0
  10
-410.33925
  20
359.74862
  0
VERTEX
  5
10c
  8
Layer_0
  10
-410.43543
  20
359.05038
  0
VERTEX
  5
10d
  8
Layer_0
  10
-410.5321
  20
358.36524
  0
VERTEX
  5
10e
  8
Layer_0
  10
-410.62697
  20
357.70998
  0
VERTEX
  5
10f
  8
Layer_0
  10
-410.71776
  20
357.10134
  0
VERTEX
  5
110
  8
Layer_0
  10
-410.80218
  20
356.55609
  0
VERTEX
  5
111
  8
Layer_0
  10
-410.87797
  20
356.09099
  0
VERTEX
  5
112
  8
Layer_0
  10
-410.91191
  20
355.89374
  0
VERTEX
  5
113
  8
Layer_0
  10
-410.94283
  20
355.7228
  0
VERTEX
  5
114
  8
Layer_0
  10
-410.97045
  20
355.58028
  0
VERTEX
  5
115
  8
Layer_0
  10
-410.99448
  20
355.46828
  0
VERTEX
  5
116
  8
Layer_0
  10
-411.15669
  20
354.92551
  0
VERTEX
  5
117
  8
Layer_0
  10
-411.39602
  20
354.35494
  0
VERTEX
  5
118
  8
Layer_0
  10
-411.70467
  20
353.76815
  0
VERTEX
  5
119
  8
Layer_0
  10
-412.07481
  20
353.17671
  0
VERTEX
  5
11a
  8
Layer_0
  10
-412.49862
  20
352.5922
  0
VERTEX
  5
11b
  8
Layer_0
  10
-412.96831
  20
352.02618
  0
VERTEX
  5
11c
  8
Layer_0
  10
-413.47605
  20
351.49023
  0
VERTEX
  5
11d
  8
Layer_0
  10
-414.01403
  20
350.99592
  0
VERTEX
  5
11e
  8
Layer_0
  10
-414.74485
  20
350.41218
  0
VERTEX
  5
11f
  8
Layer_0
  10
-415.46217
  20
349.925
  0
VERTEX
  5
120
  8
Layer_0
  10
-416.18298
  20
349.52826
  0
VERTEX
  5
121
  8
Layer_0
  10
-416.92429
  20
349.21586
  0
VERTEX
  5
122
  8
Layer_0
  10
-417.7031
  20
348.98167
  0
VERTEX
  5
123
  8
Layer_0
  10
-418.53639
  20
348.81959
  0
VERTEX
  5
124
  8
Layer_0
  10
-418.97878
  20
348.76368
  0
VERTEX
  5
125
  8
Layer_0
  10
-419.44117
  20
348.72351
  0
VERTEX
  5
126
  8
Layer_0
  10
-419.92568
  20
348.69831
  0
VERTEX
  5
127
  8
Layer_0
  10
-420.43443
  20
348.68731
  0
VERTEX
  5
128
  8
Layer_0
  10
-420.75935
  20
348.68582
  0
VERTEX
  5
129
  8
Layer_0
  10
-421.05563
  20
348.68714
  0
VERTEX
  5
12a
  8
Layer_0
  10
-421.32638
  20
348.69181
  0
VERTEX
  5
12b
  8
Layer_0
  10
-421.5747
  20
348.70038
  0
VERTEX
  5
12c
  8
Layer_0
  10
-422.01641
  20
348.73143
  0
VERTEX
  5
12d
  8
Layer_0
  10
-422.40555
  20
348.78468
  0
VERTEX
  5
12e
  8
Layer_0
  10
-422.76692
  20
348.86453
  0
VERTEX
  5
12f
  8
Layer_0
  10
-423.12529
  20
348.97537
  0
VERTEX
  5
130
  8
Layer_0
  10
-423.50545
  20
349.1216
  0
VERTEX
  5
131
  8
Layer_0
  10
-423.9322
  20
349.30762
  42
-0.19110388
  0
VERTEX
  5
132
  8
Layer_0
  10
-427.59033
  20
353.07114
  0
VERTEX
  5
133
  8
Layer_0
  10
-427.73865
  20
353.45063
  0
VERTEX
  5
134
  8
Layer_0
  10
-427.85323
  20
353.79699
  0
VERTEX
  5
135
  8
Layer_0
  10
-427.93652
  20
354.13157
  0
VERTEX
  5
136
  8
Layer_0
  10
-427.991
  20
354.47571
  0
VERTEX
  5
137
  8
Layer_0
  10
-428.01909
  20
354.85075
  0
VERTEX
  5
138
  8
Layer_0
  10
-428.02325
  20
355.27802
  0
VERTEX
  5
139
  8
Layer_0
  10
-428.00593
  20
355.77887
  0
VERTEX
  5
13a
  8
Layer_0
  10
-427.96959
  20
356.37462
  0
VERTEX
  5
13b
  8
Layer_0
  10
-427.90195
  20
357.22454
  0
VERTEX
  5
13c
  8
Layer_0
  10
-427.82221
  20
358.03118
  0
VERTEX
  5
13d
  8
Layer_0
  10
-427.78091
  20
358.38981
  0
VERTEX
  5
13e
  8
Layer_0
  10
-427.74031
  20
358.70346
  0
VERTEX
  5
13f
  8
Layer_0
  10
-427.70167
  20
358.96075
  0
VERTEX
  5
140
  8
Layer_0
  10
-427.66622
  20
359.1503
  0
VERTEX
  5
141
  8
Layer_0
  10
-427.61018
  20
359.38659
  0
VERTEX
  5
142
  8
Layer_0
  10
-427.54992
  20
359.56607
  0
VERTEX
  5
143
  8
Layer_0
  10
-427.47069
  20
359.69654
  0
VERTEX
  5
144
  8
Layer_0
  10
-427.35775
  20
359.7858
  0
VERTEX
  5
145
  8
Layer_0
  10
-427.19634
  20
359.84164
  0
VERTEX
  5
146
  8
Layer_0
  10
-426.97173
  20
359.87188
  0
VERTEX
  5
147
  8
Layer_0
  10
-426.66917
  20
359.8843
  0
VERTEX
  5
148
  8
Layer_0
  10
-426.27391
  20
359.88671
  0
VERTEX
  5
149
  8
Layer_0
  10
-425.0437
  20
359.88672
  0
VERTEX
  5
14a
  8
Layer_0
  10
-425.185
  20
359.03702
  0
VERTEX
  5
14b
  8
Layer_0
  10
-425.29384
  20
358.35294
  0
VERTEX
  5
14c
  8
Layer_0
  10
-425.38235
  20
357.72596
  0
VERTEX
  5
14d
  8
Layer_0
  10
-425.44981
  20
357.15169
  0
VERTEX
  5
14e
  8
Layer_0
  10
-425.49548
  20
356.62579
  0
VERTEX
  5
14f
  8
Layer_0
  10
-425.51861
  20
356.14388
  0
VERTEX
  5
150
  8
Layer_0
  10
-425.51845
  20
355.70161
  0
VERTEX
  5
151
  8
Layer_0
  10
-425.49428
  20
355.29461
  0
VERTEX
  5
152
  8
Layer_0
  10
-425.44534
  20
354.91852
  0
VERTEX
  5
153
  8
Layer_0
  10
-425.37089
  20
354.56898
  0
VERTEX
  5
154
  8
Layer_0
  10
-425.2702
  20
354.24164
  0
VERTEX
  5
155
  8
Layer_0
  10
-425.14252
  20
353.93212
  0
VERTEX
  5
156
  8
Layer_0
  10
-424.98711
  20
353.63607
  0
VERTEX
  5
157
  8
Layer_0
  10
-424.80323
  20
353.34912
  0
VERTEX
  5
158
  8
Layer_0
  10
-424.59014
  20
353.06692
  0
VERTEX
  5
159
  8
Layer_0
  10
-424.34709
  20
352.7851
  0
VERTEX
  5
15a
  8
Layer_0
  10
-424.07335
  20
352.49931
  0
VERTEX
  5
15b
  8
Layer_0
  10
-423.6171
  20
352.09173
  0
VERTEX
  5
15c
  8
Layer_0
  10
-423.12781
  20
351.7452
  0
VERTEX
  5
15d
  8
Layer_0
  10
-422.60959
  20
351.45941
  0
VERTEX
  5
15e
  8
Layer_0
  10
-422.06656
  20
351.23409
  0
VERTEX
  5
15f
  8
Layer_0
  10
-421.50285
  20
351.06893
  0
VERTEX
  5
160
  8
Layer_0
  10
-420.92256
  20
350.96363
  0
VERTEX
  5
161
  8
Layer_0
  10
-420.32982
  20
350.91791
  0
VERTEX
  5
162
  8
Layer_0
  10
-419.72875
  20
350.93147
  0
VERTEX
  5
163
  8
Layer_0
  10
-419.12347
  20
351.00402
  0
VERTEX
  5
164
  8
Layer_0
  10
-418.51809
  20
351.13526
  0
VERTEX
  5
165
  8
Layer_0
  10
-417.91674
  20
351.3249
  0
VERTEX
  5
166
  8
Layer_0
  10
-417.32353
  20
351.57264
  0
VERTEX
  5
167
  8
Layer_0
  10
-416.74258
  20
351.8782
  0
VERTEX
  5
168
  8
Layer_0
  10
-416.17802
  20
352.24127
  0
VERTEX
  5
169
  8
Layer_0
  10
-415.63395
  20
352.66156
  0
VERTEX
  5
16a
  8
Layer_0
  10
-415.11451
  20
353.13878
  0
VERTEX
  5
16b
  8
Layer_0
  10
-414.69539
  20
353.60513
  0
VERTEX
  5
16c
  8
Layer_0
  10
-414.29115
  20
354.13822
  0
VERTEX
  5
16d
  8
Layer_0
  10
-414.109
  20
354.40924
  0
VERTEX
  5
16e
  8
Layer_0
  10
-413.94784
  20
354.67231
  0
VERTEX
  5
16f
  8
Layer_0
  10
-413.81342
  20
354.91919
  0
VERTEX
  5
170
  8
Layer_0
  10
-413.7115
  20
355.14169
  0
VERTEX
  5
171
  8
Layer_0
  10
-413.64733
  20
355.33364
  0
VERTEX
  5
172
  8
Layer_0
  10
-413.57288
  20
355.61231
  0
VERTEX
  5
173
  8
Layer_0
  10
-413.49015
  20
355.96584
  0
VERTEX
  5
174
  8
Layer_0
  10
-413.40112
  20
356.38236
  0
VERTEX
  5
175
  8
Layer_0
  10
-413.30778
  20
356.85001
  0
VERTEX
  5
176
  8
Layer_0
  10
-413.21212
  20
357.35693
  0
VERTEX
  5
177
  8
Layer_0
  10
-413.11613
  20
357.89125
  0
VERTEX
  5
178
  8
Layer_0
  10
-413.0218
  20
358.44111
  0
VERTEX
  5
179
  8
Layer_0
  10
-412.84607
  20
359.54
  0
VERTEX
  5
17a
  8
Layer_0
  10
-412.70085
  20
360.55869
  0
VERTEX
  5
17b
  8
Layer_0
  10
-412.64466
  20
361.00831
  0
VERTEX
  5
17c
  8
Layer_0
  10
-412.60205
  20
361.40228
  0
VERTEX
  5
17d
  8
Layer_0
  10
-412.57503
  20
361.72875
  0
VERTEX
  5
17e
  8
Layer_0
  10
-412.56558
  20
361.97586
  0
VERTEX
  5
17f
  8
Layer_0
  10
-412.58995
  20
362.01136
  0
VERTEX
  5
180
  8
Layer_0
  10
-412.65977
  20
362.04447
  0
VERTEX
  5
181
  8
Layer_0
  10
-412.77017
  20
362.07448
  0
VERTEX
  5
182
  8
Layer_0
  10
-412.91624
  20
362.10066
  0
VERTEX
  5
183
  8
Layer_0
  10
-413.29581
  20
362.13862
  0
VERTEX
  5
184
  8
Layer_0
  10
-413.75931
  20
362.15257
  0
VERTEX
  5
185
  8
Layer_0
  10
-414.95303
  20
362.15256
  0
VERTEX
  5
186
  8
Layer_0
  10
-415.25705
  20
359.71677
  0
VERTEX
  5
187
  8
Layer_0
  10
-415.36389
  20
358.8972
  0
VERTEX
  5
188
  8
Layer_0
  10
-415.47107
  20
358.15708
  0
VERTEX
  5
189
  8
Layer_0
  10
-415.58098
  20
357.49155
  0
VERTEX
  5
18a
  8
Layer_0
  10
-415.69598
  20
356.89575
  0
VERTEX
  5
18b
  8
Layer_0
  10
-415.81846
  20
356.36484
  0
VERTEX
  5
18c
  8
Layer_0
  10
-415.95078
  20
355.89397
  0
VERTEX
  5
18d
  8
Layer_0
  10
-416.09531
  20
355.47827
  0
VERTEX
  5
18e
  8
Layer_0
  10
-416.25445
  20
355.11289
  0
VERTEX
  5
18f
  8
Layer_0
  10
-416.43055
  20
354.79299
  0
VERTEX
  5
190
  8
Layer_0
  10
-416.62599
  20
354.51371
  0
VERTEX
  5
191
  8
Layer_0
  10
-416.84315
  20
354.27019
  0
VERTEX
  5
192
  8
Layer_0
  10
-417.0844
  20
354.05759
  0
VERTEX
  5
193
  8
Layer_0
  10
-417.35211
  20
353.87105
  0
VERTEX
  5
194
  8
Layer_0
  10
-417.64866
  20
353.70571
  0
VERTEX
  5
195
  8
Layer_0
  10
-417.97642
  20
353.55673
  0
VERTEX
  5
196
  8
Layer_0
  10
-418.33777
  20
353.41925
  0
VERTEX
  5
197
  8
Layer_0
  10
-418.68686
  20
353.30976
  0
VERTEX
  5
198
  8
Layer_0
  10
-419.03269
  20
353.22759
  0
VERTEX
  5
199
  8
Layer_0
  10
-419.37396
  20
353.17235
  0
VERTEX
  5
19a
  8
Layer_0
  10
-419.70936
  20
353.14365
  0
VERTEX
  5
19b
  8
Layer_0
  10
-420.03759
  20
353.14111
  0
VERTEX
  5
19c
  8
Layer_0
  10
-420.35734
  20
353.16435
  0
VERTEX
  5
19d
  8
Layer_0
  10
-420.66731
  20
353.21298
  0
VERTEX
  5
19e
  8
Layer_0
  10
-420.96619
  20
353.28662
  0
VERTEX
  5
19f
  8
Layer_0
  10
-421.25267
  20
353.38488
  0
VERTEX
  5
1a0
  8
Layer_0
  10
-421.52545
  20
353.50739
  0
VERTEX
  5
1a1
  8
Layer_0
  10
-421.78322
  20
353.65376
  0
VERTEX
  5
1a2
  8
Layer_0
  10
-422.02468
  20
353.82361
  0
VERTEX
  5
1a3
  8
Layer_0
  10
-422.24852
  20
354.01654
  0
VERTEX
  5
1a4
  8
Layer_0
  10
-422.45344
  20
354.23219
  0
VERTEX
  5
1a5
  8
Layer_0
  10
-422.63813
  20
354.47016
  0
VERTEX
  5
1a6
  8
Layer_0
  10
-422.80128
  20
354.73008
  0
VERTEX
  5
1a7
  8
Layer_0
  10
-422.92219
  20
354.96463
  0
VERTEX
  5
1a8
  8
Layer_0
  10
-423.01074
  20
355.19587
  0
VERTEX
  5
1a9
  8
Layer_0
  10
-423.06782
  20
355.44957
  0
VERTEX
  5
1aa
  8
Layer_0
  10
-423.09431
  20
355.75149
  0
VERTEX
  5
1ab
  8
Layer_0
  10
-423.09636
  20
355.92859
  0
VERTEX
  5
1ac
  8
Layer_0
  10
-423.09109
  20
356.1274
  0
VERTEX
  5
1ad
  8
Layer_0
  10
-423.07862
  20
356.35116
  0
VERTEX
  5
1ae
  8
Layer_0
  10
-423.05905
  20
356.60308
  0
VERTEX
  5
1af
  8
Layer_0
  10
-423.0325
  20
356.88638
  0
VERTEX
  5
1b0
  8
Layer_0
  10
-422.99908
  20
357.20429
  0
VERTEX
  5
1b1
  8
Layer_0
  10
-422.9589
  20
357.56002
  0
VERTEX
  5
1b2
  8
Layer_0
  10
-422.91206
  20
357.9568
  0
VERTEX
  5
1b3
  8
Layer_0
  10
-422.78511
  20
358.99314
  0
VERTEX
  5
1b4
  8
Layer_0
  10
-422.66055
  20
359.96946
  0
VERTEX
  5
1b5
  8
Layer_0
  10
-422.60365
  20
360.4008
  0
VERTEX
  5
1b6
  8
Layer_0
  10
-422.55271
  20
360.77597
  0
VERTEX
  5
1b7
  8
Layer_0
  10
-422.50952
  20
361.08123
  0
VERTEX
  5
1b8
  8
Layer_0
  10
-422.47588
  20
361.30287
  0
VERTEX
  5
1b9
  8
Layer_0
  10
-422.33881
  20
362.15256
  0
VERTEX
  5
1ba
  8
Layer_0
  10
-424.84879
  20
362.15256
  0
VERTEX
  5
1bb
  8
Layer_0
  10
-427.35876
  20
362.15256
  0
VERTEX
  5
1bc
  8
Layer_0
  10
-427.22794
  20
362.7757
  0
VERTEX
  5
1bd
  8
Layer_0
  10
-427.19617
  20
362.94478
  0
VERTEX
  5
1be
  8
Layer_0
  10
-427.15591
  20
363.18747
  0
VERTEX
  5
1bf
  8
Layer_0
  10
-427.10879
  20
363.49236
  0
VERTEX
  5
1c0
  8
Layer_0
  10
-427.05646
  20
363.84807
  0
VERTEX
  5
1c1
  8
Layer_0
  10
-426.94275
  20
364.66639
  0
VERTEX
  5
1c2
  8
Layer_0
  10
-426.82788
  20
365.55136
  0
VERTEX
  5
1c3
  8
Layer_0
  10
-426.71301
  20
366.43633
  0
VERTEX
  5
1c4
  8
Layer_0
  10
-426.59929
  20
367.25465
  0
VERTEX
  5
1c5
  8
Layer_0
  10
-426.54696
  20
367.61036
  0
VERTEX
  5
1c6
  8
Layer_0
  10
-426.49985
  20
367.91525
  0
VERTEX
  5
1c7
  8
Layer_0
  10
-426.45958
  20
368.15794
  0
VERTEX
  5
1c8
  8
Layer_0
  10
-426.42781
  20
368.32704
  0
VERTEX
  5
1c9
  8
Layer_0
  10
-426.297
  20
368.95013
  0
VERTEX
  5
1ca
  8
Layer_0
  10
-417.67923
  20
368.95013
  0
VERTEX
  5
1cb
  8
Layer_0
  10
-409.06149
  20
368.95013
  0
VERTEX
  5
1cc
  8
Layer_0
  10
-409.21518
  20
368.24207
  0
SEQEND
  0
POLYLINE
  5
1ce
  8
Layer_0
  62
7
  70
1
  66
1
  10
0
  20
0
  30
0
  0
VERTEX
  5
1ce
  8
Layer_0
  10
-401.24958
  20
366.17447
  0
VERTEX
  5
1cf
  8
Layer_0
  10
-401.25249
  20
366.12066
  0
VERTEX
  5
1d0
  8
Layer_0
  10
-401.26193
  20
366.01937
  0
VERTEX
  5
1d1
  8
Layer_0
  10
-401.27758
  20
365.87322
  0
VERTEX
  5
1d2
  8
Layer_0
  10
-401.29909
  20
365.68482
  0
VERTEX
  5
1d3
  8
Layer_0
  10
-401.32615
  20
365.45678
  0
VERTEX
  5
1d4
  8
Layer_0
  10
-401.35842
  20
365.19172
  0
VERTEX
  5
1d5
  8
Layer_0
  10
-401.39556
  20
364.89224
  0
VERTEX
  5
1d6
  8
Layer_0
  10
-401.43726
  20
364.56097
  0
VERTEX
  5
1d7
  8
Layer_0
  10
-401.53297
  20
363.81347
  0
VERTEX
  5
1d8
  8
Layer_0
  10
-401.64291
  20
362.97012
  0
VERTEX
  5
1d9
  8
Layer_0
  10
-401.76442
  20
362.0518
  0
VERTEX
  5
1da
  8
Layer_0
  10
-401.89486
  20
361.07943
  0
VERTEX
  5
1db
  8
Layer_0
  10
-402.0006
  20
360.29266
  0
VERTEX
  5
1dc
  8
Layer_0
  10
-402.09304
  20
359.59433
  0
VERTEX
  5
1dd
  8
Layer_0
  10
-402.17246
  20
358.97839
  0
VERTEX
  5
1de
  8
Layer_0
  10
-402.23917
  20
358.4388
  0
VERTEX
  5
1df
  8
Layer_0
  10
-402.29344
  20
357.9695
  0
VERTEX
  5
1e0
  8
Layer_0
  10
-402.33558
  20
357.56446
  0
VERTEX
  5
1e1
  8
Layer_0
  10
-402.36587
  20
357.21763
  0
VERTEX
  5
1e2
  8
Layer_0
  10
-402.38461
  20
356.92296
  0
VERTEX
  5
1e3
  8
Layer_0
  10
-402.39209
  20
356.67439
  0
VERTEX
  5
1e4
  8
Layer_0
  10
-402.3886
  20
356.4659
  0
VERTEX
  5
1e5
  8
Layer_0
  10
-402.37443
  20
356.29142
  0
VERTEX
  5
1e6
  8
Layer_0
  10
-402.34987
  20
356.14492
  0
VERTEX
  5
1e7
  8
Layer_0
  10
-402.27077
  20
355.91165
  0
VERTEX
  5
1e8
  8
Layer_0
  10
-402.15362
  20
355.7177
  0
VERTEX
  5
1e9
  8
Layer_0
  10
-401.97532
  20
355.51048
  0
VERTEX
  5
1ea
  8
Layer_0
  10
-401.76447
  20
355.33931
  0
VERTEX
  5
1eb
  8
Layer_0
  10
-401.52607
  20
355.20345
  0
VERTEX
  5
1ec
  8
Layer_0
  10
-401.26511
  20
355.10215
  0
VERTEX
  5
1ed
  8
Layer_0
  10
-400.9866
  20
355.03467
  0
VERTEX
  5
1ee
  8
Layer_0
  10
-400.69552
  20
355.00025
  0
VERTEX
  5
1ef
  8
Layer_0
  10
-400.39689
  20
354.99816
  0
VERTEX
  5
1f0
  8
Layer_0
  10
-400.09569
  20
355.02763
  0
VERTEX
  5
1f1
  8
Layer_0
  10
-399.79693
  20
355.08792
  0
VERTEX
  5
1f2
  8
Layer_0
  10
-399.5056
  20
355.17829
  0
VERTEX
  5
1f3
  8
Layer_0
  10
-399.22671
  20
355.29799
  0
VERTEX
  5
1f4
  8
Layer_0
  10
-398.96525
  20
355.44627
  0
VERTEX
  5
1f5
  8
Layer_0
  10
-398.72622
  20
355.62237
  0
VERTEX
  5
1f6
  8
Layer_0
  10
-398.51462
  20
355.82556
  0
VERTEX
  5
1f7
  8
Layer_0
  10
-398.33545
  20
356.05509
  0
VERTEX
  5
1f8
  8
Layer_0
  10
-398.1937
  20
356.3102
  0
VERTEX
  5
1f9
  8
Layer_0
  10
-398.15663
  20
356.40666
  0
VERTEX
  5
1fa
  8
Layer_0
  10
-398.11536
  20
356.54077
  0
VERTEX
  5
1fb
  8
Layer_0
  10
-398.07034
  20
356.71012
  0
VERTEX
  5
1fc
  8
Layer_0
  10
-398.022
  20
356.9123
  0
VERTEX
  5
1fd
  8
Layer_0
  10
-397.97078
  20
357.14489
  0
VERTEX
  5
1fe
  8
Layer_0
  10
-397.91711
  20
357.40548
  0
VERTEX
  5
1ff
  8
Layer_0
  10
-397.86144
  20
357.69166
  0
VERTEX
  5
200
  8
Layer_0
  10
-397.8042
  20
358.001
  0
VERTEX
  5
201
  8
Layer_0
  10
-397.68674
  20
358.67953
  0
VERTEX
  5
202
  8
Layer_0
  10
-397.56824
  20
359.42175
  0
VERTEX
  5
203
  8
Layer_0
  10
-397.45218
  20
360.20835
  0
VERTEX
  5
204
  8
Layer_0
  10
-397.34207
  20
361.02002
  0
VERTEX
  5
205
  8
Layer_0
  10
-397.23611
  20
361.83151
  0
VERTEX
  5
206
  8
Layer_0
  10
-397.13196
  20
362.61761
  0
VERTEX
  5
207
  8
Layer_0
  10
-397.03228
  20
363.35905
  0
VERTEX
  5
208
  8
Layer_0
  10
-396.93972
  20
364.03653
  0
VERTEX
  5
209
  8
Layer_0
  10
-396.89695
  20
364.34526
  0
VERTEX
  5
20a
  8
Layer_0
  10
-396.85696
  20
364.63078
  0
VERTEX
  5
20b
  8
Layer_0
  10
-396.82008
  20
364.89067
  0
VERTEX
  5
20c
  8
Layer_0
  10
-396.78664
  20
365.12251
  0
VERTEX
  5
20d
  8
Layer_0
  10
-396.75697
  20
365.32391
  0
VERTEX
  5
20e
  8
Layer_0
  10
-396.73142
  20
365.49245
  0
VERTEX
  5
20f
  8
Layer_0
  10
-396.7103
  20
365.62571
  0
VERTEX
  5
210
  8
Layer_0
  10
-396.69396
  20
365.7213
  0
VERTEX
  5
211
  8
Layer_0
  10
-396.55969
  20
366.4577
  0
VERTEX
  5
212
  8
Layer_0
  10
-394.36386
  20
366.4577
  0
VERTEX
  5
213
  8
Layer_0
  10
-392.16803
  20
366.4577
  0
VERTEX
  5
214
  8
Layer_0
  10
-392.28745
  20
365.83459
  0
VERTEX
  5
215
  8
Layer_0
  10
-392.30285
  20
365.74713
  0
VERTEX
  5
216
  8
Layer_0
  10
-392.32414
  20
365.61504
  0
VERTEX
  5
217
  8
Layer_0
  10
-392.35096
  20
365.44101
  0
VERTEX
  5
218
  8
Layer_0
  10
-392.38292
  20
365.22775
  0
VERTEX
  5
219
  8
Layer_0
  10
-392.41963
  20
364.97793
  0
VERTEX
  5
21a
  8
Layer_0
  10
-392.46073
  20
364.69426
  0
VERTEX
  5
21b
  8
Layer_0
  10
-392.50583
  20
364.37941
  0
VERTEX
  5
21c
  8
Layer_0
  10
-392.55455
  20
364.03608
  0
VERTEX
  5
21d
  8
Layer_0
  10
-392.66134
  20
363.27474
  0
VERTEX
  5
21e
  8
Layer_0
  10
-392.77804
  20
362.43177
  0
VERTEX
  5
21f
  8
Layer_0
  10
-392.90162
  20
361.52868
  0
VERTEX
  5
220
  8
Layer_0
  10
-393.02903
  20
360.58701
  0
VERTEX
  5
221
  8
Layer_0
  10
-393.15939
  20
359.64053
  0
VERTEX
  5
222
  8
Layer_0
  10
-393.28431
  20
358.78663
  0
VERTEX
  5
223
  8
Layer_0
  10
-393.40612
  20
358.01874
  0
VERTEX
  5
224
  8
Layer_0
  10
-393.52716
  20
357.33027
  0
VERTEX
  5
225
  8
Layer_0
  10
-393.64976
  20
356.71465
  0
VERTEX
  5
226
  8
Layer_0
  10
-393.77626
  20
356.16532
  0
VERTEX
  5
227
  8
Layer_0
  10
-393.90899
  20
355.67569
  0
VERTEX
  5
228
  8
Layer_0
  10
-394.05029
  20
355.23919
  0
VERTEX
  5
229
  8
Layer_0
  10
-394.20249
  20
354.84925
  0
VERTEX
  5
22a
  8
Layer_0
  10
-394.36792
  20
354.49929
  0
VERTEX
  5
22b
  8
Layer_0
  10
-394.54892
  20
354.18274
  0
VERTEX
  5
22c
  8
Layer_0
  10
-394.74784
  20
353.89302
  0
VERTEX
  5
22d
  8
Layer_0
  10
-394.96699
  20
353.62357
  0
VERTEX
  5
22e
  8
Layer_0
  10
-395.20871
  20
353.3678
  0
VERTEX
  5
22f
  8
Layer_0
  10
-395.47535
  20
353.11914
  0
VERTEX
  5
230
  8
Layer_0
  10
-395.76923
  20
352.87102
  0
VERTEX
  5
231
  8
Layer_0
  10
-396.29472
  20
352.48087
  0
VERTEX
  5
232
  8
Layer_0
  10
-396.8396
  20
352.14925
  0
VERTEX
  5
233
  8
Layer_0
  10
-397.41014
  20
351.87419
  0
VERTEX
  5
234
  8
Layer_0
  10
-398.01263
  20
351.65372
  0
VERTEX
  5
235
  8
Layer_0
  10
-398.65333
  20
351.4859
  0
VERTEX
  5
236
  8
Layer_0
  10
-399.33854
  20
351.36875
  0
VERTEX
  5
237
  8
Layer_0
  10
-400.07453
  20
351.30032
  0
VERTEX
  5
238
  8
Layer_0
  10
-400.86759
  20
351.27865
  0
VERTEX
  5
239
  8
Layer_0
  10
-401.43224
  20
351.29485
  0
VERTEX
  5
23a
  8
Layer_0
  10
-401.9738
  20
351.34163
  0
VERTEX
  5
23b
  8
Layer_0
  10
-402.49141
  20
351.41845
  0
VERTEX
  5
23c
  8
Layer_0
  10
-402.98421
  20
351.52477
  0
VERTEX
  5
23d
  8
Layer_0
  10
-403.45135
  20
351.66006
  0
VERTEX
  5
23e
  8
Layer_0
  10
-403.89196
  20
351.82377
  0
VERTEX
  5
23f
  8
Layer_0
  10
-404.3052
  20
352.01538
  0
VERTEX
  5
240
  8
Layer_0
  10
-404.69021
  20
352.23434
  0
VERTEX
  5
241
  8
Layer_0
  10
-405.04612
  20
352.48012
  0
VERTEX
  5
242
  8
Layer_0
  10
-405.37209
  20
352.75219
  0
VERTEX
  5
243
  8
Layer_0
  10
-405.66726
  20
353.04999
  0
VERTEX
  5
244
  8
Layer_0
  10
-405.93077
  20
353.373
  0
VERTEX
  5
245
  8
Layer_0
  10
-406.16176
  20
353.72068
  0
VERTEX
  5
246
  8
Layer_0
  10
-406.35938
  20
354.09249
  0
VERTEX
  5
247
  8
Layer_0
  10
-406.52277
  20
354.48789
  0
VERTEX
  5
248
  8
Layer_0
  10
-406.65108
  20
354.90636
  0
VERTEX
  5
249
  8
Layer_0
  10
-406.71558
  20
355.23672
  0
VERTEX
  5
24a
  8
Layer_0
  10
-406.75102
  20
355.63768
  0
VERTEX
  5
24b
  8
Layer_0
  10
-406.75724
  20
355.87393
  0
VERTEX
  5
24c
  8
Layer_0
  10
-406.75549
  20
356.13896
  0
VERTEX
  5
24d
  8
Layer_0
  10
-406.74551
  20
356.43649
  0
VERTEX
  5
24e
  8
Layer_0
  10
-406.72707
  20
356.77024
  0
VERTEX
  5
24f
  8
Layer_0
  10
-406.69994
  20
357.14392
  0
VERTEX
  5
250
  8
Layer_0
  10
-406.66386
  20
357.56125
  0
VERTEX
  5
251
  8
Layer_0
  10
-406.61861
  20
358.02592
  0
VERTEX
  5
252
  8
Layer_0
  10
-406.56394
  20
358.54167
  0
VERTEX
  5
253
  8
Layer_0
  10
-406.49961
  20
359.11219
  0
VERTEX
  5
254
  8
Layer_0
  10
-406.42539
  20
359.74121
  0
VERTEX
  5
255
  8
Layer_0
  10
-406.34103
  20
360.43243
  0
VERTEX
  5
256
  8
Layer_0
  10
-406.2463
  20
361.18958
  0
VERTEX
  5
257
  8
Layer_0
  10
-405.5806
  20
366.4577
  0
VERTEX
  5
258
  8
Layer_0
  10
-403.41736
  20
366.4577
  0
VERTEX
  5
259
  8
Layer_0
  10
-402.87523
  20
366.45393
  0
VERTEX
  5
25a
  8
Layer_0
  10
-402.41918
  20
366.44225
  0
VERTEX
  5
25b
  8
Layer_0
  10
-402.04491
  20
366.42209
  0
VERTEX
  5
25c
  8
Layer_0
  10
-401.7481
  20
366.39289
  0
VERTEX
  5
25d
  8
Layer_0
  10
-401.52447
  20
366.35409
  0
VERTEX
  5
25e
  8
Layer_0
  10
-401.3697
  20
366.30513
  0
VERTEX
  5
25f
  8
Layer_0
  10
-401.27951
  20
366.24544
  0
SEQEND
  0
POLYLINE
  5
261
  8
Layer_0
  62
7
  70
1
  66
1
  10
0
  20
0
  30
0
  0
VERTEX
  5
261
  8
Layer_0
  10
-383.59178
  20
362.59898
  0
VERTEX
  5
262
  8
Layer_0
  10
-382.92968
  20
361.82767
  0
VERTEX
  5
263
  8
Layer_0
  10
-382.30466
  20
361.11229
  0
VERTEX
  5
264
  8
Layer_0
  10
-382.0105
  20
360.78037
  0
VERTEX
  5
265
  8
Layer_0
  10
-381.73093
  20
360.46819
  0
VERTEX
  5
266
  8
Layer_0
  10
-381.46774
  20
360.17767
  0
VERTEX
  5
267
  8
Layer_0
  10
-381.22269
  20
359.91073
  0
VERTEX
  5
268
  8
Layer_0
  10
-380.99757
  20
359.66929
  0
VERTEX
  5
269
  8
Layer_0
  10
-380.79414
  20
359.45527
  0
VERTEX
  5
26a
  8
Layer_0
  10
-380.61419
  20
359.27059
  0
VERTEX
  5
26b
  8
Layer_0
  10
-380.45949
  20
359.11716
  0
VERTEX
  5
26c
  8
Layer_0
  10
-380.33182
  20
358.99692
  0
VERTEX
  5
26d
  8
Layer_0
  10
-380.23294
  20
358.91178
  0
VERTEX
  5
26e
  8
Layer_0
  10
-380.16464
  20
358.86365
  0
VERTEX
  5
26f
  8
Layer_0
  10
-380.1287
  20
358.85447
  0
VERTEX
  5
270
  8
Layer_0
  10
-380.10736
  20
358.8847
  0
VERTEX
  5
271
  8
Layer_0
  10
-380.08193
  20
358.95225
  0
VERTEX
  5
272
  8
Layer_0
  10
-380.05274
  20
359.05514
  0
VERTEX
  5
273
  8
Layer_0
  10
-380.02012
  20
359.19139
  0
VERTEX
  5
274
  8
Layer_0
  10
-379.98441
  20
359.35901
  0
VERTEX
  5
275
  8
Layer_0
  10
-379.94593
  20
359.55605
  0
VERTEX
  5
276
  8
Layer_0
  10
-379.90501
  20
359.78052
  0
VERTEX
  5
277
  8
Layer_0
  10
-379.86199
  20
360.03044
  0
VERTEX
  5
278
  8
Layer_0
  10
-379.77097
  20
360.59874
  0
VERTEX
  5
279
  8
Layer_0
  10
-379.67553
  20
361.24515
  0
VERTEX
  5
27a
  8
Layer_0
  10
-379.5783
  20
361.95386
  0
VERTEX
  5
27b
  8
Layer_0
  10
-379.48194
  20
362.70904
  0
VERTEX
  5
27c
  8
Layer_0
  10
-379.02118
  20
366.4577
  0
VERTEX
  5
27d
  8
Layer_0
  10
-376.85895
  20
366.4577
  0
VERTEX
  5
27e
  8
Layer_0
  10
-376.31681
  20
366.45394
  0
VERTEX
  5
27f
  8
Layer_0
  10
-375.86092
  20
366.44227
  0
VERTEX
  5
280
  8
Layer_0
  10
-375.48696
  20
366.42213
  0
VERTEX
  5
281
  8
Layer_0
  10
-375.19058
  20
366.39294
  0
VERTEX
  5
282
  8
Layer_0
  10
-374.96746
  20
366.35415
  0
VERTEX
  5
283
  8
Layer_0
  10
-374.81327
  20
366.30519
  0
VERTEX
  5
284
  8
Layer_0
  10
-374.72367
  20
366.24548
  0
VERTEX
  5
285
  8
Layer_0
  10
-374.69433
  20
366.17447
  0
VERTEX
  5
286
  8
Layer_0
  10
-374.69895
  20
366.09752
  0
VERTEX
  5
287
  8
Layer_0
  10
-374.7131
  20
365.95069
  0
VERTEX
  5
288
  8
Layer_0
  10
-374.73617
  20
365.73862
  0
VERTEX
  5
289
  8
Layer_0
  10
-374.76756
  20
365.46592
  0
VERTEX
  5
28a
  8
Layer_0
  10
-374.80665
  20
365.13722
  0
VERTEX
  5
28b
  8
Layer_0
  10
-374.85283
  20
364.75717
  0
VERTEX
  5
28c
  8
Layer_0
  10
-374.9055
  20
364.33038
  0
VERTEX
  5
28d
  8
Layer_0
  10
-374.96406
  20
363.86149
  0
VERTEX
  5
28e
  8
Layer_0
  10
-375.02789
  20
363.35512
  0
VERTEX
  5
28f
  8
Layer_0
  10
-375.09638
  20
362.81591
  0
VERTEX
  5
290
  8
Layer_0
  10
-375.16893
  20
362.24848
  0
VERTEX
  5
291
  8
Layer_0
  10
-375.24493
  20
361.65747
  0
VERTEX
  5
292
  8
Layer_0
  10
-375.40486
  20
360.42319
  0
VERTEX
  5
293
  8
Layer_0
  10
-375.57129
  20
359.15011
  0
VERTEX
  5
294
  8
Layer_0
  10
-375.73936
  20
357.87527
  0
VERTEX
  5
295
  8
Layer_0
  10
-375.90422
  20
356.6357
  0
VERTEX
  5
296
  8
Layer_0
  10
-375.98393
  20
356.04072
  0
VERTEX
  5
297
  8
Layer_0
  10
-376.061
  20
355.46844
  0
VERTEX
  5
298
  8
Layer_0
  10
-376.13485
  20
354.92349
  0
VERTEX
  5
299
  8
Layer_0
  10
-376.20484
  20
354.41051
  0
VERTEX
  5
29a
  8
Layer_0
  10
-376.27039
  20
353.93412
  0
VERTEX
  5
29b
  8
Layer_0
  10
-376.33088
  20
353.49895
  0
VERTEX
  5
29c
  8
Layer_0
  10
-376.3857
  20
353.10963
  0
VERTEX
  5
29d
  8
Layer_0
  10
-376.43425
  20
352.7708
  0
VERTEX
  5
29e
  8
Layer_0
  10
-376.47592
  20
352.48707
  0
VERTEX
  5
29f
  8
Layer_0
  10
-376.5101
  20
352.26308
  0
VERTEX
  5
2a0
  8
Layer_0
  10
-376.53618
  20
352.10346
  0
VERTEX
  5
2a1
  8
Layer_0
  10
-376.55355
  20
352.01284
  0
VERTEX
  5
2a2
  8
Layer_0
  10
-376.59866
  20
351.85791
  0
VERTEX
  5
2a3
  8
Layer_0
  10
-376.66172
  20
351.73788
  0
VERTEX
  5
2a4
  8
Layer_0
  10
-376.7568
  20
351.64847
  0
VERTEX
  5
2a5
  8
Layer_0
  10
-376.898
  20
351.58541
  0
VERTEX
  5
2a6
  8
Layer_0
  10
-377.09939
  20
351.54443
  0
VERTEX
  5
2a7
  8
Layer_0
  10
-377.37505
  20
351.52124
  0
VERTEX
  5
2a8
  8
Layer_0
  10
-377.54513
  20
351.51498
  0
VERTEX
  5
2a9
  8
Layer_0
  10
-377.73906
  20
351.51157
  0
VERTEX
  5
2aa
  8
Layer_0
  10
-377.9586
  20
351.51047
  0
VERTEX
  5
2ab
  8
Layer_0
  10
-378.20551
  20
351.51114
  0
VERTEX
  5
2ac
  8
Layer_0
  10
-379.7377
  20
351.51926
  0
VERTEX
  5
2ad
  8
Layer_0
  10
-383.05737
  20
355.44937
  0
VERTEX
  5
2ae
  8
Layer_0
  10
-383.72521
  20
356.2381
  0
VERTEX
  5
2af
  8
Layer_0
  10
-384.35013
  20
356.9725
  0
VERTEX
  5
2b0
  8
Layer_0
  10
-384.64218
  20
357.31434
  0
VERTEX
  5
2b1
  8
Layer_0
  10
-384.91832
  20
357.6366
  0
VERTEX
  5
2b2
  8
Layer_0
  10
-385.17683
  20
357.93729
  0
VERTEX
  5
2b3
  8
Layer_0
  10
-385.41597
  20
358.21442
  0
VERTEX
  5
2b4
  8
Layer_0
  10
-385.63403
  20
358.46598
  0
VERTEX
  5
2b5
  8
Layer_0
  10
-385.82928
  20
358.68999
  0
VERTEX
  5
2b6
  8
Layer_0
  10
-385.99998
  20
358.88444
  0
VERTEX
  5
2b7
  8
Layer_0
  10
-386.14442
  20
359.04734
  0
VERTEX
  5
2b8
  8
Layer_0
  10
-386.26086
  20
359.17668
  0
VERTEX
  5
2b9
  8
Layer_0
  10
-386.34758
  20
359.27049
  0
VERTEX
  5
2ba
  8
Layer_0
  10
-386.40286
  20
359.32675
  0
VERTEX
  5
2bb
  8
Layer_0
  10
-386.42496
  20
359.34348
  0
VERTEX
  5
2bc
  8
Layer_0
  10
-386.43326
  20
359.31894
  0
VERTEX
  5
2bd
  8
Layer_0
  10
-386.4467
  20
359.25545
  0
VERTEX
  5
2be
  8
Layer_0
  10
-386.46493
  20
359.15553
  0
VERTEX
  5
2bf
  8
Layer_0
  10
-386.48759
  20
359.02172
  0
VERTEX
  5
2c0
  8
Layer_0
  10
-386.51432
  20
358.85655
  0
VERTEX
  5
2c1
  8
Layer_0
  10
-386.54478
  20
358.66254
  0
VERTEX
  5
2c2
  8
Layer_0
  10
-386.57861
  20
358.44222
  0
VERTEX
  5
2c3
  8
Layer_0
  10
-386.61546
  20
358.19813
  0
VERTEX
  5
2c4
  8
Layer_0
  10
-386.69678
  20
357.64876
  0
VERTEX
  5
2c5
  8
Layer_0
  10
-386.78591
  20
357.03464
  0
VERTEX
  5
2c6
  8
Layer_0
  10
-386.88001
  20
356.37604
  0
VERTEX
  5
2c7
  8
Layer_0
  10
-386.97625
  20
355.69318
  0
VERTEX
  5
2c8
  8
Layer_0
  10
-387.0718
  20
355.00632
  0
VERTEX
  5
2c9
  8
Layer_0
  10
-387.16382
  20
354.33568
  0
VERTEX
  5
2ca
  8
Layer_0
  10
-387.24948
  20
353.70152
  0
VERTEX
  5
2cb
  8
Layer_0
  10
-387.32595
  20
353.12407
  0
VERTEX
  5
2cc
  8
Layer_0
  10
-387.39038
  20
352.62358
  0
VERTEX
  5
2cd
  8
Layer_0
  10
-387.43994
  20
352.22029
  0
VERTEX
  5
2ce
  8
Layer_0
  10
-387.45827
  20
352.06141
  0
VERTEX
  5
2cf
  8
Layer_0
  10
-387.47181
  20
351.93443
  0
VERTEX
  5
2d0
  8
Layer_0
  10
-387.48022
  20
351.84187
  0
VERTEX
  5
2d1
  8
Layer_0
  10
-387.48314
  20
351.78625
  0
VERTEX
  5
2d2
  8
Layer_0
  10
-387.51269
  20
351.715
  0
VERTEX
  5
2d3
  8
Layer_0
  10
-387.60422
  20
351.65519
  0
VERTEX
  5
2d4
  8
Layer_0
  10
-387.76243
  20
351.60621
  0
VERTEX
  5
2d5
  8
Layer_0
  10
-387.99202
  20
351.56747
  0
VERTEX
  5
2d6
  8
Layer_0
  10
-388.29771
  20
351.53838
  0
VERTEX
  5
2d7
  8
Layer_0
  10
-388.68419
  20
351.51834
  0
VERTEX
  5
2d8
  8
Layer_0
  10
-389.15616
  20
351.50675
  0
VERTEX
  5
2d9
  8
Layer_0
  10
-389.71834
  20
351.50302
  0
VERTEX
  5
2da
  8
Layer_0
  10
-391.95306
  20
351.50302
  0
VERTEX
  5
2db
  8
Layer_0
  10
-391.80927
  20
352.35272
  0
VERTEX
  5
2dc
  8
Layer_0
  10
-391.7919
  20
352.46318
  0
VERTEX
  5
2dd
  8
Layer_0
  10
-391.76581
  20
352.64041
  0
VERTEX
  5
2de
  8
Layer_0
  10
-391.7316
  20
352.87982
  0
VERTEX
  5
2df
  8
Layer_0
  10
-391.68988
  20
353.17687
  0
VERTEX
  5
2e0
  8
Layer_0
  10
-391.64126
  20
353.52698
  0
VERTEX
  5
2e1
  8
Layer_0
  10
-391.58634
  20
353.92558
  0
VERTEX
  5
2e2
  8
Layer_0
  10
-391.52573
  20
354.36811
  0
VERTEX
  5
2e3
  8
Layer_0
  10
-391.46004
  20
354.85001
  0
VERTEX
  5
2e4
  8
Layer_0
  10
-391.38989
  20
355.36671
  0
VERTEX
  5
2e5
  8
Layer_0
  10
-391.31587
  20
355.91365
  0
VERTEX
  5
2e6
  8
Layer_0
  10
-391.2386
  20
356.48625
  0
VERTEX
  5
2e7
  8
Layer_0
  10
-391.15869
  20
357.07995
  0
VERTEX
  5
2e8
  8
Layer_0
  10
-390.99337
  20
358.31241
  0
VERTEX
  5
2e9
  8
Layer_0
  10
-390.82479
  20
359.5745
  0
VERTEX
  5
2ea
  8
Layer_0
  10
-390.6578
  20
360.82968
  0
VERTEX
  5
2eb
  8
Layer_0
  10
-390.49727
  20
362.04144
  0
VERTEX
  5
2ec
  8
Layer_0
  10
-390.42096
  20
362.61963
  0
VERTEX
  5
2ed
  8
Layer_0
  10
-390.34809
  20
363.17326
  0
VERTEX
  5
2ee
  8
Layer_0
  10
-390.27927
  20
363.69777
  0
VERTEX
  5
2ef
  8
Layer_0
  10
-390.21511
  20
364.1886
  0
VERTEX
  5
2f0
  8
Layer_0
  10
-390.15622
  20
364.64118
  0
VERTEX
  5
2f1
  8
Layer_0
  10
-390.1032
  20
365.05094
  0
VERTEX
  5
2f2
  8
Layer_0
  10
-390.05667
  20
365.41333
  0
VERTEX
  5
2f3
  8
Layer_0
  10
-390.01724
  20
365.72377
  0
VERTEX
  5
2f4
  8
Layer_0
  10
-389.98551
  20
365.97769
  0
VERTEX
  5
2f5
  8
Layer_0
  10
-389.9621
  20
366.17054
  0
VERTEX
  5
2f6
  8
Layer_0
  10
-389.9476
  20
366.29775
  0
VERTEX
  5
2f7
  8
Layer_0
  10
-389.94263
  20
366.35475
  0
VERTEX
  5
2f8
  8
Layer_0
  10
-389.91126
  20
366.37535
  0
VERTEX
  5
2f9
  8
Layer_0
  10
-389.82136
  20
366.3944
  0
VERTEX
  5
2fa
  8
Layer_0
  10
-389.67923
  20
366.4115
  0
VERTEX
  5
2fb
  8
Layer_0
  10
-389.49117
  20
366.42624
  0
VERTEX
  5
2fc
  8
Layer_0
  10
-389.26349
  20
366.43823
  0
VERTEX
  5
2fd
  8
Layer_0
  10
-389.00249
  20
366.44704
  0
VERTEX
  5
2fe
  8
Layer_0
  10
-388.71447
  20
366.45229
  0
VERTEX
  5
2ff
  8
Layer_0
  10
-388.40575
  20
366.45356
  0
VERTEX
  5
300
  8
Layer_0
  10
-386.86887
  20
366.4494
  0
VERTEX
  5
301
  8
Layer_0
  10
-383.59177
  20
362.59897
  0
SEQEND
  0
POLYLINE
  5
303
  8
Layer_0
  62
7
  70
1
  66
1
  10
0
  20
0
  30
0
  0
VERTEX
  5
303
  8
Layer_0
  10
-368.04649
  20
366.17447
  0
VERTEX
  5
304
  8
Layer_0
  10
-368.05019
  20
366.1083
  0
VERTEX
  5
305
  8
Layer_0
  10
-368.06323
  20
365.97074
  0
VERTEX
  5
306
  8
Layer_0
  10
-368.08514
  20
365.76565
  0
VERTEX
  5
307
  8
Layer_0
  10
-368.11546
  20
365.49684
  0
VERTEX
  5
308
  8
Layer_0
  10
-368.1537
  20
365.16815
  0
VERTEX
  5
309
  8
Layer_0
  10
-368.1994
  20
364.78342
  0
VERTEX
  5
30a
  8
Layer_0
  10
-368.25209
  20
364.34648
  0
VERTEX
  5
30b
  8
Layer_0
  10
-368.3113
  20
363.86117
  0
VERTEX
  5
30c
  8
Layer_0
  10
-368.37655
  20
363.33131
  0
VERTEX
  5
30d
  8
Layer_0
  10
-368.44739
  20
362.76074
  0
VERTEX
  5
30e
  8
Layer_0
  10
-368.52334
  20
362.1533
  0
VERTEX
  5
30f
  8
Layer_0
  10
-368.60393
  20
361.51282
  0
VERTEX
  5
310
  8
Layer_0
  10
-368.77714
  20
360.14806
  0
VERTEX
  5
311
  8
Layer_0
  10
-368.96327
  20
358.69713
  0
VERTEX
  5
312
  8
Layer_0
  10
-369.89096
  20
351.50302
  0
VERTEX
  5
313
  8
Layer_0
  10
-372.04794
  20
351.50302
  0
VERTEX
  5
314
  8
Layer_0
  10
-372.3558
  20
351.50383
  0
VERTEX
  5
315
  8
Layer_0
  10
-372.63479
  20
351.50639
  0
VERTEX
  5
316
  8
Layer_0
  10
-372.88613
  20
351.51088
  0
VERTEX
  5
317
  8
Layer_0
  10
-373.11108
  20
351.5175
  0
VERTEX
  5
318
  8
Layer_0
  10
-373.48679
  20
351.53788
  0
VERTEX
  5
319
  8
Layer_0
  10
-373.77187
  20
351.56904
  0
VERTEX
  5
31a
  8
Layer_0
  10
-373.97626
  20
351.6125
  0
VERTEX
  5
31b
  8
Layer_0
  10
-374.10993
  20
351.66977
  0
VERTEX
  5
31c
  8
Layer_0
  10
-374.18284
  20
351.74238
  0
VERTEX
  5
31d
  8
Layer_0
  10
-374.20493
  20
351.83185
  0
VERTEX
  5
31e
  8
Layer_0
  10
-374.20001
  20
351.91332
  0
VERTEX
  5
31f
  8
Layer_0
  10
-374.18565
  20
352.06375
  0
VERTEX
  5
320
  8
Layer_0
  10
-374.16247
  20
352.27856
  0
VERTEX
  5
321
  8
Layer_0
  10
-374.13104
  20
352.55318
  0
VERTEX
  5
322
  8
Layer_0
  10
-374.09199
  20
352.88302
  0
VERTEX
  5
323
  8
Layer_0
  10
-374.04591
  20
353.26352
  0
VERTEX
  5
324
  8
Layer_0
  10
-373.9934
  20
353.6901
  0
VERTEX
  5
325
  8
Layer_0
  10
-373.93505
  20
354.15818
  0
VERTEX
  5
326
  8
Layer_0
  10
-373.87149
  20
354.6632
  0
VERTEX
  5
327
  8
Layer_0
  10
-373.80329
  20
355.20056
  0
VERTEX
  5
328
  8
Layer_0
  10
-373.73108
  20
355.76571
  0
VERTEX
  5
329
  8
Layer_0
  10
-373.65544
  20
356.35405
  0
VERTEX
  5
32a
  8
Layer_0
  10
-373.49629
  20
357.58206
  0
VERTEX
  5
32b
  8
Layer_0
  10
-373.33068
  20
358.84798
  0
VERTEX
  5
32c
  8
Layer_0
  10
-373.16339
  20
360.1152
  0
VERTEX
  5
32d
  8
Layer_0
  10
-372.99925
  20
361.34713
  0
VERTEX
  5
32e
  8
Layer_0
  10
-372.91986
  20
361.93843
  0
VERTEX
  5
32f
  8
Layer_0
  10
-372.84306
  20
362.50717
  0
VERTEX
  5
330
  8
Layer_0
  10
-372.76946
  20
363.04879
  0
VERTEX
  5
331
  8
Layer_0
  10
-372.69964
  20
363.55871
  0
VERTEX
  5
332
  8
Layer_0
  10
-372.63422
  20
364.03236
  0
VERTEX
  5
333
  8
Layer_0
  10
-372.57379
  20
364.46516
  0
VERTEX
  5
334
  8
Layer_0
  10
-372.51896
  20
364.85253
  0
VERTEX
  5
335
  8
Layer_0
  10
-372.47033
  20
365.1899
  0
VERTEX
  5
336
  8
Layer_0
  10
-372.4285
  20
365.4727
  0
VERTEX
  5
337
  8
Layer_0
  10
-372.39407
  20
365.69635
  0
VERTEX
  5
338
  8
Layer_0
  10
-372.36763
  20
365.85627
  0
VERTEX
  5
339
  8
Layer_0
  10
-372.3498
  20
365.94789
  0
VERTEX
  5
33a
  8
Layer_0
  10
-372.30266
  20
366.10756
  0
VERTEX
  5
33b
  8
Layer_0
  10
-372.23276
  20
366.22997
  0
VERTEX
  5
33c
  8
Layer_0
  10
-372.11881
  20
366.32006
  0
VERTEX
  5
33d
  8
Layer_0
  10
-371.93952
  20
366.38273
  0
VERTEX
  5
33e
  8
Layer_0
  10
-371.8187
  20
366.40533
  0
VERTEX
  5
33f
  8
Layer_0
  10
-371.67357
  20
366.42291
  0
VERTEX
  5
340
  8
Layer_0
  10
-371.50145
  20
366.43611
  0
VERTEX
  5
341
  8
Layer_0
  10
-371.29968
  20
366.44552
  0
VERTEX
  5
342
  8
Layer_0
  10
-371.0656
  20
366.45177
  0
VERTEX
  5
343
  8
Layer_0
  10
-370.79654
  20
366.45548
  0
VERTEX
  5
344
  8
Layer_0
  10
-370.48985
  20
366.45725
  0
VERTEX
  5
345
  8
Layer_0
  10
-370.14287
  20
366.4577
  0
VERTEX
  5
346
  8
Layer_0
  10
-369.62284
  20
366.45388
  0
VERTEX
  5
347
  8
Layer_0
  10
-369.18417
  20
366.44207
  0
VERTEX
  5
348
  8
Layer_0
  10
-368.82304
  20
366.42175
  0
VERTEX
  5
349
  8
Layer_0
  10
-368.53562
  20
366.39241
  0
VERTEX
  5
34a
  8
Layer_0
  10
-368.31809
  20
366.35353
  0
VERTEX
  5
34b
  8
Layer_0
  10
-368.1666
  20
366.30459
  0
VERTEX
  5
34c
  8
Layer_0
  10
-368.07735
  20
366.24508
  0
SEQEND
  0
POLYLINE
  5
34e
  8
Layer_0
  62
7
  70
1
  66
1
  10
0
  20
0
  30
0
  0
VERTEX
  5
34e
  8
Layer_0
  10
-355.88819
  20
364.81495
  0
VERTEX
  5
34f
  8
Layer_0
  10
-355.9651
  20
364.1637
  0
VERTEX
  5
350
  8
Layer_0
  10
-356.04454
  20
363.60484
  0
VERTEX
  5
351
  8
Layer_0
  10
-356.08229
  20
363.37866
  0
VERTEX
  5
352
  8
Layer_0
  10
-356.11715
  20
363.19787
  0
VERTEX
  5
353
  8
Layer_0
  10
-356.14797
  20
363.06993
  0
VERTEX
  5
354
  8
Layer_0
  10
-356.17357
  20
363.00227
  0
VERTEX
  5
355
  8
Layer_0
  10
-356.22768
  20
362.96813
  0
VERTEX
  5
356
  8
Layer_0
  10
-356.34021
  20
362.93628
  0
VERTEX
  5
357
  8
Layer_0
  10
-356.50426
  20
362.90742
  0
VERTEX
  5
358
  8
Layer_0
  10
-356.71293
  20
362.88225
  0
VERTEX
  5
359
  8
Layer_0
  10
-357.23654
  20
362.84574
  0
VERTEX
  5
35a
  8
Layer_0
  10
-357.85584
  20
362.83233
  0
VERTEX
  5
35b
  8
Layer_0
  10
-359.42853
  20
362.83234
  0
VERTEX
  5
35c
  8
Layer_0
  10
-359.56195
  20
362.09592
  0
VERTEX
  5
35d
  8
Layer_0
  10
-359.57986
  20
361.98978
  0
VERTEX
  5
35e
  8
Layer_0
  10
-359.6035
  20
361.83829
  0
VERTEX
  5
35f
  8
Layer_0
  10
-359.63245
  20
361.64458
  0
VERTEX
  5
360
  8
Layer_0
  10
-359.66628
  20
361.41178
  0
VERTEX
  5
361
  8
Layer_0
  10
-359.70459
  20
361.14303
  0
VERTEX
  5
362
  8
Layer_0
  10
-359.74698
  20
360.84144
  0
VERTEX
  5
363
  8
Layer_0
  10
-359.79301
  20
360.51016
  0
VERTEX
  5
364
  8
Layer_0
  10
-359.84229
  20
360.15232
  0
VERTEX
  5
365
  8
Layer_0
  10
-359.94893
  20
359.36944
  0
VERTEX
  5
366
  8
Layer_0
  10
-360.06359
  20
358.51787
  0
VERTEX
  5
367
  8
Layer_0
  10
-360.18298
  20
357.62264
  0
VERTEX
  5
368
  8
Layer_0
  10
-360.3038
  20
356.70879
  0
VERTEX
  5
369
  8
Layer_0
  10
-360.42276
  20
355.80138
  0
VERTEX
  5
36a
  8
Layer_0
  10
-360.53655
  20
354.92544
  0
VERTEX
  5
36b
  8
Layer_0
  10
-360.64188
  20
354.10601
  0
VERTEX
  5
36c
  8
Layer_0
  10
-360.73546
  20
353.36815
  0
VERTEX
  5
36d
  8
Layer_0
  10
-360.77681
  20
353.03763
  0
VERTEX
  5
36e
  8
Layer_0
  10
-360.81398
  20
352.73689
  0
VERTEX
  5
36f
  8
Layer_0
  10
-360.84656
  20
352.46907
  0
VERTEX
  5
370
  8
Layer_0
  10
-360.87415
  20
352.23729
  0
VERTEX
  5
371
  8
Layer_0
  10
-360.89632
  20
352.04468
  0
VERTEX
  5
372
  8
Layer_0
  10
-360.91266
  20
351.89438
  0
VERTEX
  5
373
  8
Layer_0
  10
-360.92278
  20
351.78951
  0
VERTEX
  5
374
  8
Layer_0
  10
-360.92624
  20
351.7332
  0
VERTEX
  5
375
  8
Layer_0
  10
-360.96692
  20
351.68341
  0
VERTEX
  5
376
  8
Layer_0
  10
-361.08569
  20
351.63861
  0
VERTEX
  5
377
  8
Layer_0
  10
-361.27759
  20
351.5993
  0
VERTEX
  5
378
  8
Layer_0
  10
-361.53767
  20
351.566
  0
VERTEX
  5
379
  8
Layer_0
  10
-361.861
  20
351.53921
  0
VERTEX
  5
37a
  8
Layer_0
  10
-362.24262
  20
351.51945
  0
VERTEX
  5
37b
  8
Layer_0
  10
-362.67759
  20
351.50721
  0
VERTEX
  5
37c
  8
Layer_0
  10
-363.16096
  20
351.50302
  0
VERTEX
  5
37d
  8
Layer_0
  10
-365.39569
  20
351.50302
  0
VERTEX
  5
37e
  8
Layer_0
  10
-365.25089
  20
352.35272
  0
VERTEX
  5
37f
  8
Layer_0
  10
-365.23468
  20
352.45369
  0
VERTEX
  5
380
  8
Layer_0
  10
-365.2125
  20
352.60124
  0
VERTEX
  5
381
  8
Layer_0
  10
-365.18475
  20
352.79213
  0
VERTEX
  5
382
  8
Layer_0
  10
-365.15186
  20
353.02316
  0
VERTEX
  5
383
  8
Layer_0
  10
-365.11426
  20
353.2911
  0
VERTEX
  5
384
  8
Layer_0
  10
-365.07237
  20
353.59274
  0
VERTEX
  5
385
  8
Layer_0
  10
-365.02663
  20
353.92486
  0
VERTEX
  5
386
  8
Layer_0
  10
-364.97746
  20
354.28424
  0
VERTEX
  5
387
  8
Layer_0
  10
-364.87052
  20
355.07189
  0
VERTEX
  5
388
  8
Layer_0
  10
-364.75498
  20
355.92995
  0
VERTEX
  5
389
  8
Layer_0
  10
-364.63425
  20
356.83268
  0
VERTEX
  5
38a
  8
Layer_0
  10
-364.51174
  20
357.75431
  0
VERTEX
  5
38b
  8
Layer_0
  10
-364.39085
  20
358.66911
  0
VERTEX
  5
38c
  8
Layer_0
  10
-364.27502
  20
359.55132
  0
VERTEX
  5
38d
  8
Layer_0
  10
-364.16764
  20
360.37519
  0
VERTEX
  5
38e
  8
Layer_0
  10
-364.07213
  20
361.11497
  0
VERTEX
  5
38f
  8
Layer_0
  10
-364.02989
  20
361.44528
  0
VERTEX
  5
390
  8
Layer_0
  10
-363.9919
  20
361.74492
  0
VERTEX
  5
391
  8
Layer_0
  10
-363.95859
  20
362.01065
  0
VERTEX
  5
392
  8
Layer_0
  10
-363.93038
  20
362.23928
  0
VERTEX
  5
393
  8
Layer_0
  10
-363.90769
  20
362.42757
  0
VERTEX
  5
394
  8
Layer_0
  10
-363.89095
  20
362.5723
  0
VERTEX
  5
395
  8
Layer_0
  10
-363.8806
  20
362.67027
  0
VERTEX
  5
396
  8
Layer_0
  10
-363.87706
  20
362.71824
  0
VERTEX
  5
397
  8
Layer_0
  10
-363.91019
  20
362.74116
  0
VERTEX
  5
398
  8
Layer_0
  10
-364.00515
  20
362.76254
  0
VERTEX
  5
399
  8
Layer_0
  10
-364.15527
  20
362.78191
  0
VERTEX
  5
39a
  8
Layer_0
  10
-364.35391
  20
362.79881
  0
VERTEX
  5
39b
  8
Layer_0
  10
-364.59439
  20
362.81277
  0
VERTEX
  5
39c
  8
Layer_0
  10
-364.87007
  20
362.82332
  0
VERTEX
  5
39d
  8
Layer_0
  10
-365.17429
  20
362.83
  0
VERTEX
  5
39e
  8
Layer_0
  10
-365.50038
  20
362.83233
  0
VERTEX
  5
39f
  8
Layer_0
  10
-367.12369
  20
362.83234
  0
VERTEX
  5
3a0
  8
Layer_0
  10
-366.94788
  20
364.47507
  0
VERTEX
  5
3a1
  8
Layer_0
  10
-366.87098
  20
365.12633
  0
VERTEX
  5
3a2
  8
Layer_0
  10
-366.79154
  20
365.68519
  0
VERTEX
  5
3a3
  8
Layer_0
  10
-366.75379
  20
365.91137
  0
VERTEX
  5
3a4
  8
Layer_0
  10
-366.71893
  20
366.09216
  0
VERTEX
  5
3a5
  8
Layer_0
  10
-366.68811
  20
366.2201
  0
VERTEX
  5
3a6
  8
Layer_0
  10
-366.66251
  20
366.28776
  0
VERTEX
  5
3a7
  8
Layer_0
  10
-366.62323
  20
366.30508
  0
VERTEX
  5
3a8
  8
Layer_0
  10
-366.52987
  20
366.3219
  0
VERTEX
  5
3a9
  8
Layer_0
  10
-366.38528
  20
366.33816
  0
VERTEX
  5
3aa
  8
Layer_0
  10
-366.19228
  20
366.35375
  0
VERTEX
  5
3ab
  8
Layer_0
  10
-365.95371
  20
366.3686
  0
VERTEX
  5
3ac
  8
Layer_0
  10
-365.6724
  20
366.38261
  0
VERTEX
  5
3ad
  8
Layer_0
  10
-365.3512
  20
366.3957
  0
VERTEX
  5
3ae
  8
Layer_0
  10
-364.99293
  20
366.40778
  0
VERTEX
  5
3af
  8
Layer_0
  10
-364.60043
  20
366.41877
  0
VERTEX
  5
3b0
  8
Layer_0
  10
-364.17653
  20
366.42858
  0
VERTEX
  5
3b1
  8
Layer_0
  10
-363.72408
  20
366.43712
  0
VERTEX
  5
3b2
  8
Layer_0
  10
-363.24591
  20
366.44429
  0
VERTEX
  5
3b3
  8
Layer_0
  10
-362.22372
  20
366.45424
  0
VERTEX
  5
3b4
  8
Layer_0
  10
-361.13267
  20
366.4577
  0
VERTEX
  5
3b5
  8
Layer_0
  10
-355.7124
  20
366.4577
  0
VERTEX
  5
3b6
  8
Layer_0
  10
-355.88818
  20
364.81494
  0
SEQEND
  0
POLYLINE
  5
3b8
  8
Layer_0
  62
7
  70
1
  66
1
  10
0
  20
0
  30
0
  0
VERTEX
  5
3b8
  8
Layer_0
  10
-349.77539
  20
364.92825
  42
-0.0085108191
  0
VERTEX
  5
3b9
  8
Layer_0
  10
-348.98358
  20
361.35953
  0
VERTEX
  5
3ba
  8
Layer_0
  10
-348.89564
  20
360.94638
  0
VERTEX
  5
3bb
  8
Layer_0
  10
-348.80714
  20
360.5542
  0
VERTEX
  5
3bc
  8
Layer_0
  10
-348.72048
  20
360.19206
  0
VERTEX
  5
3bd
  8
Layer_0
  10
-348.63806
  20
359.86902
  0
VERTEX
  5
3be
  8
Layer_0
  10
-348.56228
  20
359.59414
  0
VERTEX
  5
3bf
  8
Layer_0
  10
-348.49555
  20
359.37649
  0
VERTEX
  5
3c0
  8
Layer_0
  10
-348.44025
  20
359.22513
  0
VERTEX
  5
3c1
  8
Layer_0
  10
-348.39879
  20
359.14914
  0
VERTEX
  5
3c2
  8
Layer_0
  10
-348.37212
  20
359.15111
  0
VERTEX
  5
3c3
  8
Layer_0
  10
-348.32657
  20
359.1911
  0
VERTEX
  5
3c4
  8
Layer_0
  10
-348.2632
  20
359.26727
  0
VERTEX
  5
3c5
  8
Layer_0
  10
-348.1831
  20
359.3778
  0
VERTEX
  5
3c6
  8
Layer_0
  10
-348.08734
  20
359.52085
  0
VERTEX
  5
3c7
  8
Layer_0
  10
-347.97698
  20
359.6946
  0
VERTEX
  5
3c8
  8
Layer_0
  10
-347.8531
  20
359.89722
  0
VERTEX
  5
3c9
  8
Layer_0
  10
-347.71678
  20
360.12687
  0
VERTEX
  5
3ca
  8
Layer_0
  10
-347.41108
  20
360.65997
  0
VERTEX
  5
3cb
  8
Layer_0
  10
-347.06846
  20
361.27926
  0
VERTEX
  5
3cc
  8
Layer_0
  10
-346.69751
  20
361.97011
  0
VERTEX
  5
3cd
  8
Layer_0
  10
-346.3068
  20
362.71787
  0
VERTEX
  5
3ce
  8
Layer_0
  10
-344.37842
  20
366.4577
  0
VERTEX
  5
3cf
  8
Layer_0
  10
-342.98956
  20
366.4577
  0
VERTEX
  5
3d0
  8
Layer_0
  10
-341.60071
  20
366.4577
  0
VERTEX
  5
3d1
  8
Layer_0
  10
-340.75488
  20
362.71902
  0
VERTEX
  5
3d2
  8
Layer_0
  10
-340.58238
  20
361.96803
  0
VERTEX
  5
3d3
  8
Layer_0
  10
-340.41646
  20
361.26744
  0
VERTEX
  5
3d4
  8
Layer_0
  10
-340.2611
  20
360.63259
  0
VERTEX
  5
3d5
  8
Layer_0
  10
-340.1203
  20
360.07881
  0
VERTEX
  5
3d6
  8
Layer_0
  10
-340.0566
  20
359.83712
  0
VERTEX
  5
3d7
  8
Layer_0
  10
-339.99804
  20
359.62144
  0
VERTEX
  5
3d8
  8
Layer_0
  10
-339.9451
  20
359.4337
  0
VERTEX
  5
3d9
  8
Layer_0
  10
-339.8983
  20
359.27581
  0
VERTEX
  5
3da
  8
Layer_0
  10
-339.85813
  20
359.14969
  0
VERTEX
  5
3db
  8
Layer_0
  10
-339.82509
  20
359.05725
  0
VERTEX
  5
3dc
  8
Layer_0
  10
-339.79968
  20
359.00041
  0
VERTEX
  5
3dd
  8
Layer_0
  10
-339.78239
  20
358.98109
  0
VERTEX
  5
3de
  8
Layer_0
  10
-339.75979
  20
359.00026
  0
VERTEX
  5
3df
  8
Layer_0
  10
-339.71878
  20
359.05637
  0
VERTEX
  5
3e0
  8
Layer_0
  10
-339.6604
  20
359.14753
  0
VERTEX
  5
3e1
  8
Layer_0
  10
-339.58566
  20
359.27185
  0
VERTEX
  5
3e2
  8
Layer_0
  10
-339.4956
  20
359.42745
  0
VERTEX
  5
3e3
  8
Layer_0
  10
-339.39123
  20
359.61242
  0
VERTEX
  5
3e4
  8
Layer_0
  10
-339.27357
  20
359.8249
  0
VERTEX
  5
3e5
  8
Layer_0
  10
-339.14365
  20
360.06299
  0
VERTEX
  5
3e6
  8
Layer_0
  10
-338.85114
  20
360.60844
  0
VERTEX
  5
3e7
  8
Layer_0
  10
-338.52187
  20
361.23368
  0
VERTEX
  5
3e8
  8
Layer_0
  10
-338.16403
  20
361.92361
  0
VERTEX
  5
3e9
  8
Layer_0
  10
-337.78582
  20
362.66312
  0
VERTEX
  5
3ea
  8
Layer_0
  10
-335.91589
  20
366.34442
  0
VERTEX
  5
3eb
  8
Layer_0
  10
-333.54401
  20
366.40927
  0
VERTEX
  5
3ec
  8
Layer_0
  10
-333.06755
  20
366.42035
  0
VERTEX
  5
3ed
  8
Layer_0
  10
-332.62306
  20
366.42696
  0
VERTEX
  5
3ee
  8
Layer_0
  10
-332.22026
  20
366.4292
  0
VERTEX
  5
3ef
  8
Layer_0
  10
-331.86887
  20
366.4272
  0
VERTEX
  5
3f0
  8
Layer_0
  10
-331.57864
  20
366.42109
  0
VERTEX
  5
3f1
  8
Layer_0
  10
-331.35929
  20
366.41097
  0
VERTEX
  5
3f2
  8
Layer_0
  10
-331.22055
  20
366.39699
  0
VERTEX
  5
3f3
  8
Layer_0
  10
-331.17214
  20
366.37926
  0
VERTEX
  5
3f4
  8
Layer_0
  10
-331.19251
  20
366.3312
  0
VERTEX
  5
3f5
  8
Layer_0
  10
-331.25227
  20
366.20915
  0
VERTEX
  5
3f6
  8
Layer_0
  10
-331.34941
  20
366.01694
  0
VERTEX
  5
3f7
  8
Layer_0
  10
-331.48191
  20
365.75843
  0
VERTEX
  5
3f8
  8
Layer_0
  10
-331.64778
  20
365.43745
  0
VERTEX
  5
3f9
  8
Layer_0
  10
-331.84498
  20
365.05785
  0
VERTEX
  5
3fa
  8
Layer_0
  10
-332.07151
  20
364.62347
  0
VERTEX
  5
3fb
  8
Layer_0
  10
-332.32536
  20
364.13816
  0
VERTEX
  5
3fc
  8
Layer_0
  10
-332.60452
  20
363.60576
  0
VERTEX
  5
3fd
  8
Layer_0
  10
-332.90696
  20
363.0301
  0
VERTEX
  5
3fe
  8
Layer_0
  10
-333.23068
  20
362.41504
  0
VERTEX
  5
3ff
  8
Layer_0
  10
-333.57367
  20
361.76442
  0
VERTEX
  5
400
  8
Layer_0
  10
-333.93391
  20
361.08208
  0
VERTEX
  5
401
  8
Layer_0
  10
-334.30939
  20
360.37187
  0
VERTEX
  5
402
  8
Layer_0
  10
-334.6981
  20
359.63762
  0
VERTEX
  5
403
  8
Layer_0
  10
-335.09802
  20
358.88318
  0
VERTEX
  5
404
  8
Layer_0
  10
-339.0239
  20
351.48196
  0
VERTEX
  5
405
  8
Layer_0
  10
-340.68713
  20
351.54913
  0
VERTEX
  5
406
  8
Layer_0
  10
-342.35034
  20
351.6163
  0
VERTEX
  5
407
  8
Layer_0
  10
-343.11368
  20
354.78851
  0
VERTEX
  5
408
  8
Layer_0
  10
-343.26933
  20
355.43215
  0
VERTEX
  5
409
  8
Layer_0
  10
-343.41901
  20
356.04496
  0
VERTEX
  5
40a
  8
Layer_0
  10
-343.55913
  20
356.61267
  0
VERTEX
  5
40b
  8
Layer_0
  10
-343.68609
  20
357.12097
  0
VERTEX
  5
40c
  8
Layer_0
  10
-343.7963
  20
357.55557
  0
VERTEX
  5
40d
  8
Layer_0
  10
-343.88616
  20
357.90218
  0
VERTEX
  5
40e
  8
Layer_0
  10
-343.92233
  20
358.03801
  0
VERTEX
  5
40f
  8
Layer_0
  10
-343.95206
  20
358.14648
  0
VERTEX
  5
410
  8
Layer_0
  10
-343.97491
  20
358.22581
  0
VERTEX
  5
411
  8
Layer_0
  10
-343.99043
  20
358.2742
  0
VERTEX
  5
412
  8
Layer_0
  10
-344.01148
  20
358.28776
  0
VERTEX
  5
413
  8
Layer_0
  10
-344.05057
  20
358.26487
  0
VERTEX
  5
414
  8
Layer_0
  10
-344.10671
  20
358.2072
  0
VERTEX
  5
415
  8
Layer_0
  10
-344.1789
  20
358.11641
  0
VERTEX
  5
416
  8
Layer_0
  10
-344.26614
  20
357.99413
  0
VERTEX
  5
417
  8
Layer_0
  10
-344.36744
  20
357.84205
  0
VERTEX
  5
418
  8
Layer_0
  10
-344.4818
  20
357.66179
  0
VERTEX
  5
419
  8
Layer_0
  10
-344.60822
  20
357.45503
  0
VERTEX
  5
41a
  8
Layer_0
  10
-344.89327
  20
356.96862
  0
VERTEX
  5
41b
  8
Layer_0
  10
-345.21461
  20
356.39603
  0
VERTEX
  5
41c
  8
Layer_0
  10
-345.56427
  20
355.75053
  0
VERTEX
  5
41d
  8
Layer_0
  10
-345.93428
  20
355.04535
  0
VERTEX
  5
41e
  8
Layer_0
  10
-347.76471
  20
351.50302
  0
VERTEX
  5
41f
  8
Layer_0
  10
-349.42743
  20
351.50302
  0
VERTEX
  5
420
  8
Layer_0
  10
-349.76145
  20
351.50418
  0
VERTEX
  5
421
  8
Layer_0
  10
-350.07307
  20
351.50749
  0
VERTEX
  5
422
  8
Layer_0
  10
-350.35546
  20
351.51273
  0
VERTEX
  5
423
  8
Layer_0
  10
-350.60182
  20
351.51966
  0
VERTEX
  5
424
  8
Layer_0
  10
-350.80531
  20
351.52805
  0
VERTEX
  5
425
  8
Layer_0
  10
-350.95913
  20
351.53767
  0
VERTEX
  5
426
  8
Layer_0
  10
-351.05644
  20
351.54829
  0
VERTEX
  5
427
  8
Layer_0
  10
-351.09043
  20
351.55967
  0
VERTEX
  5
428
  8
Layer_0
  10
-351.09938
  20
351.60181
  0
VERTEX
  5
429
  8
Layer_0
  10
-351.12561
  20
351.71413
  0
VERTEX
  5
42a
  8
Layer_0
  10
-351.16822
  20
351.893
  0
VERTEX
  5
42b
  8
Layer_0
  10
-351.22633
  20
352.13481
  0
VERTEX
  5
42c
  8
Layer_0
  10
-351.29906
  20
352.43593
  0
VERTEX
  5
42d
  8
Layer_0
  10
-351.38554
  20
352.79273
  0
VERTEX
  5
42e
  8
Layer_0
  10
-351.48487
  20
353.2016
  0
VERTEX
  5
42f
  8
Layer_0
  10
-351.59617
  20
353.65891
  0
VERTEX
  5
430
  8
Layer_0
  10
-351.71856
  20
354.16104
  0
VERTEX
  5
431
  8
Layer_0
  10
-351.85117
  20
354.70436
  0
VERTEX
  5
432
  8
Layer_0
  10
-351.9931
  20
355.28525
  0
VERTEX
  5
433
  8
Layer_0
  10
-352.14347
  20
355.9001
  0
VERTEX
  5
434
  8
Layer_0
  10
-352.46601
  20
357.21713
  0
VERTEX
  5
435
  8
Layer_0
  10
-352.81174
  20
358.62648
  0
VERTEX
  5
436
  8
Layer_0
  10
-353.15746
  20
360.04305
  0
VERTEX
  5
437
  8
Layer_0
  10
-353.47999
  20
361.38079
  0
VERTEX
  5
438
  8
Layer_0
  10
-353.63035
  20
362.01058
  0
VERTEX
  5
439
  8
Layer_0
  10
-353.77227
  20
362.60925
  0
VERTEX
  5
43a
  8
Layer_0
  10
-353.90486
  20
363.17299
  0
VERTEX
  5
43b
  8
Layer_0
  10
-354.02723
  20
363.698
  0
VERTEX
  5
43c
  8
Layer_0
  10
-354.13852
  20
364.18048
  0
VERTEX
  5
43d
  8
Layer_0
  10
-354.23783
  20
364.61661
  0
VERTEX
  5
43e
  8
Layer_0
  10
-354.32428
  20
365.00259
  0
VERTEX
  5
43f
  8
Layer_0
  10
-354.39699
  20
365.33463
  0
VERTEX
  5
440
  8
Layer_0
  10
-354.45508
  20
365.60891
  0
VERTEX
  5
441
  8
Layer_0
  10
-354.49767
  20
365.82163
  0
VERTEX
  5
442
  8
Layer_0
  10
-354.52387
  20
365.96899
  0
VERTEX
  5
443
  8
Layer_0
  10
-354.53279
  20
366.04718
  0
VERTEX
  5
444
  8
Layer_0
  10
-354.51867
  20
366.16979
  0
VERTEX
  5
445
  8
Layer_0
  10
-354.46479
  20
366.26557
  0
VERTEX
  5
446
  8
Layer_0
  10
-354.35388
  20
366.33775
  0
VERTEX
  5
447
  8
Layer_0
  10
-354.16866
  20
366.38955
  0
VERTEX
  5
448
  8
Layer_0
  10
-354.0428
  20
366.40882
  0
VERTEX
  5
449
  8
Layer_0
  10
-353.89188
  20
366.42422
  0
VERTEX
  5
44a
  8
Layer_0
  10
-353.71375
  20
366.43613
  0
VERTEX
  5
44b
  8
Layer_0
  10
-353.50625
  20
366.44498
  0
VERTEX
  5
44c
  8
Layer_0
  10
-353.26722
  20
366.45115
  0
VERTEX
  5
44d
  8
Layer_0
  10
-352.99451
  20
366.45506
  0
VERTEX
  5
44e
  8
Layer_0
  10
-352.68595
  20
366.45711
  0
VERTEX
  5
44f
  8
Layer_0
  10
-352.33939
  20
366.4577
  0
VERTEX
  5
450
  8
Layer_0
  10
-350.146
  20
366.4577
  0
SEQEND
  0
POLYLINE
  5
452
  8
Layer_0
  62
7
  70
1
  66
1
  10
0
  20
0
  30
0
  0
VERTEX
  5
452
  8
Layer_0
  10
-325.87098
  20
365.94789
  0
VERTEX
  5
453
  8
Layer_0
  10
-325.88773
  20
365.8598
  0
VERTEX
  5
454
  8
Layer_0
  10
-325.91327
  20
365.70327
  0
VERTEX
  5
455
  8
Layer_0
  10
-325.94708
  20
365.4821
  0
VERTEX
  5
456
  8
Layer_0
  10
-325.98863
  20
365.20015
  0
VERTEX
  5
457
  8
Layer_0
  10
-326.0374
  20
364.86124
  0
VERTEX
  5
458
  8
Layer_0
  10
-326.09285
  20
364.46921
  0
VERTEX
  5
459
  8
Layer_0
  10
-326.15447
  20
364.02789
  0
VERTEX
  5
45a
  8
Layer_0
  10
-326.22171
  20
363.54112
  0
VERTEX
  5
45b
  8
Layer_0
  10
-326.29406
  20
363.01272
  0
VERTEX
  5
45c
  8
Layer_0
  10
-326.37099
  20
362.44653
  0
VERTEX
  5
45d
  8
Layer_0
  10
-326.45197
  20
361.84639
  0
VERTEX
  5
45e
  8
Layer_0
  10
-326.53647
  20
361.21613
  0
VERTEX
  5
45f
  8
Layer_0
  10
-326.71394
  20
359.88058
  0
VERTEX
  5
460
  8
Layer_0
  10
-326.89918
  20
358.47054
  0
VERTEX
  5
461
  8
Layer_0
  10
-327.80933
  20
351.50302
  0
VERTEX
  5
462
  8
Layer_0
  10
-329.98254
  20
351.50302
  0
VERTEX
  5
463
  8
Layer_0
  10
-330.41909
  20
351.50512
  0
VERTEX
  5
464
  8
Layer_0
  10
-330.82635
  20
351.51114
  0
VERTEX
  5
465
  8
Layer_0
  10
-331.19542
  20
351.52067
  0
VERTEX
  5
466
  8
Layer_0
  10
-331.51737
  20
351.53326
  0
VERTEX
  5
467
  8
Layer_0
  10
-331.78329
  20
351.54852
  0
VERTEX
  5
468
  8
Layer_0
  10
-331.98427
  20
351.566
  0
VERTEX
  5
469
  8
Layer_0
  10
-332.11139
  20
351.58529
  0
VERTEX
  5
46a
  8
Layer_0
  10
-332.15574
  20
351.60597
  0
VERTEX
  5
46b
  8
Layer_0
  10
-332.15078
  20
351.66297
  0
VERTEX
  5
46c
  8
Layer_0
  10
-332.13628
  20
351.79018
  0
VERTEX
  5
46d
  8
Layer_0
  10
-332.11286
  20
351.98303
  0
VERTEX
  5
46e
  8
Layer_0
  10
-332.08113
  20
352.23696
  0
VERTEX
  5
46f
  8
Layer_0
  10
-332.0417
  20
352.5474
  0
VERTEX
  5
470
  8
Layer_0
  10
-331.99517
  20
352.90978
  0
VERTEX
  5
471
  8
Layer_0
  10
-331.94216
  20
353.31955
  0
VERTEX
  5
472
  8
Layer_0
  10
-331.88327
  20
353.77213
  0
VERTEX
  5
473
  8
Layer_0
  10
-331.81911
  20
354.26296
  0
VERTEX
  5
474
  8
Layer_0
  10
-331.75029
  20
354.78747
  0
VERTEX
  5
475
  8
Layer_0
  10
-331.67742
  20
355.3411
  0
VERTEX
  5
476
  8
Layer_0
  10
-331.6011
  20
355.91928
  0
VERTEX
  5
477
  8
Layer_0
  10
-331.44058
  20
357.13104
  0
VERTEX
  5
478
  8
Layer_0
  10
-331.27359
  20
358.38623
  0
VERTEX
  5
479
  8
Layer_0
  10
-331.105
  20
359.64831
  0
VERTEX
  5
47a
  8
Layer_0
  10
-330.93968
  20
360.88077
  0
VERTEX
  5
47b
  8
Layer_0
  10
-330.85977
  20
361.47448
  0
VERTEX
  5
47c
  8
Layer_0
  10
-330.7825
  20
362.04708
  0
VERTEX
  5
47d
  8
Layer_0
  10
-330.70849
  20
362.59401
  0
VERTEX
  5
47e
  8
Layer_0
  10
-330.63833
  20
363.11071
  0
VERTEX
  5
47f
  8
Layer_0
  10
-330.57265
  20
363.59261
  0
VERTEX
  5
480
  8
Layer_0
  10
-330.51204
  20
364.03515
  0
VERTEX
  5
481
  8
Layer_0
  10
-330.45712
  20
364.43375
  0
VERTEX
  5
482
  8
Layer_0
  10
-330.40849
  20
364.78386
  0
VERTEX
  5
483
  8
Layer_0
  10
-330.36677
  20
365.0809
  0
VERTEX
  5
484
  8
Layer_0
  10
-330.33256
  20
365.32032
  0
VERTEX
  5
485
  8
Layer_0
  10
-330.30648
  20
365.49754
  0
VERTEX
  5
486
  8
Layer_0
  10
-330.28912
  20
365.60801
  0
VERTEX
  5
487
  8
Layer_0
  10
-330.14532
  20
366.4577
  0
VERTEX
  5
488
  8
Layer_0
  10
-327.9491
  20
366.4577
  0
VERTEX
  5
489
  8
Layer_0
  10
-327.57043
  20
366.45746
  0
VERTEX
  5
48a
  8
Layer_0
  10
-327.23821
  20
366.45625
  0
VERTEX
  5
48b
  8
Layer_0
  10
-326.94959
  20
366.4534
  0
VERTEX
  5
48c
  8
Layer_0
  10
-326.70174
  20
366.44818
  0
VERTEX
  5
48d
  8
Layer_0
  10
-326.4918
  20
366.43992
  0
VERTEX
  5
48e
  8
Layer_0
  10
-326.31693
  20
366.4279
  0
VERTEX
  5
48f
  8
Layer_0
  10
-326.17429
  20
366.41144
  0
VERTEX
  5
490
  8
Layer_0
  10
-326.06103
  20
366.38983
  0
VERTEX
  5
491
  8
Layer_0
  10
-325.91125
  20
366.32838
  0
VERTEX
  5
492
  8
Layer_0
  10
-325.84482
  20
366.23796
  0
VERTEX
  5
493
  8
Layer_0
  10
-325.83899
  20
366.11299
  0
SEQEND
  0
POLYLINE
  5
495
  8
Layer_0
  62
7
  70
1
  66
1
  10
0
  20
0
  30
0
  0
VERTEX
  5
495
  8
Layer_0
  10
-315.25864
  20
365.77577
  0
VERTEX
  5
496
  8
Layer_0
  10
-314.90967
  20
365.58754
  0
VERTEX
  5
497
  8
Layer_0
  10
-314.60461
  20
365.41335
  0
VERTEX
  5
498
  8
Layer_0
  10
-314.34284
  20
365.25059
  0
VERTEX
  5
499
  8
Layer_0
  10
-314.12373
  20
365.09665
  0
VERTEX
  5
49a
  8
Layer_0
  10
-313.94667
  20
364.94891
  0
VERTEX
  5
49b
  8
Layer_0
  10
-313.81103
  20
364.80477
  0
VERTEX
  5
49c
  8
Layer_0
  10
-313.7162
  20
364.66161
  0
VERTEX
  5
49d
  8
Layer_0
  10
-313.66155
  20
364.51683
  0
VERTEX
  5
49e
  8
Layer_0
  10
-313.64648
  20
364.36781
  0
VERTEX
  5
49f
  8
Layer_0
  10
-313.67034
  20
364.21194
  0
VERTEX
  5
4a0
  8
Layer_0
  10
-313.73254
  20
364.0466
  0
VERTEX
  5
4a1
  8
Layer_0
  10
-313.83244
  20
363.86919
  0
VERTEX
  5
4a2
  8
Layer_0
  10
-313.96944
  20
363.6771
  0
VERTEX
  5
4a3
  8
Layer_0
  10
-314.1429
  20
363.46771
  0
VERTEX
  5
4a4
  8
Layer_0
  10
-314.3522
  20
363.23842
  0
VERTEX
  5
4a5
  8
Layer_0
  10
-314.59674
  20
362.9866
  42
0.0025205352
  0
VERTEX
  5
4a6
  8
Layer_0
  10
-315.98218
  20
361.58609
  0
VERTEX
  5
4a7
  8
Layer_0
  10
-316.04357
  20
361.54785
  0
VERTEX
  5
4a8
  8
Layer_0
  10
-316.1217
  20
361.54119
  0
VERTEX
  5
4a9
  8
Layer_0
  10
-316.21564
  20
361.56555
  0
VERTEX
  5
4aa
  8
Layer_0
  10
-316.32449
  20
361.62041
  0
VERTEX
  5
4ab
  8
Layer_0
  10
-316.44733
  20
361.70519
  0
VERTEX
  5
4ac
  8
Layer_0
  10
-316.58325
  20
361.81937
  0
VERTEX
  5
4ad
  8
Layer_0
  10
-316.73134
  20
361.96238
  0
VERTEX
  5
4ae
  8
Layer_0
  10
-316.89069
  20
362.13369
  0
VERTEX
  5
4af
  8
Layer_0
  10
-317.20061
  20
362.43023
  0
VERTEX
  5
4b0
  8
Layer_0
  10
-317.53716
  20
362.65897
  0
VERTEX
  5
4b1
  8
Layer_0
  10
-317.89044
  20
362.81845
  0
VERTEX
  5
4b2
  8
Layer_0
  10
-318.25054
  20
362.90721
  0
VERTEX
  5
4b3
  8
Layer_0
  10
-318.60753
  20
362.9238
  0
VERTEX
  5
4b4
  8
Layer_0
  10
-318.95152
  20
362.86676
  0
VERTEX
  5
4b5
  8
Layer_0
  10
-319.27259
  20
362.73463
  0
VERTEX
  5
4b6
  8
Layer_0
  10
-319.56082
  20
362.52596
  0
VERTEX
  5
4b7
  8
Layer_0
  10
-319.73906
  20
362.32067
  0
VERTEX
  5
4b8
  8
Layer_0
  10
-319.81764
  20
362.12206
  0
VERTEX
  5
4b9
  8
Layer_0
  10
-319.81884
  20
362.02449
  0
VERTEX
  5
4ba
  8
Layer_0
  10
-319.79427
  20
361.92767
  0
VERTEX
  5
4bb
  8
Layer_0
  10
-319.74363
  20
361.83128
  0
VERTEX
  5
4bc
  8
Layer_0
  10
-319.66665
  20
361.73504
  0
VERTEX
  5
4bd
  8
Layer_0
  10
-319.56302
  20
361.63862
  0
VERTEX
  5
4be
  8
Layer_0
  10
-319.43247
  20
361.54172
  0
VERTEX
  5
4bf
  8
Layer_0
  10
-319.27471
  20
361.44404
  0
VERTEX
  5
4c0
  8
Layer_0
  10
-319.08945
  20
361.34526
  0
VERTEX
  5
4c1
  8
Layer_0
  10
-318.8764
  20
361.24509
  0
VERTEX
  5
4c2
  8
Layer_0
  10
-318.63528
  20
361.14321
  0
VERTEX
  5
4c3
  8
Layer_0
  10
-318.36579
  20
361.03932
  0
VERTEX
  5
4c4
  8
Layer_0
  10
-318.06765
  20
360.93312
  0
VERTEX
  5
4c5
  8
Layer_0
  10
-317.4203
  20
360.68733
  0
VERTEX
  5
4c6
  8
Layer_0
  10
-316.82423
  20
360.41369
  0
VERTEX
  5
4c7
  8
Layer_0
  10
-316.28294
  20
360.11474
  0
VERTEX
  5
4c8
  8
Layer_0
  10
-315.79989
  20
359.79303
  0
VERTEX
  5
4c9
  8
Layer_0
  10
-315.37857
  20
359.45111
  0
VERTEX
  5
4ca
  8
Layer_0
  10
-315.02245
  20
359.09155
  0
VERTEX
  5
4cb
  8
Layer_0
  10
-314.73501
  20
358.71688
  0
VERTEX
  5
4cc
  8
Layer_0
  10
-314.51973
  20
358.32966
  0
VERTEX
  5
4cd
  8
Layer_0
  10
-314.37046
  20
357.89345
  0
VERTEX
  5
4ce
  8
Layer_0
  10
-314.2812
  20
357.39092
  0
VERTEX
  5
4cf
  8
Layer_0
  10
-314.25021
  20
356.84125
  0
VERTEX
  5
4d0
  8
Layer_0
  10
-314.27575
  20
356.26365
  0
VERTEX
  5
4d1
  8
Layer_0
  10
-314.35606
  20
355.6773
  0
VERTEX
  5
4d2
  8
Layer_0
  10
-314.48941
  20
355.10138
  0
VERTEX
  5
4d3
  8
Layer_0
  10
-314.67404
  20
354.55509
  0
VERTEX
  5
4d4
  8
Layer_0
  10
-314.90821
  20
354.05763
  0
VERTEX
  5
4d5
  8
Layer_0
  10
-315.24881
  20
353.53071
  0
VERTEX
  5
4d6
  8
Layer_0
  10
-315.65727
  20
353.04969
  0
VERTEX
  5
4d7
  8
Layer_0
  10
-316.126
  20
352.61622
  0
VERTEX
  5
4d8
  8
Layer_0
  10
-316.64744
  20
352.23191
  0
VERTEX
  5
4d9
  8
Layer_0
  10
-317.214
  20
351.8984
  0
VERTEX
  5
4da
  8
Layer_0
  10
-317.81809
  20
351.61731
  0
VERTEX
  5
4db
  8
Layer_0
  10
-318.45214
  20
351.39029
  0
VERTEX
  5
4dc
  8
Layer_0
  10
-319.10856
  20
351.21894
  0
VERTEX
  5
4dd
  8
Layer_0
  10
-319.77979
  20
351.10491
  0
VERTEX
  5
4de
  8
Layer_0
  10
-320.45823
  20
351.04983
  0
VERTEX
  5
4df
  8
Layer_0
  10
-321.1363
  20
351.05532
  0
VERTEX
  5
4e0
  8
Layer_0
  10
-321.80643
  20
351.12301
  0
VERTEX
  5
4e1
  8
Layer_0
  10
-322.46103
  20
351.25453
  0
VERTEX
  5
4e2
  8
Layer_0
  10
-323.09252
  20
351.45152
  0
VERTEX
  5
4e3
  8
Layer_0
  10
-323.69332
  20
351.7156
  0
VERTEX
  5
4e4
  8
Layer_0
  10
-324.25586
  20
352.04839
  0
VERTEX
  5
4e5
  8
Layer_0
  10
-324.59772
  20
352.30414
  0
VERTEX
  5
4e6
  8
Layer_0
  10
-324.94424
  20
352.60487
  0
VERTEX
  5
4e7
  8
Layer_0
  10
-325.27995
  20
352.9327
  0
VERTEX
  5
4e8
  8
Layer_0
  10
-325.58935
  20
353.26979
  0
VERTEX
  5
4e9
  8
Layer_0
  10
-325.85695
  20
353.59825
  0
VERTEX
  5
4ea
  8
Layer_0
  10
-326.06727
  20
353.90023
  0
VERTEX
  5
4eb
  8
Layer_0
  10
-326.1461
  20
354.03571
  0
VERTEX
  5
4ec
  8
Layer_0
  10
-326.20481
  20
354.15787
  0
VERTEX
  5
4ed
  8
Layer_0
  10
-326.24146
  20
354.26448
  0
VERTEX
  5
4ee
  8
Layer_0
  10
-326.2541
  20
354.3533
  0
VERTEX
  5
4ef
  8
Layer_0
  10
-326.22131
  20
354.42692
  0
VERTEX
  5
4f0
  8
Layer_0
  10
-326.12829
  20
354.54213
  0
VERTEX
  5
4f1
  8
Layer_0
  10
-325.98307
  20
354.69252
  0
VERTEX
  5
4f2
  8
Layer_0
  10
-325.7937
  20
354.87172
  0
VERTEX
  5
4f3
  8
Layer_0
  10
-325.31461
  20
355.29092
  0
VERTEX
  5
4f4
  8
Layer_0
  10
-324.75531
  20
355.74859
  0
VERTEX
  5
4f5
  8
Layer_0
  10
-324.18008
  20
356.19359
  0
VERTEX
  5
4f6
  8
Layer_0
  10
-323.6532
  20
356.57477
  0
VERTEX
  5
4f7
  8
Layer_0
  10
-323.42798
  20
356.72544
  0
VERTEX
  5
4f8
  8
Layer_0
  10
-323.23896
  20
356.84098
  0
VERTEX
  5
4f9
  8
Layer_0
  10
-323.09416
  20
356.915
  0
VERTEX
  5
4fa
  8
Layer_0
  10
-323.00163
  20
356.94109
  0
VERTEX
  5
4fb
  8
Layer_0
  10
-322.91918
  20
356.89611
  0
VERTEX
  5
4fc
  8
Layer_0
  10
-322.82835
  20
356.77364
  0
VERTEX
  5
4fd
  8
Layer_0
  10
-322.74014
  20
356.59238
  0
VERTEX
  5
4fe
  8
Layer_0
  10
-322.66558
  20
356.37104
  0
VERTEX
  5
4ff
  8
Layer_0
  10
-322.57757
  20
356.13173
  0
VERTEX
  5
500
  8
Layer_0
  10
-322.45139
  20
355.91001
  0
VERTEX
  5
501
  8
Layer_0
  10
-322.29141
  20
355.70714
  0
VERTEX
  5
502
  8
Layer_0
  10
-322.10199
  20
355.52437
  0
VERTEX
  5
503
  8
Layer_0
  10
-321.8875
  20
355.36296
  0
VERTEX
  5
504
  8
Layer_0
  10
-321.65231
  20
355.22414
  0
VERTEX
  5
505
  8
Layer_0
  10
-321.40079
  20
355.10919
  0
VERTEX
  5
506
  8
Layer_0
  10
-321.1373
  20
355.01935
  0
VERTEX
  5
507
  8
Layer_0
  10
-320.86622
  20
354.95588
  0
VERTEX
  5
508
  8
Layer_0
  10
-320.59192
  20
354.92002
  0
VERTEX
  5
509
  8
Layer_0
  10
-320.31876
  20
354.91303
  0
VERTEX
  5
50a
  8
Layer_0
  10
-320.0511
  20
354.93616
  0
VERTEX
  5
50b
  8
Layer_0
  10
-319.79333
  20
354.99067
  0
VERTEX
  5
50c
  8
Layer_0
  10
-319.5498
  20
355.07781
  0
VERTEX
  5
50d
  8
Layer_0
  10
-319.32489
  20
355.19883
  0
VERTEX
  5
50e
  8
Layer_0
  10
-319.12296
  20
355.35498
  0
VERTEX
  5
50f
  8
Layer_0
  10
-318.95863
  20
355.51708
  0
VERTEX
  5
510
  8
Layer_0
  10
-318.82778
  20
355.67118
  0
VERTEX
  5
511
  8
Layer_0
  10
-318.7315
  20
355.81857
  0
VERTEX
  5
512
  8
Layer_0
  10
-318.67087
  20
355.96053
  0
VERTEX
  5
513
  8
Layer_0
  10
-318.64697
  20
356.09834
  0
VERTEX
  5
514
  8
Layer_0
  10
-318.66089
  20
356.23327
  0
VERTEX
  5
515
  8
Layer_0
  10
-318.71372
  20
356.36659
  0
VERTEX
  5
516
  8
Layer_0
  10
-318.80653
  20
356.49959
  0
VERTEX
  5
517
  8
Layer_0
  10
-318.94041
  20
356.63354
  0
VERTEX
  5
518
  8
Layer_0
  10
-319.11646
  20
356.76973
  0
VERTEX
  5
519
  8
Layer_0
  10
-319.33574
  20
356.90942
  0
VERTEX
  5
51a
  8
Layer_0
  10
-319.59935
  20
357.05389
  0
VERTEX
  5
51b
  8
Layer_0
  10
-319.90837
  20
357.20443
  0
VERTEX
  5
51c
  8
Layer_0
  10
-320.26389
  20
357.36231
  0
VERTEX
  5
51d
  8
Layer_0
  10
-320.66699
  20
357.5288
  0
VERTEX
  5
51e
  8
Layer_0
  10
-321.11875
  20
357.70519
  0
VERTEX
  5
51f
  8
Layer_0
  10
-321.53007
  20
357.86775
  0
VERTEX
  5
520
  8
Layer_0
  10
-321.90546
  20
358.02858
  0
VERTEX
  5
521
  8
Layer_0
  10
-322.24642
  20
358.18929
  0
VERTEX
  5
522
  8
Layer_0
  10
-322.55449
  20
358.35147
  0
VERTEX
  5
523
  8
Layer_0
  10
-322.83117
  20
358.51673
  0
VERTEX
  5
524
  8
Layer_0
  10
-323.07799
  20
358.68666
  0
VERTEX
  5
525
  8
Layer_0
  10
-323.29646
  20
358.86287
  0
VERTEX
  5
526
  8
Layer_0
  10
-323.4881
  20
359.04696
  0
VERTEX
  5
527
  8
Layer_0
  10
-323.65442
  20
359.24053
  0
VERTEX
  5
528
  8
Layer_0
  10
-323.79695
  20
359.44518
  0
VERTEX
  5
529
  8
Layer_0
  10
-323.9172
  20
359.66251
  0
VERTEX
  5
52a
  8
Layer_0
  10
-324.01669
  20
359.89412
  0
VERTEX
  5
52b
  8
Layer_0
  10
-324.09693
  20
360.14161
  0
VERTEX
  5
52c
  8
Layer_0
  10
-324.15945
  20
360.40659
  0
VERTEX
  5
52d
  8
Layer_0
  10
-324.20576
  20
360.69065
  0
VERTEX
  5
52e
  8
Layer_0
  10
-324.23738
  20
360.99539
  0
VERTEX
  5
52f
  8
Layer_0
  10
-324.26149
  20
361.58184
  0
VERTEX
  5
530
  8
Layer_0
  10
-324.23703
  20
362.1265
  0
VERTEX
  5
531
  8
Layer_0
  10
-324.16223
  20
362.63468
  0
VERTEX
  5
532
  8
Layer_0
  10
-324.03536
  20
363.11165
  0
VERTEX
  5
533
  8
Layer_0
  10
-323.85465
  20
363.56271
  0
VERTEX
  5
534
  8
Layer_0
  10
-323.61835
  20
363.99315
  0
VERTEX
  5
535
  8
Layer_0
  10
-323.32472
  20
364.40825
  0
VERTEX
  5
536
  8
Layer_0
  10
-322.97198
  20
364.81331
  0
VERTEX
  5
537
  8
Layer_0
  10
-322.5417
  20
365.22265
  0
VERTEX
  5
538
  8
Layer_0
  10
-322.08888
  20
365.56697
  0
VERTEX
  5
539
  8
Layer_0
  10
-321.60434
  20
365.84954
  0
VERTEX
  5
53a
  8
Layer_0
  10
-321.07893
  20
366.07363
  0
VERTEX
  5
53b
  8
Layer_0
  10
-320.50348
  20
366.24251
  0
VERTEX
  5
53c
  8
Layer_0
  10
-319.86882
  20
366.35945
  0
VERTEX
  5
53d
  8
Layer_0
  10
-319.1658
  20
366.42772
  0
VERTEX
  5
53e
  8
Layer_0
  10
-318.38525
  20
366.4506
  0
VERTEX
  5
53f
  8
Layer_0
  10
-317.83682
  20
366.44645
  0
VERTEX
  5
540
  8
Layer_0
  10
-317.37773
  20
366.42895
  0
VERTEX
  5
541
  8
Layer_0
  10
-316.98585
  20
366.39332
  0
VERTEX
  5
542
  8
Layer_0
  10
-316.63899
  20
366.33477
  0
VERTEX
  5
543
  8
Layer_0
  10
-316.315
  20
366.24853
  0
VERTEX
  5
544
  8
Layer_0
  10
-315.99172
  20
366.1298
  0
VERTEX
  5
545
  8
Layer_0
  10
-315.64698
  20
365.97381
  0
SEQEND
  0
POLYLINE
  5
547
  8
Layer_0
  62
7
  70
1
  66
1
  10
0
  20
0
  30
0
  0
VERTEX
  5
547
  8
Layer_0
  10
-301.53454
  20
365.04154
  0
VERTEX
  5
548
  8
Layer_0
  10
-301.58101
  20
364.64019
  0
VERTEX
  5
549
  8
Layer_0
  10
-301.62286
  20
364.29059
  0
VERTEX
  5
54a
  8
Layer_0
  10
-301.66325
  20
363.98919
  0
VERTEX
  5
54b
  8
Layer_0
  10
-301.70539
  20
363.7324
  0
VERTEX
  5
54c
  8
Layer_0
  10
-301.75244
  20
363.51667
  0
VERTEX
  5
54d
  8
Layer_0
  10
-301.8076
  20
363.33842
  0
VERTEX
  5
54e
  8
Layer_0
  10
-301.87405
  20
363.19408
  0
VERTEX
  5
54f
  8
Layer_0
  10
-301.95496
  20
363.08009
  0
VERTEX
  5
550
  8
Layer_0
  10
-302.05353
  20
362.99288
  0
VERTEX
  5
551
  8
Layer_0
  10
-302.17293
  20
362.92887
  0
VERTEX
  5
552
  8
Layer_0
  10
-302.31636
  20
362.8845
  0
VERTEX
  5
553
  8
Layer_0
  10
-302.48699
  20
362.8562
  0
VERTEX
  5
554
  8
Layer_0
  10
-302.68801
  20
362.8404
  0
VERTEX
  5
555
  8
Layer_0
  10
-302.9226
  20
362.83354
  0
VERTEX
  5
556
  8
Layer_0
  10
-303.19395
  20
362.83203
  0
VERTEX
  5
557
  8
Layer_0
  10
-303.50523
  20
362.83233
  0
VERTEX
  5
558
  8
Layer_0
  10
-303.82947
  20
362.83883
  0
VERTEX
  5
559
  8
Layer_0
  10
-304.10826
  20
362.85005
  0
VERTEX
  5
55a
  8
Layer_0
  10
-304.34654
  20
362.85356
  0
VERTEX
  5
55b
  8
Layer_0
  10
-304.54923
  20
362.83694
  0
VERTEX
  5
55c
  8
Layer_0
  10
-304.72127
  20
362.78776
  0
VERTEX
  5
55d
  8
Layer_0
  10
-304.86759
  20
362.6936
  0
VERTEX
  5
55e
  8
Layer_0
  10
-304.99312
  20
362.54204
  0
VERTEX
  5
55f
  8
Layer_0
  10
-305.1028
  20
362.32064
  0
VERTEX
  5
560
  8
Layer_0
  10
-305.20155
  20
362.01699
  0
VERTEX
  5
561
  8
Layer_0
  10
-305.29432
  20
361.61866
  0
VERTEX
  5
562
  8
Layer_0
  10
-305.34
  20
361.38011
  0
VERTEX
  5
563
  8
Layer_0
  10
-305.38603
  20
361.11322
  0
VERTEX
  5
564
  8
Layer_0
  10
-305.43303
  20
360.81645
  0
VERTEX
  5
565
  8
Layer_0
  10
-305.48161
  20
360.48825
  0
VERTEX
  5
566
  8
Layer_0
  10
-305.5324
  20
360.12706
  0
VERTEX
  5
567
  8
Layer_0
  10
-305.586
  20
359.73132
  0
VERTEX
  5
568
  8
Layer_0
  10
-305.64304
  20
359.2995
  0
VERTEX
  5
569
  8
Layer_0
  10
-305.70413
  20
358.83002
  0
VERTEX
  5
56a
  8
Layer_0
  10
-305.76989
  20
358.32134
  0
VERTEX
  5
56b
  8
Layer_0
  10
-305.84094
  20
357.77191
  0
VERTEX
  5
56c
  8
Layer_0
  10
-305.91789
  20
357.18016
  0
VERTEX
  5
56d
  8
Layer_0
  10
-306.00135
  20
356.54456
  0
VERTEX
  5
56e
  8
Layer_0
  10
-306.66736
  20
351.50302
  0
VERTEX
  5
56f
  8
Layer_0
  10
-308.83777
  20
351.50302
  0
VERTEX
  5
570
  8
Layer_0
  10
-309.27377
  20
351.50541
  0
VERTEX
  5
571
  8
Layer_0
  10
-309.68051
  20
351.51227
  0
VERTEX
  5
572
  8
Layer_0
  10
-310.0491
  20
351.5231
  0
VERTEX
  5
573
  8
Layer_0
  10
-310.37064
  20
351.53743
  0
VERTEX
  5
574
  8
Layer_0
  10
-310.63622
  20
351.55479
  0
VERTEX
  5
575
  8
Layer_0
  10
-310.83694
  20
351.57469
  0
VERTEX
  5
576
  8
Layer_0
  10
-310.9639
  20
351.59664
  0
VERTEX
  5
577
  8
Layer_0
  10
-311.0082
  20
351.62017
  0
VERTEX
  5
578
  8
Layer_0
  10
-311.00438
  20
351.66047
  0
VERTEX
  5
579
  8
Layer_0
  10
-310.99315
  20
351.7553
  0
VERTEX
  5
57a
  8
Layer_0
  10
-310.97489
  20
351.90179
  0
VERTEX
  5
57b
  8
Layer_0
  10
-310.94999
  20
352.09709
  0
VERTEX
  5
57c
  8
Layer_0
  10
-310.91883
  20
352.33832
  0
VERTEX
  5
57d
  8
Layer_0
  10
-310.88177
  20
352.62263
  0
VERTEX
  5
57e
  8
Layer_0
  10
-310.8392
  20
352.94715
  0
VERTEX
  5
57f
  8
Layer_0
  10
-310.7915
  20
353.30902
  0
VERTEX
  5
580
  8
Layer_0
  10
-310.73905
  20
353.70538
  0
VERTEX
  5
581
  8
Layer_0
  10
-310.68222
  20
354.13335
  0
VERTEX
  5
582
  8
Layer_0
  10
-310.62139
  20
354.59009
  0
VERTEX
  5
583
  8
Layer_0
  10
-310.55694
  20
355.07272
  0
VERTEX
  5
584
  8
Layer_0
  10
-310.41869
  20
356.10421
  0
VERTEX
  5
585
  8
Layer_0
  10
-310.2705
  20
357.20493
  0
VERTEX
  5
586
  8
Layer_0
  10
-310.12231
  20
358.30489
  0
VERTEX
  5
587
  8
Layer_0
  10
-309.98406
  20
359.3342
  0
VERTEX
  5
588
  8
Layer_0
  10
-309.91961
  20
359.81526
  0
VERTEX
  5
589
  8
Layer_0
  10
-309.85878
  20
360.27012
  0
VERTEX
  5
58a
  8
Layer_0
  10
-309.80195
  20
360.69595
  0
VERTEX
  5
58b
  8
Layer_0
  10
-309.74949
  20
361.0899
  0
VERTEX
  5
58c
  8
Layer_0
  10
-309.70179
  20
361.44912
  0
VERTEX
  5
58d
  8
Layer_0
  10
-309.65922
  20
361.77077
  0
VERTEX
  5
58e
  8
Layer_0
  10
-309.62217
  20
362.052
  0
VERTEX
  5
58f
  8
Layer_0
  10
-309.591
  20
362.28998
  0
VERTEX
  5
590
  8
Layer_0
  10
-309.5661
  20
362.48186
  0
VERTEX
  5
591
  8
Layer_0
  10
-309.54785
  20
362.62479
  0
VERTEX
  5
592
  8
Layer_0
  10
-309.53662
  20
362.71593
  0
VERTEX
  5
593
  8
Layer_0
  10
-309.53279
  20
362.75243
  0
VERTEX
  5
594
  8
Layer_0
  10
-309.56611
  20
362.76848
  0
VERTEX
  5
595
  8
Layer_0
  10
-309.66162
  20
362.78345
  0
VERTEX
  5
596
  8
Layer_0
  10
-309.8126
  20
362.79702
  0
VERTEX
  5
597
  8
Layer_0
  10
-310.01237
  20
362.80886
  0
VERTEX
  5
598
  8
Layer_0
  10
-310.25423
  20
362.81863
  0
VERTEX
  5
599
  8
Layer_0
  10
-310.53149
  20
362.82602
  0
VERTEX
  5
59a
  8
Layer_0
  10
-310.83745
  20
362.8307
  0
VERTEX
  5
59b
  8
Layer_0
  10
-311.1654
  20
362.83233
  0
VERTEX
  5
59c
  8
Layer_0
  10
-312.79803
  20
362.83234
  0
VERTEX
  5
59d
  8
Layer_0
  10
-312.64294
  20
364.02191
  0
VERTEX
  5
59e
  8
Layer_0
  10
-312.58258
  20
364.53296
  0
VERTEX
  5
59f
  8
Layer_0
  10
-312.53281
  20
365.04508
  0
VERTEX
  5
5a0
  8
Layer_0
  10
-312.51352
  20
365.28295
  0
VERTEX
  5
5a1
  8
Layer_0
  10
-312.49881
  20
365.49878
  0
VERTEX
  5
5a2
  8
Layer_0
  10
-312.48934
  20
365.68514
  0
VERTEX
  5
5a3
  8
Layer_0
  10
-312.48574
  20
365.83459
  0
VERTEX
  5
5a4
  8
Layer_0
  10
-312.48361
  20
366.4577
  0
VERTEX
  5
5a5
  8
Layer_0
  10
-306.9267
  20
366.4577
  0
VERTEX
  5
5a6
  8
Layer_0
  10
-301.36975
  20
366.4577
  0
VERTEX
  5
5a7
  8
Layer_0
  10
-301.53455
  20
365.04153
  0
SEQEND
  0
POLYLINE
  5
5a9
  8
Layer_0
  62
7
  70
1
  66
1
  10
0
  20
0
  30
0
  0
VERTEX
  5
5a9
  8
Layer_0
  10
-1.6391277e-07
  20
32.5
  0
VERTEX
  5
5aa
  8
Layer_0
  10
-1.9222498e-06
  20
20.000002
  42
0.41421356
  0
VERTEX
  5
5ab
  8
Layer_0
  10
19.999998
  20
0
  0
VERTEX
  5
5ac
  8
Layer_0
  10
82.5
  20
0
  0
VERTEX
  5
5ad
  8
Layer_0
  10
145.00003
  20
0
  42
0.41421356
  0
VERTEX
  5
5ae
  8
Layer_0
  10
165.00003
  20
20
  0
VERTEX
  5
5af
  8
Layer_0
  10
165.00002
  20
32.5
  0
VERTEX
  5
5b0
  8
Layer_0
  10
165.00003
  20
45
  42
0.41421356
  0
VERTEX
  5
5b1
  8
Layer_0
  10
145.00003
  20
65
  0
VERTEX
  5
5b2
  8
Layer_0
  10
82.5
  20
65
  0
VERTEX
  5
5b3
  8
Layer_0
  10
19.999998
  20
65
  42
0.41421351
  0
VERTEX
  5
5b4
  8
Layer_0
  10
-1.9222498e-06
  20
45
  0
SEQEND
  0
POLYLINE
  5
5b6
  8
Layer_0
  62
7
  70
1
  66
1
  10
0
  20
0
  30
0
  0
VERTEX
  5
5b6
  8
Layer_0
  10
37.981332
  20
41.924084
  0
VERTEX
  5
5b7
  8
Layer_0
  10
37.921657
  20
41.615626
  0
VERTEX
  5
5b8
  8
Layer_0
  10
37.872789
  20
41.299202
  0
VERTEX
  5
5b9
  8
Layer_0
  10
37.83977
  20
41.011987
  0
VERTEX
  5
5ba
  8
Layer_0
  10
37.827643
  20
40.791154
  0
VERTEX
  5
5bb
  8
Layer_0
  10
37.822253
  20
40.719487
  0
VERTEX
  5
5bc
  8
Layer_0
  10
37.799862
  20
40.656351
  0
VERTEX
  5
5bd
  8
Layer_0
  10
37.751142
  20
40.601208
  0
VERTEX
  5
5be
  8
Layer_0
  10
37.666763
  20
40.553518
  0
VERTEX
  5
5bf
  8
Layer_0
  10
37.537396
  20
40.512742
  0
VERTEX
  5
5c0
  8
Layer_0
  10
37.35371
  20
40.47834
  0
VERTEX
  5
5c1
  8
Layer_0
  10
37.106378
  20
40.449774
  0
VERTEX
  5
5c2
  8
Layer_0
  10
36.786068
  20
40.426504
  0
VERTEX
  5
5c3
  8
Layer_0
  10
36.383453
  20
40.407991
  0
VERTEX
  5
5c4
  8
Layer_0
  10
35.889202
  20
40.393696
  0
VERTEX
  5
5c5
  8
Layer_0
  10
35.604798
  20
40.387962
  0
VERTEX
  5
5c6
  8
Layer_0
  10
35.293986
  20
40.38308
  0
VERTEX
  5
5c7
  8
Layer_0
  10
34.955601
  20
40.378983
  0
VERTEX
  5
5c8
  8
Layer_0
  10
34.588475
  20
40.375603
  0
VERTEX
  5
5c9
  8
Layer_0
  10
34.191444
  20
40.372873
  0
VERTEX
  5
5ca
  8
Layer_0
  10
33.763341
  20
40.370726
  0
VERTEX
  5
5cb
  8
Layer_0
  10
33.303
  20
40.369094
  0
VERTEX
  5
5cc
  8
Layer_0
  10
32.809254
  20
40.36791
  0
VERTEX
  5
5cd
  8
Layer_0
  10
32.280937
  20
40.367107
  0
VERTEX
  5
5ce
  8
Layer_0
  10
31.716884
  20
40.366616
  0
VERTEX
  5
5cf
  8
Layer_0
  10
31.115928
  20
40.366371
  0
VERTEX
  5
5d0
  8
Layer_0
  10
30.476902
  20
40.366305
  0
VERTEX
  5
5d1
  8
Layer_0
  10
29.739917
  20
40.366524
  0
VERTEX
  5
5d2
  8
Layer_0
  10
29.051688
  20
40.366964
  0
VERTEX
  5
5d3
  8
Layer_0
  10
28.410554
  20
40.367302
  0
VERTEX
  5
5d4
  8
Layer_0
  10
27.814849
  20
40.367213
  0
VERTEX
  5
5d5
  8
Layer_0
  10
27.262912
  20
40.366373
  0
VERTEX
  5
5d6
  8
Layer_0
  10
26.75308
  20
40.364458
  0
VERTEX
  5
5d7
  8
Layer_0
  10
26.283688
  20
40.361143
  0
VERTEX
  5
5d8
  8
Layer_0
  10
25.853074
  20
40.356104
  0
VERTEX
  5
5d9
  8
Layer_0
  10
25.459576
  20
40.349017
  0
VERTEX
  5
5da
  8
Layer_0
  10
25.101529
  20
40.339558
  0
VERTEX
  5
5db
  8
Layer_0
  10
24.777271
  20
40.327402
  0
VERTEX
  5
5dc
  8
Layer_0
  10
24.485138
  20
40.312225
  0
VERTEX
  5
5dd
  8
Layer_0
  10
24.223468
  20
40.293703
  0
VERTEX
  5
5de
  8
Layer_0
  10
23.990597
  20
40.271512
  0
VERTEX
  5
5df
  8
Layer_0
  10
23.784862
  20
40.245327
  0
VERTEX
  5
5e0
  8
Layer_0
  10
23.604601
  20
40.214825
  0
VERTEX
  5
5e1
  8
Layer_0
  10
23.313844
  20
40.139569
  0
VERTEX
  5
5e2
  8
Layer_0
  10
23.105022
  20
40.04315
  0
VERTEX
  5
5e3
  8
Layer_0
  10
22.96483
  20
39.922975
  0
VERTEX
  5
5e4
  8
Layer_0
  10
22.879963
  20
39.77645
  0
VERTEX
  5
5e5
  8
Layer_0
  10
22.837115
  20
39.60098
  0
VERTEX
  5
5e6
  8
Layer_0
  10
22.822983
  20
39.393972
  0
VERTEX
  5
5e7
  8
Layer_0
  10
22.82426
  20
39.152831
  0
VERTEX
  5
5e8
  8
Layer_0
  10
22.827643
  20
38.874963
  0
VERTEX
  5
5e9
  8
Layer_0
  10
22.827644
  20
38.100445
  0
VERTEX
  5
5ea
  8
Layer_0
  10
25.16371
  20
38.100445
  0
VERTEX
  5
5eb
  8
Layer_0
  10
27.499775
  20
38.100445
  0
VERTEX
  5
5ec
  8
Layer_0
  10
27.499496
  20
37.477333
  0
VERTEX
  5
5ed
  8
Layer_0
  10
27.496925
  20
37.395663
  0
VERTEX
  5
5ee
  8
Layer_0
  10
27.489435
  20
37.280584
  0
VERTEX
  5
5ef
  8
Layer_0
  10
27.477278
  20
37.134214
  0
VERTEX
  5
5f0
  8
Layer_0
  10
27.460705
  20
36.958668
  0
VERTEX
  5
5f1
  8
Layer_0
  10
27.41532
  20
36.528523
  0
VERTEX
  5
5f2
  8
Layer_0
  10
27.35529
  20
36.007089
  0
VERTEX
  5
5f3
  8
Layer_0
  10
27.282628
  20
35.411305
  0
VERTEX
  5
5f4
  8
Layer_0
  10
27.199346
  20
34.758112
  0
VERTEX
  5
5f5
  8
Layer_0
  10
27.107455
  20
34.064449
  0
VERTEX
  5
5f6
  8
Layer_0
  10
27.008967
  20
33.347256
  0
VERTEX
  5
5f7
  8
Layer_0
  10
26.923486
  20
32.734487
  0
VERTEX
  5
5f8
  8
Layer_0
  10
26.849386
  20
32.19685
  0
VERTEX
  5
5f9
  8
Layer_0
  10
26.786652
  20
31.728699
  0
VERTEX
  5
5fa
  8
Layer_0
  10
26.735269
  20
31.324391
  0
VERTEX
  5
5fb
  8
Layer_0
  10
26.695224
  20
30.978281
  0
VERTEX
  5
5fc
  8
Layer_0
  10
26.666501
  20
30.684724
  0
VERTEX
  5
5fd
  8
Layer_0
  10
26.649085
  20
30.438078
  0
VERTEX
  5
5fe
  8
Layer_0
  10
26.642964
  20
30.232697
  0
VERTEX
  5
5ff
  8
Layer_0
  10
26.648121
  20
30.062937
  0
VERTEX
  5
600
  8
Layer_0
  10
26.664543
  20
29.923155
  0
VERTEX
  5
601
  8
Layer_0
  10
26.692215
  20
29.807705
  0
VERTEX
  5
602
  8
Layer_0
  10
26.731123
  20
29.710944
  0
VERTEX
  5
603
  8
Layer_0
  10
26.842587
  20
29.55091
  0
VERTEX
  5
604
  8
Layer_0
  10
26.998819
  20
29.3979
  0
VERTEX
  5
605
  8
Layer_0
  10
27.140235
  20
29.274657
  0
VERTEX
  5
606
  8
Layer_0
  10
27.267108
  20
29.182245
  0
VERTEX
  5
607
  8
Layer_0
  10
27.386023
  20
29.11955
  0
VERTEX
  5
608
  8
Layer_0
  10
27.503564
  20
29.085454
  0
VERTEX
  5
609
  8
Layer_0
  10
27.626315
  20
29.078843
  0
VERTEX
  5
60a
  8
Layer_0
  10
27.760863
  20
29.098602
  0
VERTEX
  5
60b
  8
Layer_0
  10
27.91379
  20
29.143614
  0
VERTEX
  5
60c
  8
Layer_0
  10
28.091683
  20
29.212765
  0
VERTEX
  5
60d
  8
Layer_0
  10
28.357895
  20
29.359147
  0
VERTEX
  5
60e
  8
Layer_0
  10
28.580243
  20
29.579397
  0
VERTEX
  5
60f
  8
Layer_0
  10
28.678372
  20
29.729459
  0
VERTEX
  5
610
  8
Layer_0
  10
28.769622
  20
29.912673
  0
VERTEX
  5
611
  8
Layer_0
  10
28.855354
  20
30.133934
  0
VERTEX
  5
612
  8
Layer_0
  10
28.936931
  20
30.398135
  0
VERTEX
  5
613
  8
Layer_0
  10
29.015714
  20
30.710172
  0
VERTEX
  5
614
  8
Layer_0
  10
29.093067
  20
31.074941
  0
VERTEX
  5
615
  8
Layer_0
  10
29.17035
  20
31.497334
  0
VERTEX
  5
616
  8
Layer_0
  10
29.248927
  20
31.982249
  0
VERTEX
  5
617
  8
Layer_0
  10
29.330159
  20
32.534578
  0
VERTEX
  5
618
  8
Layer_0
  10
29.415409
  20
33.159217
  0
VERTEX
  5
619
  8
Layer_0
  10
29.506039
  20
33.861062
  0
VERTEX
  5
61a
  8
Layer_0
  10
29.60341
  20
34.645006
  0
VERTEX
  5
61b
  8
Layer_0
  10
30.026432
  20
38.100445
  0
VERTEX
  5
61c
  8
Layer_0
  10
33.681137
  20
38.100445
  0
VERTEX
  5
61d
  8
Layer_0
  10
37.335838
  20
38.100445
  0
VERTEX
  5
61e
  8
Layer_0
  10
37.33556
  20
37.477333
  0
VERTEX
  5
61f
  8
Layer_0
  10
37.332953
  20
37.39362
  0
VERTEX
  5
620
  8
Layer_0
  10
37.325375
  20
37.27757
  0
VERTEX
  5
621
  8
Layer_0
  10
37.313114
  20
37.131279
  0
VERTEX
  5
622
  8
Layer_0
  10
37.296453
  20
36.956839
  0
VERTEX
  5
623
  8
Layer_0
  10
37.251078
  20
36.531898
  0
VERTEX
  5
624
  8
Layer_0
  10
37.191531
  20
36.019506
  0
VERTEX
  5
625
  8
Layer_0
  10
37.120094
  20
35.436425
  0
VERTEX
  5
626
  8
Layer_0
  10
37.039048
  20
34.799413
  0
VERTEX
  5
627
  8
Layer_0
  10
36.950674
  20
34.12523
  0
VERTEX
  5
628
  8
Layer_0
  10
36.857255
  20
33.430637
  0
VERTEX
  5
629
  8
Layer_0
  10
36.761071
  20
32.732392
  0
VERTEX
  5
62a
  8
Layer_0
  10
36.664404
  20
32.047257
  0
VERTEX
  5
62b
  8
Layer_0
  10
36.569535
  20
31.391992
  0
VERTEX
  5
62c
  8
Layer_0
  10
36.478747
  20
30.783354
  0
VERTEX
  5
62d
  8
Layer_0
  10
36.39432
  20
30.238106
  0
VERTEX
  5
62e
  8
Layer_0
  10
36.318536
  20
29.773006
  0
VERTEX
  5
62f
  8
Layer_0
  10
36.284598
  20
29.57575
  0
VERTEX
  5
630
  8
Layer_0
  10
36.253677
  20
29.404815
  0
VERTEX
  5
631
  8
Layer_0
  10
36.226056
  20
29.262298
  0
VERTEX
  5
632
  8
Layer_0
  10
36.202023
  20
29.150293
  0
VERTEX
  5
633
  8
Layer_0
  10
36.039813
  20
28.607524
  0
VERTEX
  5
634
  8
Layer_0
  10
35.80048
  20
28.036959
  0
VERTEX
  5
635
  8
Layer_0
  10
35.491837
  20
27.450169
  0
VERTEX
  5
636
  8
Layer_0
  10
35.121699
  20
26.858729
  0
VERTEX
  5
637
  8
Layer_0
  10
34.697879
  20
26.274212
  0
VERTEX
  5
638
  8
Layer_0
  10
34.228192
  20
25.708192
  0
VERTEX
  5
639
  8
Layer_0
  10
33.720452
  20
25.172241
  0
VERTEX
  5
63a
  8
Layer_0
  10
33.182471
  20
24.677935
  0
VERTEX
  5
63b
  8
Layer_0
  10
32.451656
  20
24.094199
  0
VERTEX
  5
63c
  8
Layer_0
  10
31.734338
  20
23.607018
  0
VERTEX
  5
63d
  8
Layer_0
  10
31.013522
  20
23.210279
  0
VERTEX
  5
63e
  8
Layer_0
  10
30.27221
  20
22.897873
  0
VERTEX
  5
63f
  8
Layer_0
  10
29.493405
  20
22.663685
  0
VERTEX
  5
640
  8
Layer_0
  10
28.660111
  20
22.501606
  0
VERTEX
  5
641
  8
Layer_0
  10
28.217719
  20
22.445697
  0
VERTEX
  5
642
  8
Layer_0
  10
27.755332
  20
22.405524
  0
VERTEX
  5
643
  8
Layer_0
  10
27.270823
  20
22.380321
  0
VERTEX
  5
644
  8
Layer_0
  10
26.762069
  20
22.369326
  0
VERTEX
  5
645
  8
Layer_0
  10
26.437153
  20
22.367839
  0
VERTEX
  5
646
  8
Layer_0
  10
26.140869
  20
22.369156
  0
VERTEX
  5
647
  8
Layer_0
  10
25.87012
  20
22.373825
  0
VERTEX
  5
648
  8
Layer_0
  10
25.621807
  20
22.382397
  0
VERTEX
  5
649
  8
Layer_0
  10
25.180097
  20
22.413444
  0
VERTEX
  5
64a
  8
Layer_0
  10
24.790953
  20
22.466695
  0
VERTEX
  5
64b
  8
Layer_0
  10
24.429588
  20
22.546543
  0
VERTEX
  5
64c
  8
Layer_0
  10
24.071215
  20
22.657385
  0
VERTEX
  5
64d
  8
Layer_0
  10
23.69105
  20
22.803616
  0
VERTEX
  5
64e
  8
Layer_0
  10
23.264304
  20
22.989632
  42
-0.19110388
  0
VERTEX
  5
64f
  8
Layer_0
  10
19.606163
  20
26.75316
  0
VERTEX
  5
650
  8
Layer_0
  10
19.457857
  20
27.132642
  0
VERTEX
  5
651
  8
Layer_0
  10
19.343279
  20
27.479005
  0
VERTEX
  5
652
  8
Layer_0
  10
19.259979
  20
27.813587
  0
VERTEX
  5
653
  8
Layer_0
  10
19.205508
  20
28.157728
  0
VERTEX
  5
654
  8
Layer_0
  10
19.177416
  20
28.532765
  0
VERTEX
  5
655
  8
Layer_0
  10
19.173254
  20
28.960036
  0
VERTEX
  5
656
  8
Layer_0
  10
19.19057
  20
29.460881
  0
VERTEX
  5
657
  8
Layer_0
  10
19.226917
  20
30.056637
  0
VERTEX
  5
658
  8
Layer_0
  10
19.294554
  20
30.906556
  0
VERTEX
  5
659
  8
Layer_0
  10
19.374297
  20
31.713193
  0
VERTEX
  5
65a
  8
Layer_0
  10
19.415597
  20
32.07182
  0
VERTEX
  5
65b
  8
Layer_0
  10
19.456191
  20
32.385472
  0
VERTEX
  5
65c
  8
Layer_0
  10
19.494835
  20
32.642766
  0
VERTEX
  5
65d
  8
Layer_0
  10
19.530283
  20
32.832317
  0
VERTEX
  5
65e
  8
Layer_0
  10
19.586321
  20
33.068604
  0
VERTEX
  5
65f
  8
Layer_0
  10
19.646583
  20
33.248083
  0
VERTEX
  5
660
  8
Layer_0
  10
19.725813
  20
33.378552
  0
VERTEX
  5
661
  8
Layer_0
  10
19.838758
  20
33.46781
  0
VERTEX
  5
662
  8
Layer_0
  10
20.000163
  20
33.523658
  0
VERTEX
  5
663
  8
Layer_0
  10
20.224774
  20
33.553893
  0
VERTEX
  5
664
  8
Layer_0
  10
20.527336
  20
33.566314
  0
VERTEX
  5
665
  8
Layer_0
  10
20.922596
  20
33.568722
  0
VERTEX
  5
666
  8
Layer_0
  10
22.152796
  20
33.568722
  0
VERTEX
  5
667
  8
Layer_0
  10
22.011499
  20
32.719025
  0
VERTEX
  5
668
  8
Layer_0
  10
21.902668
  20
32.034958
  0
VERTEX
  5
669
  8
Layer_0
  10
21.814151
  20
31.407974
  0
VERTEX
  5
66a
  8
Layer_0
  10
21.74669
  20
30.833709
  0
VERTEX
  5
66b
  8
Layer_0
  10
21.701025
  20
30.307803
  0
VERTEX
  5
66c
  8
Layer_0
  10
21.677899
  20
29.825893
  0
VERTEX
  5
66d
  8
Layer_0
  10
21.678053
  20
29.38362
  0
VERTEX
  5
66e
  8
Layer_0
  10
21.702228
  20
28.97662
  0
VERTEX
  5
66f
  8
Layer_0
  10
21.751167
  20
28.600533
  0
VERTEX
  5
670
  8
Layer_0
  10
21.825612
  20
28.250997
  0
VERTEX
  5
671
  8
Layer_0
  10
21.926302
  20
27.923651
  0
VERTEX
  5
672
  8
Layer_0
  10
22.053981
  20
27.614134
  0
VERTEX
  5
673
  8
Layer_0
  10
22.20939
  20
27.318083
  0
VERTEX
  5
674
  8
Layer_0
  10
22.39327
  20
27.031138
  0
VERTEX
  5
675
  8
Layer_0
  10
22.606364
  20
26.748937
  0
VERTEX
  5
676
  8
Layer_0
  10
22.849411
  20
26.467119
  0
VERTEX
  5
677
  8
Layer_0
  10
23.123156
  20
26.181322
  0
VERTEX
  5
678
  8
Layer_0
  10
23.579401
  20
25.773744
  0
VERTEX
  5
679
  8
Layer_0
  10
24.068693
  20
25.427211
  0
VERTEX
  5
67a
  8
Layer_0
  10
24.586912
  20
25.141428
  0
VERTEX
  5
67b
  8
Layer_0
  10
25.129939
  20
24.916103
  0
VERTEX
  5
67c
  8
Layer_0
  10
25.693655
  20
24.75094
  0
VERTEX
  5
67d
  8
Layer_0
  10
26.273942
  20
24.645645
  0
VERTEX
  5
67e
  8
Layer_0
  10
26.866679
  20
24.599926
  0
VERTEX
  5
67f
  8
Layer_0
  10
27.467749
  20
24.613487
  0
VERTEX
  5
680
  8
Layer_0
  10
28.073032
  20
24.686034
  0
VERTEX
  5
681
  8
Layer_0
  10
28.67841
  20
24.817274
  0
VERTEX
  5
682
  8
Layer_0
  10
29.279763
  20
25.006913
  0
VERTEX
  5
683
  8
Layer_0
  10
29.872973
  20
25.254657
  0
VERTEX
  5
684
  8
Layer_0
  10
30.45392
  20
25.560211
  0
VERTEX
  5
685
  8
Layer_0
  10
31.018485
  20
25.923282
  0
VERTEX
  5
686
  8
Layer_0
  10
31.56255
  20
26.343575
  0
VERTEX
  5
687
  8
Layer_0
  10
32.081996
  20
26.820797
  0
VERTEX
  5
688
  8
Layer_0
  10
32.501119
  20
27.287149
  0
VERTEX
  5
689
  8
Layer_0
  10
32.905352
  20
27.820231
  0
VERTEX
  5
68a
  8
Layer_0
  10
33.087499
  20
28.091258
  0
VERTEX
  5
68b
  8
Layer_0
  10
33.24866
  20
28.354322
  0
VERTEX
  5
68c
  8
Layer_0
  10
33.383082
  20
28.601209
  0
VERTEX
  5
68d
  8
Layer_0
  10
33.485008
  20
28.823704
  0
VERTEX
  5
68e
  8
Layer_0
  10
33.549178
  20
29.015657
  0
VERTEX
  5
68f
  8
Layer_0
  10
33.623624
  20
29.294329
  0
VERTEX
  5
690
  8
Layer_0
  10
33.706357
  20
29.647857
  0
VERTEX
  5
691
  8
Layer_0
  10
33.795387
  20
30.064378
  0
VERTEX
  5
692
  8
Layer_0
  10
33.888726
  20
30.532029
  0
VERTEX
  5
693
  8
Layer_0
  10
33.984385
  20
31.038946
  0
VERTEX
  5
694
  8
Layer_0
  10
34.080373
  20
31.573266
  0
VERTEX
  5
695
  8
Layer_0
  10
34.174703
  20
32.123127
  0
VERTEX
  5
696
  8
Layer_0
  10
34.350429
  20
33.222016
  0
VERTEX
  5
697
  8
Layer_0
  10
34.49565
  20
34.240708
  0
VERTEX
  5
698
  8
Layer_0
  10
34.551847
  20
34.690321
  0
VERTEX
  5
699
  8
Layer_0
  10
34.594452
  20
35.084296
  0
VERTEX
  5
69a
  8
Layer_0
  10
34.621473
  20
35.410769
  0
VERTEX
  5
69b
  8
Layer_0
  10
34.630922
  20
35.657877
  0
VERTEX
  5
69c
  8
Layer_0
  10
34.606558
  20
35.693373
  0
VERTEX
  5
69d
  8
Layer_0
  10
34.536729
  20
35.726488
  0
VERTEX
  5
69e
  8
Layer_0
  10
34.426332
  20
35.756497
  0
VERTEX
  5
69f
  8
Layer_0
  10
34.280264
  20
35.782675
  0
VERTEX
  5
6a0
  8
Layer_0
  10
33.900694
  20
35.820639
  0
VERTEX
  5
6a1
  8
Layer_0
  10
33.43719
  20
35.834583
  0
VERTEX
  5
6a2
  8
Layer_0
  10
32.243458
  20
35.834583
  0
VERTEX
  5
6a3
  8
Layer_0
  10
31.939449
  20
33.398781
  0
VERTEX
  5
6a4
  8
Layer_0
  10
31.832614
  20
32.579215
  0
VERTEX
  5
6a5
  8
Layer_0
  10
31.725431
  20
31.839093
  0
VERTEX
  5
6a6
  8
Layer_0
  10
31.615526
  20
31.173561
  0
VERTEX
  5
6a7
  8
Layer_0
  10
31.500523
  20
30.577767
  0
VERTEX
  5
6a8
  8
Layer_0
  10
31.378048
  20
30.046858
  0
VERTEX
  5
6a9
  8
Layer_0
  10
31.245729
  20
29.57598
  0
VERTEX
  5
6aa
  8
Layer_0
  10
31.101189
  20
29.160281
  0
VERTEX
  5
6ab
  8
Layer_0
  10
30.942057
  20
28.794907
  0
VERTEX
  5
6ac
  8
Layer_0
  10
30.765956
  20
28.475006
  0
VERTEX
  5
6ad
  8
Layer_0
  10
30.570514
  20
28.195724
  0
VERTEX
  5
6ae
  8
Layer_0
  10
30.353355
  20
27.952208
  0
VERTEX
  5
6af
  8
Layer_0
  10
30.112107
  20
27.739605
  0
VERTEX
  5
6b0
  8
Layer_0
  10
29.844394
  20
27.553062
  0
VERTEX
  5
6b1
  8
Layer_0
  10
29.547843
  20
27.387725
  0
VERTEX
  5
6b2
  8
Layer_0
  10
29.22008
  20
27.238743
  0
VERTEX
  5
6b3
  8
Layer_0
  10
28.85873
  20
27.101261
  0
VERTEX
  5
6b4
  8
Layer_0
  10
28.509644
  20
26.991779
  0
VERTEX
  5
6b5
  8
Layer_0
  10
28.163813
  20
26.909608
  0
VERTEX
  5
6b6
  8
Layer_0
  10
27.822544
  20
26.854364
  0
VERTEX
  5
6b7
  8
Layer_0
  10
27.487142
  20
26.825664
  0
VERTEX
  5
6b8
  8
Layer_0
  10
27.158912
  20
26.823124
  0
VERTEX
  5
6b9
  8
Layer_0
  10
26.839162
  20
26.84636
  0
VERTEX
  5
6ba
  8
Layer_0
  10
26.529195
  20
26.894991
  0
VERTEX
  5
6bb
  8
Layer_0
  10
26.230318
  20
26.968631
  0
VERTEX
  5
6bc
  8
Layer_0
  10
25.943837
  20
27.066897
  0
VERTEX
  5
6bd
  8
Layer_0
  10
25.671057
  20
27.189407
  0
VERTEX
  5
6be
  8
Layer_0
  10
25.413283
  20
27.335776
  0
VERTEX
  5
6bf
  8
Layer_0
  10
25.171823
  20
27.505621
  0
VERTEX
  5
6c0
  8
Layer_0
  10
24.947981
  20
27.698559
  0
VERTEX
  5
6c1
  8
Layer_0
  10
24.743062
  20
27.914206
  0
VERTEX
  5
6c2
  8
Layer_0
  10
24.558374
  20
28.152178
  0
VERTEX
  5
6c3
  8
Layer_0
  10
24.395221
  20
28.412093
  0
VERTEX
  5
6c4
  8
Layer_0
  10
24.274312
  20
28.646648
  0
VERTEX
  5
6c5
  8
Layer_0
  10
24.185761
  20
28.877889
  0
VERTEX
  5
6c6
  8
Layer_0
  10
24.128684
  20
29.131585
  0
VERTEX
  5
6c7
  8
Layer_0
  10
24.102197
  20
29.433505
  0
VERTEX
  5
6c8
  8
Layer_0
  10
24.100147
  20
29.610602
  0
VERTEX
  5
6c9
  8
Layer_0
  10
24.105414
  20
29.809418
  0
VERTEX
  5
6ca
  8
Layer_0
  10
24.117885
  20
30.033176
  0
VERTEX
  5
6cb
  8
Layer_0
  10
24.13745
  20
30.285095
  0
VERTEX
  5
6cc
  8
Layer_0
  10
24.163999
  20
30.568397
  0
VERTEX
  5
6cd
  8
Layer_0
  10
24.197422
  20
30.886303
  0
VERTEX
  5
6ce
  8
Layer_0
  10
24.237607
  20
31.242034
  0
VERTEX
  5
6cf
  8
Layer_0
  10
24.284444
  20
31.638812
  0
VERTEX
  5
6d0
  8
Layer_0
  10
24.411394
  20
32.675155
  0
VERTEX
  5
6d1
  8
Layer_0
  10
24.53595
  20
33.651476
  0
VERTEX
  5
6d2
  8
Layer_0
  10
24.592857
  20
34.082819
  0
VERTEX
  5
6d3
  8
Layer_0
  10
24.643798
  20
34.457984
  0
VERTEX
  5
6d4
  8
Layer_0
  10
24.686985
  20
34.763247
  0
VERTEX
  5
6d5
  8
Layer_0
  10
24.720627
  20
34.984885
  0
VERTEX
  5
6d6
  8
Layer_0
  10
24.857714
  20
35.834583
  0
VERTEX
  5
6d7
  8
Layer_0
  10
22.347731
  20
35.834583
  0
VERTEX
  5
6d8
  8
Layer_0
  10
19.837748
  20
35.834583
  0
VERTEX
  5
6d9
  8
Layer_0
  10
19.968561
  20
36.457695
  0
VERTEX
  5
6da
  8
Layer_0
  10
20.000333
  20
36.626798
  0
VERTEX
  5
6db
  8
Layer_0
  10
20.040598
  20
36.869488
  0
VERTEX
  5
6dc
  8
Layer_0
  10
20.087714
  20
37.174377
  0
VERTEX
  5
6dd
  8
Layer_0
  10
20.14004
  20
37.530083
  0
VERTEX
  5
6de
  8
Layer_0
  10
20.253758
  20
38.348404
  0
VERTEX
  5
6df
  8
Layer_0
  10
20.368626
  20
39.233374
  0
VERTEX
  5
6e0
  8
Layer_0
  10
20.483495
  20
40.118344
  0
VERTEX
  5
6e1
  8
Layer_0
  10
20.597213
  20
40.936665
  0
VERTEX
  5
6e2
  8
Layer_0
  10
20.649539
  20
41.292371
  0
VERTEX
  5
6e3
  8
Layer_0
  10
20.696655
  20
41.597261
  0
VERTEX
  5
6e4
  8
Layer_0
  10
20.73692
  20
41.83995
  0
VERTEX
  5
6e5
  8
Layer_0
  10
20.768693
  20
42.009054
  0
VERTEX
  5
6e6
  8
Layer_0
  10
20.899508
  20
42.632164
  0
VERTEX
  5
6e7
  8
Layer_0
  10
29.517263
  20
42.632164
  0
VERTEX
  5
6e8
  8
Layer_0
  10
38.135017
  20
42.632164
  0
VERTEX
  5
6e9
  8
Layer_0
  10
37.981331
  20
41.924084
  0
SEQEND
  0
POLYLINE
  5
6eb
  8
Layer_0
  62
7
  70
1
  66
1
  10
0
  20
0
  30
0
  0
VERTEX
  5
6eb
  8
Layer_0
  10
45.946926
  20
39.856486
  0
VERTEX
  5
6ec
  8
Layer_0
  10
45.944017
  20
39.80267
  0
VERTEX
  5
6ed
  8
Layer_0
  10
45.934574
  20
39.701381
  0
VERTEX
  5
6ee
  8
Layer_0
  10
45.918928
  20
39.55523
  0
VERTEX
  5
6ef
  8
Layer_0
  10
45.897411
  20
39.366831
  0
VERTEX
  5
6f0
  8
Layer_0
  10
45.870353
  20
39.138794
  0
VERTEX
  5
6f1
  8
Layer_0
  10
45.838086
  20
38.873733
  0
VERTEX
  5
6f2
  8
Layer_0
  10
45.800939
  20
38.574259
  0
VERTEX
  5
6f3
  8
Layer_0
  10
45.759244
  20
38.242985
  0
VERTEX
  5
6f4
  8
Layer_0
  10
45.663533
  20
37.495485
  0
VERTEX
  5
6f5
  8
Layer_0
  10
45.553599
  20
36.652131
  0
VERTEX
  5
6f6
  8
Layer_0
  10
45.432088
  20
35.733819
  0
VERTEX
  5
6f7
  8
Layer_0
  10
45.301648
  20
34.761448
  0
VERTEX
  5
6f8
  8
Layer_0
  10
45.195905
  20
33.974675
  0
VERTEX
  5
6f9
  8
Layer_0
  10
45.103467
  20
33.276342
  0
VERTEX
  5
6fa
  8
Layer_0
  10
45.024042
  20
32.660402
  0
VERTEX
  5
6fb
  8
Layer_0
  10
44.957337
  20
32.12081
  0
VERTEX
  5
6fc
  8
Layer_0
  10
44.903061
  20
31.651517
  0
VERTEX
  5
6fd
  8
Layer_0
  10
44.860923
  20
31.246477
  0
VERTEX
  5
6fe
  8
Layer_0
  10
44.83063
  20
30.899643
  0
VERTEX
  5
6ff
  8
Layer_0
  10
44.81189
  20
30.60497
  0
VERTEX
  5
700
  8
Layer_0
  10
44.804413
  20
30.356409
  0
VERTEX
  5
701
  8
Layer_0
  10
44.807905
  20
30.147914
  0
VERTEX
  5
702
  8
Layer_0
  10
44.822076
  20
29.973439
  0
VERTEX
  5
703
  8
Layer_0
  10
44.846633
  20
29.826937
  0
VERTEX
  5
704
  8
Layer_0
  10
44.925739
  20
29.593663
  0
VERTEX
  5
705
  8
Layer_0
  10
45.042888
  20
29.399718
  0
VERTEX
  5
706
  8
Layer_0
  10
45.221183
  20
29.192491
  0
VERTEX
  5
707
  8
Layer_0
  10
45.432031
  20
29.021322
  0
VERTEX
  5
708
  8
Layer_0
  10
45.670433
  20
28.885463
  0
VERTEX
  5
709
  8
Layer_0
  10
45.931391
  20
28.784167
  0
VERTEX
  5
70a
  8
Layer_0
  10
46.209907
  20
28.716684
  0
VERTEX
  5
70b
  8
Layer_0
  10
46.500982
  20
28.682268
  0
VERTEX
  5
70c
  8
Layer_0
  10
46.799618
  20
28.68017
  0
VERTEX
  5
70d
  8
Layer_0
  10
47.100815
  20
28.709642
  0
VERTEX
  5
70e
  8
Layer_0
  10
47.399576
  20
28.769938
  0
VERTEX
  5
70f
  8
Layer_0
  10
47.690901
  20
28.860308
  0
VERTEX
  5
710
  8
Layer_0
  10
47.969793
  20
28.980004
  0
VERTEX
  5
711
  8
Layer_0
  10
48.231254
  20
29.12828
  0
VERTEX
  5
712
  8
Layer_0
  10
48.470283
  20
29.304387
  0
VERTEX
  5
713
  8
Layer_0
  10
48.681883
  20
29.507577
  0
VERTEX
  5
714
  8
Layer_0
  10
48.861056
  20
29.737102
  0
VERTEX
  5
715
  8
Layer_0
  10
49.002803
  20
29.992215
  0
VERTEX
  5
716
  8
Layer_0
  10
49.039878
  20
30.08867
  0
VERTEX
  5
717
  8
Layer_0
  10
49.081145
  20
30.222782
  0
VERTEX
  5
718
  8
Layer_0
  10
49.126167
  20
30.392135
  0
VERTEX
  5
719
  8
Layer_0
  10
49.174506
  20
30.594315
  0
VERTEX
  5
71a
  8
Layer_0
  10
49.225726
  20
30.826908
  0
VERTEX
  5
71b
  8
Layer_0
  10
49.279391
  20
31.087498
  0
VERTEX
  5
71c
  8
Layer_0
  10
49.335064
  20
31.373671
  0
VERTEX
  5
71d
  8
Layer_0
  10
49.392309
  20
31.683012
  0
VERTEX
  5
71e
  8
Layer_0
  10
49.509765
  20
32.36154
  0
VERTEX
  5
71f
  8
Layer_0
  10
49.628267
  20
33.103764
  0
VERTEX
  5
720
  8
Layer_0
  10
49.744323
  20
33.890368
  0
VERTEX
  5
721
  8
Layer_0
  10
49.854438
  20
34.702032
  0
VERTEX
  5
722
  8
Layer_0
  10
49.960399
  20
35.513522
  0
VERTEX
  5
723
  8
Layer_0
  10
50.064548
  20
36.299626
  0
VERTEX
  5
724
  8
Layer_0
  10
50.164227
  20
37.041061
  0
VERTEX
  5
725
  8
Layer_0
  10
50.256779
  20
37.718544
  0
VERTEX
  5
726
  8
Layer_0
  10
50.299552
  20
38.027278
  0
VERTEX
  5
727
  8
Layer_0
  10
50.339545
  20
38.312794
  0
VERTEX
  5
728
  8
Layer_0
  10
50.376428
  20
38.57268
  0
VERTEX
  5
729
  8
Layer_0
  10
50.409867
  20
38.804527
  0
VERTEX
  5
72a
  8
Layer_0
  10
50.439531
  20
39.005924
  0
VERTEX
  5
72b
  8
Layer_0
  10
50.465087
  20
39.174461
  0
VERTEX
  5
72c
  8
Layer_0
  10
50.486202
  20
39.307728
  0
VERTEX
  5
72d
  8
Layer_0
  10
50.502545
  20
39.403314
  0
VERTEX
  5
72e
  8
Layer_0
  10
50.63681
  20
40.139717
  0
VERTEX
  5
72f
  8
Layer_0
  10
52.832638
  20
40.139717
  0
VERTEX
  5
730
  8
Layer_0
  10
55.028461
  20
40.139717
  0
VERTEX
  5
731
  8
Layer_0
  10
54.909046
  20
39.516605
  0
VERTEX
  5
732
  8
Layer_0
  10
54.893654
  20
39.42914
  0
VERTEX
  5
733
  8
Layer_0
  10
54.87236
  20
39.297051
  0
VERTEX
  5
734
  8
Layer_0
  10
54.845544
  20
39.123029
  0
VERTEX
  5
735
  8
Layer_0
  10
54.813587
  20
38.909765
  0
VERTEX
  5
736
  8
Layer_0
  10
54.776869
  20
38.659949
  0
VERTEX
  5
737
  8
Layer_0
  10
54.73577
  20
38.376272
  0
VERTEX
  5
738
  8
Layer_0
  10
54.69067
  20
38.061424
  0
VERTEX
  5
739
  8
Layer_0
  10
54.641949
  20
37.718095
  0
VERTEX
  5
73a
  8
Layer_0
  10
54.535168
  20
36.956758
  0
VERTEX
  5
73b
  8
Layer_0
  10
54.418466
  20
36.113785
  0
VERTEX
  5
73c
  8
Layer_0
  10
54.294886
  20
35.210698
  0
VERTEX
  5
73d
  8
Layer_0
  10
54.167469
  20
34.26902
  0
VERTEX
  5
73e
  8
Layer_0
  10
54.03711
  20
33.322546
  0
VERTEX
  5
73f
  8
Layer_0
  10
53.912193
  20
32.468648
  0
VERTEX
  5
740
  8
Layer_0
  10
53.790382
  20
31.700752
  0
VERTEX
  5
741
  8
Layer_0
  10
53.669344
  20
31.012284
  0
VERTEX
  5
742
  8
Layer_0
  10
53.546743
  20
30.396669
  0
VERTEX
  5
743
  8
Layer_0
  10
53.420244
  20
29.847334
  0
VERTEX
  5
744
  8
Layer_0
  10
53.287514
  20
29.357704
  0
VERTEX
  5
745
  8
Layer_0
  10
53.146217
  20
28.921206
  0
VERTEX
  5
746
  8
Layer_0
  10
52.994019
  20
28.531264
  0
VERTEX
  5
747
  8
Layer_0
  10
52.828584
  20
28.181305
  0
VERTEX
  5
748
  8
Layer_0
  10
52.647579
  20
27.864755
  0
VERTEX
  5
749
  8
Layer_0
  10
52.448668
  20
27.575039
  0
VERTEX
  5
74a
  8
Layer_0
  10
52.229517
  20
27.305583
  0
VERTEX
  5
74b
  8
Layer_0
  10
51.987792
  20
27.049813
  0
VERTEX
  5
74c
  8
Layer_0
  10
51.721156
  20
26.801154
  0
VERTEX
  5
74d
  8
Layer_0
  10
51.427277
  20
26.553033
  0
VERTEX
  5
74e
  8
Layer_0
  10
50.901783
  20
26.162886
  0
VERTEX
  5
74f
  8
Layer_0
  10
50.356905
  20
25.831262
  0
VERTEX
  5
750
  8
Layer_0
  10
49.786363
  20
25.5562
  0
VERTEX
  5
751
  8
Layer_0
  10
49.183879
  20
25.335738
  0
VERTEX
  5
752
  8
Layer_0
  10
48.543172
  20
25.167914
  0
VERTEX
  5
753
  8
Layer_0
  10
47.857962
  20
25.050768
  0
VERTEX
  5
754
  8
Layer_0
  10
47.121971
  20
24.982339
  0
VERTEX
  5
755
  8
Layer_0
  10
46.328919
  20
24.960664
  0
VERTEX
  5
756
  8
Layer_0
  10
45.764263
  20
24.976865
  0
VERTEX
  5
757
  8
Layer_0
  10
45.222702
  20
25.023643
  0
VERTEX
  5
758
  8
Layer_0
  10
44.705093
  20
25.100461
  0
VERTEX
  5
759
  8
Layer_0
  10
44.212292
  20
25.206783
  0
VERTEX
  5
75a
  8
Layer_0
  10
43.745156
  20
25.342071
  0
VERTEX
  5
75b
  8
Layer_0
  10
43.30454
  20
25.505787
  0
VERTEX
  5
75c
  8
Layer_0
  10
42.891302
  20
25.697396
  0
VERTEX
  5
75d
  8
Layer_0
  10
42.506297
  20
25.916359
  0
VERTEX
  5
75e
  8
Layer_0
  10
42.150381
  20
26.162139
  0
VERTEX
  5
75f
  8
Layer_0
  10
41.824412
  20
26.4342
  0
VERTEX
  5
760
  8
Layer_0
  10
41.529246
  20
26.732004
  0
VERTEX
  5
761
  8
Layer_0
  10
41.265738
  20
27.055014
  0
VERTEX
  5
762
  8
Layer_0
  10
41.034746
  20
27.402692
  0
VERTEX
  5
763
  8
Layer_0
  10
40.837125
  20
27.774503
  0
VERTEX
  5
764
  8
Layer_0
  10
40.673732
  20
28.169908
  0
VERTEX
  5
765
  8
Layer_0
  10
40.545424
  20
28.58837
  0
VERTEX
  5
766
  8
Layer_0
  10
40.480927
  20
28.918732
  0
VERTEX
  5
767
  8
Layer_0
  10
40.445486
  20
29.319699
  0
VERTEX
  5
768
  8
Layer_0
  10
40.43926
  20
29.555941
  0
VERTEX
  5
769
  8
Layer_0
  10
40.441016
  20
29.820973
  0
VERTEX
  5
76a
  8
Layer_0
  10
40.450993
  20
30.118508
  0
VERTEX
  5
76b
  8
Layer_0
  10
40.46943
  20
30.452259
  0
VERTEX
  5
76c
  8
Layer_0
  10
40.496567
  20
30.825939
  0
VERTEX
  5
76d
  8
Layer_0
  10
40.532642
  20
31.24326
  0
VERTEX
  5
76e
  8
Layer_0
  10
40.577895
  20
31.707936
  0
VERTEX
  5
76f
  8
Layer_0
  10
40.632565
  20
32.22368
  0
VERTEX
  5
770
  8
Layer_0
  10
40.696891
  20
32.794205
  0
VERTEX
  5
771
  8
Layer_0
  10
40.771113
  20
33.423223
  0
VERTEX
  5
772
  8
Layer_0
  10
40.855469
  20
34.114448
  0
VERTEX
  5
773
  8
Layer_0
  10
40.950199
  20
34.871592
  0
VERTEX
  5
774
  8
Layer_0
  10
41.615894
  20
40.139717
  0
VERTEX
  5
775
  8
Layer_0
  10
43.779148
  20
40.139717
  0
VERTEX
  5
776
  8
Layer_0
  10
44.321272
  20
40.135949
  0
VERTEX
  5
777
  8
Layer_0
  10
44.777321
  20
40.124265
  0
VERTEX
  5
778
  8
Layer_0
  10
45.151598
  20
40.104104
  0
VERTEX
  5
779
  8
Layer_0
  10
45.448403
  20
40.074905
  0
VERTEX
  5
77a
  8
Layer_0
  10
45.672037
  20
40.036106
  0
VERTEX
  5
77b
  8
Layer_0
  10
45.826802
  20
39.987144
  0
VERTEX
  5
77c
  8
Layer_0
  10
45.916998
  20
39.927458
  0
SEQEND
  0
POLYLINE
  5
77e
  8
Layer_0
  62
7
  70
1
  66
1
  10
0
  20
0
  30
0
  0
VERTEX
  5
77e
  8
Layer_0
  10
63.604729
  20
36.280995
  0
VERTEX
  5
77f
  8
Layer_0
  10
64.266824
  20
35.509687
  0
VERTEX
  5
780
  8
Layer_0
  10
64.891839
  20
34.794303
  0
VERTEX
  5
781
  8
Layer_0
  10
65.186003
  20
34.462382
  0
VERTEX
  5
782
  8
Layer_0
  10
65.465569
  20
34.150201
  0
VERTEX
  5
783
  8
Layer_0
  10
65.728764
  20
33.859681
  0
VERTEX
  5
784
  8
Layer_0
  10
65.973811
  20
33.592742
  0
VERTEX
  5
785
  8
Layer_0
  10
66.198934
  20
33.351302
  0
VERTEX
  5
786
  8
Layer_0
  10
66.402359
  20
33.137281
  0
VERTEX
  5
787
  8
Layer_0
  10
66.58231
  20
32.952601
  0
VERTEX
  5
788
  8
Layer_0
  10
66.737011
  20
32.799179
  0
VERTEX
  5
789
  8
Layer_0
  10
66.864687
  20
32.678937
  0
VERTEX
  5
78a
  8
Layer_0
  10
66.963562
  20
32.593793
  0
VERTEX
  5
78b
  8
Layer_0
  10
67.031861
  20
32.545668
  0
VERTEX
  5
78c
  8
Layer_0
  10
67.067809
  20
32.536482
  0
VERTEX
  5
78d
  8
Layer_0
  10
67.089145
  20
32.566719
  0
VERTEX
  5
78e
  8
Layer_0
  10
67.114573
  20
32.634269
  0
VERTEX
  5
78f
  8
Layer_0
  10
67.143762
  20
32.737155
  0
VERTEX
  5
790
  8
Layer_0
  10
67.176381
  20
32.8734
  0
VERTEX
  5
791
  8
Layer_0
  10
67.212096
  20
33.041029
  0
VERTEX
  5
792
  8
Layer_0
  10
67.250577
  20
33.238066
  0
VERTEX
  5
793
  8
Layer_0
  10
67.291493
  20
33.462533
  0
VERTEX
  5
794
  8
Layer_0
  10
67.334511
  20
33.712455
  0
VERTEX
  5
795
  8
Layer_0
  10
67.425529
  20
34.280759
  0
VERTEX
  5
796
  8
Layer_0
  10
67.520979
  20
34.927168
  0
VERTEX
  5
797
  8
Layer_0
  10
67.618207
  20
35.635871
  0
VERTEX
  5
798
  8
Layer_0
  10
67.714561
  20
36.391059
  0
VERTEX
  5
799
  8
Layer_0
  10
68.175323
  20
40.139717
  0
VERTEX
  5
79a
  8
Layer_0
  10
70.337555
  20
40.139717
  0
VERTEX
  5
79b
  8
Layer_0
  10
70.879694
  20
40.135954
  0
VERTEX
  5
79c
  8
Layer_0
  10
71.335581
  20
40.124284
  0
VERTEX
  5
79d
  8
Layer_0
  10
71.709547
  20
40.10414
  0
VERTEX
  5
79e
  8
Layer_0
  10
72.005923
  20
40.074957
  0
VERTEX
  5
79f
  8
Layer_0
  10
72.229042
  20
40.036167
  0
VERTEX
  5
7a0
  8
Layer_0
  10
72.383236
  20
39.987203
  0
VERTEX
  5
7a1
  8
Layer_0
  10
72.472837
  20
39.927498
  0
VERTEX
  5
7a2
  8
Layer_0
  10
72.502176
  20
39.856486
  0
VERTEX
  5
7a3
  8
Layer_0
  10
72.497553
  20
39.779537
  0
VERTEX
  5
7a4
  8
Layer_0
  10
72.483401
  20
39.632708
  0
VERTEX
  5
7a5
  8
Layer_0
  10
72.46033
  20
39.42063
  0
VERTEX
  5
7a6
  8
Layer_0
  10
72.428946
  20
39.14793
  0
VERTEX
  5
7a7
  8
Layer_0
  10
72.389858
  20
38.819238
  0
VERTEX
  5
7a8
  8
Layer_0
  10
72.343673
  20
38.439184
  0
VERTEX
  5
7a9
  8
Layer_0
  10
72.291
  20
38.012396
  0
VERTEX
  5
7aa
  8
Layer_0
  10
72.232445
  20
37.543504
  0
VERTEX
  5
7ab
  8
Layer_0
  10
72.168617
  20
37.037137
  0
VERTEX
  5
7ac
  8
Layer_0
  10
72.100123
  20
36.497925
  0
VERTEX
  5
7ad
  8
Layer_0
  10
72.027571
  20
35.930496
  0
VERTEX
  5
7ae
  8
Layer_0
  10
71.951569
  20
35.33948
  0
VERTEX
  5
7af
  8
Layer_0
  10
71.791646
  20
34.105203
  0
VERTEX
  5
7b0
  8
Layer_0
  10
71.625216
  20
32.832128
  0
VERTEX
  5
7b1
  8
Layer_0
  10
71.45714
  20
31.557288
  0
VERTEX
  5
7b2
  8
Layer_0
  10
71.292281
  20
30.317719
  0
VERTEX
  5
7b3
  8
Layer_0
  10
71.212577
  20
29.722733
  0
VERTEX
  5
7b4
  8
Layer_0
  10
71.1355
  20
29.150452
  0
VERTEX
  5
7b5
  8
Layer_0
  10
71.061659
  20
28.605506
  0
VERTEX
  5
7b6
  8
Layer_0
  10
70.99166
  20
28.092523
  0
VERTEX
  5
7b7
  8
Layer_0
  10
70.926113
  20
27.616133
  0
VERTEX
  5
7b8
  8
Layer_0
  10
70.865623
  20
27.180965
  0
VERTEX
  5
7b9
  8
Layer_0
  10
70.810801
  20
26.791648
  0
VERTEX
  5
7ba
  8
Layer_0
  10
70.762252
  20
26.452811
  0
VERTEX
  5
7bb
  8
Layer_0
  10
70.720584
  20
26.169084
  0
VERTEX
  5
7bc
  8
Layer_0
  10
70.686406
  20
25.945097
  0
VERTEX
  5
7bd
  8
Layer_0
  10
70.660326
  20
25.785477
  0
VERTEX
  5
7be
  8
Layer_0
  10
70.64295
  20
25.694854
  0
VERTEX
  5
7bf
  8
Layer_0
  10
70.597842
  20
25.539923
  0
VERTEX
  5
7c0
  8
Layer_0
  10
70.534785
  20
25.419893
  0
VERTEX
  5
7c1
  8
Layer_0
  10
70.439699
  20
25.330487
  0
VERTEX
  5
7c2
  8
Layer_0
  10
70.298502
  20
25.267429
  0
VERTEX
  5
7c3
  8
Layer_0
  10
70.097114
  20
25.226444
  0
VERTEX
  5
7c4
  8
Layer_0
  10
69.821454
  20
25.203254
  0
VERTEX
  5
7c5
  8
Layer_0
  10
69.651371
  20
25.196996
  0
VERTEX
  5
7c6
  8
Layer_0
  10
69.457441
  20
25.193584
  0
VERTEX
  5
7c7
  8
Layer_0
  10
69.237901
  20
25.192482
  0
VERTEX
  5
7c8
  8
Layer_0
  10
68.990994
  20
25.193157
  0
VERTEX
  5
7c9
  8
Layer_0
  10
67.458794
  20
25.201279
  0
VERTEX
  5
7ca
  8
Layer_0
  10
64.139122
  20
29.131374
  0
VERTEX
  5
7cb
  8
Layer_0
  10
63.471289
  20
29.920113
  0
VERTEX
  5
7cc
  8
Layer_0
  10
62.846373
  20
30.654517
  0
VERTEX
  5
7cd
  8
Layer_0
  10
62.554323
  20
30.996353
  0
VERTEX
  5
7ce
  8
Layer_0
  10
62.278182
  20
31.318615
  0
VERTEX
  5
7cf
  8
Layer_0
  10
62.019675
  20
31.619308
  0
VERTEX
  5
7d0
  8
Layer_0
  10
61.780529
  20
31.896435
  0
VERTEX
  5
7d1
  8
Layer_0
  10
61.562471
  20
32.147999
  0
VERTEX
  5
7d2
  8
Layer_0
  10
61.367227
  20
32.372004
  0
VERTEX
  5
7d3
  8
Layer_0
  10
61.196524
  20
32.566453
  0
VERTEX
  5
7d4
  8
Layer_0
  10
61.052088
  20
32.729351
  0
VERTEX
  5
7d5
  8
Layer_0
  10
60.935646
  20
32.858699
  0
VERTEX
  5
7d6
  8
Layer_0
  10
60.848924
  20
32.952503
  0
VERTEX
  5
7d7
  8
Layer_0
  10
60.793648
  20
33.008766
  0
VERTEX
  5
7d8
  8
Layer_0
  10
60.771547
  20
33.02549
  0
VERTEX
  5
7d9
  8
Layer_0
  10
60.763247
  20
33.000954
  0
VERTEX
  5
7da
  8
Layer_0
  10
60.749806
  20
32.937463
  0
VERTEX
  5
7db
  8
Layer_0
  10
60.731578
  20
32.837546
  0
VERTEX
  5
7dc
  8
Layer_0
  10
60.708919
  20
32.703735
  0
VERTEX
  5
7dd
  8
Layer_0
  10
60.682181
  20
32.53856
  0
VERTEX
  5
7de
  8
Layer_0
  10
60.65172
  20
32.34455
  0
VERTEX
  5
7df
  8
Layer_0
  10
60.617889
  20
32.124236
  0
VERTEX
  5
7e0
  8
Layer_0
  10
60.581044
  20
31.880148
  0
VERTEX
  5
7e1
  8
Layer_0
  10
60.499724
  20
31.33077
  0
VERTEX
  5
7e2
  8
Layer_0
  10
60.410596
  20
30.716658
  0
VERTEX
  5
7e3
  8
Layer_0
  10
60.316493
  20
30.058053
  0
VERTEX
  5
7e4
  8
Layer_0
  10
60.22025
  20
29.375197
  0
VERTEX
  5
7e5
  8
Layer_0
  10
60.1247
  20
28.688332
  0
VERTEX
  5
7e6
  8
Layer_0
  10
60.032679
  20
28.017697
  0
VERTEX
  5
7e7
  8
Layer_0
  10
59.94702
  20
27.383536
  0
VERTEX
  5
7e8
  8
Layer_0
  10
59.870558
  20
26.806088
  0
VERTEX
  5
7e9
  8
Layer_0
  10
59.806127
  20
26.305596
  0
VERTEX
  5
7ea
  8
Layer_0
  10
59.756561
  20
25.902302
  0
VERTEX
  5
7eb
  8
Layer_0
  10
59.738239
  20
25.743429
  0
VERTEX
  5
7ec
  8
Layer_0
  10
59.724695
  20
25.616445
  0
VERTEX
  5
7ed
  8
Layer_0
  10
59.716285
  20
25.523882
  0
VERTEX
  5
7ee
  8
Layer_0
  10
59.713362
  20
25.468268
  0
VERTEX
  5
7ef
  8
Layer_0
  10
59.683812
  20
25.397018
  0
VERTEX
  5
7f0
  8
Layer_0
  10
59.592285
  20
25.337202
  0
VERTEX
  5
7f1
  8
Layer_0
  10
59.434075
  20
25.288223
  0
VERTEX
  5
7f2
  8
Layer_0
  10
59.204481
  20
25.249486
  0
VERTEX
  5
7f3
  8
Layer_0
  10
58.898796
  20
25.220395
  0
VERTEX
  5
7f4
  8
Layer_0
  10
58.512317
  20
25.200354
  0
VERTEX
  5
7f5
  8
Layer_0
  10
58.040341
  20
25.188766
  0
VERTEX
  5
7f6
  8
Layer_0
  10
57.478162
  20
25.185036
  0
VERTEX
  5
7f7
  8
Layer_0
  10
55.243431
  20
25.185036
  0
VERTEX
  5
7f8
  8
Layer_0
  10
55.387245
  20
26.034733
  0
VERTEX
  5
7f9
  8
Layer_0
  10
55.404605
  20
26.145199
  0
VERTEX
  5
7fa
  8
Layer_0
  10
55.430692
  20
26.322422
  0
VERTEX
  5
7fb
  8
Layer_0
  10
55.464901
  20
26.561839
  0
VERTEX
  5
7fc
  8
Layer_0
  10
55.506622
  20
26.858884
  0
VERTEX
  5
7fd
  8
Layer_0
  10
55.555247
  20
27.208991
  0
VERTEX
  5
7fe
  8
Layer_0
  10
55.610168
  20
27.607594
  0
VERTEX
  5
7ff
  8
Layer_0
  10
55.670775
  20
28.050128
  0
VERTEX
  5
800
  8
Layer_0
  10
55.736461
  20
28.532027
  0
VERTEX
  5
801
  8
Layer_0
  10
55.806616
  20
29.048727
  0
VERTEX
  5
802
  8
Layer_0
  10
55.880631
  20
29.59566
  0
VERTEX
  5
803
  8
Layer_0
  10
55.957899
  20
30.168263
  0
VERTEX
  5
804
  8
Layer_0
  10
56.03781
  20
30.761968
  0
VERTEX
  5
805
  8
Layer_0
  10
56.203129
  20
31.994426
  0
VERTEX
  5
806
  8
Layer_0
  10
56.371718
  20
33.25651
  0
VERTEX
  5
807
  8
Layer_0
  10
56.538709
  20
34.511695
  0
VERTEX
  5
808
  8
Layer_0
  10
56.699232
  20
35.723457
  0
VERTEX
  5
809
  8
Layer_0
  10
56.775546
  20
36.30164
  0
VERTEX
  5
80a
  8
Layer_0
  10
56.848417
  20
36.855271
  0
VERTEX
  5
80b
  8
Layer_0
  10
56.917237
  20
37.379784
  0
VERTEX
  5
80c
  8
Layer_0
  10
56.981397
  20
37.870613
  0
VERTEX
  5
80d
  8
Layer_0
  10
57.040288
  20
38.323193
  0
VERTEX
  5
80e
  8
Layer_0
  10
57.093302
  20
38.732958
  0
VERTEX
  5
80f
  8
Layer_0
  10
57.139829
  20
39.095342
  0
VERTEX
  5
810
  8
Layer_0
  10
57.179262
  20
39.405781
  0
VERTEX
  5
811
  8
Layer_0
  10
57.210991
  20
39.659709
  0
VERTEX
  5
812
  8
Layer_0
  10
57.234409
  20
39.852559
  0
VERTEX
  5
813
  8
Layer_0
  10
57.248906
  20
39.979767
  0
VERTEX
  5
814
  8
Layer_0
  10
57.253873
  20
40.036767
  0
VERTEX
  5
815
  8
Layer_0
  10
57.285241
  20
40.057362
  0
VERTEX
  5
816
  8
Layer_0
  10
57.375143
  20
40.076413
  0
VERTEX
  5
817
  8
Layer_0
  10
57.517275
  20
40.093513
  0
VERTEX
  5
818
  8
Layer_0
  10
57.705333
  20
40.108258
  0
VERTEX
  5
819
  8
Layer_0
  10
57.933014
  20
40.120241
  0
VERTEX
  5
81a
  8
Layer_0
  10
58.194015
  20
40.129058
  0
VERTEX
  5
81b
  8
Layer_0
  10
58.48203
  20
40.134304
  0
VERTEX
  5
81c
  8
Layer_0
  10
58.790758
  20
40.135573
  0
VERTEX
  5
81d
  8
Layer_0
  10
60.327641
  20
40.131428
  0
VERTEX
  5
81e
  8
Layer_0
  10
63.604729
  20
36.280994
  0
SEQEND
  0
POLYLINE
  5
820
  8
Layer_0
  62
7
  70
1
  66
1
  10
0
  20
0
  30
0
  0
VERTEX
  5
820
  8
Layer_0
  10
79.150016
  20
39.856486
  0
VERTEX
  5
821
  8
Layer_0
  10
79.146313
  20
39.790311
  0
VERTEX
  5
822
  8
Layer_0
  10
79.133271
  20
39.652758
  0
VERTEX
  5
823
  8
Layer_0
  10
79.11136
  20
39.44766
  0
VERTEX
  5
824
  8
Layer_0
  10
79.081049
  20
39.178852
  0
VERTEX
  5
825
  8
Layer_0
  10
79.042808
  20
38.850166
  0
VERTEX
  5
826
  8
Layer_0
  10
78.997108
  20
38.465437
  0
VERTEX
  5
827
  8
Layer_0
  10
78.944418
  20
38.028498
  0
VERTEX
  5
828
  8
Layer_0
  10
78.885209
  20
37.543183
  0
VERTEX
  5
829
  8
Layer_0
  10
78.81995
  20
37.013325
  0
VERTEX
  5
82a
  8
Layer_0
  10
78.749112
  20
36.442758
  0
VERTEX
  5
82b
  8
Layer_0
  10
78.673164
  20
35.835315
  0
VERTEX
  5
82c
  8
Layer_0
  10
78.592577
  20
35.19483
  0
VERTEX
  5
82d
  8
Layer_0
  10
78.419365
  20
33.83007
  0
VERTEX
  5
82e
  8
Layer_0
  10
78.233235
  20
32.379144
  0
VERTEX
  5
82f
  8
Layer_0
  10
77.30555
  20
25.185036
  0
VERTEX
  5
830
  8
Layer_0
  10
75.14856
  20
25.185036
  0
VERTEX
  5
831
  8
Layer_0
  10
74.840699
  20
25.185846
  0
VERTEX
  5
832
  8
Layer_0
  10
74.561718
  20
25.188403
  0
VERTEX
  5
833
  8
Layer_0
  10
74.310374
  20
25.192897
  0
VERTEX
  5
834
  8
Layer_0
  10
74.08542
  20
25.199517
  0
VERTEX
  5
835
  8
Layer_0
  10
73.709712
  20
25.219895
  0
VERTEX
  5
836
  8
Layer_0
  10
73.424637
  20
25.251054
  0
VERTEX
  5
837
  8
Layer_0
  10
73.220241
  20
25.294513
  0
VERTEX
  5
838
  8
Layer_0
  10
73.08657
  20
25.351789
  0
VERTEX
  5
839
  8
Layer_0
  10
73.013667
  20
25.424399
  0
VERTEX
  5
83a
  8
Layer_0
  10
72.991578
  20
25.513861
  0
VERTEX
  5
83b
  8
Layer_0
  10
72.996497
  20
25.595336
  0
VERTEX
  5
83c
  8
Layer_0
  10
73.01085
  20
25.745766
  0
VERTEX
  5
83d
  8
Layer_0
  10
73.034038
  20
25.960576
  0
VERTEX
  5
83e
  8
Layer_0
  10
73.06546
  20
26.235191
  0
VERTEX
  5
83f
  8
Layer_0
  10
73.104513
  20
26.565036
  0
VERTEX
  5
840
  8
Layer_0
  10
73.150596
  20
26.945536
  0
VERTEX
  5
841
  8
Layer_0
  10
73.203109
  20
27.372115
  0
VERTEX
  5
842
  8
Layer_0
  10
73.261449
  20
27.840198
  0
VERTEX
  5
843
  8
Layer_0
  10
73.325017
  20
28.345211
  0
VERTEX
  5
844
  8
Layer_0
  10
73.39321
  20
28.882577
  0
VERTEX
  5
845
  8
Layer_0
  10
73.465426
  20
29.447721
  0
VERTEX
  5
846
  8
Layer_0
  10
73.541066
  20
30.036069
  0
VERTEX
  5
847
  8
Layer_0
  10
73.700209
  20
31.264075
  0
VERTEX
  5
848
  8
Layer_0
  10
73.865828
  20
32.529991
  0
VERTEX
  5
849
  8
Layer_0
  10
74.033113
  20
33.797216
  0
VERTEX
  5
84a
  8
Layer_0
  10
74.197254
  20
35.029148
  0
VERTEX
  5
84b
  8
Layer_0
  10
74.276642
  20
35.620442
  0
VERTEX
  5
84c
  8
Layer_0
  10
74.35344
  20
36.189187
  0
VERTEX
  5
84d
  8
Layer_0
  10
74.427047
  20
36.730807
  0
VERTEX
  5
84e
  8
Layer_0
  10
74.496862
  20
37.240728
  0
VERTEX
  5
84f
  8
Layer_0
  10
74.562283
  20
37.714375
  0
VERTEX
  5
850
  8
Layer_0
  10
74.622709
  20
38.147172
  0
VERTEX
  5
851
  8
Layer_0
  10
74.677539
  20
38.534545
  0
VERTEX
  5
852
  8
Layer_0
  10
74.726171
  20
38.871917
  0
VERTEX
  5
853
  8
Layer_0
  10
74.768005
  20
39.154714
  0
VERTEX
  5
854
  8
Layer_0
  10
74.802438
  20
39.37836
  0
VERTEX
  5
855
  8
Layer_0
  10
74.82887
  20
39.53828
  0
VERTEX
  5
856
  8
Layer_0
  10
74.846699
  20
39.6299
  0
VERTEX
  5
857
  8
Layer_0
  10
74.893844
  20
39.789569
  0
VERTEX
  5
858
  8
Layer_0
  10
74.963742
  20
39.911987
  0
VERTEX
  5
859
  8
Layer_0
  10
75.077691
  20
40.002072
  0
VERTEX
  5
85a
  8
Layer_0
  10
75.256989
  20
40.064745
  0
VERTEX
  5
85b
  8
Layer_0
  10
75.3778
  20
40.08734
  0
VERTEX
  5
85c
  8
Layer_0
  10
75.522935
  20
40.104926
  0
VERTEX
  5
85d
  8
Layer_0
  10
75.695056
  20
40.11812
  0
VERTEX
  5
85e
  8
Layer_0
  10
75.896826
  20
40.127535
  0
VERTEX
  5
85f
  8
Layer_0
  10
76.130907
  20
40.133788
  0
VERTEX
  5
860
  8
Layer_0
  10
76.399961
  20
40.137493
  0
VERTEX
  5
861
  8
Layer_0
  10
76.706651
  20
40.139265
  0
VERTEX
  5
862
  8
Layer_0
  10
77.053638
  20
40.139719
  0
VERTEX
  5
863
  8
Layer_0
  10
77.573668
  20
40.135896
  0
VERTEX
  5
864
  8
Layer_0
  10
78.012333
  20
40.124085
  0
VERTEX
  5
865
  8
Layer_0
  10
78.373461
  20
40.103768
  0
VERTEX
  5
866
  8
Layer_0
  10
78.66088
  20
40.074427
  0
VERTEX
  5
867
  8
Layer_0
  10
78.878417
  20
40.035545
  0
VERTEX
  5
868
  8
Layer_0
  10
79.0299
  20
39.986606
  0
VERTEX
  5
869
  8
Layer_0
  10
79.119157
  20
39.927092
  0
SEQEND
  0
POLYLINE
  5
86b
  8
Layer_0
  62
7
  70
1
  66
1
  10
0
  20
0
  30
0
  0
VERTEX
  5
86b
  8
Layer_0
  10
91.308309
  20
38.496969
  0
VERTEX
  5
86c
  8
Layer_0
  10
91.231401
  20
37.845711
  0
VERTEX
  5
86d
  8
Layer_0
  10
91.151959
  20
37.286858
  0
VERTEX
  5
86e
  8
Layer_0
  10
91.114215
  20
37.06067
  0
VERTEX
  5
86f
  8
Layer_0
  10
91.079349
  20
36.879888
  0
VERTEX
  5
870
  8
Layer_0
  10
91.048532
  20
36.751947
  0
VERTEX
  5
871
  8
Layer_0
  10
91.022935
  20
36.68428
  0
VERTEX
  5
872
  8
Layer_0
  10
90.968827
  20
36.650143
  0
VERTEX
  5
873
  8
Layer_0
  10
90.856297
  20
36.618296
  0
VERTEX
  5
874
  8
Layer_0
  10
90.692246
  20
36.589436
  0
VERTEX
  5
875
  8
Layer_0
  10
90.483574
  20
36.56426
  0
VERTEX
  5
876
  8
Layer_0
  10
89.959964
  20
36.52775
  0
VERTEX
  5
877
  8
Layer_0
  10
89.340668
  20
36.514341
  0
VERTEX
  5
878
  8
Layer_0
  10
87.767967
  20
36.514339
  0
VERTEX
  5
879
  8
Layer_0
  10
87.634567
  20
35.777935
  0
VERTEX
  5
87a
  8
Layer_0
  10
87.616643
  20
35.671796
  0
VERTEX
  5
87b
  8
Layer_0
  10
87.593003
  20
35.520306
  0
VERTEX
  5
87c
  8
Layer_0
  10
87.564059
  20
35.326597
  0
VERTEX
  5
87d
  8
Layer_0
  10
87.530224
  20
35.093799
  0
VERTEX
  5
87e
  8
Layer_0
  10
87.491909
  20
34.825043
  0
VERTEX
  5
87f
  8
Layer_0
  10
87.449528
  20
34.523459
  0
VERTEX
  5
880
  8
Layer_0
  10
87.403492
  20
34.192178
  0
VERTEX
  5
881
  8
Layer_0
  10
87.354213
  20
33.834331
  0
VERTEX
  5
882
  8
Layer_0
  10
87.247575
  20
33.051458
  0
VERTEX
  5
883
  8
Layer_0
  10
87.132912
  20
32.199883
  0
VERTEX
  5
884
  8
Layer_0
  10
87.013521
  20
31.304651
  0
VERTEX
  5
885
  8
Layer_0
  10
86.892699
  20
30.390806
  0
VERTEX
  5
886
  8
Layer_0
  10
86.773743
  20
29.483391
  0
VERTEX
  5
887
  8
Layer_0
  10
86.659951
  20
28.60745
  0
VERTEX
  5
888
  8
Layer_0
  10
86.554619
  20
27.788026
  0
VERTEX
  5
889
  8
Layer_0
  10
86.461045
  20
27.050165
  0
VERTEX
  5
88a
  8
Layer_0
  10
86.419697
  20
26.719646
  0
VERTEX
  5
88b
  8
Layer_0
  10
86.382525
  20
26.418909
  0
VERTEX
  5
88c
  8
Layer_0
  10
86.349941
  20
26.151085
  0
VERTEX
  5
88d
  8
Layer_0
  10
86.322358
  20
25.919303
  0
VERTEX
  5
88e
  8
Layer_0
  10
86.300186
  20
25.726695
  0
VERTEX
  5
88f
  8
Layer_0
  10
86.283839
  20
25.57639
  0
VERTEX
  5
890
  8
Layer_0
  10
86.273729
  20
25.47152
  0
VERTEX
  5
891
  8
Layer_0
  10
86.270267
  20
25.415214
  0
VERTEX
  5
892
  8
Layer_0
  10
86.229579
  20
25.365427
  0
VERTEX
  5
893
  8
Layer_0
  10
86.110813
  20
25.320625
  0
VERTEX
  5
894
  8
Layer_0
  10
85.918914
  20
25.281317
  0
VERTEX
  5
895
  8
Layer_0
  10
85.658829
  20
25.248015
  0
VERTEX
  5
896
  8
Layer_0
  10
85.335503
  20
25.221225
  0
VERTEX
  5
897
  8
Layer_0
  10
84.953882
  20
25.20146
  0
VERTEX
  5
898
  8
Layer_0
  10
84.518912
  20
25.189227
  0
VERTEX
  5
899
  8
Layer_0
  10
84.03554
  20
25.185036
  0
VERTEX
  5
89a
  8
Layer_0
  10
81.800812
  20
25.185036
  0
VERTEX
  5
89b
  8
Layer_0
  10
81.945625
  20
26.034733
  0
VERTEX
  5
89c
  8
Layer_0
  10
81.961819
  20
26.135706
  0
VERTEX
  5
89d
  8
Layer_0
  10
81.984006
  20
26.28325
  0
VERTEX
  5
89e
  8
Layer_0
  10
82.011757
  20
26.474146
  0
VERTEX
  5
89f
  8
Layer_0
  10
82.044646
  20
26.705175
  0
VERTEX
  5
8a0
  8
Layer_0
  10
82.082246
  20
26.973119
  0
VERTEX
  5
8a1
  8
Layer_0
  10
82.12413
  20
27.274759
  0
VERTEX
  5
8a2
  8
Layer_0
  10
82.169872
  20
27.606876
  0
VERTEX
  5
8a3
  8
Layer_0
  10
82.219045
  20
27.966252
  0
VERTEX
  5
8a4
  8
Layer_0
  10
82.32598
  20
28.753904
  0
VERTEX
  5
8a5
  8
Layer_0
  10
82.44152
  20
29.611967
  0
VERTEX
  5
8a6
  8
Layer_0
  10
82.562254
  20
30.514691
  0
VERTEX
  5
8a7
  8
Layer_0
  10
82.684768
  20
31.436325
  0
VERTEX
  5
8a8
  8
Layer_0
  10
82.80565
  20
32.351122
  0
VERTEX
  5
8a9
  8
Layer_0
  10
82.921487
  20
33.23333
  0
VERTEX
  5
8aa
  8
Layer_0
  10
83.028866
  20
34.0572
  0
VERTEX
  5
8ab
  8
Layer_0
  10
83.124375
  20
34.796984
  0
VERTEX
  5
8ac
  8
Layer_0
  10
83.166611
  20
35.127296
  0
VERTEX
  5
8ad
  8
Layer_0
  10
83.2046
  20
35.426931
  0
VERTEX
  5
8ae
  8
Layer_0
  10
83.237915
  20
35.692669
  0
VERTEX
  5
8af
  8
Layer_0
  10
83.266129
  20
35.921291
  0
VERTEX
  5
8b0
  8
Layer_0
  10
83.288816
  20
36.10958
  0
VERTEX
  5
8b1
  8
Layer_0
  10
83.305549
  20
36.254316
  0
VERTEX
  5
8b2
  8
Layer_0
  10
83.315902
  20
36.352281
  0
VERTEX
  5
8b3
  8
Layer_0
  10
83.319447
  20
36.400256
  0
VERTEX
  5
8b4
  8
Layer_0
  10
83.286315
  20
36.423173
  0
VERTEX
  5
8b5
  8
Layer_0
  10
83.191357
  20
36.444553
  0
VERTEX
  5
8b6
  8
Layer_0
  10
83.041232
  20
36.463927
  0
VERTEX
  5
8b7
  8
Layer_0
  10
82.842597
  20
36.480828
  0
VERTEX
  5
8b8
  8
Layer_0
  10
82.602111
  20
36.494788
  0
VERTEX
  5
8b9
  8
Layer_0
  10
82.326432
  20
36.505339
  0
VERTEX
  5
8ba
  8
Layer_0
  10
82.022218
  20
36.512012
  0
VERTEX
  5
8bb
  8
Layer_0
  10
81.696127
  20
36.514341
  0
VERTEX
  5
8bc
  8
Layer_0
  10
80.072815
  20
36.514339
  0
VERTEX
  5
8bd
  8
Layer_0
  10
80.248619
  20
38.157089
  0
VERTEX
  5
8be
  8
Layer_0
  10
80.325527
  20
38.808348
  0
VERTEX
  5
8bf
  8
Layer_0
  10
80.404968
  20
39.367201
  0
VERTEX
  5
8c0
  8
Layer_0
  10
80.442713
  20
39.593389
  0
VERTEX
  5
8c1
  8
Layer_0
  10
80.477579
  20
39.774171
  0
VERTEX
  5
8c2
  8
Layer_0
  10
80.508395
  20
39.902113
  0
VERTEX
  5
8c3
  8
Layer_0
  10
80.533993
  20
39.969779
  0
VERTEX
  5
8c4
  8
Layer_0
  10
80.573274
  20
39.987091
  0
VERTEX
  5
8c5
  8
Layer_0
  10
80.66663
  20
40.003917
  0
VERTEX
  5
8c6
  8
Layer_0
  10
80.811227
  20
40.02017
  0
VERTEX
  5
8c7
  8
Layer_0
  10
81.004228
  20
40.035764
  0
VERTEX
  5
8c8
  8
Layer_0
  10
81.242798
  20
40.050611
  0
VERTEX
  5
8c9
  8
Layer_0
  10
81.524104
  20
40.064624
  0
VERTEX
  5
8ca
  8
Layer_0
  10
81.845309
  20
40.077716
  0
VERTEX
  5
8cb
  8
Layer_0
  10
82.203578
  20
40.089799
  0
VERTEX
  5
8cc
  8
Layer_0
  10
82.596077
  20
40.100788
  0
VERTEX
  5
8cd
  8
Layer_0
  10
83.019969
  20
40.110594
  0
VERTEX
  5
8ce
  8
Layer_0
  10
83.472421
  20
40.11913
  0
VERTEX
  5
8cf
  8
Layer_0
  10
83.950597
  20
40.126309
  0
VERTEX
  5
8d0
  8
Layer_0
  10
84.97278
  20
40.13625
  0
VERTEX
  5
8d1
  8
Layer_0
  10
86.063838
  20
40.139719
  0
VERTEX
  5
8d2
  8
Layer_0
  10
91.484108
  20
40.139717
  0
VERTEX
  5
8d3
  8
Layer_0
  10
91.308311
  20
38.496971
  0
SEQEND
  0
POLYLINE
  5
8d5
  8
Layer_0
  62
7
  70
1
  66
1
  10
0
  20
0
  30
0
  0
VERTEX
  5
8d5
  8
Layer_0
  10
97.42112
  20
38.610264
  42
-0.0085108191
  0
VERTEX
  5
8d6
  8
Layer_0
  10
98.212914
  20
35.041531
  0
VERTEX
  5
8d7
  8
Layer_0
  10
98.300865
  20
34.628392
  0
VERTEX
  5
8d8
  8
Layer_0
  10
98.389369
  20
34.236218
  0
VERTEX
  5
8d9
  8
Layer_0
  10
98.476028
  20
33.874076
  0
VERTEX
  5
8da
  8
Layer_0
  10
98.558445
  20
33.551032
  0
VERTEX
  5
8db
  8
Layer_0
  10
98.634221
  20
33.276151
  0
VERTEX
  5
8dc
  8
Layer_0
  10
98.700957
  20
33.0585
  0
VERTEX
  5
8dd
  8
Layer_0
  10
98.756254
  20
32.907145
  0
VERTEX
  5
8de
  8
Layer_0
  10
98.797713
  20
32.831152
  0
VERTEX
  5
8df
  8
Layer_0
  10
98.824384
  20
32.833124
  0
VERTEX
  5
8e0
  8
Layer_0
  10
98.869937
  20
32.873112
  0
VERTEX
  5
8e1
  8
Layer_0
  10
98.9333
  20
32.949285
  0
VERTEX
  5
8e2
  8
Layer_0
  10
99.0134
  20
33.059813
  0
VERTEX
  5
8e3
  8
Layer_0
  10
99.109165
  20
33.202867
  0
VERTEX
  5
8e4
  8
Layer_0
  10
99.219523
  20
33.376617
  0
VERTEX
  5
8e5
  8
Layer_0
  10
99.3434
  20
33.579234
  0
VERTEX
  5
8e6
  8
Layer_0
  10
99.479724
  20
33.808888
  0
VERTEX
  5
8e7
  8
Layer_0
  10
99.785423
  20
34.341987
  0
VERTEX
  5
8e8
  8
Layer_0
  10
100.12804
  20
34.961277
  0
VERTEX
  5
8e9
  8
Layer_0
  10
100.499
  20
35.652121
  0
VERTEX
  5
8ea
  8
Layer_0
  10
100.88971
  20
36.399883
  0
VERTEX
  5
8eb
  8
Layer_0
  10
102.8181
  20
40.139717
  0
VERTEX
  5
8ec
  8
Layer_0
  10
104.20695
  20
40.139717
  0
VERTEX
  5
8ed
  8
Layer_0
  10
105.59579
  20
40.139717
  0
VERTEX
  5
8ee
  8
Layer_0
  10
106.44163
  20
36.401047
  0
VERTEX
  5
8ef
  8
Layer_0
  10
106.61413
  20
35.650043
  0
VERTEX
  5
8f0
  8
Layer_0
  10
106.78005
  20
34.94945
  0
VERTEX
  5
8f1
  8
Layer_0
  10
106.9354
  20
34.314601
  0
VERTEX
  5
8f2
  8
Layer_0
  10
107.07621
  20
33.760826
  0
VERTEX
  5
8f3
  8
Layer_0
  10
107.1399
  20
33.519133
  0
VERTEX
  5
8f4
  8
Layer_0
  10
107.19847
  20
33.303458
  0
VERTEX
  5
8f5
  8
Layer_0
  10
107.2514
  20
33.115718
  0
VERTEX
  5
8f6
  8
Layer_0
  10
107.2982
  20
32.957828
  0
VERTEX
  5
8f7
  8
Layer_0
  10
107.33837
  20
32.831706
  0
VERTEX
  5
8f8
  8
Layer_0
  10
107.37141
  20
32.739267
  0
VERTEX
  5
8f9
  8
Layer_0
  10
107.39683
  20
32.682429
  0
VERTEX
  5
8fa
  8
Layer_0
  10
107.41412
  20
32.663107
  0
VERTEX
  5
8fb
  8
Layer_0
  10
107.43672
  20
32.682279
  0
VERTEX
  5
8fc
  8
Layer_0
  10
107.47772
  20
32.738389
  0
VERTEX
  5
8fd
  8
Layer_0
  10
107.5361
  20
32.829547
  0
VERTEX
  5
8fe
  8
Layer_0
  10
107.61084
  20
32.953867
  0
VERTEX
  5
8ff
  8
Layer_0
  10
107.7009
  20
33.10946
  0
VERTEX
  5
900
  8
Layer_0
  10
107.80528
  20
33.294439
  0
VERTEX
  5
901
  8
Layer_0
  10
107.92293
  20
33.506915
  0
VERTEX
  5
902
  8
Layer_0
  10
108.05285
  20
33.745002
  0
VERTEX
  5
903
  8
Layer_0
  10
108.34537
  20
34.290455
  0
VERTEX
  5
904
  8
Layer_0
  10
108.67464
  20
34.915695
  0
VERTEX
  5
905
  8
Layer_0
  10
109.03247
  20
35.605621
  0
VERTEX
  5
906
  8
Layer_0
  10
109.41069
  20
36.345131
  0
VERTEX
  5
907
  8
Layer_0
  10
111.28062
  20
40.026424
  0
VERTEX
  5
908
  8
Layer_0
  10
113.65249
  20
40.091278
  0
VERTEX
  5
909
  8
Layer_0
  10
114.12895
  20
40.102368
  0
VERTEX
  5
90a
  8
Layer_0
  10
114.57345
  20
40.108974
  0
VERTEX
  5
90b
  8
Layer_0
  10
114.97625
  20
40.111215
  0
VERTEX
  5
90c
  8
Layer_0
  10
115.32763
  20
40.109216
  0
VERTEX
  5
90d
  8
Layer_0
  10
115.61786
  20
40.1031
  0
VERTEX
  5
90e
  8
Layer_0
  10
115.83721
  20
40.092989
  0
VERTEX
  5
90f
  8
Layer_0
  10
115.97596
  20
40.079007
  0
VERTEX
  5
910
  8
Layer_0
  10
116.02437
  20
40.061276
  0
VERTEX
  5
911
  8
Layer_0
  10
116.004
  20
40.013216
  0
VERTEX
  5
912
  8
Layer_0
  10
115.94424
  20
39.891162
  0
VERTEX
  5
913
  8
Layer_0
  10
115.8471
  20
39.698957
  0
VERTEX
  5
914
  8
Layer_0
  10
115.71459
  20
39.440443
  0
VERTEX
  5
915
  8
Layer_0
  10
115.54873
  20
39.119465
  0
VERTEX
  5
916
  8
Layer_0
  10
115.35152
  20
38.739866
  0
VERTEX
  5
917
  8
Layer_0
  10
115.12499
  20
38.305488
  0
VERTEX
  5
918
  8
Layer_0
  10
114.87114
  20
37.820175
  0
VERTEX
  5
919
  8
Layer_0
  10
114.59199
  20
37.287771
  0
VERTEX
  5
91a
  8
Layer_0
  10
114.28954
  20
36.712117
  0
VERTEX
  5
91b
  8
Layer_0
  10
113.96582
  20
36.097059
  0
VERTEX
  5
91c
  8
Layer_0
  10
113.62283
  20
35.446438
  0
VERTEX
  5
91d
  8
Layer_0
  10
113.26259
  20
34.764098
  0
VERTEX
  5
91e
  8
Layer_0
  10
112.88711
  20
34.053882
  0
VERTEX
  5
91f
  8
Layer_0
  10
112.49841
  20
33.319633
  0
VERTEX
  5
920
  8
Layer_0
  10
112.09849
  20
32.565196
  0
VERTEX
  5
921
  8
Layer_0
  10
108.17261
  20
25.163973
  0
VERTEX
  5
922
  8
Layer_0
  10
106.50938
  20
25.231152
  0
VERTEX
  5
923
  8
Layer_0
  10
104.84616
  20
25.298328
  0
VERTEX
  5
924
  8
Layer_0
  10
104.08282
  20
28.470535
  0
VERTEX
  5
925
  8
Layer_0
  10
103.92718
  20
29.114161
  0
VERTEX
  5
926
  8
Layer_0
  10
103.77749
  20
29.726977
  0
VERTEX
  5
927
  8
Layer_0
  10
103.63737
  20
30.294684
  0
VERTEX
  5
928
  8
Layer_0
  10
103.51041
  20
30.802987
  0
VERTEX
  5
929
  8
Layer_0
  10
103.4002
  20
31.237588
  0
VERTEX
  5
92a
  8
Layer_0
  10
103.31035
  20
31.584191
  0
VERTEX
  5
92b
  8
Layer_0
  10
103.27417
  20
31.720025
  0
VERTEX
  5
92c
  8
Layer_0
  10
103.24444
  20
31.828499
  0
VERTEX
  5
92d
  8
Layer_0
  10
103.22159
  20
31.907824
  0
VERTEX
  5
92e
  8
Layer_0
  10
103.20607
  20
31.956214
  0
VERTEX
  5
92f
  8
Layer_0
  10
103.18502
  20
31.96977
  0
VERTEX
  5
930
  8
Layer_0
  10
103.14593
  20
31.946886
  0
VERTEX
  5
931
  8
Layer_0
  10
103.08979
  20
31.889217
  0
VERTEX
  5
932
  8
Layer_0
  10
103.0176
  20
31.79842
  0
VERTEX
  5
933
  8
Layer_0
  10
102.93036
  20
31.676149
  0
VERTEX
  5
934
  8
Layer_0
  10
102.82906
  20
31.52406
  0
VERTEX
  5
935
  8
Layer_0
  10
102.7147
  20
31.343808
  0
VERTEX
  5
936
  8
Layer_0
  10
102.58828
  20
31.137049
  0
VERTEX
  5
937
  8
Layer_0
  10
102.30323
  20
30.65063
  0
VERTEX
  5
938
  8
Layer_0
  10
101.98189
  20
30.078048
  0
VERTEX
  5
939
  8
Layer_0
  10
101.63223
  20
29.432544
  0
VERTEX
  5
93a
  8
Layer_0
  10
101.26222
  20
28.727362
  0
VERTEX
  5
93b
  8
Layer_0
  10
99.431801
  20
25.185036
  0
VERTEX
  5
93c
  8
Layer_0
  10
97.769066
  20
25.185036
  0
VERTEX
  5
93d
  8
Layer_0
  10
97.435051
  20
25.186192
  0
VERTEX
  5
93e
  8
Layer_0
  10
97.123436
  20
25.189506
  0
VERTEX
  5
93f
  8
Layer_0
  10
96.841041
  20
25.194744
  0
VERTEX
  5
940
  8
Layer_0
  10
96.594685
  20
25.201676
  0
VERTEX
  5
941
  8
Layer_0
  10
96.39119
  20
25.210068
  0
VERTEX
  5
942
  8
Layer_0
  10
96.237377
  20
25.219688
  0
VERTEX
  5
943
  8
Layer_0
  10
96.140066
  20
25.230303
  0
VERTEX
  5
944
  8
Layer_0
  10
96.106078
  20
25.241682
  0
VERTEX
  5
945
  8
Layer_0
  10
96.097122
  20
25.283821
  0
VERTEX
  5
946
  8
Layer_0
  10
96.070898
  20
25.39614
  0
VERTEX
  5
947
  8
Layer_0
  10
96.028288
  20
25.575015
  0
VERTEX
  5
948
  8
Layer_0
  10
95.970174
  20
25.816823
  0
VERTEX
  5
949
  8
Layer_0
  10
95.897439
  20
26.117941
  0
VERTEX
  5
94a
  8
Layer_0
  10
95.810966
  20
26.474746
  0
VERTEX
  5
94b
  8
Layer_0
  10
95.711636
  20
26.883616
  0
VERTEX
  5
94c
  8
Layer_0
  10
95.600333
  20
27.340925
  0
VERTEX
  5
94d
  8
Layer_0
  10
95.477939
  20
27.843053
  0
VERTEX
  5
94e
  8
Layer_0
  10
95.345337
  20
28.386375
  0
VERTEX
  5
94f
  8
Layer_0
  10
95.203408
  20
28.967268
  0
VERTEX
  5
950
  8
Layer_0
  10
95.053036
  20
29.58211
  0
VERTEX
  5
951
  8
Layer_0
  10
94.730493
  20
30.899145
  0
VERTEX
  5
952
  8
Layer_0
  10
94.384766
  20
32.308495
  0
VERTEX
  5
953
  8
Layer_0
  10
94.039042
  20
33.725069
  0
VERTEX
  5
954
  8
Layer_0
  10
93.716513
  20
35.062804
  0
VERTEX
  5
955
  8
Layer_0
  10
93.566151
  20
35.692597
  0
VERTEX
  5
956
  8
Layer_0
  10
93.424236
  20
36.291266
  0
VERTEX
  5
957
  8
Layer_0
  10
93.291648
  20
36.855008
  0
VERTEX
  5
958
  8
Layer_0
  10
93.16927
  20
37.380018
  0
VERTEX
  5
959
  8
Layer_0
  10
93.057986
  20
37.862491
  0
VERTEX
  5
95a
  8
Layer_0
  10
92.958676
  20
38.298622
  0
VERTEX
  5
95b
  8
Layer_0
  10
92.872224
  20
38.684608
  0
VERTEX
  5
95c
  8
Layer_0
  10
92.799512
  20
39.016644
  0
VERTEX
  5
95d
  8
Layer_0
  10
92.741422
  20
39.290924
  0
VERTEX
  5
95e
  8
Layer_0
  10
92.698837
  20
39.503645
  0
VERTEX
  5
95f
  8
Layer_0
  10
92.672639
  20
39.651002
  0
VERTEX
  5
960
  8
Layer_0
  10
92.66371
  20
39.72919
  0
VERTEX
  5
961
  8
Layer_0
  10
92.677833
  20
39.851806
  0
VERTEX
  5
962
  8
Layer_0
  10
92.731715
  20
39.947585
  0
VERTEX
  5
963
  8
Layer_0
  10
92.842628
  20
40.019761
  0
VERTEX
  5
964
  8
Layer_0
  10
93.027842
  20
40.071566
  0
VERTEX
  5
965
  8
Layer_0
  10
93.153709
  20
40.090839
  0
VERTEX
  5
966
  8
Layer_0
  10
93.304627
  20
40.106231
  0
VERTEX
  5
967
  8
Layer_0
  10
93.482756
  20
40.118147
  0
VERTEX
  5
968
  8
Layer_0
  10
93.690255
  20
40.12699
  0
VERTEX
  5
969
  8
Layer_0
  10
93.929281
  20
40.133165
  0
VERTEX
  5
96a
  8
Layer_0
  10
94.201995
  20
40.137075
  0
VERTEX
  5
96b
  8
Layer_0
  10
94.510554
  20
40.139125
  0
VERTEX
  5
96c
  8
Layer_0
  10
94.857118
  20
40.139719
  0
VERTEX
  5
96d
  8
Layer_0
  10
97.050514
  20
40.139717
  0
SEQEND
  0
POLYLINE
  5
96f
  8
Layer_0
  62
7
  70
1
  66
1
  10
0
  20
0
  30
0
  0
VERTEX
  5
96f
  8
Layer_0
  10
121.32552
  20
39.6299
  0
VERTEX
  5
970
  8
Layer_0
  10
121.30878
  20
39.541818
  0
VERTEX
  5
971
  8
Layer_0
  10
121.28323
  20
39.38528
  0
VERTEX
  5
972
  8
Layer_0
  10
121.24942
  20
39.164118
  0
VERTEX
  5
973
  8
Layer_0
  10
121.20787
  20
38.882166
  0
VERTEX
  5
974
  8
Layer_0
  10
121.1591
  20
38.543257
  0
VERTEX
  5
975
  8
Layer_0
  10
121.10365
  20
38.151226
  0
VERTEX
  5
976
  8
Layer_0
  10
121.04204
  20
37.709906
  0
VERTEX
  5
977
  8
Layer_0
  10
120.97479
  20
37.223131
  0
VERTEX
  5
978
  8
Layer_0
  10
120.90244
  20
36.694733
  0
VERTEX
  5
979
  8
Layer_0
  10
120.82551
  20
36.128547
  0
VERTEX
  5
97a
  8
Layer_0
  10
120.74453
  20
35.528407
  0
VERTEX
  5
97b
  8
Layer_0
  10
120.66003
  20
34.898145
  0
VERTEX
  5
97c
  8
Layer_0
  10
120.48256
  20
33.562593
  0
VERTEX
  5
97d
  8
Layer_0
  10
120.29732
  20
32.152558
  0
VERTEX
  5
97e
  8
Layer_0
  10
119.38716
  20
25.185036
  0
VERTEX
  5
97f
  8
Layer_0
  10
117.21397
  20
25.185036
  0
VERTEX
  5
980
  8
Layer_0
  10
116.77741
  20
25.187137
  0
VERTEX
  5
981
  8
Layer_0
  10
116.37015
  20
25.193159
  0
VERTEX
  5
982
  8
Layer_0
  10
116.00109
  20
25.202681
  0
VERTEX
  5
983
  8
Layer_0
  10
115.67914
  20
25.215278
  0
VERTEX
  5
984
  8
Layer_0
  10
115.41322
  20
25.23053
  0
VERTEX
  5
985
  8
Layer_0
  10
115.21224
  20
25.248014
  0
VERTEX
  5
986
  8
Layer_0
  10
115.08511
  20
25.267307
  0
VERTEX
  5
987
  8
Layer_0
  10
115.04076
  20
25.287988
  0
VERTEX
  5
988
  8
Layer_0
  10
115.04573
  20
25.344987
  0
VERTEX
  5
989
  8
Layer_0
  10
115.06022
  20
25.472195
  0
VERTEX
  5
98a
  8
Layer_0
  10
115.08364
  20
25.665046
  0
VERTEX
  5
98b
  8
Layer_0
  10
115.11537
  20
25.918973
  0
VERTEX
  5
98c
  8
Layer_0
  10
115.1548
  20
26.229412
  0
VERTEX
  5
98d
  8
Layer_0
  10
115.20133
  20
26.591797
  0
VERTEX
  5
98e
  8
Layer_0
  10
115.25434
  20
27.001562
  0
VERTEX
  5
98f
  8
Layer_0
  10
115.31324
  20
27.454142
  0
VERTEX
  5
990
  8
Layer_0
  10
115.3774
  20
27.944971
  0
VERTEX
  5
991
  8
Layer_0
  10
115.44622
  20
28.469483
  0
VERTEX
  5
992
  8
Layer_0
  10
115.51909
  20
29.023114
  0
VERTEX
  5
993
  8
Layer_0
  10
115.5954
  20
29.601297
  0
VERTEX
  5
994
  8
Layer_0
  10
115.75592
  20
30.813059
  0
VERTEX
  5
995
  8
Layer_0
  10
115.92291
  20
32.068244
  0
VERTEX
  5
996
  8
Layer_0
  10
116.0915
  20
33.330328
  0
VERTEX
  5
997
  8
Layer_0
  10
116.25682
  20
34.562786
  0
VERTEX
  5
998
  8
Layer_0
  10
116.33673
  20
35.156491
  0
VERTEX
  5
999
  8
Layer_0
  10
116.414
  20
35.729094
  0
VERTEX
  5
99a
  8
Layer_0
  10
116.48802
  20
36.276027
  0
VERTEX
  5
99b
  8
Layer_0
  10
116.55817
  20
36.792727
  0
VERTEX
  5
99c
  8
Layer_0
  10
116.62386
  20
37.274626
  0
VERTEX
  5
99d
  8
Layer_0
  10
116.68446
  20
37.71716
  0
VERTEX
  5
99e
  8
Layer_0
  10
116.73939
  20
38.115764
  0
VERTEX
  5
99f
  8
Layer_0
  10
116.78801
  20
38.46587
  0
VERTEX
  5
9a0
  8
Layer_0
  10
116.82973
  20
38.762915
  0
VERTEX
  5
9a1
  8
Layer_0
  10
116.86394
  20
39.002332
  0
VERTEX
  5
9a2
  8
Layer_0
  10
116.89003
  20
39.179556
  0
VERTEX
  5
9a3
  8
Layer_0
  10
116.90738
  20
39.290021
  0
VERTEX
  5
9a4
  8
Layer_0
  10
117.05119
  20
40.139717
  0
VERTEX
  5
9a5
  8
Layer_0
  10
119.24739
  20
40.139717
  0
VERTEX
  5
9a6
  8
Layer_0
  10
119.62607
  20
40.139473
  0
VERTEX
  5
9a7
  8
Layer_0
  10
119.95829
  20
40.138269
  0
VERTEX
  5
9a8
  8
Layer_0
  10
120.24691
  20
40.135411
  0
VERTEX
  5
9a9
  8
Layer_0
  10
120.49476
  20
40.130198
  0
VERTEX
  5
9aa
  8
Layer_0
  10
120.7047
  20
40.121934
  0
VERTEX
  5
9ab
  8
Layer_0
  10
120.87957
  20
40.109919
  0
VERTEX
  5
9ac
  8
Layer_0
  10
121.02221
  20
40.093456
  0
VERTEX
  5
9ad
  8
Layer_0
  10
121.13548
  20
40.071846
  0
VERTEX
  5
9ae
  8
Layer_0
  10
121.28526
  20
40.010394
  0
VERTEX
  5
9af
  8
Layer_0
  10
121.35168
  20
39.919976
  0
VERTEX
  5
9b0
  8
Layer_0
  10
121.35751
  20
39.795006
  0
SEQEND
  0
POLYLINE
  5
9b2
  8
Layer_0
  62
7
  70
1
  66
1
  10
0
  20
0
  30
0
  0
VERTEX
  5
9b2
  8
Layer_0
  10
131.93787
  20
39.457789
  0
VERTEX
  5
9b3
  8
Layer_0
  10
132.28683
  20
39.269556
  0
VERTEX
  5
9b4
  8
Layer_0
  10
132.59189
  20
39.095365
  0
VERTEX
  5
9b5
  8
Layer_0
  10
132.85367
  20
38.932604
  0
VERTEX
  5
9b6
  8
Layer_0
  10
133.07277
  20
38.778661
  0
VERTEX
  5
9b7
  8
Layer_0
  10
133.24984
  20
38.630925
  0
VERTEX
  5
9b8
  8
Layer_0
  10
133.38548
  20
38.486784
  0
VERTEX
  5
9b9
  8
Layer_0
  10
133.48031
  20
38.343628
  0
VERTEX
  5
9ba
  8
Layer_0
  10
133.53495
  20
38.198845
  0
VERTEX
  5
9bb
  8
Layer_0
  10
133.55003
  20
38.049822
  0
VERTEX
  5
9bc
  8
Layer_0
  10
133.52616
  20
37.89395
  0
VERTEX
  5
9bd
  8
Layer_0
  10
133.46396
  20
37.728615
  0
VERTEX
  5
9be
  8
Layer_0
  10
133.36406
  20
37.551208
  0
VERTEX
  5
9bf
  8
Layer_0
  10
133.22707
  20
37.359116
  0
VERTEX
  5
9c0
  8
Layer_0
  10
133.05361
  20
37.149728
  0
VERTEX
  5
9c1
  8
Layer_0
  10
132.8443
  20
36.920433
  0
VERTEX
  5
9c2
  8
Layer_0
  10
132.59976
  20
36.668618
  42
0.0025205352
  0
VERTEX
  5
9c3
  8
Layer_0
  10
131.21434
  20
35.268116
  0
VERTEX
  5
9c4
  8
Layer_0
  10
131.15294
  20
35.229868
  0
VERTEX
  5
9c5
  8
Layer_0
  10
131.07481
  20
35.223201
  0
VERTEX
  5
9c6
  8
Layer_0
  10
130.98086
  20
35.247569
  0
VERTEX
  5
9c7
  8
Layer_0
  10
130.87201
  20
35.302421
  0
VERTEX
  5
9c8
  8
Layer_0
  10
130.74917
  20
35.387209
  0
VERTEX
  5
9c9
  8
Layer_0
  10
130.61325
  20
35.501385
  0
VERTEX
  5
9ca
  8
Layer_0
  10
130.46516
  20
35.644399
  0
VERTEX
  5
9cb
  8
Layer_0
  10
130.30581
  20
35.815702
  0
VERTEX
  5
9cc
  8
Layer_0
  10
129.9959
  20
36.112246
  0
VERTEX
  5
9cd
  8
Layer_0
  10
129.65934
  20
36.340986
  0
VERTEX
  5
9ce
  8
Layer_0
  10
129.30606
  20
36.500465
  0
VERTEX
  5
9cf
  8
Layer_0
  10
128.94597
  20
36.589226
  0
VERTEX
  5
9d0
  8
Layer_0
  10
128.58897
  20
36.605814
  0
VERTEX
  5
9d1
  8
Layer_0
  10
128.24498
  20
36.548772
  0
VERTEX
  5
9d2
  8
Layer_0
  10
127.92392
  20
36.416644
  0
VERTEX
  5
9d3
  8
Layer_0
  10
127.63568
  20
36.207975
  0
VERTEX
  5
9d4
  8
Layer_0
  10
127.45745
  20
36.002689
  0
VERTEX
  5
9d5
  8
Layer_0
  10
127.37887
  20
35.804075
  0
VERTEX
  5
9d6
  8
Layer_0
  10
127.37766
  20
35.706503
  0
VERTEX
  5
9d7
  8
Layer_0
  10
127.40224
  20
35.60968
  0
VERTEX
  5
9d8
  8
Layer_0
  10
127.45287
  20
35.513297
  0
VERTEX
  5
9d9
  8
Layer_0
  10
127.52986
  20
35.41705
  0
VERTEX
  5
9da
  8
Layer_0
  10
127.63348
  20
35.320631
  0
VERTEX
  5
9db
  8
Layer_0
  10
127.76403
  20
35.223733
  0
VERTEX
  5
9dc
  8
Layer_0
  10
127.92179
  20
35.126051
  0
VERTEX
  5
9dd
  8
Layer_0
  10
128.10706
  20
35.027277
  0
VERTEX
  5
9de
  8
Layer_0
  10
128.3201
  20
34.927105
  0
VERTEX
  5
9df
  8
Layer_0
  10
128.56123
  20
34.825228
  0
VERTEX
  5
9e0
  8
Layer_0
  10
128.83071
  20
34.721339
  0
VERTEX
  5
9e1
  8
Layer_0
  10
129.12885
  20
34.615133
  0
VERTEX
  5
9e2
  8
Layer_0
  10
129.77621
  20
34.369349
  0
VERTEX
  5
9e3
  8
Layer_0
  10
130.37227
  20
34.095704
  0
VERTEX
  5
9e4
  8
Layer_0
  10
130.91356
  20
33.796751
  0
VERTEX
  5
9e5
  8
Layer_0
  10
131.39661
  20
33.475042
  0
VERTEX
  5
9e6
  8
Layer_0
  10
131.81793
  20
33.133128
  0
VERTEX
  5
9e7
  8
Layer_0
  10
132.17405
  20
32.773561
  0
VERTEX
  5
9e8
  8
Layer_0
  10
132.46149
  20
32.398893
  0
VERTEX
  5
9e9
  8
Layer_0
  10
132.67677
  20
32.011675
  0
VERTEX
  5
9ea
  8
Layer_0
  10
132.82605
  20
31.575464
  0
VERTEX
  5
9eb
  8
Layer_0
  10
132.9153
  20
31.072932
  0
VERTEX
  5
9ec
  8
Layer_0
  10
132.94629
  20
30.523269
  0
VERTEX
  5
9ed
  8
Layer_0
  10
132.92076
  20
29.945665
  0
VERTEX
  5
9ee
  8
Layer_0
  10
132.84044
  20
29.35931
  0
VERTEX
  5
9ef
  8
Layer_0
  10
132.7071
  20
28.783395
  0
VERTEX
  5
9f0
  8
Layer_0
  10
132.52246
  20
28.237109
  0
VERTEX
  5
9f1
  8
Layer_0
  10
132.28829
  20
27.739644
  0
VERTEX
  5
9f2
  8
Layer_0
  10
131.94769
  20
27.212722
  0
VERTEX
  5
9f3
  8
Layer_0
  10
131.53924
  20
26.731708
  0
VERTEX
  5
9f4
  8
Layer_0
  10
131.0705
  20
26.298233
  0
VERTEX
  5
9f5
  8
Layer_0
  10
130.54906
  20
25.913925
  0
VERTEX
  5
9f6
  8
Layer_0
  10
129.98251
  20
25.580414
  0
VERTEX
  5
9f7
  8
Layer_0
  10
129.37842
  20
25.299329
  0
VERTEX
  5
9f8
  8
Layer_0
  10
128.74437
  20
25.0723
  0
VERTEX
  5
9f9
  8
Layer_0
  10
128.08794
  20
24.900957
  0
VERTEX
  5
9fa
  8
Layer_0
  10
127.41672
  20
24.786928
  0
VERTEX
  5
9fb
  8
Layer_0
  10
126.73828
  20
24.731843
  0
VERTEX
  5
9fc
  8
Layer_0
  10
126.0602
  20
24.737331
  0
VERTEX
  5
9fd
  8
Layer_0
  10
125.39008
  20
24.805023
  0
VERTEX
  5
9fe
  8
Layer_0
  10
124.73548
  20
24.936547
  0
VERTEX
  5
9ff
  8
Layer_0
  10
124.10398
  20
25.133532
  0
VERTEX
  5
a00
  8
Layer_0
  10
123.50318
  20
25.397609
  0
VERTEX
  5
a01
  8
Layer_0
  10
122.94064
  20
25.730407
  0
VERTEX
  5
a02
  8
Layer_0
  10
122.59878
  20
25.986156
  0
VERTEX
  5
a03
  8
Layer_0
  10
122.25226
  20
26.286881
  0
VERTEX
  5
a04
  8
Layer_0
  10
121.91655
  20
26.614717
  0
VERTEX
  5
a05
  8
Layer_0
  10
121.60716
  20
26.951799
  0
VERTEX
  5
a06
  8
Layer_0
  10
121.33956
  20
27.280265
  0
VERTEX
  5
a07
  8
Layer_0
  10
121.12924
  20
27.582249
  0
VERTEX
  5
a08
  8
Layer_0
  10
121.0504
  20
27.717727
  0
VERTEX
  5
a09
  8
Layer_0
  10
120.99169
  20
27.839886
  0
VERTEX
  5
a0a
  8
Layer_0
  10
120.95504
  20
27.946492
  0
VERTEX
  5
a0b
  8
Layer_0
  10
120.9424
  20
28.035313
  0
VERTEX
  5
a0c
  8
Layer_0
  10
120.97519
  20
28.108935
  0
VERTEX
  5
a0d
  8
Layer_0
  10
121.06821
  20
28.224141
  0
VERTEX
  5
a0e
  8
Layer_0
  10
121.21343
  20
28.374537
  0
VERTEX
  5
a0f
  8
Layer_0
  10
121.40281
  20
28.553729
  0
VERTEX
  5
a10
  8
Layer_0
  10
121.88189
  20
28.972933
  0
VERTEX
  5
a11
  8
Layer_0
  10
122.44119
  20
29.430607
  0
VERTEX
  5
a12
  8
Layer_0
  10
123.01642
  20
29.875606
  0
VERTEX
  5
a13
  8
Layer_0
  10
123.5433
  20
30.256785
  0
VERTEX
  5
a14
  8
Layer_0
  10
123.76852
  20
30.407459
  0
VERTEX
  5
a15
  8
Layer_0
  10
123.95755
  20
30.522999
  0
VERTEX
  5
a16
  8
Layer_0
  10
124.10234
  20
30.597011
  0
VERTEX
  5
a17
  8
Layer_0
  10
124.19488
  20
30.623102
  0
VERTEX
  5
a18
  8
Layer_0
  10
124.27732
  20
30.578122
  0
VERTEX
  5
a19
  8
Layer_0
  10
124.36816
  20
30.455651
  0
VERTEX
  5
a1a
  8
Layer_0
  10
124.45637
  20
30.274392
  0
VERTEX
  5
a1b
  8
Layer_0
  10
124.53092
  20
30.053052
  0
VERTEX
  5
a1c
  8
Layer_0
  10
124.61893
  20
29.813741
  0
VERTEX
  5
a1d
  8
Layer_0
  10
124.74511
  20
29.592024
  0
VERTEX
  5
a1e
  8
Layer_0
  10
124.9051
  20
29.389155
  0
VERTEX
  5
a1f
  8
Layer_0
  10
125.09452
  20
29.206386
  0
VERTEX
  5
a20
  8
Layer_0
  10
125.30901
  20
29.04497
  0
VERTEX
  5
a21
  8
Layer_0
  10
125.5442
  20
28.906159
  0
VERTEX
  5
a22
  8
Layer_0
  10
125.79572
  20
28.791207
  0
VERTEX
  5
a23
  8
Layer_0
  10
126.0592
  20
28.701367
  0
VERTEX
  5
a24
  8
Layer_0
  10
126.33028
  20
28.637891
  0
VERTEX
  5
a25
  8
Layer_0
  10
126.60458
  20
28.602032
  0
VERTEX
  5
a26
  8
Layer_0
  10
126.87775
  20
28.595043
  0
VERTEX
  5
a27
  8
Layer_0
  10
127.1454
  20
28.618177
  0
VERTEX
  5
a28
  8
Layer_0
  10
127.40318
  20
28.672687
  0
VERTEX
  5
a29
  8
Layer_0
  10
127.6467
  20
28.759825
  0
VERTEX
  5
a2a
  8
Layer_0
  10
127.87162
  20
28.880845
  0
VERTEX
  5
a2b
  8
Layer_0
  10
128.07355
  20
29.036999
  0
VERTEX
  5
a2c
  8
Layer_0
  10
128.23787
  20
29.199091
  0
VERTEX
  5
a2d
  8
Layer_0
  10
128.36872
  20
29.353195
  0
VERTEX
  5
a2e
  8
Layer_0
  10
128.465
  20
29.500588
  0
VERTEX
  5
a2f
  8
Layer_0
  10
128.52563
  20
29.642549
  0
VERTEX
  5
a30
  8
Layer_0
  10
128.54953
  20
29.780354
  0
VERTEX
  5
a31
  8
Layer_0
  10
128.53561
  20
29.91528
  0
VERTEX
  5
a32
  8
Layer_0
  10
128.48279
  20
30.048604
  0
VERTEX
  5
a33
  8
Layer_0
  10
128.38997
  20
30.181604
  0
VERTEX
  5
a34
  8
Layer_0
  10
128.25609
  20
30.315558
  0
VERTEX
  5
a35
  8
Layer_0
  10
128.08005
  20
30.451741
  0
VERTEX
  5
a36
  8
Layer_0
  10
127.86076
  20
30.591432
  0
VERTEX
  5
a37
  8
Layer_0
  10
127.59715
  20
30.735908
  0
VERTEX
  5
a38
  8
Layer_0
  10
127.28813
  20
30.886445
  0
VERTEX
  5
a39
  8
Layer_0
  10
126.93261
  20
31.044322
  0
VERTEX
  5
a3a
  8
Layer_0
  10
126.52951
  20
31.210815
  0
VERTEX
  5
a3b
  8
Layer_0
  10
126.07775
  20
31.387201
  0
VERTEX
  5
a3c
  8
Layer_0
  10
125.66643
  20
31.549761
  0
VERTEX
  5
a3d
  8
Layer_0
  10
125.29105
  20
31.710595
  0
VERTEX
  5
a3e
  8
Layer_0
  10
124.95008
  20
31.871302
  0
VERTEX
  5
a3f
  8
Layer_0
  10
124.64201
  20
32.033484
  0
VERTEX
  5
a40
  8
Layer_0
  10
124.36533
  20
32.198741
  0
VERTEX
  5
a41
  8
Layer_0
  10
124.11851
  20
32.368675
  0
VERTEX
  5
a42
  8
Layer_0
  10
123.90005
  20
32.544887
  0
VERTEX
  5
a43
  8
Layer_0
  10
123.70841
  20
32.728976
  0
VERTEX
  5
a44
  8
Layer_0
  10
123.54208
  20
32.922545
  0
VERTEX
  5
a45
  8
Layer_0
  10
123.39955
  20
33.127193
  0
VERTEX
  5
a46
  8
Layer_0
  10
123.2793
  20
33.344522
  0
VERTEX
  5
a47
  8
Layer_0
  10
123.17981
  20
33.576133
  0
VERTEX
  5
a48
  8
Layer_0
  10
123.09957
  20
33.823626
  0
VERTEX
  5
a49
  8
Layer_0
  10
123.03705
  20
34.088603
  0
VERTEX
  5
a4a
  8
Layer_0
  10
122.99074
  20
34.372663
  0
VERTEX
  5
a4b
  8
Layer_0
  10
122.95913
  20
34.677409
  0
VERTEX
  5
a4c
  8
Layer_0
  10
122.93501
  20
35.263854
  0
VERTEX
  5
a4d
  8
Layer_0
  10
122.95948
  20
35.808519
  0
VERTEX
  5
a4e
  8
Layer_0
  10
123.03427
  20
36.316692
  0
VERTEX
  5
a4f
  8
Layer_0
  10
123.16114
  20
36.793663
  0
VERTEX
  5
a50
  8
Layer_0
  10
123.34185
  20
37.244723
  0
VERTEX
  5
a51
  8
Layer_0
  10
123.57815
  20
37.67516
  0
VERTEX
  5
a52
  8
Layer_0
  10
123.87179
  20
38.090265
  0
VERTEX
  5
a53
  8
Layer_0
  10
124.22452
  20
38.495327
  0
VERTEX
  5
a54
  8
Layer_0
  10
124.6548
  20
38.904669
  0
VERTEX
  5
a55
  8
Layer_0
  10
125.10763
  20
39.248988
  0
VERTEX
  5
a56
  8
Layer_0
  10
125.59216
  20
39.531557
  0
VERTEX
  5
a57
  8
Layer_0
  10
126.11758
  20
39.755645
  0
VERTEX
  5
a58
  8
Layer_0
  10
126.69303
  20
39.924524
  0
VERTEX
  5
a59
  8
Layer_0
  10
127.32768
  20
40.041465
  0
VERTEX
  5
a5a
  8
Layer_0
  10
128.0307
  20
40.109739
  0
VERTEX
  5
a5b
  8
Layer_0
  10
128.81125
  20
40.132617
  0
VERTEX
  5
a5c
  8
Layer_0
  10
129.35969
  20
40.128464
  0
VERTEX
  5
a5d
  8
Layer_0
  10
129.81877
  20
40.110964
  0
VERTEX
  5
a5e
  8
Layer_0
  10
130.21066
  20
40.075332
  0
VERTEX
  5
a5f
  8
Layer_0
  10
130.55752
  20
40.016786
  0
VERTEX
  5
a60
  8
Layer_0
  10
130.88151
  20
39.930542
  0
VERTEX
  5
a61
  8
Layer_0
  10
131.20479
  20
39.811817
  0
VERTEX
  5
a62
  8
Layer_0
  10
131.54952
  20
39.655827
  0
SEQEND
  0
POLYLINE
  5
a64
  8
Layer_0
  62
7
  70
1
  66
1
  10
0
  20
0
  30
0
  0
VERTEX
  5
a64
  8
Layer_0
  10
145.66197
  20
38.723555
  0
VERTEX
  5
a65
  8
Layer_0
  10
145.61549
  20
38.322203
  0
VERTEX
  5
a66
  8
Layer_0
  10
145.57365
  20
37.972609
  0
VERTEX
  5
a67
  8
Layer_0
  10
145.53325
  20
37.671203
  0
VERTEX
  5
a68
  8
Layer_0
  10
145.49111
  20
37.414419
  0
VERTEX
  5
a69
  8
Layer_0
  10
145.44406
  20
37.198685
  0
VERTEX
  5
a6a
  8
Layer_0
  10
145.3889
  20
37.020435
  0
VERTEX
  5
a6b
  8
Layer_0
  10
145.32246
  20
36.876098
  0
VERTEX
  5
a6c
  8
Layer_0
  10
145.24154
  20
36.762106
  0
VERTEX
  5
a6d
  8
Layer_0
  10
145.14298
  20
36.674891
  0
VERTEX
  5
a6e
  8
Layer_0
  10
145.02357
  20
36.610883
  0
VERTEX
  5
a6f
  8
Layer_0
  10
144.88014
  20
36.566514
  0
VERTEX
  5
a70
  8
Layer_0
  10
144.70951
  20
36.538215
  0
VERTEX
  5
a71
  8
Layer_0
  10
144.50849
  20
36.522417
  0
VERTEX
  5
a72
  8
Layer_0
  10
144.2739
  20
36.515551
  0
VERTEX
  5
a73
  8
Layer_0
  10
144.00256
  20
36.514049
  0
VERTEX
  5
a74
  8
Layer_0
  10
143.69127
  20
36.514341
  0
VERTEX
  5
a75
  8
Layer_0
  10
143.36703
  20
36.520842
  0
VERTEX
  5
a76
  8
Layer_0
  10
143.08824
  20
36.53206
  0
VERTEX
  5
a77
  8
Layer_0
  10
142.84996
  20
36.535572
  0
VERTEX
  5
a78
  8
Layer_0
  10
142.64727
  20
36.518953
  0
VERTEX
  5
a79
  8
Layer_0
  10
142.47523
  20
36.469777
  0
VERTEX
  5
a7a
  8
Layer_0
  10
142.32892
  20
36.375619
  0
VERTEX
  5
a7b
  8
Layer_0
  10
142.20338
  20
36.224055
  0
VERTEX
  5
a7c
  8
Layer_0
  10
142.09371
  20
36.002659
  0
VERTEX
  5
a7d
  8
Layer_0
  10
141.99495
  20
35.699007
  0
VERTEX
  5
a7e
  8
Layer_0
  10
141.90218
  20
35.300674
  0
VERTEX
  5
a7f
  8
Layer_0
  10
141.85651
  20
35.062119
  0
VERTEX
  5
a80
  8
Layer_0
  10
141.81048
  20
34.795235
  0
VERTEX
  5
a81
  8
Layer_0
  10
141.76348
  20
34.498468
  0
VERTEX
  5
a82
  8
Layer_0
  10
141.71489
  20
34.170265
  0
VERTEX
  5
a83
  8
Layer_0
  10
141.66411
  20
33.809073
  0
VERTEX
  5
a84
  8
Layer_0
  10
141.6105
  20
33.413339
  0
VERTEX
  5
a85
  8
Layer_0
  10
141.55346
  20
32.98151
  0
VERTEX
  5
a86
  8
Layer_0
  10
141.49237
  20
32.512032
  0
VERTEX
  5
a87
  8
Layer_0
  10
141.42661
  20
32.003353
  0
VERTEX
  5
a88
  8
Layer_0
  10
141.35556
  20
31.45392
  0
VERTEX
  5
a89
  8
Layer_0
  10
141.27862
  20
30.862178
  0
VERTEX
  5
a8a
  8
Layer_0
  10
141.19515
  20
30.226577
  0
VERTEX
  5
a8b
  8
Layer_0
  10
140.52916
  20
25.185036
  0
VERTEX
  5
a8c
  8
Layer_0
  10
138.35873
  20
25.185036
  0
VERTEX
  5
a8d
  8
Layer_0
  10
137.92274
  20
25.187427
  0
VERTEX
  5
a8e
  8
Layer_0
  10
137.51599
  20
25.19428
  0
VERTEX
  5
a8f
  8
Layer_0
  10
137.1474
  20
25.205114
  0
VERTEX
  5
a90
  8
Layer_0
  10
136.82586
  20
25.219449
  0
VERTEX
  5
a91
  8
Layer_0
  10
136.56028
  20
25.236805
  0
VERTEX
  5
a92
  8
Layer_0
  10
136.35956
  20
25.2567
  0
VERTEX
  5
a93
  8
Layer_0
  10
136.2326
  20
25.278654
  0
VERTEX
  5
a94
  8
Layer_0
  10
136.1883
  20
25.302187
  0
VERTEX
  5
a95
  8
Layer_0
  10
136.19213
  20
25.342487
  0
VERTEX
  5
a96
  8
Layer_0
  10
136.20336
  20
25.437315
  0
VERTEX
  5
a97
  8
Layer_0
  10
136.22161
  20
25.583808
  0
VERTEX
  5
a98
  8
Layer_0
  10
136.24651
  20
25.779103
  0
VERTEX
  5
a99
  8
Layer_0
  10
136.27768
  20
26.020337
  0
VERTEX
  5
a9a
  8
Layer_0
  10
136.31473
  20
26.304645
  0
VERTEX
  5
a9b
  8
Layer_0
  10
136.3573
  20
26.629166
  0
VERTEX
  5
a9c
  8
Layer_0
  10
136.405
  20
26.991035
  0
VERTEX
  5
a9d
  8
Layer_0
  10
136.45745
  20
27.38739
  0
VERTEX
  5
a9e
  8
Layer_0
  10
136.51429
  20
27.815367
  0
VERTEX
  5
a9f
  8
Layer_0
  10
136.57512
  20
28.272102
  0
VERTEX
  5
aa0
  8
Layer_0
  10
136.63957
  20
28.754733
  0
VERTEX
  5
aa1
  8
Layer_0
  10
136.77781
  20
29.786228
  0
VERTEX
  5
aa2
  8
Layer_0
  10
136.92601
  20
30.886946
  0
VERTEX
  5
aa3
  8
Layer_0
  10
137.0742
  20
31.986903
  0
VERTEX
  5
aa4
  8
Layer_0
  10
137.21245
  20
33.016218
  0
VERTEX
  5
aa5
  8
Layer_0
  10
137.2769
  20
33.497275
  0
VERTEX
  5
aa6
  8
Layer_0
  10
137.33773
  20
33.952138
  0
VERTEX
  5
aa7
  8
Layer_0
  10
137.39456
  20
34.377965
  0
VERTEX
  5
aa8
  8
Layer_0
  10
137.44701
  20
34.77191
  0
VERTEX
  5
aa9
  8
Layer_0
  10
137.49471
  20
35.13113
  0
VERTEX
  5
aaa
  8
Layer_0
  10
137.53728
  20
35.452781
  0
VERTEX
  5
aab
  8
Layer_0
  10
137.57434
  20
35.734017
  0
VERTEX
  5
aac
  8
Layer_0
  10
137.6055
  20
35.971996
  0
VERTEX
  5
aad
  8
Layer_0
  10
137.6304
  20
36.163872
  0
VERTEX
  5
aae
  8
Layer_0
  10
137.64865
  20
36.306802
  0
VERTEX
  5
aaf
  8
Layer_0
  10
137.65988
  20
36.397942
  0
VERTEX
  5
ab0
  8
Layer_0
  10
137.66371
  20
36.434447
  0
VERTEX
  5
ab1
  8
Layer_0
  10
137.63039
  20
36.450495
  0
VERTEX
  5
ab2
  8
Layer_0
  10
137.53489
  20
36.465467
  0
VERTEX
  5
ab3
  8
Layer_0
  10
137.3839
  20
36.479035
  0
VERTEX
  5
ab4
  8
Layer_0
  10
137.18413
  20
36.490871
  0
VERTEX
  5
ab5
  8
Layer_0
  10
136.94227
  20
36.500648
  0
VERTEX
  5
ab6
  8
Layer_0
  10
136.66501
  20
36.508037
  0
VERTEX
  5
ab7
  8
Layer_0
  10
136.35906
  20
36.51271
  0
VERTEX
  5
ab8
  8
Layer_0
  10
136.0311
  20
36.514341
  0
VERTEX
  5
ab9
  8
Layer_0
  10
134.39848
  20
36.514339
  0
VERTEX
  5
aba
  8
Layer_0
  10
134.55354
  20
37.703918
  0
VERTEX
  5
abb
  8
Layer_0
  10
134.61393
  20
38.214976
  0
VERTEX
  5
abc
  8
Layer_0
  10
134.66369
  20
38.727096
  0
VERTEX
  5
abd
  8
Layer_0
  10
134.68298
  20
38.964967
  0
VERTEX
  5
abe
  8
Layer_0
  10
134.69769
  20
39.180799
  0
VERTEX
  5
abf
  8
Layer_0
  10
134.70716
  20
39.367157
  0
VERTEX
  5
ac0
  8
Layer_0
  10
134.71076
  20
39.516607
  0
VERTEX
  5
ac1
  8
Layer_0
  10
134.71289
  20
40.139717
  0
VERTEX
  5
ac2
  8
Layer_0
  10
140.26982
  20
40.139717
  0
VERTEX
  5
ac3
  8
Layer_0
  10
145.82675
  20
40.139717
  0
VERTEX
  5
ac4
  8
Layer_0
  10
145.66197
  20
38.723557
  0
SEQEND
  0
CIRCLE
  5
ac6
  8
Layer_0
  62
7
  10
10
  20
32.5
  30
0
  40
2
  0
CIRCLE
  5
ac6
  8
Layer_0
  62
7
  10
155
  20
32.5
  30
0
  40
2
  0
ENDSEC
  0
EOF
