  0
SECTION
  2
HEADER
  9
$ACADVER
  1
AC1009
  0
ENDSEC
  0
SECTION
  2
TABLES
  0
TABLE
  2
LAYER
  70
1
  0
LAYER
  2
Layer_0
  70
0
  62
7
  6
CONTINUOUS
  0
ENDTAB
  0
ENDSEC
  0
SECTION
  2
ENTITIES
  0
POLYLINE
  5
90
  8
Layer_0
  62
7
  70
1
  66
1
  10
0
  20
0
  30
0
  0
VERTEX
  5
90
  8
Layer_0
  10
11.5
  20
51.499969
  42
-0.41421356
  0
VERTEX
  5
91
  8
Layer_0
  10
9.5
  20
53.499969
  0
VERTEX
  5
92
  8
Layer_0
  10
9.5
  20
99.499969
  42
-0.41421356
  0
VERTEX
  5
93
  8
Layer_0
  10
11.5
  20
101.49997
  0
VERTEX
  5
94
  8
Layer_0
  10
718.5
  20
101.49997
  42
-0.41421356
  0
VERTEX
  5
95
  8
Layer_0
  10
720.5
  20
99.499969
  0
VERTEX
  5
96
  8
Layer_0
  10
720.5
  20
53.499969
  42
-0.41421356
  0
VERTEX
  5
97
  8
Layer_0
  10
718.5
  20
51.499969
  0
VERTEX
  5
98
  8
Layer_0
  10
703.91156
  20
51.499969
  42
0.31737266
  0
VERTEX
  5
99
  8
Layer_0
  10
702.02716
  20
50.169983
  0
VERTEX
  5
9a
  8
Layer_0
  10
686.97284
  20
7.8299561
  42
-0.31737266
  0
VERTEX
  5
9b
  8
Layer_0
  10
685.08844
  20
6.4999695
  0
VERTEX
  5
9c
  8
Layer_0
  10
506.91156
  20
6.4999695
  42
-0.31737266
  0
VERTEX
  5
9d
  8
Layer_0
  10
505.02716
  20
7.8299561
  0
VERTEX
  5
9e
  8
Layer_0
  10
489.97287
  20
50.169983
  42
0.31734237
  0
VERTEX
  5
9f
  8
Layer_0
  10
488.08844
  20
51.499969
  0
VERTEX
  5
a0
  8
Layer_0
  10
472.91156
  20
51.499969
  42
0.31734567
  0
VERTEX
  5
a1
  8
Layer_0
  10
471.02713
  20
50.169983
  0
VERTEX
  5
a2
  8
Layer_0
  10
455.97287
  20
7.8299561
  42
-0.31734237
  0
VERTEX
  5
a3
  8
Layer_0
  10
454.08844
  20
6.4999695
  0
VERTEX
  5
a4
  8
Layer_0
  10
275.91156
  20
6.4999695
  42
-0.31734567
  0
VERTEX
  5
a5
  8
Layer_0
  10
274.02713
  20
7.8299561
  0
VERTEX
  5
a6
  8
Layer_0
  10
258.97287
  20
50.169983
  42
0.31734237
  0
VERTEX
  5
a7
  8
Layer_0
  10
257.08844
  20
51.499969
  0
VERTEX
  5
a8
  8
Layer_0
  10
241.91156
  20
51.499969
  42
0.31734567
  0
VERTEX
  5
a9
  8
Layer_0
  10
240.02713
  20
50.169983
  0
VERTEX
  5
aa
  8
Layer_0
  10
224.97289
  20
7.8299561
  42
-0.31735201
  0
VERTEX
  5
ab
  8
Layer_0
  10
223.08846
  20
6.4999695
  0
VERTEX
  5
ac
  8
Layer_0
  10
44.911545
  20
6.4999695
  42
-0.31734967
  0
VERTEX
  5
ad
  8
Layer_0
  10
43.027119
  20
7.8299561
  0
VERTEX
  5
ae
  8
Layer_0
  10
27.972881
  20
50.169983
  42
0.3173485
  0
VERTEX
  5
af
  8
Layer_0
  10
26.088451
  20
51.499969
  0
SEQEND
  0
ENDSEC
  0
EOF
