  0
SECTION
  2
HEADER
  9
$ACADVER
  1
AC1009
  0
ENDSEC
  0
SECTION
  2
TABLES
  0
TABLE
  2
LAYER
  70
1
  0
LAYER
  2
Layer_0
  70
0
  62
7
  6
CONTINUOUS
  0
ENDTAB
  0
ENDSEC
  0
SECTION
  2
ENTITIES
  0
POLYLINE
  5
90
  8
Layer_0
  62
7
  70
1
  66
1
  10
0
  20
0
  30
0
  0
VERTEX
  5
90
  8
Layer_0
  10
126.57629
  20
20.440704
  0
VERTEX
  5
91
  8
Layer_0
  10
130.29187
  20
21.699636
  0
VERTEX
  5
92
  8
Layer_0
  10
133.99097
  20
22.993876
  0
VERTEX
  5
93
  8
Layer_0
  10
137.67346
  20
24.323223
  0
VERTEX
  5
94
  8
Layer_0
  10
141.33911
  20
25.687479
  0
VERTEX
  5
95
  8
Layer_0
  10
144.98773
  20
27.086441
  0
VERTEX
  5
96
  8
Layer_0
  10
148.61908
  20
28.519909
  0
VERTEX
  5
97
  8
Layer_0
  10
152.23303
  20
29.98768
  0
VERTEX
  5
98
  8
Layer_0
  10
155.82935
  20
31.489555
  0
VERTEX
  5
99
  8
Layer_0
  10
159.40778
  20
33.025333
  0
VERTEX
  5
9a
  8
Layer_0
  10
162.9682
  20
34.594814
  0
VERTEX
  5
9b
  8
Layer_0
  10
166.51038
  20
36.197796
  0
VERTEX
  5
9c
  8
Layer_0
  10
170.03406
  20
37.834076
  0
VERTEX
  5
9d
  8
Layer_0
  10
173.53912
  20
39.503456
  0
VERTEX
  5
9e
  8
Layer_0
  10
177.02539
  20
41.205734
  0
VERTEX
  5
9f
  8
Layer_0
  10
180.49255
  20
42.940712
  0
VERTEX
  5
a0
  8
Layer_0
  10
183.94049
  20
44.708187
  0
VERTEX
  5
a1
  8
Layer_0
  10
187.36896
  20
46.507954
  0
VERTEX
  5
a2
  8
Layer_0
  10
190.77777
  20
48.339821
  0
VERTEX
  5
a3
  8
Layer_0
  10
194.16675
  20
50.203575
  0
VERTEX
  5
a4
  8
Layer_0
  10
197.53571
  20
52.09903
  0
VERTEX
  5
a5
  8
Layer_0
  10
200.88434
  20
54.02597
  0
VERTEX
  5
a6
  8
Layer_0
  10
204.21259
  20
55.984207
  0
VERTEX
  5
a7
  8
Layer_0
  10
207.52014
  20
57.97353
  0
VERTEX
  5
a8
  8
Layer_0
  10
210.80682
  20
59.993748
  0
VERTEX
  5
a9
  8
Layer_0
  10
214.07251
  20
62.044651
  0
VERTEX
  5
aa
  8
Layer_0
  10
217.31689
  20
64.126038
  0
VERTEX
  5
ab
  8
Layer_0
  10
220.53986
  20
66.237717
  0
VERTEX
  5
ac
  8
Layer_0
  10
223.74109
  20
68.379486
  0
VERTEX
  5
ad
  8
Layer_0
  10
226.92053
  20
70.551132
  0
VERTEX
  5
ae
  8
Layer_0
  10
230.07788
  20
72.752464
  0
VERTEX
  5
af
  8
Layer_0
  10
233.21295
  20
74.983284
  0
VERTEX
  5
b0
  8
Layer_0
  10
236.32562
  20
77.243385
  0
VERTEX
  5
b1
  8
Layer_0
  10
239.41559
  20
79.53257
  0
VERTEX
  5
b2
  8
Layer_0
  10
242.48267
  20
81.850632
  0
VERTEX
  5
b3
  8
Layer_0
  10
245.52673
  20
84.197372
  0
VERTEX
  5
b4
  8
Layer_0
  10
248.54749
  20
86.572594
  0
VERTEX
  5
b5
  8
Layer_0
  10
251.5448
  20
88.976097
  0
VERTEX
  5
b6
  8
Layer_0
  10
254.51843
  20
91.407677
  0
VERTEX
  5
b7
  8
Layer_0
  10
257.4682
  20
93.867126
  0
VERTEX
  5
b8
  8
Layer_0
  10
260.39392
  20
96.354256
  0
VERTEX
  5
b9
  8
Layer_0
  10
263.29535
  20
98.868858
  0
VERTEX
  5
ba
  8
Layer_0
  10
266.1723
  20
101.41074
  0
VERTEX
  5
bb
  8
Layer_0
  10
269.0246
  20
103.97969
  0
VERTEX
  5
bc
  8
Layer_0
  10
271.85199
  20
106.57551
  0
VERTEX
  5
bd
  8
Layer_0
  10
274.65436
  20
109.19801
  0
VERTEX
  5
be
  8
Layer_0
  10
277.4314
  20
111.84697
  0
VERTEX
  5
bf
  8
Layer_0
  10
280.18298
  20
114.52221
  0
VERTEX
  5
c0
  8
Layer_0
  10
282.90894
  20
117.22351
  0
VERTEX
  5
c1
  8
Layer_0
  10
285.60895
  20
119.95068
  0
VERTEX
  5
c2
  8
Layer_0
  10
288.2829
  20
122.70351
  0
VERTEX
  5
c3
  8
Layer_0
  10
290.9306
  20
125.48182
  0
VERTEX
  5
c4
  8
Layer_0
  10
293.55176
  20
128.28539
  0
VERTEX
  5
c5
  8
Layer_0
  10
296.1463
  20
131.11401
  0
VERTEX
  5
c6
  8
Layer_0
  10
298.71393
  20
133.96751
  0
VERTEX
  5
c7
  8
Layer_0
  10
301.25446
  20
136.84567
  0
VERTEX
  5
c8
  8
Layer_0
  10
303.76776
  20
139.74829
  0
VERTEX
  5
c9
  8
Layer_0
  10
306.25354
  20
142.67517
  0
VERTEX
  5
ca
  8
Layer_0
  10
308.71161
  20
145.62611
  0
VERTEX
  5
cb
  8
Layer_0
  10
311.14185
  20
148.60091
  0
VERTEX
  5
cc
  8
Layer_0
  10
313.54395
  20
151.59937
  0
VERTEX
  5
cd
  8
Layer_0
  10
315.91779
  20
154.62128
  0
VERTEX
  5
ce
  8
Layer_0
  10
318.26312
  20
157.66644
  0
VERTEX
  5
cf
  8
Layer_0
  10
320.57983
  20
160.73466
  0
VERTEX
  5
d0
  8
Layer_0
  10
322.86755
  20
163.82574
  0
VERTEX
  5
d1
  8
Layer_0
  10
325.12622
  20
166.93948
  0
VERTEX
  5
d2
  8
Layer_0
  10
327.35565
  20
170.07567
  0
VERTEX
  5
d3
  8
Layer_0
  10
329.55554
  20
173.23412
  0
VERTEX
  5
d4
  8
Layer_0
  10
331.72571
  20
176.4146
  0
VERTEX
  5
d5
  8
Layer_0
  10
333.86603
  20
179.61694
  0
VERTEX
  5
d6
  8
Layer_0
  10
335.97626
  20
182.84093
  0
VERTEX
  5
d7
  8
Layer_0
  10
338.05615
  20
186.08636
  0
VERTEX
  5
d8
  8
Layer_0
  10
340.10553
  20
189.35304
  0
VERTEX
  5
d9
  8
Layer_0
  10
342.12427
  20
192.64078
  0
VERTEX
  5
da
  8
Layer_0
  10
344.11206
  20
195.94936
  0
VERTEX
  5
db
  8
Layer_0
  10
346.06879
  20
199.27856
  0
VERTEX
  5
dc
  8
Layer_0
  10
347.9942
  20
202.62823
  0
VERTEX
  5
dd
  8
Layer_0
  10
349.88812
  20
205.99815
  0
VERTEX
  5
de
  8
Layer_0
  10
351.75031
  20
209.38811
  0
VERTEX
  5
df
  8
Layer_0
  10
353.58063
  20
212.7979
  0
VERTEX
  5
e0
  8
Layer_0
  10
355.37885
  20
216.22733
  0
VERTEX
  5
e1
  8
Layer_0
  10
357.14471
  20
219.67619
  0
VERTEX
  5
e2
  8
Layer_0
  10
358.87811
  20
223.1443
  0
VERTEX
  5
e3
  8
Layer_0
  10
360.5788
  20
226.63145
  0
VERTEX
  5
e4
  8
Layer_0
  10
362.24652
  20
230.13744
  0
VERTEX
  5
e5
  8
Layer_0
  10
363.88123
  20
233.66206
  0
VERTEX
  5
e6
  8
Layer_0
  10
365.48254
  20
237.20511
  0
VERTEX
  5
e7
  8
Layer_0
  10
367.05042
  20
240.7664
  0
VERTEX
  5
e8
  8
Layer_0
  10
368.58453
  20
244.34573
  0
VERTEX
  5
e9
  8
Layer_0
  10
370.08472
  20
247.94289
  0
VERTEX
  5
ea
  8
Layer_0
  10
371.55084
  20
251.55766
  0
VERTEX
  5
eb
  8
Layer_0
  10
372.98267
  20
255.1899
  0
VERTEX
  5
ec
  8
Layer_0
  10
374.37988
  20
258.83932
  0
VERTEX
  5
ed
  8
Layer_0
  10
375.74249
  20
262.50583
  0
VERTEX
  5
ee
  8
Layer_0
  10
377.07013
  20
266.18912
  0
VERTEX
  5
ef
  8
Layer_0
  10
378.36261
  20
269.88907
  0
VERTEX
  5
f0
  8
Layer_0
  10
379.61981
  20
273.60541
  0
VERTEX
  5
f1
  8
Layer_0
  10
380.84149
  20
277.33801
  0
VERTEX
  5
f2
  8
Layer_0
  10
382.02747
  20
281.08661
  0
VERTEX
  5
f3
  8
Layer_0
  10
383.17749
  20
284.85104
  0
VERTEX
  5
f4
  8
Layer_0
  10
384.29144
  20
288.6311
  0
VERTEX
  5
f5
  8
Layer_0
  10
385.36902
  20
292.42657
  0
VERTEX
  5
f6
  8
Layer_0
  10
386.4101
  20
296.23727
  0
VERTEX
  5
f7
  8
Layer_0
  10
387.41449
  20
300.06299
  0
VERTEX
  5
f8
  8
Layer_0
  10
388.3819
  20
303.90353
  0
VERTEX
  5
f9
  8
Layer_0
  10
389.31219
  20
307.7587
  0
VERTEX
  5
fa
  8
Layer_0
  10
390.20514
  20
311.62827
  0
VERTEX
  5
fb
  8
Layer_0
  10
391.06061
  20
315.51205
  0
VERTEX
  5
fc
  8
Layer_0
  10
391.8783
  20
319.40988
  0
VERTEX
  5
fd
  8
Layer_0
  10
392.65808
  20
323.3215
  0
VERTEX
  5
fe
  8
Layer_0
  10
393.39972
  20
327.24673
  0
VERTEX
  5
ff
  8
Layer_0
  10
394.10303
  20
331.18539
  0
VERTEX
  5
100
  8
Layer_0
  10
394.76782
  20
335.13724
  0
VERTEX
  5
101
  8
Layer_0
  10
395.39386
  20
339.10211
  0
VERTEX
  5
102
  8
Layer_0
  10
395.98102
  20
343.0798
  0
VERTEX
  5
103
  8
Layer_0
  10
396.52899
  20
347.0701
  0
VERTEX
  5
104
  8
Layer_0
  10
397.0376
  20
351.07281
  0
VERTEX
  5
105
  8
Layer_0
  10
397.50671
  20
355.08771
  0
VERTEX
  5
106
  8
Layer_0
  10
397.9361
  20
359.11462
  0
VERTEX
  5
107
  8
Layer_0
  10
398.3255
  20
363.15335
  0
VERTEX
  5
108
  8
Layer_0
  10
398.6748
  20
367.20367
  0
VERTEX
  5
109
  8
Layer_0
  10
398.98376
  20
371.26541
  0
VERTEX
  5
10a
  8
Layer_0
  10
399.2522
  20
375.33835
  0
VERTEX
  5
10b
  8
Layer_0
  10
399.47986
  20
379.4223
  0
VERTEX
  5
10c
  8
Layer_0
  10
399.66656
  20
383.51703
  0
VERTEX
  5
10d
  8
Layer_0
  10
399.81213
  20
387.62238
  0
VERTEX
  5
10e
  8
Layer_0
  10
399.91638
  20
391.73813
  0
VERTEX
  5
10f
  8
Layer_0
  10
399.97906
  20
395.86407
  0
VERTEX
  5
110
  8
Layer_0
  10
400
  20
400
  42
0.41421356
  0
VERTEX
  5
111
  8
Layer_0
  10
0
  20
800
  42
0.41421356
  0
VERTEX
  5
112
  8
Layer_0
  10
-400
  20
400
  42
0.41421356
  0
VERTEX
  5
113
  8
Layer_0
  10
0
  20
0
  0
VERTEX
  5
114
  8
Layer_0
  10
0
  20
399.75
  42
-0.41421356
  0
VERTEX
  5
115
  8
Layer_0
  10
-0.25
  20
400
  42
-0.41421356
  0
VERTEX
  5
116
  8
Layer_0
  10
0
  20
400.25
  42
-0.41421356
  0
VERTEX
  5
117
  8
Layer_0
  10
0.25
  20
400
  0
SEQEND
  0
CIRCLE
  5
119
  8
Layer_0
  62
7
  10
-15
  20
361.75
  30
0
  40
1.75
  0
CIRCLE
  5
119
  8
Layer_0
  62
7
  10
-15
  20
21.75
  30
0
  40
1.75
  0
CIRCLE
  5
119
  8
Layer_0
  62
7
  10
-15
  20
191.75
  30
0
  40
1.75
  0
CIRCLE
  5
119
  8
Layer_0
  62
7
  10
-15
  20
276.75
  30
0
  40
1.75
  0
CIRCLE
  5
119
  8
Layer_0
  62
7
  10
-15
  20
106.75
  30
0
  40
1.75
  0
ENDSEC
  0
EOF
