  0
SECTION
  2
HEADER
  9
$ACADVER
  1
AC1009
  0
ENDSEC
  0
SECTION
  2
TABLES
  0
TABLE
  2
LAYER
  70
2
  0
LAYER
  2
Layer_1
  70
0
  62
5
  6
CONTINUOUS
  0
LAYER
  2
Layer_0
  70
0
  62
7
  6
CONTINUOUS
  0
ENDTAB
  0
ENDSEC
  0
SECTION
  2
ENTITIES
  0
POLYLINE
  5
90
  8
Layer_0
  62
7
  70
1
  66
1
  10
0
  20
0
  30
0
  0
VERTEX
  5
90
  8
Layer_0
  10
60
  20
670.00012
  0
VERTEX
  5
91
  8
Layer_0
  10
59.999992
  20
630.00012
  0
VERTEX
  5
92
  8
Layer_0
  10
64.999992
  20
630.00012
  0
VERTEX
  5
93
  8
Layer_0
  10
49.999992
  20
600.00012
  0
VERTEX
  5
94
  8
Layer_0
  10
34.999992
  20
630.00012
  0
VERTEX
  5
95
  8
Layer_0
  10
39.999992
  20
630.00012
  0
VERTEX
  5
96
  8
Layer_0
  10
40
  20
670.00012
  0
VERTEX
  5
97
  8
Layer_0
  10
-3.9802308e-07
  20
670.00012
  0
VERTEX
  5
98
  8
Layer_0
  10
9.5367432e-06
  20
770.00012
  0
VERTEX
  5
99
  8
Layer_0
  10
1220
  20
770
  0
VERTEX
  5
9a
  8
Layer_0
  10
1220
  20
670
  0
VERTEX
  5
9b
  8
Layer_0
  10
1152
  20
670
  0
VERTEX
  5
9c
  8
Layer_0
  10
1152
  20
630
  0
VERTEX
  5
9d
  8
Layer_0
  10
1157
  20
630
  0
VERTEX
  5
9e
  8
Layer_0
  10
1142
  20
600
  0
VERTEX
  5
9f
  8
Layer_0
  10
1127
  20
630
  0
VERTEX
  5
a0
  8
Layer_0
  10
1132
  20
630
  0
VERTEX
  5
a1
  8
Layer_0
  10
1132
  20
670
  0
VERTEX
  5
a2
  8
Layer_0
  10
970
  20
670
  0
VERTEX
  5
a3
  8
Layer_0
  10
970
  20
630
  0
VERTEX
  5
a4
  8
Layer_0
  10
975
  20
630
  0
VERTEX
  5
a5
  8
Layer_0
  10
960
  20
600
  0
VERTEX
  5
a6
  8
Layer_0
  10
945
  20
630
  0
VERTEX
  5
a7
  8
Layer_0
  10
950
  20
630
  0
VERTEX
  5
a8
  8
Layer_0
  10
950
  20
670
  0
VERTEX
  5
a9
  8
Layer_0
  10
788
  20
670.00006
  0
VERTEX
  5
aa
  8
Layer_0
  10
788
  20
630.00006
  0
VERTEX
  5
ab
  8
Layer_0
  10
793
  20
630.00006
  0
VERTEX
  5
ac
  8
Layer_0
  10
778
  20
600.00006
  0
VERTEX
  5
ad
  8
Layer_0
  10
763
  20
630.00006
  0
VERTEX
  5
ae
  8
Layer_0
  10
768
  20
630.00006
  0
VERTEX
  5
af
  8
Layer_0
  10
768
  20
670.00006
  0
VERTEX
  5
b0
  8
Layer_0
  10
606
  20
670.00006
  0
VERTEX
  5
b1
  8
Layer_0
  10
606
  20
630.00006
  0
VERTEX
  5
b2
  8
Layer_0
  10
611
  20
630.00006
  0
VERTEX
  5
b3
  8
Layer_0
  10
596
  20
600.00006
  0
VERTEX
  5
b4
  8
Layer_0
  10
581
  20
630.00006
  0
VERTEX
  5
b5
  8
Layer_0
  10
586
  20
630.00006
  0
VERTEX
  5
b6
  8
Layer_0
  10
586
  20
670.00006
  0
VERTEX
  5
b7
  8
Layer_0
  10
424
  20
670.00006
  0
VERTEX
  5
b8
  8
Layer_0
  10
424
  20
630.00006
  0
VERTEX
  5
b9
  8
Layer_0
  10
429
  20
630.00006
  0
VERTEX
  5
ba
  8
Layer_0
  10
413.99997
  20
600.00006
  0
VERTEX
  5
bb
  8
Layer_0
  10
399
  20
630.00006
  0
VERTEX
  5
bc
  8
Layer_0
  10
404
  20
630.00006
  0
VERTEX
  5
bd
  8
Layer_0
  10
404
  20
670.00006
  0
VERTEX
  5
be
  8
Layer_0
  10
242
  20
670.00012
  0
VERTEX
  5
bf
  8
Layer_0
  10
242
  20
630.00012
  0
VERTEX
  5
c0
  8
Layer_0
  10
247
  20
630.00012
  0
VERTEX
  5
c1
  8
Layer_0
  10
232
  20
600.00012
  0
VERTEX
  5
c2
  8
Layer_0
  10
217
  20
630.00012
  0
VERTEX
  5
c3
  8
Layer_0
  10
222
  20
630.00012
  0
VERTEX
  5
c4
  8
Layer_0
  10
222
  20
670.00012
  0
SEQEND
  0
CIRCLE
  5
c6
  8
Layer_0
  62
7
  10
15.00001
  20
745.00012
  30
0
  40
3
  0
CIRCLE
  5
c6
  8
Layer_0
  62
7
  10
15.00001
  20
695.00012
  30
0
  40
3
  0
CIRCLE
  5
c6
  8
Layer_0
  62
7
  10
1205
  20
745.00012
  30
0
  40
3
  0
CIRCLE
  5
c6
  8
Layer_0
  62
7
  10
1205
  20
695.00012
  30
0
  40
3
  0
POLYLINE
  5
c6
  8
Layer_0
  62
7
  70
1
  66
1
  10
0
  20
0
  30
0
  0
VERTEX
  5
c6
  8
Layer_0
  10
-244
  20
2759
  0
VERTEX
  5
c7
  8
Layer_0
  10
-284
  20
2759
  0
VERTEX
  5
c8
  8
Layer_0
  10
-284
  20
2754
  0
VERTEX
  5
c9
  8
Layer_0
  10
-314
  20
2769
  0
VERTEX
  5
ca
  8
Layer_0
  10
-284
  20
2784
  0
VERTEX
  5
cb
  8
Layer_0
  10
-284
  20
2779
  0
VERTEX
  5
cc
  8
Layer_0
  10
-244
  20
2779
  0
VERTEX
  5
cd
  8
Layer_0
  10
-244
  20
2819
  0
VERTEX
  5
ce
  8
Layer_0
  10
-144
  20
2819
  0
VERTEX
  5
cf
  8
Layer_0
  10
-144
  20
1599
  0
VERTEX
  5
d0
  8
Layer_0
  10
-244
  20
1599
  0
VERTEX
  5
d1
  8
Layer_0
  10
-244
  20
1667
  0
VERTEX
  5
d2
  8
Layer_0
  10
-284
  20
1667
  0
VERTEX
  5
d3
  8
Layer_0
  10
-284
  20
1662
  0
VERTEX
  5
d4
  8
Layer_0
  10
-314
  20
1677
  0
VERTEX
  5
d5
  8
Layer_0
  10
-284
  20
1692
  0
VERTEX
  5
d6
  8
Layer_0
  10
-284
  20
1687
  0
VERTEX
  5
d7
  8
Layer_0
  10
-244
  20
1687
  0
VERTEX
  5
d8
  8
Layer_0
  10
-244
  20
1849
  0
VERTEX
  5
d9
  8
Layer_0
  10
-284
  20
1849
  0
VERTEX
  5
da
  8
Layer_0
  10
-284
  20
1844
  0
VERTEX
  5
db
  8
Layer_0
  10
-314
  20
1859
  0
VERTEX
  5
dc
  8
Layer_0
  10
-284
  20
1874
  0
VERTEX
  5
dd
  8
Layer_0
  10
-284
  20
1869
  0
VERTEX
  5
de
  8
Layer_0
  10
-244
  20
1869
  0
VERTEX
  5
df
  8
Layer_0
  10
-244
  20
2031
  0
VERTEX
  5
e0
  8
Layer_0
  10
-284
  20
2031
  0
VERTEX
  5
e1
  8
Layer_0
  10
-284
  20
2026
  0
VERTEX
  5
e2
  8
Layer_0
  10
-314
  20
2041
  0
VERTEX
  5
e3
  8
Layer_0
  10
-284
  20
2056
  0
VERTEX
  5
e4
  8
Layer_0
  10
-284
  20
2051
  0
VERTEX
  5
e5
  8
Layer_0
  10
-244
  20
2051
  0
VERTEX
  5
e6
  8
Layer_0
  10
-244
  20
2213
  0
VERTEX
  5
e7
  8
Layer_0
  10
-284
  20
2213
  0
VERTEX
  5
e8
  8
Layer_0
  10
-284
  20
2208
  0
VERTEX
  5
e9
  8
Layer_0
  10
-314
  20
2223
  0
VERTEX
  5
ea
  8
Layer_0
  10
-284
  20
2238
  0
VERTEX
  5
eb
  8
Layer_0
  10
-284
  20
2233
  0
VERTEX
  5
ec
  8
Layer_0
  10
-244
  20
2233
  0
VERTEX
  5
ed
  8
Layer_0
  10
-244
  20
2395
  0
VERTEX
  5
ee
  8
Layer_0
  10
-284
  20
2395
  0
VERTEX
  5
ef
  8
Layer_0
  10
-284
  20
2390
  0
VERTEX
  5
f0
  8
Layer_0
  10
-314
  20
2405
  0
VERTEX
  5
f1
  8
Layer_0
  10
-284
  20
2420
  0
VERTEX
  5
f2
  8
Layer_0
  10
-284
  20
2415
  0
VERTEX
  5
f3
  8
Layer_0
  10
-244
  20
2415
  0
VERTEX
  5
f4
  8
Layer_0
  10
-244
  20
2577
  0
VERTEX
  5
f5
  8
Layer_0
  10
-284
  20
2577
  0
VERTEX
  5
f6
  8
Layer_0
  10
-284
  20
2572
  0
VERTEX
  5
f7
  8
Layer_0
  10
-314
  20
2587
  0
VERTEX
  5
f8
  8
Layer_0
  10
-284
  20
2602
  0
VERTEX
  5
f9
  8
Layer_0
  10
-284
  20
2597
  0
VERTEX
  5
fa
  8
Layer_0
  10
-244
  20
2597
  0
SEQEND
  0
CIRCLE
  5
fc
  8
Layer_0
  62
7
  10
-169
  20
2804
  30
0
  40
3
  0
CIRCLE
  5
fc
  8
Layer_0
  62
7
  10
-219
  20
2804
  30
0
  40
3
  0
CIRCLE
  5
fc
  8
Layer_0
  62
7
  10
-169
  20
1614
  30
0
  40
3
  0
CIRCLE
  5
fc
  8
Layer_0
  62
7
  10
-219
  20
1614
  30
0
  40
3
  0
CIRCLE
  5
fc
  8
Layer_0
  62
7
  10
1205.0001
  20
470.00024
  30
0
  40
3
  0
CIRCLE
  5
fc
  8
Layer_0
  62
7
  10
1205.0001
  20
420.00024
  30
0
  40
3
  0
CIRCLE
  5
fc
  8
Layer_0
  62
7
  10
15.000122
  20
470.00024
  30
0
  40
3
  0
CIRCLE
  5
fc
  8
Layer_0
  62
7
  10
15.000122
  20
420.00024
  30
0
  40
3
  0
CIRCLE
  5
fc
  8
Layer_0
  62
7
  10
1205.0001
  20
245.00012
  30
0
  40
3
  0
CIRCLE
  5
fc
  8
Layer_0
  62
7
  10
1205.0001
  20
195.00012
  30
0
  40
3
  0
CIRCLE
  5
fc
  8
Layer_0
  62
7
  10
15
  20
245.00012
  30
0
  40
3
  0
CIRCLE
  5
fc
  8
Layer_0
  62
7
  10
15
  20
195.00012
  30
0
  40
3
  0
CIRCLE
  5
fc
  8
Layer_0
  62
7
  10
8612
  20
-4673
  30
0
  40
3
  0
CIRCLE
  5
fc
  8
Layer_0
  62
7
  10
8612
  20
-4623
  30
0
  40
3
  0
CIRCLE
  5
fc
  8
Layer_0
  62
7
  10
7422
  20
-4673
  30
0
  40
3
  0
CIRCLE
  5
fc
  8
Layer_0
  62
7
  10
7422
  20
-4623
  30
0
  40
3
  0
POLYLINE
  5
fc
  8
Layer_0
  62
7
  70
1
  66
1
  10
0
  20
0
  30
0
  0
VERTEX
  5
fc
  8
Layer_0
  10
8638
  20
-4583.5
  0
VERTEX
  5
fd
  8
Layer_0
  10
7418
  20
-4583.5
  0
VERTEX
  5
fe
  8
Layer_0
  10
7418
  20
-4508.5
  0
VERTEX
  5
ff
  8
Layer_0
  10
8638
  20
-4508.5
  0
SEQEND
  0
POLYLINE
  5
101
  8
Layer_0
  62
7
  66
1
  10
0
  20
0
  30
0
  0
VERTEX
  5
101
  8
Layer_0
  10
1220
  20
970.00024
  0
VERTEX
  5
102
  8
Layer_0
  10
1220
  20
970
  0
VERTEX
  5
103
  8
Layer_0
  10
1152
  20
970
  0
VERTEX
  5
104
  8
Layer_0
  10
1152
  20
930
  0
VERTEX
  5
105
  8
Layer_0
  10
1157
  20
930
  0
VERTEX
  5
106
  8
Layer_0
  10
1142
  20
900
  0
VERTEX
  5
107
  8
Layer_0
  10
1127
  20
930
  0
VERTEX
  5
108
  8
Layer_0
  10
1132
  20
930
  0
VERTEX
  5
109
  8
Layer_0
  10
1132
  20
970
  0
VERTEX
  5
10a
  8
Layer_0
  10
970
  20
970
  0
VERTEX
  5
10b
  8
Layer_0
  10
970
  20
930
  0
VERTEX
  5
10c
  8
Layer_0
  10
975
  20
930
  0
VERTEX
  5
10d
  8
Layer_0
  10
960
  20
900
  0
VERTEX
  5
10e
  8
Layer_0
  10
945
  20
930
  0
VERTEX
  5
10f
  8
Layer_0
  10
950
  20
930
  0
VERTEX
  5
110
  8
Layer_0
  10
950
  20
970
  0
VERTEX
  5
111
  8
Layer_0
  10
788
  20
970.00006
  0
VERTEX
  5
112
  8
Layer_0
  10
788
  20
930.00006
  0
VERTEX
  5
113
  8
Layer_0
  10
793
  20
930.00006
  0
VERTEX
  5
114
  8
Layer_0
  10
778
  20
900.00006
  0
VERTEX
  5
115
  8
Layer_0
  10
763
  20
930.00006
  0
VERTEX
  5
116
  8
Layer_0
  10
768
  20
930.00006
  0
VERTEX
  5
117
  8
Layer_0
  10
768
  20
970.00006
  0
VERTEX
  5
118
  8
Layer_0
  10
606
  20
970.00006
  0
VERTEX
  5
119
  8
Layer_0
  10
606
  20
930.00006
  0
VERTEX
  5
11a
  8
Layer_0
  10
611
  20
930.00006
  0
VERTEX
  5
11b
  8
Layer_0
  10
596
  20
900.00006
  0
VERTEX
  5
11c
  8
Layer_0
  10
581
  20
930.00006
  0
VERTEX
  5
11d
  8
Layer_0
  10
586
  20
930.00006
  0
VERTEX
  5
11e
  8
Layer_0
  10
586
  20
970.00006
  0
VERTEX
  5
11f
  8
Layer_0
  10
424
  20
970.00006
  0
VERTEX
  5
120
  8
Layer_0
  10
424
  20
930.00006
  0
VERTEX
  5
121
  8
Layer_0
  10
429
  20
930.00006
  0
VERTEX
  5
122
  8
Layer_0
  10
413.99997
  20
900.00006
  0
VERTEX
  5
123
  8
Layer_0
  10
399
  20
930.00006
  0
VERTEX
  5
124
  8
Layer_0
  10
404
  20
930.00006
  0
VERTEX
  5
125
  8
Layer_0
  10
404
  20
970.00006
  0
VERTEX
  5
126
  8
Layer_0
  10
241.99998
  20
970.00012
  0
VERTEX
  5
127
  8
Layer_0
  10
241.99998
  20
930.00012
  0
VERTEX
  5
128
  8
Layer_0
  10
246.99998
  20
930.00012
  0
VERTEX
  5
129
  8
Layer_0
  10
231.99998
  20
900.00012
  0
VERTEX
  5
12a
  8
Layer_0
  10
216.99998
  20
930.00012
  0
VERTEX
  5
12b
  8
Layer_0
  10
221.99998
  20
930.00012
  0
VERTEX
  5
12c
  8
Layer_0
  10
221.99998
  20
970.00012
  0
VERTEX
  5
12d
  8
Layer_0
  10
59.999989
  20
970.00012
  0
VERTEX
  5
12e
  8
Layer_0
  10
59.999985
  20
930.00012
  0
VERTEX
  5
12f
  8
Layer_0
  10
64.999985
  20
930.00012
  0
VERTEX
  5
130
  8
Layer_0
  10
49.999985
  20
900.00012
  0
VERTEX
  5
131
  8
Layer_0
  10
34.999985
  20
930.00012
  0
VERTEX
  5
132
  8
Layer_0
  10
39.999985
  20
930.00012
  0
VERTEX
  5
133
  8
Layer_0
  10
39.999989
  20
970.00012
  0
VERTEX
  5
134
  8
Layer_0
  10
-9.9347662e-06
  20
970.00012
  0
SEQEND
  0
CIRCLE
  5
136
  8
Layer_0
  62
7
  10
12
  20
1032.5001
  30
0
  40
3
  0
CIRCLE
  5
136
  8
Layer_0
  62
7
  10
12
  20
982.50012
  30
0
  40
3
  0
CIRCLE
  5
136
  8
Layer_0
  62
7
  10
1202
  20
1032.5001
  30
0
  40
3
  0
CIRCLE
  5
136
  8
Layer_0
  62
7
  10
1202
  20
982.50012
  30
0
  40
3
  0
POLYLINE
  5
136
  8
Layer_0
  62
7
  66
1
  10
0
  20
0
  30
0
  0
VERTEX
  5
136
  8
Layer_0
  10
0
  20
970.00012
  0
VERTEX
  5
137
  8
Layer_0
  10
0
  20
1045.0001
  0
VERTEX
  5
138
  8
Layer_0
  10
1220
  20
1045.0001
  0
VERTEX
  5
139
  8
Layer_0
  10
1220
  20
970.00012
  0
SEQEND
  0
POLYLINE
  5
13b
  8
Layer_0
  62
7
  66
1
  10
0
  20
0
  30
0
  0
VERTEX
  5
13b
  8
Layer_0
  10
1220.0001
  20
370.00024
  0
VERTEX
  5
13c
  8
Layer_0
  10
1220.0001
  20
495.00024
  0
VERTEX
  5
13d
  8
Layer_0
  10
0.00012207031
  20
495.00024
  0
VERTEX
  5
13e
  8
Layer_0
  10
0.00012207031
  20
370.00024
  0
SEQEND
  0
POLYLINE
  5
140
  8
Layer_1
  62
5
  66
1
  10
0
  20
0
  30
0
  0
VERTEX
  5
140
  8
Layer_1
  10
-113
  20
2938
  0
VERTEX
  5
141
  8
Layer_1
  10
-113
  20
2938
  0
VERTEX
  5
142
  8
Layer_1
  10
-181
  20
2938
  0
VERTEX
  5
143
  8
Layer_1
  10
-181
  20
2898
  0
VERTEX
  5
144
  8
Layer_1
  10
-176
  20
2898
  0
VERTEX
  5
145
  8
Layer_1
  10
-191
  20
2868
  0
VERTEX
  5
146
  8
Layer_1
  10
-206
  20
2898
  0
VERTEX
  5
147
  8
Layer_1
  10
-201
  20
2898
  0
VERTEX
  5
148
  8
Layer_1
  10
-201
  20
2938
  0
VERTEX
  5
149
  8
Layer_1
  10
-363
  20
2938
  0
VERTEX
  5
14a
  8
Layer_1
  10
-363
  20
2898
  0
VERTEX
  5
14b
  8
Layer_1
  10
-358
  20
2898
  0
VERTEX
  5
14c
  8
Layer_1
  10
-373
  20
2868
  0
VERTEX
  5
14d
  8
Layer_1
  10
-388
  20
2898
  0
VERTEX
  5
14e
  8
Layer_1
  10
-383
  20
2898
  0
VERTEX
  5
14f
  8
Layer_1
  10
-383
  20
2938
  0
VERTEX
  5
150
  8
Layer_1
  10
-545
  20
2938
  0
VERTEX
  5
151
  8
Layer_1
  10
-545
  20
2898
  0
VERTEX
  5
152
  8
Layer_1
  10
-540
  20
2898
  0
VERTEX
  5
153
  8
Layer_1
  10
-555
  20
2868
  0
VERTEX
  5
154
  8
Layer_1
  10
-570
  20
2898
  0
VERTEX
  5
155
  8
Layer_1
  10
-565
  20
2898
  0
VERTEX
  5
156
  8
Layer_1
  10
-565
  20
2938
  0
VERTEX
  5
157
  8
Layer_1
  10
-727
  20
2938
  0
VERTEX
  5
158
  8
Layer_1
  10
-727
  20
2898
  0
VERTEX
  5
159
  8
Layer_1
  10
-722
  20
2898
  0
VERTEX
  5
15a
  8
Layer_1
  10
-737
  20
2868
  0
VERTEX
  5
15b
  8
Layer_1
  10
-752
  20
2898
  0
VERTEX
  5
15c
  8
Layer_1
  10
-747
  20
2898
  0
VERTEX
  5
15d
  8
Layer_1
  10
-747
  20
2938
  0
VERTEX
  5
15e
  8
Layer_1
  10
-909
  20
2938
  0
VERTEX
  5
15f
  8
Layer_1
  10
-909
  20
2898
  0
VERTEX
  5
160
  8
Layer_1
  10
-904
  20
2898
  0
VERTEX
  5
161
  8
Layer_1
  10
-919
  20
2868
  0
VERTEX
  5
162
  8
Layer_1
  10
-934
  20
2898
  0
VERTEX
  5
163
  8
Layer_1
  10
-929
  20
2898
  0
VERTEX
  5
164
  8
Layer_1
  10
-929
  20
2938
  0
VERTEX
  5
165
  8
Layer_1
  10
-1091
  20
2938
  0
VERTEX
  5
166
  8
Layer_1
  10
-1091
  20
2898
  0
VERTEX
  5
167
  8
Layer_1
  10
-1086
  20
2898
  0
VERTEX
  5
168
  8
Layer_1
  10
-1101
  20
2868
  0
VERTEX
  5
169
  8
Layer_1
  10
-1116
  20
2898
  0
VERTEX
  5
16a
  8
Layer_1
  10
-1111
  20
2898
  0
VERTEX
  5
16b
  8
Layer_1
  10
-1111
  20
2938
  0
VERTEX
  5
16c
  8
Layer_1
  10
-1273
  20
2938
  0
VERTEX
  5
16d
  8
Layer_1
  10
-1273
  20
2898
  0
VERTEX
  5
16e
  8
Layer_1
  10
-1268
  20
2898
  0
VERTEX
  5
16f
  8
Layer_1
  10
-1283
  20
2868
  0
VERTEX
  5
170
  8
Layer_1
  10
-1298
  20
2898
  0
VERTEX
  5
171
  8
Layer_1
  10
-1293
  20
2898
  0
VERTEX
  5
172
  8
Layer_1
  10
-1293
  20
2938
  0
VERTEX
  5
173
  8
Layer_1
  10
-1333
  20
2938
  0
SEQEND
  0
POLYLINE
  5
175
  8
Layer_0
  62
7
  66
1
  10
0
  20
0
  30
0
  0
VERTEX
  5
175
  8
Layer_0
  10
1220
  20
370.00012
  0
VERTEX
  5
176
  8
Layer_0
  10
1220
  20
369.99988
  0
VERTEX
  5
177
  8
Layer_0
  10
1152
  20
369.99988
  0
VERTEX
  5
178
  8
Layer_0
  10
1152
  20
329.99988
  0
VERTEX
  5
179
  8
Layer_0
  10
1157
  20
329.99988
  0
VERTEX
  5
17a
  8
Layer_0
  10
1142
  20
299.99988
  0
VERTEX
  5
17b
  8
Layer_0
  10
1127
  20
329.99988
  0
VERTEX
  5
17c
  8
Layer_0
  10
1132
  20
329.99988
  0
VERTEX
  5
17d
  8
Layer_0
  10
1132
  20
369.99988
  0
VERTEX
  5
17e
  8
Layer_0
  10
970
  20
369.99991
  0
VERTEX
  5
17f
  8
Layer_0
  10
970
  20
329.99991
  0
VERTEX
  5
180
  8
Layer_0
  10
975
  20
329.99991
  0
VERTEX
  5
181
  8
Layer_0
  10
960
  20
299.99991
  0
VERTEX
  5
182
  8
Layer_0
  10
945
  20
329.99991
  0
VERTEX
  5
183
  8
Layer_0
  10
950
  20
329.99991
  0
VERTEX
  5
184
  8
Layer_0
  10
950
  20
369.99991
  0
VERTEX
  5
185
  8
Layer_0
  10
788
  20
369.99994
  0
VERTEX
  5
186
  8
Layer_0
  10
788
  20
329.99994
  0
VERTEX
  5
187
  8
Layer_0
  10
793
  20
329.99994
  0
VERTEX
  5
188
  8
Layer_0
  10
778
  20
299.99994
  0
VERTEX
  5
189
  8
Layer_0
  10
763
  20
329.99994
  0
VERTEX
  5
18a
  8
Layer_0
  10
768
  20
329.99994
  0
VERTEX
  5
18b
  8
Layer_0
  10
768
  20
369.99994
  0
VERTEX
  5
18c
  8
Layer_0
  10
606
  20
369.99994
  0
VERTEX
  5
18d
  8
Layer_0
  10
606
  20
329.99994
  0
VERTEX
  5
18e
  8
Layer_0
  10
611
  20
329.99994
  0
VERTEX
  5
18f
  8
Layer_0
  10
596
  20
299.99994
  0
VERTEX
  5
190
  8
Layer_0
  10
581
  20
329.99994
  0
VERTEX
  5
191
  8
Layer_0
  10
586
  20
329.99994
  0
VERTEX
  5
192
  8
Layer_0
  10
586
  20
369.99994
  0
VERTEX
  5
193
  8
Layer_0
  10
424
  20
369.99994
  0
VERTEX
  5
194
  8
Layer_0
  10
424
  20
329.99994
  0
VERTEX
  5
195
  8
Layer_0
  10
429
  20
329.99994
  0
VERTEX
  5
196
  8
Layer_0
  10
413.99997
  20
299.99994
  0
VERTEX
  5
197
  8
Layer_0
  10
399
  20
329.99994
  0
VERTEX
  5
198
  8
Layer_0
  10
404
  20
329.99994
  0
VERTEX
  5
199
  8
Layer_0
  10
404
  20
369.99997
  0
VERTEX
  5
19a
  8
Layer_0
  10
241.99998
  20
369.99997
  0
VERTEX
  5
19b
  8
Layer_0
  10
241.99998
  20
329.99997
  0
VERTEX
  5
19c
  8
Layer_0
  10
246.99998
  20
329.99997
  0
VERTEX
  5
19d
  8
Layer_0
  10
231.99998
  20
299.99997
  0
VERTEX
  5
19e
  8
Layer_0
  10
216.99998
  20
330
  0
VERTEX
  5
19f
  8
Layer_0
  10
221.99998
  20
330
  0
VERTEX
  5
1a0
  8
Layer_0
  10
221.99998
  20
369.99997
  0
VERTEX
  5
1a1
  8
Layer_0
  10
59.999989
  20
370
  0
VERTEX
  5
1a2
  8
Layer_0
  10
59.999985
  20
330
  0
VERTEX
  5
1a3
  8
Layer_0
  10
64.999985
  20
330
  0
VERTEX
  5
1a4
  8
Layer_0
  10
49.999985
  20
300
  0
VERTEX
  5
1a5
  8
Layer_0
  10
34.999985
  20
330
  0
VERTEX
  5
1a6
  8
Layer_0
  10
39.999985
  20
330
  0
VERTEX
  5
1a7
  8
Layer_0
  10
39.999989
  20
370
  0
VERTEX
  5
1a8
  8
Layer_0
  10
-9.9347662e-06
  20
370
  0
SEQEND
  0
POLYLINE
  5
1aa
  8
Layer_0
  62
7
  66
1
  10
0
  20
0
  30
0
  0
VERTEX
  5
1aa
  8
Layer_0
  10
1220.0001
  20
70.000122
  0
VERTEX
  5
1ab
  8
Layer_0
  10
1220.0001
  20
270.00012
  0
VERTEX
  5
1ac
  8
Layer_0
  10
0.00012207031
  20
270.00012
  0
VERTEX
  5
1ad
  8
Layer_0
  10
0.00012207031
  20
70.000122
  0
SEQEND
  0
POLYLINE
  5
1af
  8
Layer_0
  62
7
  66
1
  10
0
  20
0
  30
0
  0
VERTEX
  5
1af
  8
Layer_0
  10
1220
  20
70.000244
  0
VERTEX
  5
1b0
  8
Layer_0
  10
1220
  20
70
  0
VERTEX
  5
1b1
  8
Layer_0
  10
1152
  20
70.000008
  0
VERTEX
  5
1b2
  8
Layer_0
  10
1152
  20
30
  0
VERTEX
  5
1b3
  8
Layer_0
  10
1157
  20
30
  0
VERTEX
  5
1b4
  8
Layer_0
  10
1142
  20
1.5258789e-05
  0
VERTEX
  5
1b5
  8
Layer_0
  10
1127
  20
30.000015
  0
VERTEX
  5
1b6
  8
Layer_0
  10
1132
  20
30.000015
  0
VERTEX
  5
1b7
  8
Layer_0
  10
1132
  20
70.000008
  0
VERTEX
  5
1b8
  8
Layer_0
  10
970
  20
70.000023
  0
VERTEX
  5
1b9
  8
Layer_0
  10
970
  20
30.000031
  0
VERTEX
  5
1ba
  8
Layer_0
  10
975
  20
30.000031
  0
VERTEX
  5
1bb
  8
Layer_0
  10
960
  20
3.0517578e-05
  0
VERTEX
  5
1bc
  8
Layer_0
  10
945
  20
30.000031
  0
VERTEX
  5
1bd
  8
Layer_0
  10
950
  20
30.000031
  0
VERTEX
  5
1be
  8
Layer_0
  10
950
  20
70.000031
  0
VERTEX
  5
1bf
  8
Layer_0
  10
788
  20
70.000046
  0
VERTEX
  5
1c0
  8
Layer_0
  10
788
  20
30.000046
  0
VERTEX
  5
1c1
  8
Layer_0
  10
793
  20
30.000046
  0
VERTEX
  5
1c2
  8
Layer_0
  10
778
  20
4.5776367e-05
  0
VERTEX
  5
1c3
  8
Layer_0
  10
763
  20
30.000046
  0
VERTEX
  5
1c4
  8
Layer_0
  10
768
  20
30.000046
  0
VERTEX
  5
1c5
  8
Layer_0
  10
768
  20
70.000046
  0
VERTEX
  5
1c6
  8
Layer_0
  10
606
  20
70.000061
  0
VERTEX
  5
1c7
  8
Layer_0
  10
606
  20
30.000061
  0
VERTEX
  5
1c8
  8
Layer_0
  10
611
  20
30.000061
  0
VERTEX
  5
1c9
  8
Layer_0
  10
596
  20
6.1035156e-05
  0
VERTEX
  5
1ca
  8
Layer_0
  10
581
  20
30.000061
  0
VERTEX
  5
1cb
  8
Layer_0
  10
586
  20
30.000061
  0
VERTEX
  5
1cc
  8
Layer_0
  10
586
  20
70.000061
  0
VERTEX
  5
1cd
  8
Layer_0
  10
424
  20
70.000076
  0
VERTEX
  5
1ce
  8
Layer_0
  10
424
  20
30.000076
  0
VERTEX
  5
1cf
  8
Layer_0
  10
429
  20
30.000076
  0
VERTEX
  5
1d0
  8
Layer_0
  10
413.99997
  20
7.6293945e-05
  0
VERTEX
  5
1d1
  8
Layer_0
  10
399
  20
30.000076
  0
VERTEX
  5
1d2
  8
Layer_0
  10
404
  20
30.000076
  0
VERTEX
  5
1d3
  8
Layer_0
  10
404
  20
70.000084
  0
VERTEX
  5
1d4
  8
Layer_0
  10
241.99998
  20
70.000099
  0
VERTEX
  5
1d5
  8
Layer_0
  10
241.99998
  20
30.000092
  0
VERTEX
  5
1d6
  8
Layer_0
  10
246.99998
  20
30.000092
  0
VERTEX
  5
1d7
  8
Layer_0
  10
231.99998
  20
9.1552734e-05
  0
VERTEX
  5
1d8
  8
Layer_0
  10
216.99998
  20
30.000107
  0
VERTEX
  5
1d9
  8
Layer_0
  10
221.99998
  20
30.000107
  0
VERTEX
  5
1da
  8
Layer_0
  10
221.99998
  20
70.000099
  0
VERTEX
  5
1db
  8
Layer_0
  10
59.999989
  20
70.000114
  0
VERTEX
  5
1dc
  8
Layer_0
  10
59.999985
  20
30.000122
  0
VERTEX
  5
1dd
  8
Layer_0
  10
64.999985
  20
30.000122
  0
VERTEX
  5
1de
  8
Layer_0
  10
49.999985
  20
0.00012207031
  0
VERTEX
  5
1df
  8
Layer_0
  10
34.999985
  20
30.000122
  0
VERTEX
  5
1e0
  8
Layer_0
  10
39.999985
  20
30.000122
  0
VERTEX
  5
1e1
  8
Layer_0
  10
39.999989
  20
70.000114
  0
VERTEX
  5
1e2
  8
Layer_0
  10
-9.9347662e-06
  20
70.000122
  0
SEQEND
  0
ENDSEC
  0
EOF
