  0
SECTION
  2
HEADER
  9
$ACADVER
  1
AC1009
  0
ENDSEC
  0
SECTION
  2
TABLES
  0
TABLE
  2
LAYER
  70
1
  0
LAYER
  2
Layer_0
  70
0
  62
7
  6
CONTINUOUS
  0
ENDTAB
  0
ENDSEC
  0
SECTION
  2
ENTITIES
  0
POLYLINE
  5
90
  8
Layer_0
  62
7
  70
1
  66
1
  10
0
  20
0
  30
0
  0
VERTEX
  5
90
  8
Layer_0
  10
70.000145
  20
1160
  0
VERTEX
  5
91
  8
Layer_0
  10
30.000137
  20
1160
  0
VERTEX
  5
92
  8
Layer_0
  10
30.000137
  20
1155
  0
VERTEX
  5
93
  8
Layer_0
  10
0.00015258789
  20
1170
  0
VERTEX
  5
94
  8
Layer_0
  10
30.000153
  20
1185
  0
VERTEX
  5
95
  8
Layer_0
  10
30.000153
  20
1180
  0
VERTEX
  5
96
  8
Layer_0
  10
70.000145
  20
1180
  0
VERTEX
  5
97
  8
Layer_0
  10
70.000153
  20
1220
  0
VERTEX
  5
98
  8
Layer_0
  10
170.00015
  20
1220
  0
VERTEX
  5
99
  8
Layer_0
  10
169.99998
  20
0
  0
VERTEX
  5
9a
  8
Layer_0
  10
69.999977
  20
0
  0
VERTEX
  5
9b
  8
Layer_0
  10
69.999985
  20
68
  0
VERTEX
  5
9c
  8
Layer_0
  10
29.999985
  20
68
  0
VERTEX
  5
9d
  8
Layer_0
  10
29.999985
  20
63
  0
VERTEX
  5
9e
  8
Layer_0
  10
-1.5258789e-05
  20
78
  0
VERTEX
  5
9f
  8
Layer_0
  10
29.999985
  20
93
  0
VERTEX
  5
a0
  8
Layer_0
  10
29.999985
  20
88
  0
VERTEX
  5
a1
  8
Layer_0
  10
69.999992
  20
88
  0
VERTEX
  5
a2
  8
Layer_0
  10
70.000015
  20
250
  0
VERTEX
  5
a3
  8
Layer_0
  10
30.000015
  20
250
  0
VERTEX
  5
a4
  8
Layer_0
  10
30.000015
  20
245
  0
VERTEX
  5
a5
  8
Layer_0
  10
1.5258789e-05
  20
260
  0
VERTEX
  5
a6
  8
Layer_0
  10
30.000015
  20
275
  0
VERTEX
  5
a7
  8
Layer_0
  10
30.000015
  20
270
  0
VERTEX
  5
a8
  8
Layer_0
  10
70.000015
  20
270
  0
VERTEX
  5
a9
  8
Layer_0
  10
70.000038
  20
432
  0
VERTEX
  5
aa
  8
Layer_0
  10
30.000046
  20
432
  0
VERTEX
  5
ab
  8
Layer_0
  10
30.000046
  20
427
  0
VERTEX
  5
ac
  8
Layer_0
  10
4.5776367e-05
  20
442
  0
VERTEX
  5
ad
  8
Layer_0
  10
30.000046
  20
457
  0
VERTEX
  5
ae
  8
Layer_0
  10
30.000046
  20
452
  0
VERTEX
  5
af
  8
Layer_0
  10
70.000046
  20
452
  0
VERTEX
  5
b0
  8
Layer_0
  10
70.000069
  20
614
  0
VERTEX
  5
b1
  8
Layer_0
  10
30.000061
  20
614
  0
VERTEX
  5
b2
  8
Layer_0
  10
30.000061
  20
609
  0
VERTEX
  5
b3
  8
Layer_0
  10
6.1035156e-05
  20
624
  0
VERTEX
  5
b4
  8
Layer_0
  10
30.000076
  20
639
  0
VERTEX
  5
b5
  8
Layer_0
  10
30.000076
  20
634
  0
VERTEX
  5
b6
  8
Layer_0
  10
70.000069
  20
634
  0
VERTEX
  5
b7
  8
Layer_0
  10
70.000092
  20
796
  0
VERTEX
  5
b8
  8
Layer_0
  10
30.000092
  20
796
  0
VERTEX
  5
b9
  8
Layer_0
  10
30.000092
  20
791
  0
VERTEX
  5
ba
  8
Layer_0
  10
9.1552734e-05
  20
806
  0
VERTEX
  5
bb
  8
Layer_0
  10
30.000092
  20
821
  0
VERTEX
  5
bc
  8
Layer_0
  10
30.000092
  20
816
  0
VERTEX
  5
bd
  8
Layer_0
  10
70.000092
  20
816
  0
VERTEX
  5
be
  8
Layer_0
  10
70.000114
  20
978
  0
VERTEX
  5
bf
  8
Layer_0
  10
30.000122
  20
978
  0
VERTEX
  5
c0
  8
Layer_0
  10
30.000122
  20
973
  0
VERTEX
  5
c1
  8
Layer_0
  10
0.00012207031
  20
988
  0
VERTEX
  5
c2
  8
Layer_0
  10
30.000122
  20
1003
  0
VERTEX
  5
c3
  8
Layer_0
  10
30.000122
  20
998
  0
VERTEX
  5
c4
  8
Layer_0
  10
70.000122
  20
998
  0
SEQEND
  0
CIRCLE
  5
c6
  8
Layer_0
  62
7
  10
145.00015
  20
1205
  30
0
  40
3
  0
CIRCLE
  5
c6
  8
Layer_0
  62
7
  10
95.000122
  20
1205
  30
0
  40
3
  0
CIRCLE
  5
c6
  8
Layer_0
  62
7
  10
145.00009
  20
15
  30
0
  40
3
  0
CIRCLE
  5
c6
  8
Layer_0
  62
7
  10
95.000061
  20
15
  30
0
  40
3
  0
ENDSEC
  0
EOF
