  0
SECTION
  2
HEADER
  9
$ACADVER
  1
AC1009
  0
ENDSEC
  0
SECTION
  2
TABLES
  0
TABLE
  2
LAYER
  70
1
  0
LAYER
  2
Layer_0
  70
0
  62
7
  6
CONTINUOUS
  0
ENDTAB
  0
ENDSEC
  0
SECTION
  2
ENTITIES
  0
POLYLINE
  5
90
  8
Layer_0
  62
7
  70
1
  66
1
  10
0
  20
0
  30
0
  0
VERTEX
  5
90
  8
Layer_0
  10
69.999992
  20
1180.8434
  0
VERTEX
  5
91
  8
Layer_0
  10
69.999992
  20
1180.8431
  0
SEQEND
  0
POLYLINE
  5
93
  8
Layer_0
  62
7
  70
1
  66
1
  10
0
  20
0
  30
0
  0
VERTEX
  5
93
  8
Layer_0
  10
170.00006
  20
0
  0
VERTEX
  5
94
  8
Layer_0
  10
70
  20
0
  0
VERTEX
  5
95
  8
Layer_0
  10
70
  20
0.027832031
  0
VERTEX
  5
96
  8
Layer_0
  10
70
  20
20.041504
  0
VERTEX
  5
97
  8
Layer_0
  10
70.000061
  20
182.15332
  0
VERTEX
  5
98
  8
Layer_0
  10
30.000061
  20
182.15332
  0
VERTEX
  5
99
  8
Layer_0
  10
30.000061
  20
177.1499
  0
VERTEX
  5
9a
  8
Layer_0
  10
0
  20
192.16016
  0
VERTEX
  5
9b
  8
Layer_0
  10
30
  20
207.1709
  0
VERTEX
  5
9c
  8
Layer_0
  10
30
  20
202.16699
  0
VERTEX
  5
9d
  8
Layer_0
  10
70.000061
  20
202.16699
  0
VERTEX
  5
9e
  8
Layer_0
  10
70
  20
364.2793
  0
VERTEX
  5
9f
  8
Layer_0
  10
30
  20
364.2793
  0
VERTEX
  5
a0
  8
Layer_0
  10
30
  20
359.27563
  0
VERTEX
  5
a1
  8
Layer_0
  10
0
  20
374.28613
  0
VERTEX
  5
a2
  8
Layer_0
  10
30
  20
389.29639
  0
VERTEX
  5
a3
  8
Layer_0
  10
30
  20
384.29297
  0
VERTEX
  5
a4
  8
Layer_0
  10
70
  20
384.29297
  0
VERTEX
  5
a5
  8
Layer_0
  10
70
  20
546.40503
  0
VERTEX
  5
a6
  8
Layer_0
  10
30
  20
546.40503
  0
VERTEX
  5
a7
  8
Layer_0
  10
30
  20
541.40137
  0
VERTEX
  5
a8
  8
Layer_0
  10
0
  20
556.41187
  0
VERTEX
  5
a9
  8
Layer_0
  10
30
  20
571.42236
  0
VERTEX
  5
aa
  8
Layer_0
  10
30
  20
566.4187
  0
VERTEX
  5
ab
  8
Layer_0
  10
70
  20
566.4187
  0
VERTEX
  5
ac
  8
Layer_0
  10
70
  20
728.53076
  0
VERTEX
  5
ad
  8
Layer_0
  10
30
  20
728.53076
  0
VERTEX
  5
ae
  8
Layer_0
  10
30
  20
723.52734
  0
VERTEX
  5
af
  8
Layer_0
  10
0
  20
738.5376
  0
VERTEX
  5
b0
  8
Layer_0
  10
30
  20
753.5481
  0
VERTEX
  5
b1
  8
Layer_0
  10
30
  20
748.54443
  0
VERTEX
  5
b2
  8
Layer_0
  10
70
  20
748.54443
  0
VERTEX
  5
b3
  8
Layer_0
  10
70
  20
910.65649
  0
VERTEX
  5
b4
  8
Layer_0
  10
30
  20
910.65649
  0
VERTEX
  5
b5
  8
Layer_0
  10
30
  20
905.65308
  0
VERTEX
  5
b6
  8
Layer_0
  10
0
  20
920.66333
  0
VERTEX
  5
b7
  8
Layer_0
  10
30
  20
935.67383
  0
VERTEX
  5
b8
  8
Layer_0
  10
30
  20
930.67041
  0
VERTEX
  5
b9
  8
Layer_0
  10
69.999939
  20
930.67041
  0
VERTEX
  5
ba
  8
Layer_0
  10
70
  20
1092.7822
  0
VERTEX
  5
bb
  8
Layer_0
  10
30
  20
1092.7822
  0
VERTEX
  5
bc
  8
Layer_0
  10
30
  20
1087.7788
  0
VERTEX
  5
bd
  8
Layer_0
  10
0
  20
1102.7891
  0
VERTEX
  5
be
  8
Layer_0
  10
30
  20
1117.7996
  0
VERTEX
  5
bf
  8
Layer_0
  10
30
  20
1112.7961
  0
VERTEX
  5
c0
  8
Layer_0
  10
70
  20
1112.7961
  0
VERTEX
  5
c1
  8
Layer_0
  10
70
  20
1180
  0
VERTEX
  5
c2
  8
Layer_0
  10
70
  20
1180.0002
  0
VERTEX
  5
c3
  8
Layer_0
  10
70
  20
1248.0002
  0
VERTEX
  5
c4
  8
Layer_0
  10
30
  20
1248.0002
  0
VERTEX
  5
c5
  8
Layer_0
  10
30
  20
1243.0002
  0
VERTEX
  5
c6
  8
Layer_0
  10
0
  20
1258.0002
  0
VERTEX
  5
c7
  8
Layer_0
  10
30
  20
1273.0002
  0
VERTEX
  5
c8
  8
Layer_0
  10
30
  20
1268.0002
  0
VERTEX
  5
c9
  8
Layer_0
  10
70
  20
1268.0002
  0
VERTEX
  5
ca
  8
Layer_0
  10
70
  20
1430.0002
  0
VERTEX
  5
cb
  8
Layer_0
  10
30.000061
  20
1430.0002
  0
VERTEX
  5
cc
  8
Layer_0
  10
30.000061
  20
1425.0002
  0
VERTEX
  5
cd
  8
Layer_0
  10
6.1035156e-05
  20
1440.0002
  0
VERTEX
  5
ce
  8
Layer_0
  10
30.000061
  20
1455.0002
  0
VERTEX
  5
cf
  8
Layer_0
  10
30.000061
  20
1450.0002
  0
VERTEX
  5
d0
  8
Layer_0
  10
70.000061
  20
1450.0002
  0
VERTEX
  5
d1
  8
Layer_0
  10
70.000061
  20
1612.0002
  0
VERTEX
  5
d2
  8
Layer_0
  10
30.000061
  20
1612.0002
  0
VERTEX
  5
d3
  8
Layer_0
  10
30.000061
  20
1607.0002
  0
VERTEX
  5
d4
  8
Layer_0
  10
6.1035156e-05
  20
1622.0002
  0
VERTEX
  5
d5
  8
Layer_0
  10
30.000061
  20
1637.0002
  0
VERTEX
  5
d6
  8
Layer_0
  10
30.000061
  20
1632.0002
  0
VERTEX
  5
d7
  8
Layer_0
  10
70.000061
  20
1632.0002
  0
VERTEX
  5
d8
  8
Layer_0
  10
70.000061
  20
1794.0002
  0
VERTEX
  5
d9
  8
Layer_0
  10
30.000061
  20
1794.0002
  0
VERTEX
  5
da
  8
Layer_0
  10
30.000061
  20
1789.0002
  0
VERTEX
  5
db
  8
Layer_0
  10
6.1035156e-05
  20
1804.0002
  0
VERTEX
  5
dc
  8
Layer_0
  10
30.000061
  20
1819.0002
  0
VERTEX
  5
dd
  8
Layer_0
  10
30.000061
  20
1814.0002
  0
VERTEX
  5
de
  8
Layer_0
  10
70.000061
  20
1814.0002
  0
VERTEX
  5
df
  8
Layer_0
  10
70.000061
  20
1976.0002
  0
VERTEX
  5
e0
  8
Layer_0
  10
30.000061
  20
1976.0002
  0
VERTEX
  5
e1
  8
Layer_0
  10
30.000061
  20
1971.0002
  0
VERTEX
  5
e2
  8
Layer_0
  10
6.1035156e-05
  20
1986.0002
  0
VERTEX
  5
e3
  8
Layer_0
  10
30.000061
  20
2001.0002
  0
VERTEX
  5
e4
  8
Layer_0
  10
30.000061
  20
1996.0002
  0
VERTEX
  5
e5
  8
Layer_0
  10
70.000061
  20
1996.0002
  0
VERTEX
  5
e6
  8
Layer_0
  10
70.000122
  20
2158.0002
  0
VERTEX
  5
e7
  8
Layer_0
  10
30.000061
  20
2158.0002
  0
VERTEX
  5
e8
  8
Layer_0
  10
30.000061
  20
2153.0002
  0
VERTEX
  5
e9
  8
Layer_0
  10
6.1035156e-05
  20
2168.0002
  0
VERTEX
  5
ea
  8
Layer_0
  10
30.000122
  20
2183.0002
  0
VERTEX
  5
eb
  8
Layer_0
  10
30.000122
  20
2178.0002
  0
VERTEX
  5
ec
  8
Layer_0
  10
70.000122
  20
2178.0002
  0
VERTEX
  5
ed
  8
Layer_0
  10
70.000122
  20
2340.0002
  0
VERTEX
  5
ee
  8
Layer_0
  10
30.000122
  20
2340.0002
  0
VERTEX
  5
ef
  8
Layer_0
  10
30.000122
  20
2335.0002
  0
VERTEX
  5
f0
  8
Layer_0
  10
0.00018310547
  20
2350.0002
  0
VERTEX
  5
f1
  8
Layer_0
  10
30.000183
  20
2365.0002
  0
VERTEX
  5
f2
  8
Layer_0
  10
30.000183
  20
2360.0002
  0
VERTEX
  5
f3
  8
Layer_0
  10
70.000183
  20
2360.0002
  0
VERTEX
  5
f4
  8
Layer_0
  10
70.000183
  20
2400.0002
  0
VERTEX
  5
f5
  8
Layer_0
  10
170.00018
  20
2400.0002
  0
VERTEX
  5
f6
  8
Layer_0
  10
170
  20
1180.4216
  0
VERTEX
  5
f7
  8
Layer_0
  10
170
  20
1180.3162
  0
VERTEX
  5
f8
  8
Layer_0
  10
170
  20
1180.2109
  0
SEQEND
  0
CIRCLE
  5
fa
  8
Layer_0
  62
7
  10
145.00018
  20
2385.0002
  30
0
  40
3
  0
CIRCLE
  5
fa
  8
Layer_0
  62
7
  10
95.000183
  20
2385.0002
  30
0
  40
3
  0
CIRCLE
  5
fa
  8
Layer_0
  62
7
  10
145.00006
  20
14.999023
  30
0
  40
3
  0
CIRCLE
  5
fa
  8
Layer_0
  62
7
  10
95.000061
  20
14.999023
  30
0
  40
3
  0
ENDSEC
  0
EOF
