  0
SECTION
  2
HEADER
  9
$ACADVER
  1
AC1009
  0
ENDSEC
  0
SECTION
  2
TABLES
  0
TABLE
  2
LAYER
  70
1
  0
LAYER
  2
Layer_0
  70
0
  62
7
  6
CONTINUOUS
  0
ENDTAB
  0
ENDSEC
  0
SECTION
  2
ENTITIES
  0
CIRCLE
  5
90
  8
Layer_0
  62
7
  10
1247
  20
297.00006
  30
0
  40
3
  0
CIRCLE
  5
90
  8
Layer_0
  62
7
  10
1247
  20
247.00006
  30
0
  40
3
  0
CIRCLE
  5
90
  8
Layer_0
  62
7
  10
56.999939
  20
297.00006
  30
0
  40
3
  0
CIRCLE
  5
90
  8
Layer_0
  62
7
  10
56.999939
  20
247.00006
  30
0
  40
3
  0
POLYLINE
  5
90
  8
Layer_0
  62
7
  66
1
  10
0
  20
0
  30
0
  0
VERTEX
  5
90
  8
Layer_0
  10
1262
  20
122.00006
  0
VERTEX
  5
91
  8
Layer_0
  10
1262
  20
322.00006
  0
VERTEX
  5
92
  8
Layer_0
  10
42.000061
  20
322.00006
  0
VERTEX
  5
93
  8
Layer_0
  10
42.000061
  20
122.00006
  0
SEQEND
  0
POLYLINE
  5
95
  8
Layer_0
  62
7
  66
1
  10
0
  20
0
  30
0
  0
VERTEX
  5
95
  8
Layer_0
  10
1262
  20
122.00018
  0
VERTEX
  5
96
  8
Layer_0
  10
1262
  20
121.99994
  0
VERTEX
  5
97
  8
Layer_0
  10
1194
  20
121.99995
  0
VERTEX
  5
98
  8
Layer_0
  10
1194
  20
81.999939
  0
VERTEX
  5
99
  8
Layer_0
  10
1199
  20
81.999939
  0
VERTEX
  5
9a
  8
Layer_0
  10
1184
  20
51.999954
  0
VERTEX
  5
9b
  8
Layer_0
  10
1169
  20
81.999954
  0
VERTEX
  5
9c
  8
Layer_0
  10
1174
  20
81.999954
  0
VERTEX
  5
9d
  8
Layer_0
  10
1174
  20
121.99995
  0
VERTEX
  5
9e
  8
Layer_0
  10
1011.9999
  20
121.99996
  0
VERTEX
  5
9f
  8
Layer_0
  10
1011.9999
  20
81.999969
  0
VERTEX
  5
a0
  8
Layer_0
  10
1016.9999
  20
81.999969
  0
VERTEX
  5
a1
  8
Layer_0
  10
1001.9999
  20
51.999969
  0
VERTEX
  5
a2
  8
Layer_0
  10
986.99994
  20
81.999969
  0
VERTEX
  5
a3
  8
Layer_0
  10
991.99994
  20
81.999969
  0
VERTEX
  5
a4
  8
Layer_0
  10
991.99994
  20
121.99997
  0
VERTEX
  5
a5
  8
Layer_0
  10
829.99994
  20
121.99998
  0
VERTEX
  5
a6
  8
Layer_0
  10
829.99994
  20
81.999985
  0
VERTEX
  5
a7
  8
Layer_0
  10
834.99994
  20
81.999985
  0
VERTEX
  5
a8
  8
Layer_0
  10
819.99994
  20
51.999985
  0
VERTEX
  5
a9
  8
Layer_0
  10
804.99994
  20
81.999985
  0
VERTEX
  5
aa
  8
Layer_0
  10
809.99994
  20
81.999985
  0
VERTEX
  5
ab
  8
Layer_0
  10
809.99994
  20
121.99998
  0
VERTEX
  5
ac
  8
Layer_0
  10
647.99994
  20
122
  0
VERTEX
  5
ad
  8
Layer_0
  10
647.99994
  20
82
  0
VERTEX
  5
ae
  8
Layer_0
  10
652.99994
  20
82
  0
VERTEX
  5
af
  8
Layer_0
  10
637.99994
  20
52
  0
VERTEX
  5
b0
  8
Layer_0
  10
622.99994
  20
82
  0
VERTEX
  5
b1
  8
Layer_0
  10
627.99994
  20
82
  0
VERTEX
  5
b2
  8
Layer_0
  10
627.99994
  20
122
  0
VERTEX
  5
b3
  8
Layer_0
  10
465.99994
  20
122.00002
  0
VERTEX
  5
b4
  8
Layer_0
  10
465.99994
  20
82.000015
  0
VERTEX
  5
b5
  8
Layer_0
  10
470.99994
  20
82.000015
  0
VERTEX
  5
b6
  8
Layer_0
  10
455.99991
  20
52.000015
  0
VERTEX
  5
b7
  8
Layer_0
  10
440.99994
  20
82.000015
  0
VERTEX
  5
b8
  8
Layer_0
  10
445.99994
  20
82.000015
  0
VERTEX
  5
b9
  8
Layer_0
  10
445.99994
  20
122.00002
  0
VERTEX
  5
ba
  8
Layer_0
  10
283.99994
  20
122.00004
  0
VERTEX
  5
bb
  8
Layer_0
  10
283.99994
  20
82.000031
  0
VERTEX
  5
bc
  8
Layer_0
  10
288.99994
  20
82.000031
  0
VERTEX
  5
bd
  8
Layer_0
  10
273.99994
  20
52.000031
  0
VERTEX
  5
be
  8
Layer_0
  10
258.99994
  20
82.000046
  0
VERTEX
  5
bf
  8
Layer_0
  10
263.99994
  20
82.000046
  0
VERTEX
  5
c0
  8
Layer_0
  10
263.99994
  20
122.00004
  0
VERTEX
  5
c1
  8
Layer_0
  10
101.99992
  20
122.00005
  0
VERTEX
  5
c2
  8
Layer_0
  10
101.99992
  20
82.000061
  0
VERTEX
  5
c3
  8
Layer_0
  10
106.99992
  20
82.000061
  0
VERTEX
  5
c4
  8
Layer_0
  10
91.999924
  20
52.000061
  0
VERTEX
  5
c5
  8
Layer_0
  10
76.999924
  20
82.000061
  0
VERTEX
  5
c6
  8
Layer_0
  10
81.999924
  20
82.000061
  0
VERTEX
  5
c7
  8
Layer_0
  10
81.999924
  20
122.00005
  0
VERTEX
  5
c8
  8
Layer_0
  10
41.999928
  20
122.00006
  0
SEQEND
  0
ENDSEC
  0
EOF
