  0
SECTION
  2
HEADER
  9
$ACADVER
  1
AC1009
  0
ENDSEC
  0
SECTION
  2
TABLES
  0
TABLE
  2
LAYER
  70
1
  0
LAYER
  2
Layer_0
  70
0
  62
7
  6
CONTINUOUS
  0
ENDTAB
  0
ENDSEC
  0
SECTION
  2
ENTITIES
  0
POLYLINE
  5
90
  8
Layer_0
  62
7
  70
1
  66
1
  10
0
  20
0
  30
0
  0
VERTEX
  5
90
  8
Layer_0
  10
85
  20
0
  0
VERTEX
  5
91
  8
Layer_0
  10
85
  20
25
  0
VERTEX
  5
92
  8
Layer_0
  10
55
  20
25
  0
VERTEX
  5
93
  8
Layer_0
  10
55
  20
0
  0
VERTEX
  5
94
  8
Layer_0
  10
0
  20
0
  0
VERTEX
  5
95
  8
Layer_0
  10
0
  20
40
  0
VERTEX
  5
96
  8
Layer_0
  10
0.8301428
  20
40
  42
0.26344361
  0
VERTEX
  5
97
  8
Layer_0
  10
1.0873907
  20
40.145649
  0
VERTEX
  5
98
  8
Layer_0
  10
15.742746
  20
64.571266
  42
-0.26344755
  0
VERTEX
  5
99
  8
Layer_0
  10
15.999994
  20
64.716919
  42
-0.26344963
  0
VERTEX
  5
9a
  8
Layer_0
  10
16.257242
  20
64.571266
  0
VERTEX
  5
9b
  8
Layer_0
  10
30.742752
  20
40.428745
  42
0.26344465
  0
VERTEX
  5
9c
  8
Layer_0
  10
31
  20
40.283096
  42
0.26344465
  0
VERTEX
  5
9d
  8
Layer_0
  10
31.257248
  20
40.428745
  0
VERTEX
  5
9e
  8
Layer_0
  10
45.742748
  20
64.571266
  42
-0.26344548
  0
VERTEX
  5
9f
  8
Layer_0
  10
45.999996
  20
64.716919
  42
-0.26344548
  0
VERTEX
  5
a0
  8
Layer_0
  10
46.257244
  20
64.571266
  0
VERTEX
  5
a1
  8
Layer_0
  10
60.742756
  20
40.428745
  42
0.2634405
  0
VERTEX
  5
a2
  8
Layer_0
  10
61.000004
  20
40.283096
  42
0.2634405
  0
VERTEX
  5
a3
  8
Layer_0
  10
61.257252
  20
40.428745
  0
VERTEX
  5
a4
  8
Layer_0
  10
75.742752
  20
64.571266
  42
-0.26345378
  0
VERTEX
  5
a5
  8
Layer_0
  10
76
  20
64.716919
  42
-0.26345378
  0
VERTEX
  5
a6
  8
Layer_0
  10
76.257248
  20
64.571266
  0
VERTEX
  5
a7
  8
Layer_0
  10
90.742752
  20
40.428745
  42
0.2634322
  0
VERTEX
  5
a8
  8
Layer_0
  10
91
  20
40.283096
  42
0.2634488
  0
VERTEX
  5
a9
  8
Layer_0
  10
91.257248
  20
40.428745
  0
VERTEX
  5
aa
  8
Layer_0
  10
105.74275
  20
64.571266
  42
-0.26345378
  0
VERTEX
  5
ab
  8
Layer_0
  10
106
  20
64.716919
  42
-0.26345378
  0
VERTEX
  5
ac
  8
Layer_0
  10
106.25725
  20
64.571266
  0
VERTEX
  5
ad
  8
Layer_0
  10
120.74275
  20
40.428745
  42
0.2634488
  0
VERTEX
  5
ae
  8
Layer_0
  10
121
  20
40.283096
  42
0.2634488
  0
VERTEX
  5
af
  8
Layer_0
  10
121.25725
  20
40.428745
  0
VERTEX
  5
b0
  8
Layer_0
  10
135.74275
  20
64.571266
  42
-0.26345378
  0
VERTEX
  5
b1
  8
Layer_0
  10
136
  20
64.716919
  42
-0.26345378
  0
VERTEX
  5
b2
  8
Layer_0
  10
136.25725
  20
64.571266
  0
VERTEX
  5
b3
  8
Layer_0
  10
150.74275
  20
40.428745
  42
0.2634488
  0
VERTEX
  5
b4
  8
Layer_0
  10
151
  20
40.283096
  42
0.2634488
  0
VERTEX
  5
b5
  8
Layer_0
  10
151.25725
  20
40.428745
  0
VERTEX
  5
b6
  8
Layer_0
  10
165.74275
  20
64.571266
  42
-0.26345378
  0
VERTEX
  5
b7
  8
Layer_0
  10
166
  20
64.716919
  42
-0.26345378
  0
VERTEX
  5
b8
  8
Layer_0
  10
166.25725
  20
64.571266
  0
VERTEX
  5
b9
  8
Layer_0
  10
180.74275
  20
40.428745
  42
0.2634488
  0
VERTEX
  5
ba
  8
Layer_0
  10
181
  20
40.283096
  42
0.2634488
  0
VERTEX
  5
bb
  8
Layer_0
  10
181.25725
  20
40.428745
  0
VERTEX
  5
bc
  8
Layer_0
  10
195.74275
  20
64.571266
  42
-0.26345378
  0
VERTEX
  5
bd
  8
Layer_0
  10
196
  20
64.716919
  42
-0.26345378
  0
VERTEX
  5
be
  8
Layer_0
  10
196.25725
  20
64.571266
  0
VERTEX
  5
bf
  8
Layer_0
  10
210.74275
  20
40.428745
  42
0.2634488
  0
VERTEX
  5
c0
  8
Layer_0
  10
211
  20
40.283096
  42
0.2634488
  0
VERTEX
  5
c1
  8
Layer_0
  10
211.25725
  20
40.428745
  0
VERTEX
  5
c2
  8
Layer_0
  10
225.74275
  20
64.571266
  42
-0.26345378
  0
VERTEX
  5
c3
  8
Layer_0
  10
226
  20
64.716919
  42
-0.26345378
  0
VERTEX
  5
c4
  8
Layer_0
  10
226.25725
  20
64.571266
  0
VERTEX
  5
c5
  8
Layer_0
  10
240.74275
  20
40.428745
  42
0.2634488
  0
VERTEX
  5
c6
  8
Layer_0
  10
241
  20
40.283096
  42
0.2634488
  0
VERTEX
  5
c7
  8
Layer_0
  10
241.25725
  20
40.428745
  0
VERTEX
  5
c8
  8
Layer_0
  10
255.74275
  20
64.571266
  42
-0.26345378
  0
VERTEX
  5
c9
  8
Layer_0
  10
256
  20
64.716919
  42
-0.26348698
  0
VERTEX
  5
ca
  8
Layer_0
  10
256.25723
  20
64.571266
  0
VERTEX
  5
cb
  8
Layer_0
  10
270.74274
  20
40.428745
  42
0.2634156
  0
VERTEX
  5
cc
  8
Layer_0
  10
271
  20
40.283096
  42
0.2634156
  0
VERTEX
  5
cd
  8
Layer_0
  10
271.25726
  20
40.428745
  0
VERTEX
  5
ce
  8
Layer_0
  10
285.74274
  20
64.571266
  42
-0.26342058
  0
VERTEX
  5
cf
  8
Layer_0
  10
286
  20
64.716919
  42
-0.26348698
  0
VERTEX
  5
d0
  8
Layer_0
  10
286.25723
  20
64.571266
  0
VERTEX
  5
d1
  8
Layer_0
  10
300.74277
  20
40.428745
  42
0.263482
  0
VERTEX
  5
d2
  8
Layer_0
  10
301
  20
40.283096
  42
0.2634156
  0
VERTEX
  5
d3
  8
Layer_0
  10
301.25726
  20
40.428745
  0
VERTEX
  5
d4
  8
Layer_0
  10
315.74274
  20
64.571266
  42
-0.26342058
  0
VERTEX
  5
d5
  8
Layer_0
  10
316
  20
64.716919
  42
-0.26348698
  0
VERTEX
  5
d6
  8
Layer_0
  10
316.25723
  20
64.571266
  0
VERTEX
  5
d7
  8
Layer_0
  10
330.74274
  20
40.428745
  42
0.2634156
  0
VERTEX
  5
d8
  8
Layer_0
  10
331
  20
40.283096
  42
0.2634156
  0
VERTEX
  5
d9
  8
Layer_0
  10
331.25726
  20
40.428745
  0
VERTEX
  5
da
  8
Layer_0
  10
345.74274
  20
64.571266
  42
-0.26342058
  0
VERTEX
  5
db
  8
Layer_0
  10
346
  20
64.716919
  42
-0.26348698
  0
VERTEX
  5
dc
  8
Layer_0
  10
346.25723
  20
64.571266
  0
VERTEX
  5
dd
  8
Layer_0
  10
360.74277
  20
40.428745
  42
0.263482
  0
VERTEX
  5
de
  8
Layer_0
  10
361
  20
40.283096
  42
0.2634156
  0
VERTEX
  5
df
  8
Layer_0
  10
361.25726
  20
40.428745
  0
VERTEX
  5
e0
  8
Layer_0
  10
375.74274
  20
64.571266
  42
-0.26342058
  0
VERTEX
  5
e1
  8
Layer_0
  10
376
  20
64.716919
  42
-0.26348698
  0
VERTEX
  5
e2
  8
Layer_0
  10
376.25723
  20
64.571266
  0
VERTEX
  5
e3
  8
Layer_0
  10
390.74274
  20
40.428745
  42
0.2634156
  0
VERTEX
  5
e4
  8
Layer_0
  10
391
  20
40.283096
  42
0.2634156
  0
VERTEX
  5
e5
  8
Layer_0
  10
391.25726
  20
40.428745
  0
VERTEX
  5
e6
  8
Layer_0
  10
405.74274
  20
64.571266
  42
-0.26342058
  0
VERTEX
  5
e7
  8
Layer_0
  10
406
  20
64.716919
  42
-0.26348698
  0
VERTEX
  5
e8
  8
Layer_0
  10
406.25723
  20
64.571266
  0
VERTEX
  5
e9
  8
Layer_0
  10
420.74277
  20
40.428745
  42
0.263482
  0
VERTEX
  5
ea
  8
Layer_0
  10
421
  20
40.283096
  42
0.2634156
  0
VERTEX
  5
eb
  8
Layer_0
  10
421.25726
  20
40.428745
  0
VERTEX
  5
ec
  8
Layer_0
  10
435.74274
  20
64.571266
  42
-0.26342058
  0
VERTEX
  5
ed
  8
Layer_0
  10
436
  20
64.716919
  42
-0.26348698
  0
VERTEX
  5
ee
  8
Layer_0
  10
436.25723
  20
64.571266
  0
VERTEX
  5
ef
  8
Layer_0
  10
450.74274
  20
40.428745
  42
0.2634156
  0
VERTEX
  5
f0
  8
Layer_0
  10
451
  20
40.283096
  42
0.2634156
  0
VERTEX
  5
f1
  8
Layer_0
  10
451.25726
  20
40.428745
  0
VERTEX
  5
f2
  8
Layer_0
  10
465.74274
  20
64.571266
  42
-0.26342058
  0
VERTEX
  5
f3
  8
Layer_0
  10
466
  20
64.716919
  42
-0.26348698
  0
VERTEX
  5
f4
  8
Layer_0
  10
466.25723
  20
64.571266
  0
VERTEX
  5
f5
  8
Layer_0
  10
480.74277
  20
40.428745
  42
0.263482
  0
VERTEX
  5
f6
  8
Layer_0
  10
481
  20
40.283096
  42
0.2634156
  0
VERTEX
  5
f7
  8
Layer_0
  10
481.25726
  20
40.428745
  0
VERTEX
  5
f8
  8
Layer_0
  10
495.74274
  20
64.571266
  42
-0.26342058
  0
VERTEX
  5
f9
  8
Layer_0
  10
496
  20
64.716919
  42
-0.26348698
  0
VERTEX
  5
fa
  8
Layer_0
  10
496.25723
  20
64.571266
  0
VERTEX
  5
fb
  8
Layer_0
  10
510.74274
  20
40.428745
  42
0.2634156
  0
VERTEX
  5
fc
  8
Layer_0
  10
511
  20
40.283096
  42
0.2634156
  0
VERTEX
  5
fd
  8
Layer_0
  10
511.25726
  20
40.428745
  0
VERTEX
  5
fe
  8
Layer_0
  10
525.74274
  20
64.571266
  42
-0.26335421
  0
VERTEX
  5
ff
  8
Layer_0
  10
526
  20
64.716919
  42
-0.26335421
  0
VERTEX
  5
100
  8
Layer_0
  10
526.25726
  20
64.571266
  0
VERTEX
  5
101
  8
Layer_0
  10
540.74274
  20
40.428745
  42
0.26334923
  0
VERTEX
  5
102
  8
Layer_0
  10
541
  20
40.283096
  42
0.26334923
  0
VERTEX
  5
103
  8
Layer_0
  10
541.25726
  20
40.428745
  0
VERTEX
  5
104
  8
Layer_0
  10
555.74274
  20
64.571266
  42
-0.26348698
  0
VERTEX
  5
105
  8
Layer_0
  10
556
  20
64.716919
  42
-0.26335421
  0
VERTEX
  5
106
  8
Layer_0
  10
556.25726
  20
64.571266
  0
VERTEX
  5
107
  8
Layer_0
  10
570.74274
  20
40.428745
  42
0.26334923
  0
VERTEX
  5
108
  8
Layer_0
  10
571
  20
40.283096
  42
0.26334923
  0
VERTEX
  5
109
  8
Layer_0
  10
571.25726
  20
40.428745
  0
VERTEX
  5
10a
  8
Layer_0
  10
585.74274
  20
64.571266
  42
-0.26335421
  0
VERTEX
  5
10b
  8
Layer_0
  10
586
  20
64.716919
  42
-0.26335421
  0
VERTEX
  5
10c
  8
Layer_0
  10
586.25726
  20
64.571266
  0
VERTEX
  5
10d
  8
Layer_0
  10
600.74274
  20
40.428745
  42
0.26334923
  0
VERTEX
  5
10e
  8
Layer_0
  10
601
  20
40.283096
  42
0.26334923
  0
VERTEX
  5
10f
  8
Layer_0
  10
601.25726
  20
40.428745
  0
VERTEX
  5
110
  8
Layer_0
  10
615.74274
  20
64.571266
  42
-0.26348698
  0
VERTEX
  5
111
  8
Layer_0
  10
616
  20
64.716919
  42
-0.26335421
  0
VERTEX
  5
112
  8
Layer_0
  10
616.25726
  20
64.571266
  0
VERTEX
  5
113
  8
Layer_0
  10
630.74274
  20
40.428745
  42
0.26334923
  0
VERTEX
  5
114
  8
Layer_0
  10
631
  20
40.283096
  42
0.26334923
  0
VERTEX
  5
115
  8
Layer_0
  10
631.25726
  20
40.428745
  0
VERTEX
  5
116
  8
Layer_0
  10
645.74274
  20
64.571266
  42
-0.26335421
  0
VERTEX
  5
117
  8
Layer_0
  10
646
  20
64.716919
  42
-0.26335421
  0
VERTEX
  5
118
  8
Layer_0
  10
646.25726
  20
64.571266
  0
VERTEX
  5
119
  8
Layer_0
  10
660.74274
  20
40.428745
  42
0.26334923
  0
VERTEX
  5
11a
  8
Layer_0
  10
661
  20
40.283096
  42
0.26334923
  0
VERTEX
  5
11b
  8
Layer_0
  10
661.25726
  20
40.428745
  0
VERTEX
  5
11c
  8
Layer_0
  10
675.74274
  20
64.571266
  42
-0.26348698
  0
VERTEX
  5
11d
  8
Layer_0
  10
676
  20
64.716919
  42
-0.26335421
  0
VERTEX
  5
11e
  8
Layer_0
  10
676.25726
  20
64.571266
  0
VERTEX
  5
11f
  8
Layer_0
  10
690.74274
  20
40.428745
  42
0.26334923
  0
VERTEX
  5
120
  8
Layer_0
  10
691
  20
40.283096
  42
0.26334923
  0
VERTEX
  5
121
  8
Layer_0
  10
691.25726
  20
40.428745
  0
VERTEX
  5
122
  8
Layer_0
  10
705.74274
  20
64.571266
  42
-0.26335421
  0
VERTEX
  5
123
  8
Layer_0
  10
706
  20
64.716919
  42
-0.26335421
  0
VERTEX
  5
124
  8
Layer_0
  10
706.25726
  20
64.571266
  0
VERTEX
  5
125
  8
Layer_0
  10
720.74274
  20
40.428745
  42
0.26334923
  0
VERTEX
  5
126
  8
Layer_0
  10
721
  20
40.283096
  42
0.26334923
  0
VERTEX
  5
127
  8
Layer_0
  10
721.25726
  20
40.428745
  0
VERTEX
  5
128
  8
Layer_0
  10
735.74274
  20
64.571266
  42
-0.26348698
  0
VERTEX
  5
129
  8
Layer_0
  10
736
  20
64.716919
  42
-0.26335421
  0
VERTEX
  5
12a
  8
Layer_0
  10
736.25726
  20
64.571266
  0
VERTEX
  5
12b
  8
Layer_0
  10
750.74274
  20
40.428745
  42
0.26334923
  0
VERTEX
  5
12c
  8
Layer_0
  10
751
  20
40.283096
  42
0.26334923
  0
VERTEX
  5
12d
  8
Layer_0
  10
751.25726
  20
40.428745
  0
VERTEX
  5
12e
  8
Layer_0
  10
765.74274
  20
64.571266
  42
-0.26335421
  0
VERTEX
  5
12f
  8
Layer_0
  10
766
  20
64.716919
  42
-0.26335421
  0
VERTEX
  5
130
  8
Layer_0
  10
766.25726
  20
64.571266
  0
VERTEX
  5
131
  8
Layer_0
  10
780.74274
  20
40.428745
  42
0.26334923
  0
VERTEX
  5
132
  8
Layer_0
  10
781
  20
40.283096
  42
0.26334923
  0
VERTEX
  5
133
  8
Layer_0
  10
781.25726
  20
40.428745
  0
VERTEX
  5
134
  8
Layer_0
  10
795.74274
  20
64.571266
  42
-0.26348698
  0
VERTEX
  5
135
  8
Layer_0
  10
796
  20
64.716919
  42
-0.26335421
  0
VERTEX
  5
136
  8
Layer_0
  10
796.25726
  20
64.571266
  0
VERTEX
  5
137
  8
Layer_0
  10
810.74274
  20
40.428745
  42
0.26334923
  0
VERTEX
  5
138
  8
Layer_0
  10
811
  20
40.283096
  42
0.26334923
  0
VERTEX
  5
139
  8
Layer_0
  10
811.25726
  20
40.428745
  0
VERTEX
  5
13a
  8
Layer_0
  10
825.74274
  20
64.571266
  42
-0.26335421
  0
VERTEX
  5
13b
  8
Layer_0
  10
826
  20
64.716919
  42
-0.26335421
  0
VERTEX
  5
13c
  8
Layer_0
  10
826.25726
  20
64.571266
  0
VERTEX
  5
13d
  8
Layer_0
  10
840.74274
  20
40.428745
  42
0.26334923
  0
VERTEX
  5
13e
  8
Layer_0
  10
841
  20
40.283096
  42
0.26334923
  0
VERTEX
  5
13f
  8
Layer_0
  10
841.25726
  20
40.428745
  0
VERTEX
  5
140
  8
Layer_0
  10
855.74274
  20
64.571266
  42
-0.26348698
  0
VERTEX
  5
141
  8
Layer_0
  10
856
  20
64.716919
  42
-0.26335421
  0
VERTEX
  5
142
  8
Layer_0
  10
856.25726
  20
64.571266
  0
VERTEX
  5
143
  8
Layer_0
  10
870.74274
  20
40.428745
  42
0.26334923
  0
VERTEX
  5
144
  8
Layer_0
  10
871
  20
40.283096
  42
0.26334923
  0
VERTEX
  5
145
  8
Layer_0
  10
871.25726
  20
40.428745
  0
VERTEX
  5
146
  8
Layer_0
  10
885.74274
  20
64.571266
  42
-0.26335421
  0
VERTEX
  5
147
  8
Layer_0
  10
886
  20
64.716919
  42
-0.26335421
  0
VERTEX
  5
148
  8
Layer_0
  10
886.25726
  20
64.571266
  0
VERTEX
  5
149
  8
Layer_0
  10
900.74274
  20
40.428745
  42
0.26334923
  0
VERTEX
  5
14a
  8
Layer_0
  10
901
  20
40.283096
  42
0.26334923
  0
VERTEX
  5
14b
  8
Layer_0
  10
901.25726
  20
40.428745
  0
VERTEX
  5
14c
  8
Layer_0
  10
915.74274
  20
64.571266
  42
-0.26348698
  0
VERTEX
  5
14d
  8
Layer_0
  10
916
  20
64.716919
  42
-0.26335421
  0
VERTEX
  5
14e
  8
Layer_0
  10
916.25726
  20
64.571266
  0
VERTEX
  5
14f
  8
Layer_0
  10
930.74274
  20
40.428745
  42
0.26334923
  0
VERTEX
  5
150
  8
Layer_0
  10
931
  20
40.283096
  42
0.26334923
  0
VERTEX
  5
151
  8
Layer_0
  10
931.25726
  20
40.428745
  0
VERTEX
  5
152
  8
Layer_0
  10
945.74274
  20
64.571266
  42
-0.26335421
  0
VERTEX
  5
153
  8
Layer_0
  10
946
  20
64.716919
  42
-0.26335421
  0
VERTEX
  5
154
  8
Layer_0
  10
946.25726
  20
64.571266
  0
VERTEX
  5
155
  8
Layer_0
  10
960.74274
  20
40.428745
  42
0.26334923
  0
VERTEX
  5
156
  8
Layer_0
  10
961
  20
40.283096
  42
0.26334923
  0
VERTEX
  5
157
  8
Layer_0
  10
961.25726
  20
40.428745
  0
VERTEX
  5
158
  8
Layer_0
  10
975.74274
  20
64.571266
  42
-0.26348698
  0
VERTEX
  5
159
  8
Layer_0
  10
976
  20
64.716919
  42
-0.26335421
  0
VERTEX
  5
15a
  8
Layer_0
  10
976.25726
  20
64.571266
  0
VERTEX
  5
15b
  8
Layer_0
  10
990.74274
  20
40.428745
  42
0.26334923
  0
VERTEX
  5
15c
  8
Layer_0
  10
991
  20
40.283096
  42
0.26334923
  0
VERTEX
  5
15d
  8
Layer_0
  10
991.25726
  20
40.428745
  0
VERTEX
  5
15e
  8
Layer_0
  10
1005.7427
  20
64.571266
  42
-0.26335421
  0
VERTEX
  5
15f
  8
Layer_0
  10
1006
  20
64.716919
  42
-0.26335421
  0
VERTEX
  5
160
  8
Layer_0
  10
1006.2573
  20
64.571266
  0
VERTEX
  5
161
  8
Layer_0
  10
1020.7427
  20
40.428745
  42
0.26334923
  0
VERTEX
  5
162
  8
Layer_0
  10
1021
  20
40.283096
  42
0.26334923
  0
VERTEX
  5
163
  8
Layer_0
  10
1021.2573
  20
40.428745
  0
VERTEX
  5
164
  8
Layer_0
  10
1035.7428
  20
64.571266
  42
-0.26348698
  0
VERTEX
  5
165
  8
Layer_0
  10
1036
  20
64.716919
  42
-0.26348698
  0
VERTEX
  5
166
  8
Layer_0
  10
1036.2572
  20
64.571266
  0
VERTEX
  5
167
  8
Layer_0
  10
1050.7428
  20
40.428745
  42
0.263482
  0
VERTEX
  5
168
  8
Layer_0
  10
1051
  20
40.283096
  42
0.263482
  0
VERTEX
  5
169
  8
Layer_0
  10
1051.2572
  20
40.428745
  0
VERTEX
  5
16a
  8
Layer_0
  10
1065.7428
  20
64.571266
  42
-0.26348698
  0
VERTEX
  5
16b
  8
Layer_0
  10
1066
  20
64.716919
  42
-0.26348698
  0
VERTEX
  5
16c
  8
Layer_0
  10
1066.2572
  20
64.571266
  0
VERTEX
  5
16d
  8
Layer_0
  10
1080.7428
  20
40.428745
  42
0.263482
  0
VERTEX
  5
16e
  8
Layer_0
  10
1081
  20
40.283096
  42
0.263482
  0
VERTEX
  5
16f
  8
Layer_0
  10
1081.2572
  20
40.428745
  0
VERTEX
  5
170
  8
Layer_0
  10
1095.7428
  20
64.571266
  42
-0.26348698
  0
VERTEX
  5
171
  8
Layer_0
  10
1096
  20
64.716919
  42
-0.26348698
  0
VERTEX
  5
172
  8
Layer_0
  10
1096.2572
  20
64.571266
  0
VERTEX
  5
173
  8
Layer_0
  10
1110.7428
  20
40.428745
  42
0.263482
  0
VERTEX
  5
174
  8
Layer_0
  10
1111
  20
40.283096
  42
0.263482
  0
VERTEX
  5
175
  8
Layer_0
  10
1111.2572
  20
40.428745
  0
VERTEX
  5
176
  8
Layer_0
  10
1125.7428
  20
64.571266
  42
-0.26348698
  0
VERTEX
  5
177
  8
Layer_0
  10
1126
  20
64.716919
  42
-0.26348698
  0
VERTEX
  5
178
  8
Layer_0
  10
1126.2572
  20
64.571266
  0
VERTEX
  5
179
  8
Layer_0
  10
1140.7428
  20
40.428745
  42
0.263482
  0
VERTEX
  5
17a
  8
Layer_0
  10
1141
  20
40.283096
  42
0.263482
  0
VERTEX
  5
17b
  8
Layer_0
  10
1141.2572
  20
40.428745
  0
VERTEX
  5
17c
  8
Layer_0
  10
1155.7428
  20
64.571266
  42
-0.26348698
  0
VERTEX
  5
17d
  8
Layer_0
  10
1156
  20
64.716919
  42
-0.26348698
  0
VERTEX
  5
17e
  8
Layer_0
  10
1156.2572
  20
64.571266
  0
VERTEX
  5
17f
  8
Layer_0
  10
1170.7428
  20
40.428745
  42
0.263482
  0
VERTEX
  5
180
  8
Layer_0
  10
1171
  20
40.283096
  42
0.263482
  0
VERTEX
  5
181
  8
Layer_0
  10
1171.2572
  20
40.428745
  0
VERTEX
  5
182
  8
Layer_0
  10
1185.7428
  20
64.571266
  42
-0.26348698
  0
VERTEX
  5
183
  8
Layer_0
  10
1186
  20
64.716919
  42
-0.26348698
  0
VERTEX
  5
184
  8
Layer_0
  10
1186.2572
  20
64.571266
  0
VERTEX
  5
185
  8
Layer_0
  10
1200.7428
  20
40.428745
  42
0.263482
  0
VERTEX
  5
186
  8
Layer_0
  10
1201
  20
40.283096
  42
0.263482
  0
VERTEX
  5
187
  8
Layer_0
  10
1201.2572
  20
40.428745
  0
VERTEX
  5
188
  8
Layer_0
  10
1215.7428
  20
64.571266
  42
-0.26348698
  0
VERTEX
  5
189
  8
Layer_0
  10
1216
  20
64.716919
  42
-0.26348698
  0
VERTEX
  5
18a
  8
Layer_0
  10
1216.2572
  20
64.571266
  0
VERTEX
  5
18b
  8
Layer_0
  10
1230.7428
  20
40.428745
  42
0.263482
  0
VERTEX
  5
18c
  8
Layer_0
  10
1231
  20
40.283096
  42
0.263482
  0
VERTEX
  5
18d
  8
Layer_0
  10
1231.2572
  20
40.428745
  0
VERTEX
  5
18e
  8
Layer_0
  10
1245.7428
  20
64.571266
  42
-0.26348698
  0
VERTEX
  5
18f
  8
Layer_0
  10
1246
  20
64.716919
  42
-0.26348698
  0
VERTEX
  5
190
  8
Layer_0
  10
1246.2572
  20
64.571266
  0
VERTEX
  5
191
  8
Layer_0
  10
1260.7428
  20
40.428745
  42
0.263482
  0
VERTEX
  5
192
  8
Layer_0
  10
1261
  20
40.283096
  42
0.263482
  0
VERTEX
  5
193
  8
Layer_0
  10
1261.2572
  20
40.428745
  0
VERTEX
  5
194
  8
Layer_0
  10
1275.7428
  20
64.571266
  42
-0.26348698
  0
VERTEX
  5
195
  8
Layer_0
  10
1276
  20
64.716919
  42
-0.26348698
  0
VERTEX
  5
196
  8
Layer_0
  10
1276.2572
  20
64.571266
  0
VERTEX
  5
197
  8
Layer_0
  10
1290.7428
  20
40.428745
  42
0.263482
  0
VERTEX
  5
198
  8
Layer_0
  10
1291
  20
40.283096
  42
0.263482
  0
VERTEX
  5
199
  8
Layer_0
  10
1291.2572
  20
40.428745
  0
VERTEX
  5
19a
  8
Layer_0
  10
1305.7428
  20
64.571266
  42
-0.26348698
  0
VERTEX
  5
19b
  8
Layer_0
  10
1306
  20
64.716919
  42
-0.26348698
  0
VERTEX
  5
19c
  8
Layer_0
  10
1306.2572
  20
64.571266
  0
VERTEX
  5
19d
  8
Layer_0
  10
1320.7428
  20
40.428753
  42
0.263482
  0
VERTEX
  5
19e
  8
Layer_0
  10
1321
  20
40.283104
  42
0.263482
  0
VERTEX
  5
19f
  8
Layer_0
  10
1321.2572
  20
40.428753
  0
VERTEX
  5
1a0
  8
Layer_0
  10
1335.7428
  20
64.571266
  42
-0.26348698
  0
VERTEX
  5
1a1
  8
Layer_0
  10
1336
  20
64.716919
  42
-0.26348698
  0
VERTEX
  5
1a2
  8
Layer_0
  10
1336.2572
  20
64.571266
  0
VERTEX
  5
1a3
  8
Layer_0
  10
1350.7428
  20
40.428745
  42
0.263482
  0
VERTEX
  5
1a4
  8
Layer_0
  10
1351
  20
40.283096
  42
0.263482
  0
VERTEX
  5
1a5
  8
Layer_0
  10
1351.2572
  20
40.428745
  0
VERTEX
  5
1a6
  8
Layer_0
  10
1365.7428
  20
64.571266
  42
-0.26348698
  0
VERTEX
  5
1a7
  8
Layer_0
  10
1366
  20
64.716919
  42
-0.26348698
  0
VERTEX
  5
1a8
  8
Layer_0
  10
1366.2572
  20
64.571266
  0
VERTEX
  5
1a9
  8
Layer_0
  10
1380.7428
  20
40.428753
  42
0.263482
  0
VERTEX
  5
1aa
  8
Layer_0
  10
1381
  20
40.283104
  42
0.263482
  0
VERTEX
  5
1ab
  8
Layer_0
  10
1381.2572
  20
40.428753
  0
VERTEX
  5
1ac
  8
Layer_0
  10
1395.7428
  20
64.571266
  42
-0.26348698
  0
VERTEX
  5
1ad
  8
Layer_0
  10
1396
  20
64.716919
  42
-0.26348698
  0
VERTEX
  5
1ae
  8
Layer_0
  10
1396.2572
  20
64.571266
  0
VERTEX
  5
1af
  8
Layer_0
  10
1410.7428
  20
40.428745
  42
0.263482
  0
VERTEX
  5
1b0
  8
Layer_0
  10
1411
  20
40.283096
  42
0.263482
  0
VERTEX
  5
1b1
  8
Layer_0
  10
1411.2572
  20
40.428745
  0
VERTEX
  5
1b2
  8
Layer_0
  10
1425.7428
  20
64.571266
  42
-0.26348698
  0
VERTEX
  5
1b3
  8
Layer_0
  10
1426
  20
64.716919
  42
-0.26348698
  0
VERTEX
  5
1b4
  8
Layer_0
  10
1426.2572
  20
64.571266
  0
VERTEX
  5
1b5
  8
Layer_0
  10
1440.7428
  20
40.428753
  42
0.263482
  0
VERTEX
  5
1b6
  8
Layer_0
  10
1441
  20
40.283104
  42
0.263482
  0
VERTEX
  5
1b7
  8
Layer_0
  10
1441.2572
  20
40.428753
  0
VERTEX
  5
1b8
  8
Layer_0
  10
1455.7428
  20
64.571266
  42
-0.26348698
  0
VERTEX
  5
1b9
  8
Layer_0
  10
1456
  20
64.716919
  42
-0.26348698
  0
VERTEX
  5
1ba
  8
Layer_0
  10
1456.2572
  20
64.571266
  0
VERTEX
  5
1bb
  8
Layer_0
  10
1470.7428
  20
40.428745
  42
0.263482
  0
VERTEX
  5
1bc
  8
Layer_0
  10
1471
  20
40.283096
  42
0.263482
  0
VERTEX
  5
1bd
  8
Layer_0
  10
1471.2572
  20
40.428745
  0
VERTEX
  5
1be
  8
Layer_0
  10
1485.7428
  20
64.571266
  42
-0.26348698
  0
VERTEX
  5
1bf
  8
Layer_0
  10
1486
  20
64.716919
  42
-0.26348698
  0
VERTEX
  5
1c0
  8
Layer_0
  10
1486.2572
  20
64.571266
  0
VERTEX
  5
1c1
  8
Layer_0
  10
1500.7428
  20
40.428749
  42
0.263482
  0
VERTEX
  5
1c2
  8
Layer_0
  10
1501
  20
40.2831
  42
0.26348698
  0
VERTEX
  5
1c3
  8
Layer_0
  10
1501.2572
  20
40.428749
  0
VERTEX
  5
1c4
  8
Layer_0
  10
1515.7429
  20
64.571259
  42
-0.26348698
  0
VERTEX
  5
1c5
  8
Layer_0
  10
1516.0001
  20
64.716911
  42
-0.26348698
  0
VERTEX
  5
1c6
  8
Layer_0
  10
1516.2573
  20
64.571259
  0
VERTEX
  5
1c7
  8
Layer_0
  10
1530.9128
  20
40.145657
  42
0.263482
  0
VERTEX
  5
1c8
  8
Layer_0
  10
1531.17
  20
40.000008
  0
VERTEX
  5
1c9
  8
Layer_0
  10
1531.9999
  20
40
  0
VERTEX
  5
1ca
  8
Layer_0
  10
1531.9999
  20
0
  0
VERTEX
  5
1cb
  8
Layer_0
  10
1455
  20
0
  0
VERTEX
  5
1cc
  8
Layer_0
  10
1455
  20
25
  0
VERTEX
  5
1cd
  8
Layer_0
  10
1425
  20
25
  0
VERTEX
  5
1ce
  8
Layer_0
  10
1425
  20
0
  0
VERTEX
  5
1cf
  8
Layer_0
  10
995
  20
0
  0
VERTEX
  5
1d0
  8
Layer_0
  10
995
  20
25
  0
VERTEX
  5
1d1
  8
Layer_0
  10
965
  20
25
  0
VERTEX
  5
1d2
  8
Layer_0
  10
965
  20
0
  0
VERTEX
  5
1d3
  8
Layer_0
  10
530
  20
0
  0
VERTEX
  5
1d4
  8
Layer_0
  10
530
  20
25
  0
VERTEX
  5
1d5
  8
Layer_0
  10
500
  20
25
  0
VERTEX
  5
1d6
  8
Layer_0
  10
500
  20
0
  0
SEQEND
  0
ENDSEC
  0
EOF
