  0
SECTION
  2
HEADER
  9
$ACADVER
  1
AC1009
  0
ENDSEC
  0
SECTION
  2
TABLES
  0
TABLE
  2
LAYER
  70
1
  0
LAYER
  2
Layer_0
  70
0
  62
7
  6
CONTINUOUS
  0
ENDTAB
  0
ENDSEC
  0
SECTION
  2
ENTITIES
  0
POLYLINE
  5
90
  8
Layer_0
  62
7
  70
1
  66
1
  10
0
  20
0
  30
0
  0
VERTEX
  5
90
  8
Layer_0
  10
560
  20
16.5
  42
0.41421356
  0
VERTEX
  5
91
  8
Layer_0
  10
561.5
  20
18
  42
0.41421356
  0
VERTEX
  5
92
  8
Layer_0
  10
560
  20
19.5
  0
VERTEX
  5
93
  8
Layer_0
  10
560
  20
468.00003
  0
VERTEX
  5
94
  8
Layer_0
  10
720
  20
694
  0
VERTEX
  5
95
  8
Layer_0
  10
1020
  20
694
  0
VERTEX
  5
96
  8
Layer_0
  10
1180
  20
468.00003
  0
VERTEX
  5
97
  8
Layer_0
  10
1180
  20
19.5
  42
0.41421356
  0
VERTEX
  5
98
  8
Layer_0
  10
1178.5
  20
18
  42
0.41421356
  0
VERTEX
  5
99
  8
Layer_0
  10
1180
  20
16.5
  0
VERTEX
  5
9a
  8
Layer_0
  10
1180
  20
0
  0
VERTEX
  5
9b
  8
Layer_0
  10
560
  20
0
  0
SEQEND
  0
POLYLINE
  5
9d
  8
Layer_0
  62
7
  70
1
  66
1
  10
0
  20
0
  30
0
  0
VERTEX
  5
9d
  8
Layer_0
  10
360
  20
694
  0
VERTEX
  5
9e
  8
Layer_0
  10
520
  20
468
  0
VERTEX
  5
9f
  8
Layer_0
  10
520
  20
19.5
  42
0.41421356
  0
VERTEX
  5
a0
  8
Layer_0
  10
518.5
  20
18
  42
0.41421356
  0
VERTEX
  5
a1
  8
Layer_0
  10
520
  20
16.5
  0
VERTEX
  5
a2
  8
Layer_0
  10
520
  20
0
  0
VERTEX
  5
a3
  8
Layer_0
  10
0
  20
0
  0
VERTEX
  5
a4
  8
Layer_0
  10
3.7538786e-07
  20
16.5
  42
0.41421356
  0
VERTEX
  5
a5
  8
Layer_0
  10
1.5
  20
18
  42
0.41421356
  0
VERTEX
  5
a6
  8
Layer_0
  10
0
  20
19.5
  0
VERTEX
  5
a7
  8
Layer_0
  10
0
  20
468
  0
VERTEX
  5
a8
  8
Layer_0
  10
160
  20
694
  0
SEQEND
  0
POLYLINE
  5
aa
  8
Layer_0
  62
7
  70
1
  66
1
  10
0
  20
0
  30
0
  0
VERTEX
  5
aa
  8
Layer_0
  10
584
  20
734.5
  42
0.41421356
  0
VERTEX
  5
ab
  8
Layer_0
  10
585.5
  20
736
  42
0.41421356
  0
VERTEX
  5
ac
  8
Layer_0
  10
584
  20
737.5
  0
VERTEX
  5
ad
  8
Layer_0
  10
584
  20
1186
  0
VERTEX
  5
ae
  8
Layer_0
  10
744
  20
1412
  0
VERTEX
  5
af
  8
Layer_0
  10
1044
  20
1412
  0
VERTEX
  5
b0
  8
Layer_0
  10
1204
  20
1186
  0
VERTEX
  5
b1
  8
Layer_0
  10
1204
  20
737.5
  42
0.41421356
  0
VERTEX
  5
b2
  8
Layer_0
  10
1202.5
  20
736
  42
0.41421356
  0
VERTEX
  5
b3
  8
Layer_0
  10
1204
  20
734.5
  0
VERTEX
  5
b4
  8
Layer_0
  10
1204
  20
718
  0
VERTEX
  5
b5
  8
Layer_0
  10
584
  20
718
  0
SEQEND
  0
POLYLINE
  5
b7
  8
Layer_0
  62
7
  70
1
  66
1
  10
0
  20
0
  30
0
  0
VERTEX
  5
b7
  8
Layer_0
  10
384
  20
1412
  0
VERTEX
  5
b8
  8
Layer_0
  10
544
  20
1186
  0
VERTEX
  5
b9
  8
Layer_0
  10
544
  20
737.5
  42
0.41421356
  0
VERTEX
  5
ba
  8
Layer_0
  10
542.5
  20
736
  42
0.41421356
  0
VERTEX
  5
bb
  8
Layer_0
  10
544
  20
734.5
  0
VERTEX
  5
bc
  8
Layer_0
  10
544
  20
718
  0
VERTEX
  5
bd
  8
Layer_0
  10
24
  20
718
  0
VERTEX
  5
be
  8
Layer_0
  10
24
  20
734.5
  42
0.41421356
  0
VERTEX
  5
bf
  8
Layer_0
  10
25.5
  20
736
  42
0.41421356
  0
VERTEX
  5
c0
  8
Layer_0
  10
24
  20
737.5
  0
VERTEX
  5
c1
  8
Layer_0
  10
24
  20
1186
  0
VERTEX
  5
c2
  8
Layer_0
  10
184
  20
1412
  0
SEQEND
  0
ENDSEC
  0
EOF
