  0
SECTION
  2
HEADER
  9
$ACADVER
  1
AC1009
  0
ENDSEC
  0
SECTION
  2
TABLES
  0
TABLE
  2
LAYER
  70
1
  0
LAYER
  2
Layer_0
  70
0
  62
7
  6
CONTINUOUS
  0
ENDTAB
  0
ENDSEC
  0
SECTION
  2
ENTITIES
  0
POLYLINE
  5
90
  8
Layer_0
  62
7
  70
1
  66
1
  10
0
  20
0
  30
0
  0
VERTEX
  5
90
  8
Layer_0
  10
1880.9595
  20
754.41211
  42
0.41421356
  0
VERTEX
  5
91
  8
Layer_0
  10
1879.4595
  20
752.91211
  42
0.41421356
  0
VERTEX
  5
92
  8
Layer_0
  10
1880.9595
  20
751.41211
  0
VERTEX
  5
93
  8
Layer_0
  10
1880.9595
  20
751.41205
  0
VERTEX
  5
94
  8
Layer_0
  10
1880.9595
  20
751.41162
  0
VERTEX
  5
95
  8
Layer_0
  10
1880.9595
  20
633.58936
  0
VERTEX
  5
96
  8
Layer_0
  10
1870.3157
  20
633.71732
  0
VERTEX
  5
97
  8
Layer_0
  10
1859.7136
  20
633.84478
  0
VERTEX
  5
98
  8
Layer_0
  10
1849.1529
  20
633.97175
  0
VERTEX
  5
99
  8
Layer_0
  10
1838.6337
  20
634.09821
  0
VERTEX
  5
9a
  8
Layer_0
  10
1828.1558
  20
634.22418
  0
VERTEX
  5
9b
  8
Layer_0
  10
1817.7191
  20
634.34966
  0
VERTEX
  5
9c
  8
Layer_0
  10
1807.3236
  20
634.47464
  0
VERTEX
  5
9d
  8
Layer_0
  10
1796.9692
  20
634.59912
  0
VERTEX
  5
9e
  8
Layer_0
  10
1786.6558
  20
634.72311
  0
VERTEX
  5
9f
  8
Layer_0
  10
1776.3833
  20
634.84661
  0
VERTEX
  5
a0
  8
Layer_0
  10
1766.1517
  20
634.96962
  0
VERTEX
  5
a1
  8
Layer_0
  10
1755.9608
  20
635.09214
  0
VERTEX
  5
a2
  8
Layer_0
  10
1745.8107
  20
635.21417
  0
VERTEX
  5
a3
  8
Layer_0
  10
1735.7011
  20
635.33571
  0
VERTEX
  5
a4
  8
Layer_0
  10
1725.632
  20
635.45677
  0
VERTEX
  5
a5
  8
Layer_0
  10
1715.6034
  20
635.57734
  0
VERTEX
  5
a6
  8
Layer_0
  10
1705.6151
  20
635.69742
  0
VERTEX
  5
a7
  8
Layer_0
  10
1695.6671
  20
635.81702
  0
VERTEX
  5
a8
  8
Layer_0
  10
1685.7593
  20
635.93613
  0
VERTEX
  5
a9
  8
Layer_0
  10
1675.8917
  20
636.05477
  0
VERTEX
  5
aa
  8
Layer_0
  10
1666.064
  20
636.17292
  0
VERTEX
  5
ab
  8
Layer_0
  10
1656.2763
  20
636.29059
  0
VERTEX
  5
ac
  8
Layer_0
  10
1646.5285
  20
636.40778
  0
VERTEX
  5
ad
  8
Layer_0
  10
1636.8204
  20
636.5245
  0
VERTEX
  5
ae
  8
Layer_0
  10
1627.1521
  20
636.64073
  0
VERTEX
  5
af
  8
Layer_0
  10
1617.5234
  20
636.75649
  0
VERTEX
  5
b0
  8
Layer_0
  10
1607.9342
  20
636.87178
  0
VERTEX
  5
b1
  8
Layer_0
  10
1598.3845
  20
636.98659
  0
VERTEX
  5
b2
  8
Layer_0
  10
1588.8741
  20
637.10092
  0
VERTEX
  5
b3
  8
Layer_0
  10
1579.4031
  20
637.21479
  0
VERTEX
  5
b4
  8
Layer_0
  10
1569.9713
  20
637.32818
  0
VERTEX
  5
b5
  8
Layer_0
  10
1560.5786
  20
637.4411
  0
VERTEX
  5
b6
  8
Layer_0
  10
1551.225
  20
637.55356
  0
VERTEX
  5
b7
  8
Layer_0
  10
1541.9103
  20
637.66554
  0
VERTEX
  5
b8
  8
Layer_0
  10
1532.6346
  20
637.77706
  0
VERTEX
  5
b9
  8
Layer_0
  10
1523.3976
  20
637.88811
  0
VERTEX
  5
ba
  8
Layer_0
  10
1514.1994
  20
637.99869
  0
VERTEX
  5
bb
  8
Layer_0
  10
1505.0398
  20
638.10881
  0
VERTEX
  5
bc
  8
Layer_0
  10
1495.9188
  20
638.21847
  0
VERTEX
  5
bd
  8
Layer_0
  10
1486.8363
  20
638.32766
  0
VERTEX
  5
be
  8
Layer_0
  10
1477.7922
  20
638.43639
  0
VERTEX
  5
bf
  8
Layer_0
  10
1468.7864
  20
638.54466
  0
VERTEX
  5
c0
  8
Layer_0
  10
1459.8188
  20
638.65247
  0
VERTEX
  5
c1
  8
Layer_0
  10
1450.8894
  20
638.75982
  0
VERTEX
  5
c2
  8
Layer_0
  10
1441.9981
  20
638.86672
  0
VERTEX
  5
c3
  8
Layer_0
  10
1433.1448
  20
638.97316
  0
VERTEX
  5
c4
  8
Layer_0
  10
1424.3294
  20
639.07914
  0
VERTEX
  5
c5
  8
Layer_0
  10
1415.5518
  20
639.18467
  0
VERTEX
  5
c6
  8
Layer_0
  10
1406.812
  20
639.28974
  0
VERTEX
  5
c7
  8
Layer_0
  10
1398.1099
  20
639.39436
  0
VERTEX
  5
c8
  8
Layer_0
  10
1389.4453
  20
639.49853
  0
VERTEX
  5
c9
  8
Layer_0
  10
1380.8183
  20
639.60224
  0
VERTEX
  5
ca
  8
Layer_0
  10
1372.2286
  20
639.70551
  0
VERTEX
  5
cb
  8
Layer_0
  10
1363.6764
  20
639.80833
  0
VERTEX
  5
cc
  8
Layer_0
  10
1355.1614
  20
639.9107
  0
VERTEX
  5
cd
  8
Layer_0
  10
1346.6835
  20
640.01262
  0
VERTEX
  5
ce
  8
Layer_0
  10
1338.2428
  20
640.1141
  0
VERTEX
  5
cf
  8
Layer_0
  10
1329.8391
  20
640.21513
  0
VERTEX
  5
d0
  8
Layer_0
  10
1321.4724
  20
640.31572
  0
VERTEX
  5
d1
  8
Layer_0
  10
1313.1425
  20
640.41586
  0
VERTEX
  5
d2
  8
Layer_0
  10
1304.8493
  20
640.51556
  0
VERTEX
  5
d3
  8
Layer_0
  10
1296.5929
  20
640.61483
  0
VERTEX
  5
d4
  8
Layer_0
  10
1288.3731
  20
640.71365
  0
VERTEX
  5
d5
  8
Layer_0
  10
1280.1898
  20
640.81203
  0
VERTEX
  5
d6
  8
Layer_0
  10
1272.043
  20
640.90997
  0
VERTEX
  5
d7
  8
Layer_0
  10
1263.9325
  20
641.00748
  0
VERTEX
  5
d8
  8
Layer_0
  10
1255.8583
  20
641.10455
  0
VERTEX
  5
d9
  8
Layer_0
  10
1247.8204
  20
641.20118
  0
VERTEX
  5
da
  8
Layer_0
  10
1239.8185
  20
641.29738
  0
VERTEX
  5
db
  8
Layer_0
  10
1231.8527
  20
641.39315
  0
VERTEX
  5
dc
  8
Layer_0
  10
1223.9229
  20
641.48849
  0
VERTEX
  5
dd
  8
Layer_0
  10
1216.0289
  20
641.58339
  0
VERTEX
  5
de
  8
Layer_0
  10
1208.1708
  20
641.67786
  0
VERTEX
  5
df
  8
Layer_0
  10
1200.3483
  20
641.7719
  0
VERTEX
  5
e0
  8
Layer_0
  10
1192.5615
  20
641.86552
  0
VERTEX
  5
e1
  8
Layer_0
  10
1184.8103
  20
641.95871
  0
VERTEX
  5
e2
  8
Layer_0
  10
1177.0945
  20
642.05147
  0
VERTEX
  5
e3
  8
Layer_0
  10
1169.4142
  20
642.1438
  0
VERTEX
  5
e4
  8
Layer_0
  10
1161.7691
  20
642.23571
  0
VERTEX
  5
e5
  8
Layer_0
  10
1154.1593
  20
642.3272
  0
VERTEX
  5
e6
  8
Layer_0
  10
1146.5846
  20
642.41827
  0
VERTEX
  5
e7
  8
Layer_0
  10
1139.045
  20
642.50891
  0
VERTEX
  5
e8
  8
Layer_0
  10
1131.5403
  20
642.59913
  0
VERTEX
  5
e9
  8
Layer_0
  10
1124.0706
  20
642.68893
  0
VERTEX
  5
ea
  8
Layer_0
  10
1116.6357
  20
642.77832
  0
VERTEX
  5
eb
  8
Layer_0
  10
1109.2356
  20
642.86728
  0
VERTEX
  5
ec
  8
Layer_0
  10
1101.8701
  20
642.95583
  0
VERTEX
  5
ed
  8
Layer_0
  10
1094.5392
  20
643.04397
  0
VERTEX
  5
ee
  8
Layer_0
  10
1087.2427
  20
643.13169
  0
VERTEX
  5
ef
  8
Layer_0
  10
1079.9807
  20
643.21899
  0
VERTEX
  5
f0
  8
Layer_0
  10
1072.7531
  20
643.30588
  0
VERTEX
  5
f1
  8
Layer_0
  10
1065.5597
  20
643.39237
  0
VERTEX
  5
f2
  8
Layer_0
  10
1058.4004
  20
643.47843
  0
VERTEX
  5
f3
  8
Layer_0
  10
1051.2753
  20
643.56409
  0
VERTEX
  5
f4
  8
Layer_0
  10
1044.1842
  20
643.64935
  0
VERTEX
  5
f5
  8
Layer_0
  10
1037.127
  20
643.73419
  0
VERTEX
  5
f6
  8
Layer_0
  10
1030.1036
  20
643.81862
  0
VERTEX
  5
f7
  8
Layer_0
  10
1023.114
  20
643.90266
  0
VERTEX
  5
f8
  8
Layer_0
  10
1016.1581
  20
643.98628
  0
VERTEX
  5
f9
  8
Layer_0
  10
1009.2358
  20
644.0695
  0
VERTEX
  5
fa
  8
Layer_0
  10
1002.347
  20
644.15232
  0
VERTEX
  5
fb
  8
Layer_0
  10
995.49167
  20
644.23474
  0
VERTEX
  5
fc
  8
Layer_0
  10
988.66968
  20
644.31675
  0
VERTEX
  5
fd
  8
Layer_0
  10
981.88098
  20
644.39837
  0
VERTEX
  5
fe
  8
Layer_0
  10
975.12547
  20
644.47958
  0
VERTEX
  5
ff
  8
Layer_0
  10
968.40308
  20
644.5604
  0
VERTEX
  5
100
  8
Layer_0
  10
961.71372
  20
644.64082
  0
VERTEX
  5
101
  8
Layer_0
  10
955.05731
  20
644.72084
  0
VERTEX
  5
102
  8
Layer_0
  10
948.43378
  20
644.80047
  0
VERTEX
  5
103
  8
Layer_0
  10
941.84303
  20
644.87971
  0
VERTEX
  5
104
  8
Layer_0
  10
935.285
  20
644.95855
  0
VERTEX
  5
105
  8
Layer_0
  10
928.75959
  20
645.037
  0
VERTEX
  5
106
  8
Layer_0
  10
922.26672
  20
645.11506
  0
VERTEX
  5
107
  8
Layer_0
  10
915.80632
  20
645.19273
  0
VERTEX
  5
108
  8
Layer_0
  10
909.37831
  20
645.27
  0
VERTEX
  5
109
  8
Layer_0
  10
902.98259
  20
645.34689
  0
VERTEX
  5
10a
  8
Layer_0
  10
896.61909
  20
645.4234
  0
VERTEX
  5
10b
  8
Layer_0
  10
890.28774
  20
645.49951
  0
VERTEX
  5
10c
  8
Layer_0
  10
883.98844
  20
645.57524
  0
VERTEX
  5
10d
  8
Layer_0
  10
877.72112
  20
645.65059
  0
VERTEX
  5
10e
  8
Layer_0
  10
871.48569
  20
645.72555
  0
VERTEX
  5
10f
  8
Layer_0
  10
865.28207
  20
645.80013
  0
VERTEX
  5
110
  8
Layer_0
  10
859.11019
  20
645.87433
  0
VERTEX
  5
111
  8
Layer_0
  10
852.96996
  20
645.94815
  0
VERTEX
  5
112
  8
Layer_0
  10
846.86129
  20
646.02159
  0
VERTEX
  5
113
  8
Layer_0
  10
840.78412
  20
646.09465
  0
VERTEX
  5
114
  8
Layer_0
  10
834.73835
  20
646.16733
  0
VERTEX
  5
115
  8
Layer_0
  10
828.72391
  20
646.23964
  0
VERTEX
  5
116
  8
Layer_0
  10
822.74071
  20
646.31157
  0
VERTEX
  5
117
  8
Layer_0
  10
816.78867
  20
646.38313
  0
VERTEX
  5
118
  8
Layer_0
  10
810.86771
  20
646.45431
  0
VERTEX
  5
119
  8
Layer_0
  10
804.97776
  20
646.52512
  0
VERTEX
  5
11a
  8
Layer_0
  10
799.11872
  20
646.59556
  0
VERTEX
  5
11b
  8
Layer_0
  10
793.29052
  20
646.66562
  0
VERTEX
  5
11c
  8
Layer_0
  10
787.49307
  20
646.73532
  0
VERTEX
  5
11d
  8
Layer_0
  10
781.7263
  20
646.80465
  0
VERTEX
  5
11e
  8
Layer_0
  10
775.99012
  20
646.87361
  0
VERTEX
  5
11f
  8
Layer_0
  10
770.28445
  20
646.9422
  0
VERTEX
  5
120
  8
Layer_0
  10
764.60922
  20
647.01043
  0
VERTEX
  5
121
  8
Layer_0
  10
758.96433
  20
647.07829
  0
VERTEX
  5
122
  8
Layer_0
  10
753.34971
  20
647.14579
  0
VERTEX
  5
123
  8
Layer_0
  10
747.76528
  20
647.21293
  0
VERTEX
  5
124
  8
Layer_0
  10
742.21095
  20
647.2797
  0
VERTEX
  5
125
  8
Layer_0
  10
736.68664
  20
647.34612
  0
VERTEX
  5
126
  8
Layer_0
  10
731.19228
  20
647.41217
  0
VERTEX
  5
127
  8
Layer_0
  10
725.72777
  20
647.47786
  0
VERTEX
  5
128
  8
Layer_0
  10
720.29305
  20
647.5432
  0
VERTEX
  5
129
  8
Layer_0
  10
714.88802
  20
647.60818
  0
VERTEX
  5
12a
  8
Layer_0
  10
709.51261
  20
647.6728
  0
VERTEX
  5
12b
  8
Layer_0
  10
704.16674
  20
647.73707
  0
VERTEX
  5
12c
  8
Layer_0
  10
698.85032
  20
647.80098
  0
VERTEX
  5
12d
  8
Layer_0
  10
693.56327
  20
647.86455
  0
VERTEX
  5
12e
  8
Layer_0
  10
688.30551
  20
647.92775
  0
VERTEX
  5
12f
  8
Layer_0
  10
683.07696
  20
647.99061
  0
VERTEX
  5
130
  8
Layer_0
  10
677.87754
  20
648.05312
  0
VERTEX
  5
131
  8
Layer_0
  10
672.70717
  20
648.11528
  0
VERTEX
  5
132
  8
Layer_0
  10
667.56576
  20
648.17709
  0
VERTEX
  5
133
  8
Layer_0
  10
662.45324
  20
648.23855
  0
VERTEX
  5
134
  8
Layer_0
  10
657.36952
  20
648.29967
  0
VERTEX
  5
135
  8
Layer_0
  10
652.31452
  20
648.36044
  0
VERTEX
  5
136
  8
Layer_0
  10
647.28816
  20
648.42086
  0
VERTEX
  5
137
  8
Layer_0
  10
642.29036
  20
648.48095
  0
VERTEX
  5
138
  8
Layer_0
  10
637.32104
  20
648.54069
  0
VERTEX
  5
139
  8
Layer_0
  10
632.38012
  20
648.60009
  0
VERTEX
  5
13a
  8
Layer_0
  10
627.46751
  20
648.65915
  0
VERTEX
  5
13b
  8
Layer_0
  10
622.58313
  20
648.71787
  0
VERTEX
  5
13c
  8
Layer_0
  10
617.7269
  20
648.77625
  0
VERTEX
  5
13d
  8
Layer_0
  10
612.89875
  20
648.83429
  0
VERTEX
  5
13e
  8
Layer_0
  10
608.09858
  20
648.892
  0
VERTEX
  5
13f
  8
Layer_0
  10
603.32632
  20
648.94937
  0
VERTEX
  5
140
  8
Layer_0
  10
598.58189
  20
649.00641
  0
VERTEX
  5
141
  8
Layer_0
  10
593.86521
  20
649.06311
  0
VERTEX
  5
142
  8
Layer_0
  10
589.17618
  20
649.11948
  0
VERTEX
  5
143
  8
Layer_0
  10
584.51474
  20
649.17552
  0
VERTEX
  5
144
  8
Layer_0
  10
579.8808
  20
649.23123
  0
VERTEX
  5
145
  8
Layer_0
  10
575.27429
  20
649.28661
  0
VERTEX
  5
146
  8
Layer_0
  10
570.6951
  20
649.34166
  0
VERTEX
  5
147
  8
Layer_0
  10
566.14318
  20
649.39638
  0
VERTEX
  5
148
  8
Layer_0
  10
561.61843
  20
649.45078
  0
VERTEX
  5
149
  8
Layer_0
  10
557.12078
  20
649.50485
  0
VERTEX
  5
14a
  8
Layer_0
  10
552.65014
  20
649.55859
  0
VERTEX
  5
14b
  8
Layer_0
  10
548.20643
  20
649.61201
  0
VERTEX
  5
14c
  8
Layer_0
  10
543.78957
  20
649.66511
  0
VERTEX
  5
14d
  8
Layer_0
  10
539.39948
  20
649.71789
  0
VERTEX
  5
14e
  8
Layer_0
  10
535.03607
  20
649.77035
  0
VERTEX
  5
14f
  8
Layer_0
  10
530.69928
  20
649.82248
  0
VERTEX
  5
150
  8
Layer_0
  10
526.389
  20
649.8743
  0
VERTEX
  5
151
  8
Layer_0
  10
522.10517
  20
649.9258
  0
VERTEX
  5
152
  8
Layer_0
  10
517.84771
  20
649.97698
  0
VERTEX
  5
153
  8
Layer_0
  10
513.61652
  20
650.02785
  0
VERTEX
  5
154
  8
Layer_0
  10
509.41153
  20
650.0784
  0
VERTEX
  5
155
  8
Layer_0
  10
505.23266
  20
650.12864
  0
VERTEX
  5
156
  8
Layer_0
  10
501.07983
  20
650.17856
  0
VERTEX
  5
157
  8
Layer_0
  10
496.95295
  20
650.22817
  0
VERTEX
  5
158
  8
Layer_0
  10
492.85195
  20
650.27748
  0
VERTEX
  5
159
  8
Layer_0
  10
488.77673
  20
650.32647
  0
VERTEX
  5
15a
  8
Layer_0
  10
484.72723
  20
650.37515
  0
VERTEX
  5
15b
  8
Layer_0
  10
480.70336
  20
650.42352
  0
VERTEX
  5
15c
  8
Layer_0
  10
476.70504
  20
650.47159
  0
VERTEX
  5
15d
  8
Layer_0
  10
472.73218
  20
650.51935
  0
VERTEX
  5
15e
  8
Layer_0
  10
468.78471
  20
650.56681
  0
VERTEX
  5
15f
  8
Layer_0
  10
464.86255
  20
650.61396
  0
VERTEX
  5
160
  8
Layer_0
  10
460.9656
  20
650.66081
  0
VERTEX
  5
161
  8
Layer_0
  10
457.0938
  20
650.70735
  0
VERTEX
  5
162
  8
Layer_0
  10
449.4253
  20
650.79954
  0
VERTEX
  5
163
  8
Layer_0
  10
441.85638
  20
650.89053
  0
VERTEX
  5
164
  8
Layer_0
  10
434.38641
  20
650.98033
  0
VERTEX
  5
165
  8
Layer_0
  10
427.01472
  20
651.06895
  0
VERTEX
  5
166
  8
Layer_0
  10
419.74067
  20
651.1564
  0
VERTEX
  5
167
  8
Layer_0
  10
412.5636
  20
651.24268
  0
VERTEX
  5
168
  8
Layer_0
  10
405.48287
  20
651.3278
  0
VERTEX
  5
169
  8
Layer_0
  10
398.49783
  20
651.41177
  0
VERTEX
  5
16a
  8
Layer_0
  10
391.60781
  20
651.4946
  0
VERTEX
  5
16b
  8
Layer_0
  10
384.81218
  20
651.5763
  0
VERTEX
  5
16c
  8
Layer_0
  10
378.11028
  20
651.65687
  0
VERTEX
  5
16d
  8
Layer_0
  10
371.50147
  20
651.73631
  0
VERTEX
  5
16e
  8
Layer_0
  10
364.98508
  20
651.81465
  0
VERTEX
  5
16f
  8
Layer_0
  10
358.56047
  20
651.89188
  0
VERTEX
  5
170
  8
Layer_0
  10
352.22698
  20
651.96802
  0
VERTEX
  5
171
  8
Layer_0
  10
345.98398
  20
652.04307
  0
VERTEX
  5
172
  8
Layer_0
  10
339.8308
  20
652.11704
  0
VERTEX
  5
173
  8
Layer_0
  10
333.76679
  20
652.18994
  0
VERTEX
  5
174
  8
Layer_0
  10
327.79131
  20
652.26178
  0
VERTEX
  5
175
  8
Layer_0
  10
321.90371
  20
652.33255
  0
VERTEX
  5
176
  8
Layer_0
  10
316.10332
  20
652.40228
  0
VERTEX
  5
177
  8
Layer_0
  10
310.38951
  20
652.47097
  0
VERTEX
  5
178
  8
Layer_0
  10
304.76161
  20
652.53863
  0
VERTEX
  5
179
  8
Layer_0
  10
299.21899
  20
652.60526
  0
VERTEX
  5
17a
  8
Layer_0
  10
293.76099
  20
652.67087
  0
VERTEX
  5
17b
  8
Layer_0
  10
288.38695
  20
652.73547
  0
VERTEX
  5
17c
  8
Layer_0
  10
283.09623
  20
652.79908
  0
VERTEX
  5
17d
  8
Layer_0
  10
277.88817
  20
652.86168
  0
VERTEX
  5
17e
  8
Layer_0
  10
272.76213
  20
652.9233
  0
VERTEX
  5
17f
  8
Layer_0
  10
267.71746
  20
652.98395
  0
VERTEX
  5
180
  8
Layer_0
  10
262.75349
  20
653.04362
  0
VERTEX
  5
181
  8
Layer_0
  10
257.86959
  20
653.10233
  0
VERTEX
  5
182
  8
Layer_0
  10
253.06511
  20
653.16009
  0
VERTEX
  5
183
  8
Layer_0
  10
248.33938
  20
653.2169
  0
VERTEX
  5
184
  8
Layer_0
  10
243.69176
  20
653.27277
  0
VERTEX
  5
185
  8
Layer_0
  10
239.1216
  20
653.32771
  0
VERTEX
  5
186
  8
Layer_0
  10
234.62824
  20
653.38172
  0
VERTEX
  5
187
  8
Layer_0
  10
230.21105
  20
653.43482
  0
VERTEX
  5
188
  8
Layer_0
  10
225.86936
  20
653.48701
  0
VERTEX
  5
189
  8
Layer_0
  10
221.60252
  20
653.53831
  0
VERTEX
  5
18a
  8
Layer_0
  10
217.40989
  20
653.58871
  0
VERTEX
  5
18b
  8
Layer_0
  10
213.29081
  20
653.63822
  0
VERTEX
  5
18c
  8
Layer_0
  10
209.24464
  20
653.68686
  0
VERTEX
  5
18d
  8
Layer_0
  10
205.27071
  20
653.73463
  0
VERTEX
  5
18e
  8
Layer_0
  10
201.36839
  20
653.78154
  0
VERTEX
  5
18f
  8
Layer_0
  10
197.53701
  20
653.8276
  0
VERTEX
  5
190
  8
Layer_0
  10
193.77594
  20
653.87281
  0
VERTEX
  5
191
  8
Layer_0
  10
190.08451
  20
653.91719
  0
VERTEX
  5
192
  8
Layer_0
  10
186.46208
  20
653.96073
  0
VERTEX
  5
193
  8
Layer_0
  10
182.90799
  20
654.00345
  0
VERTEX
  5
194
  8
Layer_0
  10
179.4216
  20
654.04536
  0
VERTEX
  5
195
  8
Layer_0
  10
176.00225
  20
654.08647
  0
VERTEX
  5
196
  8
Layer_0
  10
172.6493
  20
654.12677
  0
VERTEX
  5
197
  8
Layer_0
  10
169.36209
  20
654.16629
  0
VERTEX
  5
198
  8
Layer_0
  10
166.13997
  20
654.20502
  0
VERTEX
  5
199
  8
Layer_0
  10
162.98229
  20
654.24298
  0
VERTEX
  5
19a
  8
Layer_0
  10
159.88839
  20
654.28017
  0
VERTEX
  5
19b
  8
Layer_0
  10
156.85764
  20
654.3166
  0
VERTEX
  5
19c
  8
Layer_0
  10
153.88938
  20
654.35228
  0
VERTEX
  5
19d
  8
Layer_0
  10
150.98295
  20
654.38722
  0
VERTEX
  5
19e
  8
Layer_0
  10
148.13771
  20
654.42142
  0
VERTEX
  5
19f
  8
Layer_0
  10
145.353
  20
654.45489
  0
VERTEX
  5
1a0
  8
Layer_0
  10
142.62817
  20
654.48765
  0
VERTEX
  5
1a1
  8
Layer_0
  10
139.96258
  20
654.51969
  0
VERTEX
  5
1a2
  8
Layer_0
  10
137.35558
  20
654.55102
  0
VERTEX
  5
1a3
  8
Layer_0
  10
134.8065
  20
654.58167
  0
VERTEX
  5
1a4
  8
Layer_0
  10
132.3147
  20
654.61162
  0
VERTEX
  5
1a5
  8
Layer_0
  10
129.87953
  20
654.64089
  0
VERTEX
  5
1a6
  8
Layer_0
  10
127.50034
  20
654.66949
  0
VERTEX
  5
1a7
  8
Layer_0
  10
125.17648
  20
654.69742
  0
VERTEX
  5
1a8
  8
Layer_0
  10
122.9073
  20
654.7247
  0
VERTEX
  5
1a9
  8
Layer_0
  10
120.69214
  20
654.75132
  0
VERTEX
  5
1aa
  8
Layer_0
  10
118.53035
  20
654.77731
  0
VERTEX
  5
1ab
  8
Layer_0
  10
116.42129
  20
654.80266
  0
VERTEX
  5
1ac
  8
Layer_0
  10
114.3643
  20
654.82739
  0
VERTEX
  5
1ad
  8
Layer_0
  10
112.35874
  20
654.85149
  0
VERTEX
  5
1ae
  8
Layer_0
  10
110.40394
  20
654.87499
  0
VERTEX
  5
1af
  8
Layer_0
  10
108.49927
  20
654.89788
  0
VERTEX
  5
1b0
  8
Layer_0
  10
106.64406
  20
654.92018
  0
VERTEX
  5
1b1
  8
Layer_0
  10
104.83768
  20
654.9419
  0
VERTEX
  5
1b2
  8
Layer_0
  10
103.07946
  20
654.96303
  0
VERTEX
  5
1b3
  8
Layer_0
  10
101.36876
  20
654.98359
  0
VERTEX
  5
1b4
  8
Layer_0
  10
99.704919
  20
655.00359
  0
VERTEX
  5
1b5
  8
Layer_0
  10
98.087296
  20
655.02303
  0
VERTEX
  5
1b6
  8
Layer_0
  10
96.515238
  20
655.04193
  0
VERTEX
  5
1b7
  8
Layer_0
  10
94.988093
  20
655.06028
  0
VERTEX
  5
1b8
  8
Layer_0
  10
93.505209
  20
655.07811
  0
VERTEX
  5
1b9
  8
Layer_0
  10
92.065937
  20
655.09541
  0
VERTEX
  5
1ba
  8
Layer_0
  10
90.669625
  20
655.11219
  0
VERTEX
  5
1bb
  8
Layer_0
  10
89.315622
  20
655.12846
  0
VERTEX
  5
1bc
  8
Layer_0
  10
88.003278
  20
655.14424
  0
VERTEX
  5
1bd
  8
Layer_0
  10
86.731941
  20
655.15952
  0
VERTEX
  5
1be
  8
Layer_0
  10
85.50096
  20
655.17431
  0
VERTEX
  5
1bf
  8
Layer_0
  10
84.309686
  20
655.18863
  0
VERTEX
  5
1c0
  8
Layer_0
  10
83.157466
  20
655.20248
  0
VERTEX
  5
1c1
  8
Layer_0
  10
82.043649
  20
655.21587
  0
VERTEX
  5
1c2
  8
Layer_0
  10
80.967586
  20
655.2288
  0
VERTEX
  5
1c3
  8
Layer_0
  10
79.928624
  20
655.24129
  0
VERTEX
  5
1c4
  8
Layer_0
  10
78.926114
  20
655.25333
  0
VERTEX
  5
1c5
  8
Layer_0
  10
77.959404
  20
655.26495
  0
VERTEX
  5
1c6
  8
Layer_0
  10
77.027843
  20
655.27615
  0
VERTEX
  5
1c7
  8
Layer_0
  10
76.13078
  20
655.28693
  0
VERTEX
  5
1c8
  8
Layer_0
  10
75.267565
  20
655.2973
  0
VERTEX
  5
1c9
  8
Layer_0
  10
74.437546
  20
655.30728
  0
VERTEX
  5
1ca
  8
Layer_0
  10
73.640073
  20
655.31686
  0
VERTEX
  5
1cb
  8
Layer_0
  10
72.874494
  20
655.32606
  0
VERTEX
  5
1cc
  8
Layer_0
  10
72.140159
  20
655.33489
  0
VERTEX
  5
1cd
  8
Layer_0
  10
71.436417
  20
655.34335
  0
VERTEX
  5
1ce
  8
Layer_0
  10
70.762617
  20
655.35144
  0
VERTEX
  5
1cf
  8
Layer_0
  10
70.118108
  20
655.35919
  0
VERTEX
  5
1d0
  8
Layer_0
  10
69.502239
  20
655.36659
  0
VERTEX
  5
1d1
  8
Layer_0
  10
68.91436
  20
655.37366
  0
VERTEX
  5
1d2
  8
Layer_0
  10
68.353818
  20
655.38039
  0
VERTEX
  5
1d3
  8
Layer_0
  10
67.819964
  20
655.38681
  0
VERTEX
  5
1d4
  8
Layer_0
  10
66.829714
  20
655.39871
  0
VERTEX
  5
1d5
  8
Layer_0
  10
65.938403
  20
655.40942
  0
VERTEX
  5
1d6
  8
Layer_0
  10
65.140823
  20
655.419
  0
VERTEX
  5
1d7
  8
Layer_0
  10
64.431767
  20
655.42752
  0
VERTEX
  5
1d8
  8
Layer_0
  10
63.806027
  20
655.43504
  0
VERTEX
  5
1d9
  8
Layer_0
  10
63.258397
  20
655.44162
  0
VERTEX
  5
1da
  8
Layer_0
  10
62.783668
  20
655.44732
  0
VERTEX
  5
1db
  8
Layer_0
  10
62.376634
  20
655.45221
  0
VERTEX
  5
1dc
  8
Layer_0
  10
62.032088
  20
655.45635
  0
VERTEX
  5
1dd
  8
Layer_0
  10
61.744822
  20
655.4598
  0
VERTEX
  5
1de
  8
Layer_0
  10
61.509628
  20
655.46262
  0
VERTEX
  5
1df
  8
Layer_0
  10
61.3213
  20
655.46488
  0
VERTEX
  5
1e0
  8
Layer_0
  10
61.17463
  20
655.46664
  0
VERTEX
  5
1e1
  8
Layer_0
  10
61.06441
  20
655.46797
  0
VERTEX
  5
1e2
  8
Layer_0
  10
60.985435
  20
655.46891
  0
VERTEX
  5
1e3
  8
Layer_0
  10
60.932495
  20
655.46955
  0
VERTEX
  5
1e4
  8
Layer_0
  10
60.883896
  20
655.47013
  0
VERTEX
  5
1e5
  8
Layer_0
  10
60.876953
  20
655.47021
  0
VERTEX
  5
1e6
  8
Layer_0
  10
60.876709
  20
751.28955
  42
0.41421356
  0
VERTEX
  5
1e7
  8
Layer_0
  10
62.376526
  20
752.78955
  42
0.41421356
  0
VERTEX
  5
1e8
  8
Layer_0
  10
60.876709
  20
754.28955
  0
VERTEX
  5
1e9
  8
Layer_0
  10
60.876526
  20
1001.9878
  0
VERTEX
  5
1ea
  8
Layer_0
  10
1880.9595
  20
1001.9878
  0
SEQEND
  0
POLYLINE
  5
1ec
  8
Layer_0
  62
7
  70
1
  66
1
  10
0
  20
0
  30
0
  0
VERTEX
  5
1ec
  8
Layer_0
  10
1899.915
  20
1256.9492
  0
VERTEX
  5
1ed
  8
Layer_0
  10
1899.918
  20
1159.9277
  42
-1.2883258e-07
  0
VERTEX
  5
1ee
  8
Layer_0
  10
-650.08154
  20
1190.585
  0
VERTEX
  5
1ef
  8
Layer_0
  10
-650.08203
  20
1256.9492
  0
VERTEX
  5
1f0
  8
Layer_0
  10
-650.08179
  20
1256.9492
  0
VERTEX
  5
1f1
  8
Layer_0
  10
-650.08154
  20
1256.9492
  42
0.41421356
  0
VERTEX
  5
1f2
  8
Layer_0
  10
-648.58154
  20
1258.4492
  42
0.41421356
  0
VERTEX
  5
1f3
  8
Layer_0
  10
-650.08154
  20
1259.9492
  0
VERTEX
  5
1f4
  8
Layer_0
  10
-650.08179
  20
1259.9492
  0
VERTEX
  5
1f5
  8
Layer_0
  10
-650.08203
  20
1259.9492
  0
VERTEX
  5
1f6
  8
Layer_0
  10
-650.08203
  20
1507.6489
  0
VERTEX
  5
1f7
  8
Layer_0
  10
-650.08203
  20
1507.6494
  0
VERTEX
  5
1f8
  8
Layer_0
  10
-650.08203
  20
1507.6489
  0
VERTEX
  5
1f9
  8
Layer_0
  10
-650.08203
  20
1507.6494
  0
VERTEX
  5
1fa
  8
Layer_0
  10
1899.915
  20
1507.6494
  0
VERTEX
  5
1fb
  8
Layer_0
  10
1899.915
  20
1259.9492
  0
VERTEX
  5
1fc
  8
Layer_0
  10
1899.918
  20
1259.9479
  0
VERTEX
  5
1fd
  8
Layer_0
  10
1899.9185
  20
1259.9478
  42
0.41421356
  0
VERTEX
  5
1fe
  8
Layer_0
  10
1898.4185
  20
1258.4478
  42
0.41421356
  0
VERTEX
  5
1ff
  8
Layer_0
  10
1899.9185
  20
1256.9478
  0
VERTEX
  5
200
  8
Layer_0
  10
1899.918
  20
1256.9479
  0
SEQEND
  0
POLYLINE
  5
202
  8
Layer_0
  62
7
  70
1
  66
1
  10
0
  20
0
  30
0
  0
VERTEX
  5
202
  8
Layer_0
  10
-280.56836
  20
1729.522
  0
VERTEX
  5
203
  8
Layer_0
  10
-280.56738
  20
1729.522
  0
VERTEX
  5
204
  8
Layer_0
  10
-280.56836
  20
1753.2217
  0
VERTEX
  5
205
  8
Layer_0
  10
-280.56836
  20
1753.2222
  0
VERTEX
  5
206
  8
Layer_0
  10
-280.57105
  20
1753.2254
  0
VERTEX
  5
207
  8
Layer_0
  10
-280.58753
  20
1753.2531
  0
VERTEX
  5
208
  8
Layer_0
  10
-280.63045
  20
1753.3326
  0
VERTEX
  5
209
  8
Layer_0
  10
-280.71242
  20
1753.4911
  0
VERTEX
  5
20a
  8
Layer_0
  10
-280.772
  20
1753.6085
  0
VERTEX
  5
20b
  8
Layer_0
  10
-280.84608
  20
1753.7559
  0
VERTEX
  5
20c
  8
Layer_0
  10
-280.93623
  20
1753.9366
  0
VERTEX
  5
20d
  8
Layer_0
  10
-281.04405
  20
1754.1542
  0
VERTEX
  5
20e
  8
Layer_0
  10
-281.1711
  20
1754.4119
  0
VERTEX
  5
20f
  8
Layer_0
  10
-281.31897
  20
1754.7132
  0
VERTEX
  5
210
  8
Layer_0
  10
-281.48924
  20
1755.0615
  0
VERTEX
  5
211
  8
Layer_0
  10
-281.68347
  20
1755.4601
  0
VERTEX
  5
212
  8
Layer_0
  10
-281.90326
  20
1755.9126
  0
VERTEX
  5
213
  8
Layer_0
  10
-282.15018
  20
1756.4223
  0
VERTEX
  5
214
  8
Layer_0
  10
-282.42581
  20
1756.9926
  0
VERTEX
  5
215
  8
Layer_0
  10
-282.73172
  20
1757.627
  0
VERTEX
  5
216
  8
Layer_0
  10
-283.0695
  20
1758.3287
  0
VERTEX
  5
217
  8
Layer_0
  10
-283.44073
  20
1759.1013
  0
VERTEX
  5
218
  8
Layer_0
  10
-283.84699
  20
1759.9481
  0
VERTEX
  5
219
  8
Layer_0
  10
-284.28984
  20
1760.8726
  0
VERTEX
  5
21a
  8
Layer_0
  10
-284.77088
  20
1761.8781
  0
VERTEX
  5
21b
  8
Layer_0
  10
-285.29168
  20
1762.968
  0
VERTEX
  5
21c
  8
Layer_0
  10
-285.56748
  20
1763.5457
  0
VERTEX
  5
21d
  8
Layer_0
  10
-285.85381
  20
1764.1458
  0
VERTEX
  5
21e
  8
Layer_0
  10
-286.15088
  20
1764.7687
  0
VERTEX
  5
21f
  8
Layer_0
  10
-286.45887
  20
1765.4148
  0
VERTEX
  5
220
  8
Layer_0
  10
-286.77798
  20
1766.0846
  0
VERTEX
  5
221
  8
Layer_0
  10
-287.10842
  20
1766.7785
  0
VERTEX
  5
222
  8
Layer_0
  10
-287.45038
  20
1767.497
  0
VERTEX
  5
223
  8
Layer_0
  10
-287.80405
  20
1768.2403
  0
VERTEX
  5
224
  8
Layer_0
  10
-288.16963
  20
1769.009
  0
VERTEX
  5
225
  8
Layer_0
  10
-288.54733
  20
1769.8036
  0
VERTEX
  5
226
  8
Layer_0
  10
-288.93733
  20
1770.6243
  0
VERTEX
  5
227
  8
Layer_0
  10
-289.33984
  20
1771.4717
  42
0.29166434
  0
VERTEX
  5
228
  8
Layer_0
  10
-288.48145
  20
1772.8223
  42
0.41421356
  0
VERTEX
  5
229
  8
Layer_0
  10
-289.98145
  20
1774.3223
  42
0.24653846
  0
VERTEX
  5
22a
  8
Layer_0
  10
-291.2168
  20
1773.6729
  42
6.6538211e-06
  0
VERTEX
  5
22b
  8
Layer_0
  10
-579.08203
  20
1971.9219
  0
VERTEX
  5
22c
  8
Layer_0
  10
-579.08203
  20
2021.9219
  0
VERTEX
  5
22d
  8
Layer_0
  10
1870.918
  20
2021.9224
  0
VERTEX
  5
22e
  8
Layer_0
  10
1870.9175
  20
2021.9224
  0
VERTEX
  5
22f
  8
Layer_0
  10
1870.9185
  20
1774.3223
  0
VERTEX
  5
230
  8
Layer_0
  10
1870.9182
  20
1774.3223
  0
VERTEX
  5
231
  8
Layer_0
  10
1870.918
  20
1774.3223
  42
0.41421356
  0
VERTEX
  5
232
  8
Layer_0
  10
1869.418
  20
1772.8223
  42
0.41421356
  0
VERTEX
  5
233
  8
Layer_0
  10
1870.918
  20
1771.3223
  0
VERTEX
  5
234
  8
Layer_0
  10
1870.9179
  20
1771.3223
  0
VERTEX
  5
235
  8
Layer_0
  10
1870.9175
  20
1771.3223
  0
VERTEX
  5
236
  8
Layer_0
  10
1870.9175
  20
1703.6558
  0
VERTEX
  5
237
  8
Layer_0
  10
1870.918
  20
1703.6553
  42
3.5341207e-08
  0
SEQEND
  0
ENDSEC
  0
EOF
