  0
SECTION
  2
HEADER
  9
$ACADVER
  1
AC1009
  0
ENDSEC
  0
SECTION
  2
TABLES
  0
TABLE
  2
LAYER
  70
1
  0
LAYER
  2
Layer_0
  70
0
  62
7
  6
CONTINUOUS
  0
ENDTAB
  0
ENDSEC
  0
SECTION
  2
ENTITIES
  0
CIRCLE
  5
90
  8
Layer_0
  62
7
  10
1216
  20
182.50018
  30
0
  40
3
  0
CIRCLE
  5
90
  8
Layer_0
  62
7
  10
1216
  20
132.50018
  30
0
  40
3
  0
CIRCLE
  5
90
  8
Layer_0
  62
7
  10
26.000061
  20
182.50018
  30
0
  40
3
  0
CIRCLE
  5
90
  8
Layer_0
  62
7
  10
26.000061
  20
132.50018
  30
0
  40
3
  0
POLYLINE
  5
90
  8
Layer_0
  62
7
  66
1
  10
0
  20
0
  30
0
  0
VERTEX
  5
90
  8
Layer_0
  10
1231
  20
82.500183
  0
VERTEX
  5
91
  8
Layer_0
  10
1231
  20
207.50018
  0
VERTEX
  5
92
  8
Layer_0
  10
11.000061
  20
207.50018
  0
VERTEX
  5
93
  8
Layer_0
  10
11.000061
  20
82.500183
  0
SEQEND
  0
POLYLINE
  5
95
  8
Layer_0
  62
7
  66
1
  10
0
  20
0
  30
0
  0
VERTEX
  5
95
  8
Layer_0
  10
1231
  20
82.500061
  0
VERTEX
  5
96
  8
Layer_0
  10
1231
  20
82.499817
  0
VERTEX
  5
97
  8
Layer_0
  10
1163
  20
82.499825
  0
VERTEX
  5
98
  8
Layer_0
  10
1163
  20
42.499817
  0
VERTEX
  5
99
  8
Layer_0
  10
1168
  20
42.499817
  0
VERTEX
  5
9a
  8
Layer_0
  10
1153
  20
12.499832
  0
VERTEX
  5
9b
  8
Layer_0
  10
1138
  20
42.499832
  0
VERTEX
  5
9c
  8
Layer_0
  10
1143
  20
42.499832
  0
VERTEX
  5
9d
  8
Layer_0
  10
1143
  20
82.499825
  0
VERTEX
  5
9e
  8
Layer_0
  10
980.99994
  20
82.49984
  0
VERTEX
  5
9f
  8
Layer_0
  10
980.99994
  20
42.499847
  0
VERTEX
  5
a0
  8
Layer_0
  10
985.99994
  20
42.499847
  0
VERTEX
  5
a1
  8
Layer_0
  10
970.99994
  20
12.499847
  0
VERTEX
  5
a2
  8
Layer_0
  10
955.99994
  20
42.499847
  0
VERTEX
  5
a3
  8
Layer_0
  10
960.99994
  20
42.499847
  0
VERTEX
  5
a4
  8
Layer_0
  10
960.99994
  20
82.499847
  0
VERTEX
  5
a5
  8
Layer_0
  10
798.99994
  20
82.499863
  0
VERTEX
  5
a6
  8
Layer_0
  10
798.99994
  20
42.499863
  0
VERTEX
  5
a7
  8
Layer_0
  10
803.99994
  20
42.499863
  0
VERTEX
  5
a8
  8
Layer_0
  10
788.99994
  20
12.499863
  0
VERTEX
  5
a9
  8
Layer_0
  10
773.99994
  20
42.499863
  0
VERTEX
  5
aa
  8
Layer_0
  10
778.99994
  20
42.499863
  0
VERTEX
  5
ab
  8
Layer_0
  10
778.99994
  20
82.499863
  0
VERTEX
  5
ac
  8
Layer_0
  10
616.99994
  20
82.499878
  0
VERTEX
  5
ad
  8
Layer_0
  10
616.99994
  20
42.499878
  0
VERTEX
  5
ae
  8
Layer_0
  10
621.99994
  20
42.499878
  0
VERTEX
  5
af
  8
Layer_0
  10
606.99994
  20
12.499878
  0
VERTEX
  5
b0
  8
Layer_0
  10
591.99994
  20
42.499878
  0
VERTEX
  5
b1
  8
Layer_0
  10
596.99994
  20
42.499878
  0
VERTEX
  5
b2
  8
Layer_0
  10
596.99994
  20
82.499878
  0
VERTEX
  5
b3
  8
Layer_0
  10
434.99994
  20
82.499893
  0
VERTEX
  5
b4
  8
Layer_0
  10
434.99994
  20
42.499893
  0
VERTEX
  5
b5
  8
Layer_0
  10
439.99994
  20
42.499893
  0
VERTEX
  5
b6
  8
Layer_0
  10
424.99991
  20
12.499893
  0
VERTEX
  5
b7
  8
Layer_0
  10
409.99994
  20
42.499893
  0
VERTEX
  5
b8
  8
Layer_0
  10
414.99994
  20
42.499893
  0
VERTEX
  5
b9
  8
Layer_0
  10
414.99994
  20
82.499901
  0
VERTEX
  5
ba
  8
Layer_0
  10
252.99992
  20
82.499916
  0
VERTEX
  5
bb
  8
Layer_0
  10
252.99992
  20
42.499908
  0
VERTEX
  5
bc
  8
Layer_0
  10
257.99994
  20
42.499908
  0
VERTEX
  5
bd
  8
Layer_0
  10
242.99992
  20
12.499908
  0
VERTEX
  5
be
  8
Layer_0
  10
227.99992
  20
42.499924
  0
VERTEX
  5
bf
  8
Layer_0
  10
232.99992
  20
42.499924
  0
VERTEX
  5
c0
  8
Layer_0
  10
232.99992
  20
82.499916
  0
VERTEX
  5
c1
  8
Layer_0
  10
70.999924
  20
82.499931
  0
VERTEX
  5
c2
  8
Layer_0
  10
70.999924
  20
42.499939
  0
VERTEX
  5
c3
  8
Layer_0
  10
75.999924
  20
42.499939
  0
VERTEX
  5
c4
  8
Layer_0
  10
60.999924
  20
12.499939
  0
VERTEX
  5
c5
  8
Layer_0
  10
45.999924
  20
42.499939
  0
VERTEX
  5
c6
  8
Layer_0
  10
50.999924
  20
42.499939
  0
VERTEX
  5
c7
  8
Layer_0
  10
50.999928
  20
82.499931
  0
VERTEX
  5
c8
  8
Layer_0
  10
10.999929
  20
82.499939
  0
SEQEND
  0
ENDSEC
  0
EOF
