  0
SECTION
  2
HEADER
  9
$ACADVER
  1
AC1009
  0
ENDSEC
  0
SECTION
  2
TABLES
  0
TABLE
  2
LAYER
  70
1
  0
LAYER
  2
Layer_0
  70
0
  62
7
  6
CONTINUOUS
  0
ENDTAB
  0
ENDSEC
  0
SECTION
  2
ENTITIES
  0
POLYLINE
  5
90
  8
Layer_0
  62
7
  70
1
  66
1
  10
0
  20
0
  30
0
  0
VERTEX
  5
90
  8
Layer_0
  10
306.40231
  20
209.97614
  0
VERTEX
  5
91
  8
Layer_0
  10
306.40231
  20
161.97614
  0
VERTEX
  5
92
  8
Layer_0
  10
305.89848
  20
161.95582
  0
VERTEX
  5
93
  8
Layer_0
  10
305.4292
  20
161.89755
  0
VERTEX
  5
94
  8
Layer_0
  10
305.00454
  20
161.80535
  0
VERTEX
  5
95
  8
Layer_0
  10
304.63455
  20
161.68324
  0
VERTEX
  5
96
  8
Layer_0
  10
304.32928
  20
161.53525
  0
VERTEX
  5
97
  8
Layer_0
  10
304.09878
  20
161.36538
  0
VERTEX
  5
98
  8
Layer_0
  10
303.9531
  20
161.17767
  0
VERTEX
  5
99
  8
Layer_0
  10
303.90231
  20
160.97614
  0
VERTEX
  5
9a
  8
Layer_0
  10
303.92552
  20
160.83931
  0
VERTEX
  5
9b
  8
Layer_0
  10
303.9931
  20
160.70814
  0
VERTEX
  5
9c
  8
Layer_0
  10
304.102
  20
160.58385
  0
VERTEX
  5
9d
  8
Layer_0
  10
304.24917
  20
160.46765
  0
VERTEX
  5
9e
  8
Layer_0
  10
304.43155
  20
160.36077
  0
VERTEX
  5
9f
  8
Layer_0
  10
304.64608
  20
160.26444
  0
VERTEX
  5
a0
  8
Layer_0
  10
304.88971
  20
160.17986
  0
VERTEX
  5
a1
  8
Layer_0
  10
305.15939
  20
160.10828
  0
VERTEX
  5
a2
  8
Layer_0
  10
91.64476
  20
11.023888
  0
VERTEX
  5
a3
  8
Layer_0
  10
5.5977068
  20
160.06177
  42
0.054165941
  0
VERTEX
  5
a4
  8
Layer_0
  10
6.4023132
  20
159.97755
  0
VERTEX
  5
a5
  8
Layer_0
  10
6.805383
  20
159.99787
  0
VERTEX
  5
a6
  8
Layer_0
  10
7.1808035
  20
160.05614
  0
VERTEX
  5
a7
  8
Layer_0
  10
7.5205322
  20
160.14834
  0
VERTEX
  5
a8
  8
Layer_0
  10
7.8165268
  20
160.27045
  0
VERTEX
  5
a9
  8
Layer_0
  10
8.0607446
  20
160.41845
  0
VERTEX
  5
aa
  8
Layer_0
  10
8.2451433
  20
160.58832
  0
VERTEX
  5
ab
  8
Layer_0
  10
8.3616803
  20
160.77603
  0
VERTEX
  5
ac
  8
Layer_0
  10
8.4023132
  20
160.97757
  0
VERTEX
  5
ad
  8
Layer_0
  10
8.3616803
  20
161.17911
  0
VERTEX
  5
ae
  8
Layer_0
  10
8.2451433
  20
161.36682
  0
VERTEX
  5
af
  8
Layer_0
  10
8.0607447
  20
161.53669
  0
VERTEX
  5
b0
  8
Layer_0
  10
7.8165268
  20
161.68469
  0
VERTEX
  5
b1
  8
Layer_0
  10
7.5205323
  20
161.8068
  0
VERTEX
  5
b2
  8
Layer_0
  10
7.1808037
  20
161.899
  0
VERTEX
  5
b3
  8
Layer_0
  10
6.8053833
  20
161.95727
  0
VERTEX
  5
b4
  8
Layer_0
  10
6.4023137
  20
161.97758
  0
VERTEX
  5
b5
  8
Layer_0
  10
6.4023132
  20
210.97614
  0
VERTEX
  5
b6
  8
Layer_0
  10
6.4023132
  20
310.97614
  0
VERTEX
  5
b7
  8
Layer_0
  10
306.40231
  20
310.97614
  0
SEQEND
  0
ENDSEC
  0
EOF
