  0
SECTION
  2
HEADER
  9
$ACADVER
  1
AC1009
  0
ENDSEC
  0
SECTION
  2
TABLES
  0
TABLE
  2
LAYER
  70
1
  0
LAYER
  2
Layer_0
  70
0
  62
7
  6
CONTINUOUS
  0
ENDTAB
  0
ENDSEC
  0
SECTION
  2
ENTITIES
  0
POLYLINE
  5
90
  8
Layer_0
  62
7
  70
1
  66
1
  10
0
  20
0
  30
0
  0
VERTEX
  5
90
  8
Layer_0
  10
40.249969
  20
7.5
  42
-0.41421356
  0
VERTEX
  5
91
  8
Layer_0
  10
39.749969
  20
7
  0
VERTEX
  5
92
  8
Layer_0
  10
10.749969
  20
7
  42
-0.41421356
  0
VERTEX
  5
93
  8
Layer_0
  10
10.249969
  20
7.5
  0
VERTEX
  5
94
  8
Layer_0
  10
10.249969
  20
7.5
  42
-0.41421356
  0
VERTEX
  5
95
  8
Layer_0
  10
10.749969
  20
8
  0
VERTEX
  5
96
  8
Layer_0
  10
39.749969
  20
8
  42
-0.41421356
  0
SEQEND
  0
POLYLINE
  5
98
  8
Layer_0
  62
7
  70
1
  66
1
  10
0
  20
0
  30
0
  0
VERTEX
  5
98
  8
Layer_0
  10
81.249969
  20
7.5
  42
-0.41421356
  0
VERTEX
  5
99
  8
Layer_0
  10
80.749969
  20
7
  0
VERTEX
  5
9a
  8
Layer_0
  10
51.749969
  20
7
  42
-0.41421356
  0
VERTEX
  5
9b
  8
Layer_0
  10
51.249969
  20
7.5
  0
VERTEX
  5
9c
  8
Layer_0
  10
51.249969
  20
7.5
  42
-0.41421356
  0
VERTEX
  5
9d
  8
Layer_0
  10
51.749969
  20
8
  0
VERTEX
  5
9e
  8
Layer_0
  10
80.749969
  20
8
  42
-0.41421356
  0
SEQEND
  0
POLYLINE
  5
a0
  8
Layer_0
  62
7
  70
1
  66
1
  10
0
  20
0
  30
0
  0
VERTEX
  5
a0
  8
Layer_0
  10
122.24997
  20
7.5
  42
-0.41421356
  0
VERTEX
  5
a1
  8
Layer_0
  10
121.74997
  20
7
  0
VERTEX
  5
a2
  8
Layer_0
  10
92.749969
  20
7
  42
-0.41421356
  0
VERTEX
  5
a3
  8
Layer_0
  10
92.249969
  20
7.5
  0
VERTEX
  5
a4
  8
Layer_0
  10
92.249969
  20
7.5
  42
-0.41421356
  0
VERTEX
  5
a5
  8
Layer_0
  10
92.749969
  20
8
  0
VERTEX
  5
a6
  8
Layer_0
  10
121.74997
  20
8
  42
-0.41421356
  0
SEQEND
  0
POLYLINE
  5
a8
  8
Layer_0
  62
7
  70
1
  66
1
  10
0
  20
0
  30
0
  0
VERTEX
  5
a8
  8
Layer_0
  10
163.24997
  20
7.5
  42
-0.41421356
  0
VERTEX
  5
a9
  8
Layer_0
  10
162.74997
  20
7
  0
VERTEX
  5
aa
  8
Layer_0
  10
133.74997
  20
7
  42
-0.41421356
  0
VERTEX
  5
ab
  8
Layer_0
  10
133.24997
  20
7.5
  0
VERTEX
  5
ac
  8
Layer_0
  10
133.24997
  20
7.5
  42
-0.41421356
  0
VERTEX
  5
ad
  8
Layer_0
  10
133.74997
  20
8
  0
VERTEX
  5
ae
  8
Layer_0
  10
162.74997
  20
8
  42
-0.41421356
  0
SEQEND
  0
POLYLINE
  5
b0
  8
Layer_0
  62
7
  70
1
  66
1
  10
0
  20
0
  30
0
  0
VERTEX
  5
b0
  8
Layer_0
  10
204.24997
  20
7.5
  42
-0.41421356
  0
VERTEX
  5
b1
  8
Layer_0
  10
203.74997
  20
7
  0
VERTEX
  5
b2
  8
Layer_0
  10
174.74997
  20
7
  42
-0.41421356
  0
VERTEX
  5
b3
  8
Layer_0
  10
174.24997
  20
7.5
  0
VERTEX
  5
b4
  8
Layer_0
  10
174.24997
  20
7.5
  42
-0.41421356
  0
VERTEX
  5
b5
  8
Layer_0
  10
174.74997
  20
8
  0
VERTEX
  5
b6
  8
Layer_0
  10
203.74997
  20
8
  42
-0.41421356
  0
SEQEND
  0
POLYLINE
  5
b8
  8
Layer_0
  62
7
  70
1
  66
1
  10
0
  20
0
  30
0
  0
VERTEX
  5
b8
  8
Layer_0
  10
245.24997
  20
7.5
  42
-0.41421356
  0
VERTEX
  5
b9
  8
Layer_0
  10
244.74997
  20
7
  0
VERTEX
  5
ba
  8
Layer_0
  10
215.74997
  20
7
  42
-0.41421356
  0
VERTEX
  5
bb
  8
Layer_0
  10
215.24997
  20
7.5
  0
VERTEX
  5
bc
  8
Layer_0
  10
215.24997
  20
7.5
  42
-0.41421356
  0
VERTEX
  5
bd
  8
Layer_0
  10
215.74997
  20
8
  0
VERTEX
  5
be
  8
Layer_0
  10
244.74997
  20
8
  42
-0.41421356
  0
SEQEND
  0
POLYLINE
  5
c0
  8
Layer_0
  62
7
  70
1
  66
1
  10
0
  20
0
  30
0
  0
VERTEX
  5
c0
  8
Layer_0
  10
286.24997
  20
7.5
  42
-0.41421356
  0
VERTEX
  5
c1
  8
Layer_0
  10
285.74997
  20
7
  0
VERTEX
  5
c2
  8
Layer_0
  10
256.74997
  20
7
  42
-0.41421356
  0
VERTEX
  5
c3
  8
Layer_0
  10
256.24997
  20
7.5
  0
VERTEX
  5
c4
  8
Layer_0
  10
256.24997
  20
7.5
  42
-0.41421356
  0
VERTEX
  5
c5
  8
Layer_0
  10
256.74997
  20
8
  0
VERTEX
  5
c6
  8
Layer_0
  10
285.74997
  20
8
  42
-0.41421356
  0
SEQEND
  0
POLYLINE
  5
c8
  8
Layer_0
  62
7
  70
1
  66
1
  10
0
  20
0
  30
0
  0
VERTEX
  5
c8
  8
Layer_0
  10
327.24997
  20
7.5
  42
-0.41421356
  0
VERTEX
  5
c9
  8
Layer_0
  10
326.74997
  20
7
  0
VERTEX
  5
ca
  8
Layer_0
  10
297.74997
  20
7
  42
-0.41421356
  0
VERTEX
  5
cb
  8
Layer_0
  10
297.24997
  20
7.5
  0
VERTEX
  5
cc
  8
Layer_0
  10
297.24997
  20
7.5
  42
-0.41421356
  0
VERTEX
  5
cd
  8
Layer_0
  10
297.74997
  20
8
  0
VERTEX
  5
ce
  8
Layer_0
  10
326.74997
  20
8
  42
-0.41421356
  0
SEQEND
  0
POLYLINE
  5
d0
  8
Layer_0
  62
7
  70
1
  66
1
  10
0
  20
0
  30
0
  0
VERTEX
  5
d0
  8
Layer_0
  10
368.24997
  20
7.5
  42
-0.41421356
  0
VERTEX
  5
d1
  8
Layer_0
  10
367.74997
  20
7
  0
VERTEX
  5
d2
  8
Layer_0
  10
338.74997
  20
7
  42
-0.41421356
  0
VERTEX
  5
d3
  8
Layer_0
  10
338.24997
  20
7.5
  0
VERTEX
  5
d4
  8
Layer_0
  10
338.24997
  20
7.5
  42
-0.41421356
  0
VERTEX
  5
d5
  8
Layer_0
  10
338.74997
  20
8
  0
VERTEX
  5
d6
  8
Layer_0
  10
367.74997
  20
8
  42
-0.41421356
  0
SEQEND
  0
POLYLINE
  5
d8
  8
Layer_0
  62
7
  70
1
  66
1
  10
0
  20
0
  30
0
  0
VERTEX
  5
d8
  8
Layer_0
  10
409.24997
  20
7.5
  42
-0.41421356
  0
VERTEX
  5
d9
  8
Layer_0
  10
408.74997
  20
7
  0
VERTEX
  5
da
  8
Layer_0
  10
379.74997
  20
7
  42
-0.41421356
  0
VERTEX
  5
db
  8
Layer_0
  10
379.24997
  20
7.5
  0
VERTEX
  5
dc
  8
Layer_0
  10
379.24997
  20
7.5
  42
-0.41421356
  0
VERTEX
  5
dd
  8
Layer_0
  10
379.74997
  20
8
  0
VERTEX
  5
de
  8
Layer_0
  10
408.74997
  20
8
  42
-0.41421356
  0
SEQEND
  0
POLYLINE
  5
e0
  8
Layer_0
  62
7
  70
1
  66
1
  10
0
  20
0
  30
0
  0
VERTEX
  5
e0
  8
Layer_0
  10
60.749969
  20
12.5
  42
-0.41421356
  0
VERTEX
  5
e1
  8
Layer_0
  10
60.249969
  20
12
  0
VERTEX
  5
e2
  8
Layer_0
  10
31.249969
  20
12
  42
-0.41421356
  0
VERTEX
  5
e3
  8
Layer_0
  10
30.749969
  20
12.5
  0
VERTEX
  5
e4
  8
Layer_0
  10
30.749969
  20
12.5
  42
-0.41421356
  0
VERTEX
  5
e5
  8
Layer_0
  10
31.249969
  20
13
  0
VERTEX
  5
e6
  8
Layer_0
  10
60.249969
  20
13
  42
-0.41421356
  0
SEQEND
  0
POLYLINE
  5
e8
  8
Layer_0
  62
7
  70
1
  66
1
  10
0
  20
0
  30
0
  0
VERTEX
  5
e8
  8
Layer_0
  10
101.74997
  20
12.5
  42
-0.41421356
  0
VERTEX
  5
e9
  8
Layer_0
  10
101.24997
  20
12
  0
VERTEX
  5
ea
  8
Layer_0
  10
72.249969
  20
12
  42
-0.41421356
  0
VERTEX
  5
eb
  8
Layer_0
  10
71.749969
  20
12.5
  0
VERTEX
  5
ec
  8
Layer_0
  10
71.749969
  20
12.5
  42
-0.41421356
  0
VERTEX
  5
ed
  8
Layer_0
  10
72.249969
  20
13
  0
VERTEX
  5
ee
  8
Layer_0
  10
101.24997
  20
13
  42
-0.41421356
  0
SEQEND
  0
POLYLINE
  5
f0
  8
Layer_0
  62
7
  70
1
  66
1
  10
0
  20
0
  30
0
  0
VERTEX
  5
f0
  8
Layer_0
  10
142.74997
  20
12.5
  42
-0.41421356
  0
VERTEX
  5
f1
  8
Layer_0
  10
142.24997
  20
12
  0
VERTEX
  5
f2
  8
Layer_0
  10
113.24997
  20
12
  42
-0.41421356
  0
VERTEX
  5
f3
  8
Layer_0
  10
112.74997
  20
12.5
  0
VERTEX
  5
f4
  8
Layer_0
  10
112.74997
  20
12.5
  42
-0.41421356
  0
VERTEX
  5
f5
  8
Layer_0
  10
113.24997
  20
13
  0
VERTEX
  5
f6
  8
Layer_0
  10
142.24997
  20
13
  42
-0.41421356
  0
SEQEND
  0
POLYLINE
  5
f8
  8
Layer_0
  62
7
  70
1
  66
1
  10
0
  20
0
  30
0
  0
VERTEX
  5
f8
  8
Layer_0
  10
183.74997
  20
12.5
  42
-0.41421356
  0
VERTEX
  5
f9
  8
Layer_0
  10
183.24997
  20
12
  0
VERTEX
  5
fa
  8
Layer_0
  10
154.24997
  20
12
  42
-0.41421356
  0
VERTEX
  5
fb
  8
Layer_0
  10
153.74997
  20
12.5
  0
VERTEX
  5
fc
  8
Layer_0
  10
153.74997
  20
12.5
  42
-0.41421356
  0
VERTEX
  5
fd
  8
Layer_0
  10
154.24997
  20
13
  0
VERTEX
  5
fe
  8
Layer_0
  10
183.24997
  20
13
  42
-0.41421356
  0
SEQEND
  0
POLYLINE
  5
100
  8
Layer_0
  62
7
  70
1
  66
1
  10
0
  20
0
  30
0
  0
VERTEX
  5
100
  8
Layer_0
  10
224.74997
  20
12.5
  42
-0.41421356
  0
VERTEX
  5
101
  8
Layer_0
  10
224.24997
  20
12
  0
VERTEX
  5
102
  8
Layer_0
  10
195.24997
  20
12
  42
-0.41421356
  0
VERTEX
  5
103
  8
Layer_0
  10
194.74997
  20
12.5
  0
VERTEX
  5
104
  8
Layer_0
  10
194.74997
  20
12.5
  42
-0.41421356
  0
VERTEX
  5
105
  8
Layer_0
  10
195.24997
  20
13
  0
VERTEX
  5
106
  8
Layer_0
  10
224.24997
  20
13
  42
-0.41421356
  0
SEQEND
  0
POLYLINE
  5
108
  8
Layer_0
  62
7
  70
1
  66
1
  10
0
  20
0
  30
0
  0
VERTEX
  5
108
  8
Layer_0
  10
265.74997
  20
12.5
  42
-0.41421356
  0
VERTEX
  5
109
  8
Layer_0
  10
265.24997
  20
12
  0
VERTEX
  5
10a
  8
Layer_0
  10
236.24997
  20
12
  42
-0.41421356
  0
VERTEX
  5
10b
  8
Layer_0
  10
235.74997
  20
12.5
  0
VERTEX
  5
10c
  8
Layer_0
  10
235.74997
  20
12.5
  42
-0.41421356
  0
VERTEX
  5
10d
  8
Layer_0
  10
236.24997
  20
13
  0
VERTEX
  5
10e
  8
Layer_0
  10
265.24997
  20
13
  42
-0.41421356
  0
SEQEND
  0
POLYLINE
  5
110
  8
Layer_0
  62
7
  70
1
  66
1
  10
0
  20
0
  30
0
  0
VERTEX
  5
110
  8
Layer_0
  10
306.74997
  20
12.5
  42
-0.41421356
  0
VERTEX
  5
111
  8
Layer_0
  10
306.24997
  20
12
  0
VERTEX
  5
112
  8
Layer_0
  10
277.24997
  20
12
  42
-0.41421356
  0
VERTEX
  5
113
  8
Layer_0
  10
276.74997
  20
12.5
  0
VERTEX
  5
114
  8
Layer_0
  10
276.74997
  20
12.5
  42
-0.41421356
  0
VERTEX
  5
115
  8
Layer_0
  10
277.24997
  20
13
  0
VERTEX
  5
116
  8
Layer_0
  10
306.24997
  20
13
  42
-0.41421356
  0
SEQEND
  0
POLYLINE
  5
118
  8
Layer_0
  62
7
  70
1
  66
1
  10
0
  20
0
  30
0
  0
VERTEX
  5
118
  8
Layer_0
  10
347.74997
  20
12.5
  42
-0.41421356
  0
VERTEX
  5
119
  8
Layer_0
  10
347.24997
  20
12
  0
VERTEX
  5
11a
  8
Layer_0
  10
318.24997
  20
12
  42
-0.41421356
  0
VERTEX
  5
11b
  8
Layer_0
  10
317.74997
  20
12.5
  0
VERTEX
  5
11c
  8
Layer_0
  10
317.74997
  20
12.5
  42
-0.41421356
  0
VERTEX
  5
11d
  8
Layer_0
  10
318.24997
  20
13
  0
VERTEX
  5
11e
  8
Layer_0
  10
347.24997
  20
13
  42
-0.41421356
  0
SEQEND
  0
POLYLINE
  5
120
  8
Layer_0
  62
7
  70
1
  66
1
  10
0
  20
0
  30
0
  0
VERTEX
  5
120
  8
Layer_0
  10
388.74997
  20
12.5
  42
-0.41421356
  0
VERTEX
  5
121
  8
Layer_0
  10
388.24997
  20
12
  0
VERTEX
  5
122
  8
Layer_0
  10
359.24997
  20
12
  42
-0.41421356
  0
VERTEX
  5
123
  8
Layer_0
  10
358.74997
  20
12.5
  0
VERTEX
  5
124
  8
Layer_0
  10
358.74997
  20
12.5
  42
-0.41421356
  0
VERTEX
  5
125
  8
Layer_0
  10
359.24997
  20
13
  0
VERTEX
  5
126
  8
Layer_0
  10
388.24997
  20
13
  42
-0.41421356
  0
SEQEND
  0
POLYLINE
  5
128
  8
Layer_0
  62
7
  70
1
  66
1
  10
0
  20
0
  30
0
  0
VERTEX
  5
128
  8
Layer_0
  10
429.74997
  20
12.5
  42
-0.41421356
  0
VERTEX
  5
129
  8
Layer_0
  10
429.24997
  20
12
  0
VERTEX
  5
12a
  8
Layer_0
  10
400.24997
  20
12
  42
-0.41421356
  0
VERTEX
  5
12b
  8
Layer_0
  10
399.74997
  20
12.5
  0
VERTEX
  5
12c
  8
Layer_0
  10
399.74997
  20
12.5
  42
-0.41421356
  0
VERTEX
  5
12d
  8
Layer_0
  10
400.24997
  20
13
  0
VERTEX
  5
12e
  8
Layer_0
  10
429.24997
  20
13
  42
-0.41421356
  0
SEQEND
  0
POLYLINE
  5
130
  8
Layer_0
  62
7
  70
1
  66
1
  10
0
  20
0
  30
0
  0
VERTEX
  5
130
  8
Layer_0
  10
40.249969
  20
17.5
  42
-0.41421356
  0
VERTEX
  5
131
  8
Layer_0
  10
39.749969
  20
17
  0
VERTEX
  5
132
  8
Layer_0
  10
10.749969
  20
17
  42
-0.41421356
  0
VERTEX
  5
133
  8
Layer_0
  10
10.249969
  20
17.5
  0
VERTEX
  5
134
  8
Layer_0
  10
10.249969
  20
17.5
  42
-0.41421356
  0
VERTEX
  5
135
  8
Layer_0
  10
10.749969
  20
18
  0
VERTEX
  5
136
  8
Layer_0
  10
39.749969
  20
18
  42
-0.41421356
  0
SEQEND
  0
POLYLINE
  5
138
  8
Layer_0
  62
7
  70
1
  66
1
  10
0
  20
0
  30
0
  0
VERTEX
  5
138
  8
Layer_0
  10
81.249969
  20
17.5
  42
-0.41421356
  0
VERTEX
  5
139
  8
Layer_0
  10
80.749969
  20
17
  0
VERTEX
  5
13a
  8
Layer_0
  10
51.749969
  20
17
  42
-0.41421356
  0
VERTEX
  5
13b
  8
Layer_0
  10
51.249969
  20
17.5
  0
VERTEX
  5
13c
  8
Layer_0
  10
51.249969
  20
17.5
  42
-0.41421356
  0
VERTEX
  5
13d
  8
Layer_0
  10
51.749969
  20
18
  0
VERTEX
  5
13e
  8
Layer_0
  10
80.749969
  20
18
  42
-0.41421356
  0
SEQEND
  0
POLYLINE
  5
140
  8
Layer_0
  62
7
  70
1
  66
1
  10
0
  20
0
  30
0
  0
VERTEX
  5
140
  8
Layer_0
  10
122.24997
  20
17.5
  42
-0.41421356
  0
VERTEX
  5
141
  8
Layer_0
  10
121.74997
  20
17
  0
VERTEX
  5
142
  8
Layer_0
  10
92.749969
  20
17
  42
-0.41421356
  0
VERTEX
  5
143
  8
Layer_0
  10
92.249969
  20
17.5
  0
VERTEX
  5
144
  8
Layer_0
  10
92.249969
  20
17.5
  42
-0.41421356
  0
VERTEX
  5
145
  8
Layer_0
  10
92.749969
  20
18
  0
VERTEX
  5
146
  8
Layer_0
  10
121.74997
  20
18
  42
-0.41421356
  0
SEQEND
  0
POLYLINE
  5
148
  8
Layer_0
  62
7
  70
1
  66
1
  10
0
  20
0
  30
0
  0
VERTEX
  5
148
  8
Layer_0
  10
163.24997
  20
17.5
  42
-0.41421356
  0
VERTEX
  5
149
  8
Layer_0
  10
162.74997
  20
17
  0
VERTEX
  5
14a
  8
Layer_0
  10
133.74997
  20
17
  42
-0.41421356
  0
VERTEX
  5
14b
  8
Layer_0
  10
133.24997
  20
17.5
  0
VERTEX
  5
14c
  8
Layer_0
  10
133.24997
  20
17.5
  42
-0.41421356
  0
VERTEX
  5
14d
  8
Layer_0
  10
133.74997
  20
18
  0
VERTEX
  5
14e
  8
Layer_0
  10
162.74997
  20
18
  42
-0.41421356
  0
SEQEND
  0
POLYLINE
  5
150
  8
Layer_0
  62
7
  70
1
  66
1
  10
0
  20
0
  30
0
  0
VERTEX
  5
150
  8
Layer_0
  10
204.24997
  20
17.5
  42
-0.41421356
  0
VERTEX
  5
151
  8
Layer_0
  10
203.74997
  20
17
  0
VERTEX
  5
152
  8
Layer_0
  10
174.74997
  20
17
  42
-0.41421356
  0
VERTEX
  5
153
  8
Layer_0
  10
174.24997
  20
17.5
  0
VERTEX
  5
154
  8
Layer_0
  10
174.24997
  20
17.5
  42
-0.41421356
  0
VERTEX
  5
155
  8
Layer_0
  10
174.74997
  20
18
  0
VERTEX
  5
156
  8
Layer_0
  10
203.74997
  20
18
  42
-0.41421356
  0
SEQEND
  0
POLYLINE
  5
158
  8
Layer_0
  62
7
  70
1
  66
1
  10
0
  20
0
  30
0
  0
VERTEX
  5
158
  8
Layer_0
  10
245.24997
  20
17.5
  42
-0.41421356
  0
VERTEX
  5
159
  8
Layer_0
  10
244.74997
  20
17
  0
VERTEX
  5
15a
  8
Layer_0
  10
215.74997
  20
17
  42
-0.41421356
  0
VERTEX
  5
15b
  8
Layer_0
  10
215.24997
  20
17.5
  0
VERTEX
  5
15c
  8
Layer_0
  10
215.24997
  20
17.5
  42
-0.41421356
  0
VERTEX
  5
15d
  8
Layer_0
  10
215.74997
  20
18
  0
VERTEX
  5
15e
  8
Layer_0
  10
244.74997
  20
18
  42
-0.41421356
  0
SEQEND
  0
POLYLINE
  5
160
  8
Layer_0
  62
7
  70
1
  66
1
  10
0
  20
0
  30
0
  0
VERTEX
  5
160
  8
Layer_0
  10
286.24997
  20
17.5
  42
-0.41421356
  0
VERTEX
  5
161
  8
Layer_0
  10
285.74997
  20
17
  0
VERTEX
  5
162
  8
Layer_0
  10
256.74997
  20
17
  42
-0.41421356
  0
VERTEX
  5
163
  8
Layer_0
  10
256.24997
  20
17.5
  0
VERTEX
  5
164
  8
Layer_0
  10
256.24997
  20
17.5
  42
-0.41421356
  0
VERTEX
  5
165
  8
Layer_0
  10
256.74997
  20
18
  0
VERTEX
  5
166
  8
Layer_0
  10
285.74997
  20
18
  42
-0.41421356
  0
SEQEND
  0
POLYLINE
  5
168
  8
Layer_0
  62
7
  70
1
  66
1
  10
0
  20
0
  30
0
  0
VERTEX
  5
168
  8
Layer_0
  10
327.24997
  20
17.5
  42
-0.41421356
  0
VERTEX
  5
169
  8
Layer_0
  10
326.74997
  20
17
  0
VERTEX
  5
16a
  8
Layer_0
  10
297.74997
  20
17
  42
-0.41421356
  0
VERTEX
  5
16b
  8
Layer_0
  10
297.24997
  20
17.5
  0
VERTEX
  5
16c
  8
Layer_0
  10
297.24997
  20
17.5
  42
-0.41421356
  0
VERTEX
  5
16d
  8
Layer_0
  10
297.74997
  20
18
  0
VERTEX
  5
16e
  8
Layer_0
  10
326.74997
  20
18
  42
-0.41421356
  0
SEQEND
  0
POLYLINE
  5
170
  8
Layer_0
  62
7
  70
1
  66
1
  10
0
  20
0
  30
0
  0
VERTEX
  5
170
  8
Layer_0
  10
368.24997
  20
17.5
  42
-0.41421356
  0
VERTEX
  5
171
  8
Layer_0
  10
367.74997
  20
17
  0
VERTEX
  5
172
  8
Layer_0
  10
338.74997
  20
17
  42
-0.41421356
  0
VERTEX
  5
173
  8
Layer_0
  10
338.24997
  20
17.5
  0
VERTEX
  5
174
  8
Layer_0
  10
338.24997
  20
17.5
  42
-0.41421356
  0
VERTEX
  5
175
  8
Layer_0
  10
338.74997
  20
18
  0
VERTEX
  5
176
  8
Layer_0
  10
367.74997
  20
18
  42
-0.41421356
  0
SEQEND
  0
POLYLINE
  5
178
  8
Layer_0
  62
7
  70
1
  66
1
  10
0
  20
0
  30
0
  0
VERTEX
  5
178
  8
Layer_0
  10
409.24997
  20
17.5
  42
-0.41421356
  0
VERTEX
  5
179
  8
Layer_0
  10
408.74997
  20
17
  0
VERTEX
  5
17a
  8
Layer_0
  10
379.74997
  20
17
  42
-0.41421356
  0
VERTEX
  5
17b
  8
Layer_0
  10
379.24997
  20
17.5
  0
VERTEX
  5
17c
  8
Layer_0
  10
379.24997
  20
17.5
  42
-0.41421356
  0
VERTEX
  5
17d
  8
Layer_0
  10
379.74997
  20
18
  0
VERTEX
  5
17e
  8
Layer_0
  10
408.74997
  20
18
  42
-0.41421356
  0
SEQEND
  0
POLYLINE
  5
180
  8
Layer_0
  62
7
  70
1
  66
1
  10
0
  20
0
  30
0
  0
VERTEX
  5
180
  8
Layer_0
  10
60.749969
  20
22.5
  42
-0.41421356
  0
VERTEX
  5
181
  8
Layer_0
  10
60.249969
  20
22
  0
VERTEX
  5
182
  8
Layer_0
  10
31.249969
  20
22
  42
-0.41421356
  0
VERTEX
  5
183
  8
Layer_0
  10
30.749969
  20
22.5
  0
VERTEX
  5
184
  8
Layer_0
  10
30.749969
  20
22.5
  42
-0.41421356
  0
VERTEX
  5
185
  8
Layer_0
  10
31.249969
  20
23
  0
VERTEX
  5
186
  8
Layer_0
  10
60.249969
  20
23
  42
-0.41421356
  0
SEQEND
  0
POLYLINE
  5
188
  8
Layer_0
  62
7
  70
1
  66
1
  10
0
  20
0
  30
0
  0
VERTEX
  5
188
  8
Layer_0
  10
101.74997
  20
22.5
  42
-0.41421356
  0
VERTEX
  5
189
  8
Layer_0
  10
101.24997
  20
22
  0
VERTEX
  5
18a
  8
Layer_0
  10
72.249969
  20
22
  42
-0.41421356
  0
VERTEX
  5
18b
  8
Layer_0
  10
71.749969
  20
22.5
  0
VERTEX
  5
18c
  8
Layer_0
  10
71.749969
  20
22.5
  42
-0.41421356
  0
VERTEX
  5
18d
  8
Layer_0
  10
72.249969
  20
23
  0
VERTEX
  5
18e
  8
Layer_0
  10
101.24997
  20
23
  42
-0.41421356
  0
SEQEND
  0
POLYLINE
  5
190
  8
Layer_0
  62
7
  70
1
  66
1
  10
0
  20
0
  30
0
  0
VERTEX
  5
190
  8
Layer_0
  10
142.74997
  20
22.5
  42
-0.41421356
  0
VERTEX
  5
191
  8
Layer_0
  10
142.24997
  20
22
  0
VERTEX
  5
192
  8
Layer_0
  10
113.24997
  20
22
  42
-0.41421356
  0
VERTEX
  5
193
  8
Layer_0
  10
112.74997
  20
22.5
  0
VERTEX
  5
194
  8
Layer_0
  10
112.74997
  20
22.5
  42
-0.41421356
  0
VERTEX
  5
195
  8
Layer_0
  10
113.24997
  20
23
  0
VERTEX
  5
196
  8
Layer_0
  10
142.24997
  20
23
  42
-0.41421356
  0
SEQEND
  0
POLYLINE
  5
198
  8
Layer_0
  62
7
  70
1
  66
1
  10
0
  20
0
  30
0
  0
VERTEX
  5
198
  8
Layer_0
  10
183.74997
  20
22.5
  42
-0.41421356
  0
VERTEX
  5
199
  8
Layer_0
  10
183.24997
  20
22
  0
VERTEX
  5
19a
  8
Layer_0
  10
154.24997
  20
22
  42
-0.41421356
  0
VERTEX
  5
19b
  8
Layer_0
  10
153.74997
  20
22.5
  0
VERTEX
  5
19c
  8
Layer_0
  10
153.74997
  20
22.5
  42
-0.41421356
  0
VERTEX
  5
19d
  8
Layer_0
  10
154.24997
  20
23
  0
VERTEX
  5
19e
  8
Layer_0
  10
183.24997
  20
23
  42
-0.41421356
  0
SEQEND
  0
POLYLINE
  5
1a0
  8
Layer_0
  62
7
  70
1
  66
1
  10
0
  20
0
  30
0
  0
VERTEX
  5
1a0
  8
Layer_0
  10
224.74997
  20
22.5
  42
-0.41421356
  0
VERTEX
  5
1a1
  8
Layer_0
  10
224.24997
  20
22
  0
VERTEX
  5
1a2
  8
Layer_0
  10
195.24997
  20
22
  42
-0.41421356
  0
VERTEX
  5
1a3
  8
Layer_0
  10
194.74997
  20
22.5
  0
VERTEX
  5
1a4
  8
Layer_0
  10
194.74997
  20
22.5
  42
-0.41421356
  0
VERTEX
  5
1a5
  8
Layer_0
  10
195.24997
  20
23
  0
VERTEX
  5
1a6
  8
Layer_0
  10
224.24997
  20
23
  42
-0.41421356
  0
SEQEND
  0
POLYLINE
  5
1a8
  8
Layer_0
  62
7
  70
1
  66
1
  10
0
  20
0
  30
0
  0
VERTEX
  5
1a8
  8
Layer_0
  10
265.74997
  20
22.5
  42
-0.41421356
  0
VERTEX
  5
1a9
  8
Layer_0
  10
265.24997
  20
22
  0
VERTEX
  5
1aa
  8
Layer_0
  10
236.24997
  20
22
  42
-0.41421356
  0
VERTEX
  5
1ab
  8
Layer_0
  10
235.74997
  20
22.5
  0
VERTEX
  5
1ac
  8
Layer_0
  10
235.74997
  20
22.5
  42
-0.41421356
  0
VERTEX
  5
1ad
  8
Layer_0
  10
236.24997
  20
23
  0
VERTEX
  5
1ae
  8
Layer_0
  10
265.24997
  20
23
  42
-0.41421356
  0
SEQEND
  0
POLYLINE
  5
1b0
  8
Layer_0
  62
7
  70
1
  66
1
  10
0
  20
0
  30
0
  0
VERTEX
  5
1b0
  8
Layer_0
  10
306.74997
  20
22.5
  42
-0.41421356
  0
VERTEX
  5
1b1
  8
Layer_0
  10
306.24997
  20
22
  0
VERTEX
  5
1b2
  8
Layer_0
  10
277.24997
  20
22
  42
-0.41421356
  0
VERTEX
  5
1b3
  8
Layer_0
  10
276.74997
  20
22.5
  0
VERTEX
  5
1b4
  8
Layer_0
  10
276.74997
  20
22.5
  42
-0.41421356
  0
VERTEX
  5
1b5
  8
Layer_0
  10
277.24997
  20
23
  0
VERTEX
  5
1b6
  8
Layer_0
  10
306.24997
  20
23
  42
-0.41421356
  0
SEQEND
  0
POLYLINE
  5
1b8
  8
Layer_0
  62
7
  70
1
  66
1
  10
0
  20
0
  30
0
  0
VERTEX
  5
1b8
  8
Layer_0
  10
347.74997
  20
22.5
  42
-0.41421356
  0
VERTEX
  5
1b9
  8
Layer_0
  10
347.24997
  20
22
  0
VERTEX
  5
1ba
  8
Layer_0
  10
318.24997
  20
22
  42
-0.41421356
  0
VERTEX
  5
1bb
  8
Layer_0
  10
317.74997
  20
22.5
  0
VERTEX
  5
1bc
  8
Layer_0
  10
317.74997
  20
22.5
  42
-0.41421356
  0
VERTEX
  5
1bd
  8
Layer_0
  10
318.24997
  20
23
  0
VERTEX
  5
1be
  8
Layer_0
  10
347.24997
  20
23
  42
-0.41421356
  0
SEQEND
  0
POLYLINE
  5
1c0
  8
Layer_0
  62
7
  70
1
  66
1
  10
0
  20
0
  30
0
  0
VERTEX
  5
1c0
  8
Layer_0
  10
388.74997
  20
22.5
  42
-0.41421356
  0
VERTEX
  5
1c1
  8
Layer_0
  10
388.24997
  20
22
  0
VERTEX
  5
1c2
  8
Layer_0
  10
359.24997
  20
22
  42
-0.41421356
  0
VERTEX
  5
1c3
  8
Layer_0
  10
358.74997
  20
22.5
  0
VERTEX
  5
1c4
  8
Layer_0
  10
358.74997
  20
22.5
  42
-0.41421356
  0
VERTEX
  5
1c5
  8
Layer_0
  10
359.24997
  20
23
  0
VERTEX
  5
1c6
  8
Layer_0
  10
388.24997
  20
23
  42
-0.41421356
  0
SEQEND
  0
POLYLINE
  5
1c8
  8
Layer_0
  62
7
  70
1
  66
1
  10
0
  20
0
  30
0
  0
VERTEX
  5
1c8
  8
Layer_0
  10
429.74997
  20
22.5
  42
-0.41421356
  0
VERTEX
  5
1c9
  8
Layer_0
  10
429.24997
  20
22
  0
VERTEX
  5
1ca
  8
Layer_0
  10
400.24997
  20
22
  42
-0.41421356
  0
VERTEX
  5
1cb
  8
Layer_0
  10
399.74997
  20
22.5
  0
VERTEX
  5
1cc
  8
Layer_0
  10
399.74997
  20
22.5
  42
-0.41421356
  0
VERTEX
  5
1cd
  8
Layer_0
  10
400.24997
  20
23
  0
VERTEX
  5
1ce
  8
Layer_0
  10
429.24997
  20
23
  42
-0.41421356
  0
SEQEND
  0
POLYLINE
  5
1d0
  8
Layer_0
  62
7
  70
1
  66
1
  10
0
  20
0
  30
0
  0
VERTEX
  5
1d0
  8
Layer_0
  10
40.249969
  20
27.5
  42
-0.41421356
  0
VERTEX
  5
1d1
  8
Layer_0
  10
39.749969
  20
27
  0
VERTEX
  5
1d2
  8
Layer_0
  10
10.749969
  20
27
  42
-0.41421356
  0
VERTEX
  5
1d3
  8
Layer_0
  10
10.249969
  20
27.5
  0
VERTEX
  5
1d4
  8
Layer_0
  10
10.249969
  20
27.5
  42
-0.41421356
  0
VERTEX
  5
1d5
  8
Layer_0
  10
10.749969
  20
28
  0
VERTEX
  5
1d6
  8
Layer_0
  10
39.749969
  20
28
  42
-0.41421356
  0
SEQEND
  0
POLYLINE
  5
1d8
  8
Layer_0
  62
7
  70
1
  66
1
  10
0
  20
0
  30
0
  0
VERTEX
  5
1d8
  8
Layer_0
  10
81.249969
  20
27.5
  42
-0.41421356
  0
VERTEX
  5
1d9
  8
Layer_0
  10
80.749969
  20
27
  0
VERTEX
  5
1da
  8
Layer_0
  10
51.749969
  20
27
  42
-0.41421356
  0
VERTEX
  5
1db
  8
Layer_0
  10
51.249969
  20
27.5
  0
VERTEX
  5
1dc
  8
Layer_0
  10
51.249969
  20
27.5
  42
-0.41421356
  0
VERTEX
  5
1dd
  8
Layer_0
  10
51.749969
  20
28
  0
VERTEX
  5
1de
  8
Layer_0
  10
80.749969
  20
28
  42
-0.41421356
  0
SEQEND
  0
POLYLINE
  5
1e0
  8
Layer_0
  62
7
  70
1
  66
1
  10
0
  20
0
  30
0
  0
VERTEX
  5
1e0
  8
Layer_0
  10
122.24997
  20
27.5
  42
-0.41421356
  0
VERTEX
  5
1e1
  8
Layer_0
  10
121.74997
  20
27
  0
VERTEX
  5
1e2
  8
Layer_0
  10
92.749969
  20
27
  42
-0.41421356
  0
VERTEX
  5
1e3
  8
Layer_0
  10
92.249969
  20
27.5
  0
VERTEX
  5
1e4
  8
Layer_0
  10
92.249969
  20
27.5
  42
-0.41421356
  0
VERTEX
  5
1e5
  8
Layer_0
  10
92.749969
  20
28
  0
VERTEX
  5
1e6
  8
Layer_0
  10
121.74997
  20
28
  42
-0.41421356
  0
SEQEND
  0
POLYLINE
  5
1e8
  8
Layer_0
  62
7
  70
1
  66
1
  10
0
  20
0
  30
0
  0
VERTEX
  5
1e8
  8
Layer_0
  10
163.24997
  20
27.5
  42
-0.41421356
  0
VERTEX
  5
1e9
  8
Layer_0
  10
162.74997
  20
27
  0
VERTEX
  5
1ea
  8
Layer_0
  10
133.74997
  20
27
  42
-0.41421356
  0
VERTEX
  5
1eb
  8
Layer_0
  10
133.24997
  20
27.5
  0
VERTEX
  5
1ec
  8
Layer_0
  10
133.24997
  20
27.5
  42
-0.41421356
  0
VERTEX
  5
1ed
  8
Layer_0
  10
133.74997
  20
28
  0
VERTEX
  5
1ee
  8
Layer_0
  10
162.74997
  20
28
  42
-0.41421356
  0
SEQEND
  0
POLYLINE
  5
1f0
  8
Layer_0
  62
7
  70
1
  66
1
  10
0
  20
0
  30
0
  0
VERTEX
  5
1f0
  8
Layer_0
  10
204.24997
  20
27.5
  42
-0.41421356
  0
VERTEX
  5
1f1
  8
Layer_0
  10
203.74997
  20
27
  0
VERTEX
  5
1f2
  8
Layer_0
  10
174.74997
  20
27
  42
-0.41421356
  0
VERTEX
  5
1f3
  8
Layer_0
  10
174.24997
  20
27.5
  0
VERTEX
  5
1f4
  8
Layer_0
  10
174.24997
  20
27.5
  42
-0.41421356
  0
VERTEX
  5
1f5
  8
Layer_0
  10
174.74997
  20
28
  0
VERTEX
  5
1f6
  8
Layer_0
  10
203.74997
  20
28
  42
-0.41421356
  0
SEQEND
  0
POLYLINE
  5
1f8
  8
Layer_0
  62
7
  70
1
  66
1
  10
0
  20
0
  30
0
  0
VERTEX
  5
1f8
  8
Layer_0
  10
245.24997
  20
27.5
  42
-0.41421356
  0
VERTEX
  5
1f9
  8
Layer_0
  10
244.74997
  20
27
  0
VERTEX
  5
1fa
  8
Layer_0
  10
215.74997
  20
27
  42
-0.41421356
  0
VERTEX
  5
1fb
  8
Layer_0
  10
215.24997
  20
27.5
  0
VERTEX
  5
1fc
  8
Layer_0
  10
215.24997
  20
27.5
  42
-0.41421356
  0
VERTEX
  5
1fd
  8
Layer_0
  10
215.74997
  20
28
  0
VERTEX
  5
1fe
  8
Layer_0
  10
244.74997
  20
28
  42
-0.41421356
  0
SEQEND
  0
POLYLINE
  5
200
  8
Layer_0
  62
7
  70
1
  66
1
  10
0
  20
0
  30
0
  0
VERTEX
  5
200
  8
Layer_0
  10
286.24997
  20
27.5
  42
-0.41421356
  0
VERTEX
  5
201
  8
Layer_0
  10
285.74997
  20
27
  0
VERTEX
  5
202
  8
Layer_0
  10
256.74997
  20
27
  42
-0.41421356
  0
VERTEX
  5
203
  8
Layer_0
  10
256.24997
  20
27.5
  0
VERTEX
  5
204
  8
Layer_0
  10
256.24997
  20
27.5
  42
-0.41421356
  0
VERTEX
  5
205
  8
Layer_0
  10
256.74997
  20
28
  0
VERTEX
  5
206
  8
Layer_0
  10
285.74997
  20
28
  42
-0.41421356
  0
SEQEND
  0
POLYLINE
  5
208
  8
Layer_0
  62
7
  70
1
  66
1
  10
0
  20
0
  30
0
  0
VERTEX
  5
208
  8
Layer_0
  10
327.24997
  20
27.5
  42
-0.41421356
  0
VERTEX
  5
209
  8
Layer_0
  10
326.74997
  20
27
  0
VERTEX
  5
20a
  8
Layer_0
  10
297.74997
  20
27
  42
-0.41421356
  0
VERTEX
  5
20b
  8
Layer_0
  10
297.24997
  20
27.5
  0
VERTEX
  5
20c
  8
Layer_0
  10
297.24997
  20
27.5
  42
-0.41421356
  0
VERTEX
  5
20d
  8
Layer_0
  10
297.74997
  20
28
  0
VERTEX
  5
20e
  8
Layer_0
  10
326.74997
  20
28
  42
-0.41421356
  0
SEQEND
  0
POLYLINE
  5
210
  8
Layer_0
  62
7
  70
1
  66
1
  10
0
  20
0
  30
0
  0
VERTEX
  5
210
  8
Layer_0
  10
368.24997
  20
27.5
  42
-0.41421356
  0
VERTEX
  5
211
  8
Layer_0
  10
367.74997
  20
27
  0
VERTEX
  5
212
  8
Layer_0
  10
338.74997
  20
27
  42
-0.41421356
  0
VERTEX
  5
213
  8
Layer_0
  10
338.24997
  20
27.5
  0
VERTEX
  5
214
  8
Layer_0
  10
338.24997
  20
27.5
  42
-0.41421356
  0
VERTEX
  5
215
  8
Layer_0
  10
338.74997
  20
28
  0
VERTEX
  5
216
  8
Layer_0
  10
367.74997
  20
28
  42
-0.41421356
  0
SEQEND
  0
POLYLINE
  5
218
  8
Layer_0
  62
7
  70
1
  66
1
  10
0
  20
0
  30
0
  0
VERTEX
  5
218
  8
Layer_0
  10
409.24997
  20
27.5
  42
-0.41421356
  0
VERTEX
  5
219
  8
Layer_0
  10
408.74997
  20
27
  0
VERTEX
  5
21a
  8
Layer_0
  10
379.74997
  20
27
  42
-0.41421356
  0
VERTEX
  5
21b
  8
Layer_0
  10
379.24997
  20
27.5
  0
VERTEX
  5
21c
  8
Layer_0
  10
379.24997
  20
27.5
  42
-0.41421356
  0
VERTEX
  5
21d
  8
Layer_0
  10
379.74997
  20
28
  0
VERTEX
  5
21e
  8
Layer_0
  10
408.74997
  20
28
  42
-0.41421356
  0
SEQEND
  0
POLYLINE
  5
220
  8
Layer_0
  62
7
  70
1
  66
1
  10
0
  20
0
  30
0
  0
VERTEX
  5
220
  8
Layer_0
  10
60.749969
  20
32.5
  42
-0.41421356
  0
VERTEX
  5
221
  8
Layer_0
  10
60.249969
  20
32
  0
VERTEX
  5
222
  8
Layer_0
  10
31.249969
  20
32
  42
-0.41421356
  0
VERTEX
  5
223
  8
Layer_0
  10
30.749969
  20
32.5
  0
VERTEX
  5
224
  8
Layer_0
  10
30.749969
  20
32.5
  42
-0.41421356
  0
VERTEX
  5
225
  8
Layer_0
  10
31.249969
  20
33
  0
VERTEX
  5
226
  8
Layer_0
  10
60.249969
  20
33
  42
-0.41421356
  0
SEQEND
  0
POLYLINE
  5
228
  8
Layer_0
  62
7
  70
1
  66
1
  10
0
  20
0
  30
0
  0
VERTEX
  5
228
  8
Layer_0
  10
101.74997
  20
32.5
  42
-0.41421356
  0
VERTEX
  5
229
  8
Layer_0
  10
101.24997
  20
32
  0
VERTEX
  5
22a
  8
Layer_0
  10
72.249969
  20
32
  42
-0.41421356
  0
VERTEX
  5
22b
  8
Layer_0
  10
71.749969
  20
32.5
  0
VERTEX
  5
22c
  8
Layer_0
  10
71.749969
  20
32.5
  42
-0.41421356
  0
VERTEX
  5
22d
  8
Layer_0
  10
72.249969
  20
33
  0
VERTEX
  5
22e
  8
Layer_0
  10
101.24997
  20
33
  42
-0.41421356
  0
SEQEND
  0
POLYLINE
  5
230
  8
Layer_0
  62
7
  70
1
  66
1
  10
0
  20
0
  30
0
  0
VERTEX
  5
230
  8
Layer_0
  10
142.74997
  20
32.5
  42
-0.41421356
  0
VERTEX
  5
231
  8
Layer_0
  10
142.24997
  20
32
  0
VERTEX
  5
232
  8
Layer_0
  10
113.24997
  20
32
  42
-0.41421356
  0
VERTEX
  5
233
  8
Layer_0
  10
112.74997
  20
32.5
  0
VERTEX
  5
234
  8
Layer_0
  10
112.74997
  20
32.5
  42
-0.41421356
  0
VERTEX
  5
235
  8
Layer_0
  10
113.24997
  20
33
  0
VERTEX
  5
236
  8
Layer_0
  10
142.24997
  20
33
  42
-0.41421356
  0
SEQEND
  0
POLYLINE
  5
238
  8
Layer_0
  62
7
  70
1
  66
1
  10
0
  20
0
  30
0
  0
VERTEX
  5
238
  8
Layer_0
  10
183.74997
  20
32.5
  42
-0.41421356
  0
VERTEX
  5
239
  8
Layer_0
  10
183.24997
  20
32
  0
VERTEX
  5
23a
  8
Layer_0
  10
154.24997
  20
32
  42
-0.41421356
  0
VERTEX
  5
23b
  8
Layer_0
  10
153.74997
  20
32.5
  0
VERTEX
  5
23c
  8
Layer_0
  10
153.74997
  20
32.5
  42
-0.41421356
  0
VERTEX
  5
23d
  8
Layer_0
  10
154.24997
  20
33
  0
VERTEX
  5
23e
  8
Layer_0
  10
183.24997
  20
33
  42
-0.41421356
  0
SEQEND
  0
POLYLINE
  5
240
  8
Layer_0
  62
7
  70
1
  66
1
  10
0
  20
0
  30
0
  0
VERTEX
  5
240
  8
Layer_0
  10
224.74997
  20
32.5
  42
-0.41421356
  0
VERTEX
  5
241
  8
Layer_0
  10
224.24997
  20
32
  0
VERTEX
  5
242
  8
Layer_0
  10
195.24997
  20
32
  42
-0.41421356
  0
VERTEX
  5
243
  8
Layer_0
  10
194.74997
  20
32.5
  0
VERTEX
  5
244
  8
Layer_0
  10
194.74997
  20
32.5
  42
-0.41421356
  0
VERTEX
  5
245
  8
Layer_0
  10
195.24997
  20
33
  0
VERTEX
  5
246
  8
Layer_0
  10
224.24997
  20
33
  42
-0.41421356
  0
SEQEND
  0
POLYLINE
  5
248
  8
Layer_0
  62
7
  70
1
  66
1
  10
0
  20
0
  30
0
  0
VERTEX
  5
248
  8
Layer_0
  10
265.74997
  20
32.5
  42
-0.41421356
  0
VERTEX
  5
249
  8
Layer_0
  10
265.24997
  20
32
  0
VERTEX
  5
24a
  8
Layer_0
  10
236.24997
  20
32
  42
-0.41421356
  0
VERTEX
  5
24b
  8
Layer_0
  10
235.74997
  20
32.5
  0
VERTEX
  5
24c
  8
Layer_0
  10
235.74997
  20
32.5
  42
-0.41421356
  0
VERTEX
  5
24d
  8
Layer_0
  10
236.24997
  20
33
  0
VERTEX
  5
24e
  8
Layer_0
  10
265.24997
  20
33
  42
-0.41421356
  0
SEQEND
  0
POLYLINE
  5
250
  8
Layer_0
  62
7
  70
1
  66
1
  10
0
  20
0
  30
0
  0
VERTEX
  5
250
  8
Layer_0
  10
306.74997
  20
32.5
  42
-0.41421356
  0
VERTEX
  5
251
  8
Layer_0
  10
306.24997
  20
32
  0
VERTEX
  5
252
  8
Layer_0
  10
277.24997
  20
32
  42
-0.41421356
  0
VERTEX
  5
253
  8
Layer_0
  10
276.74997
  20
32.5
  0
VERTEX
  5
254
  8
Layer_0
  10
276.74997
  20
32.5
  42
-0.41421356
  0
VERTEX
  5
255
  8
Layer_0
  10
277.24997
  20
33
  0
VERTEX
  5
256
  8
Layer_0
  10
306.24997
  20
33
  42
-0.41421356
  0
SEQEND
  0
POLYLINE
  5
258
  8
Layer_0
  62
7
  70
1
  66
1
  10
0
  20
0
  30
0
  0
VERTEX
  5
258
  8
Layer_0
  10
347.74997
  20
32.5
  42
-0.41421356
  0
VERTEX
  5
259
  8
Layer_0
  10
347.24997
  20
32
  0
VERTEX
  5
25a
  8
Layer_0
  10
318.24997
  20
32
  42
-0.41421356
  0
VERTEX
  5
25b
  8
Layer_0
  10
317.74997
  20
32.5
  0
VERTEX
  5
25c
  8
Layer_0
  10
317.74997
  20
32.5
  42
-0.41421356
  0
VERTEX
  5
25d
  8
Layer_0
  10
318.24997
  20
33
  0
VERTEX
  5
25e
  8
Layer_0
  10
347.24997
  20
33
  42
-0.41421356
  0
SEQEND
  0
POLYLINE
  5
260
  8
Layer_0
  62
7
  70
1
  66
1
  10
0
  20
0
  30
0
  0
VERTEX
  5
260
  8
Layer_0
  10
388.74997
  20
32.5
  42
-0.41421356
  0
VERTEX
  5
261
  8
Layer_0
  10
388.24997
  20
32
  0
VERTEX
  5
262
  8
Layer_0
  10
359.24997
  20
32
  42
-0.41421356
  0
VERTEX
  5
263
  8
Layer_0
  10
358.74997
  20
32.5
  0
VERTEX
  5
264
  8
Layer_0
  10
358.74997
  20
32.5
  42
-0.41421356
  0
VERTEX
  5
265
  8
Layer_0
  10
359.24997
  20
33
  0
VERTEX
  5
266
  8
Layer_0
  10
388.24997
  20
33
  42
-0.41421356
  0
SEQEND
  0
POLYLINE
  5
268
  8
Layer_0
  62
7
  70
1
  66
1
  10
0
  20
0
  30
0
  0
VERTEX
  5
268
  8
Layer_0
  10
429.74997
  20
32.5
  42
-0.41421356
  0
VERTEX
  5
269
  8
Layer_0
  10
429.24997
  20
32
  0
VERTEX
  5
26a
  8
Layer_0
  10
400.24997
  20
32
  42
-0.41421356
  0
VERTEX
  5
26b
  8
Layer_0
  10
399.74997
  20
32.5
  0
VERTEX
  5
26c
  8
Layer_0
  10
399.74997
  20
32.5
  42
-0.41421356
  0
VERTEX
  5
26d
  8
Layer_0
  10
400.24997
  20
33
  0
VERTEX
  5
26e
  8
Layer_0
  10
429.24997
  20
33
  42
-0.41421356
  0
SEQEND
  0
POLYLINE
  5
270
  8
Layer_0
  62
7
  70
1
  66
1
  10
0
  20
0
  30
0
  0
VERTEX
  5
270
  8
Layer_0
  10
40.249969
  20
37.5
  42
-0.41421356
  0
VERTEX
  5
271
  8
Layer_0
  10
39.749969
  20
37
  0
VERTEX
  5
272
  8
Layer_0
  10
10.749969
  20
37
  42
-0.41421356
  0
VERTEX
  5
273
  8
Layer_0
  10
10.249969
  20
37.5
  0
VERTEX
  5
274
  8
Layer_0
  10
10.249969
  20
37.5
  42
-0.41421356
  0
VERTEX
  5
275
  8
Layer_0
  10
10.749969
  20
38
  0
VERTEX
  5
276
  8
Layer_0
  10
39.749969
  20
38
  42
-0.41421356
  0
SEQEND
  0
POLYLINE
  5
278
  8
Layer_0
  62
7
  70
1
  66
1
  10
0
  20
0
  30
0
  0
VERTEX
  5
278
  8
Layer_0
  10
81.249969
  20
37.5
  42
-0.41421356
  0
VERTEX
  5
279
  8
Layer_0
  10
80.749969
  20
37
  0
VERTEX
  5
27a
  8
Layer_0
  10
51.749969
  20
37
  42
-0.41421356
  0
VERTEX
  5
27b
  8
Layer_0
  10
51.249969
  20
37.5
  0
VERTEX
  5
27c
  8
Layer_0
  10
51.249969
  20
37.5
  42
-0.41421356
  0
VERTEX
  5
27d
  8
Layer_0
  10
51.749969
  20
38
  0
VERTEX
  5
27e
  8
Layer_0
  10
80.749969
  20
38
  42
-0.41421356
  0
SEQEND
  0
POLYLINE
  5
280
  8
Layer_0
  62
7
  70
1
  66
1
  10
0
  20
0
  30
0
  0
VERTEX
  5
280
  8
Layer_0
  10
122.24997
  20
37.5
  42
-0.41421356
  0
VERTEX
  5
281
  8
Layer_0
  10
121.74997
  20
37
  0
VERTEX
  5
282
  8
Layer_0
  10
92.749969
  20
37
  42
-0.41421356
  0
VERTEX
  5
283
  8
Layer_0
  10
92.249969
  20
37.5
  0
VERTEX
  5
284
  8
Layer_0
  10
92.249969
  20
37.5
  42
-0.41421356
  0
VERTEX
  5
285
  8
Layer_0
  10
92.749969
  20
38
  0
VERTEX
  5
286
  8
Layer_0
  10
121.74997
  20
38
  42
-0.41421356
  0
SEQEND
  0
POLYLINE
  5
288
  8
Layer_0
  62
7
  70
1
  66
1
  10
0
  20
0
  30
0
  0
VERTEX
  5
288
  8
Layer_0
  10
163.24997
  20
37.5
  42
-0.41421356
  0
VERTEX
  5
289
  8
Layer_0
  10
162.74997
  20
37
  0
VERTEX
  5
28a
  8
Layer_0
  10
133.74997
  20
37
  42
-0.41421356
  0
VERTEX
  5
28b
  8
Layer_0
  10
133.24997
  20
37.5
  0
VERTEX
  5
28c
  8
Layer_0
  10
133.24997
  20
37.5
  42
-0.41421356
  0
VERTEX
  5
28d
  8
Layer_0
  10
133.74997
  20
38
  0
VERTEX
  5
28e
  8
Layer_0
  10
162.74997
  20
38
  42
-0.41421356
  0
SEQEND
  0
POLYLINE
  5
290
  8
Layer_0
  62
7
  70
1
  66
1
  10
0
  20
0
  30
0
  0
VERTEX
  5
290
  8
Layer_0
  10
204.24997
  20
37.5
  42
-0.41421356
  0
VERTEX
  5
291
  8
Layer_0
  10
203.74997
  20
37
  0
VERTEX
  5
292
  8
Layer_0
  10
174.74997
  20
37
  42
-0.41421356
  0
VERTEX
  5
293
  8
Layer_0
  10
174.24997
  20
37.5
  0
VERTEX
  5
294
  8
Layer_0
  10
174.24997
  20
37.5
  42
-0.41421356
  0
VERTEX
  5
295
  8
Layer_0
  10
174.74997
  20
38
  0
VERTEX
  5
296
  8
Layer_0
  10
203.74997
  20
38
  42
-0.41421356
  0
SEQEND
  0
POLYLINE
  5
298
  8
Layer_0
  62
7
  70
1
  66
1
  10
0
  20
0
  30
0
  0
VERTEX
  5
298
  8
Layer_0
  10
245.24997
  20
37.5
  42
-0.41421356
  0
VERTEX
  5
299
  8
Layer_0
  10
244.74997
  20
37
  0
VERTEX
  5
29a
  8
Layer_0
  10
215.74997
  20
37
  42
-0.41421356
  0
VERTEX
  5
29b
  8
Layer_0
  10
215.24997
  20
37.5
  0
VERTEX
  5
29c
  8
Layer_0
  10
215.24997
  20
37.5
  42
-0.41421356
  0
VERTEX
  5
29d
  8
Layer_0
  10
215.74997
  20
38
  0
VERTEX
  5
29e
  8
Layer_0
  10
244.74997
  20
38
  42
-0.41421356
  0
SEQEND
  0
POLYLINE
  5
2a0
  8
Layer_0
  62
7
  70
1
  66
1
  10
0
  20
0
  30
0
  0
VERTEX
  5
2a0
  8
Layer_0
  10
286.24997
  20
37.5
  42
-0.41421356
  0
VERTEX
  5
2a1
  8
Layer_0
  10
285.74997
  20
37
  0
VERTEX
  5
2a2
  8
Layer_0
  10
256.74997
  20
37
  42
-0.41421356
  0
VERTEX
  5
2a3
  8
Layer_0
  10
256.24997
  20
37.5
  0
VERTEX
  5
2a4
  8
Layer_0
  10
256.24997
  20
37.5
  42
-0.41421356
  0
VERTEX
  5
2a5
  8
Layer_0
  10
256.74997
  20
38
  0
VERTEX
  5
2a6
  8
Layer_0
  10
285.74997
  20
38
  42
-0.41421356
  0
SEQEND
  0
POLYLINE
  5
2a8
  8
Layer_0
  62
7
  70
1
  66
1
  10
0
  20
0
  30
0
  0
VERTEX
  5
2a8
  8
Layer_0
  10
327.24997
  20
37.5
  42
-0.41421356
  0
VERTEX
  5
2a9
  8
Layer_0
  10
326.74997
  20
37
  0
VERTEX
  5
2aa
  8
Layer_0
  10
297.74997
  20
37
  42
-0.41421356
  0
VERTEX
  5
2ab
  8
Layer_0
  10
297.24997
  20
37.5
  0
VERTEX
  5
2ac
  8
Layer_0
  10
297.24997
  20
37.5
  42
-0.41421356
  0
VERTEX
  5
2ad
  8
Layer_0
  10
297.74997
  20
38
  0
VERTEX
  5
2ae
  8
Layer_0
  10
326.74997
  20
38
  42
-0.41421356
  0
SEQEND
  0
POLYLINE
  5
2b0
  8
Layer_0
  62
7
  70
1
  66
1
  10
0
  20
0
  30
0
  0
VERTEX
  5
2b0
  8
Layer_0
  10
368.24997
  20
37.5
  42
-0.41421356
  0
VERTEX
  5
2b1
  8
Layer_0
  10
367.74997
  20
37
  0
VERTEX
  5
2b2
  8
Layer_0
  10
338.74997
  20
37
  42
-0.41421356
  0
VERTEX
  5
2b3
  8
Layer_0
  10
338.24997
  20
37.5
  0
VERTEX
  5
2b4
  8
Layer_0
  10
338.24997
  20
37.5
  42
-0.41421356
  0
VERTEX
  5
2b5
  8
Layer_0
  10
338.74997
  20
38
  0
VERTEX
  5
2b6
  8
Layer_0
  10
367.74997
  20
38
  42
-0.41421356
  0
SEQEND
  0
POLYLINE
  5
2b8
  8
Layer_0
  62
7
  70
1
  66
1
  10
0
  20
0
  30
0
  0
VERTEX
  5
2b8
  8
Layer_0
  10
409.24997
  20
37.5
  42
-0.41421356
  0
VERTEX
  5
2b9
  8
Layer_0
  10
408.74997
  20
37
  0
VERTEX
  5
2ba
  8
Layer_0
  10
379.74997
  20
37
  42
-0.41421356
  0
VERTEX
  5
2bb
  8
Layer_0
  10
379.24997
  20
37.5
  0
VERTEX
  5
2bc
  8
Layer_0
  10
379.24997
  20
37.5
  42
-0.41421356
  0
VERTEX
  5
2bd
  8
Layer_0
  10
379.74997
  20
38
  0
VERTEX
  5
2be
  8
Layer_0
  10
408.74997
  20
38
  42
-0.41421356
  0
SEQEND
  0
POLYLINE
  5
2c0
  8
Layer_0
  62
7
  70
1
  66
1
  10
0
  20
0
  30
0
  0
VERTEX
  5
2c0
  8
Layer_0
  10
60.749969
  20
42.5
  42
-0.41421356
  0
VERTEX
  5
2c1
  8
Layer_0
  10
60.249969
  20
42
  0
VERTEX
  5
2c2
  8
Layer_0
  10
31.249969
  20
42
  42
-0.41421356
  0
VERTEX
  5
2c3
  8
Layer_0
  10
30.749969
  20
42.5
  0
VERTEX
  5
2c4
  8
Layer_0
  10
30.749969
  20
42.5
  42
-0.41421356
  0
VERTEX
  5
2c5
  8
Layer_0
  10
31.249969
  20
43
  0
VERTEX
  5
2c6
  8
Layer_0
  10
60.249969
  20
43
  42
-0.41421356
  0
SEQEND
  0
POLYLINE
  5
2c8
  8
Layer_0
  62
7
  70
1
  66
1
  10
0
  20
0
  30
0
  0
VERTEX
  5
2c8
  8
Layer_0
  10
101.74997
  20
42.5
  42
-0.41421356
  0
VERTEX
  5
2c9
  8
Layer_0
  10
101.24997
  20
42
  0
VERTEX
  5
2ca
  8
Layer_0
  10
72.249969
  20
42
  42
-0.41421356
  0
VERTEX
  5
2cb
  8
Layer_0
  10
71.749969
  20
42.5
  0
VERTEX
  5
2cc
  8
Layer_0
  10
71.749969
  20
42.5
  42
-0.41421356
  0
VERTEX
  5
2cd
  8
Layer_0
  10
72.249969
  20
43
  0
VERTEX
  5
2ce
  8
Layer_0
  10
101.24997
  20
43
  42
-0.41421356
  0
SEQEND
  0
POLYLINE
  5
2d0
  8
Layer_0
  62
7
  70
1
  66
1
  10
0
  20
0
  30
0
  0
VERTEX
  5
2d0
  8
Layer_0
  10
142.74997
  20
42.5
  42
-0.41421356
  0
VERTEX
  5
2d1
  8
Layer_0
  10
142.24997
  20
42
  0
VERTEX
  5
2d2
  8
Layer_0
  10
113.24997
  20
42
  42
-0.41421356
  0
VERTEX
  5
2d3
  8
Layer_0
  10
112.74997
  20
42.5
  0
VERTEX
  5
2d4
  8
Layer_0
  10
112.74997
  20
42.5
  42
-0.41421356
  0
VERTEX
  5
2d5
  8
Layer_0
  10
113.24997
  20
43
  0
VERTEX
  5
2d6
  8
Layer_0
  10
142.24997
  20
43
  42
-0.41421356
  0
SEQEND
  0
POLYLINE
  5
2d8
  8
Layer_0
  62
7
  70
1
  66
1
  10
0
  20
0
  30
0
  0
VERTEX
  5
2d8
  8
Layer_0
  10
183.74997
  20
42.5
  42
-0.41421356
  0
VERTEX
  5
2d9
  8
Layer_0
  10
183.24997
  20
42
  0
VERTEX
  5
2da
  8
Layer_0
  10
154.24997
  20
42
  42
-0.41421356
  0
VERTEX
  5
2db
  8
Layer_0
  10
153.74997
  20
42.5
  0
VERTEX
  5
2dc
  8
Layer_0
  10
153.74997
  20
42.5
  42
-0.41421356
  0
VERTEX
  5
2dd
  8
Layer_0
  10
154.24997
  20
43
  0
VERTEX
  5
2de
  8
Layer_0
  10
183.24997
  20
43
  42
-0.41421356
  0
SEQEND
  0
POLYLINE
  5
2e0
  8
Layer_0
  62
7
  70
1
  66
1
  10
0
  20
0
  30
0
  0
VERTEX
  5
2e0
  8
Layer_0
  10
224.74997
  20
42.5
  42
-0.41421356
  0
VERTEX
  5
2e1
  8
Layer_0
  10
224.24997
  20
42
  0
VERTEX
  5
2e2
  8
Layer_0
  10
195.24997
  20
42
  42
-0.41421356
  0
VERTEX
  5
2e3
  8
Layer_0
  10
194.74997
  20
42.5
  0
VERTEX
  5
2e4
  8
Layer_0
  10
194.74997
  20
42.5
  42
-0.41421356
  0
VERTEX
  5
2e5
  8
Layer_0
  10
195.24997
  20
43
  0
VERTEX
  5
2e6
  8
Layer_0
  10
224.24997
  20
43
  42
-0.41421356
  0
SEQEND
  0
POLYLINE
  5
2e8
  8
Layer_0
  62
7
  70
1
  66
1
  10
0
  20
0
  30
0
  0
VERTEX
  5
2e8
  8
Layer_0
  10
265.74997
  20
42.5
  42
-0.41421356
  0
VERTEX
  5
2e9
  8
Layer_0
  10
265.24997
  20
42
  0
VERTEX
  5
2ea
  8
Layer_0
  10
236.24997
  20
42
  42
-0.41421356
  0
VERTEX
  5
2eb
  8
Layer_0
  10
235.74997
  20
42.5
  0
VERTEX
  5
2ec
  8
Layer_0
  10
235.74997
  20
42.5
  42
-0.41421356
  0
VERTEX
  5
2ed
  8
Layer_0
  10
236.24997
  20
43
  0
VERTEX
  5
2ee
  8
Layer_0
  10
265.24997
  20
43
  42
-0.41421356
  0
SEQEND
  0
POLYLINE
  5
2f0
  8
Layer_0
  62
7
  70
1
  66
1
  10
0
  20
0
  30
0
  0
VERTEX
  5
2f0
  8
Layer_0
  10
306.74997
  20
42.5
  42
-0.41421356
  0
VERTEX
  5
2f1
  8
Layer_0
  10
306.24997
  20
42
  0
VERTEX
  5
2f2
  8
Layer_0
  10
277.24997
  20
42
  42
-0.41421356
  0
VERTEX
  5
2f3
  8
Layer_0
  10
276.74997
  20
42.5
  0
VERTEX
  5
2f4
  8
Layer_0
  10
276.74997
  20
42.5
  42
-0.41421356
  0
VERTEX
  5
2f5
  8
Layer_0
  10
277.24997
  20
43
  0
VERTEX
  5
2f6
  8
Layer_0
  10
306.24997
  20
43
  42
-0.41421356
  0
SEQEND
  0
POLYLINE
  5
2f8
  8
Layer_0
  62
7
  70
1
  66
1
  10
0
  20
0
  30
0
  0
VERTEX
  5
2f8
  8
Layer_0
  10
347.74997
  20
42.5
  42
-0.41421356
  0
VERTEX
  5
2f9
  8
Layer_0
  10
347.24997
  20
42
  0
VERTEX
  5
2fa
  8
Layer_0
  10
318.24997
  20
42
  42
-0.41421356
  0
VERTEX
  5
2fb
  8
Layer_0
  10
317.74997
  20
42.5
  0
VERTEX
  5
2fc
  8
Layer_0
  10
317.74997
  20
42.5
  42
-0.41421356
  0
VERTEX
  5
2fd
  8
Layer_0
  10
318.24997
  20
43
  0
VERTEX
  5
2fe
  8
Layer_0
  10
347.24997
  20
43
  42
-0.41421356
  0
SEQEND
  0
POLYLINE
  5
300
  8
Layer_0
  62
7
  70
1
  66
1
  10
0
  20
0
  30
0
  0
VERTEX
  5
300
  8
Layer_0
  10
388.74997
  20
42.5
  42
-0.41421356
  0
VERTEX
  5
301
  8
Layer_0
  10
388.24997
  20
42
  0
VERTEX
  5
302
  8
Layer_0
  10
359.24997
  20
42
  42
-0.41421356
  0
VERTEX
  5
303
  8
Layer_0
  10
358.74997
  20
42.5
  0
VERTEX
  5
304
  8
Layer_0
  10
358.74997
  20
42.5
  42
-0.41421356
  0
VERTEX
  5
305
  8
Layer_0
  10
359.24997
  20
43
  0
VERTEX
  5
306
  8
Layer_0
  10
388.24997
  20
43
  42
-0.41421356
  0
SEQEND
  0
POLYLINE
  5
308
  8
Layer_0
  62
7
  70
1
  66
1
  10
0
  20
0
  30
0
  0
VERTEX
  5
308
  8
Layer_0
  10
429.74997
  20
42.5
  42
-0.41421356
  0
VERTEX
  5
309
  8
Layer_0
  10
429.24997
  20
42
  0
VERTEX
  5
30a
  8
Layer_0
  10
400.24997
  20
42
  42
-0.41421356
  0
VERTEX
  5
30b
  8
Layer_0
  10
399.74997
  20
42.5
  0
VERTEX
  5
30c
  8
Layer_0
  10
399.74997
  20
42.5
  42
-0.41421356
  0
VERTEX
  5
30d
  8
Layer_0
  10
400.24997
  20
43
  0
VERTEX
  5
30e
  8
Layer_0
  10
429.24997
  20
43
  42
-0.41421356
  0
SEQEND
  0
POLYLINE
  5
310
  8
Layer_0
  62
7
  70
1
  66
1
  10
0
  20
0
  30
0
  0
VERTEX
  5
310
  8
Layer_0
  10
40.249969
  20
47.5
  42
-0.41421356
  0
VERTEX
  5
311
  8
Layer_0
  10
39.749969
  20
47
  0
VERTEX
  5
312
  8
Layer_0
  10
10.749969
  20
47
  42
-0.41421356
  0
VERTEX
  5
313
  8
Layer_0
  10
10.249969
  20
47.5
  0
VERTEX
  5
314
  8
Layer_0
  10
10.249969
  20
47.5
  42
-0.41421356
  0
VERTEX
  5
315
  8
Layer_0
  10
10.749969
  20
48
  0
VERTEX
  5
316
  8
Layer_0
  10
39.749969
  20
48
  42
-0.41421356
  0
SEQEND
  0
POLYLINE
  5
318
  8
Layer_0
  62
7
  70
1
  66
1
  10
0
  20
0
  30
0
  0
VERTEX
  5
318
  8
Layer_0
  10
81.249969
  20
47.5
  42
-0.41421356
  0
VERTEX
  5
319
  8
Layer_0
  10
80.749969
  20
47
  0
VERTEX
  5
31a
  8
Layer_0
  10
51.749969
  20
47
  42
-0.41421356
  0
VERTEX
  5
31b
  8
Layer_0
  10
51.249969
  20
47.5
  0
VERTEX
  5
31c
  8
Layer_0
  10
51.249969
  20
47.5
  42
-0.41421356
  0
VERTEX
  5
31d
  8
Layer_0
  10
51.749969
  20
48
  0
VERTEX
  5
31e
  8
Layer_0
  10
80.749969
  20
48
  42
-0.41421356
  0
SEQEND
  0
POLYLINE
  5
320
  8
Layer_0
  62
7
  70
1
  66
1
  10
0
  20
0
  30
0
  0
VERTEX
  5
320
  8
Layer_0
  10
122.24997
  20
47.5
  42
-0.41421356
  0
VERTEX
  5
321
  8
Layer_0
  10
121.74997
  20
47
  0
VERTEX
  5
322
  8
Layer_0
  10
92.749969
  20
47
  42
-0.41421356
  0
VERTEX
  5
323
  8
Layer_0
  10
92.249969
  20
47.5
  0
VERTEX
  5
324
  8
Layer_0
  10
92.249969
  20
47.5
  42
-0.41421356
  0
VERTEX
  5
325
  8
Layer_0
  10
92.749969
  20
48
  0
VERTEX
  5
326
  8
Layer_0
  10
121.74997
  20
48
  42
-0.41421356
  0
SEQEND
  0
POLYLINE
  5
328
  8
Layer_0
  62
7
  70
1
  66
1
  10
0
  20
0
  30
0
  0
VERTEX
  5
328
  8
Layer_0
  10
163.24997
  20
47.5
  42
-0.41421356
  0
VERTEX
  5
329
  8
Layer_0
  10
162.74997
  20
47
  0
VERTEX
  5
32a
  8
Layer_0
  10
133.74997
  20
47
  42
-0.41421356
  0
VERTEX
  5
32b
  8
Layer_0
  10
133.24997
  20
47.5
  0
VERTEX
  5
32c
  8
Layer_0
  10
133.24997
  20
47.5
  42
-0.41421356
  0
VERTEX
  5
32d
  8
Layer_0
  10
133.74997
  20
48
  0
VERTEX
  5
32e
  8
Layer_0
  10
162.74997
  20
48
  42
-0.41421356
  0
SEQEND
  0
POLYLINE
  5
330
  8
Layer_0
  62
7
  70
1
  66
1
  10
0
  20
0
  30
0
  0
VERTEX
  5
330
  8
Layer_0
  10
204.24997
  20
47.5
  42
-0.41421356
  0
VERTEX
  5
331
  8
Layer_0
  10
203.74997
  20
47
  0
VERTEX
  5
332
  8
Layer_0
  10
174.74997
  20
47
  42
-0.41421356
  0
VERTEX
  5
333
  8
Layer_0
  10
174.24997
  20
47.5
  0
VERTEX
  5
334
  8
Layer_0
  10
174.24997
  20
47.5
  42
-0.41421356
  0
VERTEX
  5
335
  8
Layer_0
  10
174.74997
  20
48
  0
VERTEX
  5
336
  8
Layer_0
  10
203.74997
  20
48
  42
-0.41421356
  0
SEQEND
  0
POLYLINE
  5
338
  8
Layer_0
  62
7
  70
1
  66
1
  10
0
  20
0
  30
0
  0
VERTEX
  5
338
  8
Layer_0
  10
245.24997
  20
47.5
  42
-0.41421356
  0
VERTEX
  5
339
  8
Layer_0
  10
244.74997
  20
47
  0
VERTEX
  5
33a
  8
Layer_0
  10
215.74997
  20
47
  42
-0.41421356
  0
VERTEX
  5
33b
  8
Layer_0
  10
215.24997
  20
47.5
  0
VERTEX
  5
33c
  8
Layer_0
  10
215.24997
  20
47.5
  42
-0.41421356
  0
VERTEX
  5
33d
  8
Layer_0
  10
215.74997
  20
48
  0
VERTEX
  5
33e
  8
Layer_0
  10
244.74997
  20
48
  42
-0.41421356
  0
SEQEND
  0
POLYLINE
  5
340
  8
Layer_0
  62
7
  70
1
  66
1
  10
0
  20
0
  30
0
  0
VERTEX
  5
340
  8
Layer_0
  10
286.24997
  20
47.5
  42
-0.41421356
  0
VERTEX
  5
341
  8
Layer_0
  10
285.74997
  20
47
  0
VERTEX
  5
342
  8
Layer_0
  10
256.74997
  20
47
  42
-0.41421356
  0
VERTEX
  5
343
  8
Layer_0
  10
256.24997
  20
47.5
  0
VERTEX
  5
344
  8
Layer_0
  10
256.24997
  20
47.5
  42
-0.41421356
  0
VERTEX
  5
345
  8
Layer_0
  10
256.74997
  20
48
  0
VERTEX
  5
346
  8
Layer_0
  10
285.74997
  20
48
  42
-0.41421356
  0
SEQEND
  0
POLYLINE
  5
348
  8
Layer_0
  62
7
  70
1
  66
1
  10
0
  20
0
  30
0
  0
VERTEX
  5
348
  8
Layer_0
  10
327.24997
  20
47.5
  42
-0.41421356
  0
VERTEX
  5
349
  8
Layer_0
  10
326.74997
  20
47
  0
VERTEX
  5
34a
  8
Layer_0
  10
297.74997
  20
47
  42
-0.41421356
  0
VERTEX
  5
34b
  8
Layer_0
  10
297.24997
  20
47.5
  0
VERTEX
  5
34c
  8
Layer_0
  10
297.24997
  20
47.5
  42
-0.41421356
  0
VERTEX
  5
34d
  8
Layer_0
  10
297.74997
  20
48
  0
VERTEX
  5
34e
  8
Layer_0
  10
326.74997
  20
48
  42
-0.41421356
  0
SEQEND
  0
POLYLINE
  5
350
  8
Layer_0
  62
7
  70
1
  66
1
  10
0
  20
0
  30
0
  0
VERTEX
  5
350
  8
Layer_0
  10
368.24997
  20
47.5
  42
-0.41421356
  0
VERTEX
  5
351
  8
Layer_0
  10
367.74997
  20
47
  0
VERTEX
  5
352
  8
Layer_0
  10
338.74997
  20
47
  42
-0.41421356
  0
VERTEX
  5
353
  8
Layer_0
  10
338.24997
  20
47.5
  0
VERTEX
  5
354
  8
Layer_0
  10
338.24997
  20
47.5
  42
-0.41421356
  0
VERTEX
  5
355
  8
Layer_0
  10
338.74997
  20
48
  0
VERTEX
  5
356
  8
Layer_0
  10
367.74997
  20
48
  42
-0.41421356
  0
SEQEND
  0
POLYLINE
  5
358
  8
Layer_0
  62
7
  70
1
  66
1
  10
0
  20
0
  30
0
  0
VERTEX
  5
358
  8
Layer_0
  10
409.24997
  20
47.5
  42
-0.41421356
  0
VERTEX
  5
359
  8
Layer_0
  10
408.74997
  20
47
  0
VERTEX
  5
35a
  8
Layer_0
  10
379.74997
  20
47
  42
-0.41421356
  0
VERTEX
  5
35b
  8
Layer_0
  10
379.24997
  20
47.5
  0
VERTEX
  5
35c
  8
Layer_0
  10
379.24997
  20
47.5
  42
-0.41421356
  0
VERTEX
  5
35d
  8
Layer_0
  10
379.74997
  20
48
  0
VERTEX
  5
35e
  8
Layer_0
  10
408.74997
  20
48
  42
-0.41421356
  0
SEQEND
  0
POLYLINE
  5
360
  8
Layer_0
  62
7
  70
1
  66
1
  10
0
  20
0
  30
0
  0
VERTEX
  5
360
  8
Layer_0
  10
60.749969
  20
52.5
  42
-0.41421356
  0
VERTEX
  5
361
  8
Layer_0
  10
60.249969
  20
52
  0
VERTEX
  5
362
  8
Layer_0
  10
31.249969
  20
52
  42
-0.41421356
  0
VERTEX
  5
363
  8
Layer_0
  10
30.749969
  20
52.5
  0
VERTEX
  5
364
  8
Layer_0
  10
30.749969
  20
52.5
  42
-0.41421356
  0
VERTEX
  5
365
  8
Layer_0
  10
31.249969
  20
53
  0
VERTEX
  5
366
  8
Layer_0
  10
60.249969
  20
53
  42
-0.41421356
  0
SEQEND
  0
POLYLINE
  5
368
  8
Layer_0
  62
7
  70
1
  66
1
  10
0
  20
0
  30
0
  0
VERTEX
  5
368
  8
Layer_0
  10
101.74997
  20
52.5
  42
-0.41421356
  0
VERTEX
  5
369
  8
Layer_0
  10
101.24997
  20
52
  0
VERTEX
  5
36a
  8
Layer_0
  10
72.249969
  20
52
  42
-0.41421356
  0
VERTEX
  5
36b
  8
Layer_0
  10
71.749969
  20
52.5
  0
VERTEX
  5
36c
  8
Layer_0
  10
71.749969
  20
52.5
  42
-0.41421356
  0
VERTEX
  5
36d
  8
Layer_0
  10
72.249969
  20
53
  0
VERTEX
  5
36e
  8
Layer_0
  10
101.24997
  20
53
  42
-0.41421356
  0
SEQEND
  0
POLYLINE
  5
370
  8
Layer_0
  62
7
  70
1
  66
1
  10
0
  20
0
  30
0
  0
VERTEX
  5
370
  8
Layer_0
  10
142.74997
  20
52.5
  42
-0.41421356
  0
VERTEX
  5
371
  8
Layer_0
  10
142.24997
  20
52
  0
VERTEX
  5
372
  8
Layer_0
  10
113.24997
  20
52
  42
-0.41421356
  0
VERTEX
  5
373
  8
Layer_0
  10
112.74997
  20
52.5
  0
VERTEX
  5
374
  8
Layer_0
  10
112.74997
  20
52.5
  42
-0.41421356
  0
VERTEX
  5
375
  8
Layer_0
  10
113.24997
  20
53
  0
VERTEX
  5
376
  8
Layer_0
  10
142.24997
  20
53
  42
-0.41421356
  0
SEQEND
  0
POLYLINE
  5
378
  8
Layer_0
  62
7
  70
1
  66
1
  10
0
  20
0
  30
0
  0
VERTEX
  5
378
  8
Layer_0
  10
183.74997
  20
52.5
  42
-0.41421356
  0
VERTEX
  5
379
  8
Layer_0
  10
183.24997
  20
52
  0
VERTEX
  5
37a
  8
Layer_0
  10
154.24997
  20
52
  42
-0.41421356
  0
VERTEX
  5
37b
  8
Layer_0
  10
153.74997
  20
52.5
  0
VERTEX
  5
37c
  8
Layer_0
  10
153.74997
  20
52.5
  42
-0.41421356
  0
VERTEX
  5
37d
  8
Layer_0
  10
154.24997
  20
53
  0
VERTEX
  5
37e
  8
Layer_0
  10
183.24997
  20
53
  42
-0.41421356
  0
SEQEND
  0
POLYLINE
  5
380
  8
Layer_0
  62
7
  70
1
  66
1
  10
0
  20
0
  30
0
  0
VERTEX
  5
380
  8
Layer_0
  10
224.74997
  20
52.5
  42
-0.41421356
  0
VERTEX
  5
381
  8
Layer_0
  10
224.24997
  20
52
  0
VERTEX
  5
382
  8
Layer_0
  10
195.24997
  20
52
  42
-0.41421356
  0
VERTEX
  5
383
  8
Layer_0
  10
194.74997
  20
52.5
  0
VERTEX
  5
384
  8
Layer_0
  10
194.74997
  20
52.5
  42
-0.41421356
  0
VERTEX
  5
385
  8
Layer_0
  10
195.24997
  20
53
  0
VERTEX
  5
386
  8
Layer_0
  10
224.24997
  20
53
  42
-0.41421356
  0
SEQEND
  0
POLYLINE
  5
388
  8
Layer_0
  62
7
  70
1
  66
1
  10
0
  20
0
  30
0
  0
VERTEX
  5
388
  8
Layer_0
  10
265.74997
  20
52.5
  42
-0.41421356
  0
VERTEX
  5
389
  8
Layer_0
  10
265.24997
  20
52
  0
VERTEX
  5
38a
  8
Layer_0
  10
236.24997
  20
52
  42
-0.41421356
  0
VERTEX
  5
38b
  8
Layer_0
  10
235.74997
  20
52.5
  0
VERTEX
  5
38c
  8
Layer_0
  10
235.74997
  20
52.5
  42
-0.41421356
  0
VERTEX
  5
38d
  8
Layer_0
  10
236.24997
  20
53
  0
VERTEX
  5
38e
  8
Layer_0
  10
265.24997
  20
53
  42
-0.41421356
  0
SEQEND
  0
POLYLINE
  5
390
  8
Layer_0
  62
7
  70
1
  66
1
  10
0
  20
0
  30
0
  0
VERTEX
  5
390
  8
Layer_0
  10
306.74997
  20
52.5
  42
-0.41421356
  0
VERTEX
  5
391
  8
Layer_0
  10
306.24997
  20
52
  0
VERTEX
  5
392
  8
Layer_0
  10
277.24997
  20
52
  42
-0.41421356
  0
VERTEX
  5
393
  8
Layer_0
  10
276.74997
  20
52.5
  0
VERTEX
  5
394
  8
Layer_0
  10
276.74997
  20
52.5
  42
-0.41421356
  0
VERTEX
  5
395
  8
Layer_0
  10
277.24997
  20
53
  0
VERTEX
  5
396
  8
Layer_0
  10
306.24997
  20
53
  42
-0.41421356
  0
SEQEND
  0
POLYLINE
  5
398
  8
Layer_0
  62
7
  70
1
  66
1
  10
0
  20
0
  30
0
  0
VERTEX
  5
398
  8
Layer_0
  10
347.74997
  20
52.5
  42
-0.41421356
  0
VERTEX
  5
399
  8
Layer_0
  10
347.24997
  20
52
  0
VERTEX
  5
39a
  8
Layer_0
  10
318.24997
  20
52
  42
-0.41421356
  0
VERTEX
  5
39b
  8
Layer_0
  10
317.74997
  20
52.5
  0
VERTEX
  5
39c
  8
Layer_0
  10
317.74997
  20
52.5
  42
-0.41421356
  0
VERTEX
  5
39d
  8
Layer_0
  10
318.24997
  20
53
  0
VERTEX
  5
39e
  8
Layer_0
  10
347.24997
  20
53
  42
-0.41421356
  0
SEQEND
  0
POLYLINE
  5
3a0
  8
Layer_0
  62
7
  70
1
  66
1
  10
0
  20
0
  30
0
  0
VERTEX
  5
3a0
  8
Layer_0
  10
388.74997
  20
52.5
  42
-0.41421356
  0
VERTEX
  5
3a1
  8
Layer_0
  10
388.24997
  20
52
  0
VERTEX
  5
3a2
  8
Layer_0
  10
359.24997
  20
52
  42
-0.41421356
  0
VERTEX
  5
3a3
  8
Layer_0
  10
358.74997
  20
52.5
  0
VERTEX
  5
3a4
  8
Layer_0
  10
358.74997
  20
52.5
  42
-0.41421356
  0
VERTEX
  5
3a5
  8
Layer_0
  10
359.24997
  20
53
  0
VERTEX
  5
3a6
  8
Layer_0
  10
388.24997
  20
53
  42
-0.41421356
  0
SEQEND
  0
POLYLINE
  5
3a8
  8
Layer_0
  62
7
  70
1
  66
1
  10
0
  20
0
  30
0
  0
VERTEX
  5
3a8
  8
Layer_0
  10
429.74997
  20
52.5
  42
-0.41421356
  0
VERTEX
  5
3a9
  8
Layer_0
  10
429.24997
  20
52
  0
VERTEX
  5
3aa
  8
Layer_0
  10
400.24997
  20
52
  42
-0.41421356
  0
VERTEX
  5
3ab
  8
Layer_0
  10
399.74997
  20
52.5
  0
VERTEX
  5
3ac
  8
Layer_0
  10
399.74997
  20
52.5
  42
-0.41421356
  0
VERTEX
  5
3ad
  8
Layer_0
  10
400.24997
  20
53
  0
VERTEX
  5
3ae
  8
Layer_0
  10
429.24997
  20
53
  42
-0.41421356
  0
SEQEND
  0
POLYLINE
  5
3b0
  8
Layer_0
  62
7
  70
1
  66
1
  10
0
  20
0
  30
0
  0
VERTEX
  5
3b0
  8
Layer_0
  10
440
  20
0
  0
VERTEX
  5
3b1
  8
Layer_0
  10
0
  20
0
  0
VERTEX
  5
3b2
  8
Layer_0
  10
0
  20
60
  0
VERTEX
  5
3b3
  8
Layer_0
  10
440
  20
60
  0
SEQEND
  0
ENDSEC
  0
EOF
