  0
SECTION
  2
HEADER
  9
$ACADVER
  1
AC1009
  0
ENDSEC
  0
SECTION
  2
TABLES
  0
TABLE
  2
LAYER
  70
1
  0
LAYER
  2
Layer_0
  70
0
  62
7
  6
CONTINUOUS
  0
ENDTAB
  0
ENDSEC
  0
SECTION
  2
ENTITIES
  0
POLYLINE
  5
90
  8
Layer_0
  62
7
  70
1
  66
1
  10
0
  20
0
  30
0
  0
VERTEX
  5
90
  8
Layer_0
  10
581
  20
24.5
  0
VERTEX
  5
91
  8
Layer_0
  10
581
  20
35.5
  0
VERTEX
  5
92
  8
Layer_0
  10
592
  20
35.5
  0
VERTEX
  5
93
  8
Layer_0
  10
592
  20
24.5
  0
SEQEND
  0
POLYLINE
  5
95
  8
Layer_0
  62
7
  70
1
  66
1
  10
0
  20
0
  30
0
  0
VERTEX
  5
95
  8
Layer_0
  10
19.501663
  20
24.5
  0
VERTEX
  5
96
  8
Layer_0
  10
19.501663
  20
35.5
  0
VERTEX
  5
97
  8
Layer_0
  10
30.501671
  20
35.5
  0
VERTEX
  5
98
  8
Layer_0
  10
30.501671
  20
24.5
  0
SEQEND
  0
POLYLINE
  5
9a
  8
Layer_0
  62
7
  70
1
  66
1
  10
0
  20
0
  30
0
  0
VERTEX
  5
9a
  8
Layer_0
  10
581
  20
524.50006
  0
VERTEX
  5
9b
  8
Layer_0
  10
581
  20
535.50006
  0
VERTEX
  5
9c
  8
Layer_0
  10
592
  20
535.50006
  0
VERTEX
  5
9d
  8
Layer_0
  10
592
  20
524.50006
  0
SEQEND
  0
POLYLINE
  5
9f
  8
Layer_0
  62
7
  70
1
  66
1
  10
0
  20
0
  30
0
  0
VERTEX
  5
9f
  8
Layer_0
  10
19.501686
  20
524.50006
  0
VERTEX
  5
a0
  8
Layer_0
  10
19.501686
  20
535.50006
  0
VERTEX
  5
a1
  8
Layer_0
  10
30.501694
  20
535.50006
  0
VERTEX
  5
a2
  8
Layer_0
  10
30.501694
  20
524.50006
  0
SEQEND
  0
POLYLINE
  5
a4
  8
Layer_0
  62
7
  70
1
  66
1
  10
0
  20
0
  30
0
  0
VERTEX
  5
a4
  8
Layer_0
  10
581.00006
  20
924.5
  0
VERTEX
  5
a5
  8
Layer_0
  10
581.00006
  20
935.5
  0
VERTEX
  5
a6
  8
Layer_0
  10
592.00006
  20
935.5
  0
VERTEX
  5
a7
  8
Layer_0
  10
592.00006
  20
924.5
  0
SEQEND
  0
POLYLINE
  5
a9
  8
Layer_0
  62
7
  70
1
  66
1
  10
0
  20
0
  30
0
  0
VERTEX
  5
a9
  8
Layer_0
  10
19.501701
  20
924.50006
  0
VERTEX
  5
aa
  8
Layer_0
  10
19.501701
  20
935.50006
  0
VERTEX
  5
ab
  8
Layer_0
  10
30.501709
  20
935.50006
  0
VERTEX
  5
ac
  8
Layer_0
  10
30.501709
  20
924.50006
  0
SEQEND
  0
POLYLINE
  5
ae
  8
Layer_0
  62
7
  70
1
  66
1
  10
0
  20
0
  30
0
  0
VERTEX
  5
ae
  8
Layer_0
  10
85.00177
  20
1094.9908
  0
VERTEX
  5
af
  8
Layer_0
  10
5.3405762e-05
  20
1094.9908
  0
VERTEX
  5
b0
  8
Layer_0
  10
7.6293945e-06
  20
0
  0
VERTEX
  5
b1
  8
Layer_0
  10
600
  20
0
  0
VERTEX
  5
b2
  8
Layer_0
  10
600.00006
  20
1255
  0
VERTEX
  5
b3
  8
Layer_0
  10
6.1035156e-05
  20
1255
  0
VERTEX
  5
b4
  8
Layer_0
  10
5.3405762e-05
  20
1194.9908
  0
VERTEX
  5
b5
  8
Layer_0
  10
85.001785
  20
1194.9908
  0
SEQEND
  0
ENDSEC
  0
EOF
