  0
SECTION
  2
HEADER
  9
$ACADVER
  1
AC1009
  0
ENDSEC
  0
SECTION
  2
TABLES
  0
TABLE
  2
LAYER
  70
1
  0
LAYER
  2
Layer_0
  70
0
  62
7
  6
CONTINUOUS
  0
ENDTAB
  0
ENDSEC
  0
SECTION
  2
ENTITIES
  0
POLYLINE
  5
90
  8
Layer_0
  62
7
  66
1
  10
0
  20
0
  30
0
  0
VERTEX
  5
90
  8
Layer_0
  10
1728
  20
2184
  0
VERTEX
  5
91
  8
Layer_0
  10
-672.00012
  20
2184
  0
VERTEX
  5
92
  8
Layer_0
  10
-672.00012
  20
2689.0017
  0
VERTEX
  5
93
  8
Layer_0
  10
-136.50012
  20
2689.0017
  0
VERTEX
  5
94
  8
Layer_0
  10
-136.50012
  20
2784
  0
VERTEX
  5
95
  8
Layer_0
  10
1728
  20
2784
  0
SEQEND
  0
POLYLINE
  5
97
  8
Layer_0
  62
7
  70
1
  66
1
  10
0
  20
0
  30
0
  0
VERTEX
  5
97
  8
Layer_0
  10
1703.5
  20
2192
  0
VERTEX
  5
98
  8
Layer_0
  10
1692.5
  20
2192
  0
VERTEX
  5
99
  8
Layer_0
  10
1692.5
  20
2203
  0
VERTEX
  5
9a
  8
Layer_0
  10
1703.5
  20
2203
  0
SEQEND
  0
POLYLINE
  5
9c
  8
Layer_0
  62
7
  70
1
  66
1
  10
0
  20
0
  30
0
  0
VERTEX
  5
9c
  8
Layer_0
  10
1703.5
  20
2753.5017
  0
VERTEX
  5
9d
  8
Layer_0
  10
1703.5
  20
2764.5017
  0
VERTEX
  5
9e
  8
Layer_0
  10
1692.5
  20
2764.5017
  0
VERTEX
  5
9f
  8
Layer_0
  10
1692.5
  20
2753.5017
  0
SEQEND
  0
POLYLINE
  5
a1
  8
Layer_0
  62
7
  70
1
  66
1
  10
0
  20
0
  30
0
  0
VERTEX
  5
a1
  8
Layer_0
  10
1363.5
  20
2192
  0
VERTEX
  5
a2
  8
Layer_0
  10
1352.5
  20
2192
  0
VERTEX
  5
a3
  8
Layer_0
  10
1352.5
  20
2203
  0
VERTEX
  5
a4
  8
Layer_0
  10
1363.5
  20
2203
  0
SEQEND
  0
POLYLINE
  5
a6
  8
Layer_0
  62
7
  70
1
  66
1
  10
0
  20
0
  30
0
  0
VERTEX
  5
a6
  8
Layer_0
  10
1363.5
  20
2753.5017
  0
VERTEX
  5
a7
  8
Layer_0
  10
1363.5
  20
2764.5017
  0
VERTEX
  5
a8
  8
Layer_0
  10
1352.5
  20
2764.5017
  0
VERTEX
  5
a9
  8
Layer_0
  10
1352.5
  20
2753.5017
  0
SEQEND
  0
POLYLINE
  5
ab
  8
Layer_0
  62
7
  70
1
  66
1
  10
0
  20
0
  30
0
  0
VERTEX
  5
ab
  8
Layer_0
  10
863.49988
  20
2192
  0
VERTEX
  5
ac
  8
Layer_0
  10
852.49988
  20
2192
  0
VERTEX
  5
ad
  8
Layer_0
  10
852.49988
  20
2203
  0
VERTEX
  5
ae
  8
Layer_0
  10
863.49988
  20
2203
  0
SEQEND
  0
POLYLINE
  5
b0
  8
Layer_0
  62
7
  70
1
  66
1
  10
0
  20
0
  30
0
  0
VERTEX
  5
b0
  8
Layer_0
  10
863.49988
  20
2753.5017
  0
VERTEX
  5
b1
  8
Layer_0
  10
863.49988
  20
2764.5017
  0
VERTEX
  5
b2
  8
Layer_0
  10
852.49988
  20
2764.5017
  0
VERTEX
  5
b3
  8
Layer_0
  10
852.49988
  20
2753.5017
  0
SEQEND
  0
POLYLINE
  5
b5
  8
Layer_0
  62
7
  70
1
  66
1
  10
0
  20
0
  30
0
  0
VERTEX
  5
b5
  8
Layer_0
  10
363.49988
  20
2192
  0
VERTEX
  5
b6
  8
Layer_0
  10
352.49988
  20
2192
  0
VERTEX
  5
b7
  8
Layer_0
  10
352.49988
  20
2203
  0
VERTEX
  5
b8
  8
Layer_0
  10
363.49988
  20
2203
  0
SEQEND
  0
POLYLINE
  5
ba
  8
Layer_0
  62
7
  70
1
  66
1
  10
0
  20
0
  30
0
  0
VERTEX
  5
ba
  8
Layer_0
  10
363.49988
  20
2753.5017
  0
VERTEX
  5
bb
  8
Layer_0
  10
363.49988
  20
2764.5017
  0
VERTEX
  5
bc
  8
Layer_0
  10
352.49988
  20
2764.5017
  0
VERTEX
  5
bd
  8
Layer_0
  10
352.49988
  20
2753.5017
  0
SEQEND
  0
POLYLINE
  5
bf
  8
Layer_0
  62
7
  70
1
  66
1
  10
0
  20
0
  30
0
  0
VERTEX
  5
bf
  8
Layer_0
  10
-156.50012
  20
2192
  0
VERTEX
  5
c0
  8
Layer_0
  10
-167.50012
  20
2192
  0
VERTEX
  5
c1
  8
Layer_0
  10
-167.50012
  20
2203
  0
VERTEX
  5
c2
  8
Layer_0
  10
-156.50012
  20
2203
  0
SEQEND
  0
POLYLINE
  5
c4
  8
Layer_0
  62
7
  70
1
  66
1
  10
0
  20
0
  30
0
  0
VERTEX
  5
c4
  8
Layer_0
  10
-636.50012
  20
2192
  0
VERTEX
  5
c5
  8
Layer_0
  10
-647.50012
  20
2192
  0
VERTEX
  5
c6
  8
Layer_0
  10
-647.50012
  20
2203
  0
VERTEX
  5
c7
  8
Layer_0
  10
-636.50012
  20
2203
  0
SEQEND
  0
POLYLINE
  5
c9
  8
Layer_0
  62
7
  70
1
  66
1
  10
0
  20
0
  30
0
  0
VERTEX
  5
c9
  8
Layer_0
  10
-86.500122
  20
2753.5017
  0
VERTEX
  5
ca
  8
Layer_0
  10
-86.500122
  20
2764.5017
  0
VERTEX
  5
cb
  8
Layer_0
  10
-97.500122
  20
2764.5017
  0
VERTEX
  5
cc
  8
Layer_0
  10
-97.500122
  20
2753.5017
  0
SEQEND
  0
POLYLINE
  5
ce
  8
Layer_0
  62
7
  66
1
  10
0
  20
0
  30
0
  0
VERTEX
  5
ce
  8
Layer_0
  10
1728
  20
2184
  0
VERTEX
  5
cf
  8
Layer_0
  10
1728
  20
2784
  0
SEQEND
  0
ENDSEC
  0
EOF
