  0
SECTION
  2
HEADER
  9
$ACADVER
  1
AC1009
  0
ENDSEC
  0
SECTION
  2
TABLES
  0
TABLE
  2
LAYER
  70
1
  0
LAYER
  2
Layer_0
  70
0
  62
7
  6
CONTINUOUS
  0
ENDTAB
  0
ENDSEC
  0
SECTION
  2
ENTITIES
  0
POLYLINE
  5
90
  8
Layer_0
  62
7
  70
1
  66
1
  10
0
  20
0
  30
0
  0
VERTEX
  5
90
  8
Layer_0
  10
-446
  20
2254
  0
VERTEX
  5
91
  8
Layer_0
  10
-446
  20
2854
  0
VERTEX
  5
92
  8
Layer_0
  10
1184
  20
2854
  0
VERTEX
  5
93
  8
Layer_0
  10
1184
  20
2759.0017
  0
VERTEX
  5
94
  8
Layer_0
  10
1264
  20
2759.0017
  0
VERTEX
  5
95
  8
Layer_0
  10
1264
  20
2854
  0
VERTEX
  5
96
  8
Layer_0
  10
1954.0001
  20
2854
  0
VERTEX
  5
97
  8
Layer_0
  10
1954.0001
  20
2254
  0
SEQEND
  0
POLYLINE
  5
99
  8
Layer_0
  62
7
  70
1
  66
1
  10
0
  20
0
  30
0
  0
VERTEX
  5
99
  8
Layer_0
  10
1929.5001
  20
2262
  0
VERTEX
  5
9a
  8
Layer_0
  10
1929.5001
  20
2273
  0
VERTEX
  5
9b
  8
Layer_0
  10
1918.5001
  20
2273
  0
VERTEX
  5
9c
  8
Layer_0
  10
1918.5001
  20
2262
  0
SEQEND
  0
POLYLINE
  5
9e
  8
Layer_0
  62
7
  70
1
  66
1
  10
0
  20
0
  30
0
  0
VERTEX
  5
9e
  8
Layer_0
  10
1589.5001
  20
2262
  0
VERTEX
  5
9f
  8
Layer_0
  10
1589.5001
  20
2273
  0
VERTEX
  5
a0
  8
Layer_0
  10
1578.5001
  20
2273
  0
VERTEX
  5
a1
  8
Layer_0
  10
1578.5001
  20
2262
  0
SEQEND
  0
POLYLINE
  5
a3
  8
Layer_0
  62
7
  70
1
  66
1
  10
0
  20
0
  30
0
  0
VERTEX
  5
a3
  8
Layer_0
  10
989.5
  20
2262
  0
VERTEX
  5
a4
  8
Layer_0
  10
989.5
  20
2273
  0
VERTEX
  5
a5
  8
Layer_0
  10
978.5
  20
2273
  0
VERTEX
  5
a6
  8
Layer_0
  10
978.5
  20
2262
  0
SEQEND
  0
POLYLINE
  5
a8
  8
Layer_0
  62
7
  70
1
  66
1
  10
0
  20
0
  30
0
  0
VERTEX
  5
a8
  8
Layer_0
  10
589.5
  20
2262
  0
VERTEX
  5
a9
  8
Layer_0
  10
589.5
  20
2273
  0
VERTEX
  5
aa
  8
Layer_0
  10
578.5
  20
2273
  0
VERTEX
  5
ab
  8
Layer_0
  10
578.5
  20
2262
  0
SEQEND
  0
POLYLINE
  5
ad
  8
Layer_0
  62
7
  70
1
  66
1
  10
0
  20
0
  30
0
  0
VERTEX
  5
ad
  8
Layer_0
  10
89.5
  20
2262
  0
VERTEX
  5
ae
  8
Layer_0
  10
89.5
  20
2273
  0
VERTEX
  5
af
  8
Layer_0
  10
78.5
  20
2273
  0
VERTEX
  5
b0
  8
Layer_0
  10
78.5
  20
2262
  0
SEQEND
  0
POLYLINE
  5
b2
  8
Layer_0
  62
7
  70
1
  66
1
  10
0
  20
0
  30
0
  0
VERTEX
  5
b2
  8
Layer_0
  10
-410.5
  20
2262
  0
VERTEX
  5
b3
  8
Layer_0
  10
-410.5
  20
2273
  0
VERTEX
  5
b4
  8
Layer_0
  10
-421.5
  20
2273
  0
VERTEX
  5
b5
  8
Layer_0
  10
-421.5
  20
2262
  0
SEQEND
  0
POLYLINE
  5
b7
  8
Layer_0
  62
7
  70
1
  66
1
  10
0
  20
0
  30
0
  0
VERTEX
  5
b7
  8
Layer_0
  10
1929.5001
  20
2823.5017
  0
VERTEX
  5
b8
  8
Layer_0
  10
1918.5001
  20
2823.5017
  0
VERTEX
  5
b9
  8
Layer_0
  10
1918.5001
  20
2834.5017
  0
VERTEX
  5
ba
  8
Layer_0
  10
1929.5001
  20
2834.5017
  0
SEQEND
  0
POLYLINE
  5
bc
  8
Layer_0
  62
7
  70
1
  66
1
  10
0
  20
0
  30
0
  0
VERTEX
  5
bc
  8
Layer_0
  10
1589.5001
  20
2823.5017
  0
VERTEX
  5
bd
  8
Layer_0
  10
1578.5001
  20
2823.5017
  0
VERTEX
  5
be
  8
Layer_0
  10
1578.5001
  20
2834.5017
  0
VERTEX
  5
bf
  8
Layer_0
  10
1589.5001
  20
2834.5017
  0
SEQEND
  0
POLYLINE
  5
c1
  8
Layer_0
  62
7
  70
1
  66
1
  10
0
  20
0
  30
0
  0
VERTEX
  5
c1
  8
Layer_0
  10
989.5
  20
2823.5017
  0
VERTEX
  5
c2
  8
Layer_0
  10
978.5
  20
2823.5017
  0
VERTEX
  5
c3
  8
Layer_0
  10
978.5
  20
2834.5017
  0
VERTEX
  5
c4
  8
Layer_0
  10
989.5
  20
2834.5017
  0
SEQEND
  0
POLYLINE
  5
c6
  8
Layer_0
  62
7
  70
1
  66
1
  10
0
  20
0
  30
0
  0
VERTEX
  5
c6
  8
Layer_0
  10
589.5
  20
2823.5017
  0
VERTEX
  5
c7
  8
Layer_0
  10
578.5
  20
2823.5017
  0
VERTEX
  5
c8
  8
Layer_0
  10
578.5
  20
2834.5017
  0
VERTEX
  5
c9
  8
Layer_0
  10
589.5
  20
2834.5017
  0
SEQEND
  0
POLYLINE
  5
cb
  8
Layer_0
  62
7
  70
1
  66
1
  10
0
  20
0
  30
0
  0
VERTEX
  5
cb
  8
Layer_0
  10
89.5
  20
2823.5017
  0
VERTEX
  5
cc
  8
Layer_0
  10
78.5
  20
2823.5017
  0
VERTEX
  5
cd
  8
Layer_0
  10
78.5
  20
2834.5017
  0
VERTEX
  5
ce
  8
Layer_0
  10
89.5
  20
2834.5017
  0
SEQEND
  0
POLYLINE
  5
d0
  8
Layer_0
  62
7
  70
1
  66
1
  10
0
  20
0
  30
0
  0
VERTEX
  5
d0
  8
Layer_0
  10
-410.5
  20
2823.5017
  0
VERTEX
  5
d1
  8
Layer_0
  10
-421.5
  20
2823.5017
  0
VERTEX
  5
d2
  8
Layer_0
  10
-421.5
  20
2834.5017
  0
VERTEX
  5
d3
  8
Layer_0
  10
-410.5
  20
2834.5017
  0
SEQEND
  0
ENDSEC
  0
EOF
