  0
SECTION
  2
HEADER
  9
$ACADVER
  1
AC1009
  0
ENDSEC
  0
SECTION
  2
TABLES
  0
TABLE
  2
LAYER
  70
1
  0
LAYER
  2
Layer_0
  70
0
  62
7
  6
CONTINUOUS
  0
ENDTAB
  0
ENDSEC
  0
SECTION
  2
ENTITIES
  0
POLYLINE
  5
90
  8
Layer_0
  62
7
  66
1
  10
0
  20
0
  30
0
  0
VERTEX
  5
90
  8
Layer_0
  10
1326.5
  20
2858
  0
VERTEX
  5
91
  8
Layer_0
  10
1326.5
  20
2258
  0
SEQEND
  0
POLYLINE
  5
93
  8
Layer_0
  62
7
  66
1
  10
0
  20
0
  30
0
  0
VERTEX
  5
93
  8
Layer_0
  10
1326.5
  20
2258
  0
VERTEX
  5
94
  8
Layer_0
  10
71.499939
  20
2258
  0
VERTEX
  5
95
  8
Layer_0
  10
71.499939
  20
2858
  0
VERTEX
  5
96
  8
Layer_0
  10
1326.5
  20
2858
  0
SEQEND
  0
POLYLINE
  5
98
  8
Layer_0
  62
7
  70
1
  66
1
  10
0
  20
0
  30
0
  0
VERTEX
  5
98
  8
Layer_0
  10
1302
  20
2266
  0
VERTEX
  5
99
  8
Layer_0
  10
1291
  20
2266
  0
VERTEX
  5
9a
  8
Layer_0
  10
1291
  20
2277
  0
VERTEX
  5
9b
  8
Layer_0
  10
1302
  20
2277
  0
SEQEND
  0
POLYLINE
  5
9d
  8
Layer_0
  62
7
  70
1
  66
1
  10
0
  20
0
  30
0
  0
VERTEX
  5
9d
  8
Layer_0
  10
1302
  20
2839
  0
VERTEX
  5
9e
  8
Layer_0
  10
1291
  20
2839
  0
VERTEX
  5
9f
  8
Layer_0
  10
1291
  20
2850
  0
VERTEX
  5
a0
  8
Layer_0
  10
1302
  20
2850
  0
SEQEND
  0
POLYLINE
  5
a2
  8
Layer_0
  62
7
  70
1
  66
1
  10
0
  20
0
  30
0
  0
VERTEX
  5
a2
  8
Layer_0
  10
801.99994
  20
2266
  0
VERTEX
  5
a3
  8
Layer_0
  10
790.99994
  20
2266
  0
VERTEX
  5
a4
  8
Layer_0
  10
790.99994
  20
2277
  0
VERTEX
  5
a5
  8
Layer_0
  10
801.99994
  20
2277
  0
SEQEND
  0
POLYLINE
  5
a7
  8
Layer_0
  62
7
  70
1
  66
1
  10
0
  20
0
  30
0
  0
VERTEX
  5
a7
  8
Layer_0
  10
801.99994
  20
2839
  0
VERTEX
  5
a8
  8
Layer_0
  10
790.99994
  20
2839
  0
VERTEX
  5
a9
  8
Layer_0
  10
790.99994
  20
2850
  0
VERTEX
  5
aa
  8
Layer_0
  10
801.99994
  20
2850
  0
SEQEND
  0
POLYLINE
  5
ac
  8
Layer_0
  62
7
  70
1
  66
1
  10
0
  20
0
  30
0
  0
VERTEX
  5
ac
  8
Layer_0
  10
401.99994
  20
2266
  0
VERTEX
  5
ad
  8
Layer_0
  10
390.99994
  20
2266
  0
VERTEX
  5
ae
  8
Layer_0
  10
390.99994
  20
2277
  0
VERTEX
  5
af
  8
Layer_0
  10
401.99994
  20
2277
  0
SEQEND
  0
POLYLINE
  5
b1
  8
Layer_0
  62
7
  70
1
  66
1
  10
0
  20
0
  30
0
  0
VERTEX
  5
b1
  8
Layer_0
  10
401.99994
  20
2839
  0
VERTEX
  5
b2
  8
Layer_0
  10
390.99994
  20
2839
  0
VERTEX
  5
b3
  8
Layer_0
  10
390.99994
  20
2850
  0
VERTEX
  5
b4
  8
Layer_0
  10
401.99994
  20
2850
  0
SEQEND
  0
ENDSEC
  0
EOF
