  0
SECTION
  2
HEADER
  9
$ACADVER
  1
AC1009
  0
ENDSEC
  0
SECTION
  2
TABLES
  0
TABLE
  2
LAYER
  70
1
  0
LAYER
  2
Layer_0
  70
0
  62
7
  6
CONTINUOUS
  0
ENDTAB
  0
ENDSEC
  0
SECTION
  2
ENTITIES
  0
POLYLINE
  5
90
  8
Layer_0
  62
7
  66
1
  10
0
  20
0
  30
0
  0
VERTEX
  5
90
  8
Layer_0
  10
1890
  20
1208
  0
VERTEX
  5
91
  8
Layer_0
  10
-510.00012
  20
1208
  0
VERTEX
  5
92
  8
Layer_0
  10
-510.00012
  20
1808
  0
VERTEX
  5
93
  8
Layer_0
  10
1890
  20
1808
  0
SEQEND
  0
POLYLINE
  5
95
  8
Layer_0
  62
7
  70
1
  66
1
  10
0
  20
0
  30
0
  0
VERTEX
  5
95
  8
Layer_0
  10
1865.5
  20
1216
  0
VERTEX
  5
96
  8
Layer_0
  10
1854.5
  20
1216
  0
VERTEX
  5
97
  8
Layer_0
  10
1854.5
  20
1227
  0
VERTEX
  5
98
  8
Layer_0
  10
1865.5
  20
1227
  0
SEQEND
  0
POLYLINE
  5
9a
  8
Layer_0
  62
7
  70
1
  66
1
  10
0
  20
0
  30
0
  0
VERTEX
  5
9a
  8
Layer_0
  10
1865.5
  20
1789
  0
VERTEX
  5
9b
  8
Layer_0
  10
1865.5
  20
1800
  0
VERTEX
  5
9c
  8
Layer_0
  10
1854.5
  20
1800
  0
VERTEX
  5
9d
  8
Layer_0
  10
1854.5
  20
1789
  0
SEQEND
  0
POLYLINE
  5
9f
  8
Layer_0
  62
7
  70
1
  66
1
  10
0
  20
0
  30
0
  0
VERTEX
  5
9f
  8
Layer_0
  10
1525.5
  20
1216
  0
VERTEX
  5
a0
  8
Layer_0
  10
1514.5
  20
1216
  0
VERTEX
  5
a1
  8
Layer_0
  10
1514.5
  20
1227
  0
VERTEX
  5
a2
  8
Layer_0
  10
1525.5
  20
1227
  0
SEQEND
  0
POLYLINE
  5
a4
  8
Layer_0
  62
7
  70
1
  66
1
  10
0
  20
0
  30
0
  0
VERTEX
  5
a4
  8
Layer_0
  10
1525.5
  20
1789
  0
VERTEX
  5
a5
  8
Layer_0
  10
1525.5
  20
1800
  0
VERTEX
  5
a6
  8
Layer_0
  10
1514.5
  20
1800
  0
VERTEX
  5
a7
  8
Layer_0
  10
1514.5
  20
1789
  0
SEQEND
  0
POLYLINE
  5
a9
  8
Layer_0
  62
7
  70
1
  66
1
  10
0
  20
0
  30
0
  0
VERTEX
  5
a9
  8
Layer_0
  10
1025.4999
  20
1216
  0
VERTEX
  5
aa
  8
Layer_0
  10
1014.4999
  20
1216
  0
VERTEX
  5
ab
  8
Layer_0
  10
1014.4999
  20
1227
  0
VERTEX
  5
ac
  8
Layer_0
  10
1025.4999
  20
1227
  0
SEQEND
  0
POLYLINE
  5
ae
  8
Layer_0
  62
7
  70
1
  66
1
  10
0
  20
0
  30
0
  0
VERTEX
  5
ae
  8
Layer_0
  10
1025.4999
  20
1789
  0
VERTEX
  5
af
  8
Layer_0
  10
1025.4999
  20
1800
  0
VERTEX
  5
b0
  8
Layer_0
  10
1014.4999
  20
1800
  0
VERTEX
  5
b1
  8
Layer_0
  10
1014.4999
  20
1789
  0
SEQEND
  0
POLYLINE
  5
b3
  8
Layer_0
  62
7
  70
1
  66
1
  10
0
  20
0
  30
0
  0
VERTEX
  5
b3
  8
Layer_0
  10
625.49988
  20
1216
  0
VERTEX
  5
b4
  8
Layer_0
  10
614.49988
  20
1216
  0
VERTEX
  5
b5
  8
Layer_0
  10
614.49988
  20
1227
  0
VERTEX
  5
b6
  8
Layer_0
  10
625.49988
  20
1227
  0
SEQEND
  0
POLYLINE
  5
b8
  8
Layer_0
  62
7
  70
1
  66
1
  10
0
  20
0
  30
0
  0
VERTEX
  5
b8
  8
Layer_0
  10
625.49988
  20
1789
  0
VERTEX
  5
b9
  8
Layer_0
  10
625.49988
  20
1800
  0
VERTEX
  5
ba
  8
Layer_0
  10
614.49988
  20
1800
  0
VERTEX
  5
bb
  8
Layer_0
  10
614.49988
  20
1789
  0
SEQEND
  0
POLYLINE
  5
bd
  8
Layer_0
  62
7
  70
1
  66
1
  10
0
  20
0
  30
0
  0
VERTEX
  5
bd
  8
Layer_0
  10
25.499878
  20
1216
  0
VERTEX
  5
be
  8
Layer_0
  10
14.499878
  20
1216
  0
VERTEX
  5
bf
  8
Layer_0
  10
14.499878
  20
1227
  0
VERTEX
  5
c0
  8
Layer_0
  10
25.499878
  20
1227
  0
SEQEND
  0
POLYLINE
  5
c2
  8
Layer_0
  62
7
  70
1
  66
1
  10
0
  20
0
  30
0
  0
VERTEX
  5
c2
  8
Layer_0
  10
25.499878
  20
1789
  0
VERTEX
  5
c3
  8
Layer_0
  10
25.499878
  20
1800
  0
VERTEX
  5
c4
  8
Layer_0
  10
14.499878
  20
1800
  0
VERTEX
  5
c5
  8
Layer_0
  10
14.499878
  20
1789
  0
SEQEND
  0
POLYLINE
  5
c7
  8
Layer_0
  62
7
  70
1
  66
1
  10
0
  20
0
  30
0
  0
VERTEX
  5
c7
  8
Layer_0
  10
-474.50012
  20
1216
  0
VERTEX
  5
c8
  8
Layer_0
  10
-485.50012
  20
1216
  0
VERTEX
  5
c9
  8
Layer_0
  10
-485.50012
  20
1227
  0
VERTEX
  5
ca
  8
Layer_0
  10
-474.50012
  20
1227
  0
SEQEND
  0
POLYLINE
  5
cc
  8
Layer_0
  62
7
  70
1
  66
1
  10
0
  20
0
  30
0
  0
VERTEX
  5
cc
  8
Layer_0
  10
-474.50012
  20
1789
  0
VERTEX
  5
cd
  8
Layer_0
  10
-474.50012
  20
1800
  0
VERTEX
  5
ce
  8
Layer_0
  10
-485.50012
  20
1800
  0
VERTEX
  5
cf
  8
Layer_0
  10
-485.50012
  20
1789
  0
SEQEND
  0
POLYLINE
  5
d1
  8
Layer_0
  62
7
  66
1
  10
0
  20
0
  30
0
  0
VERTEX
  5
d1
  8
Layer_0
  10
1890
  20
1208
  0
VERTEX
  5
d2
  8
Layer_0
  10
1890
  20
1808
  0
SEQEND
  0
ENDSEC
  0
EOF
