  0
SECTION
  2
HEADER
  9
$ACADVER
  1
AC1009
  0
ENDSEC
  0
SECTION
  2
TABLES
  0
TABLE
  2
LAYER
  70
1
  0
LAYER
  2
Layer_0
  70
0
  62
7
  6
CONTINUOUS
  0
ENDTAB
  0
ENDSEC
  0
SECTION
  2
ENTITIES
  0
POLYLINE
  5
90
  8
Layer_0
  62
7
  70
1
  66
1
  10
0
  20
0
  30
0
  0
VERTEX
  5
90
  8
Layer_0
  10
1335
  20
2512
  0
VERTEX
  5
91
  8
Layer_0
  10
1324
  20
2512
  0
VERTEX
  5
92
  8
Layer_0
  10
1324
  20
2523
  0
VERTEX
  5
93
  8
Layer_0
  10
1335
  20
2523
  0
SEQEND
  0
POLYLINE
  5
95
  8
Layer_0
  62
7
  70
1
  66
1
  10
0
  20
0
  30
0
  0
VERTEX
  5
95
  8
Layer_0
  10
1335
  20
1950.5017
  0
VERTEX
  5
96
  8
Layer_0
  10
1324
  20
1950.5017
  0
VERTEX
  5
97
  8
Layer_0
  10
1324
  20
1961.5017
  0
VERTEX
  5
98
  8
Layer_0
  10
1335
  20
1961.5017
  0
SEQEND
  0
POLYLINE
  5
9a
  8
Layer_0
  62
7
  70
1
  66
1
  10
0
  20
0
  30
0
  0
VERTEX
  5
9a
  8
Layer_0
  10
835
  20
2512
  0
VERTEX
  5
9b
  8
Layer_0
  10
824
  20
2512
  0
VERTEX
  5
9c
  8
Layer_0
  10
824
  20
2523
  0
VERTEX
  5
9d
  8
Layer_0
  10
835
  20
2523
  0
SEQEND
  0
POLYLINE
  5
9f
  8
Layer_0
  62
7
  70
1
  66
1
  10
0
  20
0
  30
0
  0
VERTEX
  5
9f
  8
Layer_0
  10
835
  20
1950.5017
  0
VERTEX
  5
a0
  8
Layer_0
  10
824
  20
1950.5017
  0
VERTEX
  5
a1
  8
Layer_0
  10
824
  20
1961.5017
  0
VERTEX
  5
a2
  8
Layer_0
  10
835
  20
1961.5017
  0
SEQEND
  0
POLYLINE
  5
a4
  8
Layer_0
  62
7
  70
1
  66
1
  10
0
  20
0
  30
0
  0
VERTEX
  5
a4
  8
Layer_0
  10
435
  20
2512
  0
VERTEX
  5
a5
  8
Layer_0
  10
424
  20
2512
  0
VERTEX
  5
a6
  8
Layer_0
  10
424
  20
2523
  0
VERTEX
  5
a7
  8
Layer_0
  10
435
  20
2523
  0
SEQEND
  0
POLYLINE
  5
a9
  8
Layer_0
  62
7
  70
1
  66
1
  10
0
  20
0
  30
0
  0
VERTEX
  5
a9
  8
Layer_0
  10
435
  20
1950.5017
  0
VERTEX
  5
aa
  8
Layer_0
  10
424
  20
1950.5017
  0
VERTEX
  5
ab
  8
Layer_0
  10
424
  20
1961.5017
  0
VERTEX
  5
ac
  8
Layer_0
  10
435
  20
1961.5017
  0
SEQEND
  0
POLYLINE
  5
ae
  8
Layer_0
  62
7
  70
1
  66
1
  10
0
  20
0
  30
0
  0
VERTEX
  5
ae
  8
Layer_0
  10
264.50922
  20
2016.0017
  0
VERTEX
  5
af
  8
Layer_0
  10
264.50922
  20
1931
  0
VERTEX
  5
b0
  8
Layer_0
  10
1359.5
  20
1931
  0
VERTEX
  5
b1
  8
Layer_0
  10
1359.5
  20
2531
  0
VERTEX
  5
b2
  8
Layer_0
  10
104.5
  20
2531
  0
VERTEX
  5
b3
  8
Layer_0
  10
104.5
  20
1931
  0
VERTEX
  5
b4
  8
Layer_0
  10
164.50925
  20
1931
  0
VERTEX
  5
b5
  8
Layer_0
  10
164.50925
  20
2016.0017
  0
SEQEND
  0
ENDSEC
  0
EOF
