  0
SECTION
  2
HEADER
  9
$ACADVER
  1
AC1009
  0
ENDSEC
  0
SECTION
  2
TABLES
  0
TABLE
  2
LAYER
  70
1
  0
LAYER
  2
Layer_0
  70
0
  62
7
  6
CONTINUOUS
  0
ENDTAB
  0
ENDSEC
  0
SECTION
  2
ENTITIES
  0
POLYLINE
  5
90
  8
Layer_0
  62
7
  66
1
  10
0
  20
0
  30
0
  0
VERTEX
  5
90
  8
Layer_0
  10
1386.5
  20
1678
  0
VERTEX
  5
91
  8
Layer_0
  10
131.49994
  20
1678
  0
VERTEX
  5
92
  8
Layer_0
  10
131.49994
  20
2278
  0
VERTEX
  5
93
  8
Layer_0
  10
191.50919
  20
2278
  0
VERTEX
  5
94
  8
Layer_0
  10
191.50919
  20
2193.0049
  0
VERTEX
  5
95
  8
Layer_0
  10
291.50916
  20
2193.0049
  0
VERTEX
  5
96
  8
Layer_0
  10
291.50916
  20
2278
  0
VERTEX
  5
97
  8
Layer_0
  10
1386.5
  20
2278
  0
SEQEND
  0
POLYLINE
  5
99
  8
Layer_0
  62
7
  70
1
  66
1
  10
0
  20
0
  30
0
  0
VERTEX
  5
99
  8
Layer_0
  10
1362
  20
1686
  0
VERTEX
  5
9a
  8
Layer_0
  10
1351
  20
1686
  0
VERTEX
  5
9b
  8
Layer_0
  10
1351
  20
1697
  0
VERTEX
  5
9c
  8
Layer_0
  10
1362
  20
1697
  0
SEQEND
  0
POLYLINE
  5
9e
  8
Layer_0
  62
7
  70
1
  66
1
  10
0
  20
0
  30
0
  0
VERTEX
  5
9e
  8
Layer_0
  10
1362
  20
2247.5017
  0
VERTEX
  5
9f
  8
Layer_0
  10
1351
  20
2247.5017
  0
VERTEX
  5
a0
  8
Layer_0
  10
1351
  20
2258.5017
  0
VERTEX
  5
a1
  8
Layer_0
  10
1362
  20
2258.5017
  0
SEQEND
  0
POLYLINE
  5
a3
  8
Layer_0
  62
7
  70
1
  66
1
  10
0
  20
0
  30
0
  0
VERTEX
  5
a3
  8
Layer_0
  10
861.99994
  20
1686
  0
VERTEX
  5
a4
  8
Layer_0
  10
850.99994
  20
1686
  0
VERTEX
  5
a5
  8
Layer_0
  10
850.99994
  20
1697
  0
VERTEX
  5
a6
  8
Layer_0
  10
861.99994
  20
1697
  0
SEQEND
  0
POLYLINE
  5
a8
  8
Layer_0
  62
7
  70
1
  66
1
  10
0
  20
0
  30
0
  0
VERTEX
  5
a8
  8
Layer_0
  10
861.99994
  20
2247.5017
  0
VERTEX
  5
a9
  8
Layer_0
  10
850.99994
  20
2247.5017
  0
VERTEX
  5
aa
  8
Layer_0
  10
850.99994
  20
2258.5017
  0
VERTEX
  5
ab
  8
Layer_0
  10
861.99994
  20
2258.5017
  0
SEQEND
  0
POLYLINE
  5
ad
  8
Layer_0
  62
7
  70
1
  66
1
  10
0
  20
0
  30
0
  0
VERTEX
  5
ad
  8
Layer_0
  10
461.99994
  20
1686
  0
VERTEX
  5
ae
  8
Layer_0
  10
450.99994
  20
1686
  0
VERTEX
  5
af
  8
Layer_0
  10
450.99994
  20
1697
  0
VERTEX
  5
b0
  8
Layer_0
  10
461.99994
  20
1697
  0
SEQEND
  0
POLYLINE
  5
b2
  8
Layer_0
  62
7
  70
1
  66
1
  10
0
  20
0
  30
0
  0
VERTEX
  5
b2
  8
Layer_0
  10
461.99994
  20
2247.5017
  0
VERTEX
  5
b3
  8
Layer_0
  10
450.99994
  20
2247.5017
  0
VERTEX
  5
b4
  8
Layer_0
  10
450.99994
  20
2258.5017
  0
VERTEX
  5
b5
  8
Layer_0
  10
461.99994
  20
2258.5017
  0
SEQEND
  0
POLYLINE
  5
b7
  8
Layer_0
  62
7
  66
1
  10
0
  20
0
  30
0
  0
VERTEX
  5
b7
  8
Layer_0
  10
1386.5
  20
1678
  0
VERTEX
  5
b8
  8
Layer_0
  10
1386.5
  20
2278
  0
SEQEND
  0
ENDSEC
  0
EOF
