  0
SECTION
  2
HEADER
  9
$ACADVER
  1
AC1009
  0
ENDSEC
  0
SECTION
  2
TABLES
  0
TABLE
  2
LAYER
  70
1
  0
LAYER
  2
Layer_0
  70
0
  62
7
  6
CONTINUOUS
  0
ENDTAB
  0
ENDSEC
  0
SECTION
  2
ENTITIES
  0
POLYLINE
  5
90
  8
Layer_0
  62
7
  70
1
  66
1
  10
0
  20
0
  30
0
  0
VERTEX
  5
90
  8
Layer_0
  10
0.00012207031
  20
2400
  0
VERTEX
  5
91
  8
Layer_0
  10
600.00012
  20
2400
  0
VERTEX
  5
92
  8
Layer_0
  10
600.00006
  20
770.00012
  0
VERTEX
  5
93
  8
Layer_0
  10
505.00171
  20
770.00012
  0
VERTEX
  5
94
  8
Layer_0
  10
505.00171
  20
690.00012
  0
VERTEX
  5
95
  8
Layer_0
  10
600.00006
  20
690.00012
  0
VERTEX
  5
96
  8
Layer_0
  10
600
  20
0
  0
VERTEX
  5
97
  8
Layer_0
  10
1.5258789e-05
  20
0
  0
SEQEND
  0
POLYLINE
  5
99
  8
Layer_0
  62
7
  70
1
  66
1
  10
0
  20
0
  30
0
  0
VERTEX
  5
99
  8
Layer_0
  10
8.0000153
  20
24.5
  0
VERTEX
  5
9a
  8
Layer_0
  10
19.000015
  20
24.5
  0
VERTEX
  5
9b
  8
Layer_0
  10
19.000015
  20
35.5
  0
VERTEX
  5
9c
  8
Layer_0
  10
8.0000153
  20
35.5
  0
SEQEND
  0
POLYLINE
  5
9e
  8
Layer_0
  62
7
  70
1
  66
1
  10
0
  20
0
  30
0
  0
VERTEX
  5
9e
  8
Layer_0
  10
8.0000305
  20
364.5
  0
VERTEX
  5
9f
  8
Layer_0
  10
19.000031
  20
364.5
  0
VERTEX
  5
a0
  8
Layer_0
  10
19.000031
  20
375.5
  0
VERTEX
  5
a1
  8
Layer_0
  10
8.0000305
  20
375.5
  0
SEQEND
  0
POLYLINE
  5
a3
  8
Layer_0
  62
7
  70
1
  66
1
  10
0
  20
0
  30
0
  0
VERTEX
  5
a3
  8
Layer_0
  10
8.000061
  20
964.50012
  0
VERTEX
  5
a4
  8
Layer_0
  10
19.000061
  20
964.50012
  0
VERTEX
  5
a5
  8
Layer_0
  10
19.000061
  20
975.50012
  0
VERTEX
  5
a6
  8
Layer_0
  10
8.000061
  20
975.50012
  0
SEQEND
  0
POLYLINE
  5
a8
  8
Layer_0
  62
7
  70
1
  66
1
  10
0
  20
0
  30
0
  0
VERTEX
  5
a8
  8
Layer_0
  10
8.0000763
  20
1364.5001
  0
VERTEX
  5
a9
  8
Layer_0
  10
19.000076
  20
1364.5001
  0
VERTEX
  5
aa
  8
Layer_0
  10
19.000076
  20
1375.5001
  0
VERTEX
  5
ab
  8
Layer_0
  10
8.0000763
  20
1375.5001
  0
SEQEND
  0
POLYLINE
  5
ad
  8
Layer_0
  62
7
  70
1
  66
1
  10
0
  20
0
  30
0
  0
VERTEX
  5
ad
  8
Layer_0
  10
8.0000916
  20
1864.5001
  0
VERTEX
  5
ae
  8
Layer_0
  10
19.000092
  20
1864.5001
  0
VERTEX
  5
af
  8
Layer_0
  10
19.000092
  20
1875.5001
  0
VERTEX
  5
b0
  8
Layer_0
  10
8.0000916
  20
1875.5001
  0
SEQEND
  0
POLYLINE
  5
b2
  8
Layer_0
  62
7
  70
1
  66
1
  10
0
  20
0
  30
0
  0
VERTEX
  5
b2
  8
Layer_0
  10
8.0001221
  20
2364.5
  0
VERTEX
  5
b3
  8
Layer_0
  10
19.000122
  20
2364.5
  0
VERTEX
  5
b4
  8
Layer_0
  10
19.000122
  20
2375.5
  0
VERTEX
  5
b5
  8
Layer_0
  10
8.0001221
  20
2375.5
  0
SEQEND
  0
POLYLINE
  5
b7
  8
Layer_0
  62
7
  70
1
  66
1
  10
0
  20
0
  30
0
  0
VERTEX
  5
b7
  8
Layer_0
  10
569.50165
  20
24.5
  0
VERTEX
  5
b8
  8
Layer_0
  10
569.50165
  20
35.5
  0
VERTEX
  5
b9
  8
Layer_0
  10
580.50165
  20
35.5
  0
VERTEX
  5
ba
  8
Layer_0
  10
580.50165
  20
24.5
  0
SEQEND
  0
POLYLINE
  5
bc
  8
Layer_0
  62
7
  70
1
  66
1
  10
0
  20
0
  30
0
  0
VERTEX
  5
bc
  8
Layer_0
  10
569.50165
  20
364.5
  0
VERTEX
  5
bd
  8
Layer_0
  10
569.50165
  20
375.5
  0
VERTEX
  5
be
  8
Layer_0
  10
580.50165
  20
375.5
  0
VERTEX
  5
bf
  8
Layer_0
  10
580.50165
  20
364.5
  0
SEQEND
  0
POLYLINE
  5
c1
  8
Layer_0
  62
7
  70
1
  66
1
  10
0
  20
0
  30
0
  0
VERTEX
  5
c1
  8
Layer_0
  10
569.50171
  20
964.50012
  0
VERTEX
  5
c2
  8
Layer_0
  10
569.50171
  20
975.50012
  0
VERTEX
  5
c3
  8
Layer_0
  10
580.50171
  20
975.50012
  0
VERTEX
  5
c4
  8
Layer_0
  10
580.50171
  20
964.50012
  0
SEQEND
  0
POLYLINE
  5
c6
  8
Layer_0
  62
7
  70
1
  66
1
  10
0
  20
0
  30
0
  0
VERTEX
  5
c6
  8
Layer_0
  10
569.50171
  20
1364.5001
  0
VERTEX
  5
c7
  8
Layer_0
  10
569.50171
  20
1375.5001
  0
VERTEX
  5
c8
  8
Layer_0
  10
580.50171
  20
1375.5001
  0
VERTEX
  5
c9
  8
Layer_0
  10
580.50171
  20
1364.5001
  0
SEQEND
  0
POLYLINE
  5
cb
  8
Layer_0
  62
7
  70
1
  66
1
  10
0
  20
0
  30
0
  0
VERTEX
  5
cb
  8
Layer_0
  10
569.50177
  20
1864.5
  0
VERTEX
  5
cc
  8
Layer_0
  10
569.50177
  20
1875.5
  0
VERTEX
  5
cd
  8
Layer_0
  10
580.50177
  20
1875.5
  0
VERTEX
  5
ce
  8
Layer_0
  10
580.50177
  20
1864.5
  0
SEQEND
  0
POLYLINE
  5
d0
  8
Layer_0
  62
7
  70
1
  66
1
  10
0
  20
0
  30
0
  0
VERTEX
  5
d0
  8
Layer_0
  10
569.50177
  20
2364.5
  0
VERTEX
  5
d1
  8
Layer_0
  10
569.50177
  20
2375.5
  0
VERTEX
  5
d2
  8
Layer_0
  10
580.50177
  20
2375.5
  0
VERTEX
  5
d3
  8
Layer_0
  10
580.50177
  20
2364.5
  0
SEQEND
  0
ENDSEC
  0
EOF
