  0
SECTION
  2
HEADER
  9
$ACADVER
  1
AC1009
  0
ENDSEC
  0
SECTION
  2
TABLES
  0
TABLE
  2
LAYER
  70
1
  0
LAYER
  2
Layer_0
  70
0
  62
7
  6
CONTINUOUS
  0
ENDTAB
  0
ENDSEC
  0
SECTION
  2
ENTITIES
  0
POLYLINE
  5
90
  8
Layer_0
  62
7
  66
1
  10
0
  20
0
  30
0
  0
VERTEX
  5
90
  8
Layer_0
  10
7.6293945e-06
  20
0
  0
VERTEX
  5
91
  8
Layer_0
  10
6.1035156e-05
  20
1255
  0
VERTEX
  5
92
  8
Layer_0
  10
600.00006
  20
1255
  0
VERTEX
  5
93
  8
Layer_0
  10
600.00006
  20
1194.9908
  0
VERTEX
  5
94
  8
Layer_0
  10
515.00507
  20
1194.9908
  0
VERTEX
  5
95
  8
Layer_0
  10
515.00507
  20
1094.9908
  0
VERTEX
  5
96
  8
Layer_0
  10
600.00006
  20
1094.9908
  0
VERTEX
  5
97
  8
Layer_0
  10
600
  20
0
  0
SEQEND
  0
POLYLINE
  5
99
  8
Layer_0
  62
7
  70
1
  66
1
  10
0
  20
0
  30
0
  0
VERTEX
  5
99
  8
Layer_0
  10
8.0000076
  20
24.5
  0
VERTEX
  5
9a
  8
Layer_0
  10
8.0000076
  20
35.5
  0
VERTEX
  5
9b
  8
Layer_0
  10
19.000008
  20
35.5
  0
VERTEX
  5
9c
  8
Layer_0
  10
19.000008
  20
24.5
  0
SEQEND
  0
POLYLINE
  5
9e
  8
Layer_0
  62
7
  70
1
  66
1
  10
0
  20
0
  30
0
  0
VERTEX
  5
9e
  8
Layer_0
  10
569.50165
  20
24.5
  0
VERTEX
  5
9f
  8
Layer_0
  10
569.50165
  20
35.5
  0
VERTEX
  5
a0
  8
Layer_0
  10
580.50165
  20
35.5
  0
VERTEX
  5
a1
  8
Layer_0
  10
580.50165
  20
24.5
  0
SEQEND
  0
POLYLINE
  5
a3
  8
Layer_0
  62
7
  70
1
  66
1
  10
0
  20
0
  30
0
  0
VERTEX
  5
a3
  8
Layer_0
  10
8.0000305
  20
524.50006
  0
VERTEX
  5
a4
  8
Layer_0
  10
8.0000305
  20
535.50006
  0
VERTEX
  5
a5
  8
Layer_0
  10
19.000031
  20
535.50006
  0
VERTEX
  5
a6
  8
Layer_0
  10
19.000031
  20
524.50006
  0
SEQEND
  0
POLYLINE
  5
a8
  8
Layer_0
  62
7
  70
1
  66
1
  10
0
  20
0
  30
0
  0
VERTEX
  5
a8
  8
Layer_0
  10
569.50165
  20
524.50006
  0
VERTEX
  5
a9
  8
Layer_0
  10
569.50165
  20
535.50006
  0
VERTEX
  5
aa
  8
Layer_0
  10
580.50165
  20
535.50006
  0
VERTEX
  5
ab
  8
Layer_0
  10
580.50165
  20
524.50006
  0
SEQEND
  0
POLYLINE
  5
ad
  8
Layer_0
  62
7
  70
1
  66
1
  10
0
  20
0
  30
0
  0
VERTEX
  5
ad
  8
Layer_0
  10
8.0000458
  20
924.50006
  0
VERTEX
  5
ae
  8
Layer_0
  10
8.0000458
  20
935.50006
  0
VERTEX
  5
af
  8
Layer_0
  10
19.000046
  20
935.50006
  0
VERTEX
  5
b0
  8
Layer_0
  10
19.000046
  20
924.50006
  0
SEQEND
  0
POLYLINE
  5
b2
  8
Layer_0
  62
7
  70
1
  66
1
  10
0
  20
0
  30
0
  0
VERTEX
  5
b2
  8
Layer_0
  10
569.50171
  20
924.5
  0
VERTEX
  5
b3
  8
Layer_0
  10
569.50171
  20
935.5
  0
VERTEX
  5
b4
  8
Layer_0
  10
580.50171
  20
935.5
  0
VERTEX
  5
b5
  8
Layer_0
  10
580.50171
  20
924.5
  0
SEQEND
  0
POLYLINE
  5
b7
  8
Layer_0
  62
7
  66
1
  10
0
  20
0
  30
0
  0
VERTEX
  5
b7
  8
Layer_0
  10
7.6293945e-06
  20
0
  0
VERTEX
  5
b8
  8
Layer_0
  10
600
  20
0
  0
SEQEND
  0
ENDSEC
  0
EOF
