  0
SECTION
  2
HEADER
  9
$ACADVER
  1
AC1009
  0
ENDSEC
  0
SECTION
  2
TABLES
  0
TABLE
  2
LAYER
  70
1
  0
LAYER
  2
Layer_0
  70
0
  62
7
  6
CONTINUOUS
  0
ENDTAB
  0
ENDSEC
  0
SECTION
  2
ENTITIES
  0
POLYLINE
  5
90
  8
Layer_0
  62
7
  66
1
  10
0
  20
0
  30
0
  0
VERTEX
  5
90
  8
Layer_0
  10
-0.00010681152
  20
0
  0
VERTEX
  5
91
  8
Layer_0
  10
0
  20
2400
  0
VERTEX
  5
92
  8
Layer_0
  10
600
  20
2400
  0
VERTEX
  5
93
  8
Layer_0
  10
599.99988
  20
0
  0
SEQEND
  0
POLYLINE
  5
95
  8
Layer_0
  62
7
  70
1
  66
1
  10
0
  20
0
  30
0
  0
VERTEX
  5
95
  8
Layer_0
  10
7.9998932
  20
24.5
  0
VERTEX
  5
96
  8
Layer_0
  10
7.9998932
  20
35.5
  0
VERTEX
  5
97
  8
Layer_0
  10
18.999893
  20
35.5
  0
VERTEX
  5
98
  8
Layer_0
  10
18.999893
  20
24.5
  0
SEQEND
  0
POLYLINE
  5
9a
  8
Layer_0
  62
7
  70
1
  66
1
  10
0
  20
0
  30
0
  0
VERTEX
  5
9a
  8
Layer_0
  10
569.50153
  20
24.5
  0
VERTEX
  5
9b
  8
Layer_0
  10
580.50153
  20
24.5
  0
VERTEX
  5
9c
  8
Layer_0
  10
580.50153
  20
35.5
  0
VERTEX
  5
9d
  8
Layer_0
  10
569.50153
  20
35.5
  0
SEQEND
  0
POLYLINE
  5
9f
  8
Layer_0
  62
7
  70
1
  66
1
  10
0
  20
0
  30
0
  0
VERTEX
  5
9f
  8
Layer_0
  10
7.9999084
  20
364.5
  0
VERTEX
  5
a0
  8
Layer_0
  10
7.9999084
  20
375.5
  0
VERTEX
  5
a1
  8
Layer_0
  10
18.999908
  20
375.5
  0
VERTEX
  5
a2
  8
Layer_0
  10
18.999908
  20
364.5
  0
SEQEND
  0
POLYLINE
  5
a4
  8
Layer_0
  62
7
  70
1
  66
1
  10
0
  20
0
  30
0
  0
VERTEX
  5
a4
  8
Layer_0
  10
569.50153
  20
364.5
  0
VERTEX
  5
a5
  8
Layer_0
  10
580.50153
  20
364.5
  0
VERTEX
  5
a6
  8
Layer_0
  10
580.50153
  20
375.5
  0
VERTEX
  5
a7
  8
Layer_0
  10
569.50153
  20
375.5
  0
SEQEND
  0
POLYLINE
  5
a9
  8
Layer_0
  62
7
  70
1
  66
1
  10
0
  20
0
  30
0
  0
VERTEX
  5
a9
  8
Layer_0
  10
7.9999237
  20
864.50012
  0
VERTEX
  5
aa
  8
Layer_0
  10
7.9999237
  20
875.50012
  0
VERTEX
  5
ab
  8
Layer_0
  10
18.999924
  20
875.50012
  0
VERTEX
  5
ac
  8
Layer_0
  10
18.999924
  20
864.50012
  0
SEQEND
  0
POLYLINE
  5
ae
  8
Layer_0
  62
7
  70
1
  66
1
  10
0
  20
0
  30
0
  0
VERTEX
  5
ae
  8
Layer_0
  10
569.50159
  20
864.50012
  0
VERTEX
  5
af
  8
Layer_0
  10
580.50159
  20
864.50012
  0
VERTEX
  5
b0
  8
Layer_0
  10
580.50159
  20
875.50012
  0
VERTEX
  5
b1
  8
Layer_0
  10
569.50159
  20
875.50012
  0
SEQEND
  0
POLYLINE
  5
b3
  8
Layer_0
  62
7
  70
1
  66
1
  10
0
  20
0
  30
0
  0
VERTEX
  5
b3
  8
Layer_0
  10
7.999939
  20
1264.5001
  0
VERTEX
  5
b4
  8
Layer_0
  10
7.9999542
  20
1275.5001
  0
VERTEX
  5
b5
  8
Layer_0
  10
18.999954
  20
1275.5001
  0
VERTEX
  5
b6
  8
Layer_0
  10
18.999939
  20
1264.5001
  0
SEQEND
  0
POLYLINE
  5
b8
  8
Layer_0
  62
7
  70
1
  66
1
  10
0
  20
0
  30
0
  0
VERTEX
  5
b8
  8
Layer_0
  10
569.50159
  20
1264.5001
  0
VERTEX
  5
b9
  8
Layer_0
  10
580.50159
  20
1264.5001
  0
VERTEX
  5
ba
  8
Layer_0
  10
580.50159
  20
1275.5001
  0
VERTEX
  5
bb
  8
Layer_0
  10
569.50159
  20
1275.5001
  0
SEQEND
  0
POLYLINE
  5
bd
  8
Layer_0
  62
7
  70
1
  66
1
  10
0
  20
0
  30
0
  0
VERTEX
  5
bd
  8
Layer_0
  10
7.9999695
  20
1864.5001
  0
VERTEX
  5
be
  8
Layer_0
  10
7.9999695
  20
1875.5001
  0
VERTEX
  5
bf
  8
Layer_0
  10
18.999969
  20
1875.5001
  0
VERTEX
  5
c0
  8
Layer_0
  10
18.999969
  20
1864.5001
  0
SEQEND
  0
POLYLINE
  5
c2
  8
Layer_0
  62
7
  70
1
  66
1
  10
0
  20
0
  30
0
  0
VERTEX
  5
c2
  8
Layer_0
  10
569.50165
  20
1864.5
  0
VERTEX
  5
c3
  8
Layer_0
  10
580.50165
  20
1864.5
  0
VERTEX
  5
c4
  8
Layer_0
  10
580.50165
  20
1875.5
  0
VERTEX
  5
c5
  8
Layer_0
  10
569.50165
  20
1875.5
  0
SEQEND
  0
POLYLINE
  5
c7
  8
Layer_0
  62
7
  70
1
  66
1
  10
0
  20
0
  30
0
  0
VERTEX
  5
c7
  8
Layer_0
  10
8
  20
2364.5
  0
VERTEX
  5
c8
  8
Layer_0
  10
8
  20
2375.5
  0
VERTEX
  5
c9
  8
Layer_0
  10
19
  20
2375.5
  0
VERTEX
  5
ca
  8
Layer_0
  10
19
  20
2364.5
  0
SEQEND
  0
POLYLINE
  5
cc
  8
Layer_0
  62
7
  70
1
  66
1
  10
0
  20
0
  30
0
  0
VERTEX
  5
cc
  8
Layer_0
  10
569.50165
  20
2364.5
  0
VERTEX
  5
cd
  8
Layer_0
  10
580.50165
  20
2364.5
  0
VERTEX
  5
ce
  8
Layer_0
  10
580.50165
  20
2375.5
  0
VERTEX
  5
cf
  8
Layer_0
  10
569.50165
  20
2375.5
  0
SEQEND
  0
POLYLINE
  5
d1
  8
Layer_0
  62
7
  66
1
  10
0
  20
0
  30
0
  0
VERTEX
  5
d1
  8
Layer_0
  10
-0.00010681152
  20
0
  0
VERTEX
  5
d2
  8
Layer_0
  10
599.99988
  20
0
  0
SEQEND
  0
ENDSEC
  0
EOF
