  0
SECTION
  2
HEADER
  9
$ACADVER
  1
AC1009
  0
ENDSEC
  0
SECTION
  2
TABLES
  0
TABLE
  2
LAYER
  70
1
  0
LAYER
  2
Layer_0
  70
0
  62
7
  6
CONTINUOUS
  0
ENDTAB
  0
ENDSEC
  0
SECTION
  2
ENTITIES
  0
CIRCLE
  5
90
  8
Layer_0
  62
7
  10
304.00488
  20
19.951904
  30
0
  40
4.5
  0
CIRCLE
  5
90
  8
Layer_0
  62
7
  10
1299.0054
  20
16.998535
  30
0
  40
4.5
  0
POLYLINE
  5
90
  8
Layer_0
  62
7
  70
1
  66
1
  10
0
  20
0
  30
0
  0
VERTEX
  5
90
  8
Layer_0
  10
1639.0002
  20
143.96829
  0
VERTEX
  5
91
  8
Layer_0
  10
1379.0002
  20
143.96829
  0
VERTEX
  5
92
  8
Layer_0
  10
1379.0002
  20
263.96829
  0
VERTEX
  5
93
  8
Layer_0
  10
1639.0002
  20
263.96829
  0
SEQEND
  0
CIRCLE
  5
95
  8
Layer_0
  62
7
  10
58.000244
  20
130.96829
  30
0
  40
4.5
  0
POLYLINE
  5
95
  8
Layer_0
  62
7
  70
1
  66
1
  10
0
  20
0
  30
0
  0
VERTEX
  5
95
  8
Layer_0
  10
69.000244
  20
99.968292
  42
-0.41421356
  0
VERTEX
  5
96
  8
Layer_0
  10
63.000244
  20
93.968292
  0
VERTEX
  5
97
  8
Layer_0
  10
53.000244
  20
93.968292
  42
-0.41421356
  0
VERTEX
  5
98
  8
Layer_0
  10
47.000244
  20
99.968292
  0
VERTEX
  5
99
  8
Layer_0
  10
47.000244
  20
100.46829
  42
-0.41421356
  0
VERTEX
  5
9a
  8
Layer_0
  10
53.000244
  20
106.46829
  0
VERTEX
  5
9b
  8
Layer_0
  10
63.000244
  20
106.46829
  42
-0.41421356
  0
VERTEX
  5
9c
  8
Layer_0
  10
69.000244
  20
100.46829
  0
SEQEND
  0
POLYLINE
  5
9e
  8
Layer_0
  62
7
  70
1
  66
1
  10
0
  20
0
  30
0
  0
VERTEX
  5
9e
  8
Layer_0
  10
69.000244
  20
410.46829
  42
-0.41421356
  0
VERTEX
  5
9f
  8
Layer_0
  10
63.000244
  20
404.46829
  0
VERTEX
  5
a0
  8
Layer_0
  10
53.000244
  20
404.46829
  42
-0.41421356
  0
VERTEX
  5
a1
  8
Layer_0
  10
47.000244
  20
410.46829
  0
VERTEX
  5
a2
  8
Layer_0
  10
47.000244
  20
410.96829
  42
-0.41421356
  0
VERTEX
  5
a3
  8
Layer_0
  10
53.000244
  20
416.96829
  0
VERTEX
  5
a4
  8
Layer_0
  10
63.000244
  20
416.96829
  42
-0.41421356
  0
VERTEX
  5
a5
  8
Layer_0
  10
69.000244
  20
410.96829
  0
SEQEND
  0
POLYLINE
  5
a7
  8
Layer_0
  62
7
  70
1
  66
1
  10
0
  20
0
  30
0
  0
VERTEX
  5
a7
  8
Layer_0
  10
69.000244
  20
720.96826
  42
-0.41421356
  0
VERTEX
  5
a8
  8
Layer_0
  10
63.000244
  20
714.96826
  0
VERTEX
  5
a9
  8
Layer_0
  10
53.000244
  20
714.96826
  42
-0.41421356
  0
VERTEX
  5
aa
  8
Layer_0
  10
47.000244
  20
720.96826
  0
VERTEX
  5
ab
  8
Layer_0
  10
47.000244
  20
721.46826
  42
-0.41421356
  0
VERTEX
  5
ac
  8
Layer_0
  10
53.000244
  20
727.46826
  0
VERTEX
  5
ad
  8
Layer_0
  10
63.000244
  20
727.46826
  42
-0.41421356
  0
VERTEX
  5
ae
  8
Layer_0
  10
69.000244
  20
721.46826
  0
SEQEND
  0
POLYLINE
  5
b0
  8
Layer_0
  62
7
  70
1
  66
1
  10
0
  20
0
  30
0
  0
VERTEX
  5
b0
  8
Layer_0
  10
835.00024
  20
503.96826
  42
-0.41421356
  0
VERTEX
  5
b1
  8
Layer_0
  10
830.00024
  20
508.96826
  0
VERTEX
  5
b2
  8
Layer_0
  10
830.00024
  20
560.96826
  42
-0.41421356
  0
VERTEX
  5
b3
  8
Layer_0
  10
835.00024
  20
565.96826
  0
VERTEX
  5
b4
  8
Layer_0
  10
835.00024
  20
565.96826
  42
-0.41421356
  0
VERTEX
  5
b5
  8
Layer_0
  10
840.00024
  20
560.96826
  0
VERTEX
  5
b6
  8
Layer_0
  10
840.00024
  20
508.96826
  42
-0.41421356
  0
VERTEX
  5
b7
  8
Layer_0
  10
835.00024
  20
503.96826
  0
SEQEND
  0
CIRCLE
  5
b9
  8
Layer_0
  62
7
  10
1682.5002
  20
133.46829
  30
0
  40
4.5
  0
CIRCLE
  5
b9
  8
Layer_0
  62
7
  10
1344.0002
  20
125.96829
  30
0
  40
4.5
  0
CIRCLE
  5
b9
  8
Layer_0
  62
7
  10
1344.0002
  20
272.96829
  30
0
  40
4.5
  0
CIRCLE
  5
b9
  8
Layer_0
  62
7
  10
1503.0002
  20
125.96829
  30
0
  40
4.5
  0
CIRCLE
  5
b9
  8
Layer_0
  62
7
  10
1503.0002
  20
272.96829
  30
0
  40
4.5
  0
CIRCLE
  5
b9
  8
Layer_0
  62
7
  10
1662.0002
  20
125.96829
  30
0
  40
4.5
  0
CIRCLE
  5
b9
  8
Layer_0
  62
7
  10
1662.0002
  20
272.96829
  30
0
  40
4.5
  0
POLYLINE
  5
b9
  8
Layer_0
  62
7
  70
1
  66
1
  10
0
  20
0
  30
0
  0
VERTEX
  5
b9
  8
Layer_0
  10
157.00024
  20
114.46829
  42
-0.41421356
  0
VERTEX
  5
ba
  8
Layer_0
  10
151.50024
  20
108.96829
  0
VERTEX
  5
bb
  8
Layer_0
  10
142.50024
  20
108.96829
  42
-0.41421356
  0
VERTEX
  5
bc
  8
Layer_0
  10
137.00024
  20
114.46829
  0
VERTEX
  5
bd
  8
Layer_0
  10
137.00024
  20
115.46829
  42
-0.41421356
  0
VERTEX
  5
be
  8
Layer_0
  10
142.50024
  20
120.96829
  0
VERTEX
  5
bf
  8
Layer_0
  10
151.50024
  20
120.96829
  42
-0.41421356
  0
VERTEX
  5
c0
  8
Layer_0
  10
157.00024
  20
115.46829
  0
SEQEND
  0
POLYLINE
  5
c2
  8
Layer_0
  62
7
  70
1
  66
1
  10
0
  20
0
  30
0
  0
VERTEX
  5
c2
  8
Layer_0
  10
740.00024
  20
114.46829
  42
-0.41421356
  0
VERTEX
  5
c3
  8
Layer_0
  10
734.50024
  20
108.96829
  0
VERTEX
  5
c4
  8
Layer_0
  10
725.50024
  20
108.96829
  42
-0.41421356
  0
VERTEX
  5
c5
  8
Layer_0
  10
720.00024
  20
114.46829
  0
VERTEX
  5
c6
  8
Layer_0
  10
720.00024
  20
115.46829
  42
-0.41421356
  0
VERTEX
  5
c7
  8
Layer_0
  10
725.50024
  20
120.96829
  0
VERTEX
  5
c8
  8
Layer_0
  10
734.50024
  20
120.96829
  42
-0.41421356
  0
VERTEX
  5
c9
  8
Layer_0
  10
740.00024
  20
115.46829
  0
SEQEND
  0
POLYLINE
  5
cb
  8
Layer_0
  62
7
  70
1
  66
1
  10
0
  20
0
  30
0
  0
VERTEX
  5
cb
  8
Layer_0
  10
1323.0002
  20
114.46829
  42
-0.41421356
  0
VERTEX
  5
cc
  8
Layer_0
  10
1317.5002
  20
108.96829
  0
VERTEX
  5
cd
  8
Layer_0
  10
1308.5002
  20
108.96829
  42
-0.41421356
  0
VERTEX
  5
ce
  8
Layer_0
  10
1303.0002
  20
114.46829
  0
VERTEX
  5
cf
  8
Layer_0
  10
1303.0002
  20
115.46829
  42
-0.41421356
  0
VERTEX
  5
d0
  8
Layer_0
  10
1308.5002
  20
120.96829
  0
VERTEX
  5
d1
  8
Layer_0
  10
1317.5002
  20
120.96829
  42
-0.41421356
  0
VERTEX
  5
d2
  8
Layer_0
  10
1323.0002
  20
115.46829
  0
SEQEND
  0
POLYLINE
  5
d4
  8
Layer_0
  62
7
  70
1
  66
1
  10
0
  20
0
  30
0
  0
VERTEX
  5
d4
  8
Layer_0
  10
157.00024
  20
226.46829
  42
-0.41421356
  0
VERTEX
  5
d5
  8
Layer_0
  10
151.50024
  20
220.96829
  0
VERTEX
  5
d6
  8
Layer_0
  10
142.50024
  20
220.96829
  42
-0.41421356
  0
VERTEX
  5
d7
  8
Layer_0
  10
137.00024
  20
226.46829
  0
VERTEX
  5
d8
  8
Layer_0
  10
137.00024
  20
227.46829
  42
-0.41421356
  0
VERTEX
  5
d9
  8
Layer_0
  10
142.50024
  20
232.96829
  0
VERTEX
  5
da
  8
Layer_0
  10
151.50024
  20
232.96829
  42
-0.41421356
  0
VERTEX
  5
db
  8
Layer_0
  10
157.00024
  20
227.46829
  0
SEQEND
  0
POLYLINE
  5
dd
  8
Layer_0
  62
7
  70
1
  66
1
  10
0
  20
0
  30
0
  0
VERTEX
  5
dd
  8
Layer_0
  10
740.00024
  20
226.46829
  42
-0.41421356
  0
VERTEX
  5
de
  8
Layer_0
  10
734.50024
  20
220.96829
  0
VERTEX
  5
df
  8
Layer_0
  10
725.50024
  20
220.96829
  42
-0.41421356
  0
VERTEX
  5
e0
  8
Layer_0
  10
720.00024
  20
226.46829
  0
VERTEX
  5
e1
  8
Layer_0
  10
720.00024
  20
227.46829
  42
-0.41421356
  0
VERTEX
  5
e2
  8
Layer_0
  10
725.50024
  20
232.96829
  0
VERTEX
  5
e3
  8
Layer_0
  10
734.50024
  20
232.96829
  42
-0.41421356
  0
VERTEX
  5
e4
  8
Layer_0
  10
740.00024
  20
227.46829
  0
SEQEND
  0
POLYLINE
  5
e6
  8
Layer_0
  62
7
  70
1
  66
1
  10
0
  20
0
  30
0
  0
VERTEX
  5
e6
  8
Layer_0
  10
1323.0002
  20
226.46829
  42
-0.41421356
  0
VERTEX
  5
e7
  8
Layer_0
  10
1317.5002
  20
220.96829
  0
VERTEX
  5
e8
  8
Layer_0
  10
1308.5002
  20
220.96829
  42
-0.41421356
  0
VERTEX
  5
e9
  8
Layer_0
  10
1303.0002
  20
226.46829
  0
VERTEX
  5
ea
  8
Layer_0
  10
1303.0002
  20
227.46829
  42
-0.41421356
  0
VERTEX
  5
eb
  8
Layer_0
  10
1308.5002
  20
232.96829
  0
VERTEX
  5
ec
  8
Layer_0
  10
1317.5002
  20
232.96829
  42
-0.41421356
  0
VERTEX
  5
ed
  8
Layer_0
  10
1323.0002
  20
227.46829
  0
SEQEND
  0
POLYLINE
  5
ef
  8
Layer_0
  62
7
  70
1
  66
1
  10
0
  20
0
  30
0
  0
VERTEX
  5
ef
  8
Layer_0
  10
1583.0344
  20
543.3219
  42
0.41421356
  0
VERTEX
  5
f0
  8
Layer_0
  10
1591.0079
  20
540.4198
  0
VERTEX
  5
f1
  8
Layer_0
  10
1595.5396
  20
542.5329
  42
0.41421356
  0
VERTEX
  5
f2
  8
Layer_0
  10
1598.4417
  20
550.50647
  0
VERTEX
  5
f3
  8
Layer_0
  10
1598.4417
  20
550.50647
  42
0.41421356
  0
VERTEX
  5
f4
  8
Layer_0
  10
1590.4681
  20
553.40857
  0
VERTEX
  5
f5
  8
Layer_0
  10
1585.9365
  20
551.29547
  42
0.41421356
  0
VERTEX
  5
f6
  8
Layer_0
  10
1583.0344
  20
543.3219
  0
SEQEND
  0
POLYLINE
  5
f8
  8
Layer_0
  62
7
  70
1
  66
1
  10
0
  20
0
  30
0
  0
VERTEX
  5
f8
  8
Layer_0
  10
1485.1531
  20
497.6792
  42
0.41421356
  0
VERTEX
  5
f9
  8
Layer_0
  10
1493.1266
  20
494.77707
  0
VERTEX
  5
fa
  8
Layer_0
  10
1497.6582
  20
496.89017
  42
0.41421356
  0
VERTEX
  5
fb
  8
Layer_0
  10
1500.5603
  20
504.86371
  0
VERTEX
  5
fc
  8
Layer_0
  10
1500.5603
  20
504.86371
  42
0.41421356
  0
VERTEX
  5
fd
  8
Layer_0
  10
1492.5868
  20
507.76584
  0
VERTEX
  5
fe
  8
Layer_0
  10
1488.0552
  20
505.65274
  42
0.41421356
  0
VERTEX
  5
ff
  8
Layer_0
  10
1485.1531
  20
497.6792
  0
SEQEND
  0
POLYLINE
  5
101
  8
Layer_0
  62
7
  70
1
  66
1
  10
0
  20
0
  30
0
  0
VERTEX
  5
101
  8
Layer_0
  10
1387.2717
  20
452.03644
  42
0.41421356
  0
VERTEX
  5
102
  8
Layer_0
  10
1395.2452
  20
449.13431
  0
VERTEX
  5
103
  8
Layer_0
  10
1399.7769
  20
451.24741
  42
0.41421356
  0
VERTEX
  5
104
  8
Layer_0
  10
1402.679
  20
459.22095
  0
VERTEX
  5
105
  8
Layer_0
  10
1402.679
  20
459.22095
  42
0.41421356
  0
VERTEX
  5
106
  8
Layer_0
  10
1394.7054
  20
462.12308
  0
VERTEX
  5
107
  8
Layer_0
  10
1390.1738
  20
460.00998
  42
0.41421356
  0
VERTEX
  5
108
  8
Layer_0
  10
1387.2717
  20
452.03644
  0
SEQEND
  0
POLYLINE
  5
10a
  8
Layer_0
  62
7
  70
1
  66
1
  10
0
  20
0
  30
0
  0
VERTEX
  5
10a
  8
Layer_0
  10
1681.0002
  20
93.968002
  42
0.41421356
  0
VERTEX
  5
10b
  8
Layer_0
  10
1687.0002
  20
99.968002
  0
VERTEX
  5
10c
  8
Layer_0
  10
1687.0002
  20
109.968
  42
0.41421356
  0
VERTEX
  5
10d
  8
Layer_0
  10
1681.0002
  20
115.968
  0
VERTEX
  5
10e
  8
Layer_0
  10
1680.5002
  20
115.968
  42
0.41421356
  0
VERTEX
  5
10f
  8
Layer_0
  10
1674.5002
  20
109.968
  0
VERTEX
  5
110
  8
Layer_0
  10
1674.5002
  20
99.968002
  42
0.41421356
  0
VERTEX
  5
111
  8
Layer_0
  10
1680.5002
  20
93.968002
  0
SEQEND
  0
POLYLINE
  5
113
  8
Layer_0
  62
7
  70
1
  66
1
  10
0
  20
0
  30
0
  0
VERTEX
  5
113
  8
Layer_0
  10
1681.0002
  20
403.96799
  42
0.41421356
  0
VERTEX
  5
114
  8
Layer_0
  10
1687.0002
  20
409.96799
  0
VERTEX
  5
115
  8
Layer_0
  10
1687.0002
  20
419.96799
  42
0.41421356
  0
VERTEX
  5
116
  8
Layer_0
  10
1681.0002
  20
425.96799
  0
VERTEX
  5
117
  8
Layer_0
  10
1680.5002
  20
425.96799
  42
0.41421356
  0
VERTEX
  5
118
  8
Layer_0
  10
1674.5002
  20
419.96799
  0
VERTEX
  5
119
  8
Layer_0
  10
1674.5002
  20
409.96799
  42
0.41421356
  0
VERTEX
  5
11a
  8
Layer_0
  10
1680.5002
  20
403.96799
  0
SEQEND
  0
POLYLINE
  5
11c
  8
Layer_0
  62
7
  70
1
  66
1
  10
0
  20
0
  30
0
  0
VERTEX
  5
11c
  8
Layer_0
  10
1681.0002
  20
713.96802
  42
0.41421356
  0
VERTEX
  5
11d
  8
Layer_0
  10
1687.0002
  20
719.96802
  0
VERTEX
  5
11e
  8
Layer_0
  10
1687.0002
  20
729.96802
  42
0.41421356
  0
VERTEX
  5
11f
  8
Layer_0
  10
1681.0002
  20
735.96802
  0
VERTEX
  5
120
  8
Layer_0
  10
1680.5002
  20
735.96802
  42
0.41421356
  0
VERTEX
  5
121
  8
Layer_0
  10
1674.5002
  20
729.96802
  0
VERTEX
  5
122
  8
Layer_0
  10
1674.5002
  20
719.96802
  42
0.41421356
  0
VERTEX
  5
123
  8
Layer_0
  10
1680.5002
  20
713.96802
  0
SEQEND
  0
POLYLINE
  5
125
  8
Layer_0
  62
7
  66
1
  10
0
  20
0
  30
0
  0
VERTEX
  5
125
  8
Layer_0
  10
1699
  20
62.436615
  42
-0.41421356
  0
VERTEX
  5
126
  8
Layer_0
  10
1697.5
  20
63.936615
  42
-0.41421356
  0
VERTEX
  5
127
  8
Layer_0
  10
1699
  20
65.436615
  0
SEQEND
  0
POLYLINE
  5
129
  8
Layer_0
  62
7
  66
1
  10
0
  20
0
  30
0
  0
VERTEX
  5
129
  8
Layer_0
  10
33.73877
  20
673.93701
  0
VERTEX
  5
12a
  8
Layer_0
  10
33.73877
  20
673.93652
  0
SEQEND
  0
POLYLINE
  5
12c
  8
Layer_0
  62
7
  70
1
  66
1
  10
0
  20
0
  30
0
  0
VERTEX
  5
12c
  8
Layer_0
  10
34.000488
  20
63.92514
  0
VERTEX
  5
12d
  8
Layer_0
  10
33.999512
  20
63.92514
  0
SEQEND
  0
POLYLINE
  5
12f
  8
Layer_0
  62
7
  66
1
  10
0
  20
0
  30
0
  0
VERTEX
  5
12f
  8
Layer_0
  10
34.000488
  20
65.42514
  42
-0.41421356
  0
VERTEX
  5
130
  8
Layer_0
  10
35.500973
  20
63.92514
  42
-0.41421356
  0
VERTEX
  5
131
  8
Layer_0
  10
34.000488
  20
62.42514
  0
SEQEND
  0
POLYLINE
  5
133
  8
Layer_0
  62
7
  70
1
  66
1
  10
0
  20
0
  30
0
  0
VERTEX
  5
133
  8
Layer_0
  10
1732.9995
  20
811.37622
  0
VERTEX
  5
134
  8
Layer_0
  10
1733
  20
811.37622
  0
SEQEND
  0
POLYLINE
  5
136
  8
Layer_0
  62
7
  66
1
  10
0
  20
0
  30
0
  0
VERTEX
  5
136
  8
Layer_0
  10
1733.0005
  20
812.4364
  42
0.00092524716
  0
VERTEX
  5
137
  8
Layer_0
  10
1732.9995
  20
812.4364
  42
-0.41421356
  0
VERTEX
  5
138
  8
Layer_0
  10
1731.4995
  20
813.9364
  42
-0.41421356
  0
VERTEX
  5
139
  8
Layer_0
  10
1732.9995
  20
815.4364
  42
8.7845521e-05
  0
VERTEX
  5
13a
  8
Layer_0
  10
1733.0005
  20
815.4364
  0
SEQEND
  0
POLYLINE
  5
13c
  8
Layer_0
  62
7
  66
1
  10
0
  20
0
  30
0
  0
VERTEX
  5
13c
  8
Layer_0
  10
1.2622448e-05
  20
815.43689
  42
-0.41411782
  0
VERTEX
  5
13d
  8
Layer_0
  10
1.4995117
  20
813.93689
  42
-0.41404303
  0
VERTEX
  5
13e
  8
Layer_0
  10
0.00048828125
  20
812.43689
  0
SEQEND
  0
POLYLINE
  5
140
  8
Layer_0
  62
7
  66
1
  10
0
  20
0
  30
0
  0
VERTEX
  5
140
  8
Layer_0
  10
0
  20
815.43683
  0
VERTEX
  5
141
  8
Layer_0
  10
0
  20
845.17639
  0
VERTEX
  5
142
  8
Layer_0
  10
0.30230231
  20
845.20809
  0
VERTEX
  5
143
  8
Layer_0
  10
0.58386767
  20
845.29899
  0
VERTEX
  5
144
  8
Layer_0
  10
0.83866424
  20
845.44283
  0
VERTEX
  5
145
  8
Layer_0
  10
1.0606602
  20
845.63332
  0
VERTEX
  5
146
  8
Layer_0
  10
1.2438235
  20
845.8642
  0
VERTEX
  5
147
  8
Layer_0
  10
1.3821226
  20
846.12919
  0
VERTEX
  5
148
  8
Layer_0
  10
1.4695253
  20
846.42201
  0
VERTEX
  5
149
  8
Layer_0
  10
1.5
  20
846.73639
  0
VERTEX
  5
14a
  8
Layer_0
  10
1.4695253
  20
847.05079
  0
VERTEX
  5
14b
  8
Layer_0
  10
1.3821226
  20
847.34362
  0
VERTEX
  5
14c
  8
Layer_0
  10
1.2438235
  20
847.60862
  0
VERTEX
  5
14d
  8
Layer_0
  10
1.0606602
  20
847.83951
  0
VERTEX
  5
14e
  8
Layer_0
  10
0.83866424
  20
848.03001
  0
VERTEX
  5
14f
  8
Layer_0
  10
0.58386767
  20
848.17385
  0
VERTEX
  5
150
  8
Layer_0
  10
0.30230231
  20
848.26475
  0
VERTEX
  5
151
  8
Layer_0
  10
0
  20
848.29645
  0
VERTEX
  5
152
  8
Layer_0
  10
0
  20
877.93658
  0
VERTEX
  5
153
  8
Layer_0
  10
1733
  20
877.93658
  0
VERTEX
  5
154
  8
Layer_0
  10
1733
  20
848.29645
  0
VERTEX
  5
155
  8
Layer_0
  10
1732.6977
  20
848.26475
  0
VERTEX
  5
156
  8
Layer_0
  10
1732.4162
  20
848.17385
  0
VERTEX
  5
157
  8
Layer_0
  10
1732.1614
  20
848.03001
  0
VERTEX
  5
158
  8
Layer_0
  10
1731.9394
  20
847.83951
  0
VERTEX
  5
159
  8
Layer_0
  10
1731.7562
  20
847.60862
  0
VERTEX
  5
15a
  8
Layer_0
  10
1731.6179
  20
847.34362
  0
VERTEX
  5
15b
  8
Layer_0
  10
1731.5305
  20
847.05079
  0
VERTEX
  5
15c
  8
Layer_0
  10
1731.5
  20
846.73639
  0
VERTEX
  5
15d
  8
Layer_0
  10
1731.5305
  20
846.42201
  0
VERTEX
  5
15e
  8
Layer_0
  10
1731.6179
  20
846.12919
  0
VERTEX
  5
15f
  8
Layer_0
  10
1731.7562
  20
845.8642
  0
VERTEX
  5
160
  8
Layer_0
  10
1731.9394
  20
845.63332
  0
VERTEX
  5
161
  8
Layer_0
  10
1732.1614
  20
845.44283
  0
VERTEX
  5
162
  8
Layer_0
  10
1732.4162
  20
845.29899
  0
VERTEX
  5
163
  8
Layer_0
  10
1732.6977
  20
845.20809
  0
VERTEX
  5
164
  8
Layer_0
  10
1733
  20
845.17639
  0
VERTEX
  5
165
  8
Layer_0
  10
1733.0005
  20
815.43634
  0
SEQEND
  0
POLYLINE
  5
167
  8
Layer_0
  62
7
  66
1
  10
0
  20
0
  30
0
  0
VERTEX
  5
167
  8
Layer_0
  10
1699.001
  20
65.365631
  0
VERTEX
  5
168
  8
Layer_0
  10
1699.0005
  20
673.86536
  0
VERTEX
  5
169
  8
Layer_0
  10
1699.0364
  20
673.86268
  0
VERTEX
  5
16a
  8
Layer_0
  10
1699.1192
  20
673.86197
  0
VERTEX
  5
16b
  8
Layer_0
  10
1699.2474
  20
673.86486
  0
VERTEX
  5
16c
  8
Layer_0
  10
1699.4196
  20
673.87293
  0
VERTEX
  5
16d
  8
Layer_0
  10
1699.6341
  20
673.88776
  0
VERTEX
  5
16e
  8
Layer_0
  10
1699.8896
  20
673.91095
  0
VERTEX
  5
16f
  8
Layer_0
  10
1700.1844
  20
673.94407
  0
VERTEX
  5
170
  8
Layer_0
  10
1700.5171
  20
673.98873
  0
VERTEX
  5
171
  8
Layer_0
  10
1700.8861
  20
674.0465
  0
VERTEX
  5
172
  8
Layer_0
  10
1701.29
  20
674.11897
  0
VERTEX
  5
173
  8
Layer_0
  10
1701.7273
  20
674.20773
  0
VERTEX
  5
174
  8
Layer_0
  10
1702.1963
  20
674.31437
  0
VERTEX
  5
175
  8
Layer_0
  10
1702.6957
  20
674.44048
  0
VERTEX
  5
176
  8
Layer_0
  10
1703.2239
  20
674.58763
  0
VERTEX
  5
177
  8
Layer_0
  10
1703.7794
  20
674.75743
  0
VERTEX
  5
178
  8
Layer_0
  10
1704.3607
  20
674.95145
  0
VERTEX
  5
179
  8
Layer_0
  10
1704.9663
  20
675.17128
  0
VERTEX
  5
17a
  8
Layer_0
  10
1705.5946
  20
675.41852
  0
VERTEX
  5
17b
  8
Layer_0
  10
1706.2442
  20
675.69474
  0
VERTEX
  5
17c
  8
Layer_0
  10
1706.9136
  20
676.00154
  0
VERTEX
  5
17d
  8
Layer_0
  10
1707.6012
  20
676.3405
  0
VERTEX
  5
17e
  8
Layer_0
  10
1708.3055
  20
676.71321
  0
VERTEX
  5
17f
  8
Layer_0
  10
1709.0251
  20
677.12126
  0
VERTEX
  5
180
  8
Layer_0
  10
1709.7583
  20
677.56623
  0
VERTEX
  5
181
  8
Layer_0
  10
1710.5038
  20
678.04972
  0
VERTEX
  5
182
  8
Layer_0
  10
1711.26
  20
678.5733
  0
VERTEX
  5
183
  8
Layer_0
  10
1712.0253
  20
679.13858
  0
VERTEX
  5
184
  8
Layer_0
  10
1712.7983
  20
679.74712
  0
VERTEX
  5
185
  8
Layer_0
  10
1713.5775
  20
680.40053
  0
VERTEX
  5
186
  8
Layer_0
  10
1714.3614
  20
681.10038
  0
VERTEX
  5
187
  8
Layer_0
  10
1715.1483
  20
681.84827
  0
VERTEX
  5
188
  8
Layer_0
  10
1715.937
  20
682.64578
  0
VERTEX
  5
189
  8
Layer_0
  10
1716.7257
  20
683.49451
  0
VERTEX
  5
18a
  8
Layer_0
  10
1717.513
  20
684.39603
  0
VERTEX
  5
18b
  8
Layer_0
  10
1718.2975
  20
685.35193
  0
VERTEX
  5
18c
  8
Layer_0
  10
1719.0775
  20
686.36381
  0
VERTEX
  5
18d
  8
Layer_0
  10
1719.8517
  20
687.43324
  0
VERTEX
  5
18e
  8
Layer_0
  10
1720.6184
  20
688.56183
  0
VERTEX
  5
18f
  8
Layer_0
  10
1721.3762
  20
689.75114
  0
VERTEX
  5
190
  8
Layer_0
  10
1722.1235
  20
691.00278
  0
VERTEX
  5
191
  8
Layer_0
  10
1722.8589
  20
692.31833
  0
VERTEX
  5
192
  8
Layer_0
  10
1723.5808
  20
693.69937
  0
VERTEX
  5
193
  8
Layer_0
  10
1724.2877
  20
695.14749
  0
VERTEX
  5
194
  8
Layer_0
  10
1724.9782
  20
696.66429
  0
VERTEX
  5
195
  8
Layer_0
  10
1725.6506
  20
698.25134
  0
VERTEX
  5
196
  8
Layer_0
  10
1726.3036
  20
699.91024
  0
VERTEX
  5
197
  8
Layer_0
  10
1726.9355
  20
701.64257
  0
VERTEX
  5
198
  8
Layer_0
  10
1727.545
  20
703.44992
  0
VERTEX
  5
199
  8
Layer_0
  10
1728.1303
  20
705.33388
  0
VERTEX
  5
19a
  8
Layer_0
  10
1728.6902
  20
707.29603
  0
VERTEX
  5
19b
  8
Layer_0
  10
1729.223
  20
709.33796
  0
VERTEX
  5
19c
  8
Layer_0
  10
1729.7272
  20
711.46126
  0
VERTEX
  5
19d
  8
Layer_0
  10
1730.2014
  20
713.66752
  0
VERTEX
  5
19e
  8
Layer_0
  10
1730.6439
  20
715.95831
  0
VERTEX
  5
19f
  8
Layer_0
  10
1731.0534
  20
718.33524
  0
VERTEX
  5
1a0
  8
Layer_0
  10
1731.4283
  20
720.79989
  0
VERTEX
  5
1a1
  8
Layer_0
  10
1731.7671
  20
723.35385
  0
VERTEX
  5
1a2
  8
Layer_0
  10
1732.0682
  20
725.99869
  0
VERTEX
  5
1a3
  8
Layer_0
  10
1732.2042
  20
727.35569
  0
VERTEX
  5
1a4
  8
Layer_0
  10
1732.3302
  20
728.73601
  0
VERTEX
  5
1a5
  8
Layer_0
  10
1732.4461
  20
730.13985
  0
VERTEX
  5
1a6
  8
Layer_0
  10
1732.5516
  20
731.56741
  0
VERTEX
  5
1a7
  8
Layer_0
  10
1732.6466
  20
733.01887
  0
VERTEX
  5
1a8
  8
Layer_0
  10
1732.7308
  20
734.49445
  0
VERTEX
  5
1a9
  8
Layer_0
  10
1732.8042
  20
735.99434
  0
VERTEX
  5
1aa
  8
Layer_0
  10
1732.8664
  20
737.51874
  0
VERTEX
  5
1ab
  8
Layer_0
  10
1732.9173
  20
739.06784
  0
VERTEX
  5
1ac
  8
Layer_0
  10
1732.9568
  20
740.64185
  0
VERTEX
  5
1ad
  8
Layer_0
  10
1732.9846
  20
742.24097
  0
VERTEX
  5
1ae
  8
Layer_0
  10
1733.0005
  20
743.86539
  0
VERTEX
  5
1af
  8
Layer_0
  10
1733.0005
  20
812.4364
  0
SEQEND
  0
POLYLINE
  5
1b1
  8
Layer_0
  62
7
  66
1
  10
0
  20
0
  30
0
  0
VERTEX
  5
1b1
  8
Layer_0
  10
1699.0005
  20
62.5
  0
VERTEX
  5
1b2
  8
Layer_0
  10
1699
  20
35.5
  0
VERTEX
  5
1b3
  8
Layer_0
  10
1698.7096
  20
35.469525
  0
VERTEX
  5
1b4
  8
Layer_0
  10
1698.439
  20
35.382123
  0
VERTEX
  5
1b5
  8
Layer_0
  10
1698.1942
  20
35.243824
  0
VERTEX
  5
1b6
  8
Layer_0
  10
1697.9808
  20
35.060661
  0
VERTEX
  5
1b7
  8
Layer_0
  10
1697.8048
  20
34.838666
  0
VERTEX
  5
1b8
  8
Layer_0
  10
1697.6719
  20
34.583869
  0
VERTEX
  5
1b9
  8
Layer_0
  10
1697.5879
  20
34.302303
  0
VERTEX
  5
1ba
  8
Layer_0
  10
1697.5586
  20
34
  0
VERTEX
  5
1bb
  8
Layer_0
  10
1697.5879
  20
33.697697
  0
VERTEX
  5
1bc
  8
Layer_0
  10
1697.6719
  20
33.416131
  0
VERTEX
  5
1bd
  8
Layer_0
  10
1697.8048
  20
33.161334
  0
VERTEX
  5
1be
  8
Layer_0
  10
1697.9808
  20
32.939339
  0
VERTEX
  5
1bf
  8
Layer_0
  10
1698.1942
  20
32.756176
  0
VERTEX
  5
1c0
  8
Layer_0
  10
1698.439
  20
32.617877
  0
VERTEX
  5
1c1
  8
Layer_0
  10
1698.7096
  20
32.530475
  0
VERTEX
  5
1c2
  8
Layer_0
  10
1699
  20
32.5
  0
VERTEX
  5
1c3
  8
Layer_0
  10
1699
  20
0
  0
VERTEX
  5
1c4
  8
Layer_0
  10
34
  20
0
  0
VERTEX
  5
1c5
  8
Layer_0
  10
34
  20
32.5
  0
VERTEX
  5
1c6
  8
Layer_0
  10
34.290424
  20
32.530475
  0
VERTEX
  5
1c7
  8
Layer_0
  10
34.560913
  20
32.617877
  0
VERTEX
  5
1c8
  8
Layer_0
  10
34.805676
  20
32.756176
  0
VERTEX
  5
1c9
  8
Layer_0
  10
35.018921
  20
32.939339
  0
VERTEX
  5
1ca
  8
Layer_0
  10
35.194859
  20
33.161334
  0
VERTEX
  5
1cb
  8
Layer_0
  10
35.327698
  20
33.416131
  0
VERTEX
  5
1cc
  8
Layer_0
  10
35.411648
  20
33.697697
  0
VERTEX
  5
1cd
  8
Layer_0
  10
35.440918
  20
34
  0
VERTEX
  5
1ce
  8
Layer_0
  10
35.411648
  20
34.302303
  0
VERTEX
  5
1cf
  8
Layer_0
  10
35.327698
  20
34.583869
  0
VERTEX
  5
1d0
  8
Layer_0
  10
35.194859
  20
34.838666
  0
VERTEX
  5
1d1
  8
Layer_0
  10
35.018921
  20
35.060661
  0
VERTEX
  5
1d2
  8
Layer_0
  10
34.805676
  20
35.243824
  0
VERTEX
  5
1d3
  8
Layer_0
  10
34.560913
  20
35.382123
  0
VERTEX
  5
1d4
  8
Layer_0
  10
34.290424
  20
35.469525
  0
VERTEX
  5
1d5
  8
Layer_0
  10
34
  20
35.5
  0
VERTEX
  5
1d6
  8
Layer_0
  10
34.007324
  20
62.425156
  0
SEQEND
  0
POLYLINE
  5
1d8
  8
Layer_0
  62
7
  66
1
  10
0
  20
0
  30
0
  0
VERTEX
  5
1d8
  8
Layer_0
  10
0.00048828125
  20
812.43689
  0
VERTEX
  5
1d9
  8
Layer_0
  10
0.00048828125
  20
743.86584
  0
VERTEX
  5
1da
  8
Layer_0
  10
0.016425447
  20
742.24146
  0
VERTEX
  5
1db
  8
Layer_0
  10
0.044221295
  20
740.64234
  0
VERTEX
  5
1dc
  8
Layer_0
  10
0.083687096
  20
739.06833
  0
VERTEX
  5
1dd
  8
Layer_0
  10
0.13463412
  20
737.51923
  0
VERTEX
  5
1de
  8
Layer_0
  10
0.19687365
  20
735.99483
  0
VERTEX
  5
1df
  8
Layer_0
  10
0.27021694
  20
734.49494
  0
VERTEX
  5
1e0
  8
Layer_0
  10
0.35447527
  20
733.01936
  0
VERTEX
  5
1e1
  8
Layer_0
  10
0.44945991
  20
731.56789
  0
VERTEX
  5
1e2
  8
Layer_0
  10
0.55498214
  20
730.14034
  0
VERTEX
  5
1e3
  8
Layer_0
  10
0.67085322
  20
728.7365
  0
VERTEX
  5
1e4
  8
Layer_0
  10
0.79688443
  20
727.35618
  0
VERTEX
  5
1e5
  8
Layer_0
  10
0.93288703
  20
725.99918
  0
VERTEX
  5
1e6
  8
Layer_0
  10
1.2340515
  20
723.35433
  0
VERTEX
  5
1e7
  8
Layer_0
  10
1.5728369
  20
720.80038
  0
VERTEX
  5
1e8
  8
Layer_0
  10
1.9477333
  20
718.33573
  0
VERTEX
  5
1e9
  8
Layer_0
  10
2.3572308
  20
715.9588
  0
VERTEX
  5
1ea
  8
Layer_0
  10
2.7998198
  20
713.668
  0
VERTEX
  5
1eb
  8
Layer_0
  10
3.2739903
  20
711.46175
  0
VERTEX
  5
1ec
  8
Layer_0
  10
3.7782325
  20
709.33845
  0
VERTEX
  5
1ed
  8
Layer_0
  10
4.3110366
  20
707.29652
  0
VERTEX
  5
1ee
  8
Layer_0
  10
4.8708928
  20
705.33437
  0
VERTEX
  5
1ef
  8
Layer_0
  10
5.4562912
  20
703.45041
  0
VERTEX
  5
1f0
  8
Layer_0
  10
6.065722
  20
701.64306
  0
VERTEX
  5
1f1
  8
Layer_0
  10
6.6976755
  20
699.91073
  0
VERTEX
  5
1f2
  8
Layer_0
  10
7.3506416
  20
698.25183
  0
VERTEX
  5
1f3
  8
Layer_0
  10
8.0231107
  20
696.66478
  0
VERTEX
  5
1f4
  8
Layer_0
  10
8.713573
  20
695.14798
  0
VERTEX
  5
1f5
  8
Layer_0
  10
9.4205185
  20
693.69986
  0
VERTEX
  5
1f6
  8
Layer_0
  10
10.142437
  20
692.31882
  0
VERTEX
  5
1f7
  8
Layer_0
  10
10.87782
  20
691.00327
  0
VERTEX
  5
1f8
  8
Layer_0
  10
11.625156
  20
689.75163
  0
VERTEX
  5
1f9
  8
Layer_0
  10
12.382937
  20
688.56231
  0
VERTEX
  5
1fa
  8
Layer_0
  10
13.149651
  20
687.43373
  0
VERTEX
  5
1fb
  8
Layer_0
  10
13.92379
  20
686.3643
  0
VERTEX
  5
1fc
  8
Layer_0
  10
14.703843
  20
685.35242
  0
VERTEX
  5
1fd
  8
Layer_0
  10
15.488301
  20
684.39651
  0
VERTEX
  5
1fe
  8
Layer_0
  10
16.275654
  20
683.49499
  0
VERTEX
  5
1ff
  8
Layer_0
  10
17.064392
  20
682.64627
  0
VERTEX
  5
200
  8
Layer_0
  10
17.853005
  20
681.84876
  0
VERTEX
  5
201
  8
Layer_0
  10
18.639984
  20
681.10087
  0
VERTEX
  5
202
  8
Layer_0
  10
19.423817
  20
680.40101
  0
VERTEX
  5
203
  8
Layer_0
  10
20.202997
  20
679.74761
  0
VERTEX
  5
204
  8
Layer_0
  10
20.976013
  20
679.13906
  0
VERTEX
  5
205
  8
Layer_0
  10
21.741354
  20
678.57379
  0
VERTEX
  5
206
  8
Layer_0
  10
22.497512
  20
678.05021
  0
VERTEX
  5
207
  8
Layer_0
  10
23.242976
  20
677.56672
  0
VERTEX
  5
208
  8
Layer_0
  10
23.976237
  20
677.12175
  0
VERTEX
  5
209
  8
Layer_0
  10
24.695784
  20
676.7137
  0
VERTEX
  5
20a
  8
Layer_0
  10
25.400109
  20
676.34099
  0
VERTEX
  5
20b
  8
Layer_0
  10
26.0877
  20
676.00203
  0
VERTEX
  5
20c
  8
Layer_0
  10
26.757049
  20
675.69523
  0
VERTEX
  5
20d
  8
Layer_0
  10
27.406646
  20
675.419
  0
VERTEX
  5
20e
  8
Layer_0
  10
28.034979
  20
675.17177
  0
VERTEX
  5
20f
  8
Layer_0
  10
28.640541
  20
674.95193
  0
VERTEX
  5
210
  8
Layer_0
  10
29.221821
  20
674.75791
  0
VERTEX
  5
211
  8
Layer_0
  10
29.777308
  20
674.58812
  0
VERTEX
  5
212
  8
Layer_0
  10
30.305495
  20
674.44096
  0
VERTEX
  5
213
  8
Layer_0
  10
30.804869
  20
674.31486
  0
VERTEX
  5
214
  8
Layer_0
  10
31.273922
  20
674.20822
  0
VERTEX
  5
215
  8
Layer_0
  10
31.711144
  20
674.11946
  0
VERTEX
  5
216
  8
Layer_0
  10
32.115025
  20
674.04699
  0
VERTEX
  5
217
  8
Layer_0
  10
32.484056
  20
673.98922
  0
VERTEX
  5
218
  8
Layer_0
  10
32.816725
  20
673.94456
  0
VERTEX
  5
219
  8
Layer_0
  10
33.111524
  20
673.91143
  0
VERTEX
  5
21a
  8
Layer_0
  10
33.366943
  20
673.88825
  0
VERTEX
  5
21b
  8
Layer_0
  10
33.581472
  20
673.87342
  0
VERTEX
  5
21c
  8
Layer_0
  10
33.7536
  20
673.86535
  0
VERTEX
  5
21d
  8
Layer_0
  10
33.881819
  20
673.86246
  0
VERTEX
  5
21e
  8
Layer_0
  10
33.964618
  20
673.86317
  0
VERTEX
  5
21f
  8
Layer_0
  10
34.000488
  20
673.86588
  0
VERTEX
  5
220
  8
Layer_0
  10
34.000488
  20
65.42514
  0
SEQEND
  0
ENDSEC
  0
EOF
