  0
SECTION
  2
HEADER
  9
$ACADVER
  1
AC1009
  0
ENDSEC
  0
SECTION
  2
TABLES
  0
TABLE
  2
LAYER
  70
1
  0
LAYER
  2
Layer_0
  70
0
  62
7
  6
CONTINUOUS
  0
ENDTAB
  0
ENDSEC
  0
SECTION
  2
ENTITIES
  0
POLYLINE
  5
90
  8
Layer_0
  62
7
  70
1
  66
1
  10
0
  20
0
  30
0
  0
VERTEX
  5
90
  8
Layer_0
  10
-3.0517578e-05
  20
0
  0
VERTEX
  5
91
  8
Layer_0
  10
3.0517578e-05
  20
1665
  0
VERTEX
  5
92
  8
Layer_0
  10
750
  20
1665
  0
VERTEX
  5
93
  8
Layer_0
  10
750
  20
0
  0
SEQEND
  0
POLYLINE
  5
95
  8
Layer_0
  62
7
  70
1
  66
1
  10
0
  20
0
  30
0
  0
VERTEX
  5
95
  8
Layer_0
  10
79.999969
  20
60
  0
VERTEX
  5
96
  8
Layer_0
  10
79.999969
  20
320
  0
VERTEX
  5
97
  8
Layer_0
  10
199.99997
  20
320
  0
VERTEX
  5
98
  8
Layer_0
  10
199.99997
  20
60
  0
SEQEND
  0
CIRCLE
  5
9a
  8
Layer_0
  62
7
  10
67.000031
  20
1641
  30
0
  40
4.5
  0
POLYLINE
  5
9a
  8
Layer_0
  62
7
  70
1
  66
1
  10
0
  20
0
  30
0
  0
VERTEX
  5
9a
  8
Layer_0
  10
36.000031
  20
1630
  42
-0.41421356
  0
VERTEX
  5
9b
  8
Layer_0
  10
30.000031
  20
1636
  0
VERTEX
  5
9c
  8
Layer_0
  10
30.000031
  20
1646
  42
-0.41421356
  0
VERTEX
  5
9d
  8
Layer_0
  10
36.000031
  20
1652
  0
VERTEX
  5
9e
  8
Layer_0
  10
36.500031
  20
1652
  42
-0.41421356
  0
VERTEX
  5
9f
  8
Layer_0
  10
42.500031
  20
1646
  0
VERTEX
  5
a0
  8
Layer_0
  10
42.500031
  20
1636
  42
-0.41421356
  0
VERTEX
  5
a1
  8
Layer_0
  10
36.500031
  20
1630
  0
SEQEND
  0
POLYLINE
  5
a3
  8
Layer_0
  62
7
  70
1
  66
1
  10
0
  20
0
  30
0
  0
VERTEX
  5
a3
  8
Layer_0
  10
346.5
  20
1630
  42
-0.41421356
  0
VERTEX
  5
a4
  8
Layer_0
  10
340.5
  20
1636
  0
VERTEX
  5
a5
  8
Layer_0
  10
340.5
  20
1646
  42
-0.41421356
  0
VERTEX
  5
a6
  8
Layer_0
  10
346.5
  20
1652
  0
VERTEX
  5
a7
  8
Layer_0
  10
347
  20
1652
  42
-0.41421356
  0
VERTEX
  5
a8
  8
Layer_0
  10
353
  20
1646
  0
VERTEX
  5
a9
  8
Layer_0
  10
353
  20
1636
  42
-0.41421356
  0
VERTEX
  5
aa
  8
Layer_0
  10
347
  20
1630
  0
SEQEND
  0
POLYLINE
  5
ac
  8
Layer_0
  62
7
  70
1
  66
1
  10
0
  20
0
  30
0
  0
VERTEX
  5
ac
  8
Layer_0
  10
657
  20
1630
  42
-0.41421356
  0
VERTEX
  5
ad
  8
Layer_0
  10
651
  20
1636
  0
VERTEX
  5
ae
  8
Layer_0
  10
651
  20
1646
  42
-0.41421356
  0
VERTEX
  5
af
  8
Layer_0
  10
657
  20
1652
  0
VERTEX
  5
b0
  8
Layer_0
  10
657.5
  20
1652
  42
-0.41421356
  0
VERTEX
  5
b1
  8
Layer_0
  10
663.5
  20
1646
  0
VERTEX
  5
b2
  8
Layer_0
  10
663.5
  20
1636
  42
-0.41421356
  0
VERTEX
  5
b3
  8
Layer_0
  10
657.5
  20
1630
  0
SEQEND
  0
POLYLINE
  5
b5
  8
Layer_0
  62
7
  70
1
  66
1
  10
0
  20
0
  30
0
  0
VERTEX
  5
b5
  8
Layer_0
  10
50.500027
  20
1542
  42
-0.41421356
  0
VERTEX
  5
b6
  8
Layer_0
  10
45.000027
  20
1547.5
  0
VERTEX
  5
b7
  8
Layer_0
  10
45.000027
  20
1556.5
  42
-0.41421356
  0
VERTEX
  5
b8
  8
Layer_0
  10
50.500027
  20
1562
  0
VERTEX
  5
b9
  8
Layer_0
  10
51.500027
  20
1562
  42
-0.41421356
  0
VERTEX
  5
ba
  8
Layer_0
  10
57.000027
  20
1556.5
  0
VERTEX
  5
bb
  8
Layer_0
  10
57.000027
  20
1547.5
  42
-0.41421356
  0
VERTEX
  5
bc
  8
Layer_0
  10
51.500027
  20
1542
  0
SEQEND
  0
POLYLINE
  5
be
  8
Layer_0
  62
7
  70
1
  66
1
  10
0
  20
0
  30
0
  0
VERTEX
  5
be
  8
Layer_0
  10
50.5
  20
959
  42
-0.41421356
  0
VERTEX
  5
bf
  8
Layer_0
  10
45
  20
964.5
  0
VERTEX
  5
c0
  8
Layer_0
  10
45
  20
973.5
  42
-0.41421356
  0
VERTEX
  5
c1
  8
Layer_0
  10
50.5
  20
979
  0
VERTEX
  5
c2
  8
Layer_0
  10
51.5
  20
979
  42
-0.41421356
  0
VERTEX
  5
c3
  8
Layer_0
  10
57
  20
973.5
  0
VERTEX
  5
c4
  8
Layer_0
  10
57
  20
964.5
  42
-0.41421356
  0
VERTEX
  5
c5
  8
Layer_0
  10
51.5
  20
959
  0
SEQEND
  0
POLYLINE
  5
c7
  8
Layer_0
  62
7
  70
1
  66
1
  10
0
  20
0
  30
0
  0
VERTEX
  5
c7
  8
Layer_0
  10
50.499973
  20
376
  42
-0.41421356
  0
VERTEX
  5
c8
  8
Layer_0
  10
44.999973
  20
381.5
  0
VERTEX
  5
c9
  8
Layer_0
  10
44.999973
  20
390.5
  42
-0.41421356
  0
VERTEX
  5
ca
  8
Layer_0
  10
50.499973
  20
396
  0
VERTEX
  5
cb
  8
Layer_0
  10
51.499973
  20
396
  42
-0.41421356
  0
VERTEX
  5
cc
  8
Layer_0
  10
56.999973
  20
390.5
  0
VERTEX
  5
cd
  8
Layer_0
  10
56.999973
  20
381.5
  42
-0.41421356
  0
VERTEX
  5
ce
  8
Layer_0
  10
51.499973
  20
376
  0
SEQEND
  0
POLYLINE
  5
d0
  8
Layer_0
  62
7
  70
1
  66
1
  10
0
  20
0
  30
0
  0
VERTEX
  5
d0
  8
Layer_0
  10
162.50003
  20
1542
  42
-0.41421356
  0
VERTEX
  5
d1
  8
Layer_0
  10
157.00003
  20
1547.5
  0
VERTEX
  5
d2
  8
Layer_0
  10
157.00003
  20
1556.5
  42
-0.41421356
  0
VERTEX
  5
d3
  8
Layer_0
  10
162.50003
  20
1562
  0
VERTEX
  5
d4
  8
Layer_0
  10
163.50003
  20
1562
  42
-0.41421356
  0
VERTEX
  5
d5
  8
Layer_0
  10
169.00003
  20
1556.5
  0
VERTEX
  5
d6
  8
Layer_0
  10
169.00003
  20
1547.5
  42
-0.41421356
  0
VERTEX
  5
d7
  8
Layer_0
  10
163.50003
  20
1542
  0
SEQEND
  0
POLYLINE
  5
d9
  8
Layer_0
  62
7
  70
1
  66
1
  10
0
  20
0
  30
0
  0
VERTEX
  5
d9
  8
Layer_0
  10
162.5
  20
959
  42
-0.41421356
  0
VERTEX
  5
da
  8
Layer_0
  10
157
  20
964.5
  0
VERTEX
  5
db
  8
Layer_0
  10
157
  20
973.5
  42
-0.41421356
  0
VERTEX
  5
dc
  8
Layer_0
  10
162.5
  20
979
  0
VERTEX
  5
dd
  8
Layer_0
  10
163.5
  20
979
  42
-0.41421356
  0
VERTEX
  5
de
  8
Layer_0
  10
169
  20
973.5
  0
VERTEX
  5
df
  8
Layer_0
  10
169
  20
964.5
  42
-0.41421356
  0
VERTEX
  5
e0
  8
Layer_0
  10
163.5
  20
959
  0
SEQEND
  0
POLYLINE
  5
e2
  8
Layer_0
  62
7
  70
1
  66
1
  10
0
  20
0
  30
0
  0
VERTEX
  5
e2
  8
Layer_0
  10
162.49997
  20
376
  42
-0.41421356
  0
VERTEX
  5
e3
  8
Layer_0
  10
156.99997
  20
381.5
  0
VERTEX
  5
e4
  8
Layer_0
  10
156.99997
  20
390.5
  42
-0.41421356
  0
VERTEX
  5
e5
  8
Layer_0
  10
162.49997
  20
396
  0
VERTEX
  5
e6
  8
Layer_0
  10
163.49997
  20
396
  42
-0.41421356
  0
VERTEX
  5
e7
  8
Layer_0
  10
168.99997
  20
390.5
  0
VERTEX
  5
e8
  8
Layer_0
  10
168.99997
  20
381.5
  42
-0.41421356
  0
VERTEX
  5
e9
  8
Layer_0
  10
163.49997
  20
376
  0
SEQEND
  0
POLYLINE
  5
eb
  8
Layer_0
  62
7
  70
1
  66
1
  10
0
  20
0
  30
0
  0
VERTEX
  5
eb
  8
Layer_0
  10
440
  20
864
  42
-0.41421356
  0
VERTEX
  5
ec
  8
Layer_0
  10
445
  20
869
  0
VERTEX
  5
ed
  8
Layer_0
  10
497
  20
869
  42
-0.41421356
  0
VERTEX
  5
ee
  8
Layer_0
  10
502
  20
864
  0
VERTEX
  5
ef
  8
Layer_0
  10
502
  20
864
  42
-0.41421356
  0
VERTEX
  5
f0
  8
Layer_0
  10
497
  20
859
  0
VERTEX
  5
f1
  8
Layer_0
  10
445
  20
859
  42
-0.41421356
  0
VERTEX
  5
f2
  8
Layer_0
  10
440
  20
864
  0
SEQEND
  0
POLYLINE
  5
f4
  8
Layer_0
  62
7
  70
1
  66
1
  10
0
  20
0
  30
0
  0
VERTEX
  5
f4
  8
Layer_0
  10
479.35364
  20
115.96558
  42
0.41421356
  0
VERTEX
  5
f5
  8
Layer_0
  10
476.45151
  20
107.99202
  0
VERTEX
  5
f6
  8
Layer_0
  10
478.56461
  20
103.46049
  42
0.41421356
  0
VERTEX
  5
f7
  8
Layer_0
  10
486.53815
  20
100.55835
  0
VERTEX
  5
f8
  8
Layer_0
  10
486.53815
  20
100.55835
  42
0.41421356
  0
VERTEX
  5
f9
  8
Layer_0
  10
489.44028
  20
108.53191
  0
VERTEX
  5
fa
  8
Layer_0
  10
487.32718
  20
113.06344
  42
0.41421356
  0
VERTEX
  5
fb
  8
Layer_0
  10
479.35364
  20
115.96558
  0
SEQEND
  0
POLYLINE
  5
fd
  8
Layer_0
  62
7
  70
1
  66
1
  10
0
  20
0
  30
0
  0
VERTEX
  5
fd
  8
Layer_0
  10
433.71088
  20
213.84692
  42
0.41421356
  0
VERTEX
  5
fe
  8
Layer_0
  10
430.80875
  20
205.87337
  0
VERTEX
  5
ff
  8
Layer_0
  10
432.92184
  20
201.34183
  42
0.41421356
  0
VERTEX
  5
100
  8
Layer_0
  10
440.89539
  20
198.4397
  0
VERTEX
  5
101
  8
Layer_0
  10
440.89539
  20
198.4397
  42
0.41421356
  0
VERTEX
  5
102
  8
Layer_0
  10
443.79752
  20
206.41325
  0
VERTEX
  5
103
  8
Layer_0
  10
441.68442
  20
210.94479
  42
0.41421356
  0
VERTEX
  5
104
  8
Layer_0
  10
433.71088
  20
213.84692
  0
SEQEND
  0
POLYLINE
  5
106
  8
Layer_0
  62
7
  70
1
  66
1
  10
0
  20
0
  30
0
  0
VERTEX
  5
106
  8
Layer_0
  10
388.06812
  20
311.72827
  42
0.41421356
  0
VERTEX
  5
107
  8
Layer_0
  10
385.16599
  20
303.75473
  0
VERTEX
  5
108
  8
Layer_0
  10
387.27908
  20
299.22318
  42
0.41421356
  0
VERTEX
  5
109
  8
Layer_0
  10
395.25262
  20
296.32104
  0
VERTEX
  5
10a
  8
Layer_0
  10
395.25262
  20
296.32104
  42
0.41421356
  0
VERTEX
  5
10b
  8
Layer_0
  10
398.15475
  20
304.29459
  0
VERTEX
  5
10c
  8
Layer_0
  10
396.04166
  20
308.82614
  42
0.41421356
  0
VERTEX
  5
10d
  8
Layer_0
  10
388.06812
  20
311.72827
  0
SEQEND
  0
POLYLINE
  5
10f
  8
Layer_0
  62
7
  70
1
  66
1
  10
0
  20
0
  30
0
  0
VERTEX
  5
10f
  8
Layer_0
  10
29.999668
  20
18.000002
  42
0.41421356
  0
VERTEX
  5
110
  8
Layer_0
  10
35.999668
  20
12
  0
VERTEX
  5
111
  8
Layer_0
  10
45.999668
  20
12
  42
0.41421356
  0
VERTEX
  5
112
  8
Layer_0
  10
51.999668
  20
18
  0
VERTEX
  5
113
  8
Layer_0
  10
51.999668
  20
18.499998
  42
0.41421356
  0
VERTEX
  5
114
  8
Layer_0
  10
45.999668
  20
24.5
  0
VERTEX
  5
115
  8
Layer_0
  10
35.999668
  20
24.5
  42
0.41421356
  0
VERTEX
  5
116
  8
Layer_0
  10
29.999668
  20
18.5
  0
SEQEND
  0
POLYLINE
  5
118
  8
Layer_0
  62
7
  70
1
  66
1
  10
0
  20
0
  30
0
  0
VERTEX
  5
118
  8
Layer_0
  10
339.99966
  20
18.000002
  42
0.41421356
  0
VERTEX
  5
119
  8
Layer_0
  10
345.99966
  20
12
  0
VERTEX
  5
11a
  8
Layer_0
  10
355.99966
  20
12
  42
0.41421356
  0
VERTEX
  5
11b
  8
Layer_0
  10
361.99966
  20
18
  0
VERTEX
  5
11c
  8
Layer_0
  10
361.99966
  20
18.499998
  42
0.41421356
  0
VERTEX
  5
11d
  8
Layer_0
  10
355.99966
  20
24.5
  0
VERTEX
  5
11e
  8
Layer_0
  10
345.99966
  20
24.5
  42
0.41421356
  0
VERTEX
  5
11f
  8
Layer_0
  10
339.99966
  20
18.5
  0
SEQEND
  0
POLYLINE
  5
121
  8
Layer_0
  62
7
  70
1
  66
1
  10
0
  20
0
  30
0
  0
VERTEX
  5
121
  8
Layer_0
  10
649.99963
  20
18.000002
  42
0.41421356
  0
VERTEX
  5
122
  8
Layer_0
  10
655.99963
  20
12
  0
VERTEX
  5
123
  8
Layer_0
  10
665.99963
  20
12
  42
0.41421356
  0
VERTEX
  5
124
  8
Layer_0
  10
671.99963
  20
18
  0
VERTEX
  5
125
  8
Layer_0
  10
671.99963
  20
18.499998
  42
0.41421356
  0
VERTEX
  5
126
  8
Layer_0
  10
665.99963
  20
24.5
  0
VERTEX
  5
127
  8
Layer_0
  10
655.99963
  20
24.5
  42
0.41421356
  0
VERTEX
  5
128
  8
Layer_0
  10
649.99963
  20
18.5
  0
SEQEND
  0
CIRCLE
  5
12a
  8
Layer_0
  62
7
  10
69.499939
  20
16.5
  30
0
  40
4.5
  0
CIRCLE
  5
12a
  8
Layer_0
  62
7
  10
61.999969
  20
355
  30
0
  40
4.5
  0
CIRCLE
  5
12a
  8
Layer_0
  62
7
  10
208.99994
  20
355
  30
0
  40
4.5
  0
CIRCLE
  5
12a
  8
Layer_0
  62
7
  10
61.999969
  20
196
  30
0
  40
4.5
  0
CIRCLE
  5
12a
  8
Layer_0
  62
7
  10
208.99994
  20
196
  30
0
  40
4.5
  0
CIRCLE
  5
12a
  8
Layer_0
  62
7
  10
61.999939
  20
37
  30
0
  40
4.5
  0
CIRCLE
  5
12a
  8
Layer_0
  62
7
  10
208.99994
  20
37
  30
0
  40
4.5
  0
ENDSEC
  0
EOF
