  0
SECTION
  2
HEADER
  9
$ACADVER
  1
AC1009
  0
ENDSEC
  0
SECTION
  2
TABLES
  0
TABLE
  2
LAYER
  70
1
  0
LAYER
  2
Layer_0
  70
0
  62
7
  6
CONTINUOUS
  0
ENDTAB
  0
ENDSEC
  0
SECTION
  2
ENTITIES
  0
POLYLINE
  5
90
  8
Layer_0
  62
7
  70
1
  66
1
  10
0
  20
0
  30
0
  0
VERTEX
  5
90
  8
Layer_0
  10
60
  20
70.000099
  0
VERTEX
  5
91
  8
Layer_0
  10
59.999992
  20
30.000107
  0
VERTEX
  5
92
  8
Layer_0
  10
64.999992
  20
30.000107
  0
VERTEX
  5
93
  8
Layer_0
  10
49.999992
  20
0.00010681152
  0
VERTEX
  5
94
  8
Layer_0
  10
34.999992
  20
30.000107
  0
VERTEX
  5
95
  8
Layer_0
  10
39.999992
  20
30.000107
  0
VERTEX
  5
96
  8
Layer_0
  10
40
  20
70.000099
  0
VERTEX
  5
97
  8
Layer_0
  10
-3.9802308e-07
  20
70.000107
  0
VERTEX
  5
98
  8
Layer_0
  10
9.5367432e-06
  20
170.00011
  0
VERTEX
  5
99
  8
Layer_0
  10
1220
  20
169.99998
  0
VERTEX
  5
9a
  8
Layer_0
  10
1220
  20
69.999985
  0
VERTEX
  5
9b
  8
Layer_0
  10
1152
  20
69.999992
  0
VERTEX
  5
9c
  8
Layer_0
  10
1152
  20
29.999985
  0
VERTEX
  5
9d
  8
Layer_0
  10
1157
  20
29.999985
  0
VERTEX
  5
9e
  8
Layer_0
  10
1142
  20
0
  0
VERTEX
  5
9f
  8
Layer_0
  10
1127
  20
30
  0
VERTEX
  5
a0
  8
Layer_0
  10
1132
  20
30
  0
VERTEX
  5
a1
  8
Layer_0
  10
1132
  20
69.999992
  0
VERTEX
  5
a2
  8
Layer_0
  10
970
  20
70.000008
  0
VERTEX
  5
a3
  8
Layer_0
  10
970
  20
30.000015
  0
VERTEX
  5
a4
  8
Layer_0
  10
975
  20
30.000015
  0
VERTEX
  5
a5
  8
Layer_0
  10
960
  20
1.5258789e-05
  0
VERTEX
  5
a6
  8
Layer_0
  10
945
  20
30.000015
  0
VERTEX
  5
a7
  8
Layer_0
  10
950
  20
30.000015
  0
VERTEX
  5
a8
  8
Layer_0
  10
950
  20
70.000015
  0
VERTEX
  5
a9
  8
Layer_0
  10
788
  20
70.000031
  0
VERTEX
  5
aa
  8
Layer_0
  10
788
  20
30.000031
  0
VERTEX
  5
ab
  8
Layer_0
  10
793
  20
30.000031
  0
VERTEX
  5
ac
  8
Layer_0
  10
778
  20
3.0517578e-05
  0
VERTEX
  5
ad
  8
Layer_0
  10
763
  20
30.000031
  0
VERTEX
  5
ae
  8
Layer_0
  10
768
  20
30.000031
  0
VERTEX
  5
af
  8
Layer_0
  10
768
  20
70.000031
  0
VERTEX
  5
b0
  8
Layer_0
  10
606
  20
70.000046
  0
VERTEX
  5
b1
  8
Layer_0
  10
606
  20
30.000046
  0
VERTEX
  5
b2
  8
Layer_0
  10
611
  20
30.000046
  0
VERTEX
  5
b3
  8
Layer_0
  10
596
  20
4.5776367e-05
  0
VERTEX
  5
b4
  8
Layer_0
  10
581
  20
30.000046
  0
VERTEX
  5
b5
  8
Layer_0
  10
586
  20
30.000046
  0
VERTEX
  5
b6
  8
Layer_0
  10
586
  20
70.000046
  0
VERTEX
  5
b7
  8
Layer_0
  10
424
  20
70.000061
  0
VERTEX
  5
b8
  8
Layer_0
  10
424
  20
30.000061
  0
VERTEX
  5
b9
  8
Layer_0
  10
429
  20
30.000061
  0
VERTEX
  5
ba
  8
Layer_0
  10
413.99997
  20
6.1035156e-05
  0
VERTEX
  5
bb
  8
Layer_0
  10
399
  20
30.000061
  0
VERTEX
  5
bc
  8
Layer_0
  10
404
  20
30.000061
  0
VERTEX
  5
bd
  8
Layer_0
  10
404
  20
70.000069
  0
VERTEX
  5
be
  8
Layer_0
  10
242
  20
70.000084
  0
VERTEX
  5
bf
  8
Layer_0
  10
242
  20
30.000076
  0
VERTEX
  5
c0
  8
Layer_0
  10
247
  20
30.000076
  0
VERTEX
  5
c1
  8
Layer_0
  10
232
  20
7.6293945e-05
  0
VERTEX
  5
c2
  8
Layer_0
  10
217
  20
30.000092
  0
VERTEX
  5
c3
  8
Layer_0
  10
222
  20
30.000092
  0
VERTEX
  5
c4
  8
Layer_0
  10
222
  20
70.000084
  0
SEQEND
  0
CIRCLE
  5
c6
  8
Layer_0
  62
7
  10
15.00001
  20
145.00011
  30
0
  40
3
  0
CIRCLE
  5
c6
  8
Layer_0
  62
7
  10
15.00001
  20
95.000107
  30
0
  40
3
  0
CIRCLE
  5
c6
  8
Layer_0
  62
7
  10
1205
  20
145.00011
  30
0
  40
3
  0
CIRCLE
  5
c6
  8
Layer_0
  62
7
  10
1205
  20
95.000107
  30
0
  40
3
  0
ENDSEC
  0
EOF
