  0
SECTION
  2
HEADER
  9
$ACADVER
  1
AC1009
  0
ENDSEC
  0
SECTION
  2
TABLES
  0
TABLE
  2
LAYER
  70
1
  0
LAYER
  2
Layer_0
  70
0
  62
7
  6
CONTINUOUS
  0
ENDTAB
  0
ENDSEC
  0
SECTION
  2
ENTITIES
  0
POLYLINE
  5
90
  8
Layer_0
  62
7
  70
1
  66
1
  10
0
  20
0
  30
0
  0
VERTEX
  5
90
  8
Layer_0
  10
524.998
  20
998.00151
  0
VERTEX
  5
91
  8
Layer_0
  10
524.16532
  20
997.42444
  0
VERTEX
  5
92
  8
Layer_0
  10
523.27108
  20
996.80515
  0
VERTEX
  5
93
  8
Layer_0
  10
522.31805
  20
996.14555
  0
VERTEX
  5
94
  8
Layer_0
  10
521.30902
  20
995.44757
  0
VERTEX
  5
95
  8
Layer_0
  10
520.24675
  20
994.71311
  0
VERTEX
  5
96
  8
Layer_0
  10
519.13405
  20
993.94409
  0
VERTEX
  5
97
  8
Layer_0
  10
517.97367
  20
993.14244
  0
VERTEX
  5
98
  8
Layer_0
  10
516.76842
  20
992.31006
  0
VERTEX
  5
99
  8
Layer_0
  10
515.52106
  20
991.44887
  0
VERTEX
  5
9a
  8
Layer_0
  10
514.23438
  20
990.56079
  0
VERTEX
  5
9b
  8
Layer_0
  10
512.91116
  20
989.64774
  0
VERTEX
  5
9c
  8
Layer_0
  10
511.55418
  20
988.71163
  0
VERTEX
  5
9d
  8
Layer_0
  10
510.16622
  20
987.75438
  0
VERTEX
  5
9e
  8
Layer_0
  10
508.75005
  20
986.7779
  0
VERTEX
  5
9f
  8
Layer_0
  10
507.30848
  20
985.78411
  0
VERTEX
  5
a0
  8
Layer_0
  10
505.84426
  20
984.77493
  0
VERTEX
  5
a1
  8
Layer_0
  10
502.85904
  20
982.71805
  0
VERTEX
  5
a2
  8
Layer_0
  10
499.81664
  20
980.6226
  0
VERTEX
  5
a3
  8
Layer_0
  10
496.7393
  20
978.50391
  0
VERTEX
  5
a4
  8
Layer_0
  10
493.64928
  20
976.3773
  0
VERTEX
  5
a5
  8
Layer_0
  10
490.56881
  20
974.25811
  0
VERTEX
  5
a6
  8
Layer_0
  10
487.52016
  20
972.16167
  0
VERTEX
  5
a7
  8
Layer_0
  10
484.52555
  20
970.10331
  0
VERTEX
  5
a8
  8
Layer_0
  10
481.60724
  20
968.09836
  0
VERTEX
  5
a9
  8
Layer_0
  10
478.38502
  20
965.88498
  0
VERTEX
  5
aa
  8
Layer_0
  10
475.1993
  20
963.69622
  0
VERTEX
  5
ab
  8
Layer_0
  10
472.05094
  20
961.53267
  0
VERTEX
  5
ac
  8
Layer_0
  10
468.94079
  20
959.39493
  0
VERTEX
  5
ad
  8
Layer_0
  10
465.86973
  20
957.28359
  0
VERTEX
  5
ae
  8
Layer_0
  10
462.83863
  20
955.19926
  0
VERTEX
  5
af
  8
Layer_0
  10
459.84834
  20
953.14253
  0
VERTEX
  5
b0
  8
Layer_0
  10
456.89973
  20
951.11399
  0
VERTEX
  5
b1
  8
Layer_0
  10
453.99367
  20
949.11424
  0
VERTEX
  5
b2
  8
Layer_0
  10
451.13102
  20
947.14389
  0
VERTEX
  5
b3
  8
Layer_0
  10
448.31265
  20
945.20352
  0
VERTEX
  5
b4
  8
Layer_0
  10
445.53942
  20
943.29373
  0
VERTEX
  5
b5
  8
Layer_0
  10
442.8122
  20
941.41512
  0
VERTEX
  5
b6
  8
Layer_0
  10
440.13185
  20
939.56828
  0
VERTEX
  5
b7
  8
Layer_0
  10
437.49924
  20
937.75382
  0
VERTEX
  5
b8
  8
Layer_0
  10
434.91523
  20
935.97232
  0
VERTEX
  5
b9
  8
Layer_0
  10
432.38069
  20
934.22439
  0
VERTEX
  5
ba
  8
Layer_0
  10
429.89648
  20
932.51063
  0
VERTEX
  5
bb
  8
Layer_0
  10
427.46347
  20
930.83162
  0
VERTEX
  5
bc
  8
Layer_0
  10
425.08253
  20
929.18796
  0
VERTEX
  5
bd
  8
Layer_0
  10
422.75451
  20
927.58026
  0
VERTEX
  5
be
  8
Layer_0
  10
420.48029
  20
926.0091
  0
VERTEX
  5
bf
  8
Layer_0
  10
418.26072
  20
924.47509
  0
VERTEX
  5
c0
  8
Layer_0
  10
416.09668
  20
922.97882
  0
VERTEX
  5
c1
  8
Layer_0
  10
413.98903
  20
921.52089
  0
VERTEX
  5
c2
  8
Layer_0
  10
411.93864
  20
920.10189
  0
VERTEX
  5
c3
  8
Layer_0
  10
409.94636
  20
918.72242
  0
VERTEX
  5
c4
  8
Layer_0
  10
408.01307
  20
917.38308
  0
VERTEX
  5
c5
  8
Layer_0
  10
406.13963
  20
916.08446
  0
VERTEX
  5
c6
  8
Layer_0
  10
404.3269
  20
914.82717
  0
VERTEX
  5
c7
  8
Layer_0
  10
402.57576
  20
913.61179
  0
VERTEX
  5
c8
  8
Layer_0
  10
400.88705
  20
912.43892
  42
-0.00092162431
  0
VERTEX
  5
c9
  8
Layer_0
  10
366.47504
  20
888.64294
  42
0.0010419952
  0
VERTEX
  5
ca
  8
Layer_0
  10
330.85022
  20
863.99377
  0
VERTEX
  5
cb
  8
Layer_0
  10
330.45535
  20
863.71922
  0
VERTEX
  5
cc
  8
Layer_0
  10
330.0315
  20
863.42471
  0
VERTEX
  5
cd
  8
Layer_0
  10
329.57918
  20
863.11057
  0
VERTEX
  5
ce
  8
Layer_0
  10
329.0989
  20
862.77717
  0
VERTEX
  5
cf
  8
Layer_0
  10
328.59116
  20
862.42484
  0
VERTEX
  5
d0
  8
Layer_0
  10
328.05646
  20
862.05393
  0
VERTEX
  5
d1
  8
Layer_0
  10
327.4953
  20
861.6648
  0
VERTEX
  5
d2
  8
Layer_0
  10
326.90819
  20
861.25779
  0
VERTEX
  5
d3
  8
Layer_0
  10
326.29562
  20
860.83324
  0
VERTEX
  5
d4
  8
Layer_0
  10
325.65811
  20
860.39151
  0
VERTEX
  5
d5
  8
Layer_0
  10
324.99615
  20
859.93294
  0
VERTEX
  5
d6
  8
Layer_0
  10
324.31025
  20
859.45787
  0
VERTEX
  5
d7
  8
Layer_0
  10
323.60091
  20
858.96666
  0
VERTEX
  5
d8
  8
Layer_0
  10
322.86863
  20
858.45966
  0
VERTEX
  5
d9
  8
Layer_0
  10
322.11391
  20
857.9372
  0
VERTEX
  5
da
  8
Layer_0
  10
321.33726
  20
857.39964
  0
VERTEX
  5
db
  8
Layer_0
  10
319.72017
  20
856.28061
  0
VERTEX
  5
dc
  8
Layer_0
  10
318.02138
  20
855.10533
  0
VERTEX
  5
dd
  8
Layer_0
  10
316.2449
  20
853.87658
  0
VERTEX
  5
de
  8
Layer_0
  10
314.39476
  20
852.59715
  0
VERTEX
  5
df
  8
Layer_0
  10
312.47499
  20
851.2698
  0
VERTEX
  5
e0
  8
Layer_0
  10
310.48959
  20
849.89733
  0
VERTEX
  5
e1
  8
Layer_0
  10
308.44259
  20
848.48251
  0
VERTEX
  5
e2
  8
Layer_0
  10
306.33801
  20
847.02811
  0
VERTEX
  5
e3
  8
Layer_0
  10
304.17987
  20
845.53691
  0
VERTEX
  5
e4
  8
Layer_0
  10
301.97219
  20
844.0117
  0
VERTEX
  5
e5
  8
Layer_0
  10
299.719
  20
842.45525
  0
VERTEX
  5
e6
  8
Layer_0
  10
297.42431
  20
840.87034
  0
VERTEX
  5
e7
  8
Layer_0
  10
295.09214
  20
839.25974
  0
VERTEX
  5
e8
  8
Layer_0
  10
292.72651
  20
837.62624
  0
VERTEX
  5
e9
  8
Layer_0
  10
290.33145
  20
835.97262
  0
VERTEX
  5
ea
  8
Layer_0
  10
287.91097
  20
834.30165
  0
VERTEX
  5
eb
  8
Layer_0
  10
283.00985
  20
830.91877
  0
VERTEX
  5
ec
  8
Layer_0
  10
278.05532
  20
827.49984
  0
VERTEX
  5
ed
  8
Layer_0
  10
273.07953
  20
824.06708
  0
VERTEX
  5
ee
  8
Layer_0
  10
268.11465
  20
820.64273
  0
VERTEX
  5
ef
  8
Layer_0
  10
265.65225
  20
818.93964
  0
VERTEX
  5
f0
  8
Layer_0
  10
263.21589
  20
817.24476
  0
VERTEX
  5
f1
  8
Layer_0
  10
260.80877
  20
815.56054
  0
VERTEX
  5
f2
  8
Layer_0
  10
258.43408
  20
813.88944
  0
VERTEX
  5
f3
  8
Layer_0
  10
256.09505
  20
812.23389
  0
VERTEX
  5
f4
  8
Layer_0
  10
253.79487
  20
810.59637
  0
VERTEX
  5
f5
  8
Layer_0
  10
251.53674
  20
808.97932
  0
VERTEX
  5
f6
  8
Layer_0
  10
249.32387
  20
807.38518
  0
VERTEX
  5
f7
  8
Layer_0
  10
247.15946
  20
805.81643
  0
VERTEX
  5
f8
  8
Layer_0
  10
245.04671
  20
804.27549
  0
VERTEX
  5
f9
  8
Layer_0
  10
242.98884
  20
802.76484
  0
VERTEX
  5
fa
  8
Layer_0
  10
240.98904
  20
801.28692
  0
VERTEX
  5
fb
  8
Layer_0
  10
239.05052
  20
799.84417
  0
VERTEX
  5
fc
  8
Layer_0
  10
237.17649
  20
798.43907
  0
VERTEX
  5
fd
  8
Layer_0
  10
235.37013
  20
797.07405
  0
VERTEX
  5
fe
  8
Layer_0
  10
233.63467
  20
795.75157
  0
VERTEX
  5
ff
  8
Layer_0
  10
231.9733
  20
794.47408
  0
VERTEX
  5
100
  8
Layer_0
  10
230.38923
  20
793.24404
  0
VERTEX
  5
101
  8
Layer_0
  10
228.88565
  20
792.06389
  0
VERTEX
  5
102
  8
Layer_0
  10
227.46579
  20
790.9361
  0
VERTEX
  5
103
  8
Layer_0
  10
226.78825
  20
790.39259
  0
VERTEX
  5
104
  8
Layer_0
  10
226.13283
  20
789.8631
  0
VERTEX
  5
105
  8
Layer_0
  10
225.49994
  20
789.34792
  0
VERTEX
  5
106
  8
Layer_0
  10
224.88999
  20
788.84735
  0
VERTEX
  5
107
  8
Layer_0
  10
224.30336
  20
788.36172
  0
VERTEX
  5
108
  8
Layer_0
  10
223.74046
  20
787.89131
  0
VERTEX
  5
109
  8
Layer_0
  10
223.20169
  20
787.43645
  0
VERTEX
  5
10a
  8
Layer_0
  10
222.68745
  20
786.99743
  0
VERTEX
  5
10b
  8
Layer_0
  10
222.19814
  20
786.57457
  0
VERTEX
  5
10c
  8
Layer_0
  10
221.73416
  20
786.16816
  0
VERTEX
  5
10d
  8
Layer_0
  10
221.29592
  20
785.77852
  0
VERTEX
  5
10e
  8
Layer_0
  10
220.88381
  20
785.40595
  0
VERTEX
  5
10f
  8
Layer_0
  10
220.49823
  20
785.05076
  0
VERTEX
  5
110
  8
Layer_0
  10
220.13958
  20
784.71325
  0
VERTEX
  5
111
  8
Layer_0
  10
219.80827
  20
784.39374
  0
VERTEX
  5
112
  8
Layer_0
  10
219.5047
  20
784.09252
  0
VERTEX
  5
113
  8
Layer_0
  10
219.22926
  20
783.80991
  0
VERTEX
  5
114
  8
Layer_0
  10
218.98235
  20
783.54621
  0
VERTEX
  5
115
  8
Layer_0
  10
218.76438
  20
783.30173
  0
VERTEX
  5
116
  8
Layer_0
  10
218.57575
  20
783.07677
  0
VERTEX
  5
117
  8
Layer_0
  10
218.41685
  20
782.87164
  0
VERTEX
  5
118
  8
Layer_0
  10
218.28809
  20
782.68665
  0
VERTEX
  5
119
  8
Layer_0
  10
218.18987
  20
782.5221
  0
VERTEX
  5
11a
  8
Layer_0
  10
218.12258
  20
782.37831
  0
VERTEX
  5
11b
  8
Layer_0
  10
218.07098
  20
782.22722
  0
VERTEX
  5
11c
  8
Layer_0
  10
218.01957
  20
782.04091
  0
VERTEX
  5
11d
  8
Layer_0
  10
217.96837
  20
781.81986
  0
VERTEX
  5
11e
  8
Layer_0
  10
217.91738
  20
781.56456
  0
VERTEX
  5
11f
  8
Layer_0
  10
217.86663
  20
781.2755
  0
VERTEX
  5
120
  8
Layer_0
  10
217.81614
  20
780.95315
  0
VERTEX
  5
121
  8
Layer_0
  10
217.76593
  20
780.59801
  0
VERTEX
  5
122
  8
Layer_0
  10
217.716
  20
780.21055
  0
VERTEX
  5
123
  8
Layer_0
  10
217.66639
  20
779.79127
  0
VERTEX
  5
124
  8
Layer_0
  10
217.6171
  20
779.34064
  0
VERTEX
  5
125
  8
Layer_0
  10
217.56816
  20
778.85915
  0
VERTEX
  5
126
  8
Layer_0
  10
217.51958
  20
778.34729
  0
VERTEX
  5
127
  8
Layer_0
  10
217.47138
  20
777.80553
  0
VERTEX
  5
128
  8
Layer_0
  10
217.42358
  20
777.23438
  0
VERTEX
  5
129
  8
Layer_0
  10
217.37619
  20
776.63429
  0
VERTEX
  5
12a
  8
Layer_0
  10
217.32923
  20
776.00578
  0
VERTEX
  5
12b
  8
Layer_0
  10
217.28273
  20
775.34931
  0
VERTEX
  5
12c
  8
Layer_0
  10
217.23669
  20
774.66537
  0
VERTEX
  5
12d
  8
Layer_0
  10
217.19114
  20
773.95445
  0
VERTEX
  5
12e
  8
Layer_0
  10
217.14609
  20
773.21703
  0
VERTEX
  5
12f
  8
Layer_0
  10
217.10156
  20
772.4536
  0
VERTEX
  5
130
  8
Layer_0
  10
217.05756
  20
771.66464
  0
VERTEX
  5
131
  8
Layer_0
  10
217.01413
  20
770.85063
  0
VERTEX
  5
132
  8
Layer_0
  10
216.97127
  20
770.01207
  0
VERTEX
  5
133
  8
Layer_0
  10
216.88733
  20
768.26319
  0
VERTEX
  5
134
  8
Layer_0
  10
216.8059
  20
766.42189
  0
VERTEX
  5
135
  8
Layer_0
  10
216.72711
  20
764.49204
  0
VERTEX
  5
136
  8
Layer_0
  10
216.6511
  20
762.47751
  0
VERTEX
  5
137
  8
Layer_0
  10
216.57803
  20
760.38218
  0
VERTEX
  5
138
  8
Layer_0
  10
216.50801
  20
758.20993
  0
VERTEX
  5
139
  8
Layer_0
  10
216.44121
  20
755.96464
  0
VERTEX
  5
13a
  8
Layer_0
  10
216.37775
  20
753.65018
  0
VERTEX
  5
13b
  8
Layer_0
  10
216.31777
  20
751.27043
  0
VERTEX
  5
13c
  8
Layer_0
  10
216.26143
  20
748.82926
  0
VERTEX
  5
13d
  8
Layer_0
  10
216.20885
  20
746.33055
  0
VERTEX
  5
13e
  8
Layer_0
  10
216.16019
  20
743.77817
  0
VERTEX
  5
13f
  8
Layer_0
  10
216.11557
  20
741.17601
  0
VERTEX
  5
140
  8
Layer_0
  10
216.07515
  20
738.52794
  0
VERTEX
  5
141
  8
Layer_0
  10
216.03905
  20
735.83784
  0
VERTEX
  5
142
  8
Layer_0
  10
216.00743
  20
733.10957
  0
VERTEX
  5
143
  8
Layer_0
  10
215.98042
  20
730.34702
  0
VERTEX
  5
144
  8
Layer_0
  10
215.95816
  20
727.55407
  0
VERTEX
  5
145
  8
Layer_0
  10
215.9408
  20
724.73459
  0
VERTEX
  5
146
  8
Layer_0
  10
215.92847
  20
721.89246
  0
VERTEX
  5
147
  8
Layer_0
  10
215.9208
  20
719.53749
  0
VERTEX
  5
148
  8
Layer_0
  10
215.91423
  20
717.24895
  0
VERTEX
  5
149
  8
Layer_0
  10
215.90887
  20
715.02574
  0
VERTEX
  5
14a
  8
Layer_0
  10
215.90482
  20
712.86678
  0
VERTEX
  5
14b
  8
Layer_0
  10
215.9022
  20
710.771
  0
VERTEX
  5
14c
  8
Layer_0
  10
215.90113
  20
708.73731
  0
VERTEX
  5
14d
  8
Layer_0
  10
215.9017
  20
706.76462
  0
VERTEX
  5
14e
  8
Layer_0
  10
215.90403
  20
704.85187
  0
VERTEX
  5
14f
  8
Layer_0
  10
215.90823
  20
702.99796
  0
VERTEX
  5
150
  8
Layer_0
  10
215.91442
  20
701.20182
  0
VERTEX
  5
151
  8
Layer_0
  10
215.92269
  20
699.46237
  0
VERTEX
  5
152
  8
Layer_0
  10
215.93317
  20
697.77851
  0
VERTEX
  5
153
  8
Layer_0
  10
215.94596
  20
696.14918
  0
VERTEX
  5
154
  8
Layer_0
  10
215.96117
  20
694.57329
  0
VERTEX
  5
155
  8
Layer_0
  10
215.97892
  20
693.04976
  0
VERTEX
  5
156
  8
Layer_0
  10
215.99932
  20
691.5775
  0
VERTEX
  5
157
  8
Layer_0
  10
216.02246
  20
690.15544
  0
VERTEX
  5
158
  8
Layer_0
  10
216.04848
  20
688.7825
  0
VERTEX
  5
159
  8
Layer_0
  10
216.07747
  20
687.45758
  0
VERTEX
  5
15a
  8
Layer_0
  10
216.10955
  20
686.17962
  0
VERTEX
  5
15b
  8
Layer_0
  10
216.14482
  20
684.94753
  0
VERTEX
  5
15c
  8
Layer_0
  10
216.18341
  20
683.76023
  0
VERTEX
  5
15d
  8
Layer_0
  10
216.22541
  20
682.61664
  0
VERTEX
  5
15e
  8
Layer_0
  10
216.27094
  20
681.51567
  0
VERTEX
  5
15f
  8
Layer_0
  10
216.32011
  20
680.45625
  0
VERTEX
  5
160
  8
Layer_0
  10
216.37304
  20
679.4373
  0
VERTEX
  5
161
  8
Layer_0
  10
216.42982
  20
678.45772
  0
VERTEX
  5
162
  8
Layer_0
  10
216.49057
  20
677.51644
  0
VERTEX
  5
163
  8
Layer_0
  10
216.55541
  20
676.61239
  0
VERTEX
  5
164
  8
Layer_0
  10
216.62444
  20
675.74447
  0
VERTEX
  5
165
  8
Layer_0
  10
216.69778
  20
674.91161
  0
VERTEX
  5
166
  8
Layer_0
  10
216.77552
  20
674.11272
  0
VERTEX
  5
167
  8
Layer_0
  10
216.8578
  20
673.34673
  0
VERTEX
  5
168
  8
Layer_0
  10
216.9447
  20
672.61255
  0
VERTEX
  5
169
  8
Layer_0
  10
217.03636
  20
671.9091
  0
VERTEX
  5
16a
  8
Layer_0
  10
217.13287
  20
671.2353
  0
VERTEX
  5
16b
  8
Layer_0
  10
217.23434
  20
670.59007
  0
VERTEX
  5
16c
  8
Layer_0
  10
217.3409
  20
669.97233
  0
VERTEX
  5
16d
  8
Layer_0
  10
217.45264
  20
669.38099
  0
VERTEX
  5
16e
  8
Layer_0
  10
217.56968
  20
668.81497
  0
VERTEX
  5
16f
  8
Layer_0
  10
217.8201
  20
667.75459
  0
VERTEX
  5
170
  8
Layer_0
  10
218.09304
  20
666.78253
  0
VERTEX
  5
171
  8
Layer_0
  10
218.38939
  20
665.89013
  0
VERTEX
  5
172
  8
Layer_0
  10
218.71003
  20
665.06876
  0
VERTEX
  5
173
  8
Layer_0
  10
219.05584
  20
664.30975
  0
VERTEX
  5
174
  8
Layer_0
  10
219.42771
  20
663.60445
  0
VERTEX
  5
175
  8
Layer_0
  10
219.82653
  20
662.94422
  0
VERTEX
  5
176
  8
Layer_0
  10
220.25318
  20
662.3204
  0
VERTEX
  5
177
  8
Layer_0
  10
220.70854
  20
661.72434
  0
VERTEX
  5
178
  8
Layer_0
  10
221.1935
  20
661.1474
  0
VERTEX
  5
179
  8
Layer_0
  10
221.70894
  20
660.58091
  0
VERTEX
  5
17a
  8
Layer_0
  10
222.25576
  20
660.01623
  0
VERTEX
  5
17b
  8
Layer_0
  10
223.04958
  20
659.25044
  0
VERTEX
  5
17c
  8
Layer_0
  10
223.86016
  20
658.53435
  0
VERTEX
  5
17d
  8
Layer_0
  10
224.68686
  20
657.86796
  0
VERTEX
  5
17e
  8
Layer_0
  10
225.52906
  20
657.25126
  0
VERTEX
  5
17f
  8
Layer_0
  10
226.38614
  20
656.68425
  0
VERTEX
  5
180
  8
Layer_0
  10
227.25747
  20
656.16693
  0
VERTEX
  5
181
  8
Layer_0
  10
228.14244
  20
655.6993
  0
VERTEX
  5
182
  8
Layer_0
  10
229.04042
  20
655.28135
  0
VERTEX
  5
183
  8
Layer_0
  10
229.95079
  20
654.91309
  0
VERTEX
  5
184
  8
Layer_0
  10
230.87293
  20
654.5945
  0
VERTEX
  5
185
  8
Layer_0
  10
231.8062
  20
654.32558
  0
VERTEX
  5
186
  8
Layer_0
  10
232.75
  20
654.10634
  0
VERTEX
  5
187
  8
Layer_0
  10
233.7037
  20
653.93677
  0
VERTEX
  5
188
  8
Layer_0
  10
234.66667
  20
653.81687
  0
VERTEX
  5
189
  8
Layer_0
  10
235.63829
  20
653.74663
  0
VERTEX
  5
18a
  8
Layer_0
  10
236.61794
  20
653.72606
  0
VERTEX
  5
18b
  8
Layer_0
  10
237.605
  20
653.75514
  0
VERTEX
  5
18c
  8
Layer_0
  10
238.59885
  20
653.83388
  0
VERTEX
  5
18d
  8
Layer_0
  10
239.59885
  20
653.96227
  0
VERTEX
  5
18e
  8
Layer_0
  10
240.60439
  20
654.14032
  0
VERTEX
  5
18f
  8
Layer_0
  10
241.61485
  20
654.36801
  0
VERTEX
  5
190
  8
Layer_0
  10
242.6296
  20
654.64535
  0
VERTEX
  5
191
  8
Layer_0
  10
243.64803
  20
654.97233
  0
VERTEX
  5
192
  8
Layer_0
  10
244.6695
  20
655.34896
  0
VERTEX
  5
193
  8
Layer_0
  10
245.69339
  20
655.77522
  0
VERTEX
  5
194
  8
Layer_0
  10
246.71909
  20
656.25111
  0
VERTEX
  5
195
  8
Layer_0
  10
247.74597
  20
656.77664
  0
VERTEX
  5
196
  8
Layer_0
  10
248.77341
  20
657.3518
  0
VERTEX
  5
197
  8
Layer_0
  10
249.80078
  20
657.97658
  0
VERTEX
  5
198
  8
Layer_0
  10
250.82746
  20
658.65099
  0
VERTEX
  5
199
  8
Layer_0
  10
251.85283
  20
659.37502
  0
VERTEX
  5
19a
  8
Layer_0
  10
252.87627
  20
660.14866
  0
VERTEX
  5
19b
  8
Layer_0
  10
253.65928
  20
660.76203
  0
VERTEX
  5
19c
  8
Layer_0
  10
254.39354
  20
661.34665
  0
VERTEX
  5
19d
  8
Layer_0
  10
255.08068
  20
661.91249
  0
VERTEX
  5
19e
  8
Layer_0
  10
255.72232
  20
662.46948
  0
VERTEX
  5
19f
  8
Layer_0
  10
256.32009
  20
663.02759
  0
VERTEX
  5
1a0
  8
Layer_0
  10
256.87562
  20
663.59676
  0
VERTEX
  5
1a1
  8
Layer_0
  10
257.39052
  20
664.18696
  0
VERTEX
  5
1a2
  8
Layer_0
  10
257.86644
  20
664.80812
  0
VERTEX
  5
1a3
  8
Layer_0
  10
258.30498
  20
665.47021
  0
VERTEX
  5
1a4
  8
Layer_0
  10
258.70778
  20
666.18317
  0
VERTEX
  5
1a5
  8
Layer_0
  10
259.07647
  20
666.95696
  0
VERTEX
  5
1a6
  8
Layer_0
  10
259.41266
  20
667.80154
  0
VERTEX
  5
1a7
  8
Layer_0
  10
259.71799
  20
668.72684
  0
VERTEX
  5
1a8
  8
Layer_0
  10
259.99408
  20
669.74283
  0
VERTEX
  5
1a9
  8
Layer_0
  10
260.12167
  20
670.28794
  0
VERTEX
  5
1aa
  8
Layer_0
  10
260.24256
  20
670.85946
  0
VERTEX
  5
1ab
  8
Layer_0
  10
260.35695
  20
671.45862
  0
VERTEX
  5
1ac
  8
Layer_0
  10
260.46504
  20
672.08667
  0
VERTEX
  5
1ad
  8
Layer_0
  10
260.56705
  20
672.74486
  0
VERTEX
  5
1ae
  8
Layer_0
  10
260.66317
  20
673.43443
  0
VERTEX
  5
1af
  8
Layer_0
  10
260.7536
  20
674.15663
  0
VERTEX
  5
1b0
  8
Layer_0
  10
260.83855
  20
674.91269
  0
VERTEX
  5
1b1
  8
Layer_0
  10
260.91823
  20
675.70386
  0
VERTEX
  5
1b2
  8
Layer_0
  10
260.99283
  20
676.53139
  0
VERTEX
  5
1b3
  8
Layer_0
  10
261.06256
  20
677.39652
  0
VERTEX
  5
1b4
  8
Layer_0
  10
261.12762
  20
678.30049
  0
VERTEX
  5
1b5
  8
Layer_0
  10
261.18822
  20
679.24455
  0
VERTEX
  5
1b6
  8
Layer_0
  10
261.24455
  20
680.22994
  0
VERTEX
  5
1b7
  8
Layer_0
  10
261.29682
  20
681.25791
  0
VERTEX
  5
1b8
  8
Layer_0
  10
261.34524
  20
682.32969
  0
VERTEX
  5
1b9
  8
Layer_0
  10
261.39001
  20
683.44654
  0
VERTEX
  5
1ba
  8
Layer_0
  10
261.43133
  20
684.6097
  0
VERTEX
  5
1bb
  8
Layer_0
  10
261.4694
  20
685.82042
  0
VERTEX
  5
1bc
  8
Layer_0
  10
261.50443
  20
687.07992
  0
VERTEX
  5
1bd
  8
Layer_0
  10
261.53662
  20
688.38947
  0
VERTEX
  5
1be
  8
Layer_0
  10
261.56618
  20
689.7503
  0
VERTEX
  5
1bf
  8
Layer_0
  10
261.5933
  20
691.16367
  0
VERTEX
  5
1c0
  8
Layer_0
  10
261.61819
  20
692.6308
  0
VERTEX
  5
1c1
  8
Layer_0
  10
261.64106
  20
694.15295
  0
VERTEX
  5
1c2
  8
Layer_0
  10
261.6621
  20
695.73136
  0
VERTEX
  5
1c3
  8
Layer_0
  10
261.68152
  20
697.36727
  0
VERTEX
  5
1c4
  8
Layer_0
  10
261.69953
  20
699.06193
  0
VERTEX
  5
1c5
  8
Layer_0
  10
261.71632
  20
700.81659
  0
VERTEX
  5
1c6
  8
Layer_0
  10
261.7321
  20
702.63248
  0
VERTEX
  5
1c7
  8
Layer_0
  10
261.74707
  20
704.51085
  0
VERTEX
  5
1c8
  8
Layer_0
  10
261.76144
  20
706.45295
  0
VERTEX
  5
1c9
  8
Layer_0
  10
261.77541
  20
708.46002
  0
VERTEX
  5
1ca
  8
Layer_0
  10
261.78918
  20
710.5333
  0
VERTEX
  5
1cb
  8
Layer_0
  10
261.80296
  20
712.67403
  0
VERTEX
  5
1cc
  8
Layer_0
  10
261.81694
  20
714.88347
  0
VERTEX
  5
1cd
  8
Layer_0
  10
262.11975
  20
762.87146
  0
VERTEX
  5
1ce
  8
Layer_0
  10
272.63031
  20
769.57813
  0
VERTEX
  5
1cf
  8
Layer_0
  10
273.32144
  20
770.02136
  0
VERTEX
  5
1d0
  8
Layer_0
  10
274.09149
  20
770.51938
  0
VERTEX
  5
1d1
  8
Layer_0
  10
274.93829
  20
771.07072
  0
VERTEX
  5
1d2
  8
Layer_0
  10
275.85966
  20
771.67386
  0
VERTEX
  5
1d3
  8
Layer_0
  10
276.85341
  20
772.32732
  0
VERTEX
  5
1d4
  8
Layer_0
  10
277.91735
  20
773.02961
  0
VERTEX
  5
1d5
  8
Layer_0
  10
279.04928
  20
773.77921
  0
VERTEX
  5
1d6
  8
Layer_0
  10
280.24702
  20
774.57465
  0
VERTEX
  5
1d7
  8
Layer_0
  10
281.50837
  20
775.41442
  0
VERTEX
  5
1d8
  8
Layer_0
  10
282.83114
  20
776.29703
  0
VERTEX
  5
1d9
  8
Layer_0
  10
284.21315
  20
777.22098
  0
VERTEX
  5
1da
  8
Layer_0
  10
285.65219
  20
778.18477
  0
VERTEX
  5
1db
  8
Layer_0
  10
287.14608
  20
779.18692
  0
VERTEX
  5
1dc
  8
Layer_0
  10
288.69264
  20
780.22592
  0
VERTEX
  5
1dd
  8
Layer_0
  10
290.28965
  20
781.30028
  0
VERTEX
  5
1de
  8
Layer_0
  10
291.93495
  20
782.40851
  0
VERTEX
  5
1df
  8
Layer_0
  10
293.62633
  20
783.5491
  0
VERTEX
  5
1e0
  8
Layer_0
  10
295.3616
  20
784.72056
  0
VERTEX
  5
1e1
  8
Layer_0
  10
297.13857
  20
785.9214
  0
VERTEX
  5
1e2
  8
Layer_0
  10
298.95506
  20
787.15012
  0
VERTEX
  5
1e3
  8
Layer_0
  10
300.80887
  20
788.40522
  0
VERTEX
  5
1e4
  8
Layer_0
  10
302.69781
  20
789.68521
  0
VERTEX
  5
1e5
  8
Layer_0
  10
304.61968
  20
790.9886
  0
VERTEX
  5
1e6
  8
Layer_0
  10
306.57231
  20
792.31388
  0
VERTEX
  5
1e7
  8
Layer_0
  10
308.55349
  20
793.65956
  0
VERTEX
  5
1e8
  8
Layer_0
  10
310.56103
  20
795.02415
  0
VERTEX
  5
1e9
  8
Layer_0
  10
312.59275
  20
796.40615
  0
VERTEX
  5
1ea
  8
Layer_0
  10
314.64646
  20
797.80406
  0
VERTEX
  5
1eb
  8
Layer_0
  10
318.81105
  20
800.64165
  0
VERTEX
  5
1ec
  8
Layer_0
  10
323.03728
  20
803.52494
  0
VERTEX
  5
1ed
  8
Layer_0
  10
331.60456
  20
809.38079
  0
VERTEX
  5
1ee
  8
Layer_0
  10
340.20806
  20
815.27587
  0
VERTEX
  5
1ef
  8
Layer_0
  10
344.47957
  20
818.20821
  0
VERTEX
  5
1f0
  8
Layer_0
  10
348.70755
  20
821.11446
  0
VERTEX
  5
1f1
  8
Layer_0
  10
352.87448
  20
823.98266
  0
VERTEX
  5
1f2
  8
Layer_0
  10
356.96282
  20
826.80083
  0
VERTEX
  5
1f3
  8
Layer_0
  10
358.97204
  20
828.18743
  0
VERTEX
  5
1f4
  8
Layer_0
  10
360.95504
  20
829.55702
  0
VERTEX
  5
1f5
  8
Layer_0
  10
362.90963
  20
830.90813
  0
VERTEX
  5
1f6
  8
Layer_0
  10
364.83362
  20
832.23926
  0
VERTEX
  5
1f7
  8
Layer_0
  10
366.72482
  20
833.54891
  0
VERTEX
  5
1f8
  8
Layer_0
  10
368.58103
  20
834.83558
  0
VERTEX
  5
1f9
  8
Layer_0
  10
370.40007
  20
836.09778
  0
VERTEX
  5
1fa
  8
Layer_0
  10
372.17974
  20
837.33401
  0
VERTEX
  5
1fb
  8
Layer_0
  10
373.91786
  20
838.54278
  0
VERTEX
  5
1fc
  8
Layer_0
  10
375.61222
  20
839.72259
  0
VERTEX
  5
1fd
  8
Layer_0
  10
377.26065
  20
840.87195
  0
VERTEX
  5
1fe
  8
Layer_0
  10
378.86095
  20
841.98935
  0
VERTEX
  5
1ff
  8
Layer_0
  10
380.41093
  20
843.07332
  0
VERTEX
  5
200
  8
Layer_0
  10
381.90839
  20
844.12234
  0
VERTEX
  5
201
  8
Layer_0
  10
383.35115
  20
845.13492
  0
VERTEX
  5
202
  8
Layer_0
  10
384.73702
  20
846.10957
  42
-0.0049124853
  0
VERTEX
  5
203
  8
Layer_0
  10
428.9809
  20
876.64209
  0
VERTEX
  5
204
  8
Layer_0
  10
430.09203
  20
877.39284
  0
VERTEX
  5
205
  8
Layer_0
  10
431.22731
  20
878.16114
  0
VERTEX
  5
206
  8
Layer_0
  10
432.38437
  20
878.94537
  0
VERTEX
  5
207
  8
Layer_0
  10
433.56091
  20
879.74397
  0
VERTEX
  5
208
  8
Layer_0
  10
435.96317
  20
881.37786
  0
VERTEX
  5
209
  8
Layer_0
  10
438.41561
  20
883.05009
  0
VERTEX
  5
20a
  8
Layer_0
  10
443.3971
  20
886.4586
  0
VERTEX
  5
20b
  8
Layer_0
  10
448.35752
  20
889.86766
  0
VERTEX
  5
20c
  8
Layer_0
  10
450.78362
  20
891.54056
  0
VERTEX
  5
20d
  8
Layer_0
  10
453.149
  20
893.17542
  0
VERTEX
  5
20e
  8
Layer_0
  10
454.30315
  20
893.97459
  0
VERTEX
  5
20f
  8
Layer_0
  10
455.43518
  20
894.75948
  0
VERTEX
  5
210
  8
Layer_0
  10
456.5428
  20
895.52849
  0
VERTEX
  5
211
  8
Layer_0
  10
457.62368
  20
896.28003
  0
VERTEX
  5
212
  8
Layer_0
  10
458.67553
  20
897.01251
  0
VERTEX
  5
213
  8
Layer_0
  10
459.69602
  20
897.72433
  0
VERTEX
  5
214
  8
Layer_0
  10
460.68285
  20
898.41391
  0
VERTEX
  5
215
  8
Layer_0
  10
461.63371
  20
899.07965
  0
VERTEX
  5
216
  8
Layer_0
  10
462.54629
  20
899.71996
  0
VERTEX
  5
217
  8
Layer_0
  10
463.41827
  20
900.33326
  0
VERTEX
  5
218
  8
Layer_0
  10
464.24735
  20
900.91794
  0
VERTEX
  5
219
  8
Layer_0
  10
465.03122
  20
901.47243
  0
VERTEX
  5
21a
  8
Layer_0
  10
465.42263
  20
901.74939
  0
VERTEX
  5
21b
  8
Layer_0
  10
465.83609
  20
902.0412
  0
VERTEX
  5
21c
  8
Layer_0
  10
466.27118
  20
902.3476
  0
VERTEX
  5
21d
  8
Layer_0
  10
466.72748
  20
902.66828
  0
VERTEX
  5
21e
  8
Layer_0
  10
467.70206
  20
903.35136
  0
VERTEX
  5
21f
  8
Layer_0
  10
468.75649
  20
904.08816
  0
VERTEX
  5
220
  8
Layer_0
  10
469.88743
  20
904.87638
  0
VERTEX
  5
221
  8
Layer_0
  10
471.09153
  20
905.71374
  0
VERTEX
  5
222
  8
Layer_0
  10
472.36546
  20
906.59794
  0
VERTEX
  5
223
  8
Layer_0
  10
473.70589
  20
907.52669
  0
VERTEX
  5
224
  8
Layer_0
  10
475.10946
  20
908.4977
  0
VERTEX
  5
225
  8
Layer_0
  10
476.57284
  20
909.50869
  0
VERTEX
  5
226
  8
Layer_0
  10
478.09269
  20
910.55734
  0
VERTEX
  5
227
  8
Layer_0
  10
479.66568
  20
911.64139
  0
VERTEX
  5
228
  8
Layer_0
  10
481.28845
  20
912.75853
  0
VERTEX
  5
229
  8
Layer_0
  10
482.95768
  20
913.90647
  0
VERTEX
  5
22a
  8
Layer_0
  10
484.67002
  20
915.08292
  0
VERTEX
  5
22b
  8
Layer_0
  10
486.42214
  20
916.2856
  0
VERTEX
  5
22c
  8
Layer_0
  10
488.21069
  20
917.51221
  0
VERTEX
  5
22d
  8
Layer_0
  10
490.03233
  20
918.76045
  0
VERTEX
  5
22e
  8
Layer_0
  10
491.88373
  20
920.02804
  0
VERTEX
  5
22f
  8
Layer_0
  10
493.76154
  20
921.31269
  0
VERTEX
  5
230
  8
Layer_0
  10
497.58305
  20
923.92399
  0
VERTEX
  5
231
  8
Layer_0
  10
501.47015
  20
926.57602
  0
VERTEX
  5
232
  8
Layer_0
  10
509.33425
  20
931.92895
  0
VERTEX
  5
233
  8
Layer_0
  10
517.1401
  20
937.22483
  0
VERTEX
  5
234
  8
Layer_0
  10
554.50018
  20
962.52649
  0
VERTEX
  5
235
  8
Layer_0
  10
574.27124
  20
949.0011
  0
VERTEX
  5
236
  8
Layer_0
  10
574.80793
  20
948.63345
  0
VERTEX
  5
237
  8
Layer_0
  10
575.39795
  20
948.22809
  0
VERTEX
  5
238
  8
Layer_0
  10
576.04047
  20
947.78569
  0
VERTEX
  5
239
  8
Layer_0
  10
576.73463
  20
947.30684
  0
VERTEX
  5
23a
  8
Layer_0
  10
577.47957
  20
946.79215
  0
VERTEX
  5
23b
  8
Layer_0
  10
578.27446
  20
946.24221
  0
VERTEX
  5
23c
  8
Layer_0
  10
579.11842
  20
945.65761
  0
VERTEX
  5
23d
  8
Layer_0
  10
580.01062
  20
945.03896
  0
VERTEX
  5
23e
  8
Layer_0
  10
580.95019
  20
944.38685
  0
VERTEX
  5
23f
  8
Layer_0
  10
581.93629
  20
943.70188
  0
VERTEX
  5
240
  8
Layer_0
  10
582.96807
  20
942.98464
  0
VERTEX
  5
241
  8
Layer_0
  10
584.04467
  20
942.23574
  0
VERTEX
  5
242
  8
Layer_0
  10
585.16524
  20
941.45576
  0
VERTEX
  5
243
  8
Layer_0
  10
586.32893
  20
940.64532
  0
VERTEX
  5
244
  8
Layer_0
  10
587.53488
  20
939.80499
  0
VERTEX
  5
245
  8
Layer_0
  10
588.78225
  20
938.93539
  0
VERTEX
  5
246
  8
Layer_0
  10
590.07018
  20
938.0371
  0
VERTEX
  5
247
  8
Layer_0
  10
591.39782
  20
937.11073
  0
VERTEX
  5
248
  8
Layer_0
  10
592.76431
  20
936.15688
  0
VERTEX
  5
249
  8
Layer_0
  10
594.16881
  20
935.17613
  0
VERTEX
  5
24a
  8
Layer_0
  10
595.61046
  20
934.16908
  0
VERTEX
  5
24b
  8
Layer_0
  10
597.08841
  20
933.13635
  0
VERTEX
  5
24c
  8
Layer_0
  10
598.60182
  20
932.07851
  0
VERTEX
  5
24d
  8
Layer_0
  10
600.14981
  20
930.99617
  0
VERTEX
  5
24e
  8
Layer_0
  10
601.73155
  20
929.88992
  0
VERTEX
  5
24f
  8
Layer_0
  10
603.34618
  20
928.76037
  0
VERTEX
  5
250
  8
Layer_0
  10
604.99285
  20
927.6081
  0
VERTEX
  5
251
  8
Layer_0
  10
606.67071
  20
926.43372
  0
VERTEX
  5
252
  8
Layer_0
  10
608.3789
  20
925.23783
  0
VERTEX
  5
253
  8
Layer_0
  10
610.11658
  20
924.02101
  0
VERTEX
  5
254
  8
Layer_0
  10
611.88288
  20
922.78387
  0
VERTEX
  5
255
  8
Layer_0
  10
613.67696
  20
921.52701
  0
VERTEX
  5
256
  8
Layer_0
  10
615.49797
  20
920.25102
  0
VERTEX
  5
257
  8
Layer_0
  10
617.34505
  20
918.9565
  0
VERTEX
  5
258
  8
Layer_0
  10
619.21736
  20
917.64404
  0
VERTEX
  5
259
  8
Layer_0
  10
621.11403
  20
916.31424
  0
VERTEX
  5
25a
  8
Layer_0
  10
623.03422
  20
914.96771
  0
VERTEX
  5
25b
  8
Layer_0
  10
624.97707
  20
913.60503
  0
VERTEX
  5
25c
  8
Layer_0
  10
626.94174
  20
912.22681
  0
VERTEX
  5
25d
  8
Layer_0
  10
628.92737
  20
910.83364
  0
VERTEX
  5
25e
  8
Layer_0
  10
632.95809
  20
908.00483
  0
VERTEX
  5
25f
  8
Layer_0
  10
637.06243
  20
905.1234
  0
VERTEX
  5
260
  8
Layer_0
  10
641.23357
  20
902.19412
  0
VERTEX
  5
261
  8
Layer_0
  10
645.46469
  20
899.22176
  0
VERTEX
  5
262
  8
Layer_0
  10
649.74896
  20
896.2111
  0
VERTEX
  5
263
  8
Layer_0
  10
654.07958
  20
893.16692
  0
VERTEX
  5
264
  8
Layer_0
  10
658.44973
  20
890.09399
  0
VERTEX
  5
265
  8
Layer_0
  10
662.85258
  20
886.99709
  0
VERTEX
  5
266
  8
Layer_0
  10
671.72914
  20
880.7505
  0
VERTEX
  5
267
  8
Layer_0
  10
680.65471
  20
874.46536
  0
VERTEX
  5
268
  8
Layer_0
  10
689.60015
  20
868.1664
  0
VERTEX
  5
269
  8
Layer_0
  10
698.53498
  20
861.87927
  0
VERTEX
  5
26a
  8
Layer_0
  10
702.98075
  20
858.75252
  0
VERTEX
  5
26b
  8
Layer_0
  10
707.40268
  20
855.64356
  0
VERTEX
  5
26c
  8
Layer_0
  10
711.79371
  20
852.55736
  0
VERTEX
  5
26d
  8
Layer_0
  10
716.14677
  20
849.49884
  0
VERTEX
  5
26e
  8
Layer_0
  10
720.45479
  20
846.47298
  0
VERTEX
  5
26f
  8
Layer_0
  10
724.71072
  20
843.4847
  0
VERTEX
  5
270
  8
Layer_0
  10
728.90749
  20
840.53896
  0
VERTEX
  5
271
  8
Layer_0
  10
733.03804
  20
837.6407
  0
VERTEX
  5
272
  8
Layer_0
  10
737.09531
  20
834.79488
  0
VERTEX
  5
273
  8
Layer_0
  10
741.07222
  20
832.00644
  0
VERTEX
  5
274
  8
Layer_0
  10
743.02834
  20
830.63528
  0
VERTEX
  5
275
  8
Layer_0
  10
744.96173
  20
829.28033
  0
VERTEX
  5
276
  8
Layer_0
  10
746.8715
  20
827.94219
  0
VERTEX
  5
277
  8
Layer_0
  10
748.75676
  20
826.62149
  0
VERTEX
  5
278
  8
Layer_0
  10
750.61665
  20
825.31884
  0
VERTEX
  5
279
  8
Layer_0
  10
752.45026
  20
824.03487
  0
VERTEX
  5
27a
  8
Layer_0
  10
754.25673
  20
822.7702
  0
VERTEX
  5
27b
  8
Layer_0
  10
756.03516
  20
821.52543
  0
VERTEX
  5
27c
  8
Layer_0
  10
757.78467
  20
820.30119
  0
VERTEX
  5
27d
  8
Layer_0
  10
759.50439
  20
819.0981
  0
VERTEX
  5
27e
  8
Layer_0
  10
761.19343
  20
817.91678
  0
VERTEX
  5
27f
  8
Layer_0
  10
762.8509
  20
816.75784
  0
VERTEX
  5
280
  8
Layer_0
  10
764.47593
  20
815.6219
  0
VERTEX
  5
281
  8
Layer_0
  10
766.06762
  20
814.50959
  0
VERTEX
  5
282
  8
Layer_0
  10
767.6251
  20
813.42151
  0
VERTEX
  5
283
  8
Layer_0
  10
769.14749
  20
812.35829
  0
VERTEX
  5
284
  8
Layer_0
  10
770.6339
  20
811.32055
  0
VERTEX
  5
285
  8
Layer_0
  10
772.08344
  20
810.30891
  0
VERTEX
  5
286
  8
Layer_0
  10
773.49524
  20
809.32398
  0
VERTEX
  5
287
  8
Layer_0
  10
774.86842
  20
808.36638
  0
VERTEX
  5
288
  8
Layer_0
  10
776.20208
  20
807.43673
  0
VERTEX
  5
289
  8
Layer_0
  10
777.49535
  20
806.53565
  0
VERTEX
  5
28a
  8
Layer_0
  10
778.74734
  20
805.66376
  0
VERTEX
  5
28b
  8
Layer_0
  10
779.95718
  20
804.82167
  0
VERTEX
  5
28c
  8
Layer_0
  10
781.12397
  20
804.01001
  0
VERTEX
  5
28d
  8
Layer_0
  10
782.24684
  20
803.22939
  0
VERTEX
  5
28e
  8
Layer_0
  10
783.3249
  20
802.48043
  0
VERTEX
  5
28f
  8
Layer_0
  10
784.35727
  20
801.76376
  0
VERTEX
  5
290
  8
Layer_0
  10
785.34307
  20
801.07998
  0
VERTEX
  5
291
  8
Layer_0
  10
786.28141
  20
800.42971
  0
VERTEX
  5
292
  8
Layer_0
  10
787.17141
  20
799.81358
  0
VERTEX
  5
293
  8
Layer_0
  10
788.01219
  20
799.2322
  0
VERTEX
  5
294
  8
Layer_0
  10
788.80287
  20
798.6862
  0
VERTEX
  5
295
  8
Layer_0
  10
789.54255
  20
798.17619
  0
VERTEX
  5
296
  8
Layer_0
  10
790.23037
  20
797.70278
  0
VERTEX
  5
297
  8
Layer_0
  10
790.86543
  20
797.2666
  0
VERTEX
  5
298
  8
Layer_0
  10
814.46375
  20
781.07813
  0
VERTEX
  5
299
  8
Layer_0
  10
814.17078
  20
695.51929
  0
VERTEX
  5
29a
  8
Layer_0
  10
814.16435
  20
693.62117
  0
VERTEX
  5
29b
  8
Layer_0
  10
814.15814
  20
691.75113
  0
VERTEX
  5
29c
  8
Layer_0
  10
814.15216
  20
689.90898
  0
VERTEX
  5
29d
  8
Layer_0
  10
814.14644
  20
688.09446
  0
VERTEX
  5
29e
  8
Layer_0
  10
814.14099
  20
686.30737
  0
VERTEX
  5
29f
  8
Layer_0
  10
814.13582
  20
684.54748
  0
VERTEX
  5
2a0
  8
Layer_0
  10
814.13096
  20
682.81456
  0
VERTEX
  5
2a1
  8
Layer_0
  10
814.12641
  20
681.10838
  0
VERTEX
  5
2a2
  8
Layer_0
  10
814.1222
  20
679.42873
  0
VERTEX
  5
2a3
  8
Layer_0
  10
814.11833
  20
677.77537
  0
VERTEX
  5
2a4
  8
Layer_0
  10
814.11483
  20
676.14808
  0
VERTEX
  5
2a5
  8
Layer_0
  10
814.1117
  20
674.54663
  0
VERTEX
  5
2a6
  8
Layer_0
  10
814.10897
  20
672.9708
  0
VERTEX
  5
2a7
  8
Layer_0
  10
814.10665
  20
671.42036
  0
VERTEX
  5
2a8
  8
Layer_0
  10
814.10475
  20
669.8951
  0
VERTEX
  5
2a9
  8
Layer_0
  10
814.1033
  20
668.39477
  0
VERTEX
  5
2aa
  8
Layer_0
  10
814.10177
  20
665.46804
  0
VERTEX
  5
2ab
  8
Layer_0
  10
814.10218
  20
662.63838
  0
VERTEX
  5
2ac
  8
Layer_0
  10
814.10467
  20
659.90397
  0
VERTEX
  5
2ad
  8
Layer_0
  10
814.10935
  20
657.26302
  0
VERTEX
  5
2ae
  8
Layer_0
  10
814.11635
  20
654.71373
  0
VERTEX
  5
2af
  8
Layer_0
  10
814.12579
  20
652.25428
  0
VERTEX
  5
2b0
  8
Layer_0
  10
814.13779
  20
649.88288
  0
VERTEX
  5
2b1
  8
Layer_0
  10
814.15248
  20
647.59772
  0
VERTEX
  5
2b2
  8
Layer_0
  10
814.16998
  20
645.397
  0
VERTEX
  5
2b3
  8
Layer_0
  10
814.19042
  20
643.27891
  0
VERTEX
  5
2b4
  8
Layer_0
  10
814.21391
  20
641.24166
  0
VERTEX
  5
2b5
  8
Layer_0
  10
814.24059
  20
639.28343
  0
VERTEX
  5
2b6
  8
Layer_0
  10
814.27057
  20
637.40243
  0
VERTEX
  5
2b7
  8
Layer_0
  10
814.30398
  20
635.59685
  0
VERTEX
  5
2b8
  8
Layer_0
  10
814.34094
  20
633.86489
  0
VERTEX
  5
2b9
  8
Layer_0
  10
814.38157
  20
632.20474
  0
VERTEX
  5
2ba
  8
Layer_0
  10
814.42601
  20
630.6146
  0
VERTEX
  5
2bb
  8
Layer_0
  10
814.47437
  20
629.09267
  0
VERTEX
  5
2bc
  8
Layer_0
  10
814.52677
  20
627.63714
  0
VERTEX
  5
2bd
  8
Layer_0
  10
814.58335
  20
626.24621
  0
VERTEX
  5
2be
  8
Layer_0
  10
814.64421
  20
624.91808
  0
VERTEX
  5
2bf
  8
Layer_0
  10
814.7095
  20
623.65094
  0
VERTEX
  5
2c0
  8
Layer_0
  10
814.77932
  20
622.44299
  0
VERTEX
  5
2c1
  8
Layer_0
  10
814.85381
  20
621.29242
  0
VERTEX
  5
2c2
  8
Layer_0
  10
814.93308
  20
620.19744
  0
VERTEX
  5
2c3
  8
Layer_0
  10
815.01727
  20
619.15624
  0
VERTEX
  5
2c4
  8
Layer_0
  10
815.10648
  20
618.16701
  0
VERTEX
  5
2c5
  8
Layer_0
  10
815.20086
  20
617.22796
  0
VERTEX
  5
2c6
  8
Layer_0
  10
815.30052
  20
616.33727
  0
VERTEX
  5
2c7
  8
Layer_0
  10
815.40558
  20
615.49314
  0
VERTEX
  5
2c8
  8
Layer_0
  10
815.51617
  20
614.69378
  0
VERTEX
  5
2c9
  8
Layer_0
  10
815.63241
  20
613.93738
  0
VERTEX
  5
2ca
  8
Layer_0
  10
815.75443
  20
613.22213
  0
VERTEX
  5
2cb
  8
Layer_0
  10
815.88234
  20
612.54623
  0
VERTEX
  5
2cc
  8
Layer_0
  10
816.01628
  20
611.90787
  0
VERTEX
  5
2cd
  8
Layer_0
  10
816.15636
  20
611.30527
  0
VERTEX
  5
2ce
  8
Layer_0
  10
816.30271
  20
610.7366
  0
VERTEX
  5
2cf
  8
Layer_0
  10
816.45545
  20
610.20006
  0
VERTEX
  5
2d0
  8
Layer_0
  10
816.61471
  20
609.69386
  0
VERTEX
  5
2d1
  8
Layer_0
  10
816.78061
  20
609.21619
  0
VERTEX
  5
2d2
  8
Layer_0
  10
817.13282
  20
608.33923
  0
VERTEX
  5
2d3
  8
Layer_0
  10
817.51307
  20
607.55474
  0
VERTEX
  5
2d4
  8
Layer_0
  10
817.92235
  20
606.84829
  0
VERTEX
  5
2d5
  8
Layer_0
  10
818.36164
  20
606.20547
  0
VERTEX
  5
2d6
  8
Layer_0
  10
818.83194
  20
605.61184
  0
VERTEX
  5
2d7
  8
Layer_0
  10
819.33423
  20
605.05296
  0
VERTEX
  5
2d8
  8
Layer_0
  10
819.86949
  20
604.51443
  0
VERTEX
  5
2d9
  8
Layer_0
  10
820.43873
  20
603.9818
  0
VERTEX
  5
2da
  8
Layer_0
  10
821.33034
  20
603.21465
  0
VERTEX
  5
2db
  8
Layer_0
  10
822.26066
  20
602.50098
  0
VERTEX
  5
2dc
  8
Layer_0
  10
823.22676
  20
601.84068
  0
VERTEX
  5
2dd
  8
Layer_0
  10
824.22569
  20
601.23362
  0
VERTEX
  5
2de
  8
Layer_0
  10
825.25452
  20
600.67969
  0
VERTEX
  5
2df
  8
Layer_0
  10
826.31031
  20
600.17876
  0
VERTEX
  5
2e0
  8
Layer_0
  10
827.39013
  20
599.7307
  0
VERTEX
  5
2e1
  8
Layer_0
  10
828.49104
  20
599.3354
  0
VERTEX
  5
2e2
  8
Layer_0
  10
829.61011
  20
598.99274
  0
VERTEX
  5
2e3
  8
Layer_0
  10
830.7444
  20
598.70259
  0
VERTEX
  5
2e4
  8
Layer_0
  10
831.89097
  20
598.46483
  0
VERTEX
  5
2e5
  8
Layer_0
  10
833.04689
  20
598.27934
  0
VERTEX
  5
2e6
  8
Layer_0
  10
834.20922
  20
598.146
  0
VERTEX
  5
2e7
  8
Layer_0
  10
835.37502
  20
598.06469
  0
VERTEX
  5
2e8
  8
Layer_0
  10
836.54136
  20
598.03528
  0
VERTEX
  5
2e9
  8
Layer_0
  10
837.70531
  20
598.05765
  0
VERTEX
  5
2ea
  8
Layer_0
  10
838.86392
  20
598.13168
  0
VERTEX
  5
2eb
  8
Layer_0
  10
840.01426
  20
598.25725
  0
VERTEX
  5
2ec
  8
Layer_0
  10
841.1534
  20
598.43424
  0
VERTEX
  5
2ed
  8
Layer_0
  10
842.27839
  20
598.66252
  0
VERTEX
  5
2ee
  8
Layer_0
  10
843.38631
  20
598.94197
  0
VERTEX
  5
2ef
  8
Layer_0
  10
844.47421
  20
599.27248
  0
VERTEX
  5
2f0
  8
Layer_0
  10
845.53917
  20
599.65391
  0
VERTEX
  5
2f1
  8
Layer_0
  10
846.57823
  20
600.08615
  0
VERTEX
  5
2f2
  8
Layer_0
  10
847.58848
  20
600.56908
  0
VERTEX
  5
2f3
  8
Layer_0
  10
848.56696
  20
601.10257
  0
VERTEX
  5
2f4
  8
Layer_0
  10
849.51075
  20
601.68651
  0
VERTEX
  5
2f5
  8
Layer_0
  10
850.41692
  20
602.32076
  0
VERTEX
  5
2f6
  8
Layer_0
  10
851.28251
  20
603.00521
  0
VERTEX
  5
2f7
  8
Layer_0
  10
852.1046
  20
603.73974
  0
VERTEX
  5
2f8
  8
Layer_0
  10
852.88026
  20
604.52422
  0
VERTEX
  5
2f9
  8
Layer_0
  10
853.60653
  20
605.35854
  0
VERTEX
  5
2fa
  8
Layer_0
  10
854.11321
  20
606.00368
  0
VERTEX
  5
2fb
  8
Layer_0
  10
854.59123
  20
606.66959
  0
VERTEX
  5
2fc
  8
Layer_0
  10
855.04147
  20
607.36989
  0
VERTEX
  5
2fd
  8
Layer_0
  10
855.46483
  20
608.11819
  0
VERTEX
  5
2fe
  8
Layer_0
  10
855.86217
  20
608.9281
  0
VERTEX
  5
2ff
  8
Layer_0
  10
856.23437
  20
609.81322
  0
VERTEX
  5
300
  8
Layer_0
  10
856.41133
  20
610.28824
  0
VERTEX
  5
301
  8
Layer_0
  10
856.58233
  20
610.78717
  0
VERTEX
  5
302
  8
Layer_0
  10
856.74748
  20
611.31171
  0
VERTEX
  5
303
  8
Layer_0
  10
856.90691
  20
611.86356
  0
VERTEX
  5
304
  8
Layer_0
  10
857.06071
  20
612.44442
  0
VERTEX
  5
305
  8
Layer_0
  10
857.209
  20
613.05599
  0
VERTEX
  5
306
  8
Layer_0
  10
857.35188
  20
613.69998
  0
VERTEX
  5
307
  8
Layer_0
  10
857.48947
  20
614.37809
  0
VERTEX
  5
308
  8
Layer_0
  10
857.62188
  20
615.09201
  0
VERTEX
  5
309
  8
Layer_0
  10
857.74921
  20
615.84345
  0
VERTEX
  5
30a
  8
Layer_0
  10
857.87159
  20
616.63411
  0
VERTEX
  5
30b
  8
Layer_0
  10
857.9891
  20
617.4657
  0
VERTEX
  5
30c
  8
Layer_0
  10
858.10188
  20
618.3399
  0
VERTEX
  5
30d
  8
Layer_0
  10
858.21002
  20
619.25843
  0
VERTEX
  5
30e
  8
Layer_0
  10
858.31364
  20
620.22298
  0
VERTEX
  5
30f
  8
Layer_0
  10
858.41285
  20
621.23526
  0
VERTEX
  5
310
  8
Layer_0
  10
858.50775
  20
622.29697
  0
VERTEX
  5
311
  8
Layer_0
  10
858.59846
  20
623.40981
  0
VERTEX
  5
312
  8
Layer_0
  10
858.68509
  20
624.57547
  0
VERTEX
  5
313
  8
Layer_0
  10
858.76774
  20
625.79567
  0
VERTEX
  5
314
  8
Layer_0
  10
858.84654
  20
627.0721
  0
VERTEX
  5
315
  8
Layer_0
  10
858.92157
  20
628.40646
  0
VERTEX
  5
316
  8
Layer_0
  10
858.99297
  20
629.80046
  0
VERTEX
  5
317
  8
Layer_0
  10
859.06083
  20
631.2558
  0
VERTEX
  5
318
  8
Layer_0
  10
859.12527
  20
632.77417
  0
VERTEX
  5
319
  8
Layer_0
  10
859.1864
  20
634.35729
  0
VERTEX
  5
31a
  8
Layer_0
  10
859.24432
  20
636.00684
  0
VERTEX
  5
31b
  8
Layer_0
  10
859.29915
  20
637.72454
  0
VERTEX
  5
31c
  8
Layer_0
  10
859.351
  20
639.51208
  0
VERTEX
  5
31d
  8
Layer_0
  10
859.39998
  20
641.37116
  0
VERTEX
  5
31e
  8
Layer_0
  10
859.44619
  20
643.30349
  0
VERTEX
  5
31f
  8
Layer_0
  10
859.48975
  20
645.31076
  0
VERTEX
  5
320
  8
Layer_0
  10
859.53077
  20
647.39468
  0
VERTEX
  5
321
  8
Layer_0
  10
859.56935
  20
649.55696
  0
VERTEX
  5
322
  8
Layer_0
  10
859.60561
  20
651.79928
  0
VERTEX
  5
323
  8
Layer_0
  10
859.63966
  20
654.12336
  0
VERTEX
  5
324
  8
Layer_0
  10
859.67161
  20
656.53089
  0
VERTEX
  5
325
  8
Layer_0
  10
859.70156
  20
659.02357
  0
VERTEX
  5
326
  8
Layer_0
  10
859.72963
  20
661.60311
  0
VERTEX
  5
327
  8
Layer_0
  10
859.75593
  20
664.27121
  0
VERTEX
  5
328
  8
Layer_0
  10
859.78057
  20
667.02956
  0
VERTEX
  5
329
  8
Layer_0
  10
859.80365
  20
669.87988
  0
VERTEX
  5
32a
  8
Layer_0
  10
859.82529
  20
672.82385
  0
VERTEX
  5
32b
  8
Layer_0
  10
859.8456
  20
675.86319
  0
VERTEX
  5
32c
  8
Layer_0
  10
859.86468
  20
678.99959
  0
VERTEX
  5
32d
  8
Layer_0
  10
859.88265
  20
682.23476
  0
VERTEX
  5
32e
  8
Layer_0
  10
859.89126
  20
683.88991
  0
VERTEX
  5
32f
  8
Layer_0
  10
859.89962
  20
685.57039
  0
VERTEX
  5
330
  8
Layer_0
  10
859.90776
  20
687.27641
  0
VERTEX
  5
331
  8
Layer_0
  10
859.9157
  20
689.00819
  0
VERTEX
  5
332
  8
Layer_0
  10
859.92344
  20
690.76594
  0
VERTEX
  5
333
  8
Layer_0
  10
859.93099
  20
692.54986
  0
VERTEX
  5
334
  8
Layer_0
  10
859.93838
  20
694.36018
  0
VERTEX
  5
335
  8
Layer_0
  10
859.94561
  20
696.1971
  0
VERTEX
  5
336
  8
Layer_0
  10
859.95271
  20
698.06084
  0
VERTEX
  5
337
  8
Layer_0
  10
859.95967
  20
699.95161
  0
VERTEX
  5
338
  8
Layer_0
  10
859.96653
  20
701.86962
  0
VERTEX
  5
339
  8
Layer_0
  10
859.97328
  20
703.81509
  0
VERTEX
  5
33a
  8
Layer_0
  10
859.98134
  20
706.44618
  0
VERTEX
  5
33b
  8
Layer_0
  10
859.98741
  20
709.04917
  0
VERTEX
  5
33c
  8
Layer_0
  10
859.99149
  20
711.62375
  0
VERTEX
  5
33d
  8
Layer_0
  10
859.99361
  20
714.1696
  0
VERTEX
  5
33e
  8
Layer_0
  10
859.99376
  20
716.6864
  0
VERTEX
  5
33f
  8
Layer_0
  10
859.99197
  20
719.17384
  0
VERTEX
  5
340
  8
Layer_0
  10
859.98823
  20
721.63159
  0
VERTEX
  5
341
  8
Layer_0
  10
859.98256
  20
724.05936
  0
VERTEX
  5
342
  8
Layer_0
  10
859.97497
  20
726.45681
  0
VERTEX
  5
343
  8
Layer_0
  10
859.96547
  20
728.82363
  0
VERTEX
  5
344
  8
Layer_0
  10
859.95406
  20
731.1595
  0
VERTEX
  5
345
  8
Layer_0
  10
859.94077
  20
733.46411
  0
VERTEX
  5
346
  8
Layer_0
  10
859.92559
  20
735.73714
  0
VERTEX
  5
347
  8
Layer_0
  10
859.90855
  20
737.97828
  0
VERTEX
  5
348
  8
Layer_0
  10
859.88964
  20
740.1872
  0
VERTEX
  5
349
  8
Layer_0
  10
859.86887
  20
742.36359
  0
VERTEX
  5
34a
  8
Layer_0
  10
859.84627
  20
744.50714
  0
VERTEX
  5
34b
  8
Layer_0
  10
859.82183
  20
746.61752
  0
VERTEX
  5
34c
  8
Layer_0
  10
859.79558
  20
748.69442
  0
VERTEX
  5
34d
  8
Layer_0
  10
859.7675
  20
750.73753
  0
VERTEX
  5
34e
  8
Layer_0
  10
859.73763
  20
752.74652
  0
VERTEX
  5
34f
  8
Layer_0
  10
859.70597
  20
754.72108
  0
VERTEX
  5
350
  8
Layer_0
  10
859.67252
  20
756.6609
  0
VERTEX
  5
351
  8
Layer_0
  10
859.6373
  20
758.56565
  0
VERTEX
  5
352
  8
Layer_0
  10
859.60031
  20
760.43502
  0
VERTEX
  5
353
  8
Layer_0
  10
859.56158
  20
762.2687
  0
VERTEX
  5
354
  8
Layer_0
  10
859.5211
  20
764.06636
  0
VERTEX
  5
355
  8
Layer_0
  10
859.47889
  20
765.82769
  0
VERTEX
  5
356
  8
Layer_0
  10
859.43495
  20
767.55238
  0
VERTEX
  5
357
  8
Layer_0
  10
859.3893
  20
769.2401
  0
VERTEX
  5
358
  8
Layer_0
  10
859.34195
  20
770.89054
  0
VERTEX
  5
359
  8
Layer_0
  10
859.29291
  20
772.50339
  0
VERTEX
  5
35a
  8
Layer_0
  10
859.24218
  20
774.07832
  0
VERTEX
  5
35b
  8
Layer_0
  10
859.18978
  20
775.61502
  0
VERTEX
  5
35c
  8
Layer_0
  10
859.13571
  20
777.11318
  0
VERTEX
  5
35d
  8
Layer_0
  10
859.07999
  20
778.57247
  0
VERTEX
  5
35e
  8
Layer_0
  10
859.02263
  20
779.99258
  0
VERTEX
  5
35f
  8
Layer_0
  10
858.96363
  20
781.37319
  0
VERTEX
  5
360
  8
Layer_0
  10
858.90301
  20
782.71399
  0
VERTEX
  5
361
  8
Layer_0
  10
858.84077
  20
784.01467
  0
VERTEX
  5
362
  8
Layer_0
  10
858.77694
  20
785.27489
  0
VERTEX
  5
363
  8
Layer_0
  10
858.7115
  20
786.49435
  0
VERTEX
  5
364
  8
Layer_0
  10
858.64448
  20
787.67273
  0
VERTEX
  5
365
  8
Layer_0
  10
858.57589
  20
788.80971
  0
VERTEX
  5
366
  8
Layer_0
  10
858.50574
  20
789.90498
  0
VERTEX
  5
367
  8
Layer_0
  10
858.43402
  20
790.95821
  0
VERTEX
  5
368
  8
Layer_0
  10
858.36077
  20
791.96911
  0
VERTEX
  5
369
  8
Layer_0
  10
858.28598
  20
792.93733
  0
VERTEX
  5
36a
  8
Layer_0
  10
858.20966
  20
793.86258
  0
VERTEX
  5
36b
  8
Layer_0
  10
858.13183
  20
794.74453
  0
VERTEX
  5
36c
  8
Layer_0
  10
858.0525
  20
795.58286
  0
VERTEX
  5
36d
  8
Layer_0
  10
857.97167
  20
796.37727
  0
VERTEX
  5
36e
  8
Layer_0
  10
857.88935
  20
797.12743
  0
VERTEX
  5
36f
  8
Layer_0
  10
857.80556
  20
797.83302
  0
VERTEX
  5
370
  8
Layer_0
  10
857.7203
  20
798.49373
  0
VERTEX
  5
371
  8
Layer_0
  10
857.63359
  20
799.10925
  0
VERTEX
  5
372
  8
Layer_0
  10
857.54543
  20
799.67925
  0
VERTEX
  5
373
  8
Layer_0
  10
857.45584
  20
800.20342
  0
VERTEX
  5
374
  8
Layer_0
  10
857.36482
  20
800.68144
  0
VERTEX
  5
375
  8
Layer_0
  10
857.27239
  20
801.113
  0
VERTEX
  5
376
  8
Layer_0
  10
857.17855
  20
801.49778
  0
VERTEX
  5
377
  8
Layer_0
  10
857.08331
  20
801.83546
  0
VERTEX
  5
378
  8
Layer_0
  10
856.98669
  20
802.12573
  0
VERTEX
  5
379
  8
Layer_0
  10
856.88869
  20
802.36827
  0
VERTEX
  5
37a
  8
Layer_0
  10
856.68498
  20
802.77318
  0
VERTEX
  5
37b
  8
Layer_0
  10
856.42522
  20
803.21126
  0
VERTEX
  5
37c
  8
Layer_0
  10
856.11106
  20
803.68107
  0
VERTEX
  5
37d
  8
Layer_0
  10
855.74419
  20
804.18118
  0
VERTEX
  5
37e
  8
Layer_0
  10
855.32626
  20
804.71016
  0
VERTEX
  5
37f
  8
Layer_0
  10
854.85895
  20
805.26659
  0
VERTEX
  5
380
  8
Layer_0
  10
854.34392
  20
805.84902
  0
VERTEX
  5
381
  8
Layer_0
  10
853.78285
  20
806.45604
  0
VERTEX
  5
382
  8
Layer_0
  10
853.1774
  20
807.08621
  0
VERTEX
  5
383
  8
Layer_0
  10
852.52925
  20
807.7381
  0
VERTEX
  5
384
  8
Layer_0
  10
851.84006
  20
808.41028
  0
VERTEX
  5
385
  8
Layer_0
  10
851.1115
  20
809.10132
  0
VERTEX
  5
386
  8
Layer_0
  10
850.34524
  20
809.80979
  0
VERTEX
  5
387
  8
Layer_0
  10
849.54295
  20
810.53427
  0
VERTEX
  5
388
  8
Layer_0
  10
848.7063
  20
811.27332
  0
VERTEX
  5
389
  8
Layer_0
  10
847.83696
  20
812.02551
  0
VERTEX
  5
38a
  8
Layer_0
  10
846.93659
  20
812.78941
  0
VERTEX
  5
38b
  8
Layer_0
  10
846.00687
  20
813.56359
  0
VERTEX
  5
38c
  8
Layer_0
  10
845.04947
  20
814.34662
  0
VERTEX
  5
38d
  8
Layer_0
  10
844.06605
  20
815.13708
  0
VERTEX
  5
38e
  8
Layer_0
  10
842.02785
  20
816.73454
  0
VERTEX
  5
38f
  8
Layer_0
  10
839.90562
  20
818.34452
  0
VERTEX
  5
390
  8
Layer_0
  10
837.71271
  20
819.9556
  0
VERTEX
  5
391
  8
Layer_0
  10
835.46247
  20
821.55632
  0
VERTEX
  5
392
  8
Layer_0
  10
833.16827
  20
823.13525
  0
VERTEX
  5
393
  8
Layer_0
  10
830.84344
  20
824.68095
  0
VERTEX
  5
394
  8
Layer_0
  10
808.19446
  20
839.47144
  0
VERTEX
  5
395
  8
Layer_0
  10
808.31165
  20
883.9209
  0
VERTEX
  5
396
  8
Layer_0
  10
808.32071
  20
886.66071
  0
VERTEX
  5
397
  8
Layer_0
  10
808.33193
  20
889.31119
  0
VERTEX
  5
398
  8
Layer_0
  10
808.34373
  20
891.87392
  0
VERTEX
  5
399
  8
Layer_0
  10
808.35445
  20
894.35039
  0
VERTEX
  5
39a
  8
Layer_0
  10
808.36245
  20
896.74208
  0
VERTEX
  5
39b
  8
Layer_0
  10
808.36607
  20
899.05045
  0
VERTEX
  5
39c
  8
Layer_0
  10
808.36368
  20
901.277
  0
VERTEX
  5
39d
  8
Layer_0
  10
808.35363
  20
903.42321
  0
VERTEX
  5
39e
  8
Layer_0
  10
808.33426
  20
905.49055
  0
VERTEX
  5
39f
  8
Layer_0
  10
808.30393
  20
907.4805
  0
VERTEX
  5
3a0
  8
Layer_0
  10
808.26099
  20
909.39455
  0
VERTEX
  5
3a1
  8
Layer_0
  10
808.20379
  20
911.23418
  0
VERTEX
  5
3a2
  8
Layer_0
  10
808.13069
  20
913.00085
  0
VERTEX
  5
3a3
  8
Layer_0
  10
808.04004
  20
914.69606
  0
VERTEX
  5
3a4
  8
Layer_0
  10
807.93018
  20
916.32129
  0
VERTEX
  5
3a5
  8
Layer_0
  10
807.79949
  20
917.87801
  0
VERTEX
  5
3a6
  8
Layer_0
  10
807.64629
  20
919.3677
  0
VERTEX
  5
3a7
  8
Layer_0
  10
807.46896
  20
920.79185
  0
VERTEX
  5
3a8
  8
Layer_0
  10
807.26583
  20
922.15193
  0
VERTEX
  5
3a9
  8
Layer_0
  10
807.03527
  20
923.44943
  0
VERTEX
  5
3aa
  8
Layer_0
  10
806.77562
  20
924.68582
  0
VERTEX
  5
3ab
  8
Layer_0
  10
806.48523
  20
925.86259
  0
VERTEX
  5
3ac
  8
Layer_0
  10
806.16247
  20
926.98121
  0
VERTEX
  5
3ad
  8
Layer_0
  10
805.80568
  20
928.04316
  0
VERTEX
  5
3ae
  8
Layer_0
  10
805.41321
  20
929.04993
  0
VERTEX
  5
3af
  8
Layer_0
  10
804.98342
  20
930.00299
  0
VERTEX
  5
3b0
  8
Layer_0
  10
804.51466
  20
930.90383
  0
VERTEX
  5
3b1
  8
Layer_0
  10
804.00528
  20
931.75392
  0
VERTEX
  5
3b2
  8
Layer_0
  10
803.45363
  20
932.55474
  0
VERTEX
  5
3b3
  8
Layer_0
  10
802.85806
  20
933.30778
  0
VERTEX
  5
3b4
  8
Layer_0
  10
802.21694
  20
934.01451
  0
VERTEX
  5
3b5
  8
Layer_0
  10
801.52861
  20
934.67642
  0
VERTEX
  5
3b6
  8
Layer_0
  10
800.79141
  20
935.29498
  0
VERTEX
  5
3b7
  8
Layer_0
  10
800.00372
  20
935.87168
  0
VERTEX
  5
3b8
  8
Layer_0
  10
799.16387
  20
936.40799
  0
VERTEX
  5
3b9
  8
Layer_0
  10
798.27022
  20
936.90539
  0
VERTEX
  5
3ba
  8
Layer_0
  10
797.32112
  20
937.36537
  0
VERTEX
  5
3bb
  8
Layer_0
  10
796.31492
  20
937.7894
  0
VERTEX
  5
3bc
  8
Layer_0
  10
795.24999
  20
938.17897
  0
VERTEX
  5
3bd
  8
Layer_0
  10
794.12466
  20
938.53555
  0
VERTEX
  5
3be
  8
Layer_0
  10
792.93729
  20
938.86063
  0
VERTEX
  5
3bf
  8
Layer_0
  10
791.68624
  20
939.15568
  0
VERTEX
  5
3c0
  8
Layer_0
  10
790.36985
  20
939.42218
  0
VERTEX
  5
3c1
  8
Layer_0
  10
788.98649
  20
939.66162
  0
VERTEX
  5
3c2
  8
Layer_0
  10
787.53449
  20
939.87547
  0
VERTEX
  5
3c3
  8
Layer_0
  10
786.01221
  20
940.06521
  0
VERTEX
  5
3c4
  8
Layer_0
  10
784.41801
  20
940.23234
  0
VERTEX
  5
3c5
  8
Layer_0
  10
782.75024
  20
940.37831
  0
VERTEX
  5
3c6
  8
Layer_0
  10
781.00725
  20
940.50462
  0
VERTEX
  5
3c7
  8
Layer_0
  10
779.18739
  20
940.61274
  0
VERTEX
  5
3c8
  8
Layer_0
  10
777.28902
  20
940.70416
  0
VERTEX
  5
3c9
  8
Layer_0
  10
775.31048
  20
940.78035
  0
VERTEX
  5
3ca
  8
Layer_0
  10
773.25013
  20
940.84279
  0
VERTEX
  5
3cb
  8
Layer_0
  10
771.10632
  20
940.89297
  0
VERTEX
  5
3cc
  8
Layer_0
  10
768.87741
  20
940.93237
  0
VERTEX
  5
3cd
  8
Layer_0
  10
766.56175
  20
940.96246
  0
VERTEX
  5
3ce
  8
Layer_0
  10
764.15768
  20
940.98472
  0
VERTEX
  5
3cf
  8
Layer_0
  10
761.66356
  20
941.00063
  0
VERTEX
  5
3d0
  8
Layer_0
  10
759.07775
  20
941.01168
  0
VERTEX
  5
3d1
  8
Layer_0
  10
756.3986
  20
941.01935
  0
VERTEX
  5
3d2
  8
Layer_0
  10
753.62445
  20
941.02511
  0
VERTEX
  5
3d3
  8
Layer_0
  10
750.75366
  20
941.03044
  0
VERTEX
  5
3d4
  8
Layer_0
  10
747.78458
  20
941.03683
  0
VERTEX
  5
3d5
  8
Layer_0
  10
744.71557
  20
941.04575
  0
VERTEX
  5
3d6
  8
Layer_0
  10
742.68797
  20
941.05214
  0
VERTEX
  5
3d7
  8
Layer_0
  10
740.71353
  20
941.05718
  0
VERTEX
  5
3d8
  8
Layer_0
  10
738.79143
  20
941.06079
  0
VERTEX
  5
3d9
  8
Layer_0
  10
736.92086
  20
941.06288
  0
VERTEX
  5
3da
  8
Layer_0
  10
735.10101
  20
941.06338
  0
VERTEX
  5
3db
  8
Layer_0
  10
733.33104
  20
941.0622
  0
VERTEX
  5
3dc
  8
Layer_0
  10
731.61016
  20
941.05926
  0
VERTEX
  5
3dd
  8
Layer_0
  10
729.93754
  20
941.05447
  0
VERTEX
  5
3de
  8
Layer_0
  10
728.31237
  20
941.04774
  0
VERTEX
  5
3df
  8
Layer_0
  10
726.73382
  20
941.03901
  0
VERTEX
  5
3e0
  8
Layer_0
  10
725.20109
  20
941.02817
  0
VERTEX
  5
3e1
  8
Layer_0
  10
723.71336
  20
941.01516
  0
VERTEX
  5
3e2
  8
Layer_0
  10
722.2698
  20
940.99988
  0
VERTEX
  5
3e3
  8
Layer_0
  10
720.86961
  20
940.98225
  0
VERTEX
  5
3e4
  8
Layer_0
  10
719.51196
  20
940.96219
  0
VERTEX
  5
3e5
  8
Layer_0
  10
718.19604
  20
940.93962
  0
VERTEX
  5
3e6
  8
Layer_0
  10
716.92104
  20
940.91445
  0
VERTEX
  5
3e7
  8
Layer_0
  10
715.68613
  20
940.88659
  0
VERTEX
  5
3e8
  8
Layer_0
  10
714.49051
  20
940.85598
  0
VERTEX
  5
3e9
  8
Layer_0
  10
713.33334
  20
940.82251
  0
VERTEX
  5
3ea
  8
Layer_0
  10
712.21383
  20
940.78612
  0
VERTEX
  5
3eb
  8
Layer_0
  10
711.13115
  20
940.74671
  0
VERTEX
  5
3ec
  8
Layer_0
  10
710.08447
  20
940.7042
  0
VERTEX
  5
3ed
  8
Layer_0
  10
709.073
  20
940.65851
  0
VERTEX
  5
3ee
  8
Layer_0
  10
708.09591
  20
940.60955
  0
VERTEX
  5
3ef
  8
Layer_0
  10
707.15238
  20
940.55725
  0
VERTEX
  5
3f0
  8
Layer_0
  10
706.2416
  20
940.50151
  0
VERTEX
  5
3f1
  8
Layer_0
  10
705.36275
  20
940.44227
  0
VERTEX
  5
3f2
  8
Layer_0
  10
704.51502
  20
940.37942
  0
VERTEX
  5
3f3
  8
Layer_0
  10
703.69759
  20
940.31289
  0
VERTEX
  5
3f4
  8
Layer_0
  10
702.90963
  20
940.24259
  0
VERTEX
  5
3f5
  8
Layer_0
  10
702.15034
  20
940.16845
  0
VERTEX
  5
3f6
  8
Layer_0
  10
701.4189
  20
940.09038
  0
VERTEX
  5
3f7
  8
Layer_0
  10
700.7145
  20
940.00829
  0
VERTEX
  5
3f8
  8
Layer_0
  10
700.0363
  20
939.9221
  0
VERTEX
  5
3f9
  8
Layer_0
  10
699.38351
  20
939.83173
  0
VERTEX
  5
3fa
  8
Layer_0
  10
698.15085
  20
939.63811
  0
VERTEX
  5
3fb
  8
Layer_0
  10
697.00999
  20
939.42676
  0
VERTEX
  5
3fc
  8
Layer_0
  10
695.9544
  20
939.19702
  0
VERTEX
  5
3fd
  8
Layer_0
  10
694.97754
  20
938.94821
  0
VERTEX
  5
3fe
  8
Layer_0
  10
694.07287
  20
938.67968
  0
VERTEX
  5
3ff
  8
Layer_0
  10
693.23388
  20
938.39074
  0
VERTEX
  5
400
  8
Layer_0
  10
692.45402
  20
938.08075
  0
VERTEX
  5
401
  8
Layer_0
  10
691.72676
  20
937.74903
  0
VERTEX
  5
402
  8
Layer_0
  10
691.04557
  20
937.3949
  0
VERTEX
  5
403
  8
Layer_0
  10
690.40392
  20
937.01772
  0
VERTEX
  5
404
  8
Layer_0
  10
689.79528
  20
936.6168
  0
VERTEX
  5
405
  8
Layer_0
  10
689.21311
  20
936.19148
  0
VERTEX
  5
406
  8
Layer_0
  10
688.65087
  20
935.7411
  0
VERTEX
  5
407
  8
Layer_0
  10
688.10205
  20
935.26499
  0
VERTEX
  5
408
  8
Layer_0
  10
687.50818
  20
934.73699
  0
VERTEX
  5
409
  8
Layer_0
  10
686.93846
  20
934.2499
  0
VERTEX
  5
40a
  8
Layer_0
  10
686.38453
  20
933.80777
  0
VERTEX
  5
40b
  8
Layer_0
  10
685.83802
  20
933.41463
  0
VERTEX
  5
40c
  8
Layer_0
  10
685.29058
  20
933.07452
  0
VERTEX
  5
40d
  8
Layer_0
  10
684.73385
  20
932.79149
  0
VERTEX
  5
40e
  8
Layer_0
  10
684.15947
  20
932.56956
  0
VERTEX
  5
40f
  8
Layer_0
  10
683.55908
  20
932.4128
  0
VERTEX
  5
410
  8
Layer_0
  10
682.92432
  20
932.32522
  0
VERTEX
  5
411
  8
Layer_0
  10
682.24683
  20
932.31088
  0
VERTEX
  5
412
  8
Layer_0
  10
681.88945
  20
932.33244
  0
VERTEX
  5
413
  8
Layer_0
  10
681.51826
  20
932.37381
  0
VERTEX
  5
414
  8
Layer_0
  10
681.1322
  20
932.43552
  0
VERTEX
  5
415
  8
Layer_0
  10
680.73024
  20
932.51806
  0
VERTEX
  5
416
  8
Layer_0
  10
680.31132
  20
932.62194
  0
VERTEX
  5
417
  8
Layer_0
  10
679.87441
  20
932.74766
  0
VERTEX
  5
418
  8
Layer_0
  10
679.41845
  20
932.89574
  0
VERTEX
  5
419
  8
Layer_0
  10
678.94241
  20
933.06666
  0
VERTEX
  5
41a
  8
Layer_0
  10
678.44524
  20
933.26094
  0
VERTEX
  5
41b
  8
Layer_0
  10
677.9259
  20
933.47909
  0
VERTEX
  5
41c
  8
Layer_0
  10
677.38333
  20
933.72161
  0
VERTEX
  5
41d
  8
Layer_0
  10
676.8165
  20
933.989
  0
VERTEX
  5
41e
  8
Layer_0
  10
676.22435
  20
934.28177
  0
VERTEX
  5
41f
  8
Layer_0
  10
675.60585
  20
934.60042
  0
VERTEX
  5
420
  8
Layer_0
  10
674.95995
  20
934.94546
  0
VERTEX
  5
421
  8
Layer_0
  10
674.28561
  20
935.3174
  0
VERTEX
  5
422
  8
Layer_0
  10
673.58177
  20
935.71673
  0
VERTEX
  5
423
  8
Layer_0
  10
672.8474
  20
936.14397
  0
VERTEX
  5
424
  8
Layer_0
  10
672.08145
  20
936.59962
  0
VERTEX
  5
425
  8
Layer_0
  10
671.28287
  20
937.08418
  0
VERTEX
  5
426
  8
Layer_0
  10
670.45062
  20
937.59816
  0
VERTEX
  5
427
  8
Layer_0
  10
669.58366
  20
938.14207
  0
VERTEX
  5
428
  8
Layer_0
  10
668.68094
  20
938.7164
  0
VERTEX
  5
429
  8
Layer_0
  10
667.74141
  20
939.32167
  0
VERTEX
  5
42a
  8
Layer_0
  10
666.76404
  20
939.95838
  0
VERTEX
  5
42b
  8
Layer_0
  10
665.74777
  20
940.62703
  0
VERTEX
  5
42c
  8
Layer_0
  10
664.69156
  20
941.32813
  0
VERTEX
  5
42d
  8
Layer_0
  10
663.59436
  20
942.06218
  0
VERTEX
  5
42e
  8
Layer_0
  10
662.45514
  20
942.82969
  0
VERTEX
  5
42f
  8
Layer_0
  10
661.27284
  20
943.63117
  0
VERTEX
  5
430
  8
Layer_0
  10
660.04643
  20
944.46712
  0
VERTEX
  5
431
  8
Layer_0
  10
658.77484
  20
945.33804
  0
VERTEX
  5
432
  8
Layer_0
  10
657.45705
  20
946.24444
  0
VERTEX
  5
433
  8
Layer_0
  10
656.09201
  20
947.18682
  0
VERTEX
  5
434
  8
Layer_0
  10
654.67867
  20
948.1657
  0
VERTEX
  5
435
  8
Layer_0
  10
653.21598
  20
949.18157
  0
VERTEX
  5
436
  8
Layer_0
  10
651.70291
  20
950.23494
  0
VERTEX
  5
437
  8
Layer_0
  10
650.1384
  20
951.32631
  0
VERTEX
  5
438
  8
Layer_0
  10
648.52142
  20
952.45619
  0
VERTEX
  5
439
  8
Layer_0
  10
646.85091
  20
953.62509
  0
VERTEX
  5
43a
  8
Layer_0
  10
645.12583
  20
954.8335
  0
VERTEX
  5
43b
  8
Layer_0
  10
643.34514
  20
956.08194
  0
VERTEX
  5
43c
  8
Layer_0
  10
641.50779
  20
957.37091
  0
VERTEX
  5
43d
  8
Layer_0
  10
639.61274
  20
958.70091
  0
VERTEX
  5
43e
  8
Layer_0
  10
630.90295
  20
964.81229
  0
VERTEX
  5
43f
  8
Layer_0
  10
622.19835
  20
970.91573
  0
VERTEX
  5
440
  8
Layer_0
  10
620.05019
  20
972.42132
  0
VERTEX
  5
441
  8
Layer_0
  10
617.92048
  20
973.91373
  0
VERTEX
  5
442
  8
Layer_0
  10
615.81283
  20
975.39043
  0
VERTEX
  5
443
  8
Layer_0
  10
613.73087
  20
976.84888
  0
VERTEX
  5
444
  8
Layer_0
  10
611.67822
  20
978.28654
  0
VERTEX
  5
445
  8
Layer_0
  10
609.65852
  20
979.70088
  0
VERTEX
  5
446
  8
Layer_0
  10
607.67537
  20
981.08935
  0
VERTEX
  5
447
  8
Layer_0
  10
605.73242
  20
982.44943
  0
VERTEX
  5
448
  8
Layer_0
  10
603.83327
  20
983.77857
  0
VERTEX
  5
449
  8
Layer_0
  10
601.98156
  20
985.07424
  0
VERTEX
  5
44a
  8
Layer_0
  10
600.1809
  20
986.33391
  0
VERTEX
  5
44b
  8
Layer_0
  10
598.43493
  20
987.55504
  0
VERTEX
  5
44c
  8
Layer_0
  10
596.74726
  20
988.73508
  0
VERTEX
  5
44d
  8
Layer_0
  10
595.12152
  20
989.87151
  0
VERTEX
  5
44e
  8
Layer_0
  10
593.56134
  20
990.96179
  0
VERTEX
  5
44f
  8
Layer_0
  10
592.07033
  20
992.00338
  0
VERTEX
  5
450
  8
Layer_0
  10
590.65212
  20
992.99374
  0
VERTEX
  5
451
  8
Layer_0
  10
589.31033
  20
993.93034
  0
VERTEX
  5
452
  8
Layer_0
  10
588.66923
  20
994.37769
  0
VERTEX
  5
453
  8
Layer_0
  10
588.0486
  20
994.81064
  0
VERTEX
  5
454
  8
Layer_0
  10
587.44888
  20
995.22889
  0
VERTEX
  5
455
  8
Layer_0
  10
586.87053
  20
995.63211
  0
VERTEX
  5
456
  8
Layer_0
  10
586.31401
  20
996.01999
  0
VERTEX
  5
457
  8
Layer_0
  10
585.77976
  20
996.39221
  0
VERTEX
  5
458
  8
Layer_0
  10
585.26825
  20
996.74846
  0
VERTEX
  5
459
  8
Layer_0
  10
584.77991
  20
997.08841
  0
VERTEX
  5
45a
  8
Layer_0
  10
584.31522
  20
997.41174
  0
VERTEX
  5
45b
  8
Layer_0
  10
583.87461
  20
997.71815
  0
VERTEX
  5
45c
  8
Layer_0
  10
583.45854
  20
998.00732
  0
VERTEX
  5
45d
  8
Layer_0
  10
583.06747
  20
998.27892
  0
VERTEX
  5
45e
  8
Layer_0
  10
581.15732
  20
999.57049
  0
VERTEX
  5
45f
  8
Layer_0
  10
579.26748
  20
1000.7782
  0
VERTEX
  5
460
  8
Layer_0
  10
577.39653
  20
1001.9022
  0
VERTEX
  5
461
  8
Layer_0
  10
575.54306
  20
1002.9422
  0
VERTEX
  5
462
  8
Layer_0
  10
573.70565
  20
1003.8985
  0
VERTEX
  5
463
  8
Layer_0
  10
571.88289
  20
1004.7709
  0
VERTEX
  5
464
  8
Layer_0
  10
570.07337
  20
1005.5594
  0
VERTEX
  5
465
  8
Layer_0
  10
568.27566
  20
1006.2641
  0
VERTEX
  5
466
  8
Layer_0
  10
566.48836
  20
1006.885
  0
VERTEX
  5
467
  8
Layer_0
  10
564.71005
  20
1007.4219
  0
VERTEX
  5
468
  8
Layer_0
  10
562.93931
  20
1007.875
  0
VERTEX
  5
469
  8
Layer_0
  10
561.17474
  20
1008.2442
  0
VERTEX
  5
46a
  8
Layer_0
  10
559.41491
  20
1008.5295
  0
VERTEX
  5
46b
  8
Layer_0
  10
557.65841
  20
1008.7309
  0
VERTEX
  5
46c
  8
Layer_0
  10
555.90382
  20
1008.8484
  0
VERTEX
  5
46d
  8
Layer_0
  10
554.14974
  20
1008.882
  0
VERTEX
  5
46e
  8
Layer_0
  10
552.39474
  20
1008.8316
  0
VERTEX
  5
46f
  8
Layer_0
  10
550.63741
  20
1008.6973
  0
VERTEX
  5
470
  8
Layer_0
  10
548.87634
  20
1008.4791
  0
VERTEX
  5
471
  8
Layer_0
  10
547.11011
  20
1008.177
  0
VERTEX
  5
472
  8
Layer_0
  10
545.33731
  20
1007.7909
  0
VERTEX
  5
473
  8
Layer_0
  10
543.55652
  20
1007.3209
  0
VERTEX
  5
474
  8
Layer_0
  10
541.76632
  20
1006.7669
  0
VERTEX
  5
475
  8
Layer_0
  10
539.96531
  20
1006.1289
  0
VERTEX
  5
476
  8
Layer_0
  10
538.15207
  20
1005.407
  0
VERTEX
  5
477
  8
Layer_0
  10
536.32517
  20
1004.601
  0
VERTEX
  5
478
  8
Layer_0
  10
534.48322
  20
1003.7111
  0
VERTEX
  5
479
  8
Layer_0
  10
532.62479
  20
1002.7372
  0
VERTEX
  5
47a
  8
Layer_0
  10
530.74847
  20
1001.6793
  0
VERTEX
  5
47b
  8
Layer_0
  10
528.85284
  20
1000.5374
  0
VERTEX
  5
47c
  8
Layer_0
  10
526.93649
  20
999.31146
  0
SEQEND
  0
POLYLINE
  5
47e
  8
Layer_0
  62
7
  70
1
  66
1
  10
0
  20
0
  30
0
  0
VERTEX
  5
47e
  8
Layer_0
  10
192.84979
  20
680.55178
  0
VERTEX
  5
47f
  8
Layer_0
  10
192.82495
  20
679.48406
  0
VERTEX
  5
480
  8
Layer_0
  10
192.77597
  20
678.47293
  0
VERTEX
  5
481
  8
Layer_0
  10
192.70113
  20
677.51756
  0
VERTEX
  5
482
  8
Layer_0
  10
192.59871
  20
676.61714
  0
VERTEX
  5
483
  8
Layer_0
  10
192.46701
  20
675.77084
  0
VERTEX
  5
484
  8
Layer_0
  10
192.30429
  20
674.97784
  0
VERTEX
  5
485
  8
Layer_0
  10
192.10885
  20
674.23733
  0
VERTEX
  5
486
  8
Layer_0
  10
191.87896
  20
673.54848
  0
VERTEX
  5
487
  8
Layer_0
  10
191.61291
  20
672.91047
  0
VERTEX
  5
488
  8
Layer_0
  10
191.30899
  20
672.32248
  0
VERTEX
  5
489
  8
Layer_0
  10
190.96546
  20
671.78369
  0
VERTEX
  5
48a
  8
Layer_0
  10
190.58063
  20
671.29328
  0
VERTEX
  5
48b
  8
Layer_0
  10
190.15276
  20
670.85044
  0
VERTEX
  5
48c
  8
Layer_0
  10
189.68014
  20
670.45433
  0
VERTEX
  5
48d
  8
Layer_0
  10
189.16106
  20
670.10414
  0
VERTEX
  5
48e
  8
Layer_0
  10
188.5938
  20
669.79905
  0
VERTEX
  5
48f
  8
Layer_0
  10
187.97664
  20
669.53824
  0
VERTEX
  5
490
  8
Layer_0
  10
187.30786
  20
669.32088
  0
VERTEX
  5
491
  8
Layer_0
  10
186.58575
  20
669.14616
  0
VERTEX
  5
492
  8
Layer_0
  10
185.80858
  20
669.01326
  0
VERTEX
  5
493
  8
Layer_0
  10
184.97465
  20
668.92136
  0
VERTEX
  5
494
  8
Layer_0
  10
184.08223
  20
668.86963
  0
VERTEX
  5
495
  8
Layer_0
  10
183.12961
  20
668.85725
  0
VERTEX
  5
496
  8
Layer_0
  10
182.11506
  20
668.88341
  0
VERTEX
  5
497
  8
Layer_0
  10
181.03688
  20
668.94729
  0
VERTEX
  5
498
  8
Layer_0
  10
179.89335
  20
669.04805
  0
VERTEX
  5
499
  8
Layer_0
  10
178.68274
  20
669.1849
  0
VERTEX
  5
49a
  8
Layer_0
  10
177.40334
  20
669.35699
  0
VERTEX
  5
49b
  8
Layer_0
  10
176.05344
  20
669.56352
  0
VERTEX
  5
49c
  8
Layer_0
  10
174.63131
  20
669.80366
  0
VERTEX
  5
49d
  8
Layer_0
  10
173.13524
  20
670.07659
  0
VERTEX
  5
49e
  8
Layer_0
  10
171.56351
  20
670.38149
  0
VERTEX
  5
49f
  8
Layer_0
  10
169.85709
  20
670.73807
  0
VERTEX
  5
4a0
  8
Layer_0
  10
168.10579
  20
671.13606
  0
VERTEX
  5
4a1
  8
Layer_0
  10
166.32263
  20
671.5712
  0
VERTEX
  5
4a2
  8
Layer_0
  10
164.52064
  20
672.03924
  0
VERTEX
  5
4a3
  8
Layer_0
  10
162.71283
  20
672.53592
  0
VERTEX
  5
4a4
  8
Layer_0
  10
160.91222
  20
673.05701
  0
VERTEX
  5
4a5
  8
Layer_0
  10
159.13184
  20
673.59824
  0
VERTEX
  5
4a6
  8
Layer_0
  10
157.38471
  20
674.15537
  0
VERTEX
  5
4a7
  8
Layer_0
  10
155.68384
  20
674.72414
  0
VERTEX
  5
4a8
  8
Layer_0
  10
154.04226
  20
675.30031
  0
VERTEX
  5
4a9
  8
Layer_0
  10
152.47299
  20
675.87961
  0
VERTEX
  5
4aa
  8
Layer_0
  10
150.98904
  20
676.4578
  0
VERTEX
  5
4ab
  8
Layer_0
  10
150.28314
  20
676.74515
  0
VERTEX
  5
4ac
  8
Layer_0
  10
149.60345
  20
677.03063
  0
VERTEX
  5
4ad
  8
Layer_0
  10
148.9516
  20
677.3137
  0
VERTEX
  5
4ae
  8
Layer_0
  10
148.32922
  20
677.59384
  0
VERTEX
  5
4af
  8
Layer_0
  10
147.73795
  20
677.87052
  0
VERTEX
  5
4b0
  8
Layer_0
  10
147.17939
  20
678.14319
  0
VERTEX
  5
4b1
  8
Layer_0
  10
146.65519
  20
678.41134
  0
VERTEX
  5
4b2
  8
Layer_0
  10
146.16697
  20
678.67442
  0
VERTEX
  5
4b3
  8
Layer_0
  10
144.98315
  20
679.29704
  0
VERTEX
  5
4b4
  8
Layer_0
  10
143.78492
  20
679.85974
  0
VERTEX
  5
4b5
  8
Layer_0
  10
142.5701
  20
680.36281
  0
VERTEX
  5
4b6
  8
Layer_0
  10
141.33651
  20
680.80655
  0
VERTEX
  5
4b7
  8
Layer_0
  10
140.08197
  20
681.19124
  0
VERTEX
  5
4b8
  8
Layer_0
  10
138.80429
  20
681.51717
  0
VERTEX
  5
4b9
  8
Layer_0
  10
137.50131
  20
681.78465
  0
VERTEX
  5
4ba
  8
Layer_0
  10
136.17083
  20
681.99397
  0
VERTEX
  5
4bb
  8
Layer_0
  10
134.81068
  20
682.1454
  0
VERTEX
  5
4bc
  8
Layer_0
  10
133.41867
  20
682.23926
  0
VERTEX
  5
4bd
  8
Layer_0
  10
131.99262
  20
682.27583
  0
VERTEX
  5
4be
  8
Layer_0
  10
130.53036
  20
682.2554
  0
VERTEX
  5
4bf
  8
Layer_0
  10
129.0297
  20
682.17826
  0
VERTEX
  5
4c0
  8
Layer_0
  10
127.48845
  20
682.04472
  0
VERTEX
  5
4c1
  8
Layer_0
  10
125.90445
  20
681.85505
  0
VERTEX
  5
4c2
  8
Layer_0
  10
124.2755
  20
681.60956
  0
VERTEX
  5
4c3
  8
Layer_0
  10
123.26973
  20
681.4385
  0
VERTEX
  5
4c4
  8
Layer_0
  10
122.31298
  20
681.26543
  0
VERTEX
  5
4c5
  8
Layer_0
  10
121.40348
  20
681.0889
  0
VERTEX
  5
4c6
  8
Layer_0
  10
120.53948
  20
680.90743
  0
VERTEX
  5
4c7
  8
Layer_0
  10
119.71918
  20
680.71959
  0
VERTEX
  5
4c8
  8
Layer_0
  10
118.94084
  20
680.52391
  0
VERTEX
  5
4c9
  8
Layer_0
  10
118.20267
  20
680.31894
  0
VERTEX
  5
4ca
  8
Layer_0
  10
117.5029
  20
680.10321
  0
VERTEX
  5
4cb
  8
Layer_0
  10
116.83977
  20
679.87529
  0
VERTEX
  5
4cc
  8
Layer_0
  10
116.2115
  20
679.6337
  0
VERTEX
  5
4cd
  8
Layer_0
  10
115.61633
  20
679.37699
  0
VERTEX
  5
4ce
  8
Layer_0
  10
115.05248
  20
679.10371
  0
VERTEX
  5
4cf
  8
Layer_0
  10
114.51818
  20
678.81239
  0
VERTEX
  5
4d0
  8
Layer_0
  10
114.01167
  20
678.50159
  0
VERTEX
  5
4d1
  8
Layer_0
  10
113.53117
  20
678.16985
  0
VERTEX
  5
4d2
  8
Layer_0
  10
113.07491
  20
677.81571
  0
VERTEX
  5
4d3
  8
Layer_0
  10
112.64113
  20
677.43772
  0
VERTEX
  5
4d4
  8
Layer_0
  10
112.22805
  20
677.03441
  0
VERTEX
  5
4d5
  8
Layer_0
  10
111.8339
  20
676.60434
  0
VERTEX
  5
4d6
  8
Layer_0
  10
111.45691
  20
676.14605
  0
VERTEX
  5
4d7
  8
Layer_0
  10
111.09531
  20
675.65807
  0
VERTEX
  5
4d8
  8
Layer_0
  10
110.74734
  20
675.13896
  0
VERTEX
  5
4d9
  8
Layer_0
  10
110.41121
  20
674.58726
  0
VERTEX
  5
4da
  8
Layer_0
  10
110.08517
  20
674.00151
  0
VERTEX
  5
4db
  8
Layer_0
  10
109.76744
  20
673.38025
  0
VERTEX
  5
4dc
  8
Layer_0
  10
109.45624
  20
672.72204
  0
VERTEX
  5
4dd
  8
Layer_0
  10
109.14982
  20
672.02541
  0
VERTEX
  5
4de
  8
Layer_0
  10
108.84639
  20
671.2889
  0
VERTEX
  5
4df
  8
Layer_0
  10
108.5442
  20
670.51107
  0
VERTEX
  5
4e0
  8
Layer_0
  10
108.24146
  20
669.69045
  0
VERTEX
  5
4e1
  8
Layer_0
  10
107.93642
  20
668.8256
  0
VERTEX
  5
4e2
  8
Layer_0
  10
107.62729
  20
667.91504
  0
VERTEX
  5
4e3
  8
Layer_0
  10
107.17107
  20
666.47078
  0
VERTEX
  5
4e4
  8
Layer_0
  10
106.76117
  20
665.00838
  0
VERTEX
  5
4e5
  8
Layer_0
  10
106.39783
  20
663.52627
  0
VERTEX
  5
4e6
  8
Layer_0
  10
106.08128
  20
662.02287
  0
VERTEX
  5
4e7
  8
Layer_0
  10
105.81177
  20
660.49659
  0
VERTEX
  5
4e8
  8
Layer_0
  10
105.58953
  20
658.94586
  0
VERTEX
  5
4e9
  8
Layer_0
  10
105.41481
  20
657.3691
  0
VERTEX
  5
4ea
  8
Layer_0
  10
105.28784
  20
655.76474
  0
VERTEX
  5
4eb
  8
Layer_0
  10
105.20886
  20
654.13119
  0
VERTEX
  5
4ec
  8
Layer_0
  10
105.17811
  20
652.46687
  0
VERTEX
  5
4ed
  8
Layer_0
  10
105.19583
  20
650.77021
  0
VERTEX
  5
4ee
  8
Layer_0
  10
105.26226
  20
649.03963
  0
VERTEX
  5
4ef
  8
Layer_0
  10
105.37764
  20
647.27355
  0
VERTEX
  5
4f0
  8
Layer_0
  10
105.54221
  20
645.47039
  0
VERTEX
  5
4f1
  8
Layer_0
  10
105.75621
  20
643.62858
  0
VERTEX
  5
4f2
  8
Layer_0
  10
106.01988
  20
641.74653
  0
VERTEX
  5
4f3
  8
Layer_0
  10
106.33345
  20
639.82266
  0
VERTEX
  5
4f4
  8
Layer_0
  10
106.69717
  20
637.85541
  0
VERTEX
  5
4f5
  8
Layer_0
  10
107.11127
  20
635.84318
  0
VERTEX
  5
4f6
  8
Layer_0
  10
107.576
  20
633.78441
  0
VERTEX
  5
4f7
  8
Layer_0
  10
108.09159
  20
631.6775
  0
VERTEX
  5
4f8
  8
Layer_0
  10
108.65829
  20
629.52089
  0
VERTEX
  5
4f9
  8
Layer_0
  10
109.27633
  20
627.313
  0
VERTEX
  5
4fa
  8
Layer_0
  10
109.94596
  20
625.05224
  0
VERTEX
  5
4fb
  8
Layer_0
  10
110.6674
  20
622.73704
  0
VERTEX
  5
4fc
  8
Layer_0
  10
111.44091
  20
620.36582
  0
VERTEX
  5
4fd
  8
Layer_0
  10
112.26671
  20
617.937
  0
VERTEX
  5
4fe
  8
Layer_0
  10
113.14506
  20
615.44901
  0
VERTEX
  5
4ff
  8
Layer_0
  10
114.07619
  20
612.90026
  0
VERTEX
  5
500
  8
Layer_0
  10
115.06033
  20
610.28918
  0
VERTEX
  5
501
  8
Layer_0
  10
116.09773
  20
607.61418
  0
VERTEX
  5
502
  8
Layer_0
  10
117.18863
  20
604.8737
  0
VERTEX
  5
503
  8
Layer_0
  10
118.30503
  20
602.15322
  0
VERTEX
  5
504
  8
Layer_0
  10
119.45491
  20
599.4486
  0
VERTEX
  5
505
  8
Layer_0
  10
120.6368
  20
596.76208
  0
VERTEX
  5
506
  8
Layer_0
  10
121.84923
  20
594.09588
  0
VERTEX
  5
507
  8
Layer_0
  10
123.09072
  20
591.45223
  0
VERTEX
  5
508
  8
Layer_0
  10
124.35981
  20
588.83334
  0
VERTEX
  5
509
  8
Layer_0
  10
125.65502
  20
586.24146
  0
VERTEX
  5
50a
  8
Layer_0
  10
126.97489
  20
583.6788
  0
VERTEX
  5
50b
  8
Layer_0
  10
128.31794
  20
581.14759
  0
VERTEX
  5
50c
  8
Layer_0
  10
129.6827
  20
578.65006
  0
VERTEX
  5
50d
  8
Layer_0
  10
131.06769
  20
576.18843
  0
VERTEX
  5
50e
  8
Layer_0
  10
132.47146
  20
573.76493
  0
VERTEX
  5
50f
  8
Layer_0
  10
133.89252
  20
571.38178
  0
VERTEX
  5
510
  8
Layer_0
  10
135.32941
  20
569.04122
  0
VERTEX
  5
511
  8
Layer_0
  10
136.78066
  20
566.74547
  0
VERTEX
  5
512
  8
Layer_0
  10
138.24479
  20
564.49675
  0
VERTEX
  5
513
  8
Layer_0
  10
139.72032
  20
562.29729
  0
VERTEX
  5
514
  8
Layer_0
  10
141.2058
  20
560.14932
  0
VERTEX
  5
515
  8
Layer_0
  10
142.69975
  20
558.05506
  0
VERTEX
  5
516
  8
Layer_0
  10
144.2007
  20
556.01674
  0
VERTEX
  5
517
  8
Layer_0
  10
145.70718
  20
554.03659
  0
VERTEX
  5
518
  8
Layer_0
  10
147.21771
  20
552.11683
  0
VERTEX
  5
519
  8
Layer_0
  10
148.73082
  20
550.25969
  0
VERTEX
  5
51a
  8
Layer_0
  10
150.24505
  20
548.4674
  0
VERTEX
  5
51b
  8
Layer_0
  10
151.75892
  20
546.74217
  0
VERTEX
  5
51c
  8
Layer_0
  10
153.27096
  20
545.08624
  0
VERTEX
  5
51d
  8
Layer_0
  10
154.7797
  20
543.50184
  0
VERTEX
  5
51e
  8
Layer_0
  10
156.28367
  20
541.99118
  0
VERTEX
  5
51f
  8
Layer_0
  10
157.7814
  20
540.55651
  0
VERTEX
  5
520
  8
Layer_0
  10
159.27141
  20
539.20003
  0
VERTEX
  5
521
  8
Layer_0
  10
160.75224
  20
537.92398
  0
VERTEX
  5
522
  8
Layer_0
  10
162.22241
  20
536.73059
  0
VERTEX
  5
523
  8
Layer_0
  10
163.08446
  20
536.04502
  0
VERTEX
  5
524
  8
Layer_0
  10
163.97897
  20
535.3186
  0
VERTEX
  5
525
  8
Layer_0
  10
164.90459
  20
534.55272
  0
VERTEX
  5
526
  8
Layer_0
  10
165.85998
  20
533.74879
  0
VERTEX
  5
527
  8
Layer_0
  10
166.84382
  20
532.9082
  0
VERTEX
  5
528
  8
Layer_0
  10
167.85477
  20
532.03234
  0
VERTEX
  5
529
  8
Layer_0
  10
168.89149
  20
531.12262
  0
VERTEX
  5
52a
  8
Layer_0
  10
169.95265
  20
530.18043
  0
VERTEX
  5
52b
  8
Layer_0
  10
171.03691
  20
529.20717
  0
VERTEX
  5
52c
  8
Layer_0
  10
172.14294
  20
528.20425
  0
VERTEX
  5
52d
  8
Layer_0
  10
173.2694
  20
527.17305
  0
VERTEX
  5
52e
  8
Layer_0
  10
174.41495
  20
526.11497
  0
VERTEX
  5
52f
  8
Layer_0
  10
175.57827
  20
525.03141
  0
VERTEX
  5
530
  8
Layer_0
  10
176.75802
  20
523.92378
  0
VERTEX
  5
531
  8
Layer_0
  10
177.95285
  20
522.79346
  0
VERTEX
  5
532
  8
Layer_0
  10
179.16144
  20
521.64186
  0
VERTEX
  5
533
  8
Layer_0
  10
181.61456
  20
519.28039
  0
VERTEX
  5
534
  8
Layer_0
  10
184.10667
  20
516.85055
  0
VERTEX
  5
535
  8
Layer_0
  10
186.62711
  20
514.36353
  0
VERTEX
  5
536
  8
Layer_0
  10
189.16518
  20
511.8305
  0
VERTEX
  5
537
  8
Layer_0
  10
194.25153
  20
506.67117
  0
VERTEX
  5
538
  8
Layer_0
  10
199.28026
  20
501.462
  0
VERTEX
  5
539
  8
Layer_0
  10
201.74631
  20
498.86668
  0
VERTEX
  5
53a
  8
Layer_0
  10
204.16591
  20
496.29245
  0
VERTEX
  5
53b
  8
Layer_0
  10
206.52838
  20
493.75049
  0
VERTEX
  5
53c
  8
Layer_0
  10
208.82304
  20
491.25198
  0
VERTEX
  5
53d
  8
Layer_0
  10
209.9416
  20
490.02251
  0
VERTEX
  5
53e
  8
Layer_0
  10
211.03921
  20
488.80809
  0
VERTEX
  5
53f
  8
Layer_0
  10
212.11452
  20
487.61014
  0
VERTEX
  5
540
  8
Layer_0
  10
213.1662
  20
486.43003
  0
VERTEX
  5
541
  8
Layer_0
  10
214.19292
  20
485.26917
  0
VERTEX
  5
542
  8
Layer_0
  10
215.19333
  20
484.12896
  0
VERTEX
  5
543
  8
Layer_0
  10
216.16612
  20
483.01079
  0
VERTEX
  5
544
  8
Layer_0
  10
217.10993
  20
481.91606
  0
VERTEX
  5
545
  8
Layer_0
  10
218.02344
  20
480.84618
  0
VERTEX
  5
546
  8
Layer_0
  10
218.90531
  20
479.80253
  0
VERTEX
  5
547
  8
Layer_0
  10
219.7542
  20
478.78652
  0
VERTEX
  5
548
  8
Layer_0
  10
220.56878
  20
477.79953
  0
VERTEX
  5
549
  8
Layer_0
  10
221.34772
  20
476.84298
  0
VERTEX
  5
54a
  8
Layer_0
  10
222.08968
  20
475.91826
  0
VERTEX
  5
54b
  8
Layer_0
  10
222.79332
  20
475.02677
  0
VERTEX
  5
54c
  8
Layer_0
  10
223.45731
  20
474.16989
  0
VERTEX
  5
54d
  8
Layer_0
  10
224.08031
  20
473.34904
  0
VERTEX
  5
54e
  8
Layer_0
  10
224.66099
  20
472.56561
  0
VERTEX
  5
54f
  8
Layer_0
  10
225.19802
  20
471.821
  0
VERTEX
  5
550
  8
Layer_0
  10
225.69005
  20
471.1166
  0
VERTEX
  5
551
  8
Layer_0
  10
226.13575
  20
470.45381
  0
VERTEX
  5
552
  8
Layer_0
  10
226.5338
  20
469.83403
  0
VERTEX
  5
553
  8
Layer_0
  10
226.88284
  20
469.25866
  0
VERTEX
  5
554
  8
Layer_0
  10
227.18156
  20
468.7291
  0
VERTEX
  5
555
  8
Layer_0
  10
227.78777
  20
467.54025
  0
VERTEX
  5
556
  8
Layer_0
  10
228.34831
  20
466.3077
  0
VERTEX
  5
557
  8
Layer_0
  10
228.86332
  20
465.03425
  0
VERTEX
  5
558
  8
Layer_0
  10
229.33295
  20
463.72271
  0
VERTEX
  5
559
  8
Layer_0
  10
229.75737
  20
462.37587
  0
VERTEX
  5
55a
  8
Layer_0
  10
230.13671
  20
460.99654
  0
VERTEX
  5
55b
  8
Layer_0
  10
230.47114
  20
459.58752
  0
VERTEX
  5
55c
  8
Layer_0
  10
230.7608
  20
458.15161
  0
VERTEX
  5
55d
  8
Layer_0
  10
231.00586
  20
456.69163
  0
VERTEX
  5
55e
  8
Layer_0
  10
231.20646
  20
455.21037
  0
VERTEX
  5
55f
  8
Layer_0
  10
231.36275
  20
453.71062
  0
VERTEX
  5
560
  8
Layer_0
  10
231.4749
  20
452.19521
  0
VERTEX
  5
561
  8
Layer_0
  10
231.54304
  20
450.66693
  0
VERTEX
  5
562
  8
Layer_0
  10
231.56734
  20
449.12857
  0
VERTEX
  5
563
  8
Layer_0
  10
231.54795
  20
447.58296
  0
VERTEX
  5
564
  8
Layer_0
  10
231.48502
  20
446.03288
  0
VERTEX
  5
565
  8
Layer_0
  10
231.3787
  20
444.48114
  0
VERTEX
  5
566
  8
Layer_0
  10
231.22914
  20
442.93054
  0
VERTEX
  5
567
  8
Layer_0
  10
231.03651
  20
441.3839
  0
VERTEX
  5
568
  8
Layer_0
  10
230.80095
  20
439.844
  0
VERTEX
  5
569
  8
Layer_0
  10
230.52262
  20
438.31365
  0
VERTEX
  5
56a
  8
Layer_0
  10
230.20166
  20
436.79566
  0
VERTEX
  5
56b
  8
Layer_0
  10
229.83824
  20
435.29283
  0
VERTEX
  5
56c
  8
Layer_0
  10
229.4325
  20
433.80796
  0
VERTEX
  5
56d
  8
Layer_0
  10
228.98459
  20
432.34385
  0
VERTEX
  5
56e
  8
Layer_0
  10
228.49468
  20
430.90331
  0
VERTEX
  5
56f
  8
Layer_0
  10
227.96291
  20
429.48915
  0
VERTEX
  5
570
  8
Layer_0
  10
227.38943
  20
428.10415
  0
VERTEX
  5
571
  8
Layer_0
  10
226.77441
  20
426.75113
  0
VERTEX
  5
572
  8
Layer_0
  10
226.11798
  20
425.43288
  0
VERTEX
  5
573
  8
Layer_0
  10
225.42031
  20
424.15222
  0
VERTEX
  5
574
  8
Layer_0
  10
224.68155
  20
422.91194
  0
VERTEX
  5
575
  8
Layer_0
  10
224.2949
  20
422.25383
  0
VERTEX
  5
576
  8
Layer_0
  10
223.91806
  20
421.53807
  0
VERTEX
  5
577
  8
Layer_0
  10
223.55107
  20
420.76652
  0
VERTEX
  5
578
  8
Layer_0
  10
223.19401
  20
419.94099
  0
VERTEX
  5
579
  8
Layer_0
  10
222.84692
  20
419.06333
  0
VERTEX
  5
57a
  8
Layer_0
  10
222.50986
  20
418.13536
  0
VERTEX
  5
57b
  8
Layer_0
  10
222.1829
  20
417.15892
  0
VERTEX
  5
57c
  8
Layer_0
  10
221.86609
  20
416.13585
  0
VERTEX
  5
57d
  8
Layer_0
  10
221.55948
  20
415.06798
  0
VERTEX
  5
57e
  8
Layer_0
  10
221.26314
  20
413.95714
  0
VERTEX
  5
57f
  8
Layer_0
  10
220.97712
  20
412.80516
  0
VERTEX
  5
580
  8
Layer_0
  10
220.70149
  20
411.61389
  0
VERTEX
  5
581
  8
Layer_0
  10
220.43629
  20
410.38515
  0
VERTEX
  5
582
  8
Layer_0
  10
220.18158
  20
409.12077
  0
VERTEX
  5
583
  8
Layer_0
  10
219.93743
  20
407.8226
  0
VERTEX
  5
584
  8
Layer_0
  10
219.70389
  20
406.49246
  0
VERTEX
  5
585
  8
Layer_0
  10
219.48102
  20
405.13219
  0
VERTEX
  5
586
  8
Layer_0
  10
219.26888
  20
403.74362
  0
VERTEX
  5
587
  8
Layer_0
  10
219.06752
  20
402.32858
  0
VERTEX
  5
588
  8
Layer_0
  10
218.877
  20
400.88892
  0
VERTEX
  5
589
  8
Layer_0
  10
218.52873
  20
397.94303
  0
VERTEX
  5
58a
  8
Layer_0
  10
218.22451
  20
394.92063
  0
VERTEX
  5
58b
  8
Layer_0
  10
217.96482
  20
391.83638
  0
VERTEX
  5
58c
  8
Layer_0
  10
217.75011
  20
388.70495
  0
VERTEX
  5
58d
  8
Layer_0
  10
217.58085
  20
385.54101
  0
VERTEX
  5
58e
  8
Layer_0
  10
217.45749
  20
382.35923
  0
VERTEX
  5
58f
  8
Layer_0
  10
217.3805
  20
379.17428
  0
VERTEX
  5
590
  8
Layer_0
  10
217.35034
  20
376.00084
  0
VERTEX
  5
591
  8
Layer_0
  10
217.36748
  20
372.85357
  0
VERTEX
  5
592
  8
Layer_0
  10
217.43237
  20
369.74713
  0
VERTEX
  5
593
  8
Layer_0
  10
217.54547
  20
366.69621
  0
VERTEX
  5
594
  8
Layer_0
  10
217.70725
  20
363.71547
  0
VERTEX
  5
595
  8
Layer_0
  10
217.80654
  20
362.256
  0
VERTEX
  5
596
  8
Layer_0
  10
217.91817
  20
360.81957
  0
VERTEX
  5
597
  8
Layer_0
  10
218.0422
  20
359.40803
  0
VERTEX
  5
598
  8
Layer_0
  10
218.17869
  20
358.0232
  0
VERTEX
  5
599
  8
Layer_0
  10
218.32769
  20
356.66692
  0
VERTEX
  5
59a
  8
Layer_0
  10
218.48927
  20
355.34102
  0
VERTEX
  5
59b
  8
Layer_0
  10
218.66348
  20
354.04733
  0
VERTEX
  5
59c
  8
Layer_0
  10
218.85037
  20
352.78769
  0
VERTEX
  5
59d
  8
Layer_0
  10
219.05002
  20
351.56394
  0
VERTEX
  5
59e
  8
Layer_0
  10
219.26246
  20
350.3779
  0
VERTEX
  5
59f
  8
Layer_0
  10
219.48777
  20
349.23141
  0
VERTEX
  5
5a0
  8
Layer_0
  10
219.726
  20
348.1263
  0
VERTEX
  5
5a1
  8
Layer_0
  10
219.9772
  20
347.06441
  0
VERTEX
  5
5a2
  8
Layer_0
  10
220.24144
  20
346.04757
  0
VERTEX
  5
5a3
  8
Layer_0
  10
220.51878
  20
345.07762
  0
VERTEX
  5
5a4
  8
Layer_0
  10
220.80926
  20
344.15638
  0
VERTEX
  5
5a5
  8
Layer_0
  10
221.11295
  20
343.2857
  0
VERTEX
  5
5a6
  8
Layer_0
  10
221.4299
  20
342.4674
  0
VERTEX
  5
5a7
  8
Layer_0
  10
221.76018
  20
341.70332
  0
VERTEX
  5
5a8
  8
Layer_0
  10
222.10384
  20
340.9953
  0
VERTEX
  5
5a9
  8
Layer_0
  10
222.69768
  20
339.87563
  0
VERTEX
  5
5aa
  8
Layer_0
  10
223.31796
  20
338.76826
  0
VERTEX
  5
5ab
  8
Layer_0
  10
223.96458
  20
337.67329
  0
VERTEX
  5
5ac
  8
Layer_0
  10
224.63746
  20
336.5908
  0
VERTEX
  5
5ad
  8
Layer_0
  10
225.3365
  20
335.52088
  0
VERTEX
  5
5ae
  8
Layer_0
  10
226.0616
  20
334.46361
  0
VERTEX
  5
5af
  8
Layer_0
  10
226.81268
  20
333.41908
  0
VERTEX
  5
5b0
  8
Layer_0
  10
227.58964
  20
332.38737
  0
VERTEX
  5
5b1
  8
Layer_0
  10
228.39239
  20
331.36858
  0
VERTEX
  5
5b2
  8
Layer_0
  10
229.22084
  20
330.36279
  0
VERTEX
  5
5b3
  8
Layer_0
  10
230.07488
  20
329.37008
  0
VERTEX
  5
5b4
  8
Layer_0
  10
230.95444
  20
328.39054
  0
VERTEX
  5
5b5
  8
Layer_0
  10
231.85941
  20
327.42425
  0
VERTEX
  5
5b6
  8
Layer_0
  10
232.7897
  20
326.47132
  0
VERTEX
  5
5b7
  8
Layer_0
  10
233.74522
  20
325.53181
  0
VERTEX
  5
5b8
  8
Layer_0
  10
234.72588
  20
324.60581
  0
VERTEX
  5
5b9
  8
Layer_0
  10
235.73158
  20
323.69342
  0
VERTEX
  5
5ba
  8
Layer_0
  10
236.76223
  20
322.79471
  0
VERTEX
  5
5bb
  8
Layer_0
  10
237.81774
  20
321.90978
  0
VERTEX
  5
5bc
  8
Layer_0
  10
238.89801
  20
321.03871
  0
VERTEX
  5
5bd
  8
Layer_0
  10
240.00295
  20
320.18159
  0
VERTEX
  5
5be
  8
Layer_0
  10
241.13246
  20
319.3385
  0
VERTEX
  5
5bf
  8
Layer_0
  10
242.28647
  20
318.50953
  0
VERTEX
  5
5c0
  8
Layer_0
  10
243.46486
  20
317.69477
  0
VERTEX
  5
5c1
  8
Layer_0
  10
244.66755
  20
316.89429
  0
VERTEX
  5
5c2
  8
Layer_0
  10
245.89444
  20
316.1082
  0
VERTEX
  5
5c3
  8
Layer_0
  10
247.14545
  20
315.33657
  0
VERTEX
  5
5c4
  8
Layer_0
  10
248.42047
  20
314.57949
  0
VERTEX
  5
5c5
  8
Layer_0
  10
249.71942
  20
313.83704
  0
VERTEX
  5
5c6
  8
Layer_0
  10
251.0422
  20
313.10932
  0
VERTEX
  5
5c7
  8
Layer_0
  10
252.38872
  20
312.39641
  0
VERTEX
  5
5c8
  8
Layer_0
  10
253.75888
  20
311.69839
  0
VERTEX
  5
5c9
  8
Layer_0
  10
255.71819
  20
310.70641
  0
VERTEX
  5
5ca
  8
Layer_0
  10
257.58162
  20
309.7351
  0
VERTEX
  5
5cb
  8
Layer_0
  10
259.35135
  20
308.78136
  0
VERTEX
  5
5cc
  8
Layer_0
  10
261.02958
  20
307.84207
  0
VERTEX
  5
5cd
  8
Layer_0
  10
262.61852
  20
306.91411
  0
VERTEX
  5
5ce
  8
Layer_0
  10
264.12035
  20
305.99435
  0
VERTEX
  5
5cf
  8
Layer_0
  10
265.53727
  20
305.0797
  0
VERTEX
  5
5d0
  8
Layer_0
  10
266.87148
  20
304.16702
  0
VERTEX
  5
5d1
  8
Layer_0
  10
268.12517
  20
303.2532
  0
VERTEX
  5
5d2
  8
Layer_0
  10
269.30055
  20
302.33512
  0
VERTEX
  5
5d3
  8
Layer_0
  10
270.3998
  20
301.40966
  0
VERTEX
  5
5d4
  8
Layer_0
  10
271.42512
  20
300.47372
  0
VERTEX
  5
5d5
  8
Layer_0
  10
272.37871
  20
299.52416
  0
VERTEX
  5
5d6
  8
Layer_0
  10
273.26277
  20
298.55788
  0
VERTEX
  5
5d7
  8
Layer_0
  10
274.07949
  20
297.57176
  0
VERTEX
  5
5d8
  8
Layer_0
  10
274.83106
  20
296.56267
  0
VERTEX
  5
5d9
  8
Layer_0
  10
275.51969
  20
295.5275
  0
VERTEX
  5
5da
  8
Layer_0
  10
276.14757
  20
294.46314
  0
VERTEX
  5
5db
  8
Layer_0
  10
276.7169
  20
293.36646
  0
VERTEX
  5
5dc
  8
Layer_0
  10
277.22987
  20
292.23435
  0
VERTEX
  5
5dd
  8
Layer_0
  10
277.68867
  20
291.0637
  0
VERTEX
  5
5de
  8
Layer_0
  10
278.09552
  20
289.85138
  0
VERTEX
  5
5df
  8
Layer_0
  10
278.45259
  20
288.59427
  0
VERTEX
  5
5e0
  8
Layer_0
  10
278.76209
  20
287.28927
  0
VERTEX
  5
5e1
  8
Layer_0
  10
279.02621
  20
285.93325
  0
VERTEX
  5
5e2
  8
Layer_0
  10
279.24715
  20
284.52309
  0
VERTEX
  5
5e3
  8
Layer_0
  10
279.42711
  20
283.05568
  0
VERTEX
  5
5e4
  8
Layer_0
  10
279.56827
  20
281.5279
  0
VERTEX
  5
5e5
  8
Layer_0
  10
279.67285
  20
279.93663
  0
VERTEX
  5
5e6
  8
Layer_0
  10
279.74303
  20
278.27876
  0
VERTEX
  5
5e7
  8
Layer_0
  10
279.78101
  20
276.55117
  0
VERTEX
  5
5e8
  8
Layer_0
  10
279.78899
  20
274.75074
  0
VERTEX
  5
5e9
  8
Layer_0
  10
279.80528
  20
272.67537
  0
VERTEX
  5
5ea
  8
Layer_0
  10
279.86799
  20
270.6289
  0
VERTEX
  5
5eb
  8
Layer_0
  10
279.97645
  20
268.61284
  0
VERTEX
  5
5ec
  8
Layer_0
  10
280.12997
  20
266.62871
  0
VERTEX
  5
5ed
  8
Layer_0
  10
280.32786
  20
264.67801
  0
VERTEX
  5
5ee
  8
Layer_0
  10
280.56945
  20
262.76226
  0
VERTEX
  5
5ef
  8
Layer_0
  10
280.85404
  20
260.88297
  0
VERTEX
  5
5f0
  8
Layer_0
  10
281.18096
  20
259.04165
  0
VERTEX
  5
5f1
  8
Layer_0
  10
281.54952
  20
257.23981
  0
VERTEX
  5
5f2
  8
Layer_0
  10
281.95903
  20
255.47897
  0
VERTEX
  5
5f3
  8
Layer_0
  10
282.40882
  20
253.76064
  0
VERTEX
  5
5f4
  8
Layer_0
  10
282.8982
  20
252.08633
  0
VERTEX
  5
5f5
  8
Layer_0
  10
283.42648
  20
250.45756
  0
VERTEX
  5
5f6
  8
Layer_0
  10
283.99298
  20
248.87583
  0
VERTEX
  5
5f7
  8
Layer_0
  10
284.59702
  20
247.34265
  0
VERTEX
  5
5f8
  8
Layer_0
  10
285.23792
  20
245.85955
  0
VERTEX
  5
5f9
  8
Layer_0
  10
285.91499
  20
244.42803
  0
VERTEX
  5
5fa
  8
Layer_0
  10
286.62754
  20
243.0496
  0
VERTEX
  5
5fb
  8
Layer_0
  10
287.37489
  20
241.72578
  0
VERTEX
  5
5fc
  8
Layer_0
  10
288.15636
  20
240.45808
  0
VERTEX
  5
5fd
  8
Layer_0
  10
288.97127
  20
239.24801
  0
VERTEX
  5
5fe
  8
Layer_0
  10
289.81893
  20
238.09708
  0
VERTEX
  5
5ff
  8
Layer_0
  10
290.69866
  20
237.0068
  0
VERTEX
  5
600
  8
Layer_0
  10
291.60977
  20
235.9787
  0
VERTEX
  5
601
  8
Layer_0
  10
292.55158
  20
235.01427
  0
VERTEX
  5
602
  8
Layer_0
  10
293.5234
  20
234.11504
  0
VERTEX
  5
603
  8
Layer_0
  10
294.52456
  20
233.28251
  0
VERTEX
  5
604
  8
Layer_0
  10
295.55436
  20
232.51819
  0
VERTEX
  5
605
  8
Layer_0
  10
296.61213
  20
231.82361
  0
VERTEX
  5
606
  8
Layer_0
  10
297.69718
  20
231.20026
  0
VERTEX
  5
607
  8
Layer_0
  10
298.80883
  20
230.64967
  0
VERTEX
  5
608
  8
Layer_0
  10
299.94639
  20
230.17334
  0
VERTEX
  5
609
  8
Layer_0
  10
301.14289
  20
229.68148
  0
VERTEX
  5
60a
  8
Layer_0
  10
302.27184
  20
229.14297
  0
VERTEX
  5
60b
  8
Layer_0
  10
303.33558
  20
228.55499
  0
VERTEX
  5
60c
  8
Layer_0
  10
304.33641
  20
227.91469
  0
VERTEX
  5
60d
  8
Layer_0
  10
305.27668
  20
227.21924
  0
VERTEX
  5
60e
  8
Layer_0
  10
306.1587
  20
226.46581
  0
VERTEX
  5
60f
  8
Layer_0
  10
306.9848
  20
225.65154
  0
VERTEX
  5
610
  8
Layer_0
  10
307.7573
  20
224.77362
  0
VERTEX
  5
611
  8
Layer_0
  10
308.47854
  20
223.82919
  0
VERTEX
  5
612
  8
Layer_0
  10
309.15083
  20
222.81543
  0
VERTEX
  5
613
  8
Layer_0
  10
309.7765
  20
221.72949
  0
VERTEX
  5
614
  8
Layer_0
  10
310.35788
  20
220.56854
  0
VERTEX
  5
615
  8
Layer_0
  10
310.89729
  20
219.32975
  0
VERTEX
  5
616
  8
Layer_0
  10
311.39705
  20
218.01027
  0
VERTEX
  5
617
  8
Layer_0
  10
311.8595
  20
216.60727
  0
VERTEX
  5
618
  8
Layer_0
  10
312.28696
  20
215.1179
  0
VERTEX
  5
619
  8
Layer_0
  10
312.43583
  20
214.59945
  0
VERTEX
  5
61a
  8
Layer_0
  10
312.61064
  20
214.05831
  0
VERTEX
  5
61b
  8
Layer_0
  10
312.81105
  20
213.49491
  0
VERTEX
  5
61c
  8
Layer_0
  10
313.03674
  20
212.90967
  0
VERTEX
  5
61d
  8
Layer_0
  10
313.28739
  20
212.30299
  0
VERTEX
  5
61e
  8
Layer_0
  10
313.56266
  20
211.67531
  0
VERTEX
  5
61f
  8
Layer_0
  10
313.86222
  20
211.02705
  0
VERTEX
  5
620
  8
Layer_0
  10
314.18575
  20
210.35861
  0
VERTEX
  5
621
  8
Layer_0
  10
314.53292
  20
209.67042
  0
VERTEX
  5
622
  8
Layer_0
  10
314.9034
  20
208.96291
  0
VERTEX
  5
623
  8
Layer_0
  10
315.29686
  20
208.23648
  0
VERTEX
  5
624
  8
Layer_0
  10
315.71297
  20
207.49156
  0
VERTEX
  5
625
  8
Layer_0
  10
316.15141
  20
206.72857
  0
VERTEX
  5
626
  8
Layer_0
  10
316.61184
  20
205.94792
  0
VERTEX
  5
627
  8
Layer_0
  10
317.09394
  20
205.15004
  0
VERTEX
  5
628
  8
Layer_0
  10
317.59738
  20
204.33535
  0
VERTEX
  5
629
  8
Layer_0
  10
318.12184
  20
203.50426
  0
VERTEX
  5
62a
  8
Layer_0
  10
318.66697
  20
202.65719
  0
VERTEX
  5
62b
  8
Layer_0
  10
319.23246
  20
201.79456
  0
VERTEX
  5
62c
  8
Layer_0
  10
319.81798
  20
200.91679
  0
VERTEX
  5
62d
  8
Layer_0
  10
321.04778
  20
199.11752
  0
VERTEX
  5
62e
  8
Layer_0
  10
322.35374
  20
197.26272
  0
VERTEX
  5
62f
  8
Layer_0
  10
323.73325
  20
195.35575
  0
VERTEX
  5
630
  8
Layer_0
  10
325.18366
  20
193.39996
  0
VERTEX
  5
631
  8
Layer_0
  10
326.70236
  20
191.3987
  0
VERTEX
  5
632
  8
Layer_0
  10
328.28672
  20
189.35534
  0
VERTEX
  5
633
  8
Layer_0
  10
329.93411
  20
187.27321
  0
VERTEX
  5
634
  8
Layer_0
  10
331.64191
  20
185.15567
  0
VERTEX
  5
635
  8
Layer_0
  10
333.40748
  20
183.00608
  0
VERTEX
  5
636
  8
Layer_0
  10
335.22821
  20
180.82779
  0
VERTEX
  5
637
  8
Layer_0
  10
337.10145
  20
178.62416
  0
VERTEX
  5
638
  8
Layer_0
  10
339.0246
  20
176.39853
  0
VERTEX
  5
639
  8
Layer_0
  10
340.99502
  20
174.15426
  0
VERTEX
  5
63a
  8
Layer_0
  10
343.01008
  20
171.8947
  0
VERTEX
  5
63b
  8
Layer_0
  10
345.06716
  20
169.6232
  0
VERTEX
  5
63c
  8
Layer_0
  10
347.16363
  20
167.34313
  0
VERTEX
  5
63d
  8
Layer_0
  10
349.29687
  20
165.05783
  0
VERTEX
  5
63e
  8
Layer_0
  10
351.46424
  20
162.77065
  0
VERTEX
  5
63f
  8
Layer_0
  10
353.66312
  20
160.48496
  0
VERTEX
  5
640
  8
Layer_0
  10
355.89089
  20
158.20409
  0
VERTEX
  5
641
  8
Layer_0
  10
358.14491
  20
155.93141
  0
VERTEX
  5
642
  8
Layer_0
  10
360.42256
  20
153.67026
  0
VERTEX
  5
643
  8
Layer_0
  10
361.78244
  20
152.3654
  0
VERTEX
  5
644
  8
Layer_0
  10
363.18236
  20
151.0901
  0
VERTEX
  5
645
  8
Layer_0
  10
364.6217
  20
149.84462
  0
VERTEX
  5
646
  8
Layer_0
  10
366.09986
  20
148.62922
  0
VERTEX
  5
647
  8
Layer_0
  10
367.61622
  20
147.44416
  0
VERTEX
  5
648
  8
Layer_0
  10
369.17018
  20
146.28972
  0
VERTEX
  5
649
  8
Layer_0
  10
370.76111
  20
145.16614
  0
VERTEX
  5
64a
  8
Layer_0
  10
372.3884
  20
144.07369
  0
VERTEX
  5
64b
  8
Layer_0
  10
374.05145
  20
143.01263
  0
VERTEX
  5
64c
  8
Layer_0
  10
375.74964
  20
141.98322
  0
VERTEX
  5
64d
  8
Layer_0
  10
377.48235
  20
140.98574
  0
VERTEX
  5
64e
  8
Layer_0
  10
379.24898
  20
140.02043
  0
VERTEX
  5
64f
  8
Layer_0
  10
381.04892
  20
139.08755
  0
VERTEX
  5
650
  8
Layer_0
  10
382.88154
  20
138.18738
  0
VERTEX
  5
651
  8
Layer_0
  10
384.74624
  20
137.32018
  0
VERTEX
  5
652
  8
Layer_0
  10
386.64241
  20
136.48619
  0
VERTEX
  5
653
  8
Layer_0
  10
388.56943
  20
135.6857
  0
VERTEX
  5
654
  8
Layer_0
  10
390.52669
  20
134.91895
  0
VERTEX
  5
655
  8
Layer_0
  10
392.51358
  20
134.18622
  0
VERTEX
  5
656
  8
Layer_0
  10
394.52948
  20
133.48775
  0
VERTEX
  5
657
  8
Layer_0
  10
396.57378
  20
132.82382
  0
VERTEX
  5
658
  8
Layer_0
  10
398.64588
  20
132.19469
  0
VERTEX
  5
659
  8
Layer_0
  10
400.74515
  20
131.60061
  0
VERTEX
  5
65a
  8
Layer_0
  10
402.87099
  20
131.04186
  0
VERTEX
  5
65b
  8
Layer_0
  10
405.02278
  20
130.51868
  0
VERTEX
  5
65c
  8
Layer_0
  10
407.19991
  20
130.03135
  0
VERTEX
  5
65d
  8
Layer_0
  10
409.40177
  20
129.58013
  0
VERTEX
  5
65e
  8
Layer_0
  10
411.62775
  20
129.16527
  0
VERTEX
  5
65f
  8
Layer_0
  10
413.87723
  20
128.78704
  0
VERTEX
  5
660
  8
Layer_0
  10
416.14959
  20
128.4457
  0
VERTEX
  5
661
  8
Layer_0
  10
418.44424
  20
128.14152
  0
VERTEX
  5
662
  8
Layer_0
  10
420.76055
  20
127.87474
  0
VERTEX
  5
663
  8
Layer_0
  10
422.89976
  20
127.63709
  0
VERTEX
  5
664
  8
Layer_0
  10
425.10648
  20
127.37351
  0
VERTEX
  5
665
  8
Layer_0
  10
427.36384
  20
127.08675
  0
VERTEX
  5
666
  8
Layer_0
  10
429.65498
  20
126.77958
  0
VERTEX
  5
667
  8
Layer_0
  10
434.27115
  20
126.11498
  0
VERTEX
  5
668
  8
Layer_0
  10
438.82012
  20
125.40174
  0
VERTEX
  5
669
  8
Layer_0
  10
441.02725
  20
125.03377
  0
VERTEX
  5
66a
  8
Layer_0
  10
443.167
  20
124.6619
  0
VERTEX
  5
66b
  8
Layer_0
  10
444.20634
  20
124.47537
  0
VERTEX
  5
66c
  8
Layer_0
  10
445.22251
  20
124.2889
  0
VERTEX
  5
66d
  8
Layer_0
  10
446.2134
  20
124.10282
  0
VERTEX
  5
66e
  8
Layer_0
  10
447.17691
  20
123.9175
  0
VERTEX
  5
66f
  8
Layer_0
  10
448.11093
  20
123.73327
  0
VERTEX
  5
670
  8
Layer_0
  10
449.01335
  20
123.55047
  0
VERTEX
  5
671
  8
Layer_0
  10
449.88206
  20
123.36945
  0
VERTEX
  5
672
  8
Layer_0
  10
450.71496
  20
123.19056
  0
VERTEX
  5
673
  8
Layer_0
  10
451.50994
  20
123.01413
  0
VERTEX
  5
674
  8
Layer_0
  10
452.26489
  20
122.84052
  0
VERTEX
  5
675
  8
Layer_0
  10
452.9777
  20
122.67006
  0
VERTEX
  5
676
  8
Layer_0
  10
453.64627
  20
122.50311
  0
VERTEX
  5
677
  8
Layer_0
  10
454.97108
  20
122.18757
  0
VERTEX
  5
678
  8
Layer_0
  10
456.35503
  20
121.90168
  0
VERTEX
  5
679
  8
Layer_0
  10
457.78685
  20
121.64603
  0
VERTEX
  5
67a
  8
Layer_0
  10
459.25526
  20
121.42122
  0
VERTEX
  5
67b
  8
Layer_0
  10
460.749
  20
121.22784
  0
VERTEX
  5
67c
  8
Layer_0
  10
462.2568
  20
121.06648
  0
VERTEX
  5
67d
  8
Layer_0
  10
463.76738
  20
120.93775
  0
VERTEX
  5
67e
  8
Layer_0
  10
465.26948
  20
120.84222
  0
VERTEX
  5
67f
  8
Layer_0
  10
466.75183
  20
120.78051
  0
VERTEX
  5
680
  8
Layer_0
  10
468.20315
  20
120.75319
  0
VERTEX
  5
681
  8
Layer_0
  10
469.61217
  20
120.76087
  0
VERTEX
  5
682
  8
Layer_0
  10
470.96763
  20
120.80414
  0
VERTEX
  5
683
  8
Layer_0
  10
472.25826
  20
120.8836
  0
VERTEX
  5
684
  8
Layer_0
  10
473.47278
  20
120.99982
  0
VERTEX
  5
685
  8
Layer_0
  10
474.04798
  20
121.07191
  0
VERTEX
  5
686
  8
Layer_0
  10
474.59993
  20
121.15342
  0
VERTEX
  5
687
  8
Layer_0
  10
475.12722
  20
121.24442
  0
VERTEX
  5
688
  8
Layer_0
  10
475.62844
  20
121.34499
  0
VERTEX
  5
689
  8
Layer_0
  10
476.2318
  20
121.48851
  0
VERTEX
  5
68a
  8
Layer_0
  10
476.84055
  20
121.65926
  0
VERTEX
  5
68b
  8
Layer_0
  10
477.45429
  20
121.85671
  0
VERTEX
  5
68c
  8
Layer_0
  10
478.07263
  20
122.08037
  0
VERTEX
  5
68d
  8
Layer_0
  10
479.32153
  20
122.60424
  0
VERTEX
  5
68e
  8
Layer_0
  10
480.58411
  20
123.22678
  0
VERTEX
  5
68f
  8
Layer_0
  10
481.8572
  20
123.94392
  0
VERTEX
  5
690
  8
Layer_0
  10
483.13766
  20
124.75157
  0
VERTEX
  5
691
  8
Layer_0
  10
484.42233
  20
125.64566
  0
VERTEX
  5
692
  8
Layer_0
  10
485.70807
  20
126.6221
  0
VERTEX
  5
693
  8
Layer_0
  10
486.99171
  20
127.67682
  0
VERTEX
  5
694
  8
Layer_0
  10
488.27011
  20
128.80572
  0
VERTEX
  5
695
  8
Layer_0
  10
489.54012
  20
130.00473
  0
VERTEX
  5
696
  8
Layer_0
  10
490.79859
  20
131.26977
  0
VERTEX
  5
697
  8
Layer_0
  10
492.04236
  20
132.59676
  0
VERTEX
  5
698
  8
Layer_0
  10
493.26827
  20
133.98162
  0
VERTEX
  5
699
  8
Layer_0
  10
494.47319
  20
135.42026
  0
VERTEX
  5
69a
  8
Layer_0
  10
495.65395
  20
136.9086
  0
VERTEX
  5
69b
  8
Layer_0
  10
496.80741
  20
138.44257
  0
VERTEX
  5
69c
  8
Layer_0
  10
497.93042
  20
140.01809
  0
VERTEX
  5
69d
  8
Layer_0
  10
499.01981
  20
141.63106
  0
VERTEX
  5
69e
  8
Layer_0
  10
500.07245
  20
143.27742
  0
VERTEX
  5
69f
  8
Layer_0
  10
501.08517
  20
144.95307
  0
VERTEX
  5
6a0
  8
Layer_0
  10
502.05483
  20
146.65395
  0
VERTEX
  5
6a1
  8
Layer_0
  10
502.97827
  20
148.37596
  0
VERTEX
  5
6a2
  8
Layer_0
  10
503.85235
  20
150.11503
  0
VERTEX
  5
6a3
  8
Layer_0
  10
504.6739
  20
151.86707
  0
VERTEX
  5
6a4
  8
Layer_0
  10
505.43979
  20
153.62801
  0
VERTEX
  5
6a5
  8
Layer_0
  10
506.14685
  20
155.39377
  0
VERTEX
  5
6a6
  8
Layer_0
  10
506.79194
  20
157.16026
  0
VERTEX
  5
6a7
  8
Layer_0
  10
507.3719
  20
158.9234
  0
VERTEX
  5
6a8
  8
Layer_0
  10
507.88358
  20
160.67911
  0
VERTEX
  5
6a9
  8
Layer_0
  10
508.32383
  20
162.42331
  0
VERTEX
  5
6aa
  8
Layer_0
  10
508.6895
  20
164.15192
  0
VERTEX
  5
6ab
  8
Layer_0
  10
508.8555
  20
164.96099
  0
VERTEX
  5
6ac
  8
Layer_0
  10
509.05125
  20
165.80206
  0
VERTEX
  5
6ad
  8
Layer_0
  10
509.27593
  20
166.67345
  0
VERTEX
  5
6ae
  8
Layer_0
  10
509.52874
  20
167.5735
  0
VERTEX
  5
6af
  8
Layer_0
  10
509.8089
  20
168.50054
  0
VERTEX
  5
6b0
  8
Layer_0
  10
510.11558
  20
169.45291
  0
VERTEX
  5
6b1
  8
Layer_0
  10
510.448
  20
170.42895
  0
VERTEX
  5
6b2
  8
Layer_0
  10
510.80535
  20
171.42697
  0
VERTEX
  5
6b3
  8
Layer_0
  10
511.18684
  20
172.44533
  0
VERTEX
  5
6b4
  8
Layer_0
  10
511.59166
  20
173.48234
  0
VERTEX
  5
6b5
  8
Layer_0
  10
512.01901
  20
174.53635
  0
VERTEX
  5
6b6
  8
Layer_0
  10
512.46809
  20
175.60569
  0
VERTEX
  5
6b7
  8
Layer_0
  10
513.42824
  20
177.78369
  0
VERTEX
  5
6b8
  8
Layer_0
  10
514.46571
  20
180.00301
  0
VERTEX
  5
6b9
  8
Layer_0
  10
515.5741
  20
182.25032
  0
VERTEX
  5
6ba
  8
Layer_0
  10
516.74699
  20
184.51228
  0
VERTEX
  5
6bb
  8
Layer_0
  10
517.97799
  20
186.77556
  0
VERTEX
  5
6bc
  8
Layer_0
  10
519.26068
  20
189.02684
  0
VERTEX
  5
6bd
  8
Layer_0
  10
520.58868
  20
191.25278
  0
VERTEX
  5
6be
  8
Layer_0
  10
521.95556
  20
193.44005
  0
VERTEX
  5
6bf
  8
Layer_0
  10
523.35493
  20
195.57532
  0
VERTEX
  5
6c0
  8
Layer_0
  10
524.78039
  20
197.64526
  0
VERTEX
  5
6c1
  8
Layer_0
  10
525.78475
  20
199.07733
  0
VERTEX
  5
6c2
  8
Layer_0
  10
526.74452
  20
200.4687
  0
VERTEX
  5
6c3
  8
Layer_0
  10
527.6612
  20
201.82324
  0
VERTEX
  5
6c4
  8
Layer_0
  10
528.53632
  20
203.14483
  0
VERTEX
  5
6c5
  8
Layer_0
  10
529.37138
  20
204.43734
  0
VERTEX
  5
6c6
  8
Layer_0
  10
530.16791
  20
205.70465
  0
VERTEX
  5
6c7
  8
Layer_0
  10
530.92741
  20
206.95064
  0
VERTEX
  5
6c8
  8
Layer_0
  10
531.65141
  20
208.17919
  0
VERTEX
  5
6c9
  8
Layer_0
  10
532.34141
  20
209.39416
  0
VERTEX
  5
6ca
  8
Layer_0
  10
532.99894
  20
210.59943
  0
VERTEX
  5
6cb
  8
Layer_0
  10
533.6255
  20
211.79889
  0
VERTEX
  5
6cc
  8
Layer_0
  10
534.22261
  20
212.9964
  0
VERTEX
  5
6cd
  8
Layer_0
  10
534.79178
  20
214.19584
  0
VERTEX
  5
6ce
  8
Layer_0
  10
535.33454
  20
215.40109
  0
VERTEX
  5
6cf
  8
Layer_0
  10
535.85239
  20
216.61603
  0
VERTEX
  5
6d0
  8
Layer_0
  10
536.34686
  20
217.84453
  0
VERTEX
  5
6d1
  8
Layer_0
  10
536.81944
  20
219.09046
  0
VERTEX
  5
6d2
  8
Layer_0
  10
537.27167
  20
220.35771
  0
VERTEX
  5
6d3
  8
Layer_0
  10
537.70505
  20
221.65015
  0
VERTEX
  5
6d4
  8
Layer_0
  10
538.12111
  20
222.97165
  0
VERTEX
  5
6d5
  8
Layer_0
  10
538.52134
  20
224.32609
  0
VERTEX
  5
6d6
  8
Layer_0
  10
538.90728
  20
225.71735
  0
VERTEX
  5
6d7
  8
Layer_0
  10
539.28043
  20
227.1493
  0
VERTEX
  5
6d8
  8
Layer_0
  10
539.64231
  20
228.62582
  0
VERTEX
  5
6d9
  8
Layer_0
  10
539.99443
  20
230.15079
  0
VERTEX
  5
6da
  8
Layer_0
  10
540.33831
  20
231.72807
  0
VERTEX
  5
6db
  8
Layer_0
  10
540.67546
  20
233.36156
  0
VERTEX
  5
6dc
  8
Layer_0
  10
541.00741
  20
235.05511
  0
VERTEX
  5
6dd
  8
Layer_0
  10
541.33565
  20
236.81262
  0
VERTEX
  5
6de
  8
Layer_0
  10
541.66171
  20
238.63795
  0
VERTEX
  5
6df
  8
Layer_0
  10
541.98711
  20
240.53498
  0
VERTEX
  5
6e0
  8
Layer_0
  10
542.31335
  20
242.50759
  0
VERTEX
  5
6e1
  8
Layer_0
  10
542.61143
  20
244.30337
  0
VERTEX
  5
6e2
  8
Layer_0
  10
542.9136
  20
246.04891
  0
VERTEX
  5
6e3
  8
Layer_0
  10
543.22051
  20
247.74601
  0
VERTEX
  5
6e4
  8
Layer_0
  10
543.53281
  20
249.3965
  0
VERTEX
  5
6e5
  8
Layer_0
  10
543.85113
  20
251.00217
  0
VERTEX
  5
6e6
  8
Layer_0
  10
544.17612
  20
252.56485
  0
VERTEX
  5
6e7
  8
Layer_0
  10
544.50842
  20
254.08634
  0
VERTEX
  5
6e8
  8
Layer_0
  10
544.84869
  20
255.56845
  0
VERTEX
  5
6e9
  8
Layer_0
  10
545.19755
  20
257.01299
  0
VERTEX
  5
6ea
  8
Layer_0
  10
545.55566
  20
258.42178
  0
VERTEX
  5
6eb
  8
Layer_0
  10
545.92366
  20
259.79663
  0
VERTEX
  5
6ec
  8
Layer_0
  10
546.30219
  20
261.13934
  0
VERTEX
  5
6ed
  8
Layer_0
  10
546.6919
  20
262.45173
  0
VERTEX
  5
6ee
  8
Layer_0
  10
547.09342
  20
263.73561
  0
VERTEX
  5
6ef
  8
Layer_0
  10
547.50742
  20
264.99278
  0
VERTEX
  5
6f0
  8
Layer_0
  10
547.93452
  20
266.22507
  0
VERTEX
  5
6f1
  8
Layer_0
  10
548.83062
  20
268.62222
  0
VERTEX
  5
6f2
  8
Layer_0
  10
549.78687
  20
270.94154
  0
VERTEX
  5
6f3
  8
Layer_0
  10
550.80844
  20
273.19752
  0
VERTEX
  5
6f4
  8
Layer_0
  10
551.90046
  20
275.40464
  0
VERTEX
  5
6f5
  8
Layer_0
  10
553.0681
  20
277.5774
  0
VERTEX
  5
6f6
  8
Layer_0
  10
554.31649
  20
279.73028
  0
VERTEX
  5
6f7
  8
Layer_0
  10
555.65078
  20
281.87776
  0
VERTEX
  5
6f8
  8
Layer_0
  10
557.07614
  20
284.03434
  0
VERTEX
  5
6f9
  8
Layer_0
  10
558.50714
  20
286.14893
  0
VERTEX
  5
6fa
  8
Layer_0
  10
559.87591
  20
288.19217
  0
VERTEX
  5
6fb
  8
Layer_0
  10
561.18356
  20
290.16646
  0
VERTEX
  5
6fc
  8
Layer_0
  10
562.4312
  20
292.07421
  0
VERTEX
  5
6fd
  8
Layer_0
  10
563.61994
  20
293.9178
  0
VERTEX
  5
6fe
  8
Layer_0
  10
564.75089
  20
295.69963
  0
VERTEX
  5
6ff
  8
Layer_0
  10
565.82515
  20
297.42211
  0
VERTEX
  5
700
  8
Layer_0
  10
566.84385
  20
299.08763
  0
VERTEX
  5
701
  8
Layer_0
  10
567.80807
  20
300.69859
  0
VERTEX
  5
702
  8
Layer_0
  10
568.71895
  20
302.25739
  0
VERTEX
  5
703
  8
Layer_0
  10
569.57757
  20
303.76643
  0
VERTEX
  5
704
  8
Layer_0
  10
570.38506
  20
305.22809
  0
VERTEX
  5
705
  8
Layer_0
  10
571.14252
  20
306.64479
  0
VERTEX
  5
706
  8
Layer_0
  10
571.85106
  20
308.01892
  0
VERTEX
  5
707
  8
Layer_0
  10
572.51178
  20
309.35288
  0
VERTEX
  5
708
  8
Layer_0
  10
573.12581
  20
310.64906
  0
VERTEX
  5
709
  8
Layer_0
  10
573.69424
  20
311.90986
  0
VERTEX
  5
70a
  8
Layer_0
  10
574.21818
  20
313.13768
  0
VERTEX
  5
70b
  8
Layer_0
  10
574.69875
  20
314.33493
  0
VERTEX
  5
70c
  8
Layer_0
  10
575.13706
  20
315.50399
  0
VERTEX
  5
70d
  8
Layer_0
  10
575.5342
  20
316.64727
  0
VERTEX
  5
70e
  8
Layer_0
  10
575.8913
  20
317.76716
  0
VERTEX
  5
70f
  8
Layer_0
  10
576.20946
  20
318.86606
  0
VERTEX
  5
710
  8
Layer_0
  10
576.48979
  20
319.94637
  0
VERTEX
  5
711
  8
Layer_0
  10
576.73339
  20
321.01048
  0
VERTEX
  5
712
  8
Layer_0
  10
576.94138
  20
322.0608
  0
VERTEX
  5
713
  8
Layer_0
  10
577.11487
  20
323.09973
  0
VERTEX
  5
714
  8
Layer_0
  10
577.25496
  20
324.12965
  0
VERTEX
  5
715
  8
Layer_0
  10
577.36276
  20
325.15297
  0
VERTEX
  5
716
  8
Layer_0
  10
577.43939
  20
326.17209
  0
VERTEX
  5
717
  8
Layer_0
  10
577.48595
  20
327.18941
  0
VERTEX
  5
718
  8
Layer_0
  10
577.50355
  20
328.20731
  0
VERTEX
  5
719
  8
Layer_0
  10
577.499
  20
328.8776
  0
VERTEX
  5
71a
  8
Layer_0
  10
577.48109
  20
329.58359
  0
VERTEX
  5
71b
  8
Layer_0
  10
577.45012
  20
330.32398
  0
VERTEX
  5
71c
  8
Layer_0
  10
577.40641
  20
331.09749
  0
VERTEX
  5
71d
  8
Layer_0
  10
577.35024
  20
331.90285
  0
VERTEX
  5
71e
  8
Layer_0
  10
577.28193
  20
332.73875
  0
VERTEX
  5
71f
  8
Layer_0
  10
577.20179
  20
333.60393
  0
VERTEX
  5
720
  8
Layer_0
  10
577.11011
  20
334.49709
  0
VERTEX
  5
721
  8
Layer_0
  10
577.0072
  20
335.41694
  0
VERTEX
  5
722
  8
Layer_0
  10
576.89337
  20
336.36222
  0
VERTEX
  5
723
  8
Layer_0
  10
576.76892
  20
337.33162
  0
VERTEX
  5
724
  8
Layer_0
  10
576.63415
  20
338.32386
  0
VERTEX
  5
725
  8
Layer_0
  10
576.33489
  20
340.37175
  0
VERTEX
  5
726
  8
Layer_0
  10
575.99802
  20
342.49559
  0
VERTEX
  5
727
  8
Layer_0
  10
575.62599
  20
344.68512
  0
VERTEX
  5
728
  8
Layer_0
  10
575.22122
  20
346.93004
  0
VERTEX
  5
729
  8
Layer_0
  10
574.78616
  20
349.22009
  0
VERTEX
  5
72a
  8
Layer_0
  10
574.32324
  20
351.54498
  0
VERTEX
  5
72b
  8
Layer_0
  10
573.32357
  20
356.25818
  0
VERTEX
  5
72c
  8
Layer_0
  10
572.2417
  20
360.98741
  0
VERTEX
  5
72d
  8
Layer_0
  10
571.67603
  20
363.33233
  0
VERTEX
  5
72e
  8
Layer_0
  10
571.09713
  20
365.65043
  0
VERTEX
  5
72f
  8
Layer_0
  10
570.50742
  20
367.93142
  0
VERTEX
  5
730
  8
Layer_0
  10
569.90935
  20
370.16502
  0
VERTEX
  5
731
  8
Layer_0
  10
569.30534
  20
372.34095
  0
VERTEX
  5
732
  8
Layer_0
  10
568.69785
  20
374.44894
  0
VERTEX
  5
733
  8
Layer_0
  10
568.0893
  20
376.47871
  0
VERTEX
  5
734
  8
Layer_0
  10
567.48213
  20
378.41997
  0
VERTEX
  5
735
  8
Layer_0
  10
567.17982
  20
379.3542
  0
VERTEX
  5
736
  8
Layer_0
  10
566.87877
  20
380.26245
  0
VERTEX
  5
737
  8
Layer_0
  10
566.57929
  20
381.14343
  0
VERTEX
  5
738
  8
Layer_0
  10
566.28167
  20
381.99587
  0
VERTEX
  5
739
  8
Layer_0
  10
565.98623
  20
382.81846
  0
VERTEX
  5
73a
  8
Layer_0
  10
565.69326
  20
383.60994
  0
VERTEX
  5
73b
  8
Layer_0
  10
565.40308
  20
384.36902
  0
VERTEX
  5
73c
  8
Layer_0
  10
565.11598
  20
385.0944
  0
VERTEX
  5
73d
  8
Layer_0
  10
564.83227
  20
385.78481
  0
VERTEX
  5
73e
  8
Layer_0
  10
564.55226
  20
386.43897
  0
VERTEX
  5
73f
  8
Layer_0
  10
564.27625
  20
387.05557
  0
VERTEX
  5
740
  8
Layer_0
  10
564.00454
  20
387.63335
  0
VERTEX
  5
741
  8
Layer_0
  10
563.73744
  20
388.17102
  0
VERTEX
  5
742
  8
Layer_0
  10
563.47526
  20
388.66728
  0
VERTEX
  5
743
  8
Layer_0
  10
563.21829
  20
389.12087
  0
VERTEX
  5
744
  8
Layer_0
  10
562.96685
  20
389.53048
  0
VERTEX
  5
745
  8
Layer_0
  10
562.38925
  20
390.48095
  0
VERTEX
  5
746
  8
Layer_0
  10
561.87821
  20
391.43208
  0
VERTEX
  5
747
  8
Layer_0
  10
561.43333
  20
392.38869
  0
VERTEX
  5
748
  8
Layer_0
  10
561.05421
  20
393.3556
  0
VERTEX
  5
749
  8
Layer_0
  10
560.74047
  20
394.33764
  0
VERTEX
  5
74a
  8
Layer_0
  10
560.4917
  20
395.33963
  0
VERTEX
  5
74b
  8
Layer_0
  10
560.30751
  20
396.3664
  0
VERTEX
  5
74c
  8
Layer_0
  10
560.18751
  20
397.42277
  0
VERTEX
  5
74d
  8
Layer_0
  10
560.13129
  20
398.51356
  0
VERTEX
  5
74e
  8
Layer_0
  10
560.13846
  20
399.6436
  0
VERTEX
  5
74f
  8
Layer_0
  10
560.20863
  20
400.81772
  0
VERTEX
  5
750
  8
Layer_0
  10
560.3414
  20
402.04073
  0
VERTEX
  5
751
  8
Layer_0
  10
560.53637
  20
403.31746
  0
VERTEX
  5
752
  8
Layer_0
  10
560.79314
  20
404.65273
  0
VERTEX
  5
753
  8
Layer_0
  10
561.11133
  20
406.05137
  0
VERTEX
  5
754
  8
Layer_0
  10
561.49054
  20
407.51821
  0
VERTEX
  5
755
  8
Layer_0
  10
561.80642
  20
408.70357
  0
VERTEX
  5
756
  8
Layer_0
  10
562.13326
  20
409.9804
  0
VERTEX
  5
757
  8
Layer_0
  10
562.4685
  20
411.33678
  0
VERTEX
  5
758
  8
Layer_0
  10
562.80961
  20
412.76079
  0
VERTEX
  5
759
  8
Layer_0
  10
563.15407
  20
414.24049
  0
VERTEX
  5
75a
  8
Layer_0
  10
563.49932
  20
415.76396
  0
VERTEX
  5
75b
  8
Layer_0
  10
563.84283
  20
417.31927
  0
VERTEX
  5
75c
  8
Layer_0
  10
564.18207
  20
418.89449
  0
VERTEX
  5
75d
  8
Layer_0
  10
564.83759
  20
422.05697
  0
VERTEX
  5
75e
  8
Layer_0
  10
565.44559
  20
425.15598
  0
VERTEX
  5
75f
  8
Layer_0
  10
565.72542
  20
426.65186
  0
VERTEX
  5
760
  8
Layer_0
  10
565.98577
  20
428.09609
  0
VERTEX
  5
761
  8
Layer_0
  10
566.22409
  20
429.47674
  0
VERTEX
  5
762
  8
Layer_0
  10
566.43784
  20
430.78189
  0
VERTEX
  5
763
  8
Layer_0
  10
566.56695
  20
431.50699
  0
VERTEX
  5
764
  8
Layer_0
  10
566.72822
  20
432.25992
  0
VERTEX
  5
765
  8
Layer_0
  10
566.92118
  20
433.03983
  0
VERTEX
  5
766
  8
Layer_0
  10
567.14536
  20
433.84586
  0
VERTEX
  5
767
  8
Layer_0
  10
567.40029
  20
434.67716
  0
VERTEX
  5
768
  8
Layer_0
  10
567.68552
  20
435.53286
  0
VERTEX
  5
769
  8
Layer_0
  10
568.00057
  20
436.4121
  0
VERTEX
  5
76a
  8
Layer_0
  10
568.34499
  20
437.31402
  0
VERTEX
  5
76b
  8
Layer_0
  10
568.71829
  20
438.23778
  0
VERTEX
  5
76c
  8
Layer_0
  10
569.12002
  20
439.1825
  0
VERTEX
  5
76d
  8
Layer_0
  10
569.54971
  20
440.14733
  0
VERTEX
  5
76e
  8
Layer_0
  10
570.0069
  20
441.13141
  0
VERTEX
  5
76f
  8
Layer_0
  10
570.49112
  20
442.13389
  0
VERTEX
  5
770
  8
Layer_0
  10
571.0019
  20
443.15389
  0
VERTEX
  5
771
  8
Layer_0
  10
571.53878
  20
444.19057
  0
VERTEX
  5
772
  8
Layer_0
  10
572.10129
  20
445.24307
  0
VERTEX
  5
773
  8
Layer_0
  10
572.68897
  20
446.31052
  0
VERTEX
  5
774
  8
Layer_0
  10
573.30134
  20
447.39207
  0
VERTEX
  5
775
  8
Layer_0
  10
573.93795
  20
448.48685
  0
VERTEX
  5
776
  8
Layer_0
  10
574.59833
  20
449.59402
  0
VERTEX
  5
777
  8
Layer_0
  10
575.98852
  20
451.84206
  0
VERTEX
  5
778
  8
Layer_0
  10
577.46819
  20
454.12931
  0
VERTEX
  5
779
  8
Layer_0
  10
579.03361
  20
456.44891
  0
VERTEX
  5
77a
  8
Layer_0
  10
580.68106
  20
458.79398
  0
VERTEX
  5
77b
  8
Layer_0
  10
582.40681
  20
461.15766
  0
VERTEX
  5
77c
  8
Layer_0
  10
584.20712
  20
463.53306
  0
VERTEX
  5
77d
  8
Layer_0
  10
585.48249
  20
465.19035
  0
VERTEX
  5
77e
  8
Layer_0
  10
586.72293
  20
466.81287
  0
VERTEX
  5
77f
  8
Layer_0
  10
587.9287
  20
468.40142
  0
VERTEX
  5
780
  8
Layer_0
  10
589.10007
  20
469.95682
  0
VERTEX
  5
781
  8
Layer_0
  10
590.23728
  20
471.47988
  0
VERTEX
  5
782
  8
Layer_0
  10
591.34058
  20
472.97141
  0
VERTEX
  5
783
  8
Layer_0
  10
592.41023
  20
474.43223
  0
VERTEX
  5
784
  8
Layer_0
  10
593.44648
  20
475.86314
  0
VERTEX
  5
785
  8
Layer_0
  10
594.44959
  20
477.26496
  0
VERTEX
  5
786
  8
Layer_0
  10
595.4198
  20
478.6385
  0
VERTEX
  5
787
  8
Layer_0
  10
596.35738
  20
479.98458
  0
VERTEX
  5
788
  8
Layer_0
  10
597.26258
  20
481.304
  0
VERTEX
  5
789
  8
Layer_0
  10
598.13565
  20
482.59757
  0
VERTEX
  5
78a
  8
Layer_0
  10
598.97684
  20
483.86612
  0
VERTEX
  5
78b
  8
Layer_0
  10
599.7864
  20
485.11045
  0
VERTEX
  5
78c
  8
Layer_0
  10
600.5646
  20
486.33137
  0
VERTEX
  5
78d
  8
Layer_0
  10
601.31168
  20
487.5297
  0
VERTEX
  5
78e
  8
Layer_0
  10
602.0279
  20
488.70625
  0
VERTEX
  5
78f
  8
Layer_0
  10
602.71351
  20
489.86183
  0
VERTEX
  5
790
  8
Layer_0
  10
603.36877
  20
490.99724
  0
VERTEX
  5
791
  8
Layer_0
  10
603.99392
  20
492.11332
  0
VERTEX
  5
792
  8
Layer_0
  10
604.58923
  20
493.21086
  0
VERTEX
  5
793
  8
Layer_0
  10
605.15494
  20
494.29068
  0
VERTEX
  5
794
  8
Layer_0
  10
605.69131
  20
495.35359
  0
VERTEX
  5
795
  8
Layer_0
  10
606.19859
  20
496.4004
  0
VERTEX
  5
796
  8
Layer_0
  10
606.67704
  20
497.43193
  0
VERTEX
  5
797
  8
Layer_0
  10
607.12691
  20
498.44898
  0
VERTEX
  5
798
  8
Layer_0
  10
607.54845
  20
499.45238
  0
VERTEX
  5
799
  8
Layer_0
  10
607.94192
  20
500.44292
  0
VERTEX
  5
79a
  8
Layer_0
  10
608.30757
  20
501.42143
  0
VERTEX
  5
79b
  8
Layer_0
  10
608.64565
  20
502.38872
  0
VERTEX
  5
79c
  8
Layer_0
  10
608.95642
  20
503.34559
  0
VERTEX
  5
79d
  8
Layer_0
  10
609.24013
  20
504.29286
  0
VERTEX
  5
79e
  8
Layer_0
  10
609.49704
  20
505.23135
  0
VERTEX
  5
79f
  8
Layer_0
  10
609.72739
  20
506.16186
  0
VERTEX
  5
7a0
  8
Layer_0
  10
609.93145
  20
507.08521
  0
VERTEX
  5
7a1
  8
Layer_0
  10
610.10946
  20
508.0022
  0
VERTEX
  5
7a2
  8
Layer_0
  10
610.26168
  20
508.91366
  0
VERTEX
  5
7a3
  8
Layer_0
  10
610.38836
  20
509.82039
  0
VERTEX
  5
7a4
  8
Layer_0
  10
610.48976
  20
510.7232
  0
VERTEX
  5
7a5
  8
Layer_0
  10
610.61771
  20
512.52034
  0
VERTEX
  5
7a6
  8
Layer_0
  10
610.64758
  20
514.31156
  0
VERTEX
  5
7a7
  8
Layer_0
  10
610.58137
  20
516.10336
  0
VERTEX
  5
7a8
  8
Layer_0
  10
610.42113
  20
517.90224
  0
VERTEX
  5
7a9
  8
Layer_0
  10
610.16889
  20
519.7147
  0
VERTEX
  5
7aa
  8
Layer_0
  10
609.82666
  20
521.54724
  0
VERTEX
  5
7ab
  8
Layer_0
  10
609.39648
  20
523.40635
  0
VERTEX
  5
7ac
  8
Layer_0
  10
608.88037
  20
525.29852
  0
VERTEX
  5
7ad
  8
Layer_0
  10
608.28038
  20
527.23026
  0
VERTEX
  5
7ae
  8
Layer_0
  10
607.59851
  20
529.20807
  0
VERTEX
  5
7af
  8
Layer_0
  10
606.83681
  20
531.23843
  0
VERTEX
  5
7b0
  8
Layer_0
  10
605.99729
  20
533.32786
  0
VERTEX
  5
7b1
  8
Layer_0
  10
605.50182
  20
534.53167
  0
VERTEX
  5
7b2
  8
Layer_0
  10
605.02028
  20
535.71431
  0
VERTEX
  5
7b3
  8
Layer_0
  10
604.55518
  20
536.86911
  0
VERTEX
  5
7b4
  8
Layer_0
  10
604.10899
  20
537.98941
  0
VERTEX
  5
7b5
  8
Layer_0
  10
603.68421
  20
539.06855
  0
VERTEX
  5
7b6
  8
Layer_0
  10
603.28333
  20
540.09987
  0
VERTEX
  5
7b7
  8
Layer_0
  10
602.90885
  20
541.07671
  0
VERTEX
  5
7b8
  8
Layer_0
  10
602.56326
  20
541.99241
  0
VERTEX
  5
7b9
  8
Layer_0
  10
602.24904
  20
542.84032
  0
VERTEX
  5
7ba
  8
Layer_0
  10
601.96869
  20
543.61376
  0
VERTEX
  5
7bb
  8
Layer_0
  10
601.72471
  20
544.30609
  0
VERTEX
  5
7bc
  8
Layer_0
  10
601.51957
  20
544.91063
  0
VERTEX
  5
7bd
  8
Layer_0
  10
601.43236
  20
545.17791
  0
VERTEX
  5
7be
  8
Layer_0
  10
601.35579
  20
545.42074
  0
VERTEX
  5
7bf
  8
Layer_0
  10
601.29018
  20
545.6383
  0
VERTEX
  5
7c0
  8
Layer_0
  10
601.23583
  20
545.82975
  0
VERTEX
  5
7c1
  8
Layer_0
  10
601.19308
  20
545.99426
  0
VERTEX
  5
7c2
  8
Layer_0
  10
601.16221
  20
546.131
  0
VERTEX
  5
7c3
  8
Layer_0
  10
601.14355
  20
546.23914
  0
VERTEX
  5
7c4
  8
Layer_0
  10
601.13741
  20
546.31784
  0
VERTEX
  5
7c5
  8
Layer_0
  10
601.15629
  20
546.3811
  0
VERTEX
  5
7c6
  8
Layer_0
  10
601.21188
  20
546.44343
  0
VERTEX
  5
7c7
  8
Layer_0
  10
601.30327
  20
546.50476
  0
VERTEX
  5
7c8
  8
Layer_0
  10
601.42955
  20
546.56501
  0
VERTEX
  5
7c9
  8
Layer_0
  10
601.5898
  20
546.62411
  0
VERTEX
  5
7ca
  8
Layer_0
  10
601.78309
  20
546.68197
  0
VERTEX
  5
7cb
  8
Layer_0
  10
602.00853
  20
546.73852
  0
VERTEX
  5
7cc
  8
Layer_0
  10
602.2652
  20
546.79368
  0
VERTEX
  5
7cd
  8
Layer_0
  10
602.55217
  20
546.84739
  0
VERTEX
  5
7ce
  8
Layer_0
  10
602.86854
  20
546.89955
  0
VERTEX
  5
7cf
  8
Layer_0
  10
603.21338
  20
546.95011
  0
VERTEX
  5
7d0
  8
Layer_0
  10
603.5858
  20
546.99897
  0
VERTEX
  5
7d1
  8
Layer_0
  10
604.40965
  20
547.09133
  0
VERTEX
  5
7d2
  8
Layer_0
  10
605.33279
  20
547.17602
  0
VERTEX
  5
7d3
  8
Layer_0
  10
606.34789
  20
547.25243
  0
VERTEX
  5
7d4
  8
Layer_0
  10
607.44763
  20
547.31996
  0
VERTEX
  5
7d5
  8
Layer_0
  10
608.62469
  20
547.37799
  0
VERTEX
  5
7d6
  8
Layer_0
  10
609.87175
  20
547.42591
  0
VERTEX
  5
7d7
  8
Layer_0
  10
611.1815
  20
547.46313
  0
VERTEX
  5
7d8
  8
Layer_0
  10
612.54661
  20
547.48903
  0
VERTEX
  5
7d9
  8
Layer_0
  10
613.95976
  20
547.50299
  0
VERTEX
  5
7da
  8
Layer_0
  10
615.41364
  20
547.50443
  0
VERTEX
  5
7db
  8
Layer_0
  10
616.83349
  20
547.52703
  0
VERTEX
  5
7dc
  8
Layer_0
  10
618.2578
  20
547.60329
  0
VERTEX
  5
7dd
  8
Layer_0
  10
619.68332
  20
547.73136
  0
VERTEX
  5
7de
  8
Layer_0
  10
621.10683
  20
547.90938
  0
VERTEX
  5
7df
  8
Layer_0
  10
622.52506
  20
548.13547
  0
VERTEX
  5
7e0
  8
Layer_0
  10
623.93478
  20
548.40779
  0
VERTEX
  5
7e1
  8
Layer_0
  10
625.33275
  20
548.72447
  0
VERTEX
  5
7e2
  8
Layer_0
  10
626.71572
  20
549.08365
  0
VERTEX
  5
7e3
  8
Layer_0
  10
628.08045
  20
549.48346
  0
VERTEX
  5
7e4
  8
Layer_0
  10
629.42371
  20
549.92206
  0
VERTEX
  5
7e5
  8
Layer_0
  10
630.74224
  20
550.39757
  0
VERTEX
  5
7e6
  8
Layer_0
  10
632.0328
  20
550.90815
  0
VERTEX
  5
7e7
  8
Layer_0
  10
633.29215
  20
551.45192
  0
VERTEX
  5
7e8
  8
Layer_0
  10
634.51706
  20
552.02702
  0
VERTEX
  5
7e9
  8
Layer_0
  10
635.70426
  20
552.63161
  0
VERTEX
  5
7ea
  8
Layer_0
  10
636.85054
  20
553.2638
  0
VERTEX
  5
7eb
  8
Layer_0
  10
637.95263
  20
553.92175
  0
VERTEX
  5
7ec
  8
Layer_0
  10
639.0073
  20
554.6036
  0
VERTEX
  5
7ed
  8
Layer_0
  10
640.01131
  20
555.30748
  0
VERTEX
  5
7ee
  8
Layer_0
  10
640.96141
  20
556.03153
  0
VERTEX
  5
7ef
  8
Layer_0
  10
641.85436
  20
556.77389
  0
VERTEX
  5
7f0
  8
Layer_0
  10
642.68692
  20
557.5327
  0
VERTEX
  5
7f1
  8
Layer_0
  10
643.45584
  20
558.30611
  0
VERTEX
  5
7f2
  8
Layer_0
  10
644.15789
  20
559.09224
  0
VERTEX
  5
7f3
  8
Layer_0
  10
644.78981
  20
559.88924
  0
VERTEX
  5
7f4
  8
Layer_0
  10
645.34838
  20
560.69525
  0
VERTEX
  5
7f5
  8
Layer_0
  10
645.83034
  20
561.50841
  0
VERTEX
  5
7f6
  8
Layer_0
  10
646.23245
  20
562.32686
  0
VERTEX
  5
7f7
  8
Layer_0
  10
646.55147
  20
563.14873
  0
VERTEX
  5
7f8
  8
Layer_0
  10
646.78416
  20
563.97217
  0
VERTEX
  5
7f9
  8
Layer_0
  10
646.92727
  20
564.79531
  0
VERTEX
  5
7fa
  8
Layer_0
  10
646.97757
  20
565.6163
  0
VERTEX
  5
7fb
  8
Layer_0
  10
647.01653
  20
566.25544
  0
VERTEX
  5
7fc
  8
Layer_0
  10
647.12824
  20
566.84418
  0
VERTEX
  5
7fd
  8
Layer_0
  10
647.31176
  20
567.38264
  0
VERTEX
  5
7fe
  8
Layer_0
  10
647.56616
  20
567.87093
  0
VERTEX
  5
7ff
  8
Layer_0
  10
647.89049
  20
568.30916
  0
VERTEX
  5
800
  8
Layer_0
  10
648.28383
  20
568.69746
  0
VERTEX
  5
801
  8
Layer_0
  10
648.74523
  20
569.03593
  0
VERTEX
  5
802
  8
Layer_0
  10
649.27376
  20
569.32468
  0
VERTEX
  5
803
  8
Layer_0
  10
649.86847
  20
569.56384
  0
VERTEX
  5
804
  8
Layer_0
  10
650.52844
  20
569.75351
  0
VERTEX
  5
805
  8
Layer_0
  10
651.25272
  20
569.89382
  0
VERTEX
  5
806
  8
Layer_0
  10
652.04038
  20
569.98486
  0
VERTEX
  5
807
  8
Layer_0
  10
652.89048
  20
570.02677
  0
VERTEX
  5
808
  8
Layer_0
  10
653.80208
  20
570.01965
  0
VERTEX
  5
809
  8
Layer_0
  10
654.77425
  20
569.96361
  0
VERTEX
  5
80a
  8
Layer_0
  10
655.80605
  20
569.85877
  0
VERTEX
  5
80b
  8
Layer_0
  10
656.89654
  20
569.70525
  0
VERTEX
  5
80c
  8
Layer_0
  10
658.04479
  20
569.50315
  0
VERTEX
  5
80d
  8
Layer_0
  10
659.24985
  20
569.2526
  0
VERTEX
  5
80e
  8
Layer_0
  10
660.5108
  20
568.9537
  0
VERTEX
  5
80f
  8
Layer_0
  10
661.82669
  20
568.60657
  0
VERTEX
  5
810
  8
Layer_0
  10
663.19658
  20
568.21133
  0
VERTEX
  5
811
  8
Layer_0
  10
664.61955
  20
567.76809
  0
VERTEX
  5
812
  8
Layer_0
  10
666.09464
  20
567.27696
  0
VERTEX
  5
813
  8
Layer_0
  10
667.62093
  20
566.73805
  0
VERTEX
  5
814
  8
Layer_0
  10
669.19748
  20
566.15149
  0
VERTEX
  5
815
  8
Layer_0
  10
670.82335
  20
565.51738
  0
VERTEX
  5
816
  8
Layer_0
  10
672.49761
  20
564.83584
  0
VERTEX
  5
817
  8
Layer_0
  10
674.21931
  20
564.10698
  0
VERTEX
  5
818
  8
Layer_0
  10
675.98752
  20
563.33092
  0
VERTEX
  5
819
  8
Layer_0
  10
677.8013
  20
562.50776
  0
VERTEX
  5
81a
  8
Layer_0
  10
679.65972
  20
561.63764
  0
VERTEX
  5
81b
  8
Layer_0
  10
681.1233
  20
560.94673
  0
VERTEX
  5
81c
  8
Layer_0
  10
682.5258
  20
560.29507
  0
VERTEX
  5
81d
  8
Layer_0
  10
683.87234
  20
559.68187
  0
VERTEX
  5
81e
  8
Layer_0
  10
685.16801
  20
559.10629
  0
VERTEX
  5
81f
  8
Layer_0
  10
686.41793
  20
558.56753
  0
VERTEX
  5
820
  8
Layer_0
  10
687.6272
  20
558.06477
  0
VERTEX
  5
821
  8
Layer_0
  10
688.80093
  20
557.5972
  0
VERTEX
  5
822
  8
Layer_0
  10
689.94423
  20
557.16401
  0
VERTEX
  5
823
  8
Layer_0
  10
691.06221
  20
556.76437
  0
VERTEX
  5
824
  8
Layer_0
  10
692.15997
  20
556.39748
  0
VERTEX
  5
825
  8
Layer_0
  10
693.24261
  20
556.06253
  0
VERTEX
  5
826
  8
Layer_0
  10
694.31526
  20
555.75869
  0
VERTEX
  5
827
  8
Layer_0
  10
695.38301
  20
555.48516
  0
VERTEX
  5
828
  8
Layer_0
  10
696.45097
  20
555.24111
  0
VERTEX
  5
829
  8
Layer_0
  10
697.52424
  20
555.02574
  0
VERTEX
  5
82a
  8
Layer_0
  10
698.60795
  20
554.83824
  0
VERTEX
  5
82b
  8
Layer_0
  10
699.70719
  20
554.67778
  0
VERTEX
  5
82c
  8
Layer_0
  10
700.82707
  20
554.54355
  0
VERTEX
  5
82d
  8
Layer_0
  10
701.9727
  20
554.43474
  0
VERTEX
  5
82e
  8
Layer_0
  10
703.14918
  20
554.35054
  0
VERTEX
  5
82f
  8
Layer_0
  10
704.36163
  20
554.29013
  0
VERTEX
  5
830
  8
Layer_0
  10
705.61514
  20
554.2527
  0
VERTEX
  5
831
  8
Layer_0
  10
706.91484
  20
554.23743
  0
VERTEX
  5
832
  8
Layer_0
  10
708.26582
  20
554.2435
  0
VERTEX
  5
833
  8
Layer_0
  10
709.67319
  20
554.27012
  0
VERTEX
  5
834
  8
Layer_0
  10
711.14207
  20
554.31645
  0
VERTEX
  5
835
  8
Layer_0
  10
712.67755
  20
554.38169
  0
VERTEX
  5
836
  8
Layer_0
  10
714.28474
  20
554.46502
  0
VERTEX
  5
837
  8
Layer_0
  10
715.96876
  20
554.56563
  0
VERTEX
  5
838
  8
Layer_0
  10
717.7347
  20
554.68271
  0
VERTEX
  5
839
  8
Layer_0
  10
719.58768
  20
554.81543
  0
VERTEX
  5
83a
  8
Layer_0
  10
721.53281
  20
554.96299
  0
VERTEX
  5
83b
  8
Layer_0
  10
723.22294
  20
555.09006
  0
VERTEX
  5
83c
  8
Layer_0
  10
724.85365
  20
555.20403
  0
VERTEX
  5
83d
  8
Layer_0
  10
726.42682
  20
555.30472
  0
VERTEX
  5
83e
  8
Layer_0
  10
727.94431
  20
555.39194
  0
VERTEX
  5
83f
  8
Layer_0
  10
729.40799
  20
555.4655
  0
VERTEX
  5
840
  8
Layer_0
  10
730.81975
  20
555.52524
  0
VERTEX
  5
841
  8
Layer_0
  10
732.18144
  20
555.57095
  0
VERTEX
  5
842
  8
Layer_0
  10
733.49495
  20
555.60245
  0
VERTEX
  5
843
  8
Layer_0
  10
734.76215
  20
555.61956
  0
VERTEX
  5
844
  8
Layer_0
  10
735.98491
  20
555.6221
  0
VERTEX
  5
845
  8
Layer_0
  10
737.16509
  20
555.60987
  0
VERTEX
  5
846
  8
Layer_0
  10
738.30458
  20
555.5827
  0
VERTEX
  5
847
  8
Layer_0
  10
739.40525
  20
555.5404
  0
VERTEX
  5
848
  8
Layer_0
  10
740.46897
  20
555.48278
  0
VERTEX
  5
849
  8
Layer_0
  10
741.4976
  20
555.40966
  0
VERTEX
  5
84a
  8
Layer_0
  10
742.49303
  20
555.32086
  0
VERTEX
  5
84b
  8
Layer_0
  10
743.45713
  20
555.21619
  0
VERTEX
  5
84c
  8
Layer_0
  10
744.39177
  20
555.09546
  0
VERTEX
  5
84d
  8
Layer_0
  10
745.29881
  20
554.95849
  0
VERTEX
  5
84e
  8
Layer_0
  10
746.18014
  20
554.8051
  0
VERTEX
  5
84f
  8
Layer_0
  10
747.03762
  20
554.63509
  0
VERTEX
  5
850
  8
Layer_0
  10
747.87314
  20
554.4483
  0
VERTEX
  5
851
  8
Layer_0
  10
748.68855
  20
554.24452
  0
VERTEX
  5
852
  8
Layer_0
  10
749.48573
  20
554.02358
  0
VERTEX
  5
853
  8
Layer_0
  10
751.03291
  20
553.52947
  0
VERTEX
  5
854
  8
Layer_0
  10
752.52966
  20
552.96448
  0
VERTEX
  5
855
  8
Layer_0
  10
753.99094
  20
552.32713
  0
VERTEX
  5
856
  8
Layer_0
  10
755.43174
  20
551.61596
  0
VERTEX
  5
857
  8
Layer_0
  10
756.7687
  20
550.94982
  0
VERTEX
  5
858
  8
Layer_0
  10
758.10114
  20
550.34896
  0
VERTEX
  5
859
  8
Layer_0
  10
759.43068
  20
549.81384
  0
VERTEX
  5
85a
  8
Layer_0
  10
760.75891
  20
549.34488
  0
VERTEX
  5
85b
  8
Layer_0
  10
762.08744
  20
548.94253
  0
VERTEX
  5
85c
  8
Layer_0
  10
763.41787
  20
548.60722
  0
VERTEX
  5
85d
  8
Layer_0
  10
764.75182
  20
548.3394
  0
VERTEX
  5
85e
  8
Layer_0
  10
766.09088
  20
548.13949
  0
VERTEX
  5
85f
  8
Layer_0
  10
767.43666
  20
548.00794
  0
VERTEX
  5
860
  8
Layer_0
  10
768.79077
  20
547.94519
  0
VERTEX
  5
861
  8
Layer_0
  10
770.15481
  20
547.95167
  0
VERTEX
  5
862
  8
Layer_0
  10
771.53038
  20
548.02782
  0
VERTEX
  5
863
  8
Layer_0
  10
772.9191
  20
548.17408
  0
VERTEX
  5
864
  8
Layer_0
  10
774.32256
  20
548.39089
  0
VERTEX
  5
865
  8
Layer_0
  10
775.74238
  20
548.67869
  0
VERTEX
  5
866
  8
Layer_0
  10
777.18015
  20
549.03791
  0
VERTEX
  5
867
  8
Layer_0
  10
778.63749
  20
549.46899
  0
VERTEX
  5
868
  8
Layer_0
  10
780.11599
  20
549.97238
  0
VERTEX
  5
869
  8
Layer_0
  10
781.61727
  20
550.5485
  0
VERTEX
  5
86a
  8
Layer_0
  10
783.14292
  20
551.19781
  0
VERTEX
  5
86b
  8
Layer_0
  10
784.69455
  20
551.92073
  0
VERTEX
  5
86c
  8
Layer_0
  10
786.27378
  20
552.7177
  0
VERTEX
  5
86d
  8
Layer_0
  10
787.8822
  20
553.58916
  0
VERTEX
  5
86e
  8
Layer_0
  10
789.52141
  20
554.53555
  0
VERTEX
  5
86f
  8
Layer_0
  10
791.19303
  20
555.55732
  0
VERTEX
  5
870
  8
Layer_0
  10
792.89866
  20
556.65488
  0
VERTEX
  5
871
  8
Layer_0
  10
794.63991
  20
557.8287
  0
VERTEX
  5
872
  8
Layer_0
  10
796.41837
  20
559.07919
  0
VERTEX
  5
873
  8
Layer_0
  10
798.23566
  20
560.40681
  0
VERTEX
  5
874
  8
Layer_0
  10
800.09338
  20
561.81198
  0
VERTEX
  5
875
  8
Layer_0
  10
801.99313
  20
563.29515
  0
VERTEX
  5
876
  8
Layer_0
  10
803.93652
  20
564.85676
  0
VERTEX
  5
877
  8
Layer_0
  10
805.77662
  20
566.36682
  0
VERTEX
  5
878
  8
Layer_0
  10
807.57561
  20
567.8655
  0
VERTEX
  5
879
  8
Layer_0
  10
809.32373
  20
569.34372
  0
VERTEX
  5
87a
  8
Layer_0
  10
811.01122
  20
570.79239
  0
VERTEX
  5
87b
  8
Layer_0
  10
812.62832
  20
572.20244
  0
VERTEX
  5
87c
  8
Layer_0
  10
814.16527
  20
573.56479
  0
VERTEX
  5
87d
  8
Layer_0
  10
814.90063
  20
574.22523
  0
VERTEX
  5
87e
  8
Layer_0
  10
815.61229
  20
574.87035
  0
VERTEX
  5
87f
  8
Layer_0
  10
816.29904
  20
575.499
  0
VERTEX
  5
880
  8
Layer_0
  10
816.95964
  20
576.11005
  0
VERTEX
  5
881
  8
Layer_0
  10
817.59288
  20
576.70236
  0
VERTEX
  5
882
  8
Layer_0
  10
818.19754
  20
577.2748
  0
VERTEX
  5
883
  8
Layer_0
  10
818.7724
  20
577.82624
  0
VERTEX
  5
884
  8
Layer_0
  10
819.31624
  20
578.35554
  0
VERTEX
  5
885
  8
Layer_0
  10
819.82783
  20
578.86156
  0
VERTEX
  5
886
  8
Layer_0
  10
820.30596
  20
579.34317
  0
VERTEX
  5
887
  8
Layer_0
  10
820.74941
  20
579.79924
  0
VERTEX
  5
888
  8
Layer_0
  10
821.15696
  20
580.22862
  0
VERTEX
  5
889
  8
Layer_0
  10
821.52738
  20
580.63019
  0
VERTEX
  5
88a
  8
Layer_0
  10
821.85946
  20
581.00281
  0
VERTEX
  5
88b
  8
Layer_0
  10
822.15198
  20
581.34534
  0
VERTEX
  5
88c
  8
Layer_0
  10
822.40371
  20
581.65665
  0
VERTEX
  5
88d
  8
Layer_0
  10
822.61344
  20
581.93561
  0
VERTEX
  5
88e
  8
Layer_0
  10
822.77994
  20
582.18107
  0
VERTEX
  5
88f
  8
Layer_0
  10
822.90199
  20
582.39191
  0
VERTEX
  5
890
  8
Layer_0
  10
822.97838
  20
582.56699
  0
VERTEX
  5
891
  8
Layer_0
  10
823.04088
  20
582.90487
  0
VERTEX
  5
892
  8
Layer_0
  10
823.01822
  20
583.28833
  0
VERTEX
  5
893
  8
Layer_0
  10
822.91408
  20
583.71304
  0
VERTEX
  5
894
  8
Layer_0
  10
822.73213
  20
584.17467
  0
VERTEX
  5
895
  8
Layer_0
  10
822.47603
  20
584.66889
  0
VERTEX
  5
896
  8
Layer_0
  10
822.14947
  20
585.19135
  0
VERTEX
  5
897
  8
Layer_0
  10
821.75611
  20
585.73774
  0
VERTEX
  5
898
  8
Layer_0
  10
821.29963
  20
586.30372
  0
VERTEX
  5
899
  8
Layer_0
  10
820.78369
  20
586.88496
  0
VERTEX
  5
89a
  8
Layer_0
  10
820.21198
  20
587.47712
  0
VERTEX
  5
89b
  8
Layer_0
  10
819.58815
  20
588.07587
  0
VERTEX
  5
89c
  8
Layer_0
  10
818.9159
  20
588.67689
  0
VERTEX
  5
89d
  8
Layer_0
  10
818.19888
  20
589.27583
  0
VERTEX
  5
89e
  8
Layer_0
  10
817.44076
  20
589.86837
  0
VERTEX
  5
89f
  8
Layer_0
  10
816.64523
  20
590.45017
  0
VERTEX
  5
8a0
  8
Layer_0
  10
815.81595
  20
591.0169
  0
VERTEX
  5
8a1
  8
Layer_0
  10
814.9625
  20
591.62556
  0
VERTEX
  5
8a2
  8
Layer_0
  10
814.09606
  20
592.33035
  0
VERTEX
  5
8a3
  8
Layer_0
  10
813.22268
  20
593.12278
  0
VERTEX
  5
8a4
  8
Layer_0
  10
812.34843
  20
593.99439
  0
VERTEX
  5
8a5
  8
Layer_0
  10
811.47936
  20
594.93671
  0
VERTEX
  5
8a6
  8
Layer_0
  10
810.62153
  20
595.94125
  0
VERTEX
  5
8a7
  8
Layer_0
  10
809.78101
  20
596.99955
  0
VERTEX
  5
8a8
  8
Layer_0
  10
808.96386
  20
598.10313
  0
VERTEX
  5
8a9
  8
Layer_0
  10
808.17614
  20
599.24351
  0
VERTEX
  5
8aa
  8
Layer_0
  10
807.4239
  20
600.41224
  0
VERTEX
  5
8ab
  8
Layer_0
  10
806.71321
  20
601.60082
  0
VERTEX
  5
8ac
  8
Layer_0
  10
806.05012
  20
602.80079
  0
VERTEX
  5
8ad
  8
Layer_0
  10
805.44071
  20
604.00367
  0
VERTEX
  5
8ae
  8
Layer_0
  10
804.89102
  20
605.20099
  0
VERTEX
  5
8af
  8
Layer_0
  10
804.40713
  20
606.38428
  0
VERTEX
  5
8b0
  8
Layer_0
  10
803.99508
  20
607.54506
  0
VERTEX
  5
8b1
  8
Layer_0
  10
800.36749
  20
618.66455
  0
VERTEX
  5
8b2
  8
Layer_0
  10
783.68604
  20
607.51343
  0
VERTEX
  5
8b3
  8
Layer_0
  10
782.42122
  20
606.67209
  0
VERTEX
  5
8b4
  8
Layer_0
  10
781.21155
  20
605.87643
  0
VERTEX
  5
8b5
  8
Layer_0
  10
780.05497
  20
605.12575
  0
VERTEX
  5
8b6
  8
Layer_0
  10
778.94943
  20
604.41939
  0
VERTEX
  5
8b7
  8
Layer_0
  10
777.89289
  20
603.75669
  0
VERTEX
  5
8b8
  8
Layer_0
  10
776.88329
  20
603.13698
  0
VERTEX
  5
8b9
  8
Layer_0
  10
775.91859
  20
602.55958
  0
VERTEX
  5
8ba
  8
Layer_0
  10
774.99674
  20
602.02384
  0
VERTEX
  5
8bb
  8
Layer_0
  10
774.11569
  20
601.52908
  0
VERTEX
  5
8bc
  8
Layer_0
  10
773.27339
  20
601.07463
  0
VERTEX
  5
8bd
  8
Layer_0
  10
772.46779
  20
600.65984
  0
VERTEX
  5
8be
  8
Layer_0
  10
771.69684
  20
600.28403
  0
VERTEX
  5
8bf
  8
Layer_0
  10
770.95851
  20
599.94653
  0
VERTEX
  5
8c0
  8
Layer_0
  10
770.25072
  20
599.64668
  0
VERTEX
  5
8c1
  8
Layer_0
  10
769.57145
  20
599.3838
  0
VERTEX
  5
8c2
  8
Layer_0
  10
768.91864
  20
599.15724
  0
VERTEX
  5
8c3
  8
Layer_0
  10
768.29023
  20
598.96632
  0
VERTEX
  5
8c4
  8
Layer_0
  10
767.68419
  20
598.81038
  0
VERTEX
  5
8c5
  8
Layer_0
  10
767.09846
  20
598.68875
  0
VERTEX
  5
8c6
  8
Layer_0
  10
766.531
  20
598.60076
  0
VERTEX
  5
8c7
  8
Layer_0
  10
765.97975
  20
598.54574
  0
VERTEX
  5
8c8
  8
Layer_0
  10
765.44267
  20
598.52303
  0
VERTEX
  5
8c9
  8
Layer_0
  10
764.9177
  20
598.53195
  0
VERTEX
  5
8ca
  8
Layer_0
  10
764.40281
  20
598.57185
  0
VERTEX
  5
8cb
  8
Layer_0
  10
763.89594
  20
598.64205
  0
VERTEX
  5
8cc
  8
Layer_0
  10
763.39504
  20
598.74189
  0
VERTEX
  5
8cd
  8
Layer_0
  10
762.89806
  20
598.8707
  0
VERTEX
  5
8ce
  8
Layer_0
  10
762.40296
  20
599.0278
  0
VERTEX
  5
8cf
  8
Layer_0
  10
761.90769
  20
599.21254
  0
VERTEX
  5
8d0
  8
Layer_0
  10
761.41019
  20
599.42425
  0
VERTEX
  5
8d1
  8
Layer_0
  10
760.90843
  20
599.66225
  0
VERTEX
  5
8d2
  8
Layer_0
  10
760.40034
  20
599.92589
  0
VERTEX
  5
8d3
  8
Layer_0
  10
759.99198
  20
600.12902
  0
VERTEX
  5
8d4
  8
Layer_0
  10
759.53749
  20
600.32287
  0
VERTEX
  5
8d5
  8
Layer_0
  10
759.03765
  20
600.50739
  0
VERTEX
  5
8d6
  8
Layer_0
  10
758.49325
  20
600.68255
  0
VERTEX
  5
8d7
  8
Layer_0
  10
757.90508
  20
600.8483
  0
VERTEX
  5
8d8
  8
Layer_0
  10
757.27393
  20
601.00461
  0
VERTEX
  5
8d9
  8
Layer_0
  10
756.60059
  20
601.15142
  0
VERTEX
  5
8da
  8
Layer_0
  10
755.88585
  20
601.2887
  0
VERTEX
  5
8db
  8
Layer_0
  10
755.13049
  20
601.41641
  0
VERTEX
  5
8dc
  8
Layer_0
  10
754.3353
  20
601.5345
  0
VERTEX
  5
8dd
  8
Layer_0
  10
753.50107
  20
601.64293
  0
VERTEX
  5
8de
  8
Layer_0
  10
752.62859
  20
601.74167
  0
VERTEX
  5
8df
  8
Layer_0
  10
751.71865
  20
601.83067
  0
VERTEX
  5
8e0
  8
Layer_0
  10
750.77203
  20
601.90988
  0
VERTEX
  5
8e1
  8
Layer_0
  10
749.78953
  20
601.97927
  0
VERTEX
  5
8e2
  8
Layer_0
  10
748.77193
  20
602.0388
  0
VERTEX
  5
8e3
  8
Layer_0
  10
747.72002
  20
602.08842
  0
VERTEX
  5
8e4
  8
Layer_0
  10
746.63459
  20
602.12809
  0
VERTEX
  5
8e5
  8
Layer_0
  10
745.51644
  20
602.15778
  0
VERTEX
  5
8e6
  8
Layer_0
  10
744.36633
  20
602.17743
  0
VERTEX
  5
8e7
  8
Layer_0
  10
743.18507
  20
602.18701
  0
VERTEX
  5
8e8
  8
Layer_0
  10
741.97345
  20
602.18647
  0
VERTEX
  5
8e9
  8
Layer_0
  10
740.73224
  20
602.17578
  0
VERTEX
  5
8ea
  8
Layer_0
  10
739.46225
  20
602.1549
  0
VERTEX
  5
8eb
  8
Layer_0
  10
738.16426
  20
602.12377
  0
VERTEX
  5
8ec
  8
Layer_0
  10
736.83905
  20
602.08236
  0
VERTEX
  5
8ed
  8
Layer_0
  10
735.48741
  20
602.03063
  0
VERTEX
  5
8ee
  8
Layer_0
  10
734.11014
  20
601.96854
  0
VERTEX
  5
8ef
  8
Layer_0
  10
732.70803
  20
601.89604
  0
VERTEX
  5
8f0
  8
Layer_0
  10
731.28185
  20
601.8131
  0
VERTEX
  5
8f1
  8
Layer_0
  10
729.8324
  20
601.71966
  0
VERTEX
  5
8f2
  8
Layer_0
  10
728.36047
  20
601.6157
  0
VERTEX
  5
8f3
  8
Layer_0
  10
725.76099
  20
601.43853
  0
VERTEX
  5
8f4
  8
Layer_0
  10
723.2179
  20
601.29323
  0
VERTEX
  5
8f5
  8
Layer_0
  10
720.74507
  20
601.17941
  0
VERTEX
  5
8f6
  8
Layer_0
  10
718.35638
  20
601.09667
  0
VERTEX
  5
8f7
  8
Layer_0
  10
717.19791
  20
601.06684
  0
VERTEX
  5
8f8
  8
Layer_0
  10
716.06569
  20
601.04463
  0
VERTEX
  5
8f9
  8
Layer_0
  10
714.96143
  20
601.02999
  0
VERTEX
  5
8fa
  8
Layer_0
  10
713.88687
  20
601.02288
  0
VERTEX
  5
8fb
  8
Layer_0
  10
712.84375
  20
601.02324
  0
VERTEX
  5
8fc
  8
Layer_0
  10
711.8338
  20
601.03103
  0
VERTEX
  5
8fd
  8
Layer_0
  10
710.85876
  20
601.0462
  0
VERTEX
  5
8fe
  8
Layer_0
  10
709.92035
  20
601.06869
  0
VERTEX
  5
8ff
  8
Layer_0
  10
709.02032
  20
601.09846
  0
VERTEX
  5
900
  8
Layer_0
  10
708.1604
  20
601.13546
  0
VERTEX
  5
901
  8
Layer_0
  10
707.34231
  20
601.17964
  0
VERTEX
  5
902
  8
Layer_0
  10
706.5678
  20
601.23096
  0
VERTEX
  5
903
  8
Layer_0
  10
705.8386
  20
601.28935
  0
VERTEX
  5
904
  8
Layer_0
  10
705.15645
  20
601.35477
  0
VERTEX
  5
905
  8
Layer_0
  10
704.52307
  20
601.42718
  0
VERTEX
  5
906
  8
Layer_0
  10
703.9402
  20
601.50652
  0
VERTEX
  5
907
  8
Layer_0
  10
703.40958
  20
601.59275
  0
VERTEX
  5
908
  8
Layer_0
  10
702.93293
  20
601.68581
  0
VERTEX
  5
909
  8
Layer_0
  10
702.512
  20
601.78566
  0
VERTEX
  5
90a
  8
Layer_0
  10
702.14852
  20
601.89224
  0
VERTEX
  5
90b
  8
Layer_0
  10
701.84421
  20
602.00551
  0
VERTEX
  5
90c
  8
Layer_0
  10
701.60082
  20
602.12542
  0
VERTEX
  5
90d
  8
Layer_0
  10
701.42009
  20
602.25191
  0
VERTEX
  5
90e
  8
Layer_0
  10
701.30373
  20
602.38495
  0
VERTEX
  5
90f
  8
Layer_0
  10
701.19249
  20
602.52817
  0
VERTEX
  5
910
  8
Layer_0
  10
701.02694
  20
602.68486
  0
VERTEX
  5
911
  8
Layer_0
  10
700.80855
  20
602.85447
  0
VERTEX
  5
912
  8
Layer_0
  10
700.53881
  20
603.03646
  0
VERTEX
  5
913
  8
Layer_0
  10
700.21921
  20
603.23028
  0
VERTEX
  5
914
  8
Layer_0
  10
699.85122
  20
603.43538
  0
VERTEX
  5
915
  8
Layer_0
  10
699.43633
  20
603.65122
  0
VERTEX
  5
916
  8
Layer_0
  10
698.97603
  20
603.87724
  0
VERTEX
  5
917
  8
Layer_0
  10
698.47179
  20
604.1129
  0
VERTEX
  5
918
  8
Layer_0
  10
697.92511
  20
604.35765
  0
VERTEX
  5
919
  8
Layer_0
  10
697.33745
  20
604.61094
  0
VERTEX
  5
91a
  8
Layer_0
  10
696.71032
  20
604.87223
  0
VERTEX
  5
91b
  8
Layer_0
  10
696.04518
  20
605.14096
  0
VERTEX
  5
91c
  8
Layer_0
  10
695.34352
  20
605.4166
  0
VERTEX
  5
91d
  8
Layer_0
  10
694.60683
  20
605.69858
  0
VERTEX
  5
91e
  8
Layer_0
  10
693.83659
  20
605.98637
  0
VERTEX
  5
91f
  8
Layer_0
  10
693.03428
  20
606.27941
  0
VERTEX
  5
920
  8
Layer_0
  10
692.20139
  20
606.57716
  0
VERTEX
  5
921
  8
Layer_0
  10
691.33939
  20
606.87908
  0
VERTEX
  5
922
  8
Layer_0
  10
690.44978
  20
607.1846
  0
VERTEX
  5
923
  8
Layer_0
  10
688.59363
  20
607.8043
  0
VERTEX
  5
924
  8
Layer_0
  10
686.64481
  20
608.43187
  0
VERTEX
  5
925
  8
Layer_0
  10
684.61518
  20
609.06294
  0
VERTEX
  5
926
  8
Layer_0
  10
682.5166
  20
609.69312
  0
VERTEX
  5
927
  8
Layer_0
  10
680.36095
  20
610.31803
  0
VERTEX
  5
928
  8
Layer_0
  10
678.16009
  20
610.93329
  0
VERTEX
  5
929
  8
Layer_0
  10
675.57907
  20
611.6194
  0
VERTEX
  5
92a
  8
Layer_0
  10
673.04229
  20
612.24935
  0
VERTEX
  5
92b
  8
Layer_0
  10
670.54986
  20
612.82315
  0
VERTEX
  5
92c
  8
Layer_0
  10
668.10191
  20
613.3408
  0
VERTEX
  5
92d
  8
Layer_0
  10
665.69853
  20
613.80233
  0
VERTEX
  5
92e
  8
Layer_0
  10
663.33985
  20
614.20773
  0
VERTEX
  5
92f
  8
Layer_0
  10
661.02598
  20
614.55702
  0
VERTEX
  5
930
  8
Layer_0
  10
658.75703
  20
614.85022
  0
VERTEX
  5
931
  8
Layer_0
  10
656.53313
  20
615.08733
  0
VERTEX
  5
932
  8
Layer_0
  10
654.35437
  20
615.26836
  0
VERTEX
  5
933
  8
Layer_0
  10
652.22089
  20
615.39333
  0
VERTEX
  5
934
  8
Layer_0
  10
650.13278
  20
615.46225
  0
VERTEX
  5
935
  8
Layer_0
  10
648.09017
  20
615.47512
  0
VERTEX
  5
936
  8
Layer_0
  10
646.09317
  20
615.43196
  0
VERTEX
  5
937
  8
Layer_0
  10
644.1419
  20
615.33278
  0
VERTEX
  5
938
  8
Layer_0
  10
642.23646
  20
615.1776
  0
VERTEX
  5
939
  8
Layer_0
  10
640.37697
  20
614.96641
  0
VERTEX
  5
93a
  8
Layer_0
  10
638.56355
  20
614.69924
  0
VERTEX
  5
93b
  8
Layer_0
  10
636.79631
  20
614.37609
  0
VERTEX
  5
93c
  8
Layer_0
  10
635.07536
  20
613.99698
  0
VERTEX
  5
93d
  8
Layer_0
  10
633.40082
  20
613.56192
  0
VERTEX
  5
93e
  8
Layer_0
  10
631.77281
  20
613.07091
  0
VERTEX
  5
93f
  8
Layer_0
  10
630.19143
  20
612.52397
  0
VERTEX
  5
940
  8
Layer_0
  10
628.6568
  20
611.92112
  0
VERTEX
  5
941
  8
Layer_0
  10
627.16904
  20
611.26235
  0
VERTEX
  5
942
  8
Layer_0
  10
625.72825
  20
610.54769
  0
VERTEX
  5
943
  8
Layer_0
  10
624.33456
  20
609.77714
  0
VERTEX
  5
944
  8
Layer_0
  10
622.98808
  20
608.95071
  0
VERTEX
  5
945
  8
Layer_0
  10
621.68892
  20
608.06842
  0
VERTEX
  5
946
  8
Layer_0
  10
620.43719
  20
607.13028
  0
VERTEX
  5
947
  8
Layer_0
  10
619.23302
  20
606.1363
  0
VERTEX
  5
948
  8
Layer_0
  10
618.07651
  20
605.08648
  0
VERTEX
  5
949
  8
Layer_0
  10
616.91251
  20
604.01887
  0
VERTEX
  5
94a
  8
Layer_0
  10
615.74378
  20
603.02747
  0
VERTEX
  5
94b
  8
Layer_0
  10
614.56798
  20
602.11132
  0
VERTEX
  5
94c
  8
Layer_0
  10
613.38278
  20
601.26945
  0
VERTEX
  5
94d
  8
Layer_0
  10
612.18584
  20
600.5009
  0
VERTEX
  5
94e
  8
Layer_0
  10
610.97482
  20
599.8047
  0
VERTEX
  5
94f
  8
Layer_0
  10
609.74738
  20
599.17987
  0
VERTEX
  5
950
  8
Layer_0
  10
608.50118
  20
598.62547
  0
VERTEX
  5
951
  8
Layer_0
  10
607.23389
  20
598.14051
  0
VERTEX
  5
952
  8
Layer_0
  10
605.94317
  20
597.72403
  0
VERTEX
  5
953
  8
Layer_0
  10
604.62669
  20
597.37507
  0
VERTEX
  5
954
  8
Layer_0
  10
603.28209
  20
597.09265
  0
VERTEX
  5
955
  8
Layer_0
  10
601.90706
  20
596.87582
  0
VERTEX
  5
956
  8
Layer_0
  10
600.49924
  20
596.72361
  0
VERTEX
  5
957
  8
Layer_0
  10
599.0563
  20
596.63504
  0
VERTEX
  5
958
  8
Layer_0
  10
597.5759
  20
596.60916
  0
VERTEX
  5
959
  8
Layer_0
  10
595.93207
  20
596.58013
  0
VERTEX
  5
95a
  8
Layer_0
  10
594.35481
  20
596.47743
  0
VERTEX
  5
95b
  8
Layer_0
  10
592.83205
  20
596.29493
  0
VERTEX
  5
95c
  8
Layer_0
  10
591.3517
  20
596.02648
  0
VERTEX
  5
95d
  8
Layer_0
  10
589.90167
  20
595.66595
  0
VERTEX
  5
95e
  8
Layer_0
  10
588.46988
  20
595.20719
  0
VERTEX
  5
95f
  8
Layer_0
  10
587.75706
  20
594.93906
  0
VERTEX
  5
960
  8
Layer_0
  10
587.04426
  20
594.64407
  0
VERTEX
  5
961
  8
Layer_0
  10
586.32998
  20
594.32145
  0
VERTEX
  5
962
  8
Layer_0
  10
585.61271
  20
593.97044
  0
VERTEX
  5
963
  8
Layer_0
  10
584.89093
  20
593.59027
  0
VERTEX
  5
964
  8
Layer_0
  10
584.16315
  20
593.18017
  0
VERTEX
  5
965
  8
Layer_0
  10
583.42784
  20
592.73938
  0
VERTEX
  5
966
  8
Layer_0
  10
582.6835
  20
592.26712
  0
VERTEX
  5
967
  8
Layer_0
  10
581.92861
  20
591.76264
  0
VERTEX
  5
968
  8
Layer_0
  10
581.16167
  20
591.22515
  0
VERTEX
  5
969
  8
Layer_0
  10
580.38117
  20
590.6539
  0
VERTEX
  5
96a
  8
Layer_0
  10
579.58559
  20
590.04811
  0
VERTEX
  5
96b
  8
Layer_0
  10
578.77342
  20
589.40703
  0
VERTEX
  5
96c
  8
Layer_0
  10
577.94316
  20
588.72988
  0
VERTEX
  5
96d
  8
Layer_0
  10
577.09329
  20
588.01589
  0
VERTEX
  5
96e
  8
Layer_0
  10
576.2223
  20
587.2643
  0
VERTEX
  5
96f
  8
Layer_0
  10
575.32869
  20
586.47434
  0
VERTEX
  5
970
  8
Layer_0
  10
574.41094
  20
585.64525
  0
VERTEX
  5
971
  8
Layer_0
  10
573.46754
  20
584.77624
  0
VERTEX
  5
972
  8
Layer_0
  10
572.49698
  20
583.86657
  0
VERTEX
  5
973
  8
Layer_0
  10
571.03124
  20
582.45961
  0
VERTEX
  5
974
  8
Layer_0
  10
569.63857
  20
581.07624
  0
VERTEX
  5
975
  8
Layer_0
  10
568.31822
  20
579.71411
  0
VERTEX
  5
976
  8
Layer_0
  10
567.06943
  20
578.37086
  0
VERTEX
  5
977
  8
Layer_0
  10
565.89146
  20
577.04414
  0
VERTEX
  5
978
  8
Layer_0
  10
564.78354
  20
575.73159
  0
VERTEX
  5
979
  8
Layer_0
  10
563.74491
  20
574.43084
  0
VERTEX
  5
97a
  8
Layer_0
  10
562.77484
  20
573.13955
  0
VERTEX
  5
97b
  8
Layer_0
  10
561.87256
  20
571.85536
  0
VERTEX
  5
97c
  8
Layer_0
  10
561.03732
  20
570.5759
  0
VERTEX
  5
97d
  8
Layer_0
  10
560.26836
  20
569.29883
  0
VERTEX
  5
97e
  8
Layer_0
  10
559.56493
  20
568.02177
  0
VERTEX
  5
97f
  8
Layer_0
  10
558.92628
  20
566.74239
  0
VERTEX
  5
980
  8
Layer_0
  10
558.35165
  20
565.45831
  0
VERTEX
  5
981
  8
Layer_0
  10
557.84028
  20
564.16719
  0
VERTEX
  5
982
  8
Layer_0
  10
557.39143
  20
562.86666
  0
VERTEX
  5
983
  8
Layer_0
  10
557.00434
  20
561.55437
  0
VERTEX
  5
984
  8
Layer_0
  10
556.67826
  20
560.22796
  0
VERTEX
  5
985
  8
Layer_0
  10
556.41242
  20
558.88507
  0
VERTEX
  5
986
  8
Layer_0
  10
556.20608
  20
557.52334
  0
VERTEX
  5
987
  8
Layer_0
  10
556.05849
  20
556.14043
  0
VERTEX
  5
988
  8
Layer_0
  10
555.96888
  20
554.73396
  0
VERTEX
  5
989
  8
Layer_0
  10
555.93651
  20
553.30159
  0
VERTEX
  5
98a
  8
Layer_0
  10
555.96061
  20
551.84096
  0
VERTEX
  5
98b
  8
Layer_0
  10
556.04044
  20
550.3497
  0
VERTEX
  5
98c
  8
Layer_0
  10
556.17525
  20
548.82547
  0
VERTEX
  5
98d
  8
Layer_0
  10
556.36427
  20
547.2659
  0
VERTEX
  5
98e
  8
Layer_0
  10
556.60675
  20
545.66864
  0
VERTEX
  5
98f
  8
Layer_0
  10
556.90194
  20
544.03133
  0
VERTEX
  5
990
  8
Layer_0
  10
557.24909
  20
542.35161
  0
VERTEX
  5
991
  8
Layer_0
  10
557.64744
  20
540.62713
  0
VERTEX
  5
992
  8
Layer_0
  10
558.09623
  20
538.85552
  0
VERTEX
  5
993
  8
Layer_0
  10
558.37648
  20
537.78415
  0
VERTEX
  5
994
  8
Layer_0
  10
558.64566
  20
536.73615
  0
VERTEX
  5
995
  8
Layer_0
  10
558.90363
  20
535.71093
  0
VERTEX
  5
996
  8
Layer_0
  10
559.15028
  20
534.70792
  0
VERTEX
  5
997
  8
Layer_0
  10
559.60915
  20
532.76617
  0
VERTEX
  5
998
  8
Layer_0
  10
560.02129
  20
530.90623
  0
VERTEX
  5
999
  8
Layer_0
  10
560.38576
  20
529.12342
  0
VERTEX
  5
99a
  8
Layer_0
  10
560.7016
  20
527.41308
  0
VERTEX
  5
99b
  8
Layer_0
  10
560.96783
  20
525.77053
  0
VERTEX
  5
99c
  8
Layer_0
  10
561.18352
  20
524.1911
  0
VERTEX
  5
99d
  8
Layer_0
  10
561.3477
  20
522.67012
  0
VERTEX
  5
99e
  8
Layer_0
  10
561.4594
  20
521.20292
  0
VERTEX
  5
99f
  8
Layer_0
  10
561.51768
  20
519.78483
  0
VERTEX
  5
9a0
  8
Layer_0
  10
561.52158
  20
518.41118
  0
VERTEX
  5
9a1
  8
Layer_0
  10
561.47012
  20
517.0773
  0
VERTEX
  5
9a2
  8
Layer_0
  10
561.36237
  20
515.77852
  0
VERTEX
  5
9a3
  8
Layer_0
  10
561.19735
  20
514.51016
  0
VERTEX
  5
9a4
  8
Layer_0
  10
560.97411
  20
513.26756
  0
VERTEX
  5
9a5
  8
Layer_0
  10
560.69169
  20
512.04604
  0
VERTEX
  5
9a6
  8
Layer_0
  10
560.34914
  20
510.84094
  0
VERTEX
  5
9a7
  8
Layer_0
  10
559.94549
  20
509.64758
  0
VERTEX
  5
9a8
  8
Layer_0
  10
559.47978
  20
508.46129
  0
VERTEX
  5
9a9
  8
Layer_0
  10
558.95106
  20
507.2774
  0
VERTEX
  5
9aa
  8
Layer_0
  10
558.35837
  20
506.09125
  0
VERTEX
  5
9ab
  8
Layer_0
  10
557.70076
  20
504.89815
  0
VERTEX
  5
9ac
  8
Layer_0
  10
556.97725
  20
503.69345
  0
VERTEX
  5
9ad
  8
Layer_0
  10
556.18689
  20
502.47246
  0
VERTEX
  5
9ae
  8
Layer_0
  10
555.32873
  20
501.23051
  0
VERTEX
  5
9af
  8
Layer_0
  10
554.40181
  20
499.96295
  0
VERTEX
  5
9b0
  8
Layer_0
  10
553.40517
  20
498.66509
  0
VERTEX
  5
9b1
  8
Layer_0
  10
552.33784
  20
497.33226
  0
VERTEX
  5
9b2
  8
Layer_0
  10
551.19887
  20
495.9598
  0
VERTEX
  5
9b3
  8
Layer_0
  10
549.98731
  20
494.54303
  0
VERTEX
  5
9b4
  8
Layer_0
  10
548.70219
  20
493.07729
  0
VERTEX
  5
9b5
  8
Layer_0
  10
547.27949
  20
491.43435
  0
VERTEX
  5
9b6
  8
Layer_0
  10
545.86375
  20
489.72522
  0
VERTEX
  5
9b7
  8
Layer_0
  10
544.45746
  20
487.95495
  0
VERTEX
  5
9b8
  8
Layer_0
  10
543.06313
  20
486.12861
  0
VERTEX
  5
9b9
  8
Layer_0
  10
541.68325
  20
484.25127
  0
VERTEX
  5
9ba
  8
Layer_0
  10
540.32031
  20
482.328
  0
VERTEX
  5
9bb
  8
Layer_0
  10
538.97681
  20
480.36386
  0
VERTEX
  5
9bc
  8
Layer_0
  10
537.65525
  20
478.36393
  0
VERTEX
  5
9bd
  8
Layer_0
  10
536.35812
  20
476.33327
  0
VERTEX
  5
9be
  8
Layer_0
  10
535.08793
  20
474.27694
  0
VERTEX
  5
9bf
  8
Layer_0
  10
533.84716
  20
472.20001
  0
VERTEX
  5
9c0
  8
Layer_0
  10
532.63831
  20
470.10756
  0
VERTEX
  5
9c1
  8
Layer_0
  10
531.46388
  20
468.00465
  0
VERTEX
  5
9c2
  8
Layer_0
  10
530.32637
  20
465.89634
  0
VERTEX
  5
9c3
  8
Layer_0
  10
529.22827
  20
463.7877
  0
VERTEX
  5
9c4
  8
Layer_0
  10
528.17207
  20
461.68381
  0
VERTEX
  5
9c5
  8
Layer_0
  10
527.16028
  20
459.58972
  0
VERTEX
  5
9c6
  8
Layer_0
  10
526.19539
  20
457.51051
  0
VERTEX
  5
9c7
  8
Layer_0
  10
525.27989
  20
455.45124
  0
VERTEX
  5
9c8
  8
Layer_0
  10
524.41629
  20
453.41698
  0
VERTEX
  5
9c9
  8
Layer_0
  10
523.60707
  20
451.4128
  0
VERTEX
  5
9ca
  8
Layer_0
  10
522.85475
  20
449.44376
  0
VERTEX
  5
9cb
  8
Layer_0
  10
522.1618
  20
447.51493
  0
VERTEX
  5
9cc
  8
Layer_0
  10
521.53073
  20
445.63139
  0
VERTEX
  5
9cd
  8
Layer_0
  10
520.96403
  20
443.79819
  0
VERTEX
  5
9ce
  8
Layer_0
  10
520.4642
  20
442.0204
  0
VERTEX
  5
9cf
  8
Layer_0
  10
520.03374
  20
440.30309
  0
VERTEX
  5
9d0
  8
Layer_0
  10
519.67514
  20
438.65134
  0
VERTEX
  5
9d1
  8
Layer_0
  10
519.52357
  20
437.85162
  0
VERTEX
  5
9d2
  8
Layer_0
  10
519.3909
  20
437.07019
  0
VERTEX
  5
9d3
  8
Layer_0
  10
519.27744
  20
436.30769
  0
VERTEX
  5
9d4
  8
Layer_0
  10
519.18351
  20
435.56473
  0
VERTEX
  5
9d5
  8
Layer_0
  10
519.10942
  20
434.84197
  0
VERTEX
  5
9d6
  8
Layer_0
  10
519.05548
  20
434.14003
  0
VERTEX
  5
9d7
  8
Layer_0
  10
519.022
  20
433.45954
  0
VERTEX
  5
9d8
  8
Layer_0
  10
519.00929
  20
432.80114
  0
VERTEX
  5
9d9
  8
Layer_0
  10
519.0005
  20
432.28674
  0
VERTEX
  5
9da
  8
Layer_0
  10
518.97777
  20
431.73638
  0
VERTEX
  5
9db
  8
Layer_0
  10
518.94143
  20
431.15171
  0
VERTEX
  5
9dc
  8
Layer_0
  10
518.89185
  20
430.53442
  0
VERTEX
  5
9dd
  8
Layer_0
  10
518.82936
  20
429.88615
  0
VERTEX
  5
9de
  8
Layer_0
  10
518.75433
  20
429.20859
  0
VERTEX
  5
9df
  8
Layer_0
  10
518.66711
  20
428.5034
  0
VERTEX
  5
9e0
  8
Layer_0
  10
518.56803
  20
427.77225
  0
VERTEX
  5
9e1
  8
Layer_0
  10
518.33574
  20
426.23874
  0
VERTEX
  5
9e2
  8
Layer_0
  10
518.06025
  20
424.6214
  0
VERTEX
  5
9e3
  8
Layer_0
  10
517.74438
  20
422.93358
  0
VERTEX
  5
9e4
  8
Layer_0
  10
517.39092
  20
421.18862
  0
VERTEX
  5
9e5
  8
Layer_0
  10
517.00267
  20
419.39986
  0
VERTEX
  5
9e6
  8
Layer_0
  10
516.58244
  20
417.58065
  0
VERTEX
  5
9e7
  8
Layer_0
  10
516.13302
  20
415.74434
  0
VERTEX
  5
9e8
  8
Layer_0
  10
515.65722
  20
413.90426
  0
VERTEX
  5
9e9
  8
Layer_0
  10
515.15783
  20
412.07377
  0
VERTEX
  5
9ea
  8
Layer_0
  10
514.63767
  20
410.26621
  0
VERTEX
  5
9eb
  8
Layer_0
  10
514.09952
  20
408.49491
  0
VERTEX
  5
9ec
  8
Layer_0
  10
513.54619
  20
406.77323
  0
VERTEX
  5
9ed
  8
Layer_0
  10
513.27302
  20
405.95041
  0
VERTEX
  5
9ee
  8
Layer_0
  10
513.00794
  20
405.15607
  0
VERTEX
  5
9ef
  8
Layer_0
  10
512.75128
  20
404.38887
  0
VERTEX
  5
9f0
  8
Layer_0
  10
512.50336
  20
403.64752
  0
VERTEX
  5
9f1
  8
Layer_0
  10
512.03504
  20
402.23708
  0
VERTEX
  5
9f2
  8
Layer_0
  10
511.60559
  20
400.91427
  0
VERTEX
  5
9f3
  8
Layer_0
  10
511.21763
  20
399.66856
  0
VERTEX
  5
9f4
  8
Layer_0
  10
510.87376
  20
398.48947
  0
VERTEX
  5
9f5
  8
Layer_0
  10
510.57659
  20
397.36649
  0
VERTEX
  5
9f6
  8
Layer_0
  10
510.32872
  20
396.28911
  0
VERTEX
  5
9f7
  8
Layer_0
  10
510.13276
  20
395.24685
  0
VERTEX
  5
9f8
  8
Layer_0
  10
509.99132
  20
394.22919
  0
VERTEX
  5
9f9
  8
Layer_0
  10
509.907
  20
393.22563
  0
VERTEX
  5
9fa
  8
Layer_0
  10
509.88241
  20
392.22568
  0
VERTEX
  5
9fb
  8
Layer_0
  10
509.92016
  20
391.21883
  0
VERTEX
  5
9fc
  8
Layer_0
  10
510.02285
  20
390.19458
  0
VERTEX
  5
9fd
  8
Layer_0
  10
510.1931
  20
389.14243
  0
VERTEX
  5
9fe
  8
Layer_0
  10
510.4335
  20
388.05188
  0
VERTEX
  5
9ff
  8
Layer_0
  10
510.74667
  20
386.91242
  0
VERTEX
  5
a00
  8
Layer_0
  10
511.13521
  20
385.71356
  0
VERTEX
  5
a01
  8
Layer_0
  10
511.35856
  20
385.08857
  0
VERTEX
  5
a02
  8
Layer_0
  10
511.60172
  20
384.44479
  0
VERTEX
  5
a03
  8
Layer_0
  10
511.86504
  20
383.78091
  0
VERTEX
  5
a04
  8
Layer_0
  10
512.14883
  20
383.09561
  0
VERTEX
  5
a05
  8
Layer_0
  10
512.45341
  20
382.38759
  0
VERTEX
  5
a06
  8
Layer_0
  10
512.77912
  20
381.65552
  0
VERTEX
  5
a07
  8
Layer_0
  10
513.12628
  20
380.89811
  0
VERTEX
  5
a08
  8
Layer_0
  10
513.49522
  20
380.11403
  0
VERTEX
  5
a09
  8
Layer_0
  10
513.88625
  20
379.30197
  0
VERTEX
  5
a0a
  8
Layer_0
  10
514.29972
  20
378.46062
  0
VERTEX
  5
a0b
  8
Layer_0
  10
514.73593
  20
377.58866
  0
VERTEX
  5
a0c
  8
Layer_0
  10
515.19523
  20
376.68479
  0
VERTEX
  5
a0d
  8
Layer_0
  10
515.67793
  20
375.74769
  0
VERTEX
  5
a0e
  8
Layer_0
  10
516.18436
  20
374.77605
  0
VERTEX
  5
a0f
  8
Layer_0
  10
516.71485
  20
373.76856
  0
VERTEX
  5
a10
  8
Layer_0
  10
517.26972
  20
372.7239
  0
VERTEX
  5
a11
  8
Layer_0
  10
517.8493
  20
371.64076
  0
VERTEX
  5
a12
  8
Layer_0
  10
518.45391
  20
370.51783
  0
VERTEX
  5
a13
  8
Layer_0
  10
519.08388
  20
369.35379
  0
VERTEX
  5
a14
  8
Layer_0
  10
519.73954
  20
368.14733
  0
VERTEX
  5
a15
  8
Layer_0
  10
520.42121
  20
366.89715
  0
VERTEX
  5
a16
  8
Layer_0
  10
521.12922
  20
365.60192
  0
VERTEX
  5
a17
  8
Layer_0
  10
521.86389
  20
364.26034
  0
VERTEX
  5
a18
  8
Layer_0
  10
522.62555
  20
362.87108
  0
VERTEX
  5
a19
  8
Layer_0
  10
523.41452
  20
361.43285
  0
VERTEX
  5
a1a
  8
Layer_0
  10
524.23114
  20
359.94433
  0
VERTEX
  5
a1b
  8
Layer_0
  10
525.07572
  20
358.40419
  0
VERTEX
  5
a1c
  8
Layer_0
  10
525.9486
  20
356.81114
  0
VERTEX
  5
a1d
  8
Layer_0
  10
526.71261
  20
355.38358
  0
VERTEX
  5
a1e
  8
Layer_0
  10
527.41785
  20
353.99449
  0
VERTEX
  5
a1f
  8
Layer_0
  10
528.06353
  20
352.63939
  0
VERTEX
  5
a20
  8
Layer_0
  10
528.64885
  20
351.3138
  0
VERTEX
  5
a21
  8
Layer_0
  10
529.17304
  20
350.01323
  0
VERTEX
  5
a22
  8
Layer_0
  10
529.63528
  20
348.7332
  0
VERTEX
  5
a23
  8
Layer_0
  10
530.03479
  20
347.46923
  0
VERTEX
  5
a24
  8
Layer_0
  10
530.37078
  20
346.21682
  0
VERTEX
  5
a25
  8
Layer_0
  10
530.64245
  20
344.9715
  0
VERTEX
  5
a26
  8
Layer_0
  10
530.84902
  20
343.72879
  0
VERTEX
  5
a27
  8
Layer_0
  10
530.98968
  20
342.48419
  0
VERTEX
  5
a28
  8
Layer_0
  10
531.06365
  20
341.23322
  0
VERTEX
  5
a29
  8
Layer_0
  10
531.07014
  20
339.9714
  0
VERTEX
  5
a2a
  8
Layer_0
  10
531.00834
  20
338.69425
  0
VERTEX
  5
a2b
  8
Layer_0
  10
530.87748
  20
337.39727
  0
VERTEX
  5
a2c
  8
Layer_0
  10
530.67675
  20
336.076
  0
VERTEX
  5
a2d
  8
Layer_0
  10
530.40537
  20
334.72593
  0
VERTEX
  5
a2e
  8
Layer_0
  10
530.06254
  20
333.34259
  0
VERTEX
  5
a2f
  8
Layer_0
  10
529.64747
  20
331.9215
  0
VERTEX
  5
a30
  8
Layer_0
  10
529.15936
  20
330.45817
  0
VERTEX
  5
a31
  8
Layer_0
  10
528.59743
  20
328.94811
  0
VERTEX
  5
a32
  8
Layer_0
  10
527.96088
  20
327.38684
  0
VERTEX
  5
a33
  8
Layer_0
  10
527.24892
  20
325.76988
  0
VERTEX
  5
a34
  8
Layer_0
  10
526.46075
  20
324.09274
  0
VERTEX
  5
a35
  8
Layer_0
  10
526.03785
  20
323.2302
  0
VERTEX
  5
a36
  8
Layer_0
  10
525.59559
  20
322.35093
  0
VERTEX
  5
a37
  8
Layer_0
  10
525.13389
  20
321.45438
  0
VERTEX
  5
a38
  8
Layer_0
  10
524.65264
  20
320.53998
  0
VERTEX
  5
a39
  8
Layer_0
  10
524.15175
  20
319.60718
  0
VERTEX
  5
a3a
  8
Layer_0
  10
523.63111
  20
318.65541
  0
VERTEX
  5
a3b
  8
Layer_0
  10
523.09063
  20
317.6841
  0
VERTEX
  5
a3c
  8
Layer_0
  10
522.53021
  20
316.69271
  0
VERTEX
  5
a3d
  8
Layer_0
  10
521.94975
  20
315.68067
  0
VERTEX
  5
a3e
  8
Layer_0
  10
521.34914
  20
314.64742
  0
VERTEX
  5
a3f
  8
Layer_0
  10
520.7283
  20
313.5924
  0
VERTEX
  5
a40
  8
Layer_0
  10
520.08711
  20
312.51504
  0
VERTEX
  5
a41
  8
Layer_0
  10
519.42549
  20
311.4148
  0
VERTEX
  5
a42
  8
Layer_0
  10
518.74334
  20
310.2911
  0
VERTEX
  5
a43
  8
Layer_0
  10
518.04054
  20
309.14339
  0
VERTEX
  5
a44
  8
Layer_0
  10
517.31702
  20
307.9711
  0
VERTEX
  5
a45
  8
Layer_0
  10
516.25886
  20
306.25188
  0
VERTEX
  5
a46
  8
Layer_0
  10
515.24589
  20
304.58253
  0
VERTEX
  5
a47
  8
Layer_0
  10
514.27679
  20
302.95957
  0
VERTEX
  5
a48
  8
Layer_0
  10
513.35026
  20
301.37954
  0
VERTEX
  5
a49
  8
Layer_0
  10
512.46497
  20
299.83899
  0
VERTEX
  5
a4a
  8
Layer_0
  10
511.61962
  20
298.33442
  0
VERTEX
  5
a4b
  8
Layer_0
  10
510.81291
  20
296.8624
  0
VERTEX
  5
a4c
  8
Layer_0
  10
510.04351
  20
295.41943
  0
VERTEX
  5
a4d
  8
Layer_0
  10
509.31011
  20
294.00206
  0
VERTEX
  5
a4e
  8
Layer_0
  10
508.61141
  20
292.60682
  0
VERTEX
  5
a4f
  8
Layer_0
  10
507.9461
  20
291.23025
  0
VERTEX
  5
a50
  8
Layer_0
  10
507.31286
  20
289.86887
  0
VERTEX
  5
a51
  8
Layer_0
  10
506.71039
  20
288.51922
  0
VERTEX
  5
a52
  8
Layer_0
  10
506.13736
  20
287.17783
  0
VERTEX
  5
a53
  8
Layer_0
  10
505.59248
  20
285.84124
  0
VERTEX
  5
a54
  8
Layer_0
  10
505.07443
  20
284.50598
  0
VERTEX
  5
a55
  8
Layer_0
  10
504.11357
  20
281.82556
  0
VERTEX
  5
a56
  8
Layer_0
  10
503.2443
  20
279.10886
  0
VERTEX
  5
a57
  8
Layer_0
  10
502.84073
  20
277.72823
  0
VERTEX
  5
a58
  8
Layer_0
  10
502.45613
  20
276.32813
  0
VERTEX
  5
a59
  8
Layer_0
  10
502.08918
  20
274.90509
  0
VERTEX
  5
a5a
  8
Layer_0
  10
501.73857
  20
273.45563
  0
VERTEX
  5
a5b
  8
Layer_0
  10
501.403
  20
271.97631
  0
VERTEX
  5
a5c
  8
Layer_0
  10
501.08115
  20
270.46364
  0
VERTEX
  5
a5d
  8
Layer_0
  10
500.7717
  20
268.91416
  0
VERTEX
  5
a5e
  8
Layer_0
  10
500.47336
  20
267.32441
  0
VERTEX
  5
a5f
  8
Layer_0
  10
500.1848
  20
265.69091
  0
VERTEX
  5
a60
  8
Layer_0
  10
499.90472
  20
264.0102
  0
VERTEX
  5
a61
  8
Layer_0
  10
499.63181
  20
262.27882
  0
VERTEX
  5
a62
  8
Layer_0
  10
499.36475
  20
260.49329
  0
VERTEX
  5
a63
  8
Layer_0
  10
499.11798
  20
258.84218
  0
VERTEX
  5
a64
  8
Layer_0
  10
498.86579
  20
257.23663
  0
VERTEX
  5
a65
  8
Layer_0
  10
498.60769
  20
255.67515
  0
VERTEX
  5
a66
  8
Layer_0
  10
498.34314
  20
254.15628
  0
VERTEX
  5
a67
  8
Layer_0
  10
498.07164
  20
252.67855
  0
VERTEX
  5
a68
  8
Layer_0
  10
497.79266
  20
251.24046
  0
VERTEX
  5
a69
  8
Layer_0
  10
497.50569
  20
249.84056
  0
VERTEX
  5
a6a
  8
Layer_0
  10
497.21022
  20
248.47737
  0
VERTEX
  5
a6b
  8
Layer_0
  10
496.90573
  20
247.14941
  0
VERTEX
  5
a6c
  8
Layer_0
  10
496.59171
  20
245.85521
  0
VERTEX
  5
a6d
  8
Layer_0
  10
496.26763
  20
244.59328
  0
VERTEX
  5
a6e
  8
Layer_0
  10
495.93298
  20
243.36217
  0
VERTEX
  5
a6f
  8
Layer_0
  10
495.58725
  20
242.16039
  0
VERTEX
  5
a70
  8
Layer_0
  10
495.22992
  20
240.98646
  0
VERTEX
  5
a71
  8
Layer_0
  10
494.86047
  20
239.83892
  0
VERTEX
  5
a72
  8
Layer_0
  10
494.47839
  20
238.71629
  0
VERTEX
  5
a73
  8
Layer_0
  10
493.67427
  20
236.53984
  0
VERTEX
  5
a74
  8
Layer_0
  10
492.81343
  20
234.44533
  0
VERTEX
  5
a75
  8
Layer_0
  10
491.89174
  20
232.42095
  0
VERTEX
  5
a76
  8
Layer_0
  10
490.90508
  20
230.45491
  0
VERTEX
  5
a77
  8
Layer_0
  10
489.84932
  20
228.53541
  0
VERTEX
  5
a78
  8
Layer_0
  10
488.72033
  20
226.65065
  0
VERTEX
  5
a79
  8
Layer_0
  10
487.51398
  20
224.78882
  0
VERTEX
  5
a7a
  8
Layer_0
  10
486.22615
  20
222.93814
  0
VERTEX
  5
a7b
  8
Layer_0
  10
485.72435
  20
222.23526
  0
VERTEX
  5
a7c
  8
Layer_0
  10
485.21062
  20
221.5055
  0
VERTEX
  5
a7d
  8
Layer_0
  10
484.68602
  20
220.75061
  0
VERTEX
  5
a7e
  8
Layer_0
  10
484.15162
  20
219.97232
  0
VERTEX
  5
a7f
  8
Layer_0
  10
483.05772
  20
218.35252
  0
VERTEX
  5
a80
  8
Layer_0
  10
481.93745
  20
216.66004
  0
VERTEX
  5
a81
  8
Layer_0
  10
480.79938
  20
214.90883
  0
VERTEX
  5
a82
  8
Layer_0
  10
479.65204
  20
213.11282
  0
VERTEX
  5
a83
  8
Layer_0
  10
478.50399
  20
211.28595
  0
VERTEX
  5
a84
  8
Layer_0
  10
477.36378
  20
209.44214
  0
VERTEX
  5
a85
  8
Layer_0
  10
476.23995
  20
207.59535
  0
VERTEX
  5
a86
  8
Layer_0
  10
475.14106
  20
205.7595
  0
VERTEX
  5
a87
  8
Layer_0
  10
474.07566
  20
203.94853
  0
VERTEX
  5
a88
  8
Layer_0
  10
473.05229
  20
202.17638
  0
VERTEX
  5
a89
  8
Layer_0
  10
472.0795
  20
200.45699
  0
VERTEX
  5
a8a
  8
Layer_0
  10
471.16586
  20
198.80429
  0
VERTEX
  5
a8b
  8
Layer_0
  10
470.73388
  20
198.0073
  0
VERTEX
  5
a8c
  8
Layer_0
  10
470.31989
  20
197.23222
  0
VERTEX
  5
a8d
  8
Layer_0
  10
469.92496
  20
196.48078
  0
VERTEX
  5
a8e
  8
Layer_0
  10
469.55016
  20
195.75472
  0
VERTEX
  5
a8f
  8
Layer_0
  10
469.02794
  20
194.74223
  0
VERTEX
  5
a90
  8
Layer_0
  10
468.50978
  20
193.75631
  0
VERTEX
  5
a91
  8
Layer_0
  10
467.99513
  20
192.79671
  0
VERTEX
  5
a92
  8
Layer_0
  10
467.48347
  20
191.86319
  0
VERTEX
  5
a93
  8
Layer_0
  10
466.97428
  20
190.95553
  0
VERTEX
  5
a94
  8
Layer_0
  10
466.46702
  20
190.07348
  0
VERTEX
  5
a95
  8
Layer_0
  10
465.96116
  20
189.21681
  0
VERTEX
  5
a96
  8
Layer_0
  10
465.45617
  20
188.38528
  0
VERTEX
  5
a97
  8
Layer_0
  10
464.4467
  20
186.79672
  0
VERTEX
  5
a98
  8
Layer_0
  10
463.43437
  20
185.3059
  0
VERTEX
  5
a99
  8
Layer_0
  10
462.41494
  20
183.91093
  0
VERTEX
  5
a9a
  8
Layer_0
  10
461.38419
  20
182.60993
  0
VERTEX
  5
a9b
  8
Layer_0
  10
460.33787
  20
181.40102
  0
VERTEX
  5
a9c
  8
Layer_0
  10
459.27176
  20
180.28229
  0
VERTEX
  5
a9d
  8
Layer_0
  10
458.18161
  20
179.25188
  0
VERTEX
  5
a9e
  8
Layer_0
  10
457.0632
  20
178.30788
  0
VERTEX
  5
a9f
  8
Layer_0
  10
455.91228
  20
177.44842
  0
VERTEX
  5
aa0
  8
Layer_0
  10
454.72463
  20
176.6716
  0
VERTEX
  5
aa1
  8
Layer_0
  10
453.49601
  20
175.97554
  0
VERTEX
  5
aa2
  8
Layer_0
  10
452.22219
  20
175.35835
  0
VERTEX
  5
aa3
  8
Layer_0
  10
450.89892
  20
174.81815
  0
VERTEX
  5
aa4
  8
Layer_0
  10
449.52198
  20
174.35304
  0
VERTEX
  5
aa5
  8
Layer_0
  10
448.08713
  20
173.96115
  0
VERTEX
  5
aa6
  8
Layer_0
  10
446.59014
  20
173.64057
  0
VERTEX
  5
aa7
  8
Layer_0
  10
445.02677
  20
173.38943
  0
VERTEX
  5
aa8
  8
Layer_0
  10
443.39279
  20
173.20584
  0
VERTEX
  5
aa9
  8
Layer_0
  10
442.54799
  20
173.13878
  0
VERTEX
  5
aaa
  8
Layer_0
  10
441.68396
  20
173.08791
  0
VERTEX
  5
aab
  8
Layer_0
  10
440.80015
  20
173.05298
  0
VERTEX
  5
aac
  8
Layer_0
  10
439.89605
  20
173.03375
  0
VERTEX
  5
aad
  8
Layer_0
  10
438.97111
  20
173.03
  0
VERTEX
  5
aae
  8
Layer_0
  10
438.02482
  20
173.04148
  0
VERTEX
  5
aaf
  8
Layer_0
  10
437.05664
  20
173.06797
  0
VERTEX
  5
ab0
  8
Layer_0
  10
436.06604
  20
173.10921
  0
VERTEX
  5
ab1
  8
Layer_0
  10
435.0525
  20
173.16499
  0
VERTEX
  5
ab2
  8
Layer_0
  10
434.01548
  20
173.23505
  0
VERTEX
  5
ab3
  8
Layer_0
  10
432.95445
  20
173.31918
  0
VERTEX
  5
ab4
  8
Layer_0
  10
431.8689
  20
173.41712
  0
VERTEX
  5
ab5
  8
Layer_0
  10
430.75827
  20
173.52865
  0
VERTEX
  5
ab6
  8
Layer_0
  10
429.62206
  20
173.65353
  0
VERTEX
  5
ab7
  8
Layer_0
  10
428.45972
  20
173.79152
  0
VERTEX
  5
ab8
  8
Layer_0
  10
427.27073
  20
173.94238
  0
VERTEX
  5
ab9
  8
Layer_0
  10
426.05456
  20
174.10589
  0
VERTEX
  5
aba
  8
Layer_0
  10
424.81068
  20
174.2818
  0
VERTEX
  5
abb
  8
Layer_0
  10
423.53856
  20
174.46989
  0
VERTEX
  5
abc
  8
Layer_0
  10
422.23767
  20
174.6699
  0
VERTEX
  5
abd
  8
Layer_0
  10
421.16053
  20
174.83863
  0
VERTEX
  5
abe
  8
Layer_0
  10
420.1163
  20
175.00277
  0
VERTEX
  5
abf
  8
Layer_0
  10
419.10401
  20
175.1629
  0
VERTEX
  5
ac0
  8
Layer_0
  10
418.12266
  20
175.31961
  0
VERTEX
  5
ac1
  8
Layer_0
  10
417.17127
  20
175.47348
  0
VERTEX
  5
ac2
  8
Layer_0
  10
416.24885
  20
175.62511
  0
VERTEX
  5
ac3
  8
Layer_0
  10
415.35442
  20
175.77508
  0
VERTEX
  5
ac4
  8
Layer_0
  10
414.48698
  20
175.92398
  0
VERTEX
  5
ac5
  8
Layer_0
  10
412.82913
  20
176.22093
  0
VERTEX
  5
ac6
  8
Layer_0
  10
411.26741
  20
176.52067
  0
VERTEX
  5
ac7
  8
Layer_0
  10
409.79393
  20
176.82788
  0
VERTEX
  5
ac8
  8
Layer_0
  10
408.40078
  20
177.14729
  0
VERTEX
  5
ac9
  8
Layer_0
  10
407.08006
  20
177.48359
  0
VERTEX
  5
aca
  8
Layer_0
  10
405.82389
  20
177.84148
  0
VERTEX
  5
acb
  8
Layer_0
  10
404.62434
  20
178.22568
  0
VERTEX
  5
acc
  8
Layer_0
  10
403.47354
  20
178.64088
  0
VERTEX
  5
acd
  8
Layer_0
  10
402.36358
  20
179.09179
  0
VERTEX
  5
ace
  8
Layer_0
  10
401.28655
  20
179.58312
  0
VERTEX
  5
acf
  8
Layer_0
  10
400.23457
  20
180.11956
  0
VERTEX
  5
ad0
  8
Layer_0
  10
399.19972
  20
180.70582
  0
VERTEX
  5
ad1
  8
Layer_0
  10
398.17413
  20
181.34661
  0
VERTEX
  5
ad2
  8
Layer_0
  10
397.14987
  20
182.04663
  0
VERTEX
  5
ad3
  8
Layer_0
  10
396.11906
  20
182.81059
  0
VERTEX
  5
ad4
  8
Layer_0
  10
395.0738
  20
183.64318
  0
VERTEX
  5
ad5
  8
Layer_0
  10
394.00618
  20
184.54911
  0
VERTEX
  5
ad6
  8
Layer_0
  10
392.90831
  20
185.53309
  0
VERTEX
  5
ad7
  8
Layer_0
  10
391.77229
  20
186.59982
  0
VERTEX
  5
ad8
  8
Layer_0
  10
390.59021
  20
187.75401
  0
VERTEX
  5
ad9
  8
Layer_0
  10
389.97944
  20
188.36537
  0
VERTEX
  5
ada
  8
Layer_0
  10
389.35419
  20
189.00035
  0
VERTEX
  5
adb
  8
Layer_0
  10
388.71348
  20
189.65955
  0
VERTEX
  5
adc
  8
Layer_0
  10
388.05633
  20
190.34356
  0
VERTEX
  5
add
  8
Layer_0
  10
387.38173
  20
191.05295
  0
VERTEX
  5
ade
  8
Layer_0
  10
386.68871
  20
191.78833
  0
VERTEX
  5
adf
  8
Layer_0
  10
385.97628
  20
192.55027
  0
VERTEX
  5
ae0
  8
Layer_0
  10
385.24345
  20
193.33937
  0
VERTEX
  5
ae1
  8
Layer_0
  10
384.48923
  20
194.15622
  0
VERTEX
  5
ae2
  8
Layer_0
  10
383.71264
  20
195.00139
  0
VERTEX
  5
ae3
  8
Layer_0
  10
382.91269
  20
195.87549
  0
VERTEX
  5
ae4
  8
Layer_0
  10
382.08839
  20
196.77909
  0
VERTEX
  5
ae5
  8
Layer_0
  10
381.23875
  20
197.71279
  0
VERTEX
  5
ae6
  8
Layer_0
  10
380.36279
  20
198.67717
  0
VERTEX
  5
ae7
  8
Layer_0
  10
379.45952
  20
199.67283
  0
VERTEX
  5
ae8
  8
Layer_0
  10
378.52795
  20
200.70034
  0
VERTEX
  5
ae9
  8
Layer_0
  10
377.04908
  20
202.3383
  0
VERTEX
  5
aea
  8
Layer_0
  10
375.63915
  20
203.91373
  0
VERTEX
  5
aeb
  8
Layer_0
  10
374.29672
  20
205.42902
  0
VERTEX
  5
aec
  8
Layer_0
  10
373.02033
  20
206.88651
  0
VERTEX
  5
aed
  8
Layer_0
  10
371.80854
  20
208.28858
  0
VERTEX
  5
aee
  8
Layer_0
  10
370.65989
  20
209.6376
  0
VERTEX
  5
aef
  8
Layer_0
  10
369.57293
  20
210.93592
  0
VERTEX
  5
af0
  8
Layer_0
  10
368.54621
  20
212.18591
  0
VERTEX
  5
af1
  8
Layer_0
  10
367.57829
  20
213.38994
  0
VERTEX
  5
af2
  8
Layer_0
  10
366.6677
  20
214.55038
  0
VERTEX
  5
af3
  8
Layer_0
  10
365.81301
  20
215.66958
  0
VERTEX
  5
af4
  8
Layer_0
  10
365.01276
  20
216.74992
  0
VERTEX
  5
af5
  8
Layer_0
  10
364.2655
  20
217.79375
  0
VERTEX
  5
af6
  8
Layer_0
  10
363.56978
  20
218.80345
  0
VERTEX
  5
af7
  8
Layer_0
  10
362.92414
  20
219.78138
  0
VERTEX
  5
af8
  8
Layer_0
  10
362.32715
  20
220.72989
  0
VERTEX
  5
af9
  8
Layer_0
  10
361.77735
  20
221.65137
  0
VERTEX
  5
afa
  8
Layer_0
  10
361.27328
  20
222.54818
  0
VERTEX
  5
afb
  8
Layer_0
  10
360.8135
  20
223.42267
  0
VERTEX
  5
afc
  8
Layer_0
  10
360.39655
  20
224.27721
  0
VERTEX
  5
afd
  8
Layer_0
  10
360.021
  20
225.11418
  0
VERTEX
  5
afe
  8
Layer_0
  10
359.68538
  20
225.93593
  0
VERTEX
  5
aff
  8
Layer_0
  10
359.38824
  20
226.74483
  0
VERTEX
  5
b00
  8
Layer_0
  10
359.12814
  20
227.54325
  0
VERTEX
  5
b01
  8
Layer_0
  10
358.90363
  20
228.33354
  0
VERTEX
  5
b02
  8
Layer_0
  10
358.71325
  20
229.11808
  0
VERTEX
  5
b03
  8
Layer_0
  10
358.55555
  20
229.89923
  0
VERTEX
  5
b04
  8
Layer_0
  10
358.42909
  20
230.67936
  0
VERTEX
  5
b05
  8
Layer_0
  10
358.33241
  20
231.46083
  0
VERTEX
  5
b06
  8
Layer_0
  10
358.26406
  20
232.246
  0
VERTEX
  5
b07
  8
Layer_0
  10
358.22259
  20
233.03724
  0
VERTEX
  5
b08
  8
Layer_0
  10
358.20656
  20
233.83692
  0
VERTEX
  5
b09
  8
Layer_0
  10
358.18455
  20
234.86447
  0
VERTEX
  5
b0a
  8
Layer_0
  10
358.12748
  20
235.87338
  0
VERTEX
  5
b0b
  8
Layer_0
  10
358.03403
  20
236.86537
  0
VERTEX
  5
b0c
  8
Layer_0
  10
357.9029
  20
237.84214
  0
VERTEX
  5
b0d
  8
Layer_0
  10
357.73276
  20
238.80541
  0
VERTEX
  5
b0e
  8
Layer_0
  10
357.52232
  20
239.75688
  0
VERTEX
  5
b0f
  8
Layer_0
  10
357.27026
  20
240.69827
  0
VERTEX
  5
b10
  8
Layer_0
  10
356.97528
  20
241.63128
  0
VERTEX
  5
b11
  8
Layer_0
  10
356.63606
  20
242.55763
  0
VERTEX
  5
b12
  8
Layer_0
  10
356.25129
  20
243.47903
  0
VERTEX
  5
b13
  8
Layer_0
  10
355.81967
  20
244.39719
  0
VERTEX
  5
b14
  8
Layer_0
  10
355.33988
  20
245.31381
  0
VERTEX
  5
b15
  8
Layer_0
  10
354.81062
  20
246.23062
  0
VERTEX
  5
b16
  8
Layer_0
  10
354.23058
  20
247.14931
  0
VERTEX
  5
b17
  8
Layer_0
  10
353.59845
  20
248.0716
  0
VERTEX
  5
b18
  8
Layer_0
  10
352.91291
  20
248.9992
  0
VERTEX
  5
b19
  8
Layer_0
  10
352.17266
  20
249.93382
  0
VERTEX
  5
b1a
  8
Layer_0
  10
351.37638
  20
250.87718
  0
VERTEX
  5
b1b
  8
Layer_0
  10
350.52278
  20
251.83097
  0
VERTEX
  5
b1c
  8
Layer_0
  10
349.61053
  20
252.79691
  0
VERTEX
  5
b1d
  8
Layer_0
  10
348.63834
  20
253.77672
  0
VERTEX
  5
b1e
  8
Layer_0
  10
347.60488
  20
254.7721
  0
VERTEX
  5
b1f
  8
Layer_0
  10
346.50886
  20
255.78476
  0
VERTEX
  5
b20
  8
Layer_0
  10
345.34895
  20
256.81642
  0
VERTEX
  5
b21
  8
Layer_0
  10
344.12386
  20
257.86877
  0
VERTEX
  5
b22
  8
Layer_0
  10
342.83227
  20
258.94355
  0
VERTEX
  5
b23
  8
Layer_0
  10
341.47287
  20
260.04244
  0
VERTEX
  5
b24
  8
Layer_0
  10
340.04435
  20
261.16718
  0
VERTEX
  5
b25
  8
Layer_0
  10
338.5454
  20
262.31945
  0
VERTEX
  5
b26
  8
Layer_0
  10
336.97472
  20
263.50099
  0
VERTEX
  5
b27
  8
Layer_0
  10
335.331
  20
264.71348
  0
VERTEX
  5
b28
  8
Layer_0
  10
333.61291
  20
265.95866
  0
VERTEX
  5
b29
  8
Layer_0
  10
332.81095
  20
266.53815
  0
VERTEX
  5
b2a
  8
Layer_0
  10
332.05731
  20
267.08996
  0
VERTEX
  5
b2b
  8
Layer_0
  10
331.35123
  20
267.6163
  0
VERTEX
  5
b2c
  8
Layer_0
  10
330.69194
  20
268.11936
  0
VERTEX
  5
b2d
  8
Layer_0
  10
330.07866
  20
268.60134
  0
VERTEX
  5
b2e
  8
Layer_0
  10
329.51063
  20
269.06442
  0
VERTEX
  5
b2f
  8
Layer_0
  10
328.98707
  20
269.5108
  0
VERTEX
  5
b30
  8
Layer_0
  10
328.50722
  20
269.94268
  0
VERTEX
  5
b31
  8
Layer_0
  10
328.07031
  20
270.36225
  0
VERTEX
  5
b32
  8
Layer_0
  10
327.67556
  20
270.77171
  0
VERTEX
  5
b33
  8
Layer_0
  10
327.3222
  20
271.17324
  0
VERTEX
  5
b34
  8
Layer_0
  10
327.00946
  20
271.56905
  0
VERTEX
  5
b35
  8
Layer_0
  10
326.73658
  20
271.96132
  0
VERTEX
  5
b36
  8
Layer_0
  10
326.50278
  20
272.35226
  0
VERTEX
  5
b37
  8
Layer_0
  10
326.3073
  20
272.74406
  0
VERTEX
  5
b38
  8
Layer_0
  10
326.14935
  20
273.1389
  0
VERTEX
  5
b39
  8
Layer_0
  10
326.02818
  20
273.53899
  0
VERTEX
  5
b3a
  8
Layer_0
  10
325.94301
  20
273.94652
  0
VERTEX
  5
b3b
  8
Layer_0
  10
325.89307
  20
274.36369
  0
VERTEX
  5
b3c
  8
Layer_0
  10
325.87759
  20
274.79268
  0
VERTEX
  5
b3d
  8
Layer_0
  10
325.8958
  20
275.23569
  0
VERTEX
  5
b3e
  8
Layer_0
  10
325.94693
  20
275.69492
  0
VERTEX
  5
b3f
  8
Layer_0
  10
326.0302
  20
276.17257
  0
VERTEX
  5
b40
  8
Layer_0
  10
326.14486
  20
276.67081
  0
VERTEX
  5
b41
  8
Layer_0
  10
326.29012
  20
277.19186
  0
VERTEX
  5
b42
  8
Layer_0
  10
326.46522
  20
277.7379
  0
VERTEX
  5
b43
  8
Layer_0
  10
326.66939
  20
278.31113
  0
VERTEX
  5
b44
  8
Layer_0
  10
326.90186
  20
278.91374
  0
VERTEX
  5
b45
  8
Layer_0
  10
327.16185
  20
279.54793
  0
VERTEX
  5
b46
  8
Layer_0
  10
327.4486
  20
280.21588
  0
VERTEX
  5
b47
  8
Layer_0
  10
327.76133
  20
280.91981
  0
VERTEX
  5
b48
  8
Layer_0
  10
328.09928
  20
281.66189
  0
VERTEX
  5
b49
  8
Layer_0
  10
328.79739
  20
283.22116
  0
VERTEX
  5
b4a
  8
Layer_0
  10
329.43425
  20
284.73265
  0
VERTEX
  5
b4b
  8
Layer_0
  10
330.00887
  20
286.1996
  0
VERTEX
  5
b4c
  8
Layer_0
  10
330.52025
  20
287.62528
  0
VERTEX
  5
b4d
  8
Layer_0
  10
330.96739
  20
289.01293
  0
VERTEX
  5
b4e
  8
Layer_0
  10
331.34929
  20
290.36583
  0
VERTEX
  5
b4f
  8
Layer_0
  10
331.66495
  20
291.68722
  0
VERTEX
  5
b50
  8
Layer_0
  10
331.91337
  20
292.98037
  0
VERTEX
  5
b51
  8
Layer_0
  10
332.09355
  20
294.24852
  0
VERTEX
  5
b52
  8
Layer_0
  10
332.2045
  20
295.49494
  0
VERTEX
  5
b53
  8
Layer_0
  10
332.24521
  20
296.72289
  0
VERTEX
  5
b54
  8
Layer_0
  10
332.21468
  20
297.93561
  0
VERTEX
  5
b55
  8
Layer_0
  10
332.11192
  20
299.13638
  0
VERTEX
  5
b56
  8
Layer_0
  10
331.93593
  20
300.32844
  0
VERTEX
  5
b57
  8
Layer_0
  10
331.6857
  20
301.51504
  0
VERTEX
  5
b58
  8
Layer_0
  10
331.36023
  20
302.69946
  0
VERTEX
  5
b59
  8
Layer_0
  10
330.95854
  20
303.88495
  0
VERTEX
  5
b5a
  8
Layer_0
  10
330.47961
  20
305.07476
  0
VERTEX
  5
b5b
  8
Layer_0
  10
329.92245
  20
306.27214
  0
VERTEX
  5
b5c
  8
Layer_0
  10
329.28606
  20
307.48037
  0
VERTEX
  5
b5d
  8
Layer_0
  10
328.56944
  20
308.70268
  0
VERTEX
  5
b5e
  8
Layer_0
  10
327.77159
  20
309.94235
  0
VERTEX
  5
b5f
  8
Layer_0
  10
326.89151
  20
311.20263
  0
VERTEX
  5
b60
  8
Layer_0
  10
325.9282
  20
312.48677
  0
VERTEX
  5
b61
  8
Layer_0
  10
324.88067
  20
313.79803
  0
VERTEX
  5
b62
  8
Layer_0
  10
323.74791
  20
315.13968
  0
VERTEX
  5
b63
  8
Layer_0
  10
322.52892
  20
316.51495
  0
VERTEX
  5
b64
  8
Layer_0
  10
321.2227
  20
317.92713
  0
VERTEX
  5
b65
  8
Layer_0
  10
319.82827
  20
319.37945
  0
VERTEX
  5
b66
  8
Layer_0
  10
318.3446
  20
320.87517
  0
VERTEX
  5
b67
  8
Layer_0
  10
317.569
  20
321.64033
  0
VERTEX
  5
b68
  8
Layer_0
  10
316.77072
  20
322.41757
  0
VERTEX
  5
b69
  8
Layer_0
  10
315.94963
  20
323.20728
  0
VERTEX
  5
b6a
  8
Layer_0
  10
315.10561
  20
324.00988
  0
VERTEX
  5
b6b
  8
Layer_0
  10
314.20582
  20
324.85235
  0
VERTEX
  5
b6c
  8
Layer_0
  10
313.27239
  20
325.70977
  0
VERTEX
  5
b6d
  8
Layer_0
  10
312.30754
  20
326.58049
  0
VERTEX
  5
b6e
  8
Layer_0
  10
311.31348
  20
327.46282
  0
VERTEX
  5
b6f
  8
Layer_0
  10
309.24655
  20
329.25564
  0
VERTEX
  5
b70
  8
Layer_0
  10
307.0893
  20
331.07487
  0
VERTEX
  5
b71
  8
Layer_0
  10
304.85942
  20
332.90713
  0
VERTEX
  5
b72
  8
Layer_0
  10
302.57461
  20
334.73904
  0
VERTEX
  5
b73
  8
Layer_0
  10
300.25255
  20
336.55724
  0
VERTEX
  5
b74
  8
Layer_0
  10
297.91095
  20
338.34833
  0
VERTEX
  5
b75
  8
Layer_0
  10
295.56748
  20
340.09896
  0
VERTEX
  5
b76
  8
Layer_0
  10
293.23984
  20
341.79574
  0
VERTEX
  5
b77
  8
Layer_0
  10
290.94573
  20
343.42531
  0
VERTEX
  5
b78
  8
Layer_0
  10
288.70283
  20
344.97428
  0
VERTEX
  5
b79
  8
Layer_0
  10
287.60612
  20
345.71436
  0
VERTEX
  5
b7a
  8
Layer_0
  10
286.52885
  20
346.42928
  0
VERTEX
  5
b7b
  8
Layer_0
  10
285.47322
  20
347.11736
  0
VERTEX
  5
b7c
  8
Layer_0
  10
284.44146
  20
347.77693
  0
VERTEX
  5
b7d
  8
Layer_0
  10
283.43577
  20
348.40633
  0
VERTEX
  5
b7e
  8
Layer_0
  10
282.45837
  20
349.00387
  0
VERTEX
  5
b7f
  8
Layer_0
  10
281.51146
  20
349.56789
  0
VERTEX
  5
b80
  8
Layer_0
  10
280.59726
  20
350.09672
  0
VERTEX
  5
b81
  8
Layer_0
  10
263.19885
  20
360.00061
  0
VERTEX
  5
b82
  8
Layer_0
  10
264.69751
  20
378.3327
  0
VERTEX
  5
b83
  8
Layer_0
  10
264.87748
  20
380.26791
  0
VERTEX
  5
b84
  8
Layer_0
  10
265.10609
  20
382.2818
  0
VERTEX
  5
b85
  8
Layer_0
  10
265.37986
  20
384.35828
  0
VERTEX
  5
b86
  8
Layer_0
  10
265.6953
  20
386.48125
  0
VERTEX
  5
b87
  8
Layer_0
  10
266.04894
  20
388.63463
  0
VERTEX
  5
b88
  8
Layer_0
  10
266.43731
  20
390.80231
  0
VERTEX
  5
b89
  8
Layer_0
  10
266.85695
  20
392.9682
  0
VERTEX
  5
b8a
  8
Layer_0
  10
267.30437
  20
395.11621
  0
VERTEX
  5
b8b
  8
Layer_0
  10
267.77612
  20
397.23024
  0
VERTEX
  5
b8c
  8
Layer_0
  10
268.26871
  20
399.29419
  0
VERTEX
  5
b8d
  8
Layer_0
  10
268.77868
  20
401.29198
  0
VERTEX
  5
b8e
  8
Layer_0
  10
269.30255
  20
403.2075
  0
VERTEX
  5
b8f
  8
Layer_0
  10
269.56861
  20
404.12939
  0
VERTEX
  5
b90
  8
Layer_0
  10
269.83685
  20
405.02467
  0
VERTEX
  5
b91
  8
Layer_0
  10
270.10683
  20
405.89134
  0
VERTEX
  5
b92
  8
Layer_0
  10
270.37812
  20
406.72738
  0
VERTEX
  5
b93
  8
Layer_0
  10
270.65027
  20
407.53079
  0
VERTEX
  5
b94
  8
Layer_0
  10
270.92287
  20
408.29955
  0
VERTEX
  5
b95
  8
Layer_0
  10
271.19547
  20
409.03165
  0
VERTEX
  5
b96
  8
Layer_0
  10
271.46765
  20
409.72507
  0
VERTEX
  5
b97
  8
Layer_0
  10
271.7627
  20
410.48476
  0
VERTEX
  5
b98
  8
Layer_0
  10
272.05173
  20
411.28641
  0
VERTEX
  5
b99
  8
Layer_0
  10
272.33455
  20
412.12868
  0
VERTEX
  5
b9a
  8
Layer_0
  10
272.61097
  20
413.01021
  0
VERTEX
  5
b9b
  8
Layer_0
  10
272.88079
  20
413.92967
  0
VERTEX
  5
b9c
  8
Layer_0
  10
273.14383
  20
414.8857
  0
VERTEX
  5
b9d
  8
Layer_0
  10
273.39989
  20
415.87697
  0
VERTEX
  5
b9e
  8
Layer_0
  10
273.64877
  20
416.90212
  0
VERTEX
  5
b9f
  8
Layer_0
  10
273.89029
  20
417.95982
  0
VERTEX
  5
ba0
  8
Layer_0
  10
274.12425
  20
419.04871
  0
VERTEX
  5
ba1
  8
Layer_0
  10
274.35046
  20
420.16744
  0
VERTEX
  5
ba2
  8
Layer_0
  10
274.56873
  20
421.31469
  0
VERTEX
  5
ba3
  8
Layer_0
  10
274.77886
  20
422.48909
  0
VERTEX
  5
ba4
  8
Layer_0
  10
274.98067
  20
423.6893
  0
VERTEX
  5
ba5
  8
Layer_0
  10
275.17396
  20
424.91399
  0
VERTEX
  5
ba6
  8
Layer_0
  10
275.35853
  20
426.16179
  0
VERTEX
  5
ba7
  8
Layer_0
  10
275.70077
  20
428.72139
  0
VERTEX
  5
ba8
  8
Layer_0
  10
276.00585
  20
431.35732
  0
VERTEX
  5
ba9
  8
Layer_0
  10
276.27223
  20
434.05884
  0
VERTEX
  5
baa
  8
Layer_0
  10
276.49837
  20
436.81516
  0
VERTEX
  5
bab
  8
Layer_0
  10
276.68273
  20
439.61554
  0
VERTEX
  5
bac
  8
Layer_0
  10
276.82377
  20
442.4492
  0
VERTEX
  5
bad
  8
Layer_0
  10
276.91995
  20
445.30537
  0
VERTEX
  5
bae
  8
Layer_0
  10
276.96973
  20
448.17331
  0
VERTEX
  5
baf
  8
Layer_0
  10
276.98478
  20
450.23133
  0
VERTEX
  5
bb0
  8
Layer_0
  10
276.99088
  20
452.19179
  0
VERTEX
  5
bb1
  8
Layer_0
  10
276.98683
  20
454.05992
  0
VERTEX
  5
bb2
  8
Layer_0
  10
276.97145
  20
455.84092
  0
VERTEX
  5
bb3
  8
Layer_0
  10
276.94356
  20
457.54003
  0
VERTEX
  5
bb4
  8
Layer_0
  10
276.90197
  20
459.16248
  0
VERTEX
  5
bb5
  8
Layer_0
  10
276.84549
  20
460.71348
  0
VERTEX
  5
bb6
  8
Layer_0
  10
276.77295
  20
462.19825
  0
VERTEX
  5
bb7
  8
Layer_0
  10
276.68315
  20
463.62203
  0
VERTEX
  5
bb8
  8
Layer_0
  10
276.57492
  20
464.99003
  0
VERTEX
  5
bb9
  8
Layer_0
  10
276.44707
  20
466.30748
  0
VERTEX
  5
bba
  8
Layer_0
  10
276.2984
  20
467.57959
  0
VERTEX
  5
bbb
  8
Layer_0
  10
276.12775
  20
468.81161
  0
VERTEX
  5
bbc
  8
Layer_0
  10
275.93391
  20
470.00873
  0
VERTEX
  5
bbd
  8
Layer_0
  10
275.71572
  20
471.1762
  0
VERTEX
  5
bbe
  8
Layer_0
  10
275.47197
  20
472.31924
  0
VERTEX
  5
bbf
  8
Layer_0
  10
275.2015
  20
473.44306
  0
VERTEX
  5
bc0
  8
Layer_0
  10
274.90311
  20
474.55289
  0
VERTEX
  5
bc1
  8
Layer_0
  10
274.57561
  20
475.65396
  0
VERTEX
  5
bc2
  8
Layer_0
  10
274.21783
  20
476.75148
  0
VERTEX
  5
bc3
  8
Layer_0
  10
273.82858
  20
477.85068
  0
VERTEX
  5
bc4
  8
Layer_0
  10
273.40667
  20
478.95679
  0
VERTEX
  5
bc5
  8
Layer_0
  10
272.95092
  20
480.07502
  0
VERTEX
  5
bc6
  8
Layer_0
  10
272.46014
  20
481.21061
  0
VERTEX
  5
bc7
  8
Layer_0
  10
271.93316
  20
482.36877
  0
VERTEX
  5
bc8
  8
Layer_0
  10
271.36877
  20
483.55472
  0
VERTEX
  5
bc9
  8
Layer_0
  10
270.76581
  20
484.7737
  0
VERTEX
  5
bca
  8
Layer_0
  10
270.12308
  20
486.03092
  0
VERTEX
  5
bcb
  8
Layer_0
  10
269.4394
  20
487.33161
  0
VERTEX
  5
bcc
  8
Layer_0
  10
268.71358
  20
488.68098
  0
VERTEX
  5
bcd
  8
Layer_0
  10
267.94445
  20
490.08428
  0
VERTEX
  5
bce
  8
Layer_0
  10
267.13081
  20
491.5467
  0
VERTEX
  5
bcf
  8
Layer_0
  10
266.08558
  20
493.39155
  0
VERTEX
  5
bd0
  8
Layer_0
  10
265.03142
  20
495.20957
  0
VERTEX
  5
bd1
  8
Layer_0
  10
263.97542
  20
496.99029
  0
VERTEX
  5
bd2
  8
Layer_0
  10
262.92467
  20
498.72324
  0
VERTEX
  5
bd3
  8
Layer_0
  10
261.88625
  20
500.39795
  0
VERTEX
  5
bd4
  8
Layer_0
  10
260.86726
  20
502.00393
  0
VERTEX
  5
bd5
  8
Layer_0
  10
259.87478
  20
503.53071
  0
VERTEX
  5
bd6
  8
Layer_0
  10
258.9159
  20
504.96782
  0
VERTEX
  5
bd7
  8
Layer_0
  10
258.45127
  20
505.64948
  0
VERTEX
  5
bd8
  8
Layer_0
  10
257.9977
  20
506.30478
  0
VERTEX
  5
bd9
  8
Layer_0
  10
257.55608
  20
506.93243
  0
VERTEX
  5
bda
  8
Layer_0
  10
257.12729
  20
507.53112
  0
VERTEX
  5
bdb
  8
Layer_0
  10
256.71221
  20
508.09953
  0
VERTEX
  5
bdc
  8
Layer_0
  10
256.31174
  20
508.63636
  0
VERTEX
  5
bdd
  8
Layer_0
  10
255.92675
  20
509.14029
  0
VERTEX
  5
bde
  8
Layer_0
  10
255.55814
  20
509.61002
  0
VERTEX
  5
bdf
  8
Layer_0
  10
255.20679
  20
510.04424
  0
VERTEX
  5
be0
  8
Layer_0
  10
254.87358
  20
510.44163
  0
VERTEX
  5
be1
  8
Layer_0
  10
254.55941
  20
510.8009
  0
VERTEX
  5
be2
  8
Layer_0
  10
254.26516
  20
511.12072
  0
VERTEX
  5
be3
  8
Layer_0
  10
253.99172
  20
511.39979
  0
VERTEX
  5
be4
  8
Layer_0
  10
253.73996
  20
511.6368
  0
VERTEX
  5
be5
  8
Layer_0
  10
253.51078
  20
511.83045
  0
VERTEX
  5
be6
  8
Layer_0
  10
253.30506
  20
511.97941
  0
VERTEX
  5
be7
  8
Layer_0
  10
253.08754
  20
512.13393
  0
VERTEX
  5
be8
  8
Layer_0
  10
252.82334
  20
512.34409
  0
VERTEX
  5
be9
  8
Layer_0
  10
252.51392
  20
512.6083
  0
VERTEX
  5
bea
  8
Layer_0
  10
252.16075
  20
512.92497
  0
VERTEX
  5
beb
  8
Layer_0
  10
251.76528
  20
513.29253
  0
VERTEX
  5
bec
  8
Layer_0
  10
251.32899
  20
513.7094
  0
VERTEX
  5
bed
  8
Layer_0
  10
250.85334
  20
514.17398
  0
VERTEX
  5
bee
  8
Layer_0
  10
250.33979
  20
514.68471
  0
VERTEX
  5
bef
  8
Layer_0
  10
249.78981
  20
515.23999
  0
VERTEX
  5
bf0
  8
Layer_0
  10
249.20486
  20
515.83825
  0
VERTEX
  5
bf1
  8
Layer_0
  10
248.58641
  20
516.47789
  0
VERTEX
  5
bf2
  8
Layer_0
  10
247.93592
  20
517.15735
  0
VERTEX
  5
bf3
  8
Layer_0
  10
247.25486
  20
517.87503
  0
VERTEX
  5
bf4
  8
Layer_0
  10
246.54468
  20
518.62936
  0
VERTEX
  5
bf5
  8
Layer_0
  10
245.80687
  20
519.41875
  0
VERTEX
  5
bf6
  8
Layer_0
  10
245.04287
  20
520.24162
  0
VERTEX
  5
bf7
  8
Layer_0
  10
244.25415
  20
521.09639
  0
VERTEX
  5
bf8
  8
Layer_0
  10
243.44219
  20
521.98148
  0
VERTEX
  5
bf9
  8
Layer_0
  10
242.60844
  20
522.8953
  0
VERTEX
  5
bfa
  8
Layer_0
  10
241.75436
  20
523.83626
  0
VERTEX
  5
bfb
  8
Layer_0
  10
240.88143
  20
524.8028
  0
VERTEX
  5
bfc
  8
Layer_0
  10
239.9911
  20
525.79333
  0
VERTEX
  5
bfd
  8
Layer_0
  10
239.08484
  20
526.80625
  0
VERTEX
  5
bfe
  8
Layer_0
  10
238.16412
  20
527.84
  0
VERTEX
  5
bff
  8
Layer_0
  10
236.28515
  20
529.96363
  0
VERTEX
  5
c00
  8
Layer_0
  10
234.36588
  20
532.15156
  0
VERTEX
  5
c01
  8
Layer_0
  10
232.41805
  20
534.39114
  0
VERTEX
  5
c02
  8
Layer_0
  10
230.45337
  20
536.66969
  0
VERTEX
  5
c03
  8
Layer_0
  10
228.45609
  20
538.96271
  0
VERTEX
  5
c04
  8
Layer_0
  10
226.41259
  20
541.24473
  0
VERTEX
  5
c05
  8
Layer_0
  10
224.33783
  20
543.50167
  0
VERTEX
  5
c06
  8
Layer_0
  10
222.24673
  20
545.71944
  0
VERTEX
  5
c07
  8
Layer_0
  10
220.15424
  20
547.88394
  0
VERTEX
  5
c08
  8
Layer_0
  10
218.0753
  20
549.98109
  0
VERTEX
  5
c09
  8
Layer_0
  10
217.04557
  20
551.00001
  0
VERTEX
  5
c0a
  8
Layer_0
  10
216.02483
  20
551.99681
  0
VERTEX
  5
c0b
  8
Layer_0
  10
215.01495
  20
552.96973
  0
VERTEX
  5
c0c
  8
Layer_0
  10
214.01779
  20
553.917
  0
VERTEX
  5
c0d
  8
Layer_0
  10
213.03522
  20
554.83687
  0
VERTEX
  5
c0e
  8
Layer_0
  10
212.06911
  20
555.72757
  0
VERTEX
  5
c0f
  8
Layer_0
  10
211.12132
  20
556.58735
  0
VERTEX
  5
c10
  8
Layer_0
  10
210.19372
  20
557.41444
  0
VERTEX
  5
c11
  8
Layer_0
  10
209.28818
  20
558.20708
  0
VERTEX
  5
c12
  8
Layer_0
  10
208.40656
  20
558.96351
  0
VERTEX
  5
c13
  8
Layer_0
  10
207.55074
  20
559.68197
  0
VERTEX
  5
c14
  8
Layer_0
  10
206.72258
  20
560.3607
  0
VERTEX
  5
c15
  8
Layer_0
  10
205.92395
  20
560.99794
  0
VERTEX
  5
c16
  8
Layer_0
  10
205.15671
  20
561.59192
  0
VERTEX
  5
c17
  8
Layer_0
  10
204.42273
  20
562.14089
  0
VERTEX
  5
c18
  8
Layer_0
  10
203.72389
  20
562.64308
  0
VERTEX
  5
c19
  8
Layer_0
  10
203.06203
  20
563.09673
  0
VERTEX
  5
c1a
  8
Layer_0
  10
202.43905
  20
563.50009
  0
VERTEX
  5
c1b
  8
Layer_0
  10
201.85679
  20
563.85139
  0
VERTEX
  5
c1c
  8
Layer_0
  10
201.31713
  20
564.14887
  0
VERTEX
  5
c1d
  8
Layer_0
  10
200.12302
  20
564.78465
  0
VERTEX
  5
c1e
  8
Layer_0
  10
198.96645
  20
565.42834
  0
VERTEX
  5
c1f
  8
Layer_0
  10
197.84471
  20
566.08333
  0
VERTEX
  5
c20
  8
Layer_0
  10
196.75504
  20
566.753
  0
VERTEX
  5
c21
  8
Layer_0
  10
195.69471
  20
567.44076
  0
VERTEX
  5
c22
  8
Layer_0
  10
194.661
  20
568.14998
  0
VERTEX
  5
c23
  8
Layer_0
  10
193.65116
  20
568.88406
  0
VERTEX
  5
c24
  8
Layer_0
  10
192.66246
  20
569.64638
  0
VERTEX
  5
c25
  8
Layer_0
  10
191.69216
  20
570.44034
  0
VERTEX
  5
c26
  8
Layer_0
  10
190.73753
  20
571.26932
  0
VERTEX
  5
c27
  8
Layer_0
  10
189.79584
  20
572.13672
  0
VERTEX
  5
c28
  8
Layer_0
  10
188.86434
  20
573.04591
  0
VERTEX
  5
c29
  8
Layer_0
  10
187.9403
  20
574.0003
  0
VERTEX
  5
c2a
  8
Layer_0
  10
187.02099
  20
575.00327
  0
VERTEX
  5
c2b
  8
Layer_0
  10
186.10367
  20
576.0582
  0
VERTEX
  5
c2c
  8
Layer_0
  10
185.18561
  20
577.1685
  0
VERTEX
  5
c2d
  8
Layer_0
  10
184.26407
  20
578.33754
  0
VERTEX
  5
c2e
  8
Layer_0
  10
183.33631
  20
579.56872
  0
VERTEX
  5
c2f
  8
Layer_0
  10
182.3996
  20
580.86542
  0
VERTEX
  5
c30
  8
Layer_0
  10
181.45121
  20
582.23104
  0
VERTEX
  5
c31
  8
Layer_0
  10
180.4884
  20
583.66897
  0
VERTEX
  5
c32
  8
Layer_0
  10
179.50843
  20
585.18258
  0
VERTEX
  5
c33
  8
Layer_0
  10
178.50856
  20
586.77528
  0
VERTEX
  5
c34
  8
Layer_0
  10
177.48607
  20
588.45045
  0
VERTEX
  5
c35
  8
Layer_0
  10
176.43822
  20
590.21148
  0
VERTEX
  5
c36
  8
Layer_0
  10
175.36227
  20
592.06176
  0
VERTEX
  5
c37
  8
Layer_0
  10
174.81291
  20
593.02143
  0
VERTEX
  5
c38
  8
Layer_0
  10
174.25549
  20
594.00468
  0
VERTEX
  5
c39
  8
Layer_0
  10
173.68968
  20
595.01194
  0
VERTEX
  5
c3a
  8
Layer_0
  10
173.11514
  20
596.04363
  0
VERTEX
  5
c3b
  8
Layer_0
  10
172.53152
  20
597.10018
  0
VERTEX
  5
c3c
  8
Layer_0
  10
171.93848
  20
598.182
  0
VERTEX
  5
c3d
  8
Layer_0
  10
171.33569
  20
599.28952
  0
VERTEX
  5
c3e
  8
Layer_0
  10
170.72279
  20
600.42317
  0
VERTEX
  5
c3f
  8
Layer_0
  10
170.09945
  20
601.58337
  0
VERTEX
  5
c40
  8
Layer_0
  10
169.46532
  20
602.77054
  0
VERTEX
  5
c41
  8
Layer_0
  10
168.82006
  20
603.9851
  0
VERTEX
  5
c42
  8
Layer_0
  10
168.16334
  20
605.22749
  0
VERTEX
  5
c43
  8
Layer_0
  10
156.61426
  20
627.12817
  0
VERTEX
  5
c44
  8
Layer_0
  10
167.29675
  20
623.58252
  0
VERTEX
  5
c45
  8
Layer_0
  10
169.5045
  20
622.86437
  0
VERTEX
  5
c46
  8
Layer_0
  10
171.64821
  20
622.19734
  0
VERTEX
  5
c47
  8
Layer_0
  10
173.73079
  20
621.58162
  0
VERTEX
  5
c48
  8
Layer_0
  10
175.75507
  20
621.01736
  0
VERTEX
  5
c49
  8
Layer_0
  10
177.72387
  20
620.50474
  0
VERTEX
  5
c4a
  8
Layer_0
  10
179.64001
  20
620.04393
  0
VERTEX
  5
c4b
  8
Layer_0
  10
181.50631
  20
619.63511
  0
VERTEX
  5
c4c
  8
Layer_0
  10
183.3256
  20
619.27845
  0
VERTEX
  5
c4d
  8
Layer_0
  10
185.10071
  20
618.97412
  0
VERTEX
  5
c4e
  8
Layer_0
  10
186.83444
  20
618.7223
  0
VERTEX
  5
c4f
  8
Layer_0
  10
188.52964
  20
618.52314
  0
VERTEX
  5
c50
  8
Layer_0
  10
190.18911
  20
618.37684
  0
VERTEX
  5
c51
  8
Layer_0
  10
191.81568
  20
618.28356
  0
VERTEX
  5
c52
  8
Layer_0
  10
193.41219
  20
618.24347
  0
VERTEX
  5
c53
  8
Layer_0
  10
194.98144
  20
618.25674
  0
VERTEX
  5
c54
  8
Layer_0
  10
196.52626
  20
618.32355
  0
VERTEX
  5
c55
  8
Layer_0
  10
198.04948
  20
618.44408
  0
VERTEX
  5
c56
  8
Layer_0
  10
199.55391
  20
618.61848
  0
VERTEX
  5
c57
  8
Layer_0
  10
201.04239
  20
618.84694
  0
VERTEX
  5
c58
  8
Layer_0
  10
202.51773
  20
619.12963
  0
VERTEX
  5
c59
  8
Layer_0
  10
203.98276
  20
619.46671
  0
VERTEX
  5
c5a
  8
Layer_0
  10
205.4403
  20
619.85837
  0
VERTEX
  5
c5b
  8
Layer_0
  10
206.89317
  20
620.30477
  0
VERTEX
  5
c5c
  8
Layer_0
  10
208.3442
  20
620.80609
  0
VERTEX
  5
c5d
  8
Layer_0
  10
209.79621
  20
621.3625
  0
VERTEX
  5
c5e
  8
Layer_0
  10
211.25202
  20
621.97417
  0
VERTEX
  5
c5f
  8
Layer_0
  10
212.71445
  20
622.64128
  0
VERTEX
  5
c60
  8
Layer_0
  10
214.18633
  20
623.36399
  0
VERTEX
  5
c61
  8
Layer_0
  10
215.67049
  20
624.14248
  0
VERTEX
  5
c62
  8
Layer_0
  10
217.16974
  20
624.97692
  0
VERTEX
  5
c63
  8
Layer_0
  10
218.6869
  20
625.86749
  0
VERTEX
  5
c64
  8
Layer_0
  10
220.22481
  20
626.81435
  0
VERTEX
  5
c65
  8
Layer_0
  10
235.81335
  20
636.62561
  0
VERTEX
  5
c66
  8
Layer_0
  10
226.03101
  20
641.72668
  0
VERTEX
  5
c67
  8
Layer_0
  10
224.80516
  20
642.39032
  0
VERTEX
  5
c68
  8
Layer_0
  10
223.59792
  20
643.09223
  0
VERTEX
  5
c69
  8
Layer_0
  10
222.41068
  20
643.83062
  0
VERTEX
  5
c6a
  8
Layer_0
  10
221.24478
  20
644.6037
  0
VERTEX
  5
c6b
  8
Layer_0
  10
220.10154
  20
645.40968
  0
VERTEX
  5
c6c
  8
Layer_0
  10
218.98231
  20
646.24676
  0
VERTEX
  5
c6d
  8
Layer_0
  10
217.88842
  20
647.11315
  0
VERTEX
  5
c6e
  8
Layer_0
  10
216.8212
  20
648.00706
  0
VERTEX
  5
c6f
  8
Layer_0
  10
215.782
  20
648.9267
  0
VERTEX
  5
c70
  8
Layer_0
  10
214.77214
  20
649.87028
  0
VERTEX
  5
c71
  8
Layer_0
  10
213.79296
  20
650.836
  0
VERTEX
  5
c72
  8
Layer_0
  10
212.8458
  20
651.82207
  0
VERTEX
  5
c73
  8
Layer_0
  10
211.932
  20
652.8267
  0
VERTEX
  5
c74
  8
Layer_0
  10
211.05288
  20
653.8481
  0
VERTEX
  5
c75
  8
Layer_0
  10
210.20979
  20
654.88447
  0
VERTEX
  5
c76
  8
Layer_0
  10
209.40405
  20
655.93403
  0
VERTEX
  5
c77
  8
Layer_0
  10
208.63701
  20
656.99498
  0
VERTEX
  5
c78
  8
Layer_0
  10
207.91
  20
658.06553
  0
VERTEX
  5
c79
  8
Layer_0
  10
207.22436
  20
659.14388
  0
VERTEX
  5
c7a
  8
Layer_0
  10
206.58142
  20
660.22825
  0
VERTEX
  5
c7b
  8
Layer_0
  10
205.98251
  20
661.31685
  0
VERTEX
  5
c7c
  8
Layer_0
  10
205.42898
  20
662.40787
  0
VERTEX
  5
c7d
  8
Layer_0
  10
204.92215
  20
663.49954
  0
VERTEX
  5
c7e
  8
Layer_0
  10
204.46337
  20
664.59005
  0
VERTEX
  5
c7f
  8
Layer_0
  10
204.05397
  20
665.67761
  0
VERTEX
  5
c80
  8
Layer_0
  10
203.69528
  20
666.76044
  0
VERTEX
  5
c81
  8
Layer_0
  10
203.38865
  20
667.83674
  0
VERTEX
  5
c82
  8
Layer_0
  10
203.13539
  20
668.90472
  0
VERTEX
  5
c83
  8
Layer_0
  10
202.93686
  20
669.96259
  0
VERTEX
  5
c84
  8
Layer_0
  10
202.79439
  20
671.00855
  0
VERTEX
  5
c85
  8
Layer_0
  10
202.7093
  20
672.04082
  0
VERTEX
  5
c86
  8
Layer_0
  10
202.68295
  20
673.05759
  0
VERTEX
  5
c87
  8
Layer_0
  10
202.64468
  20
674.87454
  0
VERTEX
  5
c88
  8
Layer_0
  10
202.52328
  20
676.65589
  0
VERTEX
  5
c89
  8
Layer_0
  10
202.43415
  20
677.5191
  0
VERTEX
  5
c8a
  8
Layer_0
  10
202.32753
  20
678.35647
  0
VERTEX
  5
c8b
  8
Layer_0
  10
202.20452
  20
679.16237
  0
VERTEX
  5
c8c
  8
Layer_0
  10
202.06621
  20
679.93115
  0
VERTEX
  5
c8d
  8
Layer_0
  10
201.91371
  20
680.65715
  0
VERTEX
  5
c8e
  8
Layer_0
  10
201.74811
  20
681.33474
  0
VERTEX
  5
c8f
  8
Layer_0
  10
201.57051
  20
681.95828
  0
VERTEX
  5
c90
  8
Layer_0
  10
201.38201
  20
682.52211
  0
VERTEX
  5
c91
  8
Layer_0
  10
201.18371
  20
683.0206
  0
VERTEX
  5
c92
  8
Layer_0
  10
200.9767
  20
683.44809
  0
VERTEX
  5
c93
  8
Layer_0
  10
200.76208
  20
683.79894
  0
VERTEX
  5
c94
  8
Layer_0
  10
200.54096
  20
684.06752
  0
VERTEX
  5
c95
  8
Layer_0
  10
200.17184
  20
684.42356
  0
VERTEX
  5
c96
  8
Layer_0
  10
199.80493
  20
684.74676
  0
VERTEX
  5
c97
  8
Layer_0
  10
199.44084
  20
685.03739
  0
VERTEX
  5
c98
  8
Layer_0
  10
199.08018
  20
685.29574
  0
VERTEX
  5
c99
  8
Layer_0
  10
198.72356
  20
685.52207
  0
VERTEX
  5
c9a
  8
Layer_0
  10
198.37159
  20
685.71667
  0
VERTEX
  5
c9b
  8
Layer_0
  10
198.02489
  20
685.87983
  0
VERTEX
  5
c9c
  8
Layer_0
  10
197.68405
  20
686.0118
  0
VERTEX
  5
c9d
  8
Layer_0
  10
197.34969
  20
686.11289
  0
VERTEX
  5
c9e
  8
Layer_0
  10
197.02242
  20
686.18336
  0
VERTEX
  5
c9f
  8
Layer_0
  10
196.70285
  20
686.22349
  0
VERTEX
  5
ca0
  8
Layer_0
  10
196.39159
  20
686.23356
  0
VERTEX
  5
ca1
  8
Layer_0
  10
196.08925
  20
686.21385
  0
VERTEX
  5
ca2
  8
Layer_0
  10
195.79643
  20
686.16464
  0
VERTEX
  5
ca3
  8
Layer_0
  10
195.51375
  20
686.08621
  0
VERTEX
  5
ca4
  8
Layer_0
  10
195.24181
  20
685.97883
  0
VERTEX
  5
ca5
  8
Layer_0
  10
194.98123
  20
685.84279
  0
VERTEX
  5
ca6
  8
Layer_0
  10
194.73262
  20
685.67836
  0
VERTEX
  5
ca7
  8
Layer_0
  10
194.49658
  20
685.48582
  0
VERTEX
  5
ca8
  8
Layer_0
  10
194.27373
  20
685.26545
  0
VERTEX
  5
ca9
  8
Layer_0
  10
194.06467
  20
685.01754
  0
VERTEX
  5
caa
  8
Layer_0
  10
193.87002
  20
684.74235
  0
VERTEX
  5
cab
  8
Layer_0
  10
193.69037
  20
684.44016
  0
VERTEX
  5
cac
  8
Layer_0
  10
193.52635
  20
684.11126
  0
VERTEX
  5
cad
  8
Layer_0
  10
193.37857
  20
683.75593
  0
VERTEX
  5
cae
  8
Layer_0
  10
193.24762
  20
683.37444
  0
VERTEX
  5
caf
  8
Layer_0
  10
193.13413
  20
682.96707
  0
VERTEX
  5
cb0
  8
Layer_0
  10
193.0387
  20
682.53409
  0
VERTEX
  5
cb1
  8
Layer_0
  10
192.96194
  20
682.0758
  0
VERTEX
  5
cb2
  8
Layer_0
  10
192.90446
  20
681.59246
  0
VERTEX
  5
cb3
  8
Layer_0
  10
192.86688
  20
681.08436
  0
SEQEND
  0
CIRCLE
  5
cb5
  8
Layer_0
  62
7
  10
669.23486
  20
917.79791
  30
0
  40
1.7499999
  0
CIRCLE
  5
cb5
  8
Layer_0
  62
7
  10
493.98425
  20
948.74371
  30
0
  40
1.7499999
  0
CIRCLE
  5
cb5
  8
Layer_0
  62
7
  10
321.70978
  20
831.08533
  30
0
  40
1.7499999
  0
CIRCLE
  5
cb5
  8
Layer_0
  62
7
  10
147.53015
  20
660.83142
  30
0
  40
1.7499999
  0
CIRCLE
  5
cb5
  8
Layer_0
  62
7
  10
155.39374
  20
578.3208
  30
0
  40
1.7499999
  0
CIRCLE
  5
cb5
  8
Layer_0
  62
7
  10
335.31641
  20
215.47513
  30
0
  40
1.7499999
  0
CIRCLE
  5
cb5
  8
Layer_0
  62
7
  10
512.9032
  20
221.48587
  30
0
  40
1.7499999
  0
CIRCLE
  5
cb5
  8
Layer_0
  62
7
  10
683.90002
  20
588.40912
  30
0
  40
1.7499999
  0
CIRCLE
  5
cb5
  8
Layer_0
  62
7
  10
843.87762
  20
665.48273
  30
0
  40
1.7499999
  0
ENDSEC
  0
EOF
