  0
SECTION
  2
HEADER
  9
$ACADVER
  1
AC1009
  0
ENDSEC
  0
SECTION
  2
TABLES
  0
TABLE
  2
LAYER
  70
1
  0
LAYER
  2
Layer_0
  70
0
  62
7
  6
CONTINUOUS
  0
ENDTAB
  0
ENDSEC
  0
SECTION
  2
ENTITIES
  0
CIRCLE
  5
90
  8
Layer_0
  62
7
  10
58.969482
  20
231.22144
  30
0
  40
7
  0
POLYLINE
  5
90
  8
Layer_0
  62
7
  66
1
  10
0
  20
0
  30
0
  0
VERTEX
  5
90
  8
Layer_0
  10
39.899109
  20
216.55859
  0
VERTEX
  5
91
  8
Layer_0
  10
39.899109
  20
216.55859
  0
VERTEX
  5
92
  8
Layer_0
  10
39.899109
  20
216.55859
  0
VERTEX
  5
93
  8
Layer_0
  10
39.89064
  20
216.54449
  0
VERTEX
  5
94
  8
Layer_0
  10
39.882172
  20
216.5304
  0
SEQEND
  0
CIRCLE
  5
96
  8
Layer_0
  62
7
  10
346.96948
  20
231.22144
  30
0
  40
7
  0
CIRCLE
  5
96
  8
Layer_0
  62
7
  10
484.13672
  20
228.03113
  30
0
  40
7
  0
POLYLINE
  5
96
  8
Layer_0
  62
7
  66
1
  10
0
  20
0
  30
0
  0
VERTEX
  5
96
  8
Layer_0
  10
327.89911
  20
216.55859
  0
VERTEX
  5
97
  8
Layer_0
  10
327.89911
  20
216.55859
  0
VERTEX
  5
98
  8
Layer_0
  10
327.89911
  20
216.55859
  0
VERTEX
  5
99
  8
Layer_0
  10
327.89064
  20
216.54449
  0
VERTEX
  5
9a
  8
Layer_0
  10
327.88217
  20
216.5304
  0
SEQEND
  0
POLYLINE
  5
9c
  8
Layer_0
  62
7
  70
1
  66
1
  10
0
  20
0
  30
0
  0
VERTEX
  5
9c
  8
Layer_0
  10
496.5668
  20
217.96013
  42
0.17226444
  0
VERTEX
  5
9d
  8
Layer_0
  10
500.13672
  20
228.03113
  42
0.41421356
  0
VERTEX
  5
9e
  8
Layer_0
  10
484.13672
  20
244.03113
  42
0.26621242
  0
VERTEX
  5
9f
  8
Layer_0
  10
470.32266
  20
236.10913
  0
VERTEX
  5
a0
  8
Layer_0
  10
468.70626
  20
236.93006
  0
VERTEX
  5
a1
  8
Layer_0
  10
467.07646
  20
237.72813
  0
VERTEX
  5
a2
  8
Layer_0
  10
465.43348
  20
238.50314
  0
VERTEX
  5
a3
  8
Layer_0
  10
463.77753
  20
239.25488
  0
VERTEX
  5
a4
  8
Layer_0
  10
462.10881
  20
239.98312
  0
VERTEX
  5
a5
  8
Layer_0
  10
460.42755
  20
240.68768
  0
VERTEX
  5
a6
  8
Layer_0
  10
458.73395
  20
241.36833
  0
VERTEX
  5
a7
  8
Layer_0
  10
457.02822
  20
242.02486
  0
VERTEX
  5
a8
  8
Layer_0
  10
455.31057
  20
242.65707
  0
VERTEX
  5
a9
  8
Layer_0
  10
453.58122
  20
243.26473
  0
VERTEX
  5
aa
  8
Layer_0
  10
451.84037
  20
243.84766
  0
VERTEX
  5
ab
  8
Layer_0
  10
450.08823
  20
244.40562
  0
VERTEX
  5
ac
  8
Layer_0
  10
448.32502
  20
244.93842
  0
VERTEX
  5
ad
  8
Layer_0
  10
446.55094
  20
245.44584
  0
VERTEX
  5
ae
  8
Layer_0
  10
444.76621
  20
245.92767
  0
VERTEX
  5
af
  8
Layer_0
  10
442.97104
  20
246.3837
  0
VERTEX
  5
b0
  8
Layer_0
  10
441.16563
  20
246.81373
  0
VERTEX
  5
b1
  8
Layer_0
  10
439.35021
  20
247.21753
  0
VERTEX
  5
b2
  8
Layer_0
  10
437.52497
  20
247.59491
  0
VERTEX
  5
b3
  8
Layer_0
  10
435.69013
  20
247.94564
  0
VERTEX
  5
b4
  8
Layer_0
  10
433.84591
  20
248.26953
  0
VERTEX
  5
b5
  8
Layer_0
  10
431.9925
  20
248.56635
  0
VERTEX
  5
b6
  8
Layer_0
  10
430.13013
  20
248.83591
  0
VERTEX
  5
b7
  8
Layer_0
  10
428.259
  20
249.07798
  0
VERTEX
  5
b8
  8
Layer_0
  10
426.37933
  20
249.29236
  0
VERTEX
  5
b9
  8
Layer_0
  10
424.49132
  20
249.47884
  0
VERTEX
  5
ba
  8
Layer_0
  10
422.59518
  20
249.63721
  0
VERTEX
  5
bb
  8
Layer_0
  10
420.69113
  20
249.76725
  0
VERTEX
  5
bc
  8
Layer_0
  10
418.77938
  20
249.86876
  0
VERTEX
  5
bd
  8
Layer_0
  10
416.86013
  20
249.94153
  0
VERTEX
  5
be
  8
Layer_0
  10
414.9336
  20
249.98535
  0
VERTEX
  5
bf
  8
Layer_0
  10
413
  20
250
  0
VERTEX
  5
c0
  8
Layer_0
  10
409.53878
  20
249.953
  0
VERTEX
  5
c1
  8
Layer_0
  10
406.10081
  20
249.81282
  0
VERTEX
  5
c2
  8
Layer_0
  10
402.68733
  20
249.58067
  0
VERTEX
  5
c3
  8
Layer_0
  10
399.29953
  20
249.25775
  0
VERTEX
  5
c4
  8
Layer_0
  10
395.93864
  20
248.84528
  0
VERTEX
  5
c5
  8
Layer_0
  10
392.60586
  20
248.34447
  0
VERTEX
  5
c6
  8
Layer_0
  10
389.30242
  20
247.75652
  0
VERTEX
  5
c7
  8
Layer_0
  10
386.02953
  20
247.08265
  0
VERTEX
  5
c8
  8
Layer_0
  10
382.78839
  20
246.32407
  0
VERTEX
  5
c9
  8
Layer_0
  10
379.58024
  20
245.48199
  0
VERTEX
  5
ca
  8
Layer_0
  10
376.40627
  20
244.55761
  0
VERTEX
  5
cb
  8
Layer_0
  10
373.2677
  20
243.55215
  0
VERTEX
  5
cc
  8
Layer_0
  10
370.16576
  20
242.46683
  0
VERTEX
  5
cd
  8
Layer_0
  10
367.10164
  20
241.30284
  0
VERTEX
  5
ce
  8
Layer_0
  10
364.07657
  20
240.06139
  0
VERTEX
  5
cf
  8
Layer_0
  10
361.09177
  20
238.74371
  42
0.27700514
  0
VERTEX
  5
d0
  8
Layer_0
  10
346.96948
  20
247.22144
  0
VERTEX
  5
d1
  8
Layer_0
  10
346.14598
  20
247.20062
  0
VERTEX
  5
d2
  8
Layer_0
  10
345.33301
  20
247.13883
  0
VERTEX
  5
d3
  8
Layer_0
  10
344.53161
  20
247.03708
  0
VERTEX
  5
d4
  8
Layer_0
  10
343.74281
  20
246.89637
  0
VERTEX
  5
d5
  8
Layer_0
  10
342.96764
  20
246.7177
  0
VERTEX
  5
d6
  8
Layer_0
  10
342.20715
  20
246.50209
  0
VERTEX
  5
d7
  8
Layer_0
  10
341.46235
  20
246.25054
  0
VERTEX
  5
d8
  8
Layer_0
  10
340.7343
  20
245.96406
  0
VERTEX
  5
d9
  8
Layer_0
  10
340.02401
  20
245.64364
  0
VERTEX
  5
da
  8
Layer_0
  10
339.33253
  20
245.29029
  0
VERTEX
  5
db
  8
Layer_0
  10
338.66089
  20
244.90503
  0
VERTEX
  5
dc
  8
Layer_0
  10
338.01011
  20
244.48885
  0
VERTEX
  5
dd
  8
Layer_0
  10
337.38125
  20
244.04276
  0
VERTEX
  5
de
  8
Layer_0
  10
336.77532
  20
243.56777
  0
VERTEX
  5
df
  8
Layer_0
  10
336.19336
  20
243.06487
  0
VERTEX
  5
e0
  8
Layer_0
  10
335.63641
  20
242.53509
  0
VERTEX
  5
e1
  8
Layer_0
  10
335.1055
  20
241.97942
  0
VERTEX
  5
e2
  8
Layer_0
  10
334.60166
  20
241.39886
  0
VERTEX
  5
e3
  8
Layer_0
  10
334.12593
  20
240.79443
  0
VERTEX
  5
e4
  8
Layer_0
  10
333.67934
  20
240.16712
  0
VERTEX
  5
e5
  8
Layer_0
  10
333.26292
  20
239.51795
  0
VERTEX
  5
e6
  8
Layer_0
  10
332.87771
  20
238.84792
  0
VERTEX
  5
e7
  8
Layer_0
  10
332.52475
  20
238.15803
  0
VERTEX
  5
e8
  8
Layer_0
  10
332.20505
  20
237.4493
  0
VERTEX
  5
e9
  8
Layer_0
  10
331.91967
  20
236.72271
  0
VERTEX
  5
ea
  8
Layer_0
  10
331.66963
  20
235.97929
  0
VERTEX
  5
eb
  8
Layer_0
  10
331.45597
  20
235.22004
  0
VERTEX
  5
ec
  8
Layer_0
  10
331.27972
  20
234.44595
  0
VERTEX
  5
ed
  8
Layer_0
  10
331.14191
  20
233.65804
  0
VERTEX
  5
ee
  8
Layer_0
  10
331.04358
  20
232.85732
  0
VERTEX
  5
ef
  8
Layer_0
  10
330.98576
  20
232.04478
  0
VERTEX
  5
f0
  8
Layer_0
  10
330.96948
  20
231.22144
  42
0.038429342
  0
VERTEX
  5
f1
  8
Layer_0
  10
331.20038
  20
228.35173
  0
VERTEX
  5
f2
  8
Layer_0
  10
331.31518
  20
227.7158
  0
VERTEX
  5
f3
  8
Layer_0
  10
331.44835
  20
227.11185
  0
VERTEX
  5
f4
  8
Layer_0
  10
331.59764
  20
226.53962
  0
VERTEX
  5
f5
  8
Layer_0
  10
331.76082
  20
225.99884
  0
VERTEX
  5
f6
  8
Layer_0
  10
331.93565
  20
225.48923
  0
VERTEX
  5
f7
  8
Layer_0
  10
332.11991
  20
225.01054
  0
VERTEX
  5
f8
  8
Layer_0
  10
332.31135
  20
224.5625
  0
VERTEX
  5
f9
  8
Layer_0
  10
332.50773
  20
224.14485
  0
VERTEX
  5
fa
  8
Layer_0
  10
332.70683
  20
223.75731
  0
VERTEX
  5
fb
  8
Layer_0
  10
332.9064
  20
223.39962
  0
VERTEX
  5
fc
  8
Layer_0
  10
333.10421
  20
223.07151
  0
VERTEX
  5
fd
  8
Layer_0
  10
333.29803
  20
222.77272
  0
VERTEX
  5
fe
  8
Layer_0
  10
333.48561
  20
222.50298
  0
VERTEX
  5
ff
  8
Layer_0
  10
333.66473
  20
222.26202
  0
VERTEX
  5
100
  8
Layer_0
  10
333.83314
  20
222.04959
  0
VERTEX
  5
101
  8
Layer_0
  10
333.98862
  20
221.8654
  0
VERTEX
  5
102
  8
Layer_0
  10
331.38715
  20
219.68174
  0
VERTEX
  5
103
  8
Layer_0
  10
328.84657
  20
217.42944
  0
VERTEX
  5
104
  8
Layer_0
  10
326.36831
  20
215.10991
  0
VERTEX
  5
105
  8
Layer_0
  10
323.95377
  20
212.72459
  0
VERTEX
  5
106
  8
Layer_0
  10
321.60439
  20
210.27489
  0
VERTEX
  5
107
  8
Layer_0
  10
319.3216
  20
207.76224
  0
VERTEX
  5
108
  8
Layer_0
  10
317.1068
  20
205.18806
  0
VERTEX
  5
109
  8
Layer_0
  10
314.96143
  20
202.55378
  0
VERTEX
  5
10a
  8
Layer_0
  10
312.88691
  20
199.86082
  0
VERTEX
  5
10b
  8
Layer_0
  10
310.88466
  20
197.1106
  0
VERTEX
  5
10c
  8
Layer_0
  10
308.95611
  20
194.30454
  0
VERTEX
  5
10d
  8
Layer_0
  10
307.10267
  20
191.44407
  0
VERTEX
  5
10e
  8
Layer_0
  10
305.32578
  20
188.53062
  0
VERTEX
  5
10f
  8
Layer_0
  10
303.62684
  20
185.56559
  0
VERTEX
  5
110
  8
Layer_0
  10
302.0073
  20
182.55043
  0
VERTEX
  5
111
  8
Layer_0
  10
300.46856
  20
179.48655
  0
VERTEX
  5
112
  8
Layer_0
  10
299.01206
  20
176.37537
  0
VERTEX
  5
113
  8
Layer_0
  10
297.63921
  20
173.21832
  0
VERTEX
  5
114
  8
Layer_0
  10
296.35144
  20
170.01681
  0
VERTEX
  5
115
  8
Layer_0
  10
295.15017
  20
166.77229
  0
VERTEX
  5
116
  8
Layer_0
  10
294.03683
  20
163.48616
  0
VERTEX
  5
117
  8
Layer_0
  10
293.01283
  20
160.15985
  0
VERTEX
  5
118
  8
Layer_0
  10
292.0796
  20
156.79479
  0
VERTEX
  5
119
  8
Layer_0
  10
291.23857
  20
153.39239
  0
VERTEX
  5
11a
  8
Layer_0
  10
290.85307
  20
151.67763
  0
VERTEX
  5
11b
  8
Layer_0
  10
290.49115
  20
149.95408
  0
VERTEX
  5
11c
  8
Layer_0
  10
290.15299
  20
148.2219
  0
VERTEX
  5
11d
  8
Layer_0
  10
289.83877
  20
146.48128
  0
VERTEX
  5
11e
  8
Layer_0
  10
289.54866
  20
144.7324
  0
VERTEX
  5
11f
  8
Layer_0
  10
289.28285
  20
142.97543
  0
VERTEX
  5
120
  8
Layer_0
  10
289.04151
  20
141.21054
  0
VERTEX
  5
121
  8
Layer_0
  10
288.82482
  20
139.43793
  0
VERTEX
  5
122
  8
Layer_0
  10
288.63296
  20
137.65776
  0
VERTEX
  5
123
  8
Layer_0
  10
288.4661
  20
135.87021
  0
VERTEX
  5
124
  8
Layer_0
  10
288.32442
  20
134.07547
  0
VERTEX
  5
125
  8
Layer_0
  10
288.2081
  20
132.27371
  0
VERTEX
  5
126
  8
Layer_0
  10
288.11732
  20
130.4651
  0
VERTEX
  5
127
  8
Layer_0
  10
288.05226
  20
128.64983
  0
VERTEX
  5
128
  8
Layer_0
  10
288.0131
  20
126.82807
  0
VERTEX
  5
129
  8
Layer_0
  10
288
  20
125
  42
0.41421356
  0
VERTEX
  5
12a
  8
Layer_0
  10
413
  20
0
  42
0.41421356
  0
VERTEX
  5
12b
  8
Layer_0
  10
538
  20
125
  0
VERTEX
  5
12c
  8
Layer_0
  10
537.95334
  20
128.44895
  0
VERTEX
  5
12d
  8
Layer_0
  10
537.81415
  20
131.87481
  0
VERTEX
  5
12e
  8
Layer_0
  10
537.58364
  20
135.27638
  0
VERTEX
  5
12f
  8
Layer_0
  10
537.26301
  20
138.65246
  0
VERTEX
  5
130
  8
Layer_0
  10
536.85345
  20
142.00185
  0
VERTEX
  5
131
  8
Layer_0
  10
536.35617
  20
145.32334
  0
VERTEX
  5
132
  8
Layer_0
  10
535.77236
  20
148.61575
  0
VERTEX
  5
133
  8
Layer_0
  10
535.10323
  20
151.87786
  0
VERTEX
  5
134
  8
Layer_0
  10
534.34997
  20
155.10848
  0
VERTEX
  5
135
  8
Layer_0
  10
533.51379
  20
158.3064
  0
VERTEX
  5
136
  8
Layer_0
  10
532.59589
  20
161.47044
  0
VERTEX
  5
137
  8
Layer_0
  10
531.59746
  20
164.59937
  0
VERTEX
  5
138
  8
Layer_0
  10
530.51971
  20
167.69202
  0
VERTEX
  5
139
  8
Layer_0
  10
529.36383
  20
170.74717
  0
VERTEX
  5
13a
  8
Layer_0
  10
528.13103
  20
173.76363
  0
VERTEX
  5
13b
  8
Layer_0
  10
526.82251
  20
176.74019
  0
VERTEX
  5
13c
  8
Layer_0
  10
525.43946
  20
179.67566
  0
VERTEX
  5
13d
  8
Layer_0
  10
523.98309
  20
182.56883
  0
VERTEX
  5
13e
  8
Layer_0
  10
522.45459
  20
185.41851
  0
VERTEX
  5
13f
  8
Layer_0
  10
520.85517
  20
188.22349
  0
VERTEX
  5
140
  8
Layer_0
  10
519.18602
  20
190.98258
  0
VERTEX
  5
141
  8
Layer_0
  10
517.44835
  20
193.69457
  0
VERTEX
  5
142
  8
Layer_0
  10
515.64336
  20
196.35826
  0
VERTEX
  5
143
  8
Layer_0
  10
513.77224
  20
198.97246
  0
VERTEX
  5
144
  8
Layer_0
  10
511.83619
  20
201.53596
  0
VERTEX
  5
145
  8
Layer_0
  10
509.83642
  20
204.04757
  0
VERTEX
  5
146
  8
Layer_0
  10
507.77413
  20
206.50607
  0
VERTEX
  5
147
  8
Layer_0
  10
505.65052
  20
208.91028
  0
VERTEX
  5
148
  8
Layer_0
  10
503.46677
  20
211.25899
  0
VERTEX
  5
149
  8
Layer_0
  10
501.22411
  20
213.551
  0
VERTEX
  5
14a
  8
Layer_0
  10
498.92372
  20
215.78511
  0
SEQEND
  0
CIRCLE
  5
14c
  8
Layer_0
  62
7
  10
191.03049
  20
231.22144
  30
0
  40
7
  0
POLYLINE
  5
14c
  8
Layer_0
  62
7
  66
1
  10
0
  20
0
  30
0
  0
VERTEX
  5
14c
  8
Layer_0
  10
210.10089
  20
216.55859
  0
VERTEX
  5
14d
  8
Layer_0
  10
210.10089
  20
216.55859
  0
VERTEX
  5
14e
  8
Layer_0
  10
210.10089
  20
216.55859
  0
VERTEX
  5
14f
  8
Layer_0
  10
210.10936
  20
216.54449
  0
VERTEX
  5
150
  8
Layer_0
  10
210.11783
  20
216.5304
  0
SEQEND
  0
POLYLINE
  5
152
  8
Layer_0
  62
7
  70
1
  66
1
  10
0
  20
0
  30
0
  0
VERTEX
  5
152
  8
Layer_0
  10
125
  20
250
  0
VERTEX
  5
153
  8
Layer_0
  10
123.28064
  20
249.99183
  0
VERTEX
  5
154
  8
Layer_0
  10
121.5939
  20
249.96711
  0
VERTEX
  5
155
  8
Layer_0
  10
119.93814
  20
249.92554
  0
VERTEX
  5
156
  8
Layer_0
  10
118.31172
  20
249.86681
  0
VERTEX
  5
157
  8
Layer_0
  10
116.71298
  20
249.7906
  0
VERTEX
  5
158
  8
Layer_0
  10
115.14029
  20
249.69661
  0
VERTEX
  5
159
  8
Layer_0
  10
113.59199
  20
249.58453
  0
VERTEX
  5
15a
  8
Layer_0
  10
112.06644
  20
249.45405
  0
VERTEX
  5
15b
  8
Layer_0
  10
110.562
  20
249.30486
  0
VERTEX
  5
15c
  8
Layer_0
  10
109.07702
  20
249.13666
  0
VERTEX
  5
15d
  8
Layer_0
  10
107.60986
  20
248.94913
  0
VERTEX
  5
15e
  8
Layer_0
  10
106.15886
  20
248.74197
  0
VERTEX
  5
15f
  8
Layer_0
  10
103.29879
  20
248.2675
  0
VERTEX
  5
160
  8
Layer_0
  10
100.48364
  20
247.7108
  0
VERTEX
  5
161
  8
Layer_0
  10
97.700261
  20
247.06938
  0
VERTEX
  5
162
  8
Layer_0
  10
94.935473
  20
246.34078
  0
VERTEX
  5
163
  8
Layer_0
  10
92.176116
  20
245.52252
  0
VERTEX
  5
164
  8
Layer_0
  10
89.409024
  20
244.61215
  0
VERTEX
  5
165
  8
Layer_0
  10
88.018463
  20
244.12164
  0
VERTEX
  5
166
  8
Layer_0
  10
86.621032
  20
243.60718
  0
VERTEX
  5
167
  8
Layer_0
  10
85.215084
  20
243.06845
  0
VERTEX
  5
168
  8
Layer_0
  10
83.798974
  20
242.50514
  0
VERTEX
  5
169
  8
Layer_0
  10
82.371056
  20
241.91695
  0
VERTEX
  5
16a
  8
Layer_0
  10
80.929685
  20
241.30357
  0
VERTEX
  5
16b
  8
Layer_0
  10
79.473215
  20
240.66469
  0
VERTEX
  5
16c
  8
Layer_0
  10
78
  20
240
  0
VERTEX
  5
16d
  8
Layer_0
  10
77.519943
  20
239.69027
  0
VERTEX
  5
16e
  8
Layer_0
  10
77.0577
  20
239.46049
  0
VERTEX
  5
16f
  8
Layer_0
  10
76.610749
  20
239.3061
  0
VERTEX
  5
170
  8
Layer_0
  10
76.17657
  20
239.22257
  0
VERTEX
  5
171
  8
Layer_0
  10
75.752641
  20
239.20537
  0
VERTEX
  5
172
  8
Layer_0
  10
75.336442
  20
239.24994
  0
VERTEX
  5
173
  8
Layer_0
  10
74.925452
  20
239.35175
  0
VERTEX
  5
174
  8
Layer_0
  10
74.517149
  20
239.50626
  0
VERTEX
  5
175
  8
Layer_0
  10
74.109013
  20
239.70894
  0
VERTEX
  5
176
  8
Layer_0
  10
73.698523
  20
239.95523
  0
VERTEX
  5
177
  8
Layer_0
  10
73.283156
  20
240.24061
  0
VERTEX
  5
178
  8
Layer_0
  10
72.860393
  20
240.56052
  0
VERTEX
  5
179
  8
Layer_0
  10
72.427713
  20
240.91044
  0
VERTEX
  5
17a
  8
Layer_0
  10
71.982594
  20
241.28583
  0
VERTEX
  5
17b
  8
Layer_0
  10
71.522515
  20
241.68213
  0
VERTEX
  5
17c
  8
Layer_0
  10
71.044956
  20
242.09482
  0
VERTEX
  5
17d
  8
Layer_0
  10
70.547395
  20
242.51935
  0
VERTEX
  5
17e
  8
Layer_0
  10
70.027312
  20
242.95118
  0
VERTEX
  5
17f
  8
Layer_0
  10
69.482184
  20
243.38578
  0
VERTEX
  5
180
  8
Layer_0
  10
68.909492
  20
243.8186
  0
VERTEX
  5
181
  8
Layer_0
  10
68.306714
  20
244.2451
  0
VERTEX
  5
182
  8
Layer_0
  10
67.671329
  20
244.66075
  0
VERTEX
  5
183
  8
Layer_0
  10
67.000817
  20
245.061
  0
VERTEX
  5
184
  8
Layer_0
  10
66.292655
  20
245.44132
  0
VERTEX
  5
185
  8
Layer_0
  10
65.544324
  20
245.79716
  0
VERTEX
  5
186
  8
Layer_0
  10
64.753302
  20
246.12399
  0
VERTEX
  5
187
  8
Layer_0
  10
63.917068
  20
246.41727
  0
VERTEX
  5
188
  8
Layer_0
  10
63.033101
  20
246.67245
  0
VERTEX
  5
189
  8
Layer_0
  10
62.09888
  20
246.88499
  0
VERTEX
  5
18a
  8
Layer_0
  10
61.111884
  20
247.05037
  0
VERTEX
  5
18b
  8
Layer_0
  10
60.069592
  20
247.16403
  0
VERTEX
  5
18c
  8
Layer_0
  10
58.969482
  20
247.22144
  0
VERTEX
  5
18d
  8
Layer_0
  10
58.146213
  20
247.21972
  0
VERTEX
  5
18e
  8
Layer_0
  10
57.333448
  20
247.17461
  0
VERTEX
  5
18f
  8
Layer_0
  10
56.532222
  20
247.08722
  0
VERTEX
  5
190
  8
Layer_0
  10
55.743572
  20
246.9587
  0
VERTEX
  5
191
  8
Layer_0
  10
54.968532
  20
246.79015
  0
VERTEX
  5
192
  8
Layer_0
  10
54.208137
  20
246.58271
  0
VERTEX
  5
193
  8
Layer_0
  10
53.463422
  20
246.3375
  0
VERTEX
  5
194
  8
Layer_0
  10
52.735423
  20
246.05565
  0
VERTEX
  5
195
  8
Layer_0
  10
52.025175
  20
245.73827
  0
VERTEX
  5
196
  8
Layer_0
  10
51.333712
  20
245.38649
  0
VERTEX
  5
197
  8
Layer_0
  10
50.662071
  20
245.00145
  0
VERTEX
  5
198
  8
Layer_0
  10
50.011285
  20
244.58425
  0
VERTEX
  5
199
  8
Layer_0
  10
49.382391
  20
244.13604
  0
VERTEX
  5
19a
  8
Layer_0
  10
48.776423
  20
243.65793
  0
VERTEX
  5
19b
  8
Layer_0
  10
48.194417
  20
243.15104
  0
VERTEX
  5
19c
  8
Layer_0
  10
47.637408
  20
242.6165
  0
VERTEX
  5
19d
  8
Layer_0
  10
47.10643
  20
242.05544
  0
VERTEX
  5
19e
  8
Layer_0
  10
46.602519
  20
241.46898
  0
VERTEX
  5
19f
  8
Layer_0
  10
46.126711
  20
240.85825
  0
VERTEX
  5
1a0
  8
Layer_0
  10
45.68004
  20
240.22437
  0
VERTEX
  5
1a1
  8
Layer_0
  10
45.263541
  20
239.56846
  0
VERTEX
  5
1a2
  8
Layer_0
  10
44.878249
  20
238.89165
  0
VERTEX
  5
1a3
  8
Layer_0
  10
44.525201
  20
238.19506
  0
VERTEX
  5
1a4
  8
Layer_0
  10
44.20543
  20
237.47983
  0
VERTEX
  5
1a5
  8
Layer_0
  10
43.919972
  20
236.74706
  0
VERTEX
  5
1a6
  8
Layer_0
  10
43.669862
  20
235.9979
  0
VERTEX
  5
1a7
  8
Layer_0
  10
43.456136
  20
235.23345
  0
VERTEX
  5
1a8
  8
Layer_0
  10
43.279828
  20
234.45486
  0
VERTEX
  5
1a9
  8
Layer_0
  10
43.141973
  20
233.66323
  0
VERTEX
  5
1aa
  8
Layer_0
  10
43.043607
  20
232.8597
  0
VERTEX
  5
1ab
  8
Layer_0
  10
42.985765
  20
232.0454
  0
VERTEX
  5
1ac
  8
Layer_0
  10
42.969482
  20
231.22144
  42
0.038429342
  0
VERTEX
  5
1ad
  8
Layer_0
  10
43.200378
  20
228.35173
  0
VERTEX
  5
1ae
  8
Layer_0
  10
43.432907
  20
226.9961
  0
VERTEX
  5
1af
  8
Layer_0
  10
43.672268
  20
225.56743
  0
VERTEX
  5
1b0
  8
Layer_0
  10
43.776365
  20
224.83988
  0
VERTEX
  5
1b1
  8
Layer_0
  10
43.860393
  20
224.11107
  0
VERTEX
  5
1b2
  8
Layer_0
  10
43.917095
  20
223.38666
  0
VERTEX
  5
1b3
  8
Layer_0
  10
43.939211
  20
222.67233
  0
VERTEX
  5
1b4
  8
Layer_0
  10
43.919482
  20
221.97372
  0
VERTEX
  5
1b5
  8
Layer_0
  10
43.850651
  20
221.29652
  0
VERTEX
  5
1b6
  8
Layer_0
  10
43.725457
  20
220.64639
  0
VERTEX
  5
1b7
  8
Layer_0
  10
43.536643
  20
220.02899
  0
VERTEX
  5
1b8
  8
Layer_0
  10
43.276948
  20
219.44998
  0
VERTEX
  5
1b9
  8
Layer_0
  10
42.939116
  20
218.91504
  0
VERTEX
  5
1ba
  8
Layer_0
  10
42.738629
  20
218.66586
  0
VERTEX
  5
1bb
  8
Layer_0
  10
42.515886
  20
218.42982
  0
VERTEX
  5
1bc
  8
Layer_0
  10
42.269979
  20
218.20763
  0
VERTEX
  5
1bd
  8
Layer_0
  10
42
  20
218
  0
VERTEX
  5
1be
  8
Layer_0
  10
39.409975
  20
215.82743
  0
VERTEX
  5
1bf
  8
Layer_0
  10
36.902748
  20
213.60744
  0
VERTEX
  5
1c0
  8
Layer_0
  10
34.478281
  20
211.34006
  0
VERTEX
  5
1c1
  8
Layer_0
  10
32.136537
  20
209.02528
  0
VERTEX
  5
1c2
  8
Layer_0
  10
29.877478
  20
206.66311
  0
VERTEX
  5
1c3
  8
Layer_0
  10
27.701066
  20
204.25356
  0
VERTEX
  5
1c4
  8
Layer_0
  10
25.607264
  20
201.79664
  0
VERTEX
  5
1c5
  8
Layer_0
  10
23.596034
  20
199.29235
  0
VERTEX
  5
1c6
  8
Layer_0
  10
21.667338
  20
196.7407
  0
VERTEX
  5
1c7
  8
Layer_0
  10
19.821138
  20
194.14171
  0
VERTEX
  5
1c8
  8
Layer_0
  10
18.057397
  20
191.49538
  0
VERTEX
  5
1c9
  8
Layer_0
  10
16.376077
  20
188.80171
  0
VERTEX
  5
1ca
  8
Layer_0
  10
14.77714
  20
186.06071
  0
VERTEX
  5
1cb
  8
Layer_0
  10
13.260549
  20
183.2724
  0
VERTEX
  5
1cc
  8
Layer_0
  10
11.826265
  20
180.43677
  0
VERTEX
  5
1cd
  8
Layer_0
  10
10.474252
  20
177.55384
  0
VERTEX
  5
1ce
  8
Layer_0
  10
9.2044714
  20
174.62362
  0
VERTEX
  5
1cf
  8
Layer_0
  10
8.0168852
  20
171.64611
  0
VERTEX
  5
1d0
  8
Layer_0
  10
6.911456
  20
168.62132
  0
VERTEX
  5
1d1
  8
Layer_0
  10
5.8881461
  20
165.54925
  0
VERTEX
  5
1d2
  8
Layer_0
  10
4.9469177
  20
162.42992
  0
VERTEX
  5
1d3
  8
Layer_0
  10
4.0877331
  20
159.26333
  0
VERTEX
  5
1d4
  8
Layer_0
  10
3.3105547
  20
156.0495
  0
VERTEX
  5
1d5
  8
Layer_0
  10
2.6153446
  20
152.78842
  0
VERTEX
  5
1d6
  8
Layer_0
  10
2.0020652
  20
149.4801
  0
VERTEX
  5
1d7
  8
Layer_0
  10
1.4706787
  20
146.12457
  0
VERTEX
  5
1d8
  8
Layer_0
  10
1.0211475
  20
142.72181
  0
VERTEX
  5
1d9
  8
Layer_0
  10
0.65343384
  20
139.27184
  0
VERTEX
  5
1da
  8
Layer_0
  10
0.36749996
  20
135.77466
  0
VERTEX
  5
1db
  8
Layer_0
  10
0.16330817
  20
132.23029
  0
VERTEX
  5
1dc
  8
Layer_0
  10
0.040820757
  20
128.63874
  0
VERTEX
  5
1dd
  8
Layer_0
  10
0
  20
125
  42
0.41421356
  0
VERTEX
  5
1de
  8
Layer_0
  10
125
  20
0
  42
0.41421356
  0
VERTEX
  5
1df
  8
Layer_0
  10
250
  20
125
  0
VERTEX
  5
1e0
  8
Layer_0
  10
249.95918
  20
128.63874
  0
VERTEX
  5
1e1
  8
Layer_0
  10
249.83669
  20
132.23029
  0
VERTEX
  5
1e2
  8
Layer_0
  10
249.6325
  20
135.77466
  0
VERTEX
  5
1e3
  8
Layer_0
  10
249.34657
  20
139.27184
  0
VERTEX
  5
1e4
  8
Layer_0
  10
248.97885
  20
142.72181
  0
VERTEX
  5
1e5
  8
Layer_0
  10
248.52932
  20
146.12457
  0
VERTEX
  5
1e6
  8
Layer_0
  10
247.99794
  20
149.4801
  0
VERTEX
  5
1e7
  8
Layer_0
  10
247.38466
  20
152.78842
  0
VERTEX
  5
1e8
  8
Layer_0
  10
246.68945
  20
156.0495
  0
VERTEX
  5
1e9
  8
Layer_0
  10
245.91227
  20
159.26333
  0
VERTEX
  5
1ea
  8
Layer_0
  10
245.05308
  20
162.42992
  0
VERTEX
  5
1eb
  8
Layer_0
  10
244.11185
  20
165.54925
  0
VERTEX
  5
1ec
  8
Layer_0
  10
243.08855
  20
168.62132
  0
VERTEX
  5
1ed
  8
Layer_0
  10
241.98312
  20
171.64611
  0
VERTEX
  5
1ee
  8
Layer_0
  10
240.79553
  20
174.62362
  0
VERTEX
  5
1ef
  8
Layer_0
  10
239.52575
  20
177.55384
  0
VERTEX
  5
1f0
  8
Layer_0
  10
238.17374
  20
180.43677
  0
VERTEX
  5
1f1
  8
Layer_0
  10
236.73945
  20
183.2724
  0
VERTEX
  5
1f2
  8
Layer_0
  10
235.22286
  20
186.06071
  0
VERTEX
  5
1f3
  8
Layer_0
  10
233.62392
  20
188.80171
  0
VERTEX
  5
1f4
  8
Layer_0
  10
231.9426
  20
191.49538
  0
VERTEX
  5
1f5
  8
Layer_0
  10
230.17886
  20
194.14171
  0
VERTEX
  5
1f6
  8
Layer_0
  10
228.33266
  20
196.7407
  0
VERTEX
  5
1f7
  8
Layer_0
  10
226.40397
  20
199.29235
  0
VERTEX
  5
1f8
  8
Layer_0
  10
224.39274
  20
201.79664
  0
VERTEX
  5
1f9
  8
Layer_0
  10
222.29894
  20
204.25356
  0
VERTEX
  5
1fa
  8
Layer_0
  10
220.12252
  20
206.66311
  0
VERTEX
  5
1fb
  8
Layer_0
  10
217.86346
  20
209.02528
  0
VERTEX
  5
1fc
  8
Layer_0
  10
215.52172
  20
211.34006
  0
VERTEX
  5
1fd
  8
Layer_0
  10
213.09725
  20
213.60744
  0
VERTEX
  5
1fe
  8
Layer_0
  10
210.59003
  20
215.82743
  0
VERTEX
  5
1ff
  8
Layer_0
  10
208
  20
218
  0
VERTEX
  5
200
  8
Layer_0
  10
207.73002
  20
218.20763
  0
VERTEX
  5
201
  8
Layer_0
  10
207.48411
  20
218.42982
  0
VERTEX
  5
202
  8
Layer_0
  10
207.26137
  20
218.66586
  0
VERTEX
  5
203
  8
Layer_0
  10
207.06088
  20
218.91504
  0
VERTEX
  5
204
  8
Layer_0
  10
206.72305
  20
219.44998
  0
VERTEX
  5
205
  8
Layer_0
  10
206.46336
  20
220.02899
  0
VERTEX
  5
206
  8
Layer_0
  10
206.27454
  20
220.64639
  0
VERTEX
  5
207
  8
Layer_0
  10
206.14935
  20
221.29652
  0
VERTEX
  5
208
  8
Layer_0
  10
206.08052
  20
221.97372
  0
VERTEX
  5
209
  8
Layer_0
  10
206.06079
  20
222.67233
  0
VERTEX
  5
20a
  8
Layer_0
  10
206.08291
  20
223.38666
  0
VERTEX
  5
20b
  8
Layer_0
  10
206.13961
  20
224.11107
  0
VERTEX
  5
20c
  8
Layer_0
  10
206.22364
  20
224.83988
  0
VERTEX
  5
20d
  8
Layer_0
  10
206.32773
  20
225.56743
  0
VERTEX
  5
20e
  8
Layer_0
  10
206.56709
  20
226.9961
  0
VERTEX
  5
20f
  8
Layer_0
  10
206.79962
  20
228.35173
  42
0.038430412
  0
VERTEX
  5
210
  8
Layer_0
  10
207.03052
  20
231.22144
  0
VERTEX
  5
211
  8
Layer_0
  10
207.01423
  20
232.0454
  0
VERTEX
  5
212
  8
Layer_0
  10
206.95639
  20
232.8597
  0
VERTEX
  5
213
  8
Layer_0
  10
206.85803
  20
233.66323
  0
VERTEX
  5
214
  8
Layer_0
  10
206.72017
  20
234.45486
  0
VERTEX
  5
215
  8
Layer_0
  10
206.54386
  20
235.23345
  0
VERTEX
  5
216
  8
Layer_0
  10
206.33014
  20
235.9979
  0
VERTEX
  5
217
  8
Layer_0
  10
206.08003
  20
236.74706
  0
VERTEX
  5
218
  8
Layer_0
  10
205.79457
  20
237.47983
  0
VERTEX
  5
219
  8
Layer_0
  10
205.4748
  20
238.19506
  0
VERTEX
  5
21a
  8
Layer_0
  10
205.12175
  20
238.89165
  0
VERTEX
  5
21b
  8
Layer_0
  10
204.73646
  20
239.56846
  0
VERTEX
  5
21c
  8
Layer_0
  10
204.31996
  20
240.22437
  0
VERTEX
  5
21d
  8
Layer_0
  10
203.87329
  20
240.85825
  0
VERTEX
  5
21e
  8
Layer_0
  10
203.39748
  20
241.46898
  0
VERTEX
  5
21f
  8
Layer_0
  10
202.89357
  20
242.05544
  0
VERTEX
  5
220
  8
Layer_0
  10
202.36259
  20
242.6165
  0
VERTEX
  5
221
  8
Layer_0
  10
201.80558
  20
243.15104
  0
VERTEX
  5
222
  8
Layer_0
  10
201.22358
  20
243.65793
  0
VERTEX
  5
223
  8
Layer_0
  10
200.61761
  20
244.13604
  0
VERTEX
  5
224
  8
Layer_0
  10
199.98871
  20
244.58425
  0
VERTEX
  5
225
  8
Layer_0
  10
199.33793
  20
245.00145
  0
VERTEX
  5
226
  8
Layer_0
  10
198.66629
  20
245.38649
  0
VERTEX
  5
227
  8
Layer_0
  10
197.97483
  20
245.73827
  0
VERTEX
  5
228
  8
Layer_0
  10
197.26458
  20
246.05565
  0
VERTEX
  5
229
  8
Layer_0
  10
196.53658
  20
246.3375
  0
VERTEX
  5
22a
  8
Layer_0
  10
195.79186
  20
246.58271
  0
VERTEX
  5
22b
  8
Layer_0
  10
195.03147
  20
246.79015
  0
VERTEX
  5
22c
  8
Layer_0
  10
194.25643
  20
246.9587
  0
VERTEX
  5
22d
  8
Layer_0
  10
193.46778
  20
247.08722
  0
VERTEX
  5
22e
  8
Layer_0
  10
192.66655
  20
247.17461
  0
VERTEX
  5
22f
  8
Layer_0
  10
191.85379
  20
247.21972
  0
VERTEX
  5
230
  8
Layer_0
  10
191.03052
  20
247.22144
  0
VERTEX
  5
231
  8
Layer_0
  10
189.93041
  20
247.16403
  0
VERTEX
  5
232
  8
Layer_0
  10
188.88812
  20
247.05037
  0
VERTEX
  5
233
  8
Layer_0
  10
187.90112
  20
246.88499
  0
VERTEX
  5
234
  8
Layer_0
  10
186.9669
  20
246.67245
  0
VERTEX
  5
235
  8
Layer_0
  10
186.08293
  20
246.41727
  0
VERTEX
  5
236
  8
Layer_0
  10
185.2467
  20
246.12399
  0
VERTEX
  5
237
  8
Layer_0
  10
184.45568
  20
245.79716
  0
VERTEX
  5
238
  8
Layer_0
  10
183.70734
  20
245.44132
  0
VERTEX
  5
239
  8
Layer_0
  10
182.99918
  20
245.061
  0
VERTEX
  5
23a
  8
Layer_0
  10
182.32867
  20
244.66075
  0
VERTEX
  5
23b
  8
Layer_0
  10
181.69329
  20
244.2451
  0
VERTEX
  5
23c
  8
Layer_0
  10
181.09051
  20
243.8186
  0
VERTEX
  5
23d
  8
Layer_0
  10
180.51782
  20
243.38578
  0
VERTEX
  5
23e
  8
Layer_0
  10
179.97269
  20
242.95118
  0
VERTEX
  5
23f
  8
Layer_0
  10
179.4526
  20
242.51935
  0
VERTEX
  5
240
  8
Layer_0
  10
178.95504
  20
242.09482
  0
VERTEX
  5
241
  8
Layer_0
  10
178.47748
  20
241.68213
  0
VERTEX
  5
242
  8
Layer_0
  10
178.01741
  20
241.28583
  0
VERTEX
  5
243
  8
Layer_0
  10
177.57229
  20
240.91044
  0
VERTEX
  5
244
  8
Layer_0
  10
177.13961
  20
240.56052
  0
VERTEX
  5
245
  8
Layer_0
  10
176.71684
  20
240.24061
  0
VERTEX
  5
246
  8
Layer_0
  10
176.30148
  20
239.95523
  0
VERTEX
  5
247
  8
Layer_0
  10
175.89099
  20
239.70894
  0
VERTEX
  5
248
  8
Layer_0
  10
175.48285
  20
239.50626
  0
VERTEX
  5
249
  8
Layer_0
  10
175.07455
  20
239.35175
  0
VERTEX
  5
24a
  8
Layer_0
  10
174.66356
  20
239.24994
  0
VERTEX
  5
24b
  8
Layer_0
  10
174.24736
  20
239.20537
  0
VERTEX
  5
24c
  8
Layer_0
  10
173.82343
  20
239.22257
  0
VERTEX
  5
24d
  8
Layer_0
  10
173.38925
  20
239.3061
  0
VERTEX
  5
24e
  8
Layer_0
  10
172.9423
  20
239.46049
  0
VERTEX
  5
24f
  8
Layer_0
  10
172.48006
  20
239.69027
  0
VERTEX
  5
250
  8
Layer_0
  10
172
  20
240
  0
VERTEX
  5
251
  8
Layer_0
  10
170.52679
  20
240.66469
  0
VERTEX
  5
252
  8
Layer_0
  10
169.07032
  20
241.30357
  0
VERTEX
  5
253
  8
Layer_0
  10
167.62894
  20
241.91695
  0
VERTEX
  5
254
  8
Layer_0
  10
166.20103
  20
242.50514
  0
VERTEX
  5
255
  8
Layer_0
  10
164.78492
  20
243.06845
  0
VERTEX
  5
256
  8
Layer_0
  10
163.37897
  20
243.60718
  0
VERTEX
  5
257
  8
Layer_0
  10
161.98154
  20
244.12164
  0
VERTEX
  5
258
  8
Layer_0
  10
160.59098
  20
244.61215
  0
VERTEX
  5
259
  8
Layer_0
  10
157.82388
  20
245.52252
  0
VERTEX
  5
25a
  8
Layer_0
  10
155.06453
  20
246.34078
  0
VERTEX
  5
25b
  8
Layer_0
  10
152.29974
  20
247.06938
  0
VERTEX
  5
25c
  8
Layer_0
  10
149.51636
  20
247.7108
  0
VERTEX
  5
25d
  8
Layer_0
  10
146.70121
  20
248.2675
  0
VERTEX
  5
25e
  8
Layer_0
  10
143.84114
  20
248.74197
  0
VERTEX
  5
25f
  8
Layer_0
  10
142.39014
  20
248.94913
  0
VERTEX
  5
260
  8
Layer_0
  10
140.92298
  20
249.13666
  0
VERTEX
  5
261
  8
Layer_0
  10
139.438
  20
249.30486
  0
VERTEX
  5
262
  8
Layer_0
  10
137.93356
  20
249.45405
  0
VERTEX
  5
263
  8
Layer_0
  10
136.40801
  20
249.58453
  0
VERTEX
  5
264
  8
Layer_0
  10
134.85971
  20
249.69661
  0
VERTEX
  5
265
  8
Layer_0
  10
133.28702
  20
249.7906
  0
VERTEX
  5
266
  8
Layer_0
  10
131.68828
  20
249.86681
  0
VERTEX
  5
267
  8
Layer_0
  10
130.06186
  20
249.92554
  0
VERTEX
  5
268
  8
Layer_0
  10
128.4061
  20
249.96711
  0
VERTEX
  5
269
  8
Layer_0
  10
126.71936
  20
249.99183
  0
SEQEND
  0
POLYLINE
  5
26b
  8
Layer_0
  62
7
  70
1
  66
1
  10
0
  20
0
  30
0
  0
VERTEX
  5
26b
  8
Layer_0
  10
139.74969
  20
289.52661
  0
VERTEX
  5
26c
  8
Layer_0
  10
138.33368
  20
289.52661
  0
VERTEX
  5
26d
  8
Layer_0
  10
138.17743
  20
289.2356
  42
-0.093327921
  0
VERTEX
  5
26e
  8
Layer_0
  10
135.6618
  20
286.54028
  42
-0.053167434
  0
VERTEX
  5
26f
  8
Layer_0
  10
133.1579
  20
285.03442
  0
VERTEX
  5
270
  8
Layer_0
  10
133.1579
  20
282.9104
  42
0.073788046
  0
VERTEX
  5
271
  8
Layer_0
  10
137.12469
  20
285.18091
  0
VERTEX
  5
272
  8
Layer_0
  10
137.55243
  20
285.55933
  0
VERTEX
  5
273
  8
Layer_0
  10
137.55243
  20
271.55786
  0
VERTEX
  5
274
  8
Layer_0
  10
139.74969
  20
271.55786
  0
SEQEND
  0
POLYLINE
  5
276
  8
Layer_0
  62
7
  70
1
  66
1
  10
0
  20
0
  30
0
  0
VERTEX
  5
276
  8
Layer_0
  10
56.583191
  20
289.45337
  0
VERTEX
  5
277
  8
Layer_0
  10
54.166199
  20
289.45337
  0
VERTEX
  5
278
  8
Layer_0
  10
49.332214
  20
276.45288
  42
0.020614189
  0
VERTEX
  5
279
  8
Layer_0
  10
48.367859
  20
273.52319
  0
VERTEX
  5
27a
  8
Layer_0
  10
48.167175
  20
274.21899
  42
0.013429321
  0
VERTEX
  5
27b
  8
Layer_0
  10
47.427917
  20
276.45288
  0
VERTEX
  5
27c
  8
Layer_0
  10
42.777039
  20
289.45337
  0
VERTEX
  5
27d
  8
Layer_0
  10
40.213562
  20
289.45337
  0
VERTEX
  5
27e
  8
Layer_0
  10
47.147156
  20
271.55786
  0
VERTEX
  5
27f
  8
Layer_0
  10
49.576355
  20
271.55786
  0
SEQEND
  0
POLYLINE
  5
281
  8
Layer_0
  62
7
  70
1
  66
1
  10
0
  20
0
  30
0
  0
VERTEX
  5
281
  8
Layer_0
  10
93.985535
  20
289.45337
  0
VERTEX
  5
282
  8
Layer_0
  10
91.788269
  20
289.45337
  0
VERTEX
  5
283
  8
Layer_0
  10
91.788269
  20
286.92651
  0
VERTEX
  5
284
  8
Layer_0
  10
93.985535
  20
286.92651
  0
SEQEND
  0
POLYLINE
  5
286
  8
Layer_0
  62
7
  70
1
  66
1
  10
0
  20
0
  30
0
  0
VERTEX
  5
286
  8
Layer_0
  10
63.043152
  20
271.28198
  42
0.10160729
  0
VERTEX
  5
287
  8
Layer_0
  10
65.425476
  20
271.88306
  42
0.17891762
  0
VERTEX
  5
288
  8
Layer_0
  10
67.866394
  20
274.51294
  42
0.036574167
  0
VERTEX
  5
289
  8
Layer_0
  10
68.192078
  20
275.4519
  0
VERTEX
  5
28a
  8
Layer_0
  10
65.92157
  20
275.73267
  0
VERTEX
  5
28b
  8
Layer_0
  10
65.79071
  20
275.39673
  42
-0.13635728
  0
VERTEX
  5
28c
  8
Layer_0
  10
64.566589
  20
273.7063
  42
-0.18606595
  0
VERTEX
  5
28d
  8
Layer_0
  10
62.10614
  20
273.08911
  42
-0.26919537
  0
VERTEX
  5
28e
  8
Layer_0
  10
59.114441
  20
275.19897
  42
-0.09627653
  0
VERTEX
  5
28f
  8
Layer_0
  10
58.585144
  20
277.47827
  0
VERTEX
  5
290
  8
Layer_0
  10
68.253113
  20
277.47827
  42
0.10301676
  0
VERTEX
  5
291
  8
Layer_0
  10
67.743835
  20
281.21997
  42
0.32204684
  0
VERTEX
  5
292
  8
Layer_0
  10
62.369324
  20
284.8147
  42
0.17223079
  0
VERTEX
  5
293
  8
Layer_0
  10
58.666199
  20
283.62183
  42
0.17545692
  0
VERTEX
  5
294
  8
Layer_0
  10
56.551453
  20
280.17749
  42
0.12934106
  0
VERTEX
  5
295
  8
Layer_0
  10
56.73114
  20
275.12085
  42
0.29912757
  0
VERTEX
  5
296
  8
Layer_0
  10
61.466003
  20
271.32642
  42
0.046176742
  0
SEQEND
  0
POLYLINE
  5
298
  8
Layer_0
  62
7
  70
1
  66
1
  10
0
  20
0
  30
0
  0
VERTEX
  5
298
  8
Layer_0
  10
73.123718
  20
278.34497
  42
-0.076159361
  0
VERTEX
  5
299
  8
Layer_0
  10
73.489929
  20
280.90845
  42
-0.24450395
  0
VERTEX
  5
29a
  8
Layer_0
  10
74.918152
  20
282.43579
  42
-0.15325656
  0
VERTEX
  5
29b
  8
Layer_0
  10
76.40741
  20
282.42505
  42
-0.06236177
  0
VERTEX
  5
29c
  8
Layer_0
  10
77.213074
  20
282.06812
  0
VERTEX
  5
29d
  8
Layer_0
  10
77.96991
  20
284.10669
  42
0.14041286
  0
VERTEX
  5
29e
  8
Layer_0
  10
75.711609
  20
284.8147
  42
0.24747298
  0
VERTEX
  5
29f
  8
Layer_0
  10
73.632019
  20
283.70093
  42
0.037751362
  0
VERTEX
  5
2a0
  8
Layer_0
  10
72.903992
  20
282.5564
  0
VERTEX
  5
2a1
  8
Layer_0
  10
72.903992
  20
284.52173
  0
VERTEX
  5
2a2
  8
Layer_0
  10
70.926453
  20
284.52173
  0
VERTEX
  5
2a3
  8
Layer_0
  10
70.926453
  20
271.55786
  0
VERTEX
  5
2a4
  8
Layer_0
  10
73.123718
  20
271.55786
  0
SEQEND
  0
POLYLINE
  5
2a6
  8
Layer_0
  62
7
  70
1
  66
1
  10
0
  20
0
  30
0
  0
VERTEX
  5
2a6
  8
Layer_0
  10
84.315613
  20
271.27319
  42
0.14062669
  0
VERTEX
  5
2a7
  8
Layer_0
  10
87.500183
  20
272.2561
  42
0.35803053
  0
VERTEX
  5
2a8
  8
Layer_0
  10
88.868347
  20
276.84497
  42
0.20018801
  0
VERTEX
  5
2a9
  8
Layer_0
  10
86.940125
  20
278.50269
  42
0.02422734
  0
VERTEX
  5
2aa
  8
Layer_0
  10
83.556335
  20
279.52417
  0
VERTEX
  5
2ab
  8
Layer_0
  10
82.910828
  20
279.70435
  42
-0.055846409
  0
VERTEX
  5
2ac
  8
Layer_0
  10
81.730652
  20
280.10425
  42
-0.23961177
  0
VERTEX
  5
2ad
  8
Layer_0
  10
80.903992
  20
281.1272
  42
-0.28628035
  0
VERTEX
  5
2ae
  8
Layer_0
  10
81.534363
  20
282.50757
  42
-0.12150862
  0
VERTEX
  5
2af
  8
Layer_0
  10
82.681824
  20
282.93774
  42
-0.10155836
  0
VERTEX
  5
2b0
  8
Layer_0
  10
84.831726
  20
282.86792
  42
-0.31300944
  0
VERTEX
  5
2b1
  8
Layer_0
  10
86.527039
  20
280.88403
  0
VERTEX
  5
2b2
  8
Layer_0
  10
88.675476
  20
281.177
  42
0.1168549
  0
VERTEX
  5
2b3
  8
Layer_0
  10
87.91864
  20
283.18481
  42
0.14548211
  0
VERTEX
  5
2b4
  8
Layer_0
  10
86.215515
  20
284.37524
  42
0.16887302
  0
VERTEX
  5
2b5
  8
Layer_0
  10
81.218933
  20
284.41382
  42
0.28791264
  0
VERTEX
  5
2b6
  8
Layer_0
  10
78.788269
  20
281.50464
  42
0.35488232
  0
VERTEX
  5
2b7
  8
Layer_0
  10
80.918152
  20
277.99292
  42
0.03338189
  0
VERTEX
  5
2b8
  8
Layer_0
  10
84.440125
  20
276.94067
  0
VERTEX
  5
2b9
  8
Layer_0
  10
84.825867
  20
276.83521
  42
-0.061620507
  0
VERTEX
  5
2ba
  8
Layer_0
  10
86.258484
  20
276.3064
  42
-0.33565695
  0
VERTEX
  5
2bb
  8
Layer_0
  10
86.859558
  20
274.73267
  42
-0.2438452
  0
VERTEX
  5
2bc
  8
Layer_0
  10
85.513855
  20
273.31226
  42
-0.16267137
  0
VERTEX
  5
2bd
  8
Layer_0
  10
82.309753
  20
273.34351
  42
-0.2360982
  0
VERTEX
  5
2be
  8
Layer_0
  10
80.702332
  20
275.15454
  42
-0.037513284
  0
VERTEX
  5
2bf
  8
Layer_0
  10
80.570007
  20
275.76929
  0
VERTEX
  5
2c0
  8
Layer_0
  10
78.397156
  20
275.42749
  42
0.10651352
  0
VERTEX
  5
2c1
  8
Layer_0
  10
79.229187
  20
273.24438
  42
0.18681006
  0
VERTEX
  5
2c2
  8
Layer_0
  10
81.713074
  20
271.5271
  42
0.072523099
  0
SEQEND
  0
POLYLINE
  5
2c4
  8
Layer_0
  62
7
  70
1
  66
1
  10
0
  20
0
  30
0
  0
VERTEX
  5
2c4
  8
Layer_0
  10
103.01141
  20
271.2771
  42
0.20282306
  0
VERTEX
  5
2c5
  8
Layer_0
  10
107.24872
  20
273.30054
  42
0.13354043
  0
VERTEX
  5
2c6
  8
Layer_0
  10
108.47089
  20
275.98755
  42
0.090189831
  0
VERTEX
  5
2c7
  8
Layer_0
  10
108.49286
  20
280.02271
  42
0.24495365
  0
VERTEX
  5
2c8
  8
Layer_0
  10
105.29022
  20
284.2605
  42
0.12857004
  0
VERTEX
  5
2c9
  8
Layer_0
  10
102.00165
  20
284.79224
  42
0.19518849
  0
VERTEX
  5
2ca
  8
Layer_0
  10
98.045105
  20
282.91187
  42
0.14498726
  0
VERTEX
  5
2cb
  8
Layer_0
  10
96.63739
  20
279.72339
  42
0.11331431
  0
VERTEX
  5
2cc
  8
Layer_0
  10
96.931824
  20
275.14038
  42
0.31090922
  0
VERTEX
  5
2cd
  8
Layer_0
  10
101.92743
  20
271.29224
  42
0.035074178
  0
SEQEND
  0
POLYLINE
  5
2cf
  8
Layer_0
  62
7
  70
1
  66
1
  10
0
  20
0
  30
0
  0
VERTEX
  5
2cf
  8
Layer_0
  10
113.43134
  20
278.63794
  0
VERTEX
  5
2d0
  8
Layer_0
  10
113.44745
  20
279.2356
  42
-0.085627973
  0
VERTEX
  5
2d1
  8
Layer_0
  10
113.82928
  20
281.12622
  42
-0.16790171
  0
VERTEX
  5
2d2
  8
Layer_0
  10
114.98407
  20
282.40894
  42
-0.22554086
  0
VERTEX
  5
2d3
  8
Layer_0
  10
118.06512
  20
282.68726
  42
-0.20920575
  0
VERTEX
  5
2d4
  8
Layer_0
  10
119.31512
  20
281.45142
  42
-0.086024832
  0
VERTEX
  5
2d5
  8
Layer_0
  10
119.57147
  20
279.4436
  0
VERTEX
  5
2d6
  8
Layer_0
  10
119.57147
  20
271.55786
  0
VERTEX
  5
2d7
  8
Layer_0
  10
121.76874
  20
271.55786
  42
0.0026718913
  0
VERTEX
  5
2d8
  8
Layer_0
  10
121.76678
  20
279.89624
  42
0.042444211
  0
VERTEX
  5
2d9
  8
Layer_0
  10
121.64667
  20
281.66528
  42
0.12374626
  0
VERTEX
  5
2da
  8
Layer_0
  10
120.83319
  20
283.45581
  42
0.11559411
  0
VERTEX
  5
2db
  8
Layer_0
  10
119.49237
  20
284.39331
  42
0.18060704
  0
VERTEX
  5
2dc
  8
Layer_0
  10
115.49286
  20
284.5144
  42
0.16377266
  0
VERTEX
  5
2dd
  8
Layer_0
  10
113.21161
  20
282.67847
  0
VERTEX
  5
2de
  8
Layer_0
  10
113.21161
  20
284.52173
  0
VERTEX
  5
2df
  8
Layer_0
  10
111.23407
  20
284.52173
  0
VERTEX
  5
2e0
  8
Layer_0
  10
111.23407
  20
271.55786
  0
VERTEX
  5
2e1
  8
Layer_0
  10
113.43134
  20
271.55786
  0
SEQEND
  0
POLYLINE
  5
2e3
  8
Layer_0
  62
7
  70
1
  66
1
  10
0
  20
0
  30
0
  0
VERTEX
  5
2e3
  8
Layer_0
  10
93.985535
  20
284.52173
  0
VERTEX
  5
2e4
  8
Layer_0
  10
91.788269
  20
284.52173
  0
VERTEX
  5
2e5
  8
Layer_0
  10
91.788269
  20
271.55786
  0
VERTEX
  5
2e6
  8
Layer_0
  10
93.985535
  20
271.55786
  0
SEQEND
  0
POLYLINE
  5
2e8
  8
Layer_0
  62
7
  70
1
  66
1
  10
0
  20
0
  30
0
  0
VERTEX
  5
2e8
  8
Layer_0
  10
58.707214
  20
279.28491
  42
-0.13468372
  0
VERTEX
  5
2e9
  8
Layer_0
  10
59.39032
  20
281.44556
  42
-0.28309444
  0
VERTEX
  5
2ea
  8
Layer_0
  10
62.801941
  20
282.98804
  42
-0.32344256
  0
VERTEX
  5
2eb
  8
Layer_0
  10
65.760437
  20
280.39673
  42
-0.040881464
  0
VERTEX
  5
2ec
  8
Layer_0
  10
65.945984
  20
279.28491
  0
SEQEND
  0
POLYLINE
  5
2ee
  8
Layer_0
  62
7
  70
1
  66
1
  10
0
  20
0
  30
0
  0
VERTEX
  5
2ee
  8
Layer_0
  10
102.18817
  20
273.09106
  42
-0.16972684
  0
VERTEX
  5
2ef
  8
Layer_0
  10
100.13739
  20
274.02026
  42
-0.13845983
  0
VERTEX
  5
2f0
  8
Layer_0
  10
99.042175
  20
275.86255
  42
-0.12646185
  0
VERTEX
  5
2f1
  8
Layer_0
  10
99.042175
  20
280.21558
  42
-0.19504561
  0
VERTEX
  5
2f2
  8
Layer_0
  10
100.75067
  20
282.5144
  42
-0.29667959
  0
VERTEX
  5
2f3
  8
Layer_0
  10
104.72821
  20
282.29907
  42
-0.16410864
  0
VERTEX
  5
2f4
  8
Layer_0
  10
106.12714
  20
280.22632
  42
-0.083933163
  0
VERTEX
  5
2f5
  8
Layer_0
  10
106.383
  20
277.49585
  42
-0.078799043
  0
VERTEX
  5
2f6
  8
Layer_0
  10
105.97577
  20
275.43433
  42
-0.25558532
  0
VERTEX
  5
2f7
  8
Layer_0
  10
103.37518
  20
273.14917
  42
-0.07397408
  0
SEQEND
  0
POLYLINE
  5
2f9
  8
Layer_0
  62
7
  70
1
  66
1
  10
0
  20
0
  30
0
  0
VERTEX
  5
2f9
  8
Layer_0
  10
392.98877
  20
270.48483
  0
VERTEX
  5
2fa
  8
Layer_0
  10
384.21191
  20
270.48483
  0
VERTEX
  5
2fb
  8
Layer_0
  10
384.40723
  20
270.78366
  42
-0.061750324
  0
VERTEX
  5
2fc
  8
Layer_0
  10
386.05518
  20
272.53415
  42
-0.0017615876
  0
VERTEX
  5
2fd
  8
Layer_0
  10
388.77832
  20
274.87497
  0
VERTEX
  5
2fe
  8
Layer_0
  10
389.26514
  20
275.30856
  42
0.044770855
  0
VERTEX
  5
2ff
  8
Layer_0
  10
391.53955
  20
277.64352
  42
0.14381512
  0
VERTEX
  5
300
  8
Layer_0
  10
392.93701
  20
280.83884
  42
0.15349488
  0
VERTEX
  5
301
  8
Layer_0
  10
392.37793
  20
283.74606
  42
0.2108229
  0
VERTEX
  5
302
  8
Layer_0
  10
389.1665
  20
286.14108
  42
0.1306241
  0
VERTEX
  5
303
  8
Layer_0
  10
385.09375
  20
286.01071
  42
0.24453385
  0
VERTEX
  5
304
  8
Layer_0
  10
381.9292
  20
282.89206
  42
0.05857134
  0
VERTEX
  5
305
  8
Layer_0
  10
381.5752
  20
281.16599
  0
VERTEX
  5
306
  8
Layer_0
  10
383.8335
  20
280.93405
  0
VERTEX
  5
307
  8
Layer_0
  10
383.85107
  20
281.34372
  42
-0.15173025
  0
VERTEX
  5
308
  8
Layer_0
  10
384.57471
  20
283.32126
  42
-0.21288643
  0
VERTEX
  5
309
  8
Layer_0
  10
386.9502
  20
284.50827
  42
-0.13360888
  0
VERTEX
  5
30a
  8
Layer_0
  10
388.99219
  20
284.17233
  42
-0.37602217
  0
VERTEX
  5
30b
  8
Layer_0
  10
390.56201
  20
280.46725
  42
-0.10403052
  0
VERTEX
  5
30c
  8
Layer_0
  10
389.22949
  20
278.22018
  42
-0.037675778
  0
VERTEX
  5
30d
  8
Layer_0
  10
386.09521
  20
275.28464
  0
VERTEX
  5
30e
  8
Layer_0
  10
385.28174
  20
274.61032
  42
0.049083333
  0
VERTEX
  5
30f
  8
Layer_0
  10
382.62305
  20
271.98581
  42
0.095228889
  0
VERTEX
  5
310
  8
Layer_0
  10
381.29541
  20
269.52878
  42
0.075007712
  0
VERTEX
  5
311
  8
Layer_0
  10
381.16016
  20
268.37302
  0
VERTEX
  5
312
  8
Layer_0
  10
392.98877
  20
268.37302
  0
SEQEND
  0
POLYLINE
  5
314
  8
Layer_0
  62
7
  70
1
  66
1
  10
0
  20
0
  30
0
  0
VERTEX
  5
314
  8
Layer_0
  10
306.55078
  20
286.26852
  0
VERTEX
  5
315
  8
Layer_0
  10
304.13379
  20
286.26852
  0
VERTEX
  5
316
  8
Layer_0
  10
299.2998
  20
273.26804
  42
0.020612935
  0
VERTEX
  5
317
  8
Layer_0
  10
298.33545
  20
270.33835
  0
VERTEX
  5
318
  8
Layer_0
  10
298.13477
  20
271.03415
  42
0.013432296
  0
VERTEX
  5
319
  8
Layer_0
  10
297.39551
  20
273.26804
  0
VERTEX
  5
31a
  8
Layer_0
  10
292.74463
  20
286.26852
  0
VERTEX
  5
31b
  8
Layer_0
  10
290.18115
  20
286.26852
  0
VERTEX
  5
31c
  8
Layer_0
  10
297.11475
  20
268.37302
  0
VERTEX
  5
31d
  8
Layer_0
  10
299.54395
  20
268.37302
  0
SEQEND
  0
POLYLINE
  5
31f
  8
Layer_0
  62
7
  70
1
  66
1
  10
0
  20
0
  30
0
  0
VERTEX
  5
31f
  8
Layer_0
  10
343.95313
  20
286.26852
  0
VERTEX
  5
320
  8
Layer_0
  10
341.75586
  20
286.26852
  0
VERTEX
  5
321
  8
Layer_0
  10
341.75586
  20
283.74167
  0
VERTEX
  5
322
  8
Layer_0
  10
343.95313
  20
283.74167
  0
SEQEND
  0
POLYLINE
  5
324
  8
Layer_0
  62
7
  70
1
  66
1
  10
0
  20
0
  30
0
  0
VERTEX
  5
324
  8
Layer_0
  10
313.01074
  20
268.09714
  42
0.10160984
  0
VERTEX
  5
325
  8
Layer_0
  10
315.39307
  20
268.69821
  42
0.17891762
  0
VERTEX
  5
326
  8
Layer_0
  10
317.83398
  20
271.32809
  42
0.036572746
  0
VERTEX
  5
327
  8
Layer_0
  10
318.15967
  20
272.26706
  0
VERTEX
  5
328
  8
Layer_0
  10
315.88916
  20
272.54782
  0
VERTEX
  5
329
  8
Layer_0
  10
315.7583
  20
272.21188
  42
-0.13635897
  0
VERTEX
  5
32a
  8
Layer_0
  10
314.53418
  20
270.52145
  42
-0.1860673
  0
VERTEX
  5
32b
  8
Layer_0
  10
312.07373
  20
269.90427
  42
-0.26919422
  0
VERTEX
  5
32c
  8
Layer_0
  10
309.08203
  20
272.01413
  42
-0.096276281
  0
VERTEX
  5
32d
  8
Layer_0
  10
308.55273
  20
274.29343
  0
VERTEX
  5
32e
  8
Layer_0
  10
318.2207
  20
274.29343
  42
0.10301675
  0
VERTEX
  5
32f
  8
Layer_0
  10
317.71143
  20
278.03513
  42
0.32204649
  0
VERTEX
  5
330
  8
Layer_0
  10
312.33691
  20
281.62985
  42
0.17223082
  0
VERTEX
  5
331
  8
Layer_0
  10
308.63379
  20
280.43698
  42
0.17545717
  0
VERTEX
  5
332
  8
Layer_0
  10
306.51904
  20
276.99265
  42
0.12934004
  0
VERTEX
  5
333
  8
Layer_0
  10
306.69873
  20
271.936
  42
0.29912716
  0
VERTEX
  5
334
  8
Layer_0
  10
311.43359
  20
268.14157
  42
0.046174661
  0
SEQEND
  0
POLYLINE
  5
336
  8
Layer_0
  62
7
  70
1
  66
1
  10
0
  20
0
  30
0
  0
VERTEX
  5
336
  8
Layer_0
  10
323.09131
  20
275.16013
  42
-0.076159861
  0
VERTEX
  5
337
  8
Layer_0
  10
323.45752
  20
277.7236
  42
-0.24450287
  0
VERTEX
  5
338
  8
Layer_0
  10
324.88574
  20
279.25095
  42
-0.15325602
  0
VERTEX
  5
339
  8
Layer_0
  10
326.375
  20
279.2402
  42
-0.062362016
  0
VERTEX
  5
33a
  8
Layer_0
  10
327.18066
  20
278.88327
  0
VERTEX
  5
33b
  8
Layer_0
  10
327.9375
  20
280.92184
  42
0.14041286
  0
VERTEX
  5
33c
  8
Layer_0
  10
325.6792
  20
281.62985
  42
0.24747262
  0
VERTEX
  5
33d
  8
Layer_0
  10
323.59961
  20
280.51608
  42
0.037752549
  0
VERTEX
  5
33e
  8
Layer_0
  10
322.87158
  20
279.37155
  0
VERTEX
  5
33f
  8
Layer_0
  10
322.87158
  20
281.33688
  0
VERTEX
  5
340
  8
Layer_0
  10
320.89404
  20
281.33688
  0
VERTEX
  5
341
  8
Layer_0
  10
320.89404
  20
268.37302
  0
VERTEX
  5
342
  8
Layer_0
  10
323.09131
  20
268.37302
  0
SEQEND
  0
POLYLINE
  5
344
  8
Layer_0
  62
7
  70
1
  66
1
  10
0
  20
0
  30
0
  0
VERTEX
  5
344
  8
Layer_0
  10
334.2832
  20
268.08835
  42
0.14062747
  0
VERTEX
  5
345
  8
Layer_0
  10
337.46777
  20
269.07126
  42
0.35803033
  0
VERTEX
  5
346
  8
Layer_0
  10
338.83594
  20
273.66013
  42
0.20018791
  0
VERTEX
  5
347
  8
Layer_0
  10
336.90771
  20
275.31784
  42
0.024229024
  0
VERTEX
  5
348
  8
Layer_0
  10
333.52393
  20
276.33932
  0
VERTEX
  5
349
  8
Layer_0
  10
332.87842
  20
276.5195
  42
-0.05584608
  0
VERTEX
  5
34a
  8
Layer_0
  10
331.69824
  20
276.9194
  42
-0.23961071
  0
VERTEX
  5
34b
  8
Layer_0
  10
330.87158
  20
277.94235
  42
-0.28628109
  0
VERTEX
  5
34c
  8
Layer_0
  10
331.50195
  20
279.32272
  42
-0.12150816
  0
VERTEX
  5
34d
  8
Layer_0
  10
332.64941
  20
279.7529
  42
-0.10155839
  0
VERTEX
  5
34e
  8
Layer_0
  10
334.79932
  20
279.68307
  42
-0.31300929
  0
VERTEX
  5
34f
  8
Layer_0
  10
336.49463
  20
277.69919
  0
VERTEX
  5
350
  8
Layer_0
  10
338.64307
  20
277.99216
  42
0.11685446
  0
VERTEX
  5
351
  8
Layer_0
  10
337.88623
  20
279.99997
  42
0.14548191
  0
VERTEX
  5
352
  8
Layer_0
  10
336.18311
  20
281.1904
  42
0.16887268
  0
VERTEX
  5
353
  8
Layer_0
  10
331.18652
  20
281.22897
  42
0.28791254
  0
VERTEX
  5
354
  8
Layer_0
  10
328.75586
  20
278.31979
  42
0.35488239
  0
VERTEX
  5
355
  8
Layer_0
  10
330.88574
  20
274.80807
  42
0.033382845
  0
VERTEX
  5
356
  8
Layer_0
  10
334.40771
  20
273.75583
  0
VERTEX
  5
357
  8
Layer_0
  10
334.79346
  20
273.65036
  42
-0.061620737
  0
VERTEX
  5
358
  8
Layer_0
  10
336.22607
  20
273.12155
  42
-0.33565659
  0
VERTEX
  5
359
  8
Layer_0
  10
336.82715
  20
271.54782
  42
-0.243844
  0
VERTEX
  5
35a
  8
Layer_0
  10
335.48145
  20
270.12741
  42
-0.16267138
  0
VERTEX
  5
35b
  8
Layer_0
  10
332.27734
  20
270.15866
  42
-0.23609809
  0
VERTEX
  5
35c
  8
Layer_0
  10
330.66992
  20
271.9697
  42
-0.037513595
  0
VERTEX
  5
35d
  8
Layer_0
  10
330.5376
  20
272.58444
  0
VERTEX
  5
35e
  8
Layer_0
  10
328.36475
  20
272.24265
  42
0.10651373
  0
VERTEX
  5
35f
  8
Layer_0
  10
329.19678
  20
270.05954
  42
0.1868114
  0
VERTEX
  5
360
  8
Layer_0
  10
331.68066
  20
268.34225
  42
0.072521649
  0
SEQEND
  0
POLYLINE
  5
362
  8
Layer_0
  62
7
  70
1
  66
1
  10
0
  20
0
  30
0
  0
VERTEX
  5
362
  8
Layer_0
  10
352.979
  20
268.09225
  42
0.20282257
  0
VERTEX
  5
363
  8
Layer_0
  10
357.21631
  20
270.11569
  42
0.13353969
  0
VERTEX
  5
364
  8
Layer_0
  10
358.43848
  20
272.8027
  42
0.090189672
  0
VERTEX
  5
365
  8
Layer_0
  10
358.46045
  20
276.83786
  42
0.24495371
  0
VERTEX
  5
366
  8
Layer_0
  10
355.25781
  20
281.07565
  42
0.1285701
  0
VERTEX
  5
367
  8
Layer_0
  10
351.96924
  20
281.60739
  42
0.19518849
  0
VERTEX
  5
368
  8
Layer_0
  10
348.0127
  20
279.72702
  42
0.14498724
  0
VERTEX
  5
369
  8
Layer_0
  10
346.60498
  20
276.53854
  42
0.11331503
  0
VERTEX
  5
36a
  8
Layer_0
  10
346.89941
  20
271.95554
  42
0.31090942
  0
VERTEX
  5
36b
  8
Layer_0
  10
351.89502
  20
268.10739
  42
0.035073416
  0
SEQEND
  0
POLYLINE
  5
36d
  8
Layer_0
  62
7
  70
1
  66
1
  10
0
  20
0
  30
0
  0
VERTEX
  5
36d
  8
Layer_0
  10
363.39893
  20
275.45309
  0
VERTEX
  5
36e
  8
Layer_0
  10
363.41504
  20
276.05075
  42
-0.085628714
  0
VERTEX
  5
36f
  8
Layer_0
  10
363.79688
  20
277.94138
  42
-0.16790083
  0
VERTEX
  5
370
  8
Layer_0
  10
364.95166
  20
279.22409
  42
-0.22554119
  0
VERTEX
  5
371
  8
Layer_0
  10
368.03271
  20
279.50241
  42
-0.20920445
  0
VERTEX
  5
372
  8
Layer_0
  10
369.28271
  20
278.26657
  42
-0.08602391
  0
VERTEX
  5
373
  8
Layer_0
  10
369.53906
  20
276.25876
  0
VERTEX
  5
374
  8
Layer_0
  10
369.53906
  20
268.37302
  0
VERTEX
  5
375
  8
Layer_0
  10
371.73633
  20
268.37302
  42
0.0026718874
  0
VERTEX
  5
376
  8
Layer_0
  10
371.73438
  20
276.7114
  42
0.042445438
  0
VERTEX
  5
377
  8
Layer_0
  10
371.61426
  20
278.48044
  42
0.12374493
  0
VERTEX
  5
378
  8
Layer_0
  10
370.80078
  20
280.27097
  42
0.11559456
  0
VERTEX
  5
379
  8
Layer_0
  10
369.45996
  20
281.20847
  42
0.18060645
  0
VERTEX
  5
37a
  8
Layer_0
  10
365.46045
  20
281.32956
  42
0.16377305
  0
VERTEX
  5
37b
  8
Layer_0
  10
363.1792
  20
279.49362
  0
VERTEX
  5
37c
  8
Layer_0
  10
363.1792
  20
281.33688
  0
VERTEX
  5
37d
  8
Layer_0
  10
361.20166
  20
281.33688
  0
VERTEX
  5
37e
  8
Layer_0
  10
361.20166
  20
268.37302
  0
VERTEX
  5
37f
  8
Layer_0
  10
363.39893
  20
268.37302
  0
SEQEND
  0
POLYLINE
  5
381
  8
Layer_0
  62
7
  70
1
  66
1
  10
0
  20
0
  30
0
  0
VERTEX
  5
381
  8
Layer_0
  10
343.95313
  20
281.33688
  0
VERTEX
  5
382
  8
Layer_0
  10
341.75586
  20
281.33688
  0
VERTEX
  5
383
  8
Layer_0
  10
341.75586
  20
268.37302
  0
VERTEX
  5
384
  8
Layer_0
  10
343.95313
  20
268.37302
  0
SEQEND
  0
POLYLINE
  5
386
  8
Layer_0
  62
7
  70
1
  66
1
  10
0
  20
0
  30
0
  0
VERTEX
  5
386
  8
Layer_0
  10
308.6748
  20
276.10007
  42
-0.13468477
  0
VERTEX
  5
387
  8
Layer_0
  10
309.35791
  20
278.26071
  42
-0.28309463
  0
VERTEX
  5
388
  8
Layer_0
  10
312.76953
  20
279.80319
  42
-0.32344227
  0
VERTEX
  5
389
  8
Layer_0
  10
315.72803
  20
277.21188
  42
-0.040880465
  0
VERTEX
  5
38a
  8
Layer_0
  10
315.91357
  20
276.10007
  0
SEQEND
  0
POLYLINE
  5
38c
  8
Layer_0
  62
7
  70
1
  66
1
  10
0
  20
0
  30
0
  0
VERTEX
  5
38c
  8
Layer_0
  10
352.15576
  20
269.90622
  42
-0.16972705
  0
VERTEX
  5
38d
  8
Layer_0
  10
350.10498
  20
270.83542
  42
-0.13845871
  0
VERTEX
  5
38e
  8
Layer_0
  10
349.00977
  20
272.6777
  42
-0.12646171
  0
VERTEX
  5
38f
  8
Layer_0
  10
349.00977
  20
277.03073
  42
-0.1950455
  0
VERTEX
  5
390
  8
Layer_0
  10
350.71826
  20
279.32956
  42
-0.29667958
  0
VERTEX
  5
391
  8
Layer_0
  10
354.6958
  20
279.11423
  42
-0.1641086
  0
VERTEX
  5
392
  8
Layer_0
  10
356.09473
  20
277.04147
  42
-0.083932071
  0
VERTEX
  5
393
  8
Layer_0
  10
356.35059
  20
274.311
  42
-0.078798691
  0
VERTEX
  5
394
  8
Layer_0
  10
355.94336
  20
272.24948
  42
-0.25558515
  0
VERTEX
  5
395
  8
Layer_0
  10
353.34277
  20
269.96432
  42
-0.073973844
  0
SEQEND
  0
CIRCLE
  5
397
  8
Layer_0
  62
7
  10
279.12158
  20
993.1037
  30
0
  40
4
  0
CIRCLE
  5
397
  8
Layer_0
  62
7
  10
335.12158
  20
993.1037
  30
0
  40
4
  0
POLYLINE
  5
397
  8
Layer_0
  62
7
  70
1
  66
1
  10
0
  20
0
  30
0
  0
VERTEX
  5
397
  8
Layer_0
  10
275.35022
  20
981.71173
  0
VERTEX
  5
398
  8
Layer_0
  10
274.56769
  20
981.05426
  0
VERTEX
  5
399
  8
Layer_0
  10
273.79877
  20
980.38092
  0
VERTEX
  5
39a
  8
Layer_0
  10
273.04376
  20
979.69196
  0
VERTEX
  5
39b
  8
Layer_0
  10
272.30301
  20
978.98779
  0
VERTEX
  5
39c
  8
Layer_0
  10
271.57678
  20
978.26855
  0
VERTEX
  5
39d
  8
Layer_0
  10
270.86542
  20
977.53467
  0
VERTEX
  5
39e
  8
Layer_0
  10
270.16922
  20
976.78638
  0
VERTEX
  5
39f
  8
Layer_0
  10
269.48843
  20
976.02399
  0
VERTEX
  5
3a0
  8
Layer_0
  10
268.82339
  20
975.24786
  0
VERTEX
  5
3a1
  8
Layer_0
  10
268.17435
  20
974.45831
  0
VERTEX
  5
3a2
  8
Layer_0
  10
267.5416
  20
973.6557
  0
VERTEX
  5
3a3
  8
Layer_0
  10
266.92535
  20
972.84027
  0
VERTEX
  5
3a4
  8
Layer_0
  10
266.32593
  20
972.01245
  0
VERTEX
  5
3a5
  8
Layer_0
  10
265.74353
  20
971.17249
  0
VERTEX
  5
3a6
  8
Layer_0
  10
265.17844
  20
970.32086
  0
VERTEX
  5
3a7
  8
Layer_0
  10
264.63089
  20
969.45782
  0
VERTEX
  5
3a8
  8
Layer_0
  10
264.10107
  20
968.5838
  0
VERTEX
  5
3a9
  8
Layer_0
  10
263.58923
  20
967.6991
  0
VERTEX
  5
3aa
  8
Layer_0
  10
263.09558
  20
966.80414
  0
VERTEX
  5
3ab
  8
Layer_0
  10
262.62033
  20
965.89929
  0
VERTEX
  5
3ac
  8
Layer_0
  10
262.16367
  20
964.98486
  0
VERTEX
  5
3ad
  8
Layer_0
  10
261.7258
  20
964.06134
  0
VERTEX
  5
3ae
  8
Layer_0
  10
261.30692
  20
963.12909
  0
VERTEX
  5
3af
  8
Layer_0
  10
260.90714
  20
962.18842
  0
VERTEX
  5
3b0
  8
Layer_0
  10
260.5267
  20
961.23975
  0
VERTEX
  5
3b1
  8
Layer_0
  10
260.16571
  20
960.28357
  0
VERTEX
  5
3b2
  8
Layer_0
  10
259.82437
  20
959.32019
  0
VERTEX
  5
3b3
  8
Layer_0
  10
259.50278
  20
958.34998
  0
VERTEX
  5
3b4
  8
Layer_0
  10
259.20108
  20
957.37347
  0
VERTEX
  5
3b5
  8
Layer_0
  10
258.91943
  20
956.39099
  0
VERTEX
  5
3b6
  8
Layer_0
  10
258.6579
  20
955.40289
  0
VERTEX
  5
3b7
  8
Layer_0
  10
258.41663
  20
954.40973
  0
VERTEX
  5
3b8
  8
Layer_0
  10
258.19568
  20
953.4118
  0
VERTEX
  5
3b9
  8
Layer_0
  10
257.99521
  20
952.40955
  0
VERTEX
  5
3ba
  8
Layer_0
  10
257.81525
  20
951.40344
  0
VERTEX
  5
3bb
  8
Layer_0
  10
257.65591
  20
950.39386
  0
VERTEX
  5
3bc
  8
Layer_0
  10
257.51721
  20
949.38129
  0
VERTEX
  5
3bd
  8
Layer_0
  10
257.39926
  20
948.36603
  0
VERTEX
  5
3be
  8
Layer_0
  10
257.30209
  20
947.34857
  0
VERTEX
  5
3bf
  8
Layer_0
  10
257.22574
  20
946.32935
  0
VERTEX
  5
3c0
  8
Layer_0
  10
257.17023
  20
945.30878
  0
VERTEX
  5
3c1
  8
Layer_0
  10
257.13559
  20
944.28729
  0
VERTEX
  5
3c2
  8
Layer_0
  10
257.12183
  20
943.26532
  0
VERTEX
  5
3c3
  8
Layer_0
  10
257.129
  20
942.24323
  0
VERTEX
  5
3c4
  8
Layer_0
  10
257.15701
  20
941.22156
  0
VERTEX
  5
3c5
  8
Layer_0
  10
257.20593
  20
940.20062
  0
VERTEX
  5
3c6
  8
Layer_0
  10
257.2757
  20
939.18097
  0
VERTEX
  5
3c7
  8
Layer_0
  10
257.3663
  20
938.1629
  0
VERTEX
  5
3c8
  8
Layer_0
  10
257.47769
  20
937.14691
  0
VERTEX
  5
3c9
  8
Layer_0
  10
257.6098
  20
936.13342
  0
VERTEX
  5
3ca
  8
Layer_0
  10
257.76263
  20
935.1228
  0
VERTEX
  5
3cb
  8
Layer_0
  10
257.9361
  20
934.11554
  0
VERTEX
  5
3cc
  8
Layer_0
  10
258.13007
  20
933.11206
  0
VERTEX
  5
3cd
  8
Layer_0
  10
258.34454
  20
932.11273
  0
VERTEX
  5
3ce
  8
Layer_0
  10
258.57941
  20
931.11798
  0
VERTEX
  5
3cf
  8
Layer_0
  10
258.83453
  20
930.1283
  0
VERTEX
  5
3d0
  8
Layer_0
  10
259.10986
  20
929.14398
  0
VERTEX
  5
3d1
  8
Layer_0
  10
259.40521
  20
928.16553
  0
VERTEX
  5
3d2
  8
Layer_0
  10
259.72055
  20
927.1933
  0
VERTEX
  5
3d3
  8
Layer_0
  10
260.05566
  20
926.22772
  0
VERTEX
  5
3d4
  8
Layer_0
  10
260.41046
  20
925.26917
  0
VERTEX
  5
3d5
  8
Layer_0
  10
260.78476
  20
924.31812
  0
VERTEX
  5
3d6
  8
Layer_0
  10
261.17841
  20
923.37488
  0
VERTEX
  5
3d7
  8
Layer_0
  10
261.59128
  20
922.43988
  0
VERTEX
  5
3d8
  8
Layer_0
  10
262.02319
  20
921.51355
  0
VERTEX
  5
3d9
  8
Layer_0
  10
262.47391
  20
920.59625
  0
VERTEX
  5
3da
  8
Layer_0
  10
262.9433
  20
919.68829
  0
VERTEX
  5
3db
  8
Layer_0
  10
263.43115
  20
918.79016
  0
VERTEX
  5
3dc
  8
Layer_0
  10
263.93726
  20
917.90222
  0
VERTEX
  5
3dd
  8
Layer_0
  10
264.46143
  20
917.02478
  0
VERTEX
  5
3de
  8
Layer_0
  10
265.00339
  20
916.1582
  0
VERTEX
  5
3df
  8
Layer_0
  10
265.56299
  20
915.30292
  0
VERTEX
  5
3e0
  8
Layer_0
  10
266.13992
  20
914.45929
  0
VERTEX
  5
3e1
  8
Layer_0
  10
266.73398
  20
913.62756
  0
VERTEX
  5
3e2
  8
Layer_0
  10
267.34494
  20
912.80817
  0
VERTEX
  5
3e3
  8
Layer_0
  10
267.9725
  20
912.00146
  0
VERTEX
  5
3e4
  8
Layer_0
  10
268.61642
  20
911.2077
  0
VERTEX
  5
3e5
  8
Layer_0
  10
269.27643
  20
910.42731
  0
VERTEX
  5
3e6
  8
Layer_0
  10
269.95227
  20
909.66058
  0
VERTEX
  5
3e7
  8
Layer_0
  10
270.64362
  20
908.90784
  0
VERTEX
  5
3e8
  8
Layer_0
  10
271.35022
  20
908.16931
  0
VERTEX
  5
3e9
  8
Layer_0
  10
272.07178
  20
907.44543
  0
VERTEX
  5
3ea
  8
Layer_0
  10
272.80798
  20
906.73645
  0
VERTEX
  5
3eb
  8
Layer_0
  10
273.5585
  20
906.04266
  0
VERTEX
  5
3ec
  8
Layer_0
  10
274.32306
  20
905.36438
  0
VERTEX
  5
3ed
  8
Layer_0
  10
275.10132
  20
904.70184
  0
VERTEX
  5
3ee
  8
Layer_0
  10
275.89297
  20
904.05536
  0
VERTEX
  5
3ef
  8
Layer_0
  10
276.69766
  20
903.42517
  0
VERTEX
  5
3f0
  8
Layer_0
  10
277.51508
  20
902.81158
  0
VERTEX
  5
3f1
  8
Layer_0
  10
278.34485
  20
902.21484
  0
VERTEX
  5
3f2
  8
Layer_0
  10
279.18665
  20
901.63513
  0
VERTEX
  5
3f3
  8
Layer_0
  10
280.04013
  20
901.07281
  0
VERTEX
  5
3f4
  8
Layer_0
  10
280.90491
  20
900.52802
  0
VERTEX
  5
3f5
  8
Layer_0
  10
281.78067
  20
900.00104
  0
VERTEX
  5
3f6
  8
Layer_0
  10
282.66699
  20
899.49207
  0
VERTEX
  5
3f7
  8
Layer_0
  10
283.56354
  20
899.00134
  0
VERTEX
  5
3f8
  8
Layer_0
  10
284.46994
  20
898.52899
  0
VERTEX
  5
3f9
  8
Layer_0
  10
285.3858
  20
898.07532
  0
VERTEX
  5
3fa
  8
Layer_0
  10
286.31076
  20
897.64044
  0
VERTEX
  5
3fb
  8
Layer_0
  10
287.24438
  20
897.22455
  0
VERTEX
  5
3fc
  8
Layer_0
  10
288.18634
  20
896.82782
  0
VERTEX
  5
3fd
  8
Layer_0
  10
289.1362
  20
896.45044
  0
VERTEX
  5
3fe
  8
Layer_0
  10
290.09357
  20
896.09259
  0
VERTEX
  5
3ff
  8
Layer_0
  10
291.05804
  20
895.75433
  0
VERTEX
  5
400
  8
Layer_0
  10
292.02927
  20
895.43585
  0
VERTEX
  5
401
  8
Layer_0
  10
293.00677
  20
895.13733
  0
VERTEX
  5
402
  8
Layer_0
  10
293.99017
  20
894.85883
  0
VERTEX
  5
403
  8
Layer_0
  10
294.97906
  20
894.60052
  0
VERTEX
  5
404
  8
Layer_0
  10
295.97302
  20
894.36243
  0
VERTEX
  5
405
  8
Layer_0
  10
296.97165
  20
894.14478
  0
VERTEX
  5
406
  8
Layer_0
  10
297.97452
  20
893.94751
  0
VERTEX
  5
407
  8
Layer_0
  10
298.9812
  20
893.77081
  0
VERTEX
  5
408
  8
Layer_0
  10
299.9913
  20
893.61475
  0
VERTEX
  5
409
  8
Layer_0
  10
301.00436
  20
893.47931
  0
VERTEX
  5
40a
  8
Layer_0
  10
302.01999
  20
893.36462
  0
VERTEX
  5
40b
  8
Layer_0
  10
303.03775
  20
893.27075
  0
VERTEX
  5
40c
  8
Layer_0
  10
304.05722
  20
893.19769
  0
VERTEX
  5
40d
  8
Layer_0
  10
305.07797
  20
893.14551
  0
VERTEX
  5
40e
  8
Layer_0
  10
306.09955
  20
893.11414
  0
VERTEX
  5
40f
  8
Layer_0
  10
307.12158
  20
893.1037
  0
VERTEX
  5
410
  8
Layer_0
  10
308.14362
  20
893.11414
  0
VERTEX
  5
411
  8
Layer_0
  10
309.16519
  20
893.14551
  0
VERTEX
  5
412
  8
Layer_0
  10
310.18594
  20
893.19769
  0
VERTEX
  5
413
  8
Layer_0
  10
311.20541
  20
893.27075
  0
VERTEX
  5
414
  8
Layer_0
  10
312.22318
  20
893.36462
  0
VERTEX
  5
415
  8
Layer_0
  10
313.2388
  20
893.47931
  0
VERTEX
  5
416
  8
Layer_0
  10
314.25186
  20
893.61475
  0
VERTEX
  5
417
  8
Layer_0
  10
315.26196
  20
893.77081
  0
VERTEX
  5
418
  8
Layer_0
  10
316.26865
  20
893.94751
  0
VERTEX
  5
419
  8
Layer_0
  10
317.27151
  20
894.14478
  0
VERTEX
  5
41a
  8
Layer_0
  10
318.27014
  20
894.36243
  0
VERTEX
  5
41b
  8
Layer_0
  10
319.2641
  20
894.60052
  0
VERTEX
  5
41c
  8
Layer_0
  10
320.25299
  20
894.85883
  0
VERTEX
  5
41d
  8
Layer_0
  10
321.23639
  20
895.13733
  0
VERTEX
  5
41e
  8
Layer_0
  10
322.2139
  20
895.43585
  0
VERTEX
  5
41f
  8
Layer_0
  10
323.18512
  20
895.75433
  0
VERTEX
  5
420
  8
Layer_0
  10
324.1496
  20
896.09259
  0
VERTEX
  5
421
  8
Layer_0
  10
325.10696
  20
896.45044
  0
VERTEX
  5
422
  8
Layer_0
  10
326.05682
  20
896.82782
  0
VERTEX
  5
423
  8
Layer_0
  10
326.99878
  20
897.22455
  0
VERTEX
  5
424
  8
Layer_0
  10
327.9324
  20
897.64044
  0
VERTEX
  5
425
  8
Layer_0
  10
328.85736
  20
898.07532
  0
VERTEX
  5
426
  8
Layer_0
  10
329.77322
  20
898.52899
  0
VERTEX
  5
427
  8
Layer_0
  10
330.67963
  20
899.00134
  0
VERTEX
  5
428
  8
Layer_0
  10
331.57617
  20
899.49207
  0
VERTEX
  5
429
  8
Layer_0
  10
332.46249
  20
900.00104
  0
VERTEX
  5
42a
  8
Layer_0
  10
333.33826
  20
900.52802
  0
VERTEX
  5
42b
  8
Layer_0
  10
334.20303
  20
901.07281
  0
VERTEX
  5
42c
  8
Layer_0
  10
335.05652
  20
901.63513
  0
VERTEX
  5
42d
  8
Layer_0
  10
335.89832
  20
902.21484
  0
VERTEX
  5
42e
  8
Layer_0
  10
336.72809
  20
902.81158
  0
VERTEX
  5
42f
  8
Layer_0
  10
337.5455
  20
903.42517
  0
VERTEX
  5
430
  8
Layer_0
  10
338.35019
  20
904.05536
  0
VERTEX
  5
431
  8
Layer_0
  10
339.14185
  20
904.70184
  0
VERTEX
  5
432
  8
Layer_0
  10
339.9201
  20
905.36438
  0
VERTEX
  5
433
  8
Layer_0
  10
340.68466
  20
906.04266
  0
VERTEX
  5
434
  8
Layer_0
  10
341.43518
  20
906.73645
  0
VERTEX
  5
435
  8
Layer_0
  10
342.17139
  20
907.44543
  0
VERTEX
  5
436
  8
Layer_0
  10
342.89294
  20
908.16931
  0
VERTEX
  5
437
  8
Layer_0
  10
343.59955
  20
908.90784
  0
VERTEX
  5
438
  8
Layer_0
  10
344.29089
  20
909.66058
  0
VERTEX
  5
439
  8
Layer_0
  10
344.96674
  20
910.42731
  0
VERTEX
  5
43a
  8
Layer_0
  10
345.62674
  20
911.2077
  0
VERTEX
  5
43b
  8
Layer_0
  10
346.27066
  20
912.00146
  0
VERTEX
  5
43c
  8
Layer_0
  10
346.89822
  20
912.80817
  0
VERTEX
  5
43d
  8
Layer_0
  10
347.50919
  20
913.62756
  0
VERTEX
  5
43e
  8
Layer_0
  10
348.10324
  20
914.45929
  0
VERTEX
  5
43f
  8
Layer_0
  10
348.68018
  20
915.30292
  0
VERTEX
  5
440
  8
Layer_0
  10
349.23978
  20
916.1582
  0
VERTEX
  5
441
  8
Layer_0
  10
349.78174
  20
917.02478
  0
VERTEX
  5
442
  8
Layer_0
  10
350.30591
  20
917.90222
  0
VERTEX
  5
443
  8
Layer_0
  10
350.81201
  20
918.79016
  0
VERTEX
  5
444
  8
Layer_0
  10
351.29987
  20
919.68829
  0
VERTEX
  5
445
  8
Layer_0
  10
351.76926
  20
920.59625
  0
VERTEX
  5
446
  8
Layer_0
  10
352.21997
  20
921.51355
  0
VERTEX
  5
447
  8
Layer_0
  10
352.65189
  20
922.43988
  0
VERTEX
  5
448
  8
Layer_0
  10
353.06476
  20
923.37488
  0
VERTEX
  5
449
  8
Layer_0
  10
353.4584
  20
924.31812
  0
VERTEX
  5
44a
  8
Layer_0
  10
353.8327
  20
925.26917
  0
VERTEX
  5
44b
  8
Layer_0
  10
354.1875
  20
926.22772
  0
VERTEX
  5
44c
  8
Layer_0
  10
354.52261
  20
927.1933
  0
VERTEX
  5
44d
  8
Layer_0
  10
354.83795
  20
928.16553
  0
VERTEX
  5
44e
  8
Layer_0
  10
355.1333
  20
929.14398
  0
VERTEX
  5
44f
  8
Layer_0
  10
355.40863
  20
930.1283
  0
VERTEX
  5
450
  8
Layer_0
  10
355.66376
  20
931.11798
  0
VERTEX
  5
451
  8
Layer_0
  10
355.89862
  20
932.11273
  0
VERTEX
  5
452
  8
Layer_0
  10
356.1131
  20
933.11206
  0
VERTEX
  5
453
  8
Layer_0
  10
356.30707
  20
934.11554
  0
VERTEX
  5
454
  8
Layer_0
  10
356.48053
  20
935.1228
  0
VERTEX
  5
455
  8
Layer_0
  10
356.63336
  20
936.13342
  0
VERTEX
  5
456
  8
Layer_0
  10
356.76547
  20
937.14691
  0
VERTEX
  5
457
  8
Layer_0
  10
356.87686
  20
938.1629
  0
VERTEX
  5
458
  8
Layer_0
  10
356.96747
  20
939.18097
  0
VERTEX
  5
459
  8
Layer_0
  10
357.03723
  20
940.20062
  0
VERTEX
  5
45a
  8
Layer_0
  10
357.08615
  20
941.22156
  0
VERTEX
  5
45b
  8
Layer_0
  10
357.11417
  20
942.24323
  0
VERTEX
  5
45c
  8
Layer_0
  10
357.12134
  20
943.26532
  0
VERTEX
  5
45d
  8
Layer_0
  10
357.10757
  20
944.28729
  0
VERTEX
  5
45e
  8
Layer_0
  10
357.07294
  20
945.30878
  0
VERTEX
  5
45f
  8
Layer_0
  10
357.01743
  20
946.32935
  0
VERTEX
  5
460
  8
Layer_0
  10
356.94107
  20
947.34857
  0
VERTEX
  5
461
  8
Layer_0
  10
356.8439
  20
948.36603
  0
VERTEX
  5
462
  8
Layer_0
  10
356.72595
  20
949.38129
  0
VERTEX
  5
463
  8
Layer_0
  10
356.58725
  20
950.39386
  0
VERTEX
  5
464
  8
Layer_0
  10
356.42792
  20
951.40344
  0
VERTEX
  5
465
  8
Layer_0
  10
356.24796
  20
952.40955
  0
VERTEX
  5
466
  8
Layer_0
  10
356.04749
  20
953.4118
  0
VERTEX
  5
467
  8
Layer_0
  10
355.82654
  20
954.40973
  0
VERTEX
  5
468
  8
Layer_0
  10
355.58527
  20
955.40289
  0
VERTEX
  5
469
  8
Layer_0
  10
355.32373
  20
956.39099
  0
VERTEX
  5
46a
  8
Layer_0
  10
355.04208
  20
957.37347
  0
VERTEX
  5
46b
  8
Layer_0
  10
354.74039
  20
958.34998
  0
VERTEX
  5
46c
  8
Layer_0
  10
354.41879
  20
959.32019
  0
VERTEX
  5
46d
  8
Layer_0
  10
354.07745
  20
960.28357
  0
VERTEX
  5
46e
  8
Layer_0
  10
353.71646
  20
961.23975
  0
VERTEX
  5
46f
  8
Layer_0
  10
353.33603
  20
962.18842
  0
VERTEX
  5
470
  8
Layer_0
  10
352.93625
  20
963.12909
  0
VERTEX
  5
471
  8
Layer_0
  10
352.51736
  20
964.06134
  0
VERTEX
  5
472
  8
Layer_0
  10
352.0795
  20
964.98486
  0
VERTEX
  5
473
  8
Layer_0
  10
351.62283
  20
965.89929
  0
VERTEX
  5
474
  8
Layer_0
  10
351.14758
  20
966.80414
  0
VERTEX
  5
475
  8
Layer_0
  10
350.65393
  20
967.6991
  0
VERTEX
  5
476
  8
Layer_0
  10
350.14209
  20
968.5838
  0
VERTEX
  5
477
  8
Layer_0
  10
349.61227
  20
969.45782
  0
VERTEX
  5
478
  8
Layer_0
  10
349.06473
  20
970.32086
  0
VERTEX
  5
479
  8
Layer_0
  10
348.49963
  20
971.17249
  0
VERTEX
  5
47a
  8
Layer_0
  10
347.91724
  20
972.01245
  0
VERTEX
  5
47b
  8
Layer_0
  10
347.31781
  20
972.84027
  0
VERTEX
  5
47c
  8
Layer_0
  10
346.70157
  20
973.6557
  0
VERTEX
  5
47d
  8
Layer_0
  10
346.06882
  20
974.45831
  0
VERTEX
  5
47e
  8
Layer_0
  10
345.41977
  20
975.24786
  0
VERTEX
  5
47f
  8
Layer_0
  10
344.75473
  20
976.02399
  0
VERTEX
  5
480
  8
Layer_0
  10
344.07394
  20
976.78638
  0
VERTEX
  5
481
  8
Layer_0
  10
343.37775
  20
977.53467
  0
VERTEX
  5
482
  8
Layer_0
  10
342.66638
  20
978.26855
  0
VERTEX
  5
483
  8
Layer_0
  10
341.94016
  20
978.98779
  0
VERTEX
  5
484
  8
Layer_0
  10
341.1994
  20
979.69196
  0
VERTEX
  5
485
  8
Layer_0
  10
340.4444
  20
980.38092
  0
VERTEX
  5
486
  8
Layer_0
  10
339.67548
  20
981.05426
  0
VERTEX
  5
487
  8
Layer_0
  10
338.89294
  20
981.71173
  0
VERTEX
  5
488
  8
Layer_0
  10
339.43692
  20
981.90649
  0
VERTEX
  5
489
  8
Layer_0
  10
339.97092
  20
982.1272
  0
VERTEX
  5
48a
  8
Layer_0
  10
340.49365
  20
982.37335
  0
VERTEX
  5
48b
  8
Layer_0
  10
341.00394
  20
982.64435
  0
VERTEX
  5
48c
  8
Layer_0
  10
341.50058
  20
982.93964
  0
VERTEX
  5
48d
  8
Layer_0
  10
341.98245
  20
983.25848
  0
VERTEX
  5
48e
  8
Layer_0
  10
342.44839
  20
983.60016
  0
VERTEX
  5
48f
  8
Layer_0
  10
342.89737
  20
983.96387
  0
VERTEX
  5
490
  8
Layer_0
  10
343.32831
  20
984.34875
  0
VERTEX
  5
491
  8
Layer_0
  10
343.74023
  20
984.75391
  0
VERTEX
  5
492
  8
Layer_0
  10
344.13214
  20
985.17847
  0
VERTEX
  5
493
  8
Layer_0
  10
344.5032
  20
985.6214
  0
VERTEX
  5
494
  8
Layer_0
  10
344.85248
  20
986.08167
  0
VERTEX
  5
495
  8
Layer_0
  10
345.17923
  20
986.55817
  0
VERTEX
  5
496
  8
Layer_0
  10
345.48264
  20
987.04993
  0
VERTEX
  5
497
  8
Layer_0
  10
345.76202
  20
987.55566
  0
VERTEX
  5
498
  8
Layer_0
  10
346.01675
  20
988.07428
  0
VERTEX
  5
499
  8
Layer_0
  10
346.24622
  20
988.60455
  0
VERTEX
  5
49a
  8
Layer_0
  10
346.44989
  20
989.14526
  0
VERTEX
  5
49b
  8
Layer_0
  10
346.62732
  20
989.69513
  0
VERTEX
  5
49c
  8
Layer_0
  10
346.77805
  20
990.25293
  0
VERTEX
  5
49d
  8
Layer_0
  10
346.90176
  20
990.81732
  0
VERTEX
  5
49e
  8
Layer_0
  10
346.99817
  20
991.38702
  0
VERTEX
  5
49f
  8
Layer_0
  10
347.06702
  20
991.96069
  0
VERTEX
  5
4a0
  8
Layer_0
  10
347.10818
  20
992.53705
  0
VERTEX
  5
4a1
  8
Layer_0
  10
347.12158
  20
993.11469
  0
VERTEX
  5
4a2
  8
Layer_0
  10
347.10715
  20
993.69226
  0
VERTEX
  5
4a3
  8
Layer_0
  10
347.06491
  20
994.26855
  0
VERTEX
  5
4a4
  8
Layer_0
  10
346.995
  20
994.8421
  0
VERTEX
  5
4a5
  8
Layer_0
  10
346.89755
  20
995.41162
  0
VERTEX
  5
4a6
  8
Layer_0
  10
346.77283
  20
995.97577
  0
VERTEX
  5
4a7
  8
Layer_0
  10
346.62106
  20
996.53326
  0
VERTEX
  5
4a8
  8
Layer_0
  10
346.44263
  20
997.08282
  0
VERTEX
  5
4a9
  8
Layer_0
  10
346.23798
  20
997.62317
  0
VERTEX
  5
4aa
  8
Layer_0
  10
346.00754
  20
998.15302
  0
VERTEX
  5
4ab
  8
Layer_0
  10
345.75189
  20
998.6712
  0
VERTEX
  5
4ac
  8
Layer_0
  10
345.47156
  20
999.17639
  0
VERTEX
  5
4ad
  8
Layer_0
  10
345.16724
  20
999.6676
  0
VERTEX
  5
4ae
  8
Layer_0
  10
344.83966
  20
1000.1436
  0
VERTEX
  5
4af
  8
Layer_0
  10
344.4895
  20
1000.6031
  0
VERTEX
  5
4b0
  8
Layer_0
  10
344.11768
  20
1001.0454
  0
VERTEX
  5
4b1
  8
Layer_0
  10
343.72495
  20
1001.4692
  0
VERTEX
  5
4b2
  8
Layer_0
  10
343.31232
  20
1001.8737
  0
VERTEX
  5
4b3
  8
Layer_0
  10
342.88065
  20
1002.2578
  0
VERTEX
  5
4b4
  8
Layer_0
  10
342.43103
  20
1002.6206
  0
VERTEX
  5
4b5
  8
Layer_0
  10
341.96445
  20
1002.9614
  0
VERTEX
  5
4b6
  8
Layer_0
  10
341.48199
  20
1003.2794
  0
VERTEX
  5
4b7
  8
Layer_0
  10
340.98483
  20
1003.5738
  0
VERTEX
  5
4b8
  8
Layer_0
  10
340.47403
  20
1003.8439
  0
VERTEX
  5
4b9
  8
Layer_0
  10
339.95087
  20
1004.0891
  0
VERTEX
  5
4ba
  8
Layer_0
  10
339.41647
  20
1004.3088
  0
VERTEX
  5
4bb
  8
Layer_0
  10
338.87213
  20
1004.5026
  0
VERTEX
  5
4bc
  8
Layer_0
  10
338.31909
  20
1004.6699
  0
VERTEX
  5
4bd
  8
Layer_0
  10
337.75864
  20
1004.8104
  0
VERTEX
  5
4be
  8
Layer_0
  10
337.19208
  20
1004.9237
  0
VERTEX
  5
4bf
  8
Layer_0
  10
336.6207
  20
1005.0097
  0
VERTEX
  5
4c0
  8
Layer_0
  10
336.04587
  20
1005.0681
  0
VERTEX
  5
4c1
  8
Layer_0
  10
335.46887
  20
1005.0987
  0
VERTEX
  5
4c2
  8
Layer_0
  10
334.89108
  20
1005.1015
  0
VERTEX
  5
4c3
  8
Layer_0
  10
334.31384
  20
1005.0765
  0
VERTEX
  5
4c4
  8
Layer_0
  10
333.73846
  20
1005.0237
  0
VERTEX
  5
4c5
  8
Layer_0
  10
333.16629
  20
1004.9433
  0
VERTEX
  5
4c6
  8
Layer_0
  10
332.59863
  20
1004.8355
  0
VERTEX
  5
4c7
  8
Layer_0
  10
332.03683
  20
1004.7004
  0
VERTEX
  5
4c8
  8
Layer_0
  10
331.48221
  20
1004.5385
  0
VERTEX
  5
4c9
  8
Layer_0
  10
330.936
  20
1004.3501
  0
VERTEX
  5
4ca
  8
Layer_0
  10
330.39951
  20
1004.1356
  0
VERTEX
  5
4cb
  8
Layer_0
  10
329.87393
  20
1003.8954
  0
VERTEX
  5
4cc
  8
Layer_0
  10
329.36057
  20
1003.6304
  0
VERTEX
  5
4cd
  8
Layer_0
  10
328.86053
  20
1003.3408
  0
VERTEX
  5
4ce
  8
Layer_0
  10
328.375
  20
1003.0276
  0
VERTEX
  5
4cf
  8
Layer_0
  10
327.90515
  20
1002.6913
  0
VERTEX
  5
4d0
  8
Layer_0
  10
327.452
  20
1002.3329
  0
VERTEX
  5
4d1
  8
Layer_0
  10
327.01663
  20
1001.953
  0
VERTEX
  5
4d2
  8
Layer_0
  10
326.60007
  20
1001.5526
  0
VERTEX
  5
4d3
  8
Layer_0
  10
326.20325
  20
1001.1326
  0
VERTEX
  5
4d4
  8
Layer_0
  10
325.82712
  20
1000.694
  0
VERTEX
  5
4d5
  8
Layer_0
  10
325.47253
  20
1000.2378
  0
VERTEX
  5
4d6
  8
Layer_0
  10
325.14029
  20
999.76508
  0
VERTEX
  5
4d7
  8
Layer_0
  10
324.83121
  20
999.27692
  0
VERTEX
  5
4d8
  8
Layer_0
  10
324.54599
  20
998.77441
  0
VERTEX
  5
4d9
  8
Layer_0
  10
324.28528
  20
998.25879
  0
VERTEX
  5
4da
  8
Layer_0
  10
324.04971
  20
997.7312
  0
VERTEX
  5
4db
  8
Layer_0
  10
323.83981
  20
997.19287
  0
VERTEX
  5
4dc
  8
Layer_0
  10
323.65604
  20
996.64508
  0
VERTEX
  5
4dd
  8
Layer_0
  10
323.49887
  20
996.08905
  0
VERTEX
  5
4de
  8
Layer_0
  10
323.36862
  20
995.52612
  0
VERTEX
  5
4df
  8
Layer_0
  10
323.26566
  20
994.95758
  0
VERTEX
  5
4e0
  8
Layer_0
  10
323.19016
  20
994.38477
  0
VERTEX
  5
4e1
  8
Layer_0
  10
323.14233
  20
993.80896
  0
VERTEX
  5
4e2
  8
Layer_0
  10
323.12225
  20
993.23151
  0
VERTEX
  5
4e3
  8
Layer_0
  10
323.13
  20
992.65375
  0
VERTEX
  5
4e4
  8
Layer_0
  10
323.16559
  20
992.07703
  0
VERTEX
  5
4e5
  8
Layer_0
  10
323.22885
  20
991.50275
  0
VERTEX
  5
4e6
  8
Layer_0
  10
323.3197
  20
990.93213
  0
VERTEX
  5
4e7
  8
Layer_0
  10
323.43793
  20
990.36658
  0
VERTEX
  5
4e8
  8
Layer_0
  10
323.04459
  20
990.50049
  0
VERTEX
  5
4e9
  8
Layer_0
  10
322.65015
  20
990.63123
  0
VERTEX
  5
4ea
  8
Layer_0
  10
322.25464
  20
990.75861
  0
VERTEX
  5
4eb
  8
Layer_0
  10
321.85809
  20
990.88269
  0
VERTEX
  5
4ec
  8
Layer_0
  10
321.46054
  20
991.00354
  0
VERTEX
  5
4ed
  8
Layer_0
  10
321.06198
  20
991.12103
  0
VERTEX
  5
4ee
  8
Layer_0
  10
320.66248
  20
991.23523
  0
VERTEX
  5
4ef
  8
Layer_0
  10
320.26202
  20
991.34607
  0
VERTEX
  5
4f0
  8
Layer_0
  10
319.86066
  20
991.45361
  0
VERTEX
  5
4f1
  8
Layer_0
  10
319.4584
  20
991.5578
  0
VERTEX
  5
4f2
  8
Layer_0
  10
319.05533
  20
991.65869
  0
VERTEX
  5
4f3
  8
Layer_0
  10
318.6514
  20
991.75616
  0
VERTEX
  5
4f4
  8
Layer_0
  10
318.24667
  20
991.85034
  0
VERTEX
  5
4f5
  8
Layer_0
  10
317.84119
  20
991.9411
  0
VERTEX
  5
4f6
  8
Layer_0
  10
317.43497
  20
992.0285
  0
VERTEX
  5
4f7
  8
Layer_0
  10
317.02805
  20
992.11249
  0
VERTEX
  5
4f8
  8
Layer_0
  10
316.62042
  20
992.19312
  0
VERTEX
  5
4f9
  8
Layer_0
  10
316.21216
  20
992.27039
  0
VERTEX
  5
4fa
  8
Layer_0
  10
315.80325
  20
992.34424
  0
VERTEX
  5
4fb
  8
Layer_0
  10
315.39374
  20
992.41467
  0
VERTEX
  5
4fc
  8
Layer_0
  10
314.98367
  20
992.48169
  0
VERTEX
  5
4fd
  8
Layer_0
  10
314.57306
  20
992.54535
  0
VERTEX
  5
4fe
  8
Layer_0
  10
314.16193
  20
992.60553
  0
VERTEX
  5
4ff
  8
Layer_0
  10
313.75031
  20
992.66235
  0
VERTEX
  5
500
  8
Layer_0
  10
313.33823
  20
992.7157
  0
VERTEX
  5
501
  8
Layer_0
  10
312.92572
  20
992.76569
  0
VERTEX
  5
502
  8
Layer_0
  10
312.51282
  20
992.81219
  0
VERTEX
  5
503
  8
Layer_0
  10
312.09955
  20
992.85529
  0
VERTEX
  5
504
  8
Layer_0
  10
311.68591
  20
992.89496
  0
VERTEX
  5
505
  8
Layer_0
  10
311.27197
  20
992.93115
  0
VERTEX
  5
506
  8
Layer_0
  10
310.85776
  20
992.96393
  0
VERTEX
  5
507
  8
Layer_0
  10
310.4433
  20
992.99323
  0
VERTEX
  5
508
  8
Layer_0
  10
310.02856
  20
993.0191
  0
VERTEX
  5
509
  8
Layer_0
  10
309.61365
  20
993.04156
  0
VERTEX
  5
50a
  8
Layer_0
  10
309.19858
  20
993.06055
  0
VERTEX
  5
50b
  8
Layer_0
  10
308.78336
  20
993.07605
  0
VERTEX
  5
50c
  8
Layer_0
  10
308.36801
  20
993.08813
  0
VERTEX
  5
50d
  8
Layer_0
  10
307.95258
  20
993.0968
  0
VERTEX
  5
50e
  8
Layer_0
  10
307.53711
  20
993.10199
  0
VERTEX
  5
50f
  8
Layer_0
  10
307.12158
  20
993.1037
  0
VERTEX
  5
510
  8
Layer_0
  10
306.70605
  20
993.10199
  0
VERTEX
  5
511
  8
Layer_0
  10
306.29059
  20
993.0968
  0
VERTEX
  5
512
  8
Layer_0
  10
305.87515
  20
993.08813
  0
VERTEX
  5
513
  8
Layer_0
  10
305.45981
  20
993.07605
  0
VERTEX
  5
514
  8
Layer_0
  10
305.04459
  20
993.06055
  0
VERTEX
  5
515
  8
Layer_0
  10
304.62952
  20
993.04156
  0
VERTEX
  5
516
  8
Layer_0
  10
304.2146
  20
993.0191
  0
VERTEX
  5
517
  8
Layer_0
  10
303.79987
  20
992.99323
  0
VERTEX
  5
518
  8
Layer_0
  10
303.38541
  20
992.96393
  0
VERTEX
  5
519
  8
Layer_0
  10
302.97119
  20
992.93115
  0
VERTEX
  5
51a
  8
Layer_0
  10
302.55725
  20
992.89496
  0
VERTEX
  5
51b
  8
Layer_0
  10
302.14362
  20
992.85529
  0
VERTEX
  5
51c
  8
Layer_0
  10
301.73035
  20
992.81219
  0
VERTEX
  5
51d
  8
Layer_0
  10
301.31744
  20
992.76569
  0
VERTEX
  5
51e
  8
Layer_0
  10
300.90494
  20
992.7157
  0
VERTEX
  5
51f
  8
Layer_0
  10
300.49286
  20
992.66235
  0
VERTEX
  5
520
  8
Layer_0
  10
300.08124
  20
992.60553
  0
VERTEX
  5
521
  8
Layer_0
  10
299.6701
  20
992.54535
  0
VERTEX
  5
522
  8
Layer_0
  10
299.25949
  20
992.48169
  0
VERTEX
  5
523
  8
Layer_0
  10
298.84943
  20
992.41467
  0
VERTEX
  5
524
  8
Layer_0
  10
298.43991
  20
992.34424
  0
VERTEX
  5
525
  8
Layer_0
  10
298.03101
  20
992.27039
  0
VERTEX
  5
526
  8
Layer_0
  10
297.62274
  20
992.19312
  0
VERTEX
  5
527
  8
Layer_0
  10
297.21512
  20
992.11249
  0
VERTEX
  5
528
  8
Layer_0
  10
296.8082
  20
992.0285
  0
VERTEX
  5
529
  8
Layer_0
  10
296.40198
  20
991.9411
  0
VERTEX
  5
52a
  8
Layer_0
  10
295.99649
  20
991.85034
  0
VERTEX
  5
52b
  8
Layer_0
  10
295.59177
  20
991.75616
  0
VERTEX
  5
52c
  8
Layer_0
  10
295.18784
  20
991.65869
  0
VERTEX
  5
52d
  8
Layer_0
  10
294.78476
  20
991.5578
  0
VERTEX
  5
52e
  8
Layer_0
  10
294.38251
  20
991.45361
  0
VERTEX
  5
52f
  8
Layer_0
  10
293.98114
  20
991.34607
  0
VERTEX
  5
530
  8
Layer_0
  10
293.58069
  20
991.23523
  0
VERTEX
  5
531
  8
Layer_0
  10
293.18118
  20
991.12103
  0
VERTEX
  5
532
  8
Layer_0
  10
292.78262
  20
991.00354
  0
VERTEX
  5
533
  8
Layer_0
  10
292.38507
  20
990.88269
  0
VERTEX
  5
534
  8
Layer_0
  10
291.98853
  20
990.75861
  0
VERTEX
  5
535
  8
Layer_0
  10
291.59302
  20
990.63123
  0
VERTEX
  5
536
  8
Layer_0
  10
291.19858
  20
990.50049
  0
VERTEX
  5
537
  8
Layer_0
  10
290.80524
  20
990.36658
  0
VERTEX
  5
538
  8
Layer_0
  10
290.92346
  20
990.93213
  0
VERTEX
  5
539
  8
Layer_0
  10
291.01431
  20
991.50275
  0
VERTEX
  5
53a
  8
Layer_0
  10
291.07758
  20
992.07703
  0
VERTEX
  5
53b
  8
Layer_0
  10
291.11316
  20
992.65375
  0
VERTEX
  5
53c
  8
Layer_0
  10
291.12091
  20
993.23151
  0
VERTEX
  5
53d
  8
Layer_0
  10
291.10083
  20
993.80896
  0
VERTEX
  5
53e
  8
Layer_0
  10
291.05301
  20
994.38477
  0
VERTEX
  5
53f
  8
Layer_0
  10
290.97751
  20
994.95758
  0
VERTEX
  5
540
  8
Layer_0
  10
290.87454
  20
995.52612
  0
VERTEX
  5
541
  8
Layer_0
  10
290.74429
  20
996.08905
  0
VERTEX
  5
542
  8
Layer_0
  10
290.58713
  20
996.64508
  0
VERTEX
  5
543
  8
Layer_0
  10
290.40335
  20
997.19287
  0
VERTEX
  5
544
  8
Layer_0
  10
290.19345
  20
997.7312
  0
VERTEX
  5
545
  8
Layer_0
  10
289.95789
  20
998.25879
  0
VERTEX
  5
546
  8
Layer_0
  10
289.69717
  20
998.77441
  0
VERTEX
  5
547
  8
Layer_0
  10
289.41196
  20
999.27692
  0
VERTEX
  5
548
  8
Layer_0
  10
289.10287
  20
999.76508
  0
VERTEX
  5
549
  8
Layer_0
  10
288.77063
  20
1000.2378
  0
VERTEX
  5
54a
  8
Layer_0
  10
288.41605
  20
1000.694
  0
VERTEX
  5
54b
  8
Layer_0
  10
288.03992
  20
1001.1326
  0
VERTEX
  5
54c
  8
Layer_0
  10
287.6431
  20
1001.5526
  0
VERTEX
  5
54d
  8
Layer_0
  10
287.22653
  20
1001.953
  0
VERTEX
  5
54e
  8
Layer_0
  10
286.79117
  20
1002.3329
  0
VERTEX
  5
54f
  8
Layer_0
  10
286.33801
  20
1002.6913
  0
VERTEX
  5
550
  8
Layer_0
  10
285.86816
  20
1003.0276
  0
VERTEX
  5
551
  8
Layer_0
  10
285.38263
  20
1003.3408
  0
VERTEX
  5
552
  8
Layer_0
  10
284.8826
  20
1003.6304
  0
VERTEX
  5
553
  8
Layer_0
  10
284.36923
  20
1003.8954
  0
VERTEX
  5
554
  8
Layer_0
  10
283.84366
  20
1004.1356
  0
VERTEX
  5
555
  8
Layer_0
  10
283.30716
  20
1004.3501
  0
VERTEX
  5
556
  8
Layer_0
  10
282.76096
  20
1004.5385
  0
VERTEX
  5
557
  8
Layer_0
  10
282.20633
  20
1004.7004
  0
VERTEX
  5
558
  8
Layer_0
  10
281.64453
  20
1004.8355
  0
VERTEX
  5
559
  8
Layer_0
  10
281.07687
  20
1004.9433
  0
VERTEX
  5
55a
  8
Layer_0
  10
280.5047
  20
1005.0237
  0
VERTEX
  5
55b
  8
Layer_0
  10
279.92932
  20
1005.0765
  0
VERTEX
  5
55c
  8
Layer_0
  10
279.35208
  20
1005.1015
  0
VERTEX
  5
55d
  8
Layer_0
  10
278.77429
  20
1005.0987
  0
VERTEX
  5
55e
  8
Layer_0
  10
278.1973
  20
1005.0681
  0
VERTEX
  5
55f
  8
Layer_0
  10
277.62247
  20
1005.0097
  0
VERTEX
  5
560
  8
Layer_0
  10
277.05109
  20
1004.9237
  0
VERTEX
  5
561
  8
Layer_0
  10
276.48453
  20
1004.8104
  0
VERTEX
  5
562
  8
Layer_0
  10
275.92407
  20
1004.6699
  0
VERTEX
  5
563
  8
Layer_0
  10
275.37103
  20
1004.5026
  0
VERTEX
  5
564
  8
Layer_0
  10
274.82669
  20
1004.3088
  0
VERTEX
  5
565
  8
Layer_0
  10
274.2923
  20
1004.0891
  0
VERTEX
  5
566
  8
Layer_0
  10
273.76913
  20
1003.8439
  0
VERTEX
  5
567
  8
Layer_0
  10
273.25833
  20
1003.5738
  0
VERTEX
  5
568
  8
Layer_0
  10
272.76117
  20
1003.2794
  0
VERTEX
  5
569
  8
Layer_0
  10
272.27872
  20
1002.9614
  0
VERTEX
  5
56a
  8
Layer_0
  10
271.81213
  20
1002.6206
  0
VERTEX
  5
56b
  8
Layer_0
  10
271.36252
  20
1002.2578
  0
VERTEX
  5
56c
  8
Layer_0
  10
270.93085
  20
1001.8737
  0
VERTEX
  5
56d
  8
Layer_0
  10
270.51822
  20
1001.4692
  0
VERTEX
  5
56e
  8
Layer_0
  10
270.12549
  20
1001.0454
  0
VERTEX
  5
56f
  8
Layer_0
  10
269.75366
  20
1000.6031
  0
VERTEX
  5
570
  8
Layer_0
  10
269.4035
  20
1000.1436
  0
VERTEX
  5
571
  8
Layer_0
  10
269.07593
  20
999.6676
  0
VERTEX
  5
572
  8
Layer_0
  10
268.77161
  20
999.17639
  0
VERTEX
  5
573
  8
Layer_0
  10
268.49127
  20
998.6712
  0
VERTEX
  5
574
  8
Layer_0
  10
268.23563
  20
998.15302
  0
VERTEX
  5
575
  8
Layer_0
  10
268.00519
  20
997.62317
  0
VERTEX
  5
576
  8
Layer_0
  10
267.80054
  20
997.08282
  0
VERTEX
  5
577
  8
Layer_0
  10
267.6221
  20
996.53326
  0
VERTEX
  5
578
  8
Layer_0
  10
267.47034
  20
995.97577
  0
VERTEX
  5
579
  8
Layer_0
  10
267.34561
  20
995.41162
  0
VERTEX
  5
57a
  8
Layer_0
  10
267.24817
  20
994.8421
  0
VERTEX
  5
57b
  8
Layer_0
  10
267.17825
  20
994.26855
  0
VERTEX
  5
57c
  8
Layer_0
  10
267.13602
  20
993.69226
  0
VERTEX
  5
57d
  8
Layer_0
  10
267.12158
  20
993.11469
  0
VERTEX
  5
57e
  8
Layer_0
  10
267.13498
  20
992.53705
  0
VERTEX
  5
57f
  8
Layer_0
  10
267.17615
  20
991.96069
  0
VERTEX
  5
580
  8
Layer_0
  10
267.245
  20
991.38702
  0
VERTEX
  5
581
  8
Layer_0
  10
267.3414
  20
990.81732
  0
VERTEX
  5
582
  8
Layer_0
  10
267.46512
  20
990.25293
  0
VERTEX
  5
583
  8
Layer_0
  10
267.61584
  20
989.69513
  0
VERTEX
  5
584
  8
Layer_0
  10
267.79327
  20
989.14526
  0
VERTEX
  5
585
  8
Layer_0
  10
267.99695
  20
988.60455
  0
VERTEX
  5
586
  8
Layer_0
  10
268.22641
  20
988.07428
  0
VERTEX
  5
587
  8
Layer_0
  10
268.48114
  20
987.55566
  0
VERTEX
  5
588
  8
Layer_0
  10
268.76053
  20
987.04993
  0
VERTEX
  5
589
  8
Layer_0
  10
269.06393
  20
986.55817
  0
VERTEX
  5
58a
  8
Layer_0
  10
269.39069
  20
986.08167
  0
VERTEX
  5
58b
  8
Layer_0
  10
269.73996
  20
985.6214
  0
VERTEX
  5
58c
  8
Layer_0
  10
270.11102
  20
985.17847
  0
VERTEX
  5
58d
  8
Layer_0
  10
270.50293
  20
984.75391
  0
VERTEX
  5
58e
  8
Layer_0
  10
270.91486
  20
984.34875
  0
VERTEX
  5
58f
  8
Layer_0
  10
271.34579
  20
983.96387
  0
VERTEX
  5
590
  8
Layer_0
  10
271.79477
  20
983.60016
  0
VERTEX
  5
591
  8
Layer_0
  10
272.26071
  20
983.25848
  0
VERTEX
  5
592
  8
Layer_0
  10
272.74258
  20
982.93964
  0
VERTEX
  5
593
  8
Layer_0
  10
273.23923
  20
982.64435
  0
VERTEX
  5
594
  8
Layer_0
  10
273.74951
  20
982.37335
  0
VERTEX
  5
595
  8
Layer_0
  10
274.27225
  20
982.1272
  0
VERTEX
  5
596
  8
Layer_0
  10
274.80624
  20
981.90649
  0
SEQEND
  0
ENDSEC
  0
EOF
