  0
SECTION
  2
HEADER
  9
$ACADVER
  1
AC1009
  0
ENDSEC
  0
SECTION
  2
TABLES
  0
TABLE
  2
LAYER
  70
1
  0
LAYER
  2
Layer_0
  70
0
  62
7
  6
CONTINUOUS
  0
ENDTAB
  0
ENDSEC
  0
SECTION
  2
ENTITIES
  0
POLYLINE
  5
90
  8
Layer_0
  62
7
  70
1
  66
1
  10
0
  20
0
  30
0
  0
VERTEX
  5
90
  8
Layer_0
  10
100
  20
0
  0
VERTEX
  5
91
  8
Layer_0
  10
99.997262
  20
0.0031816773
  0
VERTEX
  5
92
  8
Layer_0
  10
99.9768
  20
0.024916977
  0
VERTEX
  5
93
  8
Layer_0
  10
99.920243
  20
0.083491299
  0
VERTEX
  5
94
  8
Layer_0
  10
99.80922
  20
0.19719005
  0
VERTEX
  5
95
  8
Layer_0
  10
99.727542
  20
0.28042527
  0
VERTEX
  5
96
  8
Layer_0
  10
99.625359
  20
0.38429862
  0
VERTEX
  5
97
  8
Layer_0
  10
99.500374
  20
0.51109578
  0
VERTEX
  5
98
  8
Layer_0
  10
99.35029
  20
0.66310242
  0
VERTEX
  5
99
  8
Layer_0
  10
99.172811
  20
0.84260422
  0
VERTEX
  5
9a
  8
Layer_0
  10
98.96564
  20
1.0518868
  0
VERTEX
  5
9b
  8
Layer_0
  10
98.726482
  20
1.293236
  0
VERTEX
  5
9c
  8
Layer_0
  10
98.45304
  20
1.5689373
  0
VERTEX
  5
9d
  8
Layer_0
  10
98.143017
  20
1.8812765
  0
VERTEX
  5
9e
  8
Layer_0
  10
97.794116
  20
2.2325392
  0
VERTEX
  5
9f
  8
Layer_0
  10
97.404043
  20
2.6250111
  0
VERTEX
  5
a0
  8
Layer_0
  10
96.970499
  20
3.0609779
  0
VERTEX
  5
a1
  8
Layer_0
  10
96.49119
  20
3.5427253
  0
VERTEX
  5
a2
  8
Layer_0
  10
95.963818
  20
4.0725389
  0
VERTEX
  5
a3
  8
Layer_0
  10
95.386086
  20
4.6527044
  0
VERTEX
  5
a4
  8
Layer_0
  10
94.755699
  20
5.2855074
  0
VERTEX
  5
a5
  8
Layer_0
  10
94.070361
  20
5.9732338
  0
VERTEX
  5
a6
  8
Layer_0
  10
93.327774
  20
6.7181691
  0
VERTEX
  5
a7
  8
Layer_0
  10
92.525642
  20
7.5225989
  0
VERTEX
  5
a8
  8
Layer_0
  10
91.661669
  20
8.3888091
  0
VERTEX
  5
a9
  8
Layer_0
  10
90.733559
  20
9.3190852
  0
VERTEX
  5
aa
  8
Layer_0
  10
89.739015
  20
10.315713
  0
VERTEX
  5
ab
  8
Layer_0
  10
89.216112
  20
10.839623
  0
VERTEX
  5
ac
  8
Layer_0
  10
88.67574
  20
11.380978
  0
VERTEX
  5
ad
  8
Layer_0
  10
88.117612
  20
11.940064
  0
VERTEX
  5
ae
  8
Layer_0
  10
87.541439
  20
12.517166
  0
VERTEX
  5
af
  8
Layer_0
  10
86.946936
  20
13.112571
  0
VERTEX
  5
b0
  8
Layer_0
  10
86.333815
  20
13.726563
  0
VERTEX
  5
b1
  8
Layer_0
  10
85.701789
  20
14.359429
  0
VERTEX
  5
b2
  8
Layer_0
  10
85.050571
  20
15.011454
  0
VERTEX
  5
b3
  8
Layer_0
  10
84.379874
  20
15.682924
  0
VERTEX
  5
b4
  8
Layer_0
  10
83.689411
  20
16.374125
  0
VERTEX
  5
b5
  8
Layer_0
  10
82.978895
  20
17.085342
  0
VERTEX
  5
b6
  8
Layer_0
  10
82.248039
  20
17.816862
  0
VERTEX
  5
b7
  8
Layer_0
  10
81.496556
  20
18.568969
  0
VERTEX
  5
b8
  8
Layer_0
  10
80.724158
  20
19.34195
  0
VERTEX
  5
b9
  8
Layer_0
  10
79.930559
  20
20.13609
  0
VERTEX
  5
ba
  8
Layer_0
  10
79.115472
  20
20.951675
  0
VERTEX
  5
bb
  8
Layer_0
  10
78.278609
  20
21.788991
  0
VERTEX
  5
bc
  8
Layer_0
  10
77.419684
  20
22.648323
  0
VERTEX
  5
bd
  8
Layer_0
  10
76.53841
  20
23.529957
  0
VERTEX
  5
be
  8
Layer_0
  10
75.634499
  20
24.434179
  0
VERTEX
  5
bf
  8
Layer_0
  10
74.707664
  20
25.361275
  0
VERTEX
  5
c0
  8
Layer_0
  10
73.757619
  20
26.311529
  0
VERTEX
  5
c1
  8
Layer_0
  10
72.784076
  20
27.285229
  0
VERTEX
  5
c2
  8
Layer_0
  10
71.786748
  20
28.282659
  0
VERTEX
  5
c3
  8
Layer_0
  10
70.765349
  20
29.304106
  0
VERTEX
  5
c4
  8
Layer_0
  10
69.71959
  20
30.349855
  0
VERTEX
  5
c5
  8
Layer_0
  10
68.649186
  20
31.420191
  0
VERTEX
  5
c6
  8
Layer_0
  10
67.553849
  20
32.515401
  0
VERTEX
  5
c7
  8
Layer_0
  10
66.433292
  20
33.635771
  0
VERTEX
  5
c8
  8
Layer_0
  10
65.287227
  20
34.781585
  0
VERTEX
  5
c9
  8
Layer_0
  10
64.115369
  20
35.953129
  0
VERTEX
  5
ca
  8
Layer_0
  10
62.91743
  20
37.15069
  0
VERTEX
  5
cb
  8
Layer_0
  10
61.693122
  20
38.374553
  0
VERTEX
  5
cc
  8
Layer_0
  10
60.442159
  20
39.625004
  0
VERTEX
  5
cd
  8
Layer_0
  10
59.164254
  20
40.902329
  0
VERTEX
  5
ce
  8
Layer_0
  10
57.859119
  20
42.206812
  0
VERTEX
  5
cf
  8
Layer_0
  10
56.526468
  20
43.53874
  0
VERTEX
  5
d0
  8
Layer_0
  10
55.166013
  20
44.898399
  0
VERTEX
  5
d1
  8
Layer_0
  10
53.777468
  20
46.286074
  0
VERTEX
  5
d2
  8
Layer_0
  10
52.360546
  20
47.702051
  0
VERTEX
  5
d3
  8
Layer_0
  10
50.914959
  20
49.146616
  0
VERTEX
  5
d4
  8
Layer_0
  10
49.44042
  20
50.620054
  0
VERTEX
  5
d5
  8
Layer_0
  10
47.936642
  20
52.122652
  0
VERTEX
  5
d6
  8
Layer_0
  10
46.403339
  20
53.654694
  0
VERTEX
  5
d7
  8
Layer_0
  10
44.840223
  20
55.216467
  0
VERTEX
  5
d8
  8
Layer_0
  10
43.247007
  20
56.808256
  0
VERTEX
  5
d9
  8
Layer_0
  10
41.623404
  20
58.430346
  0
VERTEX
  5
da
  8
Layer_0
  10
39.969127
  20
60.083025
  0
VERTEX
  5
db
  8
Layer_0
  10
38.283889
  20
61.766577
  0
VERTEX
  5
dc
  8
Layer_0
  10
36.567404
  20
63.481288
  0
VERTEX
  5
dd
  8
Layer_0
  10
34.819382
  20
65.227444
  0
VERTEX
  5
de
  8
Layer_0
  10
33.039539
  20
67.00533
  0
VERTEX
  5
df
  8
Layer_0
  10
31.227587
  20
68.815233
  0
VERTEX
  5
e0
  8
Layer_0
  10
29.383238
  20
70.657437
  0
VERTEX
  5
e1
  8
Layer_0
  10
27.506206
  20
72.53223
  0
VERTEX
  5
e2
  8
Layer_0
  10
25.596204
  20
74.439895
  0
VERTEX
  5
e3
  8
Layer_0
  10
23.652944
  20
76.38072
  0
VERTEX
  5
e4
  8
Layer_0
  10
21.67614
  20
78.354989
  0
VERTEX
  5
e5
  8
Layer_0
  10
19.665504
  20
80.362989
  0
VERTEX
  5
e6
  8
Layer_0
  10
17.62075
  20
82.405005
  0
VERTEX
  5
e7
  8
Layer_0
  10
15.54159
  20
84.481323
  0
VERTEX
  5
e8
  8
Layer_0
  10
13.427737
  20
86.592228
  0
VERTEX
  5
e9
  8
Layer_0
  10
11.278905
  20
88.738007
  0
VERTEX
  5
ea
  8
Layer_0
  10
9.0948054
  20
90.918944
  0
VERTEX
  5
eb
  8
Layer_0
  10
6.8751524
  20
93.135327
  0
VERTEX
  5
ec
  8
Layer_0
  10
4.6196586
  20
95.38744
  0
VERTEX
  5
ed
  8
Layer_0
  10
2.3280368
  20
97.675569
  0
VERTEX
  5
ee
  8
Layer_0
  10
0
  20
100
  0
VERTEX
  5
ef
  8
Layer_0
  10
0
  20
0
  0
SEQEND
  0
ENDSEC
  0
EOF
