  0
SECTION
  2
HEADER
  9
$ACADVER
  1
AC1009
  0
ENDSEC
  0
SECTION
  2
TABLES
  0
TABLE
  2
LAYER
  70
1
  0
LAYER
  2
Layer_0
  70
0
  62
7
  6
CONTINUOUS
  0
ENDTAB
  0
ENDSEC
  0
SECTION
  2
ENTITIES
  0
POLYLINE
  5
90
  8
Layer_0
  62
7
  70
1
  66
1
  10
0
  20
0
  30
0
  0
VERTEX
  5
90
  8
Layer_0
  10
-683.5
  20
-674
  0
VERTEX
  5
91
  8
Layer_0
  10
-693.5
  20
-674
  0
VERTEX
  5
92
  8
Layer_0
  10
-693.5
  20
-703
  0
VERTEX
  5
93
  8
Layer_0
  10
-2218.5
  20
-703
  0
VERTEX
  5
94
  8
Layer_0
  10
-2218.5
  20
-674
  0
VERTEX
  5
95
  8
Layer_0
  10
-2228.5
  20
-674
  0
VERTEX
  5
96
  8
Layer_0
  10
-2228.5
  20
-648
  0
VERTEX
  5
97
  8
Layer_0
  10
-683.5
  20
-648
  0
SEQEND
  0
POLYLINE
  5
99
  8
Layer_0
  62
7
  70
1
  66
1
  10
0
  20
0
  30
0
  0
VERTEX
  5
99
  8
Layer_0
  10
-693.5
  20
-625
  0
VERTEX
  5
9a
  8
Layer_0
  10
-2218.5
  20
-625
  0
VERTEX
  5
9b
  8
Layer_0
  10
-2218.5
  20
-595
  0
VERTEX
  5
9c
  8
Layer_0
  10
-693.5
  20
-595
  0
SEQEND
  0
POLYLINE
  5
9e
  8
Layer_0
  62
7
  70
1
  66
1
  10
0
  20
0
  30
0
  0
VERTEX
  5
9e
  8
Layer_0
  10
119
  20
-9.5367432e-07
  0
VERTEX
  5
9f
  8
Layer_0
  10
0
  20
-9.5367432e-07
  0
VERTEX
  5
a0
  8
Layer_0
  10
0
  20
30
  0
VERTEX
  5
a1
  8
Layer_0
  10
119
  20
30
  0
SEQEND
  0
CIRCLE
  5
a3
  8
Layer_0
  62
7
  10
13
  20
4
  30
0
  40
2.5
  0
POLYLINE
  5
a3
  8
Layer_0
  62
7
  70
1
  66
1
  10
0
  20
0
  30
0
  0
VERTEX
  5
a3
  8
Layer_0
  10
164.99995
  20
4.0000076
  0
VERTEX
  5
a4
  8
Layer_0
  10
165
  20
4.0000076
  0
SEQEND
  0
POLYLINE
  5
a6
  8
Layer_0
  62
7
  70
1
  66
1
  10
0
  20
0
  30
0
  0
VERTEX
  5
a6
  8
Layer_0
  10
194.99994
  20
4.0000076
  0
VERTEX
  5
a7
  8
Layer_0
  10
195
  20
4.0000076
  0
SEQEND
  0
POLYLINE
  5
a9
  8
Layer_0
  62
7
  66
1
  10
0
  20
0
  30
0
  0
VERTEX
  5
a9
  8
Layer_0
  10
165.00114
  20
4
  0
VERTEX
  5
aa
  8
Layer_0
  10
165
  20
4
  0
SEQEND
  0
POLYLINE
  5
ac
  8
Layer_0
  62
7
  66
1
  10
0
  20
0
  30
0
  0
VERTEX
  5
ac
  8
Layer_0
  10
195.00114
  20
4
  0
VERTEX
  5
ad
  8
Layer_0
  10
195
  20
4
  0
SEQEND
  0
POLYLINE
  5
af
  8
Layer_0
  62
7
  70
1
  66
1
  10
0
  20
0
  30
0
  0
VERTEX
  5
af
  8
Layer_0
  10
225.00624
  20
4.0000076
  0
VERTEX
  5
b0
  8
Layer_0
  10
225
  20
4.0000076
  0
VERTEX
  5
b1
  8
Layer_0
  10
224.99365
  20
4.0000076
  0
SEQEND
  0
CIRCLE
  5
b3
  8
Layer_0
  62
7
  10
256.5
  20
2.5
  30
0
  40
2.5
  0
POLYLINE
  5
b3
  8
Layer_0
  62
7
  66
1
  10
0
  20
0
  30
0
  0
VERTEX
  5
b3
  8
Layer_0
  10
255
  20
0
  0
VERTEX
  5
b4
  8
Layer_0
  10
137.5
  20
0
  0
VERTEX
  5
b5
  8
Layer_0
  10
137.5
  20
2
  0
VERTEX
  5
b6
  8
Layer_0
  10
137.5
  20
8.8333311
  0
VERTEX
  5
b7
  8
Layer_0
  10
148.69765
  20
30.482105
  42
-0.21869588
  0
VERTEX
  5
b8
  8
Layer_0
  10
148
  20
32
  42
-0.41421356
  0
VERTEX
  5
b9
  8
Layer_0
  10
150
  20
34
  42
-0.41421356
  0
VERTEX
  5
ba
  8
Layer_0
  10
152
  20
32
  42
-0.21869588
  0
VERTEX
  5
bb
  8
Layer_0
  10
151.30235
  20
30.482094
  0
VERTEX
  5
bc
  8
Layer_0
  10
162.95955
  20
7.94485
  42
0.1554809
  0
VERTEX
  5
bd
  8
Layer_0
  10
162.5
  20
6.5
  42
0.41421356
  0
VERTEX
  5
be
  8
Layer_0
  10
165
  20
4
  42
0.41421356
  0
VERTEX
  5
bf
  8
Layer_0
  10
167.5
  20
6.5
  42
0.15548699
  0
VERTEX
  5
c0
  8
Layer_0
  10
167.04044
  20
7.9448547
  0
VERTEX
  5
c1
  8
Layer_0
  10
178.69765
  20
30.482105
  42
-0.21869588
  0
VERTEX
  5
c2
  8
Layer_0
  10
178
  20
32
  42
-0.41421356
  0
VERTEX
  5
c3
  8
Layer_0
  10
180
  20
34
  42
-0.41421356
  0
VERTEX
  5
c4
  8
Layer_0
  10
182
  20
32
  42
-0.21869588
  0
VERTEX
  5
c5
  8
Layer_0
  10
181.30235
  20
30.482105
  0
VERTEX
  5
c6
  8
Layer_0
  10
192.95956
  20
7.9448605
  42
0.15548671
  0
VERTEX
  5
c7
  8
Layer_0
  10
192.5
  20
6.5
  42
0.41421356
  0
VERTEX
  5
c8
  8
Layer_0
  10
195
  20
4
  42
0.41421356
  0
VERTEX
  5
c9
  8
Layer_0
  10
197.5
  20
6.5
  42
0.15548742
  0
VERTEX
  5
ca
  8
Layer_0
  10
197.04044
  20
7.9448485
  0
VERTEX
  5
cb
  8
Layer_0
  10
208.69765
  20
30.482105
  42
-0.21869588
  0
VERTEX
  5
cc
  8
Layer_0
  10
208
  20
32
  42
-0.41421356
  0
VERTEX
  5
cd
  8
Layer_0
  10
210
  20
34
  42
-0.41421356
  0
VERTEX
  5
ce
  8
Layer_0
  10
212
  20
32
  42
-0.21869588
  0
VERTEX
  5
cf
  8
Layer_0
  10
211.30235
  20
30.482094
  0
VERTEX
  5
d0
  8
Layer_0
  10
222.95955
  20
7.94485
  42
0.1554809
  0
VERTEX
  5
d1
  8
Layer_0
  10
222.5
  20
6.5
  42
0.41421356
  0
VERTEX
  5
d2
  8
Layer_0
  10
225
  20
4
  42
0.41421356
  0
VERTEX
  5
d3
  8
Layer_0
  10
227.5
  20
6.5
  42
0.15548699
  0
VERTEX
  5
d4
  8
Layer_0
  10
227.04044
  20
7.9448547
  0
VERTEX
  5
d5
  8
Layer_0
  10
238.69765
  20
30.482105
  42
-0.21869588
  0
VERTEX
  5
d6
  8
Layer_0
  10
238
  20
32
  42
-0.41421356
  0
VERTEX
  5
d7
  8
Layer_0
  10
240
  20
34
  42
-0.41421356
  0
VERTEX
  5
d8
  8
Layer_0
  10
242
  20
32
  42
-0.21869588
  0
VERTEX
  5
d9
  8
Layer_0
  10
241.30235
  20
30.482105
  0
VERTEX
  5
da
  8
Layer_0
  10
254.81882
  20
4.350317
  0
SEQEND
  0
ENDSEC
  0
EOF
